<?xml version="1.0" standalone="no"?>
<!DOCTYPE svg PUBLIC "-//W3C//DTD SVG 1.1//EN" "http://www.w3.org/Graphics/SVG/1.1/DTD/svg11.dtd" >
<svg xmlns="http://www.w3.org/2000/svg" xmlns:xlink="http://www.w3.org/1999/xlink" version="1.1">
<metadata>
Created by FontForge 20170731 at Wed Sep 27 22:36:28 2017
 By Aleksey,,,
Copyright (C)2017 Commercial Type.
</metadata>
<defs>
<font id="YSText-Bold" horiz-adv-x="550" >
  <font-face 
    font-family="YS Text Bold"
    font-weight="700"
    font-stretch="normal"
    units-per-em="1000"
    panose-1="0 0 0 0 0 0 0 0 0 0"
    ascent="750"
    descent="-250"
    x-height="519"
    cap-height="717"
    bbox="-313 -245 1446 1010"
    underline-thickness="96"
    underline-position="-238"
    unicode-range="U+000D-FEFF"
  />
<missing-glyph horiz-adv-x="200" 
 />
    <glyph glyph-name=".notdef" horiz-adv-x="200" 
 />
    <glyph glyph-name=".null" horiz-adv-x="0" 
 />
    <glyph glyph-name="nonmarkingreturn" unicode="&#xd;" horiz-adv-x="202" 
 />
    <glyph glyph-name="space" unicode=" " horiz-adv-x="220" 
 />
    <glyph glyph-name="exclam" unicode="!" horiz-adv-x="295" 
d="M219 717l-17 -493h-109l-16 493h142zM148 -7q-19 0 -36 7t-29.5 19.5t-19.5 28.5t-7 34t7 34t19.5 28t29.5 19t36 7t35.5 -7t29 -19t19.5 -28t7 -34t-7 -34t-19.5 -28.5t-29 -19.5t-35.5 -7z" />
    <glyph glyph-name="quotedbl" unicode="&#x22;" horiz-adv-x="422" 
d="M52 717h138l-17 -260h-104zM232 717h138l-17 -260h-104z" />
    <glyph glyph-name="numbersign" unicode="#" horiz-adv-x="648" 
d="M360 185h-118l-22 -185h-114l22 185h-96v115h110l16 137h-100v115h113l20 165h115l-20 -165h118l20 165h114l-20 -165h98v-115h-111l-16 -137h102v-115h-116l-22 -185h-115zM374 300l16 137h-118l-16 -137h118z" />
    <glyph glyph-name="dollar" unicode="$" 
d="M517 209q0 -50 -14 -87t-38 -63t-57 -41.5t-72 -22.5v-150h-131v147q-68 6 -107 24.5t-61 34.5v111q15 -10 35.5 -21t46.5 -20t59 -15t74 -6q69 0 98 22.5t29 73.5q0 27 -9 44t-27 28.5t-43.5 19.5t-58.5 16q-38 9 -74 24t-64.5 39.5t-45.5 60.5t-17 88q0 81 42.5 134
t130.5 70v134h131v-129q58 -5 90.5 -20t50.5 -26v-110q-23 15 -67.5 31t-115.5 16q-37 0 -61 -6t-38 -17t-19.5 -27t-5.5 -36q0 -26 9 -42t25.5 -26.5t39 -17.5t49.5 -13q40 -9 78.5 -22.5t69 -38.5t49.5 -64t19 -97z" />
    <glyph glyph-name="percent" unicode="%" horiz-adv-x="650" 
d="M45 -3l453 722h108l-453 -722h-108zM297 536q0 -89 -39.5 -137t-107.5 -48t-108 45.5t-40 135.5q0 91 40 138.5t108 47.5t107.5 -45.5t39.5 -136.5zM106 534q0 -56 11 -78.5t33 -22.5t33 22.5t11 78.5q0 57 -10.5 79t-33.5 22t-33.5 -22t-10.5 -79zM648 180
q0 -89 -39.5 -137t-107.5 -48q-67 0 -107.5 46t-40.5 135q0 91 40.5 138.5t107.5 47.5q68 0 107.5 -45.5t39.5 -136.5zM457 178q0 -56 11.5 -78t32.5 -22q23 0 34 22t11 78t-11 78.5t-34 22.5q-22 0 -33 -22.5t-11 -78.5z" />
    <glyph glyph-name="ampersand" unicode="&#x26;" horiz-adv-x="753" 
d="M677 2q-40 0 -77 13t-75 37q-42 -29 -95 -46t-119 -17q-130 0 -201 56.5t-71 150.5q0 69 37 113t95 69q-35 44 -51 85.5t-16 84.5q0 37 13.5 69.5t40.5 57t67 38.5t93 14q54 0 95 -14t69 -38.5t42.5 -57.5t14.5 -70q0 -36 -12 -65t-33.5 -52t-50.5 -41.5t-62 -33.5
l103 -99l40 -39q20 34 32 73t17 78l114 -27q-7 -51 -25 -102.5t-50 -97.5q20 -13 39.5 -19t42.5 -6q14 0 27.5 2.5t23.5 4.5l-12 -112q-8 -3 -22 -6t-34 -3zM174 204q0 -29 12 -48.5t31.5 -31.5t45 -17.5t53.5 -5.5q65 0 114 26q-17 15 -35 32t-38 35l-117 113
q-29 -17 -47.5 -40.5t-18.5 -62.5zM243 547q0 -37 19 -66.5t47 -56.5q46 25 69 54.5t23 69.5q0 37 -21 58t-59 21q-41 0 -59.5 -22.5t-18.5 -57.5z" />
    <glyph glyph-name="quotesingle" unicode="'" horiz-adv-x="242" 
d="M52 717h138l-17 -260h-104z" />
    <glyph glyph-name="parenleft" unicode="(" horiz-adv-x="407" 
d="M229 -139q-76 88 -113 199.5t-37 246.5t37 251.5t113 197.5h140q-80 -80 -118.5 -195.5t-38.5 -250.5t38.5 -247t118.5 -202h-140z" />
    <glyph glyph-name="parenright" unicode=")" horiz-adv-x="407" 
d="M178.014 -139q75.9961 88 112.993 199.5q36.998 111.5 36.998 246.5t-36.998 251.5q-36.9971 116.5 -112.993 197.5h-139.991q79.9951 -80 118.493 -195.5q38.4971 -115.5 38.4971 -250.5t-38.4971 -247q-38.498 -112 -118.493 -202h139.991z" />
    <glyph glyph-name="asterisk" unicode="*" horiz-adv-x="465" 
d="M295 332l-61 114l-62 -114l-99 73l89 95l-126 23l37 120l115 -55l-17 129h124l-18 -130l115 56l38 -120l-127 -21l90 -97z" />
    <glyph glyph-name="plus" unicode="+" 
d="M330 287v-210h-110v210h-195v100h195v210h110v-210h196v-100h-196z" />
    <glyph glyph-name="comma" unicode="," horiz-adv-x="270" 
d="M44 -112q20 20 37.5 53t25.5 65q-32 9 -47 31t-15 48q0 36 25.5 60.5t64.5 24.5q42 0 67 -25t25 -75q0 -28 -8 -55t-20.5 -51t-28 -43.5t-29.5 -32.5h-97z" />
    <glyph glyph-name="hyphen" unicode="-" horiz-adv-x="353" 
d="M52 365h249v-114h-249v114z" />
    <glyph glyph-name="period" unicode="." horiz-adv-x="270" 
d="M135 -7q-19 0 -35.5 7t-29 19.5t-19.5 29t-7 34.5t7 34t19.5 28t29 19t35.5 7t36 -7t29.5 -19t19.5 -28t7 -34t-7 -34.5t-19.5 -29t-29.5 -19.5t-36 -7z" />
    <glyph glyph-name="slash" unicode="/" horiz-adv-x="425" 
d="M0 -120l310 876h115l-310 -876h-115z" />
    <glyph glyph-name="zero" unicode="0" 
d="M277 -10q-55 0 -101 21t-79 65.5t-51.5 114.5t-18.5 168t18.5 167.5t51.5 114t79 65t101 20.5q54 0 99.5 -20.5t78.5 -64.5t51 -113.5t18 -166.5q0 -98 -18 -168t-51 -115t-78.5 -66.5t-99.5 -21.5zM276 102q26 0 46 12.5t33 42.5t19.5 79t6.5 122q0 72 -6.5 121t-19 79
t-32 43t-46.5 13t-47 -13t-33.5 -43t-20 -79t-6.5 -121q0 -73 6.5 -122t20 -79t33 -42.5t46.5 -12.5z" />
    <glyph glyph-name="one" unicode="1" 
d="M407 0h-143v570l-209 -152v135l225 164h127v-717z" />
    <glyph glyph-name="two" unicode="2" 
d="M517 0h-469v132q90 67 152.5 119t100.5 95t55 81t17 79q0 50 -29.5 78.5t-82.5 28.5t-101.5 -23t-91.5 -61v126q42 32 91.5 51.5t121.5 19.5q53 0 97 -14.5t75.5 -42.5t48.5 -68.5t17 -91.5q0 -50 -19.5 -95t-59 -91t-100.5 -96.5t-144 -111.5h321v-115z" />
    <glyph glyph-name="three" unicode="3" 
d="M512 205q0 -49 -19 -89t-53.5 -68t-83.5 -43t-109 -15q-73 0 -123.5 17.5t-82.5 40.5v121q16 -12 35.5 -24t42.5 -21.5t51.5 -16t62.5 -6.5q69 0 102 29.5t33 80.5q0 103 -133 103h-85v114h90q48 0 77.5 24.5t29.5 71.5q0 43 -29 67t-85 24q-57 0 -99 -20.5t-77 -47.5
v121q33 25 79 41.5t120 16.5q53 0 96 -14t73 -39t46 -60.5t16 -77.5q0 -33 -11.5 -60t-30 -47.5t-43 -33t-50.5 -17.5q32 -5 61 -18.5t51 -35.5t35 -51.5t13 -66.5z" />
    <glyph glyph-name="four" unicode="4" 
d="M453 156v-156h-138v156h-291v102l280 459h149v-453h79v-108h-79zM315 264v274l-168 -274h168z" />
    <glyph glyph-name="five" unicode="5" 
d="M508 243q0 -56 -20 -102.5t-56.5 -80t-87.5 -52t-112 -18.5q-70 0 -116 16t-78 36v123q34 -22 79.5 -43t105.5 -21q69 0 105.5 39t36.5 97t-28.5 92t-87.5 34q-35 0 -58 -12t-34 -27h-104v393h423v-116h-301v-162q17 13 44 23t69 10q103 0 161.5 -60.5t58.5 -168.5z" />
    <glyph glyph-name="six" unicode="6" 
d="M527 243q0 -62 -21 -109t-55.5 -79t-80 -48.5t-93.5 -16.5q-56 0 -103 18t-80.5 58.5t-52 104t-18.5 155.5q0 82 17.5 154.5t54.5 127.5t94 87t137 32q50 0 89 -12t67 -30v-115q-35 23 -73.5 34.5t-73.5 11.5q-76 0 -117 -53t-53 -148q29 34 65.5 51.5t85.5 17.5
q42 0 80 -14t67 -43.5t46.5 -75t17.5 -108.5zM277 100q21 0 40.5 9t34 26.5t23.5 44t9 61.5q0 34 -8.5 59.5t-22.5 42t-32 24.5t-38 8q-22 0 -42 -8t-35 -24.5t-23.5 -42t-8.5 -59.5q-2 -69 28 -105t75 -36z" />
    <glyph glyph-name="seven" unicode="7" 
d="M244 0h-150l265 600h-325v117h484v-81z" />
    <glyph glyph-name="eight" unicode="8" 
d="M526 192q0 -47 -18.5 -84.5t-51.5 -63.5t-78.5 -40t-99.5 -14q-56 0 -102 13.5t-79 39t-51.5 62.5t-18.5 84q0 69 37 116t102 69q-54 20 -85.5 61.5t-31.5 103.5q0 45 17 80t48 59t72.5 36t91.5 12q48 0 90 -12t72.5 -35t48 -57.5t17.5 -80.5q0 -63 -31.5 -105t-85.5 -62
q63 -21 100 -67t37 -115zM278 426q40 0 64 25t24 70t-24 70t-64 25q-41 0 -65.5 -25t-24.5 -70t24.5 -70t65.5 -25zM278 101q45 0 74 28.5t29 82.5t-29 82.5t-74 28.5q-48 0 -77.5 -28.5t-29.5 -82.5t29.5 -82.5t77.5 -28.5z" />
    <glyph glyph-name="nine" unicode="9" 
d="M528 394q0 -85 -18 -159t-56 -128.5t-97 -85.5t-141 -31q-51 0 -91 11.5t-69 30.5v115q35 -23 75 -35t76 -12q80 0 122.5 53.5t55.5 148.5q-28 -33 -64.5 -49.5t-85.5 -16.5q-42 0 -80 14t-67 43t-46.5 74t-17.5 107q0 61 21 108.5t55.5 79.5t79.5 48.5t93 16.5
q57 0 103.5 -18t80.5 -58t52.5 -103t18.5 -154zM273 616q-42 0 -74 -34.5t-32 -105.5q0 -34 8.5 -58.5t22.5 -40.5t32 -24t38 -8q22 0 42 7.5t35 24t23.5 41t8.5 59.5q0 69 -29.5 104t-74.5 35z" />
    <glyph glyph-name="colon" unicode=":" horiz-adv-x="270" 
d="M135 -7q-19 0 -35.5 7t-29 19.5t-19.5 29t-7 34.5t7 34t19.5 28t29 19t35.5 7t36 -7t29.5 -19t19.5 -28t7 -34t-7 -34.5t-19.5 -29t-29.5 -19.5t-36 -7zM135 323q-19 0 -35.5 7t-29 19.5t-19.5 29t-7 34.5t7 34t19.5 28t29 19t35.5 7t36 -7t29.5 -19t19.5 -28t7 -34
t-7 -34.5t-19.5 -29t-29.5 -19.5t-36 -7z" />
    <glyph glyph-name="semicolon" unicode=";" horiz-adv-x="270" 
d="M44 -112q20 20 37.5 53t25.5 65q-32 9 -47 31t-15 48q0 36 25.5 60.5t64.5 24.5q42 0 67 -25t25 -75q0 -28 -8 -55t-20.5 -51t-28 -43.5t-29.5 -32.5h-97zM134 323q-19 0 -35.5 7t-29 19.5t-19.5 29t-7 34.5t7 34t19.5 28t29 19t35.5 7t36 -7t29.5 -19t19.5 -28t7 -34
t-7 -34.5t-19.5 -29t-29.5 -19.5t-36 -7z" />
    <glyph glyph-name="less" unicode="&#x3c;" 
d="M60 277v120l433 198v-110l-324 -148l324 -147v-110z" />
    <glyph glyph-name="equal" unicode="=" horiz-adv-x="549" 
d="M24 397v100h501v-100h-501zM24 177v100h501v-100h-501z" />
    <glyph glyph-name="greater" unicode="&#x3e;" 
d="M60 190l324 147l-324 148v110l433 -198v-120l-433 -197v110z" />
    <glyph glyph-name="question" unicode="?" horiz-adv-x="470" 
d="M445 525q0 -48 -15 -81t-37.5 -56.5t-48.5 -40.5t-48.5 -32t-37.5 -31t-15 -38v-22h-131v21q0 43 14 71t34.5 48t45 34.5t45 31t34.5 38t14 55.5q0 18 -5 34.5t-18 29.5t-36.5 21t-60.5 8q-45 0 -78 -10.5t-54 -24.5v111q23 12 62 23t96 11q60 0 105 -14.5t75 -41
t45 -63.5t15 -82zM180 -7q-19 0 -35.5 7t-29 19.5t-19.5 28.5t-7 34t7 34t19.5 28t29 19t35.5 7t36 -7t29.5 -19t19.5 -28t7 -34t-7 -34t-19.5 -28.5t-29.5 -19.5t-36 -7z" />
    <glyph glyph-name="at" unicode="@" horiz-adv-x="1020" 
d="M737 -159q-29 -14 -91.5 -26.5t-139.5 -12.5q-98 0 -182.5 28t-147.5 83.5t-99 138t-36 192.5q0 106 37.5 195t104.5 152.5t160 99t203 35.5q95 0 179 -27t147 -78t99.5 -124t36.5 -165q0 -60 -15 -115.5t-46 -98.5t-77 -69t-108 -26q-38 0 -66 9.5t-46.5 25t-29.5 36.5
t-15 45q-27 -57 -72 -86.5t-100 -29.5q-32 0 -63.5 11.5t-56 36t-39.5 64.5t-15 97q0 53 16.5 101.5t45.5 85t70 58.5t90 22q50 0 86 -25.5t53 -80.5l31 76h106l-35 -245q-6 -51 7.5 -82.5t56.5 -31.5q29 0 50.5 16.5t36 44.5t21.5 66t7 80q0 79 -27 139.5t-75 101.5
t-113.5 62.5t-141.5 21.5q-84 0 -156.5 -27.5t-125.5 -78t-83.5 -122.5t-30.5 -161q0 -92 26.5 -161t75.5 -115t116.5 -68.5t150.5 -22.5q84 0 139 15t81 29v-89zM386 228q0 -33 8 -55t20.5 -34.5t29 -18t33.5 -5.5q29 0 52.5 14t39.5 38t24.5 55.5t8.5 66.5q0 33 -7.5 55
t-20.5 35.5t-29 19t-32 5.5q-32 0 -56 -15.5t-39.5 -40t-23.5 -56t-8 -64.5z" />
    <glyph glyph-name="A" unicode="A" horiz-adv-x="703" 
d="M265 717h173l252 -717h-144l-61 174h-290l-61 -174h-121zM444 293l-104 296l-103 -296h207z" />
    <glyph glyph-name="B" unicode="B" horiz-adv-x="657" 
d="M71 717h246q136 0 207 -40t71 -135q0 -77 -45.5 -116.5t-120.5 -53.5q94 -11 143 -49t49 -116q0 -56 -23 -95.5t-64 -64t-97 -36t-122 -11.5h-244v717zM214 597v-169h118q54 0 87 22t33 69t-30 62.5t-84 15.5h-124zM214 310v-191h122q62 0 100 21t38 76q0 52 -35.5 73
t-111.5 21h-113z" />
    <glyph glyph-name="C" unicode="C" horiz-adv-x="656" 
d="M407 -10q-85 0 -153.5 25t-117 72.5t-74.5 115.5t-26 155t25.5 155t73.5 115.5t116.5 72.5t155.5 25q75 0 125.5 -13.5t79.5 -30.5v-123q-35 22 -86 35t-111 13q-118 0 -174 -62t-56 -187q0 -249 232 -249q60 0 109.5 13.5t85.5 38.5v-120q-27 -20 -78.5 -35.5
t-126.5 -15.5z" />
    <glyph glyph-name="D" unicode="D" horiz-adv-x="725" 
d="M71 717h244q79 0 147.5 -17t119 -56t79 -103t28.5 -158q0 -95 -29 -166.5t-80 -119.5t-121.5 -72.5t-153.5 -24.5h-234v717zM214 597v-478h98q51 0 93 15t72 46.5t47 80t17 115.5q0 65 -16.5 108t-46 68t-69.5 35t-87 10h-108z" />
    <glyph glyph-name="E" unicode="E" horiz-adv-x="606" 
d="M71 717h477v-120h-334v-167h282v-119h-282v-192h339v-119h-482v717z" />
    <glyph glyph-name="F" unicode="F" horiz-adv-x="577" 
d="M71 717h471v-120h-328v-188h278v-119h-278v-290h-143v717z" />
    <glyph glyph-name="G" unicode="G" horiz-adv-x="744" 
d="M706 287q0 -63 -19.5 -117.5t-58.5 -94t-98.5 -62.5t-139.5 -23t-145 25.5t-111.5 73.5t-72 116t-25.5 153t25 153t73.5 116t120 73.5t164.5 25.5q45 0 80.5 -5t63.5 -13.5t50 -19t40 -20.5v-123q-45 26 -99 44t-128 18q-128 0 -184.5 -65.5t-56.5 -183.5
q0 -119 53.5 -184t152.5 -65q45 0 77.5 12.5t53.5 34t30.5 51t9.5 63.5h-192v119h336v-102v0z" />
    <glyph glyph-name="H" unicode="H" horiz-adv-x="738" 
d="M524 297h-310v-297h-143v717h143v-301h310v301h143v-717h-143v297z" />
    <glyph glyph-name="I" unicode="I" horiz-adv-x="284" 
d="M214 717v-717h-143v717h143z" />
    <glyph glyph-name="J" unicode="J" horiz-adv-x="405" 
d="M341 717v-554q0 -36 -11.5 -67.5t-35.5 -55t-61 -37t-88 -13.5q-29 0 -59 4.5t-58 16.5v118q24 -11 43 -15.5t41 -4.5q27 0 44.5 6.5t27 18.5t13 29t3.5 38v516h141z" />
    <glyph glyph-name="K" unicode="K" horiz-adv-x="671" 
d="M279 291h-65v-291h-143v717h143v-308h71l216 308h149l-252 -358l262 -359h-169z" />
    <glyph glyph-name="L" unicode="L" horiz-adv-x="560" 
d="M526 0h-455v717h143v-598h312v-119z" />
    <glyph glyph-name="M" unicode="M" horiz-adv-x="878" 
d="M664 505l-172 -395h-127l-167 401v-511h-127v717h187l181 -454l197 454h171v-717h-143v505z" />
    <glyph glyph-name="N" unicode="N" horiz-adv-x="739" 
d="M669 0h-181l-290 540v-540h-127v717h183l288 -536v536h127v-717z" />
    <glyph glyph-name="O" unicode="O" horiz-adv-x="775" 
d="M387 -10q-74 0 -138 23.5t-111 70t-74.5 115t-27.5 158.5t27.5 158.5t74.5 115.5t111 71t138 24t138 -23.5t111.5 -69.5t75 -114t27.5 -158t-27.5 -159t-75 -116t-111.5 -71.5t-138 -24.5zM387 109q44 0 81 13.5t64 43t42.5 77t15.5 115.5t-15.5 115.5t-42.5 77t-64 43
t-81 13.5q-43 0 -80 -13.5t-64 -43t-42.5 -77t-15.5 -115.5t15.5 -115.5t42.5 -77t64 -43t80 -13.5z" />
    <glyph glyph-name="P" unicode="P" horiz-adv-x="627" 
d="M71 717h238q138 0 213.5 -53t75.5 -171q0 -63 -20.5 -109t-58.5 -75.5t-92 -43.5t-120 -14h-93v-251h-143v717zM214 597v-228h93q70 0 108.5 26.5t38.5 91.5q0 57 -36.5 83.5t-108.5 26.5h-95z" />
    <glyph glyph-name="Q" unicode="Q" horiz-adv-x="775" 
d="M693 -149q-129 36 -232 72t-186 73q-56 25 -100.5 57.5t-75.5 76t-47 99t-16 126.5q0 90 27 159t74 116t111 71.5t139 24.5q73 0 137 -23.5t112 -69t75.5 -114t27.5 -158.5q0 -62 -12.5 -115.5t-41 -97.5t-74 -77.5t-111.5 -53.5q62 -15 123.5 -24.5t116.5 -16.5z
M387 109q44 0 81 13.5t64 43t42.5 77t15.5 115.5t-15.5 115.5t-42.5 77t-64 43t-81 13.5q-43 0 -80 -13.5t-64 -43t-42.5 -77t-15.5 -115.5t15.5 -115.5t42.5 -77t64 -43t80 -13.5z" />
    <glyph glyph-name="R" unicode="R" horiz-adv-x="666" 
d="M71 717h253q143 0 214 -52t71 -169q0 -86 -38 -134t-106 -68l176 -294h-165l-165 277h-97v-277h-143v717zM214 597v-207h109q68 0 105 23.5t37 83.5q0 56 -35.5 78t-105.5 22h-110z" />
    <glyph glyph-name="S" unicode="S" horiz-adv-x="594" 
d="M279 -10q-44 0 -79.5 6t-64 15t-50 20.5t-37.5 22.5v120q16 -12 40.5 -23.5t54.5 -20.5t64 -15t69 -6q67 0 107 18t40 66q0 26 -11 43t-31 28t-48.5 19t-62.5 16q-39 9 -79.5 23t-72.5 38t-52.5 61.5t-20.5 95.5q0 51 20 90.5t57 65.5t89.5 39.5t117.5 13.5
q77 0 123.5 -14.5t70.5 -28.5v-120q-32 20 -79 32t-109 12q-75 0 -111 -20.5t-36 -59.5q0 -24 11.5 -39.5t30.5 -25.5t44.5 -16.5t54.5 -13.5q42 -10 84.5 -23t76.5 -37t55.5 -62.5t21.5 -99.5q0 -65 -24.5 -107t-64.5 -67.5t-92 -35.5t-107 -10z" />
    <glyph glyph-name="T" unicode="T" horiz-adv-x="614" 
d="M378 597v-597h-143v597h-215v120h573v-120h-215z" />
    <glyph glyph-name="U" unicode="U" horiz-adv-x="683" 
d="M55 717h144v-455q0 -78 41.5 -115.5t111.5 -37.5t110.5 37.5t40.5 115.5v455h127v-463q0 -63 -20 -112.5t-57 -83t-89.5 -51t-116.5 -17.5q-63 0 -116.5 16.5t-92.5 49t-61 81t-22 112.5v468z" />
    <glyph glyph-name="V" unicode="V" horiz-adv-x="691" 
d="M434 0h-176l-254 717h149l200 -580l205 580h129z" />
    <glyph glyph-name="W" unicode="W" horiz-adv-x="989" 
d="M818 0h-187l-137 511l-136 -511h-187l-152 717h146l112 -564l153 564h144l152 -557l117 557h127z" />
    <glyph glyph-name="X" unicode="X" horiz-adv-x="641" 
d="M310 263l-158 -263h-142l224 361l-220 356h163l155 -257l151 257h143l-219 -354l229 -363h-162z" />
    <glyph glyph-name="Y" unicode="Y" horiz-adv-x="614" 
d="M380 303v-303h-144v302l-233 415h158l156 -291l161 291h133z" />
    <glyph glyph-name="Z" unicode="Z" horiz-adv-x="622" 
d="M583 0h-547v106l371 491h-360v120h535v-107l-372 -491h373v-119z" />
    <glyph glyph-name="bracketleft" unicode="[" horiz-adv-x="458" 
d="M98 756h324v-105h-193v-685h193v-105h-324v895z" />
    <glyph glyph-name="backslash" unicode="\" horiz-adv-x="425" 
d="M0 756h115l310 -876h-115z" />
    <glyph glyph-name="bracketright" unicode="]" horiz-adv-x="458" 
d="M360.006 756h-323.98v-105h192.988v-685h-192.988v-105h323.98v895z" />
    <glyph glyph-name="asciicircum" unicode="^" horiz-adv-x="441" 
d="M221 618l-102 -160h-108l142 259h134l143 -259h-109z" />
    <glyph glyph-name="underscore" unicode="_" horiz-adv-x="410" 
d="M-10 -25h430v-104h-430v104z" />
    <glyph glyph-name="grave" unicode="`" horiz-adv-x="441" 
d="M216 588l-127 158h147l81 -158h-101z" />
    <glyph glyph-name="a" unicode="a" horiz-adv-x="545" 
d="M365 0q-3 15 -5.5 39.5t-4.5 42.5q-8 -17 -20.5 -33t-31.5 -29.5t-44.5 -21.5t-59.5 -8q-33 0 -62.5 9t-52 28t-35.5 47t-13 66q0 83 65 128t185 45h64v23q0 48 -24.5 65.5t-78.5 17.5t-99 -14t-79 -31v110q34 17 87 31t116 14q102 0 159.5 -43t57.5 -137v-265
q0 -9 0.5 -20.5t1 -23.5t1.5 -22.5t2 -17.5h-129zM241 89q34 0 55 14.5t33 33.5t16.5 37.5t4.5 26.5v31h-59q-62 0 -90.5 -20.5t-28.5 -55.5q0 -32 18.5 -49.5t50.5 -17.5z" />
    <glyph glyph-name="b" unicode="b" horiz-adv-x="625" 
d="M594 260q0 -69 -18.5 -119.5t-49.5 -84t-73 -50t-88 -16.5q-60 0 -102.5 27t-67.5 73l-5 -90h-130v717h138l-1 -281q26 44 68 68.5t101 24.5q46 0 87.5 -16.5t73 -50t49.5 -84t18 -118.5zM326 101q56 0 91 39t35 120q0 80 -35 119.5t-90 39.5q-56 0 -93 -39.5t-37 -119.5
q0 -81 37 -120t92 -39z" />
    <glyph glyph-name="c" unicode="c" horiz-adv-x="509" 
d="M310 -10q-65 0 -116.5 18.5t-87.5 53t-55.5 84.5t-19.5 114q0 63 19.5 113t55.5 84.5t88 53t117 18.5q60 0 100 -12.5t63 -29.5v-110q-30 19 -64 30.5t-87 11.5q-150 0 -150 -159t148 -159q55 0 89 11.5t64 29.5v-109q-23 -17 -63.5 -30t-100.5 -13z" />
    <glyph glyph-name="d" unicode="d" horiz-adv-x="625" 
d="M431 92q-25 -47 -66.5 -74.5t-102.5 -27.5q-44 0 -86 16.5t-74 50t-51.5 84t-19.5 119.5q0 68 19.5 118.5t52 84t74 50t86.5 16.5q57 0 97.5 -22t66.5 -60v270h138v-717h-128zM301 101q27 0 50 9.5t40 29.5t27 49.5t10 70.5q0 81 -36.5 120t-90.5 39q-55 0 -91.5 -40.5
t-36.5 -118.5q0 -80 36 -119.5t92 -39.5z" />
    <glyph glyph-name="e" unicode="e" horiz-adv-x="567" 
d="M511 34q-12 -7 -27.5 -14.5t-37 -14t-50 -11t-67.5 -4.5q-152 0 -225 71t-73 199q0 63 19.5 113t54.5 84.5t83.5 53t107.5 18.5q60 0 108 -19.5t79.5 -57.5t43.5 -96t0 -134h-352q8 -61 44.5 -91.5t116.5 -30.5q64 0 104.5 14t70.5 29v-109zM298 426q-46 0 -77 -28
t-42 -81h216q1 55 -24 82t-73 27z" />
    <glyph glyph-name="f" unicode="f" horiz-adv-x="413" 
d="M237 410v-410h-138v410h-61v109h61v6q0 48 15 85t43 63t67 39.5t86 13.5q30 0 48 -2.5t32 -6.5v-112q-9 4 -26.5 7.5t-41.5 3.5q-38 0 -61.5 -22t-23.5 -69v-6h142v-109h-142z" />
    <glyph glyph-name="g" unicode="g" horiz-adv-x="620" 
d="M556 85q0 -62 -16.5 -111t-52 -83t-92 -52t-137.5 -18q-42 0 -73 4.5t-53.5 11t-38.5 14t-27 14.5v110q15 -8 32.5 -16t40 -14t51.5 -10t68 -4t68.5 6t49.5 22.5t30.5 45t10.5 74.5v31q-24 -41 -63 -64.5t-96 -24.5q-45 0 -86.5 15.5t-73 47.5t-50 79.5t-18.5 110.5
q0 64 19 111.5t50.5 79.5t73 48t87.5 16q58 0 98.5 -24t64.5 -66q0 18 2.5 42t6.5 38h129q-2 -14 -3.5 -40t-1.5 -43v-351zM298 132q53 0 86.5 35t33.5 107q0 73 -33.5 109t-87.5 36q-53 0 -88.5 -36.5t-35.5 -108.5q0 -71 36 -106.5t89 -35.5z" />
    <glyph glyph-name="h" unicode="h" horiz-adv-x="594" 
d="M320 419q-42 0 -72.5 -17t-49.5 -44v-358h-138v717h138v-187l-1 -90h1q23 38 63 63.5t103 25.5q37 0 69.5 -10.5t56 -31t37 -51.5t13.5 -73v-363h-139v348q0 39 -21.5 55t-59.5 16z" />
    <glyph glyph-name="i" unicode="i" horiz-adv-x="260" 
d="M130 577q-36 0 -60.5 24t-24.5 58t24.5 58t60.5 24q18 0 33 -6.5t26.5 -17.5t18 -26t6.5 -32t-6.5 -32t-18 -26t-26.5 -17.5t-33 -6.5zM199 519v-519h-138v519h138z" />
    <glyph glyph-name="j" unicode="j" horiz-adv-x="273" 
d="M143 577q-35 0 -59.5 24t-24.5 58t24.5 58t59.5 24q18 0 33.5 -6.5t27 -17.5t18 -26t6.5 -32t-6.5 -32t-18 -26t-27 -17.5t-33.5 -6.5zM213 -20q0 -78 -47 -122.5t-135 -44.5q-26 0 -50.5 4.5t-47.5 16.5v112q25 -23 69 -23q41 0 57 20.5t16 50.5v525h138v-539z" />
    <glyph glyph-name="k" unicode="k" horiz-adv-x="549" 
d="M243 202h-45v-202h-138v717h138v-405h47l152 207h139l-183 -248l196 -271h-159z" />
    <glyph glyph-name="l" unicode="l" horiz-adv-x="259" 
d="M198 717v-717h-138v717h138z" />
    <glyph glyph-name="m" unicode="m" horiz-adv-x="895" 
d="M198 0h-138v519h129l7 -78h2q21 38 59.5 63t98.5 25q55 0 95.5 -25t57.5 -76q23 46 65.5 73.5t103.5 27.5q35 0 65 -10.5t51.5 -31t34 -51.5t12.5 -73v-363h-139v345q0 38 -20.5 56t-53.5 18q-39 0 -65 -19.5t-43 -47.5v-352h-139v350q0 39 -20 54t-52 15q-41 0 -67 -17
t-44 -43v-359z" />
    <glyph glyph-name="n" unicode="n" horiz-adv-x="594" 
d="M320 419q-42 0 -72.5 -17t-49.5 -44v-358h-138v519h130l6 -78h2q21 38 62 63t104 25q37 0 69.5 -10.5t56 -31t37 -51.5t13.5 -73v-363h-139v348q0 39 -21.5 55t-59.5 16z" />
    <glyph glyph-name="o" unicode="o" horiz-adv-x="589" 
d="M293 -10q-56 0 -103.5 17.5t-83 52t-55.5 85t-20 115.5t20 115.5t55.5 84.5t83 51.5t103.5 17.5t104.5 -17.5t84 -51.5t56 -84.5t20.5 -115.5t-20.5 -115.5t-56 -85t-84 -52t-104.5 -17.5zM293 101q54 0 88 39t34 120q0 80 -34 119t-88 39q-51 0 -85.5 -39t-34.5 -119
q0 -81 34.5 -120t85.5 -39z" />
    <glyph glyph-name="p" unicode="p" horiz-adv-x="625" 
d="M365 -10q-58 0 -99.5 25.5t-67.5 68.5v-261h-138v696h129l7 -85q26 45 68 70t102 25q46 0 87.5 -16.5t73 -50t49.5 -84t18 -118.5q0 -69 -18.5 -119.5t-49.5 -84t-73 -50t-88 -16.5zM326 101q56 0 91 39t35 120q0 80 -35 119.5t-90 39.5q-56 0 -93 -39.5t-37 -119.5
q0 -81 37 -120t92 -39z" />
    <glyph glyph-name="q" unicode="q" horiz-adv-x="629" 
d="M565 -177h-138v261q-25 -43 -66 -68.5t-99 -25.5q-44 0 -86 16.5t-74 50t-51.5 84t-19.5 119.5q0 68 19.5 118.5t52 84t74 50t86.5 16.5q60 0 101.5 -24t67.5 -66q0 19 2 42.5t7 37.5h130q-3 -14 -4.5 -40t-1.5 -43v-613zM301 101q27 0 50 9.5t40 29.5t27 49.5t10 70.5
q0 81 -36.5 120t-90.5 39q-55 0 -91.5 -40.5t-36.5 -118.5q0 -80 36 -119.5t92 -39.5z" />
    <glyph glyph-name="r" unicode="r" horiz-adv-x="399" 
d="M373 388q-57 5 -103 -10.5t-72 -49.5v-328h-138v519h129l7 -105h2q28 51 72.5 81t102.5 34v-141v0z" />
    <glyph glyph-name="s" unicode="s" horiz-adv-x="476" 
d="M234 -10q-38 0 -69 6t-55.5 15t-41.5 19t-27 18v102q10 -9 27 -19t40.5 -18.5t53.5 -14t66 -5.5q54 0 74 15t20 39q0 19 -10 29.5t-26.5 16t-37.5 8.5t-44 8q-29 6 -58.5 15.5t-53 26.5t-38.5 44.5t-15 69.5q0 77 56 120.5t160 43.5q60 0 102 -13t60 -26v-102
q-22 15 -59.5 27t-96.5 12q-55 0 -76.5 -13t-21.5 -38q0 -17 9.5 -26t25.5 -14t36.5 -7.5t42.5 -5.5q29 -5 59 -13.5t54.5 -26.5t40 -47.5t15.5 -74.5q0 -48 -18 -80.5t-48 -53t-68 -29t-78 -8.5z" />
    <glyph glyph-name="t" unicode="t" horiz-adv-x="400" 
d="M359 20q-20 -13 -48.5 -21.5t-70.5 -8.5q-45 0 -75 12.5t-48.5 33.5t-26.5 49.5t-8 61.5v263h-62v109h62v109h138v-109h147v-109h-147v-248q0 -31 14 -46t46 -15q27 0 46 8.5t33 20.5v-110v0z" />
    <glyph glyph-name="u" unicode="u" horiz-adv-x="587" 
d="M389 78q-21 -37 -60.5 -62.5t-104.5 -25.5q-37 0 -68 10.5t-53.5 32.5t-35 54t-12.5 76v356h140v-350q0 -40 22.5 -54t54.5 -14q42 0 70 16.5t47 43.5v358h137v-519h-128l-7 78h-2v0z" />
    <glyph glyph-name="v" unicode="v" horiz-adv-x="529" 
d="M350 0h-172l-175 519h143l126 -387l128 387h127z" />
    <glyph glyph-name="w" unicode="w" horiz-adv-x="825" 
d="M693 0h-191l-90 349l-90 -349h-190l-110 519h139l79 -400l110 400h138l107 -401l80 401h128z" />
    <glyph glyph-name="x" unicode="x" horiz-adv-x="529" 
d="M251 178l-115 -178h-132l179 270l-164 249h155l107 -161l100 161h132l-165 -253l176 -266h-155z" />
    <glyph glyph-name="y" unicode="y" horiz-adv-x="554" 
d="M359 6q-17 -47 -36 -83t-44.5 -60.5t-60.5 -37t-84 -12.5q-30 0 -53 4.5t-45 14.5v120q17 -12 41.5 -19.5t53.5 -7.5q32 0 52 11.5t34 34.5l-207 548h147l130 -375l127 375h127l-182 -513v0z" />
    <glyph glyph-name="z" unicode="z" horiz-adv-x="489" 
d="M457 0h-423v95l252 318h-244v106h414v-87l-253 -325h254v-107z" />
    <glyph glyph-name="braceleft" unicode="{" horiz-adv-x="450" 
d="M406 -135q-20 -3 -37.5 -4t-34.5 -1q-97 0 -140 39.5t-43 103.5q0 36 5.5 63t5.5 60q0 27 -3 49t-13.5 39t-30.5 28t-54 14v105q34 3 54 14t30.5 28t13.5 39t3 49q0 33 -5.5 60t-5.5 63q0 64 43 103.5t140 39.5q17 0 34.5 -1.5t37.5 -3.5v-101q-14 2 -25.5 3.5t-21.5 1.5
q-45 0 -60.5 -22t-15.5 -55q0 -17 1.5 -31.5t3 -28t3 -27.5t1.5 -31q0 -21 -5 -42t-19 -41t-40.5 -38t-68.5 -32q42 -14 68.5 -32t40.5 -37.5t19 -40.5t5 -42q0 -17 -1.5 -31t-3 -27.5t-3 -28t-1.5 -31.5q0 -32 15.5 -55t60.5 -23q20 0 47 6v-101z" />
    <glyph glyph-name="bar" unicode="|" horiz-adv-x="272" 
d="M188 756v-876h-104v876h104z" />
    <glyph glyph-name="braceright" unicode="}" horiz-adv-x="450" 
d="M44.0244 -135q19.999 -3 37.498 -4t34.498 -1q96.9941 0 139.991 39.5t42.9971 103.5q0 36 -5.49902 63q-5.5 27 -5.5 60q0 27 3 49t13.499 39t30.498 28t53.9971 14v105q-33.998 3 -53.9971 14t-30.498 28t-13.499 39t-3 49q0 33 5.5 60q5.49902 27 5.49902 63
q0 64 -42.9971 103.5t-139.991 39.5q-16.999 0 -34.498 -1.5t-37.498 -3.5v-101q13.999 2 25.499 3.5q11.499 1.5 21.498 1.5q44.998 0 60.4971 -22t15.499 -55q0 -17 -1.5 -31.5t-3 -28t-3 -27.5t-1.5 -31q0 -21 5 -42t18.999 -41t40.4971 -38q26.499 -18 68.4961 -32
q-41.9971 -14 -68.4961 -32q-26.498 -18 -40.4971 -37.5t-18.999 -40.5t-5 -42q0 -17 1.5 -31t3 -27.5t3 -28t1.5 -31.5q0 -32 -15.499 -55t-60.4971 -23q-19.998 0 -46.9971 6v-101z" />
    <glyph glyph-name="asciitilde" unicode="~" horiz-adv-x="637" 
d="M47 237q-3 37 4 72.5t26 63t50.5 44.5t77.5 17q44 0 76 -14t57.5 -31t47.5 -31t48 -14q31 0 46 23.5t15 75.5h95q3 -37 -4.5 -72.5t-26.5 -63t-50.5 -44.5t-77.5 -17q-44 0 -75.5 14t-57 31t-47.5 31t-47 14q-31 0 -46.5 -23.5t-15.5 -75.5h-95v0z" />
    <glyph glyph-name="uni00A0" unicode="&#xa0;" horiz-adv-x="200" 
 />
    <glyph glyph-name="exclamdown" unicode="&#xa1;" horiz-adv-x="295" 
d="M76.0137 -196.956l16.999 492.97h108.993l15.999 -492.97h-141.991zM147.009 527q18.999 0 35.998 -7t29.498 -19.499t19.499 -28.498t7 -33.998t-7 -33.998t-19.499 -27.998t-29.498 -18.999q-16.999 -6.99902 -35.998 -6.99902t-35.498 6.99902
q-16.499 7 -28.998 18.999t-19.499 27.998q-6.99902 15.999 -6.99902 33.998t6.99902 33.998q7 15.999 19.499 28.498t28.998 19.499t35.498 7z" />
    <glyph glyph-name="cent" unicode="&#xa2;" 
d="M492 33q-20 -14 -50.5 -25.5t-75.5 -15.5v-140h-126v148q-91 22 -141.5 88.5t-50.5 171.5q0 106 52.5 173t146.5 88v134h127v-128q41 -5 70 -16t48 -24v-110q-30 19 -64.5 30.5t-87.5 11.5q-150 0 -150 -159t148 -159q55 0 89.5 11.5t64.5 29.5v-109v0z" />
    <glyph glyph-name="sterling" unicode="&#xa3;" 
d="M513 0h-469v74q48 38 69.5 77t21.5 83q0 22 -3 42h-93v106h65q-11 31 -20 62t-9 69q0 98 64 156t189 58q55 0 94.5 -9t57.5 -17v-111q-20 10 -59 18t-78 8q-36 0 -60 -8t-38.5 -22.5t-20.5 -35t-6 -45.5q1 -36 10 -64t19 -59h165v-106h-146v-14q0 -38 -13.5 -76.5
t-48.5 -75.5h309v-110z" />
    <glyph glyph-name="currency" unicode="&#xa4;" horiz-adv-x="563" 
d="M387 163q-23 -13 -50 -20t-57 -7q-59 0 -106 26l-68 -69l-70 72l63 65q-33 50 -33 114q0 65 33 115l-66 67l70 73l70 -72q24 12 51 19t56 7q31 0 58 -7t51 -20l70 73l71 -73l-67 -68q32 -49 32 -114q0 -64 -32 -113l65 -66l-73 -72zM281 450q-19 0 -36.5 -7.5t-30.5 -21
t-21 -33t-8 -44.5q0 -24 8 -43.5t21 -33t30.5 -21t36.5 -7.5q40 0 68.5 28t28.5 77q0 50 -28.5 78t-68.5 28z" />
    <glyph glyph-name="yen" unicode="&#xa5;" 
d="M347 127v-127h-140v127h-154v92h154v58h-154v92h130l-177 348h151l127 -276l133 276h129l-176 -348h131v-92h-154v-58h154v-92h-154z" />
    <glyph glyph-name="brokenbar" unicode="&#xa6;" horiz-adv-x="272" 
d="M188 756v-400h-104v400h104zM188 280v-400h-104v400h104z" />
    <glyph glyph-name="section" unicode="&#xa7;" horiz-adv-x="573" 
d="M505 -6q0 -57 -22 -95t-58 -60t-83 -31t-96 -9q-72 0 -117.5 14t-74.5 31v107q30 -18 79.5 -32t112.5 -14q28 0 52 3.5t41 12t26.5 23.5t9.5 38q0 22 -9.5 37t-28 25.5t-45.5 18.5t-61 16q-36 8 -71 20t-63.5 32t-46 51t-17.5 78q0 55 31.5 92.5t80.5 51.5
q-41 25 -59.5 58.5t-18.5 77.5q0 46 18 80.5t51.5 58t80.5 35.5t106 12q70 0 112 -13t64 -26v-107q-29 19 -71.5 29.5t-98.5 10.5q-132 0 -132 -71q0 -21 10.5 -35.5t29 -24.5t44 -17t55.5 -13q34 -7 69.5 -18t65 -32t48.5 -54t19 -83q0 -60 -29.5 -94t-76.5 -47
q36 -22 54.5 -58.5t18.5 -78.5zM295 193q57 0 86.5 21t29.5 58q0 75 -126 75q-125 0 -125 -74q0 -23 12 -38.5t31 -24.5t43 -13t49 -4z" />
    <glyph glyph-name="dieresis" unicode="&#xa8;" horiz-adv-x="441" 
d="M108 577q-18 0 -33 6.5t-26.5 17.5t-18 26t-6.5 32q0 34 24.5 57.5t59.5 23.5t59.5 -23.5t24.5 -57.5q0 -17 -6.5 -32t-18 -26t-26.5 -17.5t-33 -6.5zM333 577q-35 0 -59 24t-24 58t24 57.5t59 23.5q37 0 61 -23.5t24 -57.5t-24 -58t-61 -24z" />
    <glyph glyph-name="copyright" unicode="&#xa9;" horiz-adv-x="882" 
d="M441 -104q-87 0 -161.5 31.5t-129.5 87.5t-86.5 133t-31.5 169q0 91 31.5 167.5t86.5 132t129.5 86.5t161.5 31t162 -31t129.5 -86.5t86 -132t31.5 -167.5q0 -92 -31.5 -169t-86 -133t-129.5 -87.5t-162 -31.5zM441 -27q73 0 133 25.5t102.5 71t65.5 109t23 138.5
t-23 137.5t-65.5 108t-102.5 70.5t-133 25t-133 -25t-102.5 -70.5t-65.5 -108t-23 -137.5t23 -138.5t65.5 -109t102.5 -71t133 -25.5zM464 100q-51 0 -92 14.5t-70 42.5t-44.5 68t-15.5 90q0 102 59 158t163 56q42 0 71 -8t45 -19v-96q-20 14 -48.5 21t-60.5 7
q-115 0 -115 -119q0 -120 117 -120q32 0 59.5 7.5t47.5 23.5v-96q-15 -11 -44 -20.5t-72 -9.5z" />
    <glyph glyph-name="ordfeminine" unicode="&#xaa;" horiz-adv-x="478" 
d="M317 323q-2 14 -4.5 34.5t-3.5 35.5q-7 -14 -18 -28.5t-27 -25.5t-38 -18t-51 -7t-54.5 8t-45.5 23.5t-31.5 40t-11.5 57.5q0 72 57.5 111t163.5 39h53v20q0 42 -21.5 56t-66.5 14q-48 0 -87.5 -11.5t-69.5 -26.5v99q30 15 77 27t103 12q89 0 139.5 -37.5t50.5 -121.5
v-229q0 -7 0.5 -17l1 -20t1 -19.5t1.5 -15.5h-118zM214 405q28 0 46 12.5t28.5 28.5t14 31.5t3.5 22.5v22h-50q-52 0 -75.5 -17t-23.5 -46q0 -28 15 -41t42 -13z" />
    <glyph glyph-name="guillemotleft" unicode="&#xab;" horiz-adv-x="529" 
d="M379 268l131 -206h-133l-131 206l131 206h133zM159 268l131 -206h-133l-131 206l131 206h133z" />
    <glyph glyph-name="logicalnot" unicode="&#xac;" horiz-adv-x="593" 
d="M547 387v-300h-110v200h-391v100h501z" />
    <glyph glyph-name="registered" unicode="&#xae;" horiz-adv-x="882" 
d="M441 -104q-87 0 -161.5 31.5t-129.5 87.5t-86.5 133t-31.5 169q0 91 31.5 167.5t86.5 132t129.5 86.5t161.5 31t162 -31t129.5 -86.5t86 -132t31.5 -167.5q0 -92 -31.5 -169t-86 -133t-129.5 -87.5t-162 -31.5zM441 -27q73 0 133 25.5t102.5 71t65.5 109t23 138.5
t-23 137.5t-65.5 108t-102.5 70.5t-133 25t-133 -25t-102.5 -70.5t-65.5 -108t-23 -137.5t23 -138.5t65.5 -109t102.5 -71t133 -25.5zM281 525h155q90 0 133.5 -32t43.5 -103q0 -48 -19.5 -75t-54.5 -41l94 -167h-118l-85 153h-41v-153h-108v418zM389 440v-101h50
q34 0 50 11.5t16 38.5q0 29 -17 40t-52 11h-47z" />
    <glyph glyph-name="macron" unicode="&#xaf;" horiz-adv-x="441" 
d="M57 695h327v-97h-327v97z" />
    <glyph glyph-name="degree" unicode="&#xb0;" horiz-adv-x="464" 
d="M231 406q-35 0 -64.5 12.5t-51 34.5t-33.5 52.5t-12 66.5t12 66t33.5 52t51 34t64.5 12t65 -12t51.5 -34t34 -52t12.5 -66t-12.5 -66.5t-34 -52.5t-51.5 -34.5t-65 -12.5zM231 494q34 0 53 21.5t19 56.5t-19 56t-53 21q-32 0 -51.5 -21t-19.5 -56t19.5 -56.5t51.5 -21.5z
" />
    <glyph glyph-name="plusminus" unicode="&#xb1;" 
d="M330 302v-156h-110v156h-195v100h195v195h110v-195h196v-100h-196zM25 0v100h501v-100h-501z" />
    <glyph glyph-name="twosuperior" unicode="&#xb2;" horiz-adv-x="374" 
d="M342 325h-316v100q55 38 93.5 68.5t62 55.5t34 46t10.5 40q0 29 -18 46t-52 17q-41 0 -70 -13t-49 -27v85q20 13 53 26t85 13q77 0 119.5 -35t42.5 -104q0 -29 -12 -56t-37 -54.5t-63 -57t-90 -63.5h207v-87z" />
    <glyph glyph-name="threesuperior" unicode="&#xb3;" horiz-adv-x="358" 
d="M338 458q0 -64 -47 -101.5t-131 -37.5q-49 0 -85 11.5t-53 23.5v88q17 -12 47 -25.5t78 -13.5q78 0 78 59q0 27 -20 41t-54 14h-54v81h56q28 0 44 13.5t16 39.5q0 48 -60 48q-40 0 -73 -13.5t-50 -25.5v84q17 12 53 25t91 13q70 0 110.5 -33t40.5 -87q0 -42 -26 -68
t-62 -33q43 -6 72 -32t29 -71z" />
    <glyph glyph-name="acute" unicode="&#xb4;" horiz-adv-x="441" 
d="M210 746h147l-128 -158h-101z" />
    <glyph glyph-name="paragraph" unicode="&#xb6;" horiz-adv-x="668" 
d="M39 493q0 111 63 167.5t178 56.5h147v-904h-112v459h-27q-55 0 -101 14t-79 41.5t-51 69t-18 96.5zM598 -187h-112v904h112v-904z" />
    <glyph glyph-name="periodcentered" unicode="&#xb7;" horiz-adv-x="269" 
d="M134 186q-19 0 -35.5 7t-29 19.5t-19.5 29t-7 34.5t7 34t19.5 28t29 19t35.5 7t36 -7t29.5 -19t19.5 -28t7 -34t-7 -34.5t-19.5 -29t-29.5 -19.5t-36 -7z" />
    <glyph glyph-name="cedilla" unicode="&#xb8;" horiz-adv-x="441" 
d="M300 20l-58 -207h-141l92 207h107z" />
    <glyph glyph-name="onesuperior" unicode="&#xb9;" horiz-adv-x="304" 
d="M244 325h-110v330l-104 -96v113l113 105h101v-452z" />
    <glyph glyph-name="ordmasculine" unicode="&#xba;" horiz-adv-x="512" 
d="M256 314q-49 0 -91 15.5t-73 45.5t-48.5 74t-17.5 101q0 56 17.5 99.5t48.5 73t73 45t91 15.5t91.5 -15.5t73.5 -45t48.5 -73t17.5 -99.5q0 -57 -17.5 -101t-48.5 -74t-73.5 -45.5t-91.5 -15.5zM256 414q44 0 72.5 33.5t28.5 102.5q0 67 -28.5 100t-72.5 33
q-43 0 -71.5 -33t-28.5 -100q0 -69 28.5 -102.5t71.5 -33.5z" />
    <glyph glyph-name="guillemotright" unicode="&#xbb;" horiz-adv-x="526" 
d="M376 62h-132l130 206l-130 206h132l131 -206zM156 62h-133l131 206l-131 206h133l131 -206z" />
    <glyph glyph-name="onequarter" unicode="&#xbc;" horiz-adv-x="925" 
d="M254 265h-110v330l-104 -96v113l113 105h101v-452zM133 0l562 717h108l-563 -717h-107zM828 91v-90h-105v90h-200v81l200 280h105v-279h60v-82h-60zM723 173v152l-108 -152h108z" />
    <glyph glyph-name="onehalf" unicode="&#xbd;" horiz-adv-x="973" 
d="M133 0l562 717h108l-563 -717h-107zM932 1h-316v100q55 38 93.5 68.5t62 55.5t34 46t10.5 40q0 29 -18 46t-52 17q-41 0 -70 -13t-49 -27v85q20 13 53 26t85 13q77 0 119.5 -35t42.5 -104q0 -29 -12 -56t-37 -54.5t-63 -57t-90 -63.5h207v-87zM254 265h-110v330l-104 -96
v113l113 105h101v-452z" />
    <glyph glyph-name="threequarters" unicode="&#xbe;" horiz-adv-x="963" 
d="M348 398q0 -64 -47 -101.5t-131 -37.5q-49 0 -85 11.5t-53 23.5v88q17 -12 47 -25.5t78 -13.5q78 0 78 59q0 27 -20 41t-54 14h-54v81h56q28 0 44 13.5t16 39.5q0 48 -60 48q-40 0 -73 -13.5t-50 -25.5v84q17 12 53 25t91 13q70 0 110.5 -33t40.5 -87q0 -42 -26 -68
t-62 -33q43 -6 72 -32t29 -71zM171 0l562 717h108l-563 -717h-107zM866 91v-90h-105v90h-200v81l200 280h105v-279h60v-82h-60zM761 173v152l-108 -152h108z" />
    <glyph glyph-name="questiondown" unicode="&#xbf;" horiz-adv-x="470" 
d="M35.0273 -1.96777q0 47.9971 14.999 80.9951t37.498 56.4961q22.498 23.499 48.4971 40.498q25.998 16.999 48.4961 31.998q22.499 14.999 37.498 30.998t14.999 37.9971v21.999h130.992v-20.999q0 -42.9971 -13.999 -70.9951t-34.498 -47.9971t-44.9971 -34.498
q-24.499 -14.499 -44.9971 -30.998q-20.499 -16.499 -34.498 -37.998q-13.999 -21.498 -13.999 -55.4961q0 -17.999 4.99902 -34.498q5 -16.499 17.999 -29.498t36.498 -20.999t60.4961 -8q44.9971 0 77.9951 10.5q32.998 10.499 53.9971 24.498v-110.993
q-22.999 -11.999 -61.9961 -22.998q-38.998 -11 -95.9941 -11q-59.9961 0 -104.994 14.499q-44.9971 14.5 -74.9951 40.998t-44.9971 63.4961t-14.999 81.9951zM300.011 530q18.999 0 35.498 -7t28.998 -19.499t19.499 -28.498t7 -33.998t-7 -33.998t-19.499 -27.998
t-28.998 -18.999q-16.499 -6.99902 -35.498 -6.99902t-35.9971 6.99902q-16.999 7 -29.499 18.999q-12.499 11.999 -19.498 27.998q-7 15.999 -7 33.998t7 33.998q6.99902 15.999 19.498 28.498q12.5 12.499 29.499 19.499q16.998 7 35.9971 7z" />
    <glyph glyph-name="Agrave" unicode="&#xc0;" horiz-adv-x="703" 
d="M265 717h173l252 -717h-144l-61 174h-290l-61 -174h-121zM444 293l-104 296l-103 -296h207zM296 777l-127 136h172l80 -136h-125z" />
    <glyph glyph-name="Aacute" unicode="&#xc1;" horiz-adv-x="703" 
d="M265 717h173l252 -717h-144l-61 174h-290l-61 -174h-121zM444 293l-104 296l-103 -296h207zM366 913h171l-127 -136h-125z" />
    <glyph glyph-name="Acircumflex" unicode="&#xc2;" horiz-adv-x="703" 
d="M265 717h173l252 -717h-144l-61 174h-290l-61 -174h-121zM444 293l-104 296l-103 -296h207zM341 849l-73 -75h-107l108 148h143l107 -148h-107z" />
    <glyph glyph-name="Atilde" unicode="&#xc3;" horiz-adv-x="703" 
d="M265 717h173l252 -717h-144l-61 174h-290l-61 -174h-121zM444 293l-104 296l-103 -296h207zM156 771q-7 33 -3.5 61.5t16.5 49.5t35.5 33t53.5 12q26 0 46.5 -7t37.5 -15t31.5 -15t29.5 -7q21 0 30.5 11.5t7.5 38.5h83q7 -33 3.5 -61.5t-16.5 -49.5t-35.5 -33t-53.5 -12
q-26 0 -46 7t-37 15t-32 15t-31 7q-20 0 -29 -11t-7 -39h-84v0z" />
    <glyph glyph-name="Adieresis" unicode="&#xc4;" horiz-adv-x="703" 
d="M265 717h173l252 -717h-144l-61 174h-290l-61 -174h-121zM444 293l-104 296l-103 -296h207zM221 776q-35 0 -59 24t-24 57q0 35 24 58.5t59 23.5q37 0 61.5 -23.5t24.5 -58.5q0 -33 -24.5 -57t-61.5 -24zM462 776q-18 0 -33.5 6.5t-27 17.5t-18 25.5t-6.5 31.5t6.5 32
t18 26t27 17.5t33.5 6.5t33.5 -6.5t27 -17.5t18 -26t6.5 -32t-6.5 -31.5t-18 -25.5t-27 -17.5t-33.5 -6.5z" />
    <glyph glyph-name="Aring" unicode="&#xc5;" horiz-adv-x="703" 
d="M265 717h173l252 -717h-144l-61 174h-290l-61 -174h-121zM444 293l-104 296l-103 -296h207zM352 758q-27 0 -50 9.5t-40 26t-27 39.5t-10 51q0 27 10 50.5t27 40t40 26t50 9.5t50 -9.5t40 -26t27 -40t10 -50.5q0 -28 -10 -51t-27 -39.5t-40 -26t-50 -9.5zM352 833
q22 0 36 14t14 37t-14 37.5t-36 14.5t-35.5 -14.5t-13.5 -37.5t13.5 -37t35.5 -14z" />
    <glyph glyph-name="AE" unicode="&#xc6;" horiz-adv-x="1017" 
d="M964 0h-483v199h-230l-103 -199h-135l371 717h575v-120h-335v-167h283v-119h-283v-192h340v-119zM481 318v326l-168 -326h168z" />
    <glyph glyph-name="Ccedilla" unicode="&#xc7;" horiz-adv-x="656" 
d="M411 -10q-85 0 -153.5 25t-117 72.5t-74.5 115.5t-26 155t25.5 155t73.5 115.5t116.5 72.5t155.5 25q75 0 125.5 -13.5t79.5 -30.5v-123q-35 22 -86 35t-111 13q-118 0 -174 -62t-56 -187q0 -249 232 -249q60 0 109.5 13.5t85.5 38.5v-120q-27 -20 -78.5 -35.5
t-126.5 -15.5zM428 20l-58 -207h-141l92 207h107z" />
    <glyph glyph-name="Egrave" unicode="&#xc8;" horiz-adv-x="606" 
d="M71 717h477v-120h-334v-167h282v-119h-282v-192h339v-119h-482v717zM267 777l-127 136h172l80 -136h-125z" />
    <glyph glyph-name="Eacute" unicode="&#xc9;" horiz-adv-x="606" 
d="M71 717h477v-120h-334v-167h282v-119h-282v-192h339v-119h-482v717zM308 913h171l-127 -136h-125z" />
    <glyph glyph-name="Ecircumflex" unicode="&#xca;" horiz-adv-x="606" 
d="M71 717h477v-120h-334v-167h282v-119h-282v-192h339v-119h-482v717zM313 849l-73 -75h-107l108 148h143l107 -148h-107z" />
    <glyph glyph-name="Edieresis" unicode="&#xcb;" horiz-adv-x="606" 
d="M71 717h477v-120h-334v-167h282v-119h-282v-192h339v-119h-482v717zM191 776q-35 0 -59 24t-24 57q0 35 24 58.5t59 23.5q37 0 61.5 -23.5t24.5 -58.5q0 -33 -24.5 -57t-61.5 -24zM432 776q-18 0 -33.5 6.5t-27 17.5t-18 25.5t-6.5 31.5t6.5 32t18 26t27 17.5t33.5 6.5
t33.5 -6.5t27 -17.5t18 -26t6.5 -32t-6.5 -31.5t-18 -25.5t-27 -17.5t-33.5 -6.5z" />
    <glyph glyph-name="Igrave" unicode="&#xcc;" horiz-adv-x="284" 
d="M214 717v-717h-143v717h143zM82 777l-127 136h172l80 -136h-125z" />
    <glyph glyph-name="Iacute" unicode="&#xcd;" horiz-adv-x="284" 
d="M214 717v-717h-143v717h143zM154 913h171l-127 -136h-125z" />
    <glyph glyph-name="Icircumflex" unicode="&#xce;" horiz-adv-x="284" 
d="M214 717v-717h-143v717h143zM141 849l-73 -75h-107l108 148h143l107 -148h-107z" />
    <glyph glyph-name="Idieresis" unicode="&#xcf;" horiz-adv-x="284" 
d="M214 717v-717h-143v717h143zM20 776q-35 0 -59 24t-24 57q0 35 24 58.5t59 23.5q37 0 61.5 -23.5t24.5 -58.5q0 -33 -24.5 -57t-61.5 -24zM261 776q-18 0 -33.5 6.5t-27 17.5t-18 25.5t-6.5 31.5t6.5 32t18 26t27 17.5t33.5 6.5t33.5 -6.5t27 -17.5t18 -26t6.5 -32
t-6.5 -31.5t-18 -25.5t-27 -17.5t-33.5 -6.5z" />
    <glyph glyph-name="Eth" unicode="&#xd0;" horiz-adv-x="752" 
d="M98 423v294h244q79 0 148 -17t119 -56t79 -103t29 -158q0 -95 -29 -166.5t-80 -119.5t-121.5 -72.5t-153.5 -24.5h-235v310h-92v113h92zM242 310v-191h97q51 0 93 15t72.5 46.5t47 80t16.5 115.5q0 65 -16.5 108t-45.5 68t-69 35t-87 10h-108v-174h167v-113h-167z" />
    <glyph glyph-name="Ntilde" unicode="&#xd1;" horiz-adv-x="739" 
d="M669 0h-181l-290 540v-540h-127v717h183l288 -536v536h127v-717zM198 771q-7 33 -3.5 61.5t16.5 49.5t35.5 33t53.5 12q26 0 46.5 -7t37.5 -15t31.5 -15t29.5 -7q21 0 30.5 11.5t7.5 38.5h83q7 -33 3.5 -61.5t-16.5 -49.5t-35.5 -33t-53.5 -12q-26 0 -46 7t-37 15t-32 15
t-31 7q-20 0 -29 -11t-7 -39h-84v0z" />
    <glyph glyph-name="Ograve" unicode="&#xd2;" horiz-adv-x="775" 
d="M387 -10q-74 0 -138 23.5t-111 70t-74.5 115t-27.5 158.5t27.5 158.5t74.5 115.5t111 71t138 24t138 -23.5t111.5 -69.5t75 -114t27.5 -158t-27.5 -159t-75 -116t-111.5 -71.5t-138 -24.5zM387 109q44 0 81 13.5t64 43t42.5 77t15.5 115.5t-15.5 115.5t-42.5 77t-64 43
t-81 13.5q-43 0 -80 -13.5t-64 -43t-42.5 -77t-15.5 -115.5t15.5 -115.5t42.5 -77t64 -43t80 -13.5zM349 777l-127 136h172l80 -136h-125z" />
    <glyph glyph-name="Oacute" unicode="&#xd3;" horiz-adv-x="775" 
d="M387 -10q-74 0 -138 23.5t-111 70t-74.5 115t-27.5 158.5t27.5 158.5t74.5 115.5t111 71t138 24t138 -23.5t111.5 -69.5t75 -114t27.5 -158t-27.5 -159t-75 -116t-111.5 -71.5t-138 -24.5zM387 109q44 0 81 13.5t64 43t42.5 77t15.5 115.5t-15.5 115.5t-42.5 77t-64 43
t-81 13.5q-43 0 -80 -13.5t-64 -43t-42.5 -77t-15.5 -115.5t15.5 -115.5t42.5 -77t64 -43t80 -13.5zM394 913h171l-127 -136h-125z" />
    <glyph glyph-name="Ocircumflex" unicode="&#xd4;" horiz-adv-x="775" 
d="M387 -10q-74 0 -138 23.5t-111 70t-74.5 115t-27.5 158.5t27.5 158.5t74.5 115.5t111 71t138 24t138 -23.5t111.5 -69.5t75 -114t27.5 -158t-27.5 -159t-75 -116t-111.5 -71.5t-138 -24.5zM387 109q44 0 81 13.5t64 43t42.5 77t15.5 115.5t-15.5 115.5t-42.5 77t-64 43
t-81 13.5q-43 0 -80 -13.5t-64 -43t-42.5 -77t-15.5 -115.5t15.5 -115.5t42.5 -77t64 -43t80 -13.5zM389 849l-73 -75h-107l108 148h143l107 -148h-107z" />
    <glyph glyph-name="Otilde" unicode="&#xd5;" horiz-adv-x="775" 
d="M387 -10q-74 0 -138 23.5t-111 70t-74.5 115t-27.5 158.5t27.5 158.5t74.5 115.5t111 71t138 24t138 -23.5t111.5 -69.5t75 -114t27.5 -158t-27.5 -159t-75 -116t-111.5 -71.5t-138 -24.5zM387 109q44 0 81 13.5t64 43t42.5 77t15.5 115.5t-15.5 115.5t-42.5 77t-64 43
t-81 13.5q-43 0 -80 -13.5t-64 -43t-42.5 -77t-15.5 -115.5t15.5 -115.5t42.5 -77t64 -43t80 -13.5zM204 771q-7 33 -3.5 61.5t16.5 49.5t35.5 33t53.5 12q26 0 46.5 -7t37.5 -15t31.5 -15t29.5 -7q21 0 30.5 11.5t7.5 38.5h83q7 -33 3.5 -61.5t-16.5 -49.5t-35.5 -33
t-53.5 -12q-26 0 -46 7t-37 15t-32 15t-31 7q-20 0 -29 -11t-7 -39h-84v0z" />
    <glyph glyph-name="Odieresis" unicode="&#xd6;" horiz-adv-x="775" 
d="M387 -10q-74 0 -138 23.5t-111 70t-74.5 115t-27.5 158.5t27.5 158.5t74.5 115.5t111 71t138 24t138 -23.5t111.5 -69.5t75 -114t27.5 -158t-27.5 -159t-75 -116t-111.5 -71.5t-138 -24.5zM387 109q44 0 81 13.5t64 43t42.5 77t15.5 115.5t-15.5 115.5t-42.5 77t-64 43
t-81 13.5q-43 0 -80 -13.5t-64 -43t-42.5 -77t-15.5 -115.5t15.5 -115.5t42.5 -77t64 -43t80 -13.5zM267 776q-35 0 -59 24t-24 57q0 35 24 58.5t59 23.5q37 0 61.5 -23.5t24.5 -58.5q0 -33 -24.5 -57t-61.5 -24zM508 776q-18 0 -33.5 6.5t-27 17.5t-18 25.5t-6.5 31.5
t6.5 32t18 26t27 17.5t33.5 6.5t33.5 -6.5t27 -17.5t18 -26t6.5 -32t-6.5 -31.5t-18 -25.5t-27 -17.5t-33.5 -6.5z" />
    <glyph glyph-name="multiply" unicode="&#xd7;" 
d="M445 89l-171 174l-170 -174l-72 74l170 174l-172 176l72 74l173 -176l172 176l71 -74l-172 -176l171 -174z" />
    <glyph glyph-name="Oslash" unicode="&#xd8;" horiz-adv-x="775" 
d="M387 -10q-74 0 -138 23q-14 5 -27 11l-59 -94h-110l92 146l-7 7q-47 47 -74.5 115.5t-27.5 158.5t27.5 158.5t74.5 115.5t111 71t138 24t138 -24l11 -4l55 88h110l-85 -135l20 -18q48 -46 75.5 -114t27.5 -158t-27.5 -159t-75 -116t-111.5 -71.5t-138 -24.5zM387 109
q44 0 81 13.5t64 43t42.5 77t15.5 115.5t-16 115q-12 37 -30 63l-255 -406q8 -4 18 -8q37 -13 80 -13zM387 607q-43 0 -80 -13.5t-64 -43t-42.5 -77t-15.5 -115.5t15 -116q9 -25 20 -46l249 397h-1q-37 14 -81 14z" />
    <glyph glyph-name="Ugrave" unicode="&#xd9;" horiz-adv-x="683" 
d="M55 717h144v-455q0 -78 41.5 -115.5t111.5 -37.5t110.5 37.5t40.5 115.5v455h127v-463q0 -63 -20 -112.5t-57 -83t-89.5 -51t-116.5 -17.5q-63 0 -116.5 16.5t-92.5 49t-61 81t-22 112.5v468zM296 777l-127 136h172l80 -136h-125z" />
    <glyph glyph-name="Uacute" unicode="&#xda;" horiz-adv-x="683" 
d="M55 717h144v-455q0 -78 41.5 -115.5t111.5 -37.5t110.5 37.5t40.5 115.5v455h127v-463q0 -63 -20 -112.5t-57 -83t-89.5 -51t-116.5 -17.5q-63 0 -116.5 16.5t-92.5 49t-61 81t-22 112.5v468zM364 913h171l-127 -136h-125z" />
    <glyph glyph-name="Ucircumflex" unicode="&#xdb;" horiz-adv-x="683" 
d="M55 717h144v-455q0 -78 41.5 -115.5t111.5 -37.5t110.5 37.5t40.5 115.5v455h127v-463q0 -63 -20 -112.5t-57 -83t-89.5 -51t-116.5 -17.5q-63 0 -116.5 16.5t-92.5 49t-61 81t-22 112.5v468zM355 849l-73 -75h-107l108 148h143l107 -148h-107z" />
    <glyph glyph-name="Udieresis" unicode="&#xdc;" horiz-adv-x="683" 
d="M55 717h144v-455q0 -78 41.5 -115.5t111.5 -37.5t110.5 37.5t40.5 115.5v455h127v-463q0 -63 -20 -112.5t-57 -83t-89.5 -51t-116.5 -17.5q-63 0 -116.5 16.5t-92.5 49t-61 81t-22 112.5v468zM232 776q-35 0 -59 24t-24 57q0 35 24 58.5t59 23.5q37 0 61.5 -23.5
t24.5 -58.5q0 -33 -24.5 -57t-61.5 -24zM473 776q-18 0 -33.5 6.5t-27 17.5t-18 25.5t-6.5 31.5t6.5 32t18 26t27 17.5t33.5 6.5t33.5 -6.5t27 -17.5t18 -26t6.5 -32t-6.5 -31.5t-18 -25.5t-27 -17.5t-33.5 -6.5z" />
    <glyph glyph-name="Yacute" unicode="&#xdd;" horiz-adv-x="614" 
d="M380 303v-303h-144v302l-233 415h158l156 -291l161 291h133zM328 913h171l-127 -136h-125z" />
    <glyph glyph-name="Thorn" unicode="&#xde;" horiz-adv-x="627" 
d="M214 126v-126h-143v717h143v-129h95q138 0 213.5 -51.5t75.5 -169.5q0 -63 -20.5 -108.5t-58.5 -75t-92 -43.5t-120 -14h-93zM214 469v-224h93q70 0 108.5 25.5t38.5 90.5q0 56 -36.5 82t-108.5 26h-95z" />
    <glyph glyph-name="germandbls" unicode="&#xdf;" horiz-adv-x="614" 
d="M596 154q0 -47 -18.5 -78.5t-48.5 -50.5t-68 -27t-76 -8q-36 0 -63.5 6t-44.5 15v106q20 -11 44 -17t49 -6q38 0 58.5 15.5t20.5 42.5q0 22 -12.5 35t-31 22.5t-40 19t-40 23.5t-31 35.5t-12.5 56.5q0 38 15.5 61.5t33.5 43t33.5 40.5t15.5 54q0 21 -7 35t-18.5 23
t-26.5 12.5t-31 3.5q-51 0 -72 -33.5t-21 -98.5v-485h-144v485q0 111 58.5 176t176.5 65q51 0 93 -11t72 -32.5t47 -53t17 -72.5q0 -44 -16.5 -71t-36 -47t-35.5 -36t-16 -37q0 -19 13 -30.5t32.5 -22t42.5 -21.5t42.5 -28.5t32.5 -43.5t13 -66z" />
    <glyph glyph-name="agrave" unicode="&#xe0;" horiz-adv-x="545" 
d="M365 0q-3 15 -5.5 39.5t-4.5 42.5q-8 -17 -20.5 -33t-31.5 -29.5t-44.5 -21.5t-59.5 -8q-33 0 -62.5 9t-52 28t-35.5 47t-13 66q0 83 65 128t185 45h64v23q0 48 -24.5 65.5t-78.5 17.5t-99 -14t-79 -31v110q34 17 87 31t116 14q102 0 159.5 -43t57.5 -137v-265
q0 -9 0.5 -20.5t1 -23.5t1.5 -22.5t2 -17.5h-129zM241 89q34 0 55 14.5t33 33.5t16.5 37.5t4.5 26.5v31h-59q-62 0 -90.5 -20.5t-28.5 -55.5q0 -32 18.5 -49.5t50.5 -17.5zM231 588l-127 158h147l81 -158h-101z" />
    <glyph glyph-name="aacute" unicode="&#xe1;" horiz-adv-x="545" 
d="M365 0q-3 15 -5.5 39.5t-4.5 42.5q-8 -17 -20.5 -33t-31.5 -29.5t-44.5 -21.5t-59.5 -8q-33 0 -62.5 9t-52 28t-35.5 47t-13 66q0 83 65 128t185 45h64v23q0 48 -24.5 65.5t-78.5 17.5t-99 -14t-79 -31v110q34 17 87 31t116 14q102 0 159.5 -43t57.5 -137v-265
q0 -9 0.5 -20.5t1 -23.5t1.5 -22.5t2 -17.5h-129zM241 89q34 0 55 14.5t33 33.5t16.5 37.5t4.5 26.5v31h-59q-62 0 -90.5 -20.5t-28.5 -55.5q0 -32 18.5 -49.5t50.5 -17.5zM297 746h147l-128 -158h-101z" />
    <glyph glyph-name="acircumflex" unicode="&#xe2;" horiz-adv-x="545" 
d="M365 0q-3 15 -5.5 39.5t-4.5 42.5q-8 -17 -20.5 -33t-31.5 -29.5t-44.5 -21.5t-59.5 -8q-33 0 -62.5 9t-52 28t-35.5 47t-13 66q0 83 65 128t185 45h64v23q0 48 -24.5 65.5t-78.5 17.5t-99 -14t-79 -31v110q34 17 87 31t116 14q102 0 159.5 -43t57.5 -137v-265
q0 -9 0.5 -20.5t1 -23.5t1.5 -22.5t2 -17.5h-129zM241 89q34 0 55 14.5t33 33.5t16.5 37.5t4.5 26.5v31h-59q-62 0 -90.5 -20.5t-28.5 -55.5q0 -32 18.5 -49.5t50.5 -17.5zM273 660l-65 -72h-108l101 148h143l100 -148h-108z" />
    <glyph glyph-name="atilde" unicode="&#xe3;" horiz-adv-x="545" 
d="M365 0q-3 15 -5.5 39.5t-4.5 42.5q-8 -17 -20.5 -33t-31.5 -29.5t-44.5 -21.5t-59.5 -8q-33 0 -62.5 9t-52 28t-35.5 47t-13 66q0 83 65 128t185 45h64v23q0 48 -24.5 65.5t-78.5 17.5t-99 -14t-79 -31v110q34 17 87 31t116 14q102 0 159.5 -43t57.5 -137v-265
q0 -9 0.5 -20.5t1 -23.5t1.5 -22.5t2 -17.5h-129zM241 89q34 0 55 14.5t33 33.5t16.5 37.5t4.5 26.5v31h-59q-62 0 -90.5 -20.5t-28.5 -55.5q0 -32 18.5 -49.5t50.5 -17.5zM104 587q-4 26 0 51.5t16.5 45.5t33.5 32t51 12q23 0 41 -6.5t33.5 -14.5t29.5 -14.5t29 -6.5
q16 0 24 10t6 38h73q4 -27 0 -52.5t-16.5 -45.5t-33.5 -32t-51 -12q-23 0 -41 6.5t-33.5 14.5t-29.5 14.5t-29 6.5q-16 0 -24 -9.5t-6 -37.5h-73v0z" />
    <glyph glyph-name="adieresis" unicode="&#xe4;" horiz-adv-x="545" 
d="M365 0q-3 15 -5.5 39.5t-4.5 42.5q-8 -17 -20.5 -33t-31.5 -29.5t-44.5 -21.5t-59.5 -8q-33 0 -62.5 9t-52 28t-35.5 47t-13 66q0 83 65 128t185 45h64v23q0 48 -24.5 65.5t-78.5 17.5t-99 -14t-79 -31v110q34 17 87 31t116 14q102 0 159.5 -43t57.5 -137v-265
q0 -9 0.5 -20.5t1 -23.5t1.5 -22.5t2 -17.5h-129zM241 89q34 0 55 14.5t33 33.5t16.5 37.5t4.5 26.5v31h-59q-62 0 -90.5 -20.5t-28.5 -55.5q0 -32 18.5 -49.5t50.5 -17.5zM160 577q-18 0 -33 6.5t-26.5 17.5t-18 26t-6.5 32q0 34 24.5 57.5t59.5 23.5t59.5 -23.5
t24.5 -57.5q0 -17 -6.5 -32t-18 -26t-26.5 -17.5t-33 -6.5zM385 577q-35 0 -59 24t-24 58t24 57.5t59 23.5q37 0 61 -23.5t24 -57.5t-24 -58t-61 -24z" />
    <glyph glyph-name="aring" unicode="&#xe5;" horiz-adv-x="545" 
d="M373 0q-3 15 -5.5 39.5t-4.5 42.5q-8 -17 -20.5 -33t-31.5 -29.5t-44.5 -21.5t-59.5 -8q-33 0 -62.5 9t-52 28t-35.5 47t-13 66q0 83 65 128t185 45h64v23q0 48 -24.5 65.5t-78.5 17.5t-99 -14t-79 -31v110q34 17 87 31t116 14q102 0 159.5 -43t57.5 -137v-265
q0 -9 0.5 -20.5t1 -23.5t1.5 -22.5t2 -17.5h-129zM249 89q34 0 55 14.5t33 33.5t16.5 37.5t4.5 26.5v31h-59q-62 0 -90.5 -20.5t-28.5 -55.5q0 -32 18.5 -49.5t50.5 -17.5zM272 569q-27 0 -50 9.5t-40 26t-27 40t-10 50.5q0 28 10 51t27 39.5t40 26t50 9.5t50 -9.5t40 -26
t27 -39.5t10 -51q0 -27 -10 -50.5t-27 -40t-40 -26t-50 -9.5zM272 645q22 0 36 13.5t14 36.5t-14 37.5t-36 14.5t-35.5 -14.5t-13.5 -37.5t13.5 -36.5t35.5 -13.5z" />
    <glyph glyph-name="ae" unicode="&#xe6;" horiz-adv-x="879" 
d="M821 34q-12 -7 -26.5 -14.5t-35 -14t-49 -11t-67.5 -4.5q-87 0 -145 26t-90 77q-9 -18 -25 -36t-41 -33t-59.5 -24.5t-81.5 -9.5q-34 0 -64 9t-52.5 27.5t-35.5 46.5t-13 66q0 83 65 128.5t185 45.5h66v23q0 48 -25 65.5t-77 17.5q-55 0 -101 -14t-80 -31v110
q34 17 87.5 31t118.5 14q58 0 100.5 -16t66.5 -51q32 32 74 49.5t94 17.5q59 0 106.5 -19.5t78.5 -58t43 -95.5t0 -133h-344q7 -61 43 -91.5t114 -30.5q63 0 102 13.5t68 29.5v-110zM612 423q-46 0 -75.5 -28t-40.5 -82h209q1 55 -23.5 82.5t-69.5 27.5zM241 92
q34 0 55.5 14.5t34 33.5t17 37t4.5 26v25h-61q-62 0 -90.5 -19.5t-28.5 -52.5q0 -32 18.5 -48t50.5 -16z" />
    <glyph glyph-name="ccedilla" unicode="&#xe7;" horiz-adv-x="509" 
d="M312 -10q-65 0 -116.5 18.5t-87.5 53t-55.5 84.5t-19.5 114q0 63 19.5 113t55.5 84.5t88 53t117 18.5q60 0 100 -12.5t63 -29.5v-110q-30 19 -64 30.5t-87 11.5q-150 0 -150 -159t148 -159q55 0 89 11.5t64 29.5v-109q-23 -17 -63.5 -30t-100.5 -13zM354 20l-58 -207
h-141l92 207h107z" />
    <glyph glyph-name="egrave" unicode="&#xe8;" horiz-adv-x="567" 
d="M511 34q-12 -7 -27.5 -14.5t-37 -14t-50 -11t-67.5 -4.5q-152 0 -225 71t-73 199q0 63 19.5 113t54.5 84.5t83.5 53t107.5 18.5q60 0 108 -19.5t79.5 -57.5t43.5 -96t0 -134h-352q8 -61 44.5 -91.5t116.5 -30.5q64 0 104.5 14t70.5 29v-109zM298 426q-46 0 -77 -28
t-42 -81h216q1 55 -24 82t-73 27zM258 588l-127 158h147l81 -158h-101z" />
    <glyph glyph-name="eacute" unicode="&#xe9;" horiz-adv-x="567" 
d="M513 34q-12 -7 -27.5 -14.5t-37 -14t-50 -11t-67.5 -4.5q-152 0 -225 71t-73 199q0 63 19.5 113t54.5 84.5t83.5 53t107.5 18.5q60 0 108 -19.5t79.5 -57.5t43.5 -96t0 -134h-352q8 -61 44.5 -91.5t116.5 -30.5q64 0 104.5 14t70.5 29v-109zM300 426q-46 0 -77 -28
t-42 -81h216q1 55 -24 82t-73 27zM293 746h147l-128 -158h-101z" />
    <glyph glyph-name="ecircumflex" unicode="&#xea;" horiz-adv-x="567" 
d="M511 34q-12 -7 -27.5 -14.5t-37 -14t-50 -11t-67.5 -4.5q-152 0 -225 71t-73 199q0 63 19.5 113t54.5 84.5t83.5 53t107.5 18.5q60 0 108 -19.5t79.5 -57.5t43.5 -96t0 -134h-352q8 -61 44.5 -91.5t116.5 -30.5q64 0 104.5 14t70.5 29v-109zM298 426q-46 0 -77 -28
t-42 -81h216q1 55 -24 82t-73 27zM296 660l-65 -72h-108l101 148h143l100 -148h-108z" />
    <glyph glyph-name="edieresis" unicode="&#xeb;" horiz-adv-x="567" 
d="M511 34q-12 -7 -27.5 -14.5t-37 -14t-50 -11t-67.5 -4.5q-152 0 -225 71t-73 199q0 63 19.5 113t54.5 84.5t83.5 53t107.5 18.5q60 0 108 -19.5t79.5 -57.5t43.5 -96t0 -134h-352q8 -61 44.5 -91.5t116.5 -30.5q64 0 104.5 14t70.5 29v-109zM298 426q-46 0 -77 -28
t-42 -81h216q1 55 -24 82t-73 27zM185 577q-18 0 -33 6.5t-26.5 17.5t-18 26t-6.5 32q0 34 24.5 57.5t59.5 23.5t59.5 -23.5t24.5 -57.5q0 -17 -6.5 -32t-18 -26t-26.5 -17.5t-33 -6.5zM410 577q-35 0 -59 24t-24 58t24 57.5t59 23.5q37 0 61 -23.5t24 -57.5t-24 -58
t-61 -24z" />
    <glyph glyph-name="igrave" unicode="&#xec;" horiz-adv-x="260" 
d="M199 519v-519h-138v519h138zM90 588l-127 158h147l81 -158h-101z" />
    <glyph glyph-name="iacute" unicode="&#xed;" horiz-adv-x="260" 
d="M199 519v-519h-138v519h138zM146 746h147l-128 -158h-101z" />
    <glyph glyph-name="icircumflex" unicode="&#xee;" horiz-adv-x="260" 
d="M199 519v-519h-138v519h138zM130 660l-65 -72h-108l101 148h143l100 -148h-108z" />
    <glyph glyph-name="idieresis" unicode="&#xef;" horiz-adv-x="260" 
d="M199 519v-519h-138v519h138zM18 577q-18 0 -33 6.5t-26.5 17.5t-18 26t-6.5 32q0 34 24.5 57.5t59.5 23.5t59.5 -23.5t24.5 -57.5q0 -17 -6.5 -32t-18 -26t-26.5 -17.5t-33 -6.5zM243 577q-35 0 -59 24t-24 58t24 57.5t59 23.5q37 0 61 -23.5t24 -57.5t-24 -58t-61 -24z
" />
    <glyph glyph-name="eth" unicode="&#xf0;" horiz-adv-x="585" 
d="M559 293q0 -84 -23.5 -142t-61.5 -93.5t-86.5 -51.5t-98.5 -16q-51 0 -97.5 16.5t-82 49.5t-57 82.5t-21.5 115.5t19.5 116t52 83t73.5 49.5t85 16.5q42 0 69 -13t48 -38q-30 64 -80 114l-157 -49l-22 73l108 34q-63 41 -134 68v9h201q30 -13 62 -36l109 35l23 -75
l-63 -20q27 -28 51 -62.5t42.5 -75.5t29.5 -88.5t11 -101.5zM293 101q27 0 49 10t38.5 32.5t25.5 59.5t9 90q0 22 -1.5 42t-5.5 40q-20 23 -44.5 33t-65.5 10q-55 0 -90 -42t-35 -120q0 -79 34.5 -117t85.5 -38z" />
    <glyph glyph-name="ntilde" unicode="&#xf1;" horiz-adv-x="594" 
d="M320 419q-42 0 -72.5 -17t-49.5 -44v-358h-138v519h130l6 -78h2q21 38 62 63t104 25q37 0 69.5 -10.5t56 -31t37 -51.5t13.5 -73v-363h-139v348q0 39 -21.5 55t-59.5 16zM126 587q-4 26 0 51.5t16.5 45.5t33.5 32t51 12q23 0 41 -6.5t33.5 -14.5t29.5 -14.5t29 -6.5
q16 0 24 10t6 38h73q4 -27 0 -52.5t-16.5 -45.5t-33.5 -32t-51 -12q-23 0 -41 6.5t-33.5 14.5t-29.5 14.5t-29 6.5q-16 0 -24 -9.5t-6 -37.5h-73v0z" />
    <glyph glyph-name="ograve" unicode="&#xf2;" horiz-adv-x="589" 
d="M293 -10q-56 0 -103.5 17.5t-83 52t-55.5 85t-20 115.5t20 115.5t55.5 84.5t83 51.5t103.5 17.5t104.5 -17.5t84 -51.5t56 -84.5t20.5 -115.5t-20.5 -115.5t-56 -85t-84 -52t-104.5 -17.5zM293 101q54 0 88 39t34 120q0 80 -34 119t-88 39q-51 0 -85.5 -39t-34.5 -119
q0 -81 34.5 -120t85.5 -39zM267 588l-127 158h147l81 -158h-101z" />
    <glyph glyph-name="oacute" unicode="&#xf3;" horiz-adv-x="589" 
d="M293 -10q-56 0 -103.5 17.5t-83 52t-55.5 85t-20 115.5t20 115.5t55.5 84.5t83 51.5t103.5 17.5t104.5 -17.5t84 -51.5t56 -84.5t20.5 -115.5t-20.5 -115.5t-56 -85t-84 -52t-104.5 -17.5zM293 101q54 0 88 39t34 120q0 80 -34 119t-88 39q-51 0 -85.5 -39t-34.5 -119
q0 -81 34.5 -120t85.5 -39zM304 746h147l-128 -158h-101z" />
    <glyph glyph-name="ocircumflex" unicode="&#xf4;" horiz-adv-x="589" 
d="M293 -10q-56 0 -103.5 17.5t-83 52t-55.5 85t-20 115.5t20 115.5t55.5 84.5t83 51.5t103.5 17.5t104.5 -17.5t84 -51.5t56 -84.5t20.5 -115.5t-20.5 -115.5t-56 -85t-84 -52t-104.5 -17.5zM293 101q54 0 88 39t34 120q0 80 -34 119t-88 39q-51 0 -85.5 -39t-34.5 -119
q0 -81 34.5 -120t85.5 -39zM295 660l-65 -72h-108l101 148h143l100 -148h-108z" />
    <glyph glyph-name="otilde" unicode="&#xf5;" horiz-adv-x="589" 
d="M293 -10q-56 0 -103.5 17.5t-83 52t-55.5 85t-20 115.5t20 115.5t55.5 84.5t83 51.5t103.5 17.5t104.5 -17.5t84 -51.5t56 -84.5t20.5 -115.5t-20.5 -115.5t-56 -85t-84 -52t-104.5 -17.5zM293 101q54 0 88 39t34 120q0 80 -34 119t-88 39q-51 0 -85.5 -39t-34.5 -119
q0 -81 34.5 -120t85.5 -39zM126 587q-4 26 0 51.5t16.5 45.5t33.5 32t51 12q23 0 41 -6.5t33.5 -14.5t29.5 -14.5t29 -6.5q16 0 24 10t6 38h73q4 -27 0 -52.5t-16.5 -45.5t-33.5 -32t-51 -12q-23 0 -41 6.5t-33.5 14.5t-29.5 14.5t-29 6.5q-16 0 -24 -9.5t-6 -37.5h-73v0z
" />
    <glyph glyph-name="odieresis" unicode="&#xf6;" horiz-adv-x="589" 
d="M293 -10q-56 0 -103.5 17.5t-83 52t-55.5 85t-20 115.5t20 115.5t55.5 84.5t83 51.5t103.5 17.5t104.5 -17.5t84 -51.5t56 -84.5t20.5 -115.5t-20.5 -115.5t-56 -85t-84 -52t-104.5 -17.5zM293 101q54 0 88 39t34 120q0 80 -34 119t-88 39q-51 0 -85.5 -39t-34.5 -119
q0 -81 34.5 -120t85.5 -39zM181 577q-18 0 -33 6.5t-26.5 17.5t-18 26t-6.5 32q0 34 24.5 57.5t59.5 23.5t59.5 -23.5t24.5 -57.5q0 -17 -6.5 -32t-18 -26t-26.5 -17.5t-33 -6.5zM406 577q-35 0 -59 24t-24 58t24 57.5t59 23.5q37 0 61 -23.5t24 -57.5t-24 -58t-61 -24z" />
    <glyph glyph-name="divide" unicode="&#xf7;" 
d="M273 462q-39 0 -65 26.5t-26 63.5t26 62.5t65 25.5t65.5 -25.5t26.5 -62.5t-26.5 -63.5t-65.5 -26.5zM20 287v100h500v-100h-500zM273 34q-39 0 -65 26t-26 63t26 63t65 26t65.5 -26t26.5 -63t-26.5 -63t-65.5 -26z" />
    <glyph glyph-name="oslash" unicode="&#xf8;" horiz-adv-x="589" 
d="M293 -10q-47 0 -91 14l-47 -84h-102l71 124q-43 35 -68 89t-25 127q0 65 20 115.5t55.5 84.5t83 51.5t103.5 17.5q55 0 100 -16l49 86h94l-70 -125q43 -34 67.5 -88t24.5 -126q0 -65 -20.5 -115.5t-56 -85t-84 -52t-104.5 -17.5zM173 260q0 -30 5 -54t14 -43l143 249
q-18 7 -42 7q-51 0 -85.5 -39t-34.5 -120zM415 260q0 55 -17 92l-139 -246q18 -5 34 -5q54 0 88 39t34 120z" />
    <glyph glyph-name="ugrave" unicode="&#xf9;" horiz-adv-x="587" 
d="M389 78q-21 -37 -60.5 -62.5t-104.5 -25.5q-37 0 -68 10.5t-53.5 32.5t-35 54t-12.5 76v356h140v-350q0 -40 22.5 -54t54.5 -14q42 0 70 16.5t47 43.5v358h137v-519h-128l-7 78h-2v0zM243 588l-127 158h147l81 -158h-101z" />
    <glyph glyph-name="uacute" unicode="&#xfa;" horiz-adv-x="587" 
d="M389 78q-21 -37 -60.5 -62.5t-104.5 -25.5q-37 0 -68 10.5t-53.5 32.5t-35 54t-12.5 76v356h140v-350q0 -40 22.5 -54t54.5 -14q42 0 70 16.5t47 43.5v358h137v-519h-128l-7 78h-2v0zM314 746h147l-128 -158h-101z" />
    <glyph glyph-name="ucircumflex" unicode="&#xfb;" horiz-adv-x="587" 
d="M389 78q-21 -37 -60.5 -62.5t-104.5 -25.5q-37 0 -68 10.5t-53.5 32.5t-35 54t-12.5 76v356h140v-350q0 -40 22.5 -54t54.5 -14q42 0 70 16.5t47 43.5v358h137v-519h-128l-7 78h-2v0zM289 660l-65 -72h-108l101 148h143l100 -148h-108z" />
    <glyph glyph-name="udieresis" unicode="&#xfc;" horiz-adv-x="587" 
d="M389 78q-21 -37 -60.5 -62.5t-104.5 -25.5q-37 0 -68 10.5t-53.5 32.5t-35 54t-12.5 76v356h140v-350q0 -40 22.5 -54t54.5 -14q42 0 70 16.5t47 43.5v358h137v-519h-128l-7 78h-2v0zM174 577q-18 0 -33 6.5t-26.5 17.5t-18 26t-6.5 32q0 34 24.5 57.5t59.5 23.5
t59.5 -23.5t24.5 -57.5q0 -17 -6.5 -32t-18 -26t-26.5 -17.5t-33 -6.5zM399 577q-35 0 -59 24t-24 58t24 57.5t59 23.5q37 0 61 -23.5t24 -57.5t-24 -58t-61 -24z" />
    <glyph glyph-name="yacute" unicode="&#xfd;" horiz-adv-x="554" 
d="M359 6q-17 -47 -36 -83t-44.5 -60.5t-60.5 -37t-84 -12.5q-30 0 -53 4.5t-45 14.5v120q17 -12 41.5 -19.5t53.5 -7.5q32 0 52 11.5t34 34.5l-207 548h147l130 -375l127 375h127l-182 -513v0zM316 746h147l-128 -158h-101z" />
    <glyph glyph-name="thorn" unicode="&#xfe;" horiz-adv-x="625" 
d="M367 -10q-60 0 -101.5 26t-67.5 71v-264h-138v894h138v-280q26 43 67.5 67.5t100.5 24.5q46 0 88 -16.5t73.5 -50t50 -84t18.5 -118.5q0 -69 -18.5 -119.5t-50 -84t-73 -50t-87.5 -16.5zM328 101q55 0 90 39t35 120q0 80 -35 119.5t-90 39.5t-92.5 -39.5t-37.5 -119.5
q0 -81 37.5 -120t92.5 -39z" />
    <glyph glyph-name="ydieresis" unicode="&#xff;" horiz-adv-x="554" 
d="M359 6q-17 -47 -36 -83t-44.5 -60.5t-60.5 -37t-84 -12.5q-30 0 -53 4.5t-45 14.5v120q17 -12 41.5 -19.5t53.5 -7.5q32 0 52 11.5t34 34.5l-207 548h147l130 -375l127 375h127l-182 -513v0zM172 577q-18 0 -33 6.5t-26.5 17.5t-18 26t-6.5 32q0 34 24.5 57.5t59.5 23.5
t59.5 -23.5t24.5 -57.5q0 -17 -6.5 -32t-18 -26t-26.5 -17.5t-33 -6.5zM397 577q-35 0 -59 24t-24 58t24 57.5t59 23.5q37 0 61 -23.5t24 -57.5t-24 -58t-61 -24z" />
    <glyph glyph-name="Amacron" unicode="&#x100;" horiz-adv-x="703" 
d="M265 717h173l252 -717h-144l-61 174h-290l-61 -174h-121zM444 293l-104 296l-103 -296h207zM161 896h361v-100h-361v100z" />
    <glyph glyph-name="amacron" unicode="&#x101;" horiz-adv-x="545" 
d="M365 0q-3 15 -5.5 39.5t-4.5 42.5q-8 -17 -20.5 -33t-31.5 -29.5t-44.5 -21.5t-59.5 -8q-33 0 -62.5 9t-52 28t-35.5 47t-13 66q0 83 65 128t185 45h64v23q0 48 -24.5 65.5t-78.5 17.5t-99 -14t-79 -31v110q34 17 87 31t116 14q102 0 159.5 -43t57.5 -137v-265
q0 -9 0.5 -20.5t1 -23.5t1.5 -22.5t2 -17.5h-129zM241 89q34 0 55 14.5t33 33.5t16.5 37.5t4.5 26.5v31h-59q-62 0 -90.5 -20.5t-28.5 -55.5q0 -32 18.5 -49.5t50.5 -17.5zM111 695h327v-97h-327v97z" />
    <glyph glyph-name="Abreve" unicode="&#x102;" horiz-adv-x="703" 
d="M265 717h173l252 -717h-144l-61 174h-290l-61 -174h-121zM444 293l-104 296l-103 -296h207zM350 765q-44 0 -76.5 13t-54 35t-32 51.5t-10.5 62.5h106q0 -32 17.5 -49.5t49.5 -17.5q65 0 65 67h108q0 -33 -10.5 -62.5t-32.5 -51.5t-54.5 -35t-75.5 -13z" />
    <glyph glyph-name="abreve" unicode="&#x103;" horiz-adv-x="545" 
d="M365 0q-3 15 -5.5 39.5t-4.5 42.5q-8 -17 -20.5 -33t-31.5 -29.5t-44.5 -21.5t-59.5 -8q-33 0 -62.5 9t-52 28t-35.5 47t-13 66q0 83 65 128t185 45h64v23q0 48 -24.5 65.5t-78.5 17.5t-99 -14t-79 -31v110q34 17 87 31t116 14q102 0 159.5 -43t57.5 -137v-265
q0 -9 0.5 -20.5t1 -23.5t1.5 -22.5t2 -17.5h-129zM241 89q34 0 55 14.5t33 33.5t16.5 37.5t4.5 26.5v31h-59q-62 0 -90.5 -20.5t-28.5 -55.5q0 -32 18.5 -49.5t50.5 -17.5zM272 577q-42 0 -73.5 12.5t-51.5 33.5t-30 49t-10 59h102q0 -30 16.5 -46t46.5 -16q61 0 61 62h103
q0 -31 -10 -59t-30 -49t-51 -33.5t-73 -12.5z" />
    <glyph glyph-name="Aogonek" unicode="&#x104;" horiz-adv-x="703" 
d="M265 717h173l252 -717q-23 -9 -41.5 -24t-18.5 -43q0 -43 43 -43q19 0 35 8v-75q-7 -4 -25 -8t-43 -4q-58 0 -90.5 26t-32.5 71q0 31 14 54t35 38h-20l-61 174h-290l-61 -174h-121zM444 293l-104 296l-103 -296h207z" />
    <glyph glyph-name="aogonek" unicode="&#x105;" horiz-adv-x="545" 
d="M328 -99q0 21 8 37t20.5 28t27 20.5t28.5 13.5h-39q-3 15 -5.5 39.5t-4.5 42.5q-8 -17 -20.5 -33t-31.5 -29.5t-44.5 -21.5t-59.5 -8q-33 0 -62.5 9t-52 28t-35.5 47t-13 66q0 83 65 128t185 45h65v23q0 48 -24.5 65.5t-78.5 17.5t-99.5 -14t-79.5 -31v110q35 17 87.5 31
t116.5 14q103 0 159.5 -42.5t56.5 -137.5v-265q0 -9 0.5 -20.5t1 -23.5t1 -22.5t1.5 -17.5q-23 -9 -41.5 -24t-18.5 -43q0 -43 43 -43q19 0 35 8v-75q-7 -4 -25 -8t-43 -4q-59 0 -91 24t-32 66zM249 89q34 0 55.5 14.5t33.5 33.5t16.5 37.5t4.5 26.5v31h-60
q-62 0 -90.5 -20.5t-28.5 -55.5q0 -32 18.5 -49.5t50.5 -17.5z" />
    <glyph glyph-name="Cacute" unicode="&#x106;" horiz-adv-x="656" 
d="M407 -10q-85 0 -153.5 25t-117 72.5t-74.5 115.5t-26 155t25.5 155t73.5 115.5t116.5 72.5t155.5 25q75 0 125.5 -13.5t79.5 -30.5v-123q-35 22 -86 35t-111 13q-118 0 -174 -62t-56 -187q0 -249 232 -249q60 0 109.5 13.5t85.5 38.5v-120q-27 -20 -78.5 -35.5
t-126.5 -15.5zM383 913h171l-127 -136h-125z" />
    <glyph glyph-name="cacute" unicode="&#x107;" horiz-adv-x="509" 
d="M310 -10q-65 0 -116.5 18.5t-87.5 53t-55.5 84.5t-19.5 114q0 63 19.5 113t55.5 84.5t88 53t117 18.5q60 0 100 -12.5t63 -29.5v-110q-30 19 -64 30.5t-87 11.5q-150 0 -150 -159t148 -159q55 0 89 11.5t64 29.5v-109q-23 -17 -63.5 -30t-100.5 -13zM311 746h147
l-128 -158h-101z" />
    <glyph glyph-name="Ccircumflex" unicode="&#x108;" horiz-adv-x="656" 
d="M407 -10q-85 0 -153.5 25t-117 72.5t-74.5 115.5t-26 155t25.5 155t73.5 115.5t116.5 72.5t155.5 25q75 0 125.5 -13.5t79.5 -30.5v-123q-35 22 -86 35t-111 13q-118 0 -174 -62t-56 -187q0 -249 232 -249q60 0 109.5 13.5t85.5 38.5v-120q-27 -20 -78.5 -35.5
t-126.5 -15.5zM385 849l-73 -75h-107l108 148h143l107 -148h-107z" />
    <glyph glyph-name="ccircumflex" unicode="&#x109;" horiz-adv-x="509" 
d="M310 -10q-65 0 -116.5 18.5t-87.5 53t-55.5 84.5t-19.5 114q0 63 19.5 113t55.5 84.5t88 53t117 18.5q60 0 100 -12.5t63 -29.5v-110q-30 19 -64 30.5t-87 11.5q-150 0 -150 -159t148 -159q55 0 89 11.5t64 29.5v-109q-23 -17 -63.5 -30t-100.5 -13zM293 660l-65 -72
h-108l101 148h143l100 -148h-108z" />
    <glyph glyph-name="Cdotaccent" unicode="&#x10a;" horiz-adv-x="656" 
d="M411 -10q-85 0 -153.5 25t-117 72.5t-74.5 115.5t-26 155t25.5 155t73.5 115.5t116.5 72.5t155.5 25q75 0 125.5 -13.5t79.5 -30.5v-123q-35 22 -86 35t-111 13q-118 0 -174 -62t-56 -187q0 -249 232 -249q60 0 109.5 13.5t85.5 38.5v-120q-27 -20 -78.5 -35.5
t-126.5 -15.5zM385 776q-17 0 -32.5 6.5t-27 17.5t-18 25.5t-6.5 31.5q0 35 24.5 58.5t59.5 23.5q18 0 33.5 -6.5t27 -17.5t18 -26t6.5 -32t-6.5 -31.5t-18 -25.5t-27 -17.5t-33.5 -6.5z" />
    <glyph glyph-name="cdotaccent" unicode="&#x10b;" horiz-adv-x="509" 
d="M310 -10q-65 0 -116.5 18.5t-87.5 53t-55.5 84.5t-19.5 114q0 63 19.5 113t55.5 84.5t88 53t117 18.5q60 0 100 -12.5t63 -29.5v-110q-30 19 -64 30.5t-87 11.5q-150 0 -150 -159t148 -159q55 0 89 11.5t64 29.5v-109q-23 -17 -63.5 -30t-100.5 -13zM290 577
q-35 0 -59.5 24t-24.5 58t24.5 57.5t59.5 23.5q18 0 33.5 -6.5t27 -17.5t18 -25.5t6.5 -31.5t-6.5 -32t-18 -26t-27 -17.5t-33.5 -6.5z" />
    <glyph glyph-name="Ccaron" unicode="&#x10c;" horiz-adv-x="656" 
d="M407 -10q-85 0 -153.5 25t-117 72.5t-74.5 115.5t-26 155t25.5 155t73.5 115.5t116.5 72.5t155.5 25q75 0 125.5 -13.5t79.5 -30.5v-123q-35 22 -86 35t-111 13q-118 0 -174 -62t-56 -187q0 -249 232 -249q60 0 109.5 13.5t85.5 38.5v-120q-27 -20 -78.5 -35.5
t-126.5 -15.5zM453 774h-143l-108 148h107l73 -74l71 74h107z" />
    <glyph glyph-name="ccaron" unicode="&#x10d;" horiz-adv-x="509" 
d="M310 -10q-65 0 -116.5 18.5t-87.5 53t-55.5 84.5t-19.5 114q0 63 19.5 113t55.5 84.5t88 53t117 18.5q60 0 100 -12.5t63 -29.5v-110q-30 19 -64 30.5t-87 11.5q-150 0 -150 -159t148 -159q55 0 89 11.5t64 29.5v-109q-23 -17 -63.5 -30t-100.5 -13zM365 588h-143
l-101 148h108l65 -71l63 71h108z" />
    <glyph glyph-name="Dcaron" unicode="&#x10e;" horiz-adv-x="725" 
d="M71 717h244q79 0 147.5 -17t119 -56t79 -103t28.5 -158q0 -95 -29 -166.5t-80 -119.5t-121.5 -72.5t-153.5 -24.5h-234v717zM214 597v-478h98q51 0 93 15t72 46.5t47 80t17 115.5q0 65 -16.5 108t-46 68t-69.5 35t-87 10h-108zM399 774h-143l-108 148h107l73 -74l71 74
h107z" />
    <glyph glyph-name="dcaron" unicode="&#x10f;" horiz-adv-x="610" 
d="M431 92q-25 -47 -66.5 -74.5t-102.5 -27.5q-44 0 -86 16.5t-74 50t-51.5 84t-19.5 119.5q0 68 19.5 118.5t52 84t74 50t86.5 16.5q57 0 97.5 -22t66.5 -60v270h138v-717h-128zM301 101q27 0 50 9.5t40 29.5t27 49.5t10 70.5q0 81 -36.5 120t-90.5 39q-55 0 -91.5 -40.5
t-36.5 -118.5q0 -80 36 -119.5t92 -39.5zM611 528l19 189h128l-58 -189h-89z" />
    <glyph glyph-name="Dcroat" unicode="&#x110;" horiz-adv-x="752" 
d="M98 423v294h244q79 0 148 -17t119 -56t79 -103t29 -158q0 -95 -29 -166.5t-80 -119.5t-121.5 -72.5t-153.5 -24.5h-235v310h-92v113h92zM242 310v-191h97q51 0 93 15t72.5 46.5t47 80t16.5 115.5q0 65 -16.5 108t-45.5 68t-69 35t-87 10h-108v-174h167v-113h-167z" />
    <glyph glyph-name="dcroat" unicode="&#x111;" horiz-adv-x="625" 
d="M431 92q-25 -47 -66.5 -74.5t-102.5 -27.5q-44 0 -86 16.5t-74 50t-51.5 84t-19.5 119.5q0 68 19.5 118.5t52 84t74 50t86.5 16.5q57 0 97.5 -22t66.5 -60v118h-150v91h150v61h138v-61h67v-91h-67v-565h-128zM301 101q27 0 50 9.5t40 29.5t27 49.5t10 70.5
q0 81 -36.5 120t-90.5 39q-55 0 -91.5 -40.5t-36.5 -118.5q0 -80 36 -119.5t92 -39.5z" />
    <glyph glyph-name="Emacron" unicode="&#x112;" horiz-adv-x="606" 
d="M71 717h477v-120h-334v-167h282v-119h-282v-192h339v-119h-482v717zM129 896h361v-100h-361v100z" />
    <glyph glyph-name="emacron" unicode="&#x113;" horiz-adv-x="567" 
d="M511 34q-12 -7 -27.5 -14.5t-37 -14t-50 -11t-67.5 -4.5q-152 0 -225 71t-73 199q0 63 19.5 113t54.5 84.5t83.5 53t107.5 18.5q60 0 108 -19.5t79.5 -57.5t43.5 -96t0 -134h-352q8 -61 44.5 -91.5t116.5 -30.5q64 0 104.5 14t70.5 29v-109zM298 426q-46 0 -77 -28
t-42 -81h216q1 55 -24 82t-73 27zM135 695h327v-97h-327v97z" />
    <glyph glyph-name="Ebreve" unicode="&#x114;" horiz-adv-x="606" 
d="M71 717h477v-120h-334v-167h282v-119h-282v-192h339v-119h-482v717zM313 765q-44 0 -76.5 13t-54 35t-32 51.5t-10.5 62.5h106q0 -32 17.5 -49.5t49.5 -17.5q65 0 65 67h108q0 -33 -10.5 -62.5t-32.5 -51.5t-54.5 -35t-75.5 -13z" />
    <glyph glyph-name="ebreve" unicode="&#x115;" horiz-adv-x="567" 
d="M511 34q-12 -7 -27.5 -14.5t-37 -14t-50 -11t-67.5 -4.5q-152 0 -225 71t-73 199q0 63 19.5 113t54.5 84.5t83.5 53t107.5 18.5q60 0 108 -19.5t79.5 -57.5t43.5 -96t0 -134h-352q8 -61 44.5 -91.5t116.5 -30.5q64 0 104.5 14t70.5 29v-109zM298 426q-46 0 -77 -28
t-42 -81h216q1 55 -24 82t-73 27zM299 577q-42 0 -73.5 12.5t-51.5 33.5t-30 49t-10 59h102q0 -30 16.5 -46t46.5 -16q61 0 61 62h103q0 -31 -10 -59t-30 -49t-51 -33.5t-73 -12.5z" />
    <glyph glyph-name="Edotaccent" unicode="&#x116;" horiz-adv-x="606" 
d="M71 717h477v-120h-334v-167h282v-119h-282v-192h339v-119h-482v717zM316 776q-17 0 -32.5 6.5t-27 17.5t-18 25.5t-6.5 31.5q0 35 24.5 58.5t59.5 23.5q18 0 33.5 -6.5t27 -17.5t18 -26t6.5 -32t-6.5 -31.5t-18 -25.5t-27 -17.5t-33.5 -6.5z" />
    <glyph glyph-name="edotaccent" unicode="&#x117;" horiz-adv-x="567" 
d="M513 34q-12 -7 -27.5 -14.5t-37 -14t-50 -11t-67.5 -4.5q-152 0 -225 71t-73 199q0 63 19.5 113t54.5 84.5t83.5 53t107.5 18.5q60 0 108 -19.5t79.5 -57.5t43.5 -96t0 -134h-352q8 -61 44.5 -91.5t116.5 -30.5q64 0 104.5 14t70.5 29v-109zM300 426q-46 0 -77 -28
t-42 -81h216q1 55 -24 82t-73 27zM283 577q-35 0 -59.5 24t-24.5 58t24.5 57.5t59.5 23.5q18 0 33.5 -6.5t27 -17.5t18 -25.5t6.5 -31.5t-6.5 -32t-18 -26t-27 -17.5t-33.5 -6.5z" />
    <glyph glyph-name="Eogonek" unicode="&#x118;" horiz-adv-x="606" 
d="M71 717h477v-120h-334v-167h282v-119h-282v-192h339v-119h-482v717zM503 -189q-59 0 -91 24t-32 66q0 21 8 37t20.5 28t27.5 20.5t29 13.5h87q-22 -9 -40.5 -24t-18.5 -43q0 -43 43 -43q19 0 35 8v-75q-7 -4 -25 -8t-43 -4z" />
    <glyph glyph-name="eogonek" unicode="&#x119;" horiz-adv-x="567" 
d="M511 34q-12 -7 -27.5 -14.5t-37 -14t-50 -11t-67.5 -4.5q-152 0 -225 71t-73 199q0 63 19.5 113t54.5 84.5t83.5 53t107.5 18.5q60 0 108 -19.5t79.5 -57.5t43.5 -96t0 -134h-352q8 -61 44.5 -91.5t116.5 -30.5q64 0 104.5 14t70.5 29v-109zM298 426q-46 0 -77 -28
t-42 -81h216q1 55 -24 82t-73 27zM378 -189q-59 0 -91 24t-32 66q0 21 8 37t20.5 28t27.5 20.5t29 13.5h87q-22 -9 -40.5 -24t-18.5 -43q0 -43 43 -43q19 0 35 8v-75q-7 -4 -25 -8t-43 -4z" />
    <glyph glyph-name="Ecaron" unicode="&#x11a;" horiz-adv-x="606" 
d="M71 717h477v-120h-334v-167h282v-119h-282v-192h339v-119h-482v717zM383 774h-143l-108 148h107l73 -74l71 74h107z" />
    <glyph glyph-name="ecaron" unicode="&#x11b;" horiz-adv-x="567" 
d="M511 34q-12 -7 -27.5 -14.5t-37 -14t-50 -11t-67.5 -4.5q-152 0 -225 71t-73 199q0 63 19.5 113t54.5 84.5t83.5 53t107.5 18.5q60 0 108 -19.5t79.5 -57.5t43.5 -96t0 -134h-352q8 -61 44.5 -91.5t116.5 -30.5q64 0 104.5 14t70.5 29v-109zM298 426q-46 0 -77 -28
t-42 -81h216q1 55 -24 82t-73 27zM372 588h-143l-101 148h108l65 -71l63 71h108z" />
    <glyph glyph-name="Gcircumflex" unicode="&#x11c;" horiz-adv-x="744" 
d="M706 287q0 -63 -19.5 -117.5t-58.5 -94t-98.5 -62.5t-139.5 -23t-145 25.5t-111.5 73.5t-72 116t-25.5 153t25 153t73.5 116t120 73.5t164.5 25.5q45 0 80.5 -5t63.5 -13.5t50 -19t40 -20.5v-123q-45 26 -99 44t-128 18q-128 0 -184.5 -65.5t-56.5 -183.5
q0 -119 53.5 -184t152.5 -65q45 0 77.5 12.5t53.5 34t30.5 51t9.5 63.5h-192v119h336v-102v0zM390 849l-73 -75h-107l108 148h143l107 -148h-107z" />
    <glyph glyph-name="gcircumflex" unicode="&#x11d;" horiz-adv-x="620" 
d="M556 85q0 -62 -16.5 -111t-52 -83t-92 -52t-137.5 -18q-42 0 -73 4.5t-53.5 11t-38.5 14t-27 14.5v110q15 -8 32.5 -16t40 -14t51.5 -10t68 -4t68.5 6t49.5 22.5t30.5 45t10.5 74.5v31q-24 -41 -63 -64.5t-96 -24.5q-45 0 -86.5 15.5t-73 47.5t-50 79.5t-18.5 110.5
q0 64 19 111.5t50.5 79.5t73 48t87.5 16q58 0 98.5 -24t64.5 -66q0 18 2.5 42t6.5 38h129q-2 -14 -3.5 -40t-1.5 -43v-351zM298 132q53 0 86.5 35t33.5 107q0 73 -33.5 109t-87.5 36q-53 0 -88.5 -36.5t-35.5 -108.5q0 -71 36 -106.5t89 -35.5zM288 660l-65 -72h-108
l101 148h143l100 -148h-108z" />
    <glyph glyph-name="Gbreve" unicode="&#x11e;" horiz-adv-x="744" 
d="M706 287q0 -63 -19.5 -117.5t-58.5 -94t-98.5 -62.5t-139.5 -23t-145 25.5t-111.5 73.5t-72 116t-25.5 153t25 153t73.5 116t120 73.5t164.5 25.5q45 0 80.5 -5t63.5 -13.5t50 -19t40 -20.5v-123q-45 26 -99 44t-128 18q-128 0 -184.5 -65.5t-56.5 -183.5
q0 -119 53.5 -184t152.5 -65q45 0 77.5 12.5t53.5 34t30.5 51t9.5 63.5h-192v119h336v-102v0zM386 765q-44 0 -76.5 13t-54 35t-32 51.5t-10.5 62.5h106q0 -32 17.5 -49.5t49.5 -17.5q65 0 65 67h108q0 -33 -10.5 -62.5t-32.5 -51.5t-54.5 -35t-75.5 -13z" />
    <glyph glyph-name="gbreve" unicode="&#x11f;" horiz-adv-x="620" 
d="M556 85q0 -62 -16.5 -111t-52 -83t-92 -52t-137.5 -18q-42 0 -73 4.5t-53.5 11t-38.5 14t-27 14.5v110q15 -8 32.5 -16t40 -14t51.5 -10t68 -4t68.5 6t49.5 22.5t30.5 45t10.5 74.5v31q-24 -41 -63 -64.5t-96 -24.5q-45 0 -86.5 15.5t-73 47.5t-50 79.5t-18.5 110.5
q0 64 19 111.5t50.5 79.5t73 48t87.5 16q58 0 98.5 -24t64.5 -66q0 18 2.5 42t6.5 38h129q-2 -14 -3.5 -40t-1.5 -43v-351zM298 132q53 0 86.5 35t33.5 107q0 73 -33.5 109t-87.5 36q-53 0 -88.5 -36.5t-35.5 -108.5q0 -71 36 -106.5t89 -35.5zM280 577q-42 0 -73.5 12.5
t-51.5 33.5t-30 49t-10 59h102q0 -30 16.5 -46t46.5 -16q61 0 61 62h103q0 -31 -10 -59t-30 -49t-51 -33.5t-73 -12.5z" />
    <glyph glyph-name="Gdotaccent" unicode="&#x120;" horiz-adv-x="744" 
d="M706 287q0 -63 -19.5 -117.5t-58.5 -94t-98.5 -62.5t-139.5 -23t-145 25.5t-111.5 73.5t-72 116t-25.5 153t25 153t73.5 116t120 73.5t164.5 25.5q45 0 80.5 -5t63.5 -13.5t50 -19t40 -20.5v-123q-45 26 -99 44t-128 18q-128 0 -184.5 -65.5t-56.5 -183.5
q0 -119 53.5 -184t152.5 -65q45 0 77.5 12.5t53.5 34t30.5 51t9.5 63.5h-192v119h336v-102v0zM382 776q-17 0 -32.5 6.5t-27 17.5t-18 25.5t-6.5 31.5q0 35 24.5 58.5t59.5 23.5q18 0 33.5 -6.5t27 -17.5t18 -26t6.5 -32t-6.5 -31.5t-18 -25.5t-27 -17.5t-33.5 -6.5z" />
    <glyph glyph-name="gdotaccent" unicode="&#x121;" horiz-adv-x="620" 
d="M556 85q0 -62 -16.5 -111t-52 -83t-92 -52t-137.5 -18q-42 0 -73 4.5t-53.5 11t-38.5 14t-27 14.5v110q15 -8 32.5 -16t40 -14t51.5 -10t68 -4t68.5 6t49.5 22.5t30.5 45t10.5 74.5v31q-24 -41 -63 -64.5t-96 -24.5q-45 0 -86.5 15.5t-73 47.5t-50 79.5t-18.5 110.5
q0 64 19 111.5t50.5 79.5t73 48t87.5 16q58 0 98.5 -24t64.5 -66q0 18 2.5 42t6.5 38h129q-2 -14 -3.5 -40t-1.5 -43v-351zM298 132q53 0 86.5 35t33.5 107q0 73 -33.5 109t-87.5 36q-53 0 -88.5 -36.5t-35.5 -108.5q0 -71 36 -106.5t89 -35.5zM280 577q-35 0 -59.5 24
t-24.5 58t24.5 57.5t59.5 23.5q18 0 33.5 -6.5t27 -17.5t18 -25.5t6.5 -31.5t-6.5 -32t-18 -26t-27 -17.5t-33.5 -6.5z" />
    <glyph glyph-name="uni0122" unicode="&#x122;" horiz-adv-x="744" 
d="M706 287q0 -63 -19.5 -117.5t-58.5 -94t-98.5 -62.5t-139.5 -23t-145 25.5t-111.5 73.5t-72 116t-25.5 153t25 153t73.5 116t120 73.5t164.5 25.5q45 0 80.5 -5t63.5 -13.5t50 -19t40 -20.5v-123q-45 26 -99 44t-128 18q-128 0 -184.5 -65.5t-56.5 -183.5
q0 -119 53.5 -184t152.5 -65q45 0 77.5 12.5t53.5 34t30.5 51t9.5 63.5h-192v119h336v-102v0zM472 -120q0 -39 -20.5 -70.5t-44.5 -54.5h-84q17 15 30.5 31.5t24.5 37.5q-22 5 -35.5 22t-13.5 43q0 28 18.5 47.5t49.5 19.5q32 0 53.5 -19t21.5 -57z" />
    <glyph glyph-name="uni0123" unicode="&#x123;" horiz-adv-x="620" 
d="M556 85q0 -62 -16.5 -111t-52 -83t-92 -52t-137.5 -18q-42 0 -73 4.5t-53.5 11t-38.5 14t-27 14.5v110q15 -8 32.5 -16t40 -14t51.5 -10t68 -4t68.5 6t49.5 22.5t30.5 45t10.5 74.5v31q-24 -41 -63 -64.5t-96 -24.5q-45 0 -86.5 15.5t-73 47.5t-50 79.5t-18.5 110.5
q0 64 19 111.5t50.5 79.5t73 48t87.5 16q58 0 98.5 -24t64.5 -66q0 18 2.5 42t6.5 38h129q-2 -14 -3.5 -40t-1.5 -43v-351zM298 132q53 0 86.5 35t33.5 107q0 73 -33.5 109t-87.5 36q-53 0 -88.5 -36.5t-35.5 -108.5q0 -71 36 -106.5t89 -35.5zM365 665q0 -29 -18.5 -48.5
t-49.5 -19.5q-32 0 -53.5 19t-21.5 57q0 40 21 71t44 54h84q-17 -15 -30.5 -31.5t-24.5 -36.5q22 -5 35.5 -22.5t13.5 -42.5z" />
    <glyph glyph-name="Hcircumflex" unicode="&#x124;" horiz-adv-x="738" 
d="M524 297h-310v-297h-143v717h143v-301h310v301h143v-717h-143v297zM366 849l-73 -75h-107l108 148h143l107 -148h-107z" />
    <glyph glyph-name="hcircumflex" unicode="&#x125;" horiz-adv-x="594" 
d="M320 419q-42 0 -72.5 -17t-49.5 -44v-358h-138v717h138v-187l-1 -90h1q23 38 63 63.5t103 25.5q37 0 69.5 -10.5t56 -31t37 -51.5t13.5 -73v-363h-139v348q0 39 -21.5 55t-59.5 16zM284 880l-73 -75h-107l108 148h143l107 -148h-107z" />
    <glyph glyph-name="Hbar" unicode="&#x126;" horiz-adv-x="762" 
d="M536 297h-310v-297h-143v496h-87v105h87v116h143v-116h310v116h143v-116h88v-105h-88v-496h-143v297zM536 416v80h-310v-80h310z" />
    <glyph glyph-name="hbar" unicode="&#x127;" horiz-adv-x="594" 
d="M320 419q-42 0 -72.5 -17t-49.5 -44v-358h-138v565h-67v91h67v61h138v-61h151v-91h-151v-35l-1 -90h1q23 38 63 63.5t103 25.5q37 0 69.5 -10.5t56 -31t37 -51.5t13.5 -73v-363h-139v348q0 39 -21.5 55t-59.5 16z" />
    <glyph glyph-name="Itilde" unicode="&#x128;" horiz-adv-x="284" 
d="M214 717v-717h-143v717h143zM-43 771q-7 33 -3.5 61.5t16.5 49.5t35.5 33t53.5 12q26 0 46.5 -7t37.5 -15t31.5 -15t29.5 -7q21 0 30.5 11.5t7.5 38.5h83q7 -33 3.5 -61.5t-16.5 -49.5t-35.5 -33t-53.5 -12q-26 0 -46 7t-37 15t-32 15t-31 7q-20 0 -29 -11t-7 -39h-84v0z
" />
    <glyph glyph-name="itilde" unicode="&#x129;" horiz-adv-x="260" 
d="M199 519v-519h-138v519h138zM-38 587q-4 26 0 51.5t16.5 45.5t33.5 32t51 12q23 0 41 -6.5t33.5 -14.5t29.5 -14.5t29 -6.5q16 0 24 10t6 38h73q4 -27 0 -52.5t-16.5 -45.5t-33.5 -32t-51 -12q-23 0 -41 6.5t-33.5 14.5t-29.5 14.5t-29 6.5q-16 0 -24 -9.5t-6 -37.5h-73
v0z" />
    <glyph glyph-name="Imacron" unicode="&#x12a;" horiz-adv-x="284" 
d="M214 717v-717h-143v717h143zM-38 896h361v-100h-361v100z" />
    <glyph glyph-name="imacron" unicode="&#x12b;" horiz-adv-x="260" 
d="M199 519v-519h-138v519h138zM-35 694h327v-97h-327v97z" />
    <glyph glyph-name="Ibreve" unicode="&#x12c;" horiz-adv-x="284" 
d="M214 717v-717h-143v717h143zM143 765q-44 0 -76.5 13t-54 35t-32 51.5t-10.5 62.5h106q0 -32 17.5 -49.5t49.5 -17.5q65 0 65 67h108q0 -33 -10.5 -62.5t-32.5 -51.5t-54.5 -35t-75.5 -13z" />
    <glyph glyph-name="ibreve" unicode="&#x12d;" horiz-adv-x="260" 
d="M199 519v-519h-138v519h138zM131 577q-42 0 -73.5 12.5t-51.5 33.5t-30 49t-10 59h102q0 -30 16.5 -46t46.5 -16q61 0 61 62h103q0 -31 -10 -59t-30 -49t-51 -33.5t-73 -12.5z" />
    <glyph glyph-name="Iogonek" unicode="&#x12e;" horiz-adv-x="284" 
d="M232 -177q-7 -4 -25 -8t-43 -4q-58 0 -90.5 27.5t-32.5 72.5q0 30 13.5 52t34.5 37h-18v717h143v-717q-23 -9 -41.5 -24t-18.5 -43q0 -43 43 -43q19 0 35 8v-75v0z" />
    <glyph glyph-name="iogonek" unicode="&#x12f;" horiz-adv-x="260" 
d="M199 519v-519q-22 -9 -40.5 -24t-18.5 -43q0 -43 43 -43q20 0 34 8v-75q-7 -4 -24.5 -8t-43.5 -4q-59 0 -90.5 27t-31.5 73q0 23 8 40.5t20 31.5q9 10 20 17h-14v519h138zM130 577q-36 0 -60.5 24t-24.5 58t24.5 58t60.5 24q18 0 33 -6.5t26.5 -17.5t18 -26t6.5 -32
t-6.5 -32t-18 -26t-26.5 -17.5t-33 -6.5z" />
    <glyph glyph-name="Idotaccent" unicode="&#x130;" horiz-adv-x="284" 
d="M214 717v-717h-143v717h143zM141 776q-17 0 -32.5 6.5t-27 17.5t-18 25.5t-6.5 31.5q0 35 24.5 58.5t59.5 23.5q18 0 33.5 -6.5t27 -17.5t18 -26t6.5 -32t-6.5 -31.5t-18 -25.5t-27 -17.5t-33.5 -6.5z" />
    <glyph glyph-name="dotlessi" unicode="&#x131;" horiz-adv-x="260" 
d="M199 519v-519h-138v519h138z" />
    <glyph glyph-name="IJ" unicode="&#x132;" horiz-adv-x="662" 
d="M598 717v-554q0 -36 -11.5 -67.5t-35.5 -55t-61 -37t-88 -13.5q-28 0 -58.5 4.5t-58.5 16.5v118q24 -11 43.5 -15.5t42.5 -4.5q27 0 43.5 6.5t26.5 18.5t13.5 29t3.5 38v516h140zM214 717v-717h-143v717h143z" />
    <glyph glyph-name="ij" unicode="&#x133;" horiz-adv-x="514" 
d="M130 577q-36 0 -60.5 24t-24.5 58t24.5 58t60.5 24q18 0 33 -6.5t26.5 -17.5t18 -26t6.5 -32t-6.5 -32t-18 -26t-26.5 -17.5t-33 -6.5zM199 519v-519h-138v519h138zM383 577q-35 0 -59.5 24t-24.5 58t24.5 58t59.5 24q18 0 33.5 -6.5t27 -17.5t18 -26t6.5 -32t-6.5 -32
t-18 -26t-27 -17.5t-33.5 -6.5zM453 -20q0 -78 -47 -122.5t-135 -44.5q-26 0 -50.5 4.5t-47.5 16.5v112q25 -23 69 -23q41 0 57 20.5t16 50.5v525h138v-539z" />
    <glyph glyph-name="Jcircumflex" unicode="&#x134;" horiz-adv-x="405" 
d="M341 717v-554q0 -36 -11.5 -67.5t-35.5 -55t-61 -37t-88 -13.5q-29 0 -59 4.5t-58 16.5v118q24 -11 43 -15.5t41 -4.5q27 0 44.5 6.5t27 18.5t13 29t3.5 38v516h141zM268 849l-73 -75h-107l108 148h143l107 -148h-107z" />
    <glyph glyph-name="jcircumflex" unicode="&#x135;" horiz-adv-x="273" 
d="M213 -20q0 -78 -47 -122.5t-135 -44.5q-26 0 -50.5 4.5t-47.5 16.5v112q25 -23 69 -23q41 0 57 20.5t16 50.5v525h138v-539zM138 660l-65 -72h-108l101 148h143l100 -148h-108z" />
    <glyph glyph-name="uni0136" unicode="&#x136;" horiz-adv-x="671" 
d="M279 291h-65v-291h-143v717h143v-308h71l216 308h149l-252 -358l262 -359h-169zM412 -120q0 -39 -20.5 -70.5t-44.5 -54.5h-84q17 15 30.5 31.5t24.5 37.5q-22 5 -35.5 22t-13.5 43q0 28 18.5 47.5t49.5 19.5q32 0 53.5 -19t21.5 -57z" />
    <glyph glyph-name="uni0137" unicode="&#x137;" horiz-adv-x="549" 
d="M243 202h-45v-202h-138v717h138v-405h47l152 207h139l-183 -248l196 -271h-159zM366 -120q0 -39 -20.5 -70.5t-44.5 -54.5h-84q17 15 30.5 31.5t24.5 37.5q-22 5 -35.5 22t-13.5 43q0 28 18.5 47.5t49.5 19.5q32 0 53.5 -19t21.5 -57z" />
    <glyph glyph-name="Lacute" unicode="&#x139;" horiz-adv-x="560" 
d="M526 0h-455v717h143v-598h312v-119zM153 913h171l-127 -136h-125z" />
    <glyph glyph-name="lacute" unicode="&#x13a;" horiz-adv-x="259" 
d="M198 717v-717h-138v717h138zM144 944h171l-127 -136h-125z" />
    <glyph glyph-name="uni013B" unicode="&#x13b;" horiz-adv-x="560" 
d="M526 0h-455v717h143v-598h312v-119zM376 -120q0 -39 -20.5 -70.5t-44.5 -54.5h-84q17 15 30.5 31.5t24.5 37.5q-22 5 -35.5 22t-13.5 43q0 28 18.5 47.5t49.5 19.5q32 0 53.5 -19t21.5 -57z" />
    <glyph glyph-name="uni013C" unicode="&#x13c;" horiz-adv-x="259" 
d="M198 717v-717h-138v717h138zM199 -120q0 -39 -20.5 -70.5t-44.5 -54.5h-84q17 15 30.5 31.5t24.5 37.5q-22 5 -35.5 22t-13.5 43q0 28 18.5 47.5t49.5 19.5q32 0 53.5 -19t21.5 -57z" />
    <glyph glyph-name="Lcaron" unicode="&#x13d;" horiz-adv-x="560" 
d="M526 0h-455v717h143v-598h312v-119zM277 528l19 189h128l-58 -189h-89z" />
    <glyph glyph-name="lcaron" unicode="&#x13e;" horiz-adv-x="259" 
d="M198 717v-717h-138v717h138zM237 528l19 189h128l-58 -189h-89z" />
    <glyph glyph-name="Ldot" unicode="&#x13f;" horiz-adv-x="580" 
d="M526 0h-455v717h143v-598h312v-119zM482 297q-19 0 -35.5 7t-29 19.5t-19.5 29t-7 34.5t7 34t19.5 28t29 19t35.5 7t36 -7t29.5 -19t19.5 -28t7 -34t-7 -34.5t-19.5 -29t-29.5 -19.5t-36 -7z" />
    <glyph glyph-name="ldot" unicode="&#x140;" horiz-adv-x="445" 
d="M198 717v-717h-138v717h138zM352.94 273.263q-18.2881 0 -34.1689 6.7373q-15.8818 6.7373 -27.9131 18.7695q-12.0322 12.0312 -18.7695 27.9131t-6.7373 33.207t6.7373 32.7256t18.7695 26.9512q12.0312 11.5498 27.9131 18.2871q15.8809 6.73828 34.1689 6.73828
t34.6514 -6.73828q16.3633 -6.7373 28.3945 -18.2871q12.0312 -11.5508 18.7695 -26.9512q6.7373 -15.4004 6.7373 -32.7256t-6.7373 -33.207q-6.73828 -15.8818 -18.7695 -27.9131q-12.0312 -12.0322 -28.3945 -18.7695t-34.6514 -6.7373z" />
    <glyph glyph-name="Lslash" unicode="&#x141;" horiz-adv-x="559" 
d="M526 0h-455v219l-74 -43v120l74 43v378h143v-296l188 109v-120l-188 -109v-182h312v-119z" />
    <glyph glyph-name="lslash" unicode="&#x142;" horiz-adv-x="322" 
d="M14 301l78 62v354h138v-245l78 62v-117l-78 -62v-355h-138v246l-78 -61v116z" />
    <glyph glyph-name="Nacute" unicode="&#x143;" horiz-adv-x="739" 
d="M669 0h-181l-290 540v-540h-127v717h183l288 -536v536h127v-717zM391 913h171l-127 -136h-125z" />
    <glyph glyph-name="nacute" unicode="&#x144;" horiz-adv-x="594" 
d="M320 419q-42 0 -72.5 -17t-49.5 -44v-358h-138v519h130l6 -78h2q21 38 62 63t104 25q37 0 69.5 -10.5t56 -31t37 -51.5t13.5 -73v-363h-139v348q0 39 -21.5 55t-59.5 16zM315 746h147l-128 -158h-101z" />
    <glyph glyph-name="uni0145" unicode="&#x145;" horiz-adv-x="739" 
d="M669 0h-181l-290 540v-540h-127v717h183l288 -536v536h127v-717zM444 -120q0 -39 -20.5 -70.5t-44.5 -54.5h-84q17 15 30.5 31.5t24.5 37.5q-22 5 -35.5 22t-13.5 43q0 28 18.5 47.5t49.5 19.5q32 0 53.5 -19t21.5 -57z" />
    <glyph glyph-name="uni0146" unicode="&#x146;" horiz-adv-x="594" 
d="M320 419q-42 0 -72.5 -17t-49.5 -44v-358h-138v519h130l6 -78h2q21 38 62 63t104 25q37 0 69.5 -10.5t56 -31t37 -51.5t13.5 -73v-363h-139v348q0 39 -21.5 55t-59.5 16zM378 -120q0 -39 -20.5 -70.5t-44.5 -54.5h-84q17 15 30.5 31.5t24.5 37.5q-22 5 -35.5 22t-13.5 43
q0 28 18.5 47.5t49.5 19.5q32 0 53.5 -19t21.5 -57z" />
    <glyph glyph-name="Ncaron" unicode="&#x147;" horiz-adv-x="739" 
d="M669 0h-181l-290 540v-540h-127v717h183l288 -536v536h127v-717zM454 774h-143l-108 148h107l73 -74l71 74h107z" />
    <glyph glyph-name="ncaron" unicode="&#x148;" horiz-adv-x="594" 
d="M320 419q-42 0 -72.5 -17t-49.5 -44v-358h-138v519h130l6 -78h2q21 38 62 63t104 25q37 0 69.5 -10.5t56 -31t37 -51.5t13.5 -73v-363h-139v348q0 39 -21.5 55t-59.5 16zM367 588h-143l-101 148h108l65 -71l63 71h108z" />
    <glyph glyph-name="Eng" unicode="&#x14a;" horiz-adv-x="739" 
d="M71 717h183l288 -536v536h127v-738q0 -38 -11.5 -70.5t-35.5 -56.5t-61.5 -37.5t-88.5 -13.5q-29 0 -58.5 4.5t-57.5 15.5v117q23 -11 43 -15.5t43 -4.5q57 0 77.5 22.5t22.5 59.5h-54l-290 540v-540h-127v717z" />
    <glyph glyph-name="eng" unicode="&#x14b;" horiz-adv-x="592" 
d="M364 529q37 0 69.5 -10.5t56 -31t37 -51.5t13.5 -73v-386q0 -76 -47.5 -120t-135.5 -44q-26 0 -50.5 4.5t-47.5 16.5v112q25 -23 69 -23q41 0 57 20.5t16 50.5v354q0 39 -21.5 55t-59.5 16q-42 0 -72.5 -17t-49.5 -44v-358h-138v519h130l6 -78h2q21 38 62 63t104 25z" />
    <glyph glyph-name="Omacron" unicode="&#x14c;" horiz-adv-x="775" 
d="M387 -10q-74 0 -138 23.5t-111 70t-74.5 115t-27.5 158.5t27.5 158.5t74.5 115.5t111 71t138 24t138 -23.5t111.5 -69.5t75 -114t27.5 -158t-27.5 -159t-75 -116t-111.5 -71.5t-138 -24.5zM387 109q44 0 81 13.5t64 43t42.5 77t15.5 115.5t-15.5 115.5t-42.5 77t-64 43
t-81 13.5q-43 0 -80 -13.5t-64 -43t-42.5 -77t-15.5 -115.5t15.5 -115.5t42.5 -77t64 -43t80 -13.5zM207 896h361v-100h-361v100z" />
    <glyph glyph-name="omacron" unicode="&#x14d;" horiz-adv-x="589" 
d="M293 -10q-56 0 -103.5 17.5t-83 52t-55.5 85t-20 115.5t20 115.5t55.5 84.5t83 51.5t103.5 17.5t104.5 -17.5t84 -51.5t56 -84.5t20.5 -115.5t-20.5 -115.5t-56 -85t-84 -52t-104.5 -17.5zM293 101q54 0 88 39t34 120q0 80 -34 119t-88 39q-51 0 -85.5 -39t-34.5 -119
q0 -81 34.5 -120t85.5 -39zM131 695h327v-97h-327v97z" />
    <glyph glyph-name="Obreve" unicode="&#x14e;" horiz-adv-x="775" 
d="M387 -10q-74 0 -138 23.5t-111 70t-74.5 115t-27.5 158.5t27.5 158.5t74.5 115.5t111 71t138 24t138 -23.5t111.5 -69.5t75 -114t27.5 -158t-27.5 -159t-75 -116t-111.5 -71.5t-138 -24.5zM387 109q44 0 81 13.5t64 43t42.5 77t15.5 115.5t-15.5 115.5t-42.5 77t-64 43
t-81 13.5q-43 0 -80 -13.5t-64 -43t-42.5 -77t-15.5 -115.5t15.5 -115.5t42.5 -77t64 -43t80 -13.5zM389 765q-44 0 -76.5 13t-54 35t-32 51.5t-10.5 62.5h106q0 -32 17.5 -49.5t49.5 -17.5q65 0 65 67h108q0 -33 -10.5 -62.5t-32.5 -51.5t-54.5 -35t-75.5 -13z" />
    <glyph glyph-name="obreve" unicode="&#x14f;" horiz-adv-x="589" 
d="M293 -10q-56 0 -103.5 17.5t-83 52t-55.5 85t-20 115.5t20 115.5t55.5 84.5t83 51.5t103.5 17.5t104.5 -17.5t84 -51.5t56 -84.5t20.5 -115.5t-20.5 -115.5t-56 -85t-84 -52t-104.5 -17.5zM293 101q54 0 88 39t34 120q0 80 -34 119t-88 39q-51 0 -85.5 -39t-34.5 -119
q0 -81 34.5 -120t85.5 -39zM295 577q-42 0 -73.5 12.5t-51.5 33.5t-30 49t-10 59h102q0 -30 16.5 -46t46.5 -16q61 0 61 62h103q0 -31 -10 -59t-30 -49t-51 -33.5t-73 -12.5z" />
    <glyph glyph-name="Ohungarumlaut" unicode="&#x150;" horiz-adv-x="775" 
d="M387 -10q-74 0 -138 23.5t-111 70t-74.5 115t-27.5 158.5t27.5 158.5t74.5 115.5t111 71t138 24t138 -23.5t111.5 -69.5t75 -114t27.5 -158t-27.5 -159t-75 -116t-111.5 -71.5t-138 -24.5zM387 109q44 0 81 13.5t64 43t42.5 77t15.5 115.5t-15.5 115.5t-42.5 77t-64 43
t-81 13.5q-43 0 -80 -13.5t-64 -43t-42.5 -77t-15.5 -115.5t15.5 -115.5t42.5 -77t64 -43t80 -13.5zM228 777l45 136h143l-90 -136h-98zM422 777l45 136h143l-90 -136h-98z" />
    <glyph glyph-name="ohungarumlaut" unicode="&#x151;" horiz-adv-x="589" 
d="M293 -10q-56 0 -103.5 17.5t-83 52t-55.5 85t-20 115.5t20 115.5t55.5 84.5t83 51.5t103.5 17.5t104.5 -17.5t84 -51.5t56 -84.5t20.5 -115.5t-20.5 -115.5t-56 -85t-84 -52t-104.5 -17.5zM293 101q54 0 88 39t34 120q0 80 -34 119t-88 39q-51 0 -85.5 -39t-34.5 -119
q0 -81 34.5 -120t85.5 -39zM155 588l57 158h127l-85 -158h-99zM326 588l57 158h127l-84 -158h-100z" />
    <glyph glyph-name="OE" unicode="&#x152;" horiz-adv-x="1027" 
d="M36 369q0 96 29.5 162.5t80.5 107.5t121 59.5t151 18.5h551v-120h-335v-167h283v-119h-283v-192h340v-119h-551q-84 0 -154.5 22.5t-122.5 68t-81 115t-29 163.5zM491 119v478h-80q-49 0 -90.5 -11.5t-71.5 -39t-47 -72t-17 -110.5t17 -113t48.5 -76t74.5 -42.5t96 -13.5
h70z" />
    <glyph glyph-name="oe" unicode="&#x153;" horiz-adv-x="954" 
d="M895 34q-12 -7 -27.5 -14.5t-36 -14t-48 -11t-63.5 -4.5q-86 0 -143.5 24.5t-90.5 72.5q-32 -48 -83.5 -72.5t-115.5 -24.5q-53 0 -100 17.5t-81.5 52t-54.5 85t-20 115.5t20 115.5t54.5 84.5t81.5 51.5t100 17.5q65 0 116 -24.5t84 -72.5q32 47 83 72t117 25
q57 0 104 -19.5t78 -57.5t43.5 -95.5t0.5 -133.5h-353q7 -61 43.5 -91.5t117.5 -30.5q64 0 104.5 13.5t69.5 29.5v-110zM682 423q-46 0 -77 -27t-42 -79h216q2 55 -23.5 80.5t-73.5 25.5zM293 101q54 0 88 39t34 120t-34 120t-88 39q-51 0 -85.5 -39t-34.5 -120t34.5 -120
t85.5 -39z" />
    <glyph glyph-name="Racute" unicode="&#x154;" horiz-adv-x="666" 
d="M71 717h253q143 0 214 -52t71 -169q0 -86 -38 -134t-106 -68l176 -294h-165l-165 277h-97v-277h-143v717zM214 597v-207h109q68 0 105 23.5t37 83.5q0 56 -35.5 78t-105.5 22h-110zM326 913h171l-127 -136h-125z" />
    <glyph glyph-name="racute" unicode="&#x155;" horiz-adv-x="399" 
d="M373 388q-57 5 -103 -10.5t-72 -49.5v-328h-138v519h129l7 -105h2q28 51 72.5 81t102.5 34v-141v0zM235 746h147l-128 -158h-101z" />
    <glyph glyph-name="uni0156" unicode="&#x156;" horiz-adv-x="666" 
d="M71 717h253q143 0 214 -52t71 -169q0 -86 -38 -134t-106 -68l176 -294h-165l-165 277h-97v-277h-143v717zM214 597v-207h109q68 0 105 23.5t37 83.5q0 56 -35.5 78t-105.5 22h-110zM411 -120q0 -39 -20.5 -70.5t-44.5 -54.5h-84q17 15 30.5 31.5t24.5 37.5
q-22 5 -35.5 22t-13.5 43q0 28 18.5 47.5t49.5 19.5q32 0 53.5 -19t21.5 -57z" />
    <glyph glyph-name="uni0157" unicode="&#x157;" horiz-adv-x="399" 
d="M373 388q-57 5 -103 -10.5t-72 -49.5v-328h-138v519h129l7 -105h2q28 51 72.5 81t102.5 34v-141v0zM202 -120q0 -39 -20.5 -70.5t-44.5 -54.5h-84q17 15 30.5 31.5t24.5 37.5q-22 5 -35.5 22t-13.5 43q0 28 18.5 47.5t49.5 19.5q32 0 53.5 -19t21.5 -57z" />
    <glyph glyph-name="Rcaron" unicode="&#x158;" horiz-adv-x="666" 
d="M71 717h253q143 0 214 -52t71 -169q0 -86 -38 -134t-106 -68l176 -294h-165l-165 277h-97v-277h-143v717zM214 597v-207h109q68 0 105 23.5t37 83.5q0 56 -35.5 78t-105.5 22h-110zM387 774h-143l-108 148h107l73 -74l71 74h107z" />
    <glyph glyph-name="rcaron" unicode="&#x159;" horiz-adv-x="399" 
d="M373 388q-57 5 -103 -10.5t-72 -49.5v-328h-138v519h129l7 -105h2q28 51 72.5 81t102.5 34v-141v0zM278 588h-143l-101 148h108l65 -71l63 71h108z" />
    <glyph glyph-name="Sacute" unicode="&#x15a;" horiz-adv-x="594" 
d="M279 -10q-44 0 -79.5 6t-64 15t-50 20.5t-37.5 22.5v120q16 -12 40.5 -23.5t54.5 -20.5t64 -15t69 -6q67 0 107 18t40 66q0 26 -11 43t-31 28t-48.5 19t-62.5 16q-39 9 -79.5 23t-72.5 38t-52.5 61.5t-20.5 95.5q0 51 20 90.5t57 65.5t89.5 39.5t117.5 13.5
q77 0 123.5 -14.5t70.5 -28.5v-120q-32 20 -79 32t-109 12q-75 0 -111 -20.5t-36 -59.5q0 -24 11.5 -39.5t30.5 -25.5t44.5 -16.5t54.5 -13.5q42 -10 84.5 -23t76.5 -37t55.5 -62.5t21.5 -99.5q0 -65 -24.5 -107t-64.5 -67.5t-92 -35.5t-107 -10zM312 913h171l-127 -136
h-125z" />
    <glyph glyph-name="sacute" unicode="&#x15b;" horiz-adv-x="476" 
d="M234 -10q-38 0 -69 6t-55.5 15t-41.5 19t-27 18v102q10 -9 27 -19t40.5 -18.5t53.5 -14t66 -5.5q54 0 74 15t20 39q0 19 -10 29.5t-26.5 16t-37.5 8.5t-44 8q-29 6 -58.5 15.5t-53 26.5t-38.5 44.5t-15 69.5q0 77 56 120.5t160 43.5q60 0 102 -13t60 -26v-102
q-22 15 -59.5 27t-96.5 12q-55 0 -76.5 -13t-21.5 -38q0 -17 9.5 -26t25.5 -14t36.5 -7.5t42.5 -5.5q29 -5 59 -13.5t54.5 -26.5t40 -47.5t15.5 -74.5q0 -48 -18 -80.5t-48 -53t-68 -29t-78 -8.5zM250 746h147l-128 -158h-101z" />
    <glyph glyph-name="Scircumflex" unicode="&#x15c;" horiz-adv-x="594" 
d="M279 -10q-44 0 -79.5 6t-64 15t-50 20.5t-37.5 22.5v120q16 -12 40.5 -23.5t54.5 -20.5t64 -15t69 -6q67 0 107 18t40 66q0 26 -11 43t-31 28t-48.5 19t-62.5 16q-39 9 -79.5 23t-72.5 38t-52.5 61.5t-20.5 95.5q0 51 20 90.5t57 65.5t89.5 39.5t117.5 13.5
q77 0 123.5 -14.5t70.5 -28.5v-120q-32 20 -79 32t-109 12q-75 0 -111 -20.5t-36 -59.5q0 -24 11.5 -39.5t30.5 -25.5t44.5 -16.5t54.5 -13.5q42 -10 84.5 -23t76.5 -37t55.5 -62.5t21.5 -99.5q0 -65 -24.5 -107t-64.5 -67.5t-92 -35.5t-107 -10zM300 849l-73 -75h-107
l108 148h143l107 -148h-107z" />
    <glyph glyph-name="scircumflex" unicode="&#x15d;" horiz-adv-x="476" 
d="M234 -10q-38 0 -69 6t-55.5 15t-41.5 19t-27 18v102q10 -9 27 -19t40.5 -18.5t53.5 -14t66 -5.5q54 0 74 15t20 39q0 19 -10 29.5t-26.5 16t-37.5 8.5t-44 8q-29 6 -58.5 15.5t-53 26.5t-38.5 44.5t-15 69.5q0 77 56 120.5t160 43.5q60 0 102 -13t60 -26v-102
q-22 15 -59.5 27t-96.5 12q-55 0 -76.5 -13t-21.5 -38q0 -17 9.5 -26t25.5 -14t36.5 -7.5t42.5 -5.5q29 -5 59 -13.5t54.5 -26.5t40 -47.5t15.5 -74.5q0 -48 -18 -80.5t-48 -53t-68 -29t-78 -8.5zM230 660l-65 -72h-108l101 148h143l100 -148h-108z" />
    <glyph glyph-name="uni015E" unicode="&#x15e;" horiz-adv-x="594" 
d="M279 -10q-44 0 -79.5 6t-64 15t-50 20.5t-37.5 22.5v120q16 -12 40.5 -23.5t54.5 -20.5t64 -15t69 -6q67 0 107 18t40 66q0 26 -11 43t-31 28t-48.5 19t-62.5 16q-39 9 -79.5 23t-72.5 38t-52.5 61.5t-20.5 95.5q0 51 20 90.5t57 65.5t89.5 39.5t117.5 13.5
q77 0 123.5 -14.5t70.5 -28.5v-120q-32 20 -79 32t-109 12q-75 0 -111 -20.5t-36 -59.5q0 -24 11.5 -39.5t30.5 -25.5t44.5 -16.5t54.5 -13.5q42 -10 84.5 -23t76.5 -37t55.5 -62.5t21.5 -99.5q0 -65 -24.5 -107t-64.5 -67.5t-92 -35.5t-107 -10zM371 20l-58 -207h-141
l92 207h107z" />
    <glyph glyph-name="uni015F" unicode="&#x15f;" horiz-adv-x="476" 
d="M234 -10q-38 0 -69 6t-55.5 15t-41.5 19t-27 18v102q10 -9 27 -19t40.5 -18.5t53.5 -14t66 -5.5q54 0 74 15t20 39q0 19 -10 29.5t-26.5 16t-37.5 8.5t-44 8q-29 6 -58.5 15.5t-53 26.5t-38.5 44.5t-15 69.5q0 77 56 120.5t160 43.5q60 0 102 -13t60 -26v-102
q-22 15 -59.5 27t-96.5 12q-55 0 -76.5 -13t-21.5 -38q0 -17 9.5 -26t25.5 -14t36.5 -7.5t42.5 -5.5q29 -5 59 -13.5t54.5 -26.5t40 -47.5t15.5 -74.5q0 -48 -18 -80.5t-48 -53t-68 -29t-78 -8.5zM306 20l-58 -207h-141l92 207h107z" />
    <glyph glyph-name="Scaron" unicode="&#x160;" horiz-adv-x="594" 
d="M271 -10q-44 0 -79.5 6t-64 15t-50 20.5t-37.5 22.5v120q16 -12 40.5 -23.5t54.5 -20.5t64 -15t69 -6q67 0 107 18t40 66q0 26 -11 43t-31 28t-48.5 19t-62.5 16q-39 9 -79.5 23t-72.5 38t-52.5 61.5t-20.5 95.5q0 51 20 90.5t57 65.5t89.5 39.5t117.5 13.5
q77 0 123.5 -14.5t70.5 -28.5v-120q-32 20 -79 32t-109 12q-75 0 -111 -20.5t-36 -59.5q0 -24 11.5 -39.5t30.5 -25.5t44.5 -16.5t54.5 -13.5q42 -10 84.5 -23t76.5 -37t55.5 -62.5t21.5 -99.5q0 -65 -24.5 -107t-64.5 -67.5t-92 -35.5t-107 -10zM369 774h-143l-108 148h107
l73 -74l71 74h107z" />
    <glyph glyph-name="scaron" unicode="&#x161;" horiz-adv-x="476" 
d="M229 -10q-38 0 -69 6t-55.5 15t-41.5 19t-27 18v102q10 -9 27 -19t40.5 -18.5t53.5 -14t66 -5.5q54 0 74 15t20 39q0 19 -10 29.5t-26.5 16t-37.5 8.5t-44 8q-29 6 -58.5 15.5t-53 26.5t-38.5 44.5t-15 69.5q0 77 56 120.5t160 43.5q60 0 102 -13t60 -26v-102
q-22 15 -59.5 27t-96.5 12q-55 0 -76.5 -13t-21.5 -38q0 -17 9.5 -26t25.5 -14t36.5 -7.5t42.5 -5.5q29 -5 59 -13.5t54.5 -26.5t40 -47.5t15.5 -74.5q0 -48 -18 -80.5t-48 -53t-68 -29t-78 -8.5zM310 588h-143l-101 148h108l65 -71l63 71h108z" />
    <glyph glyph-name="Tcommaaccent" unicode="&#x162;" horiz-adv-x="613" 
d="M378 597v-597h-143v597h-215v120h573v-120h-215zM378 -120q0 -39 -20.5 -70.5t-44.5 -54.5h-84q17 15 30.5 31.5t24.5 37.5q-22 5 -35.5 22t-13.5 43q0 28 18.5 47.5t49.5 19.5q32 0 53.5 -19t21.5 -57z" />
    <glyph glyph-name="tcommaaccent" unicode="&#x163;" horiz-adv-x="400" 
d="M359 20q-20 -13 -48.5 -21.5t-70.5 -8.5q-45 0 -75 12.5t-48.5 33.5t-26.5 49.5t-8 61.5v263h-62v109h62v109h138v-109h147v-109h-147v-248q0 -31 14 -46t46 -15q27 0 46 8.5t33 20.5v-110v0zM278 -120q0 -39 -20.5 -70.5t-44.5 -54.5h-84q17 15 30.5 31.5t24.5 37.5
q-22 5 -35.5 22t-13.5 43q0 28 18.5 47.5t49.5 19.5q32 0 53.5 -19t21.5 -57z" />
    <glyph glyph-name="Tcaron" unicode="&#x164;" horiz-adv-x="613" 
d="M378 597v-597h-143v597h-215v120h573v-120h-215zM378 774h-143l-108 148h107l73 -74l71 74h107z" />
    <glyph glyph-name="tcaron" unicode="&#x165;" horiz-adv-x="400" 
d="M359 20q-20 -13 -48.5 -21.5t-70.5 -8.5q-45 0 -75 12.5t-48.5 33.5t-26.5 49.5t-8 61.5v263h-62v109h62v109h138v-109h147v-109h-147v-248q0 -31 14 -46t46 -15q27 0 46 8.5t33 20.5v-110v0zM275.645 548.671l18.3682 167.763h123.742l-56.0713 -167.763h-86.0391z" />
    <glyph glyph-name="Tbar" unicode="&#x166;" horiz-adv-x="586" 
d="M86 439h149v158h-215v120h573v-120h-215v-158h149v-105h-149v-334h-143v334h-149v105z" />
    <glyph glyph-name="tbar" unicode="&#x167;" horiz-adv-x="398" 
d="M359 20q-20 -13 -48.5 -21.5t-70.5 -8.5q-45 0 -75 12.5t-48.5 33.5t-26.5 49.5t-8 61.5v87h-62v97h62v79h-62v109h62v109h138v-109h147v-109h-147v-79h147v-97h-147v-72q0 -31 14 -46t46 -15q27 0 46 8.5t33 20.5v-110z" />
    <glyph glyph-name="Utilde" unicode="&#x168;" horiz-adv-x="683" 
d="M55 717h144v-455q0 -78 41.5 -115.5t111.5 -37.5t110.5 37.5t40.5 115.5v455h127v-463q0 -63 -20 -112.5t-57 -83t-89.5 -51t-116.5 -17.5q-63 0 -116.5 16.5t-92.5 49t-61 81t-22 112.5v468zM169 771q-7 33 -3.5 61.5t16.5 49.5t35.5 33t53.5 12q26 0 46.5 -7t37.5 -15
t31.5 -15t29.5 -7q21 0 30.5 11.5t7.5 38.5h83q7 -33 3.5 -61.5t-16.5 -49.5t-35.5 -33t-53.5 -12q-26 0 -46 7t-37 15t-32 15t-31 7q-20 0 -29 -11t-7 -39h-84v0z" />
    <glyph glyph-name="utilde" unicode="&#x169;" horiz-adv-x="587" 
d="M389 78q-21 -37 -60.5 -62.5t-104.5 -25.5q-37 0 -68 10.5t-53.5 32.5t-35 54t-12.5 76v356h140v-350q0 -40 22.5 -54t54.5 -14q42 0 70 16.5t47 43.5v358h137v-519h-128l-7 78h-2v0zM122 587q-4 26 0 51.5t16.5 45.5t33.5 32t51 12q23 0 41 -6.5t33.5 -14.5t29.5 -14.5
t29 -6.5q16 0 24 10t6 38h73q4 -27 0 -52.5t-16.5 -45.5t-33.5 -32t-51 -12q-23 0 -41 6.5t-33.5 14.5t-29.5 14.5t-29 6.5q-16 0 -24 -9.5t-6 -37.5h-73v0z" />
    <glyph glyph-name="Umacron" unicode="&#x16a;" horiz-adv-x="683" 
d="M55 717h144v-455q0 -78 41.5 -115.5t111.5 -37.5t110.5 37.5t40.5 115.5v455h127v-463q0 -63 -20 -112.5t-57 -83t-89.5 -51t-116.5 -17.5q-63 0 -116.5 16.5t-92.5 49t-61 81t-22 112.5v468zM171 896h361v-100h-361v100z" />
    <glyph glyph-name="umacron" unicode="&#x16b;" horiz-adv-x="587" 
d="M389 78q-21 -37 -60.5 -62.5t-104.5 -25.5q-37 0 -68 10.5t-53.5 32.5t-35 54t-12.5 76v356h140v-350q0 -40 22.5 -54t54.5 -14q42 0 70 16.5t47 43.5v358h137v-519h-128l-7 78h-2v0zM126 695h327v-97h-327v97z" />
    <glyph glyph-name="Ubreve" unicode="&#x16c;" horiz-adv-x="683" 
d="M55 717h144v-455q0 -78 41.5 -115.5t111.5 -37.5t110.5 37.5t40.5 115.5v455h127v-463q0 -63 -20 -112.5t-57 -83t-89.5 -51t-116.5 -17.5q-63 0 -116.5 16.5t-92.5 49t-61 81t-22 112.5v468zM353 765q-44 0 -76.5 13t-54 35t-32 51.5t-10.5 62.5h106q0 -32 17.5 -49.5
t49.5 -17.5q65 0 65 67h108q0 -33 -10.5 -62.5t-32.5 -51.5t-54.5 -35t-75.5 -13z" />
    <glyph glyph-name="ubreve" unicode="&#x16d;" horiz-adv-x="587" 
d="M389 78q-21 -37 -60.5 -62.5t-104.5 -25.5q-37 0 -68 10.5t-53.5 32.5t-35 54t-12.5 76v356h140v-350q0 -40 22.5 -54t54.5 -14q42 0 70 16.5t47 43.5v358h137v-519h-128l-7 78h-2v0zM289 577q-42 0 -73.5 12.5t-51.5 33.5t-30 49t-10 59h102q0 -30 16.5 -46t46.5 -16
q61 0 61 62h103q0 -31 -10 -59t-30 -49t-51 -33.5t-73 -12.5z" />
    <glyph glyph-name="Uring" unicode="&#x16e;" horiz-adv-x="683" 
d="M55 717h144v-455q0 -78 41.5 -115.5t111.5 -37.5t110.5 37.5t40.5 115.5v455h127v-463q0 -63 -20 -112.5t-57 -83t-89.5 -51t-116.5 -17.5q-63 0 -116.5 16.5t-92.5 49t-61 81t-22 112.5v468zM352 737q-27 0 -50 9.5t-40 26t-27 39.5t-10 51q0 27 10 50.5t27 40t40 26
t50 9.5t50 -9.5t40 -26t27 -40t10 -50.5q0 -28 -10 -51t-27 -39.5t-40 -26t-50 -9.5zM352 812q22 0 36 14t14 37t-14 37.5t-36 14.5t-35.5 -14.5t-13.5 -37.5t13.5 -37t35.5 -14z" />
    <glyph glyph-name="uring" unicode="&#x16f;" horiz-adv-x="587" 
d="M389 78q-21 -37 -60.5 -62.5t-104.5 -25.5q-37 0 -68 10.5t-53.5 32.5t-35 54t-12.5 76v356h140v-350q0 -40 22.5 -54t54.5 -14q42 0 70 16.5t47 43.5v358h137v-519h-128l-7 78h-2v0zM291 569q-27 0 -50 9.5t-40 26t-27 40t-10 50.5q0 28 10 51t27 39.5t40 26t50 9.5
t50 -9.5t40 -26t27 -39.5t10 -51q0 -27 -10 -50.5t-27 -40t-40 -26t-50 -9.5zM291 645q22 0 36 13.5t14 36.5t-14 37.5t-36 14.5t-35.5 -14.5t-13.5 -37.5t13.5 -36.5t35.5 -13.5z" />
    <glyph glyph-name="Uhungarumlaut" unicode="&#x170;" horiz-adv-x="683" 
d="M55 717h144v-455q0 -78 41.5 -115.5t111.5 -37.5t110.5 37.5t40.5 115.5v455h127v-463q0 -63 -20 -112.5t-57 -83t-89.5 -51t-116.5 -17.5q-63 0 -116.5 16.5t-92.5 49t-61 81t-22 112.5v468zM192 777l45 136h143l-90 -136h-98zM386 777l45 136h143l-90 -136h-98z" />
    <glyph glyph-name="uhungarumlaut" unicode="&#x171;" horiz-adv-x="587" 
d="M389 78q-21 -37 -60.5 -62.5t-104.5 -25.5q-37 0 -68 10.5t-53.5 32.5t-35 54t-12.5 76v356h140v-350q0 -40 22.5 -54t54.5 -14q42 0 70 16.5t47 43.5v358h137v-519h-128l-7 78h-2v0zM153 588l57 158h127l-85 -158h-99zM324 588l57 158h127l-84 -158h-100z" />
    <glyph glyph-name="Uogonek" unicode="&#x172;" horiz-adv-x="683" 
d="M55 717h144v-455q0 -78 41.5 -115.5t111.5 -37.5t110.5 37.5t40.5 115.5v455h127v-463q0 -63 -20 -112.5t-57 -83t-89.5 -51t-116.5 -17.5q-63 0 -116.5 16.5t-92.5 49t-61 81t-22 112.5v468zM389 -189q-59 0 -91 24t-32 66q0 21 8 37t20.5 28t27.5 20.5t29 13.5h87
q-22 -9 -40.5 -24t-18.5 -43q0 -43 43 -43q19 0 35 8v-75q-7 -4 -25 -8t-43 -4z" />
    <glyph glyph-name="uogonek" unicode="&#x173;" horiz-adv-x="587" 
d="M544 -177q-8 -4 -25 -8t-43 -4q-59 0 -90.5 27.5t-31.5 72.5q0 31 15 53t35 36h-6l-7 78h-2q-21 -37 -60.5 -62.5t-104.5 -25.5q-37 0 -68 10.5t-53.5 32.5t-35 54t-12.5 76v356h140v-350q0 -40 22.5 -54t54.5 -14q42 0 70 16.5t47 43.5v358h137v-519q-23 -9 -41.5 -24
t-18.5 -43q0 -43 44 -43q18 0 34 8v-75v0z" />
    <glyph glyph-name="Wcircumflex" unicode="&#x174;" horiz-adv-x="989" 
d="M818 0h-187l-137 511l-136 -511h-187l-152 717h146l112 -564l153 564h144l152 -557l117 557h127zM501 849l-73 -75h-107l108 148h143l107 -148h-107z" />
    <glyph glyph-name="wcircumflex" unicode="&#x175;" horiz-adv-x="825" 
d="M693 0h-191l-90 349l-90 -349h-190l-110 519h139l79 -400l110 400h138l107 -401l80 401h128zM416 660l-65 -72h-108l101 148h143l100 -148h-108z" />
    <glyph glyph-name="Ycircumflex" unicode="&#x176;" horiz-adv-x="614" 
d="M380 303v-303h-144v302l-233 415h158l156 -291l161 291h133zM316 849l-73 -75h-107l108 148h143l107 -148h-107z" />
    <glyph glyph-name="ycircumflex" unicode="&#x177;" horiz-adv-x="554" 
d="M359 6q-17 -47 -36 -83t-44.5 -60.5t-60.5 -37t-84 -12.5q-30 0 -53 4.5t-45 14.5v120q17 -12 41.5 -19.5t53.5 -7.5q32 0 52 11.5t34 34.5l-207 548h147l130 -375l127 375h127l-182 -513v0zM286 660l-65 -72h-108l101 148h143l100 -148h-108z" />
    <glyph glyph-name="Ydieresis" unicode="&#x178;" horiz-adv-x="614" 
d="M380 303v-303h-144v302l-233 415h158l156 -291l161 291h133zM194 776q-35 0 -59 24t-24 57q0 35 24 58.5t59 23.5q37 0 61.5 -23.5t24.5 -58.5q0 -33 -24.5 -57t-61.5 -24zM435 776q-18 0 -33.5 6.5t-27 17.5t-18 25.5t-6.5 31.5t6.5 32t18 26t27 17.5t33.5 6.5
t33.5 -6.5t27 -17.5t18 -26t6.5 -32t-6.5 -31.5t-18 -25.5t-27 -17.5t-33.5 -6.5z" />
    <glyph glyph-name="Zacute" unicode="&#x179;" horiz-adv-x="622" 
d="M583 0h-547v106l371 491h-360v120h535v-107l-372 -491h373v-119zM324 913h171l-127 -136h-125z" />
    <glyph glyph-name="zacute" unicode="&#x17a;" horiz-adv-x="489" 
d="M457 0h-423v95l252 318h-244v106h414v-87l-253 -325h254v-107zM269 746h147l-128 -158h-101z" />
    <glyph glyph-name="Zdotaccent" unicode="&#x17b;" horiz-adv-x="622" 
d="M583 0h-547v106l371 491h-360v120h535v-107l-372 -491h373v-119zM311 776q-17 0 -32.5 6.5t-27 17.5t-18 25.5t-6.5 31.5q0 35 24.5 58.5t59.5 23.5q18 0 33.5 -6.5t27 -17.5t18 -26t6.5 -32t-6.5 -31.5t-18 -25.5t-27 -17.5t-33.5 -6.5z" />
    <glyph glyph-name="zdotaccent" unicode="&#x17c;" horiz-adv-x="489" 
d="M457 0h-423v95l252 318h-244v106h414v-87l-253 -325h254v-107zM244 577q-35 0 -59.5 24t-24.5 58t24.5 57.5t59.5 23.5q18 0 33.5 -6.5t27 -17.5t18 -25.5t6.5 -31.5t-6.5 -32t-18 -26t-27 -17.5t-33.5 -6.5z" />
    <glyph glyph-name="Zcaron" unicode="&#x17d;" horiz-adv-x="622" 
d="M583 0h-547v106l371 491h-360v120h535v-107l-372 -491h373v-119zM385 774h-143l-108 148h107l73 -74l71 74h107z" />
    <glyph glyph-name="zcaron" unicode="&#x17e;" horiz-adv-x="489" 
d="M457 0h-423v95l252 318h-244v106h414v-87l-253 -325h254v-107zM319 588h-143l-101 148h108l65 -71l63 71h108z" />
    <glyph glyph-name="uni0192" unicode="&#x192;" 
d="M299 16q-17 -107 -75 -155t-144 -48q-45 0 -64 7v111q8 -2 28 -4.5t36 -2.5q42 0 61 23.5t26 70.5l56 329h-74l21 104h71l12 72q17 107 75 155t147 48q21 0 36.5 -2t23.5 -4v-113q-8 3 -28 5t-36 2q-42 0 -60.5 -22.5t-26.5 -68.5l-12 -72h120l-21 -104h-117l-55 -331v0z
" />
    <glyph glyph-name="uni0218" unicode="&#x218;" horiz-adv-x="594" 
d="M271 -10q-44 0 -79.5 6t-64 15t-50 20.5t-37.5 22.5v120q16 -12 40.5 -23.5t54.5 -20.5t64 -15t69 -6q67 0 107 18t40 66q0 26 -11 43t-31 28t-48.5 19t-62.5 16q-39 9 -79.5 23t-72.5 38t-52.5 61.5t-20.5 95.5q0 51 20 90.5t57 65.5t89.5 39.5t117.5 13.5
q77 0 123.5 -14.5t70.5 -28.5v-120q-32 20 -79 32t-109 12q-75 0 -111 -20.5t-36 -59.5q0 -24 11.5 -39.5t30.5 -25.5t44.5 -16.5t54.5 -13.5q42 -10 84.5 -23t76.5 -37t55.5 -62.5t21.5 -99.5q0 -65 -24.5 -107t-64.5 -67.5t-92 -35.5t-107 -10zM372 -120
q0 -39 -20.5 -70.5t-44.5 -54.5h-84q17 15 30.5 31.5t24.5 37.5q-22 5 -35.5 22t-13.5 43q0 28 18.5 47.5t49.5 19.5q32 0 53.5 -19t21.5 -57z" />
    <glyph glyph-name="uni0219" unicode="&#x219;" horiz-adv-x="476" 
d="M234 -10q-38 0 -69 6t-55.5 15t-41.5 19t-27 18v102q10 -9 27 -19t40.5 -18.5t53.5 -14t66 -5.5q54 0 74 15t20 39q0 19 -10 29.5t-26.5 16t-37.5 8.5t-44 8q-29 6 -58.5 15.5t-53 26.5t-38.5 44.5t-15 69.5q0 77 56 120.5t160 43.5q60 0 102 -13t60 -26v-102
q-22 15 -59.5 27t-96.5 12q-55 0 -76.5 -13t-21.5 -38q0 -17 9.5 -26t25.5 -14t36.5 -7.5t42.5 -5.5q29 -5 59 -13.5t54.5 -26.5t40 -47.5t15.5 -74.5q0 -48 -18 -80.5t-48 -53t-68 -29t-78 -8.5zM316 -120q0 -39 -20.5 -70.5t-44.5 -54.5h-84q17 15 30.5 31.5t24.5 37.5
q-22 5 -35.5 22t-13.5 43q0 28 18.5 47.5t49.5 19.5q32 0 53.5 -19t21.5 -57z" />
    <glyph glyph-name="uni021A" unicode="&#x21a;" horiz-adv-x="613" 
d="M378 597v-597h-143v597h-215v120h573v-120h-215zM378 -120q0 -39 -20.5 -70.5t-44.5 -54.5h-84q17 15 30.5 31.5t24.5 37.5q-22 5 -35.5 22t-13.5 43q0 28 18.5 47.5t49.5 19.5q32 0 53.5 -19t21.5 -57z" />
    <glyph glyph-name="uni021B" unicode="&#x21b;" horiz-adv-x="400" 
d="M359 20q-20 -13 -48.5 -21.5t-70.5 -8.5q-45 0 -75 12.5t-48.5 33.5t-26.5 49.5t-8 61.5v263h-62v109h62v109h138v-109h147v-109h-147v-248q0 -31 14 -46t46 -15q27 0 46 8.5t33 20.5v-110v0zM278 -120q0 -39 -20.5 -70.5t-44.5 -54.5h-84q17 15 30.5 31.5t24.5 37.5
q-22 5 -35.5 22t-13.5 43q0 28 18.5 47.5t49.5 19.5q32 0 53.5 -19t21.5 -57z" />
    <glyph glyph-name="uni0237" unicode="&#x237;" horiz-adv-x="273" 
d="M213 -20q0 -78 -47 -122.5t-135 -44.5q-26 0 -50.5 4.5t-47.5 16.5v112q25 -23 69 -23q41 0 57 20.5t16 50.5v525h138v-539z" />
    <glyph glyph-name="uni02BC" unicode="&#x2bc;" horiz-adv-x="254" 
d="M216 629q0 -26 -7.5 -50.5t-20 -46t-28.5 -40.5t-32 -33h-93q23 22 41 48.5t27 62.5q-32 8 -45.5 29t-13.5 46q0 34 22.5 57t62.5 23q39 0 63 -25t24 -71z" />
    <glyph glyph-name="circumflex" unicode="&#x2c6;" horiz-adv-x="441" 
d="M221 660l-65 -72h-108l101 148h143l100 -148h-108z" />
    <glyph glyph-name="caron" unicode="&#x2c7;" horiz-adv-x="441" 
d="M292 588h-143l-101 148h108l65 -71l63 71h108z" />
    <glyph glyph-name="breve" unicode="&#x2d8;" horiz-adv-x="440" 
d="M220 577q-42 0 -73.5 12.5t-51.5 33.5t-30 49t-10 59h102q0 -30 16.5 -46t46.5 -16q61 0 61 62h103q0 -31 -10 -59t-30 -49t-51 -33.5t-73 -12.5z" />
    <glyph glyph-name="dotaccent" unicode="&#x2d9;" horiz-adv-x="441" 
d="M220 577q-35 0 -59.5 24t-24.5 58t24.5 57.5t59.5 23.5q18 0 33.5 -6.5t27 -17.5t18 -25.5t6.5 -31.5t-6.5 -32t-18 -26t-27 -17.5t-33.5 -6.5z" />
    <glyph glyph-name="ring" unicode="&#x2da;" horiz-adv-x="441" 
d="M220 569q-27 0 -50 9.5t-40 26t-27 40t-10 50.5q0 28 10 51t27 39.5t40 26t50 9.5t50 -9.5t40 -26t27 -39.5t10 -51q0 -27 -10 -50.5t-27 -40t-40 -26t-50 -9.5zM220 645q22 0 36 13.5t14 36.5t-14 37.5t-36 14.5t-35.5 -14.5t-13.5 -37.5t13.5 -36.5t35.5 -13.5z" />
    <glyph glyph-name="ogonek" unicode="&#x2db;" horiz-adv-x="440" 
d="M254 -189q-59 0 -91 24t-32 66q0 21 8 37t20.5 28t27.5 20.5t29 13.5h87q-22 -9 -40.5 -24t-18.5 -43q0 -43 43 -43q19 0 35 8v-75q-7 -4 -25 -8t-43 -4z" />
    <glyph glyph-name="tilde" unicode="&#x2dc;" horiz-adv-x="441" 
d="M52 587q-4 26 0 51.5t16.5 45.5t33.5 32t51 12q23 0 41 -6.5t33.5 -14.5t29.5 -14.5t29 -6.5q16 0 24 10t6 38h73q4 -27 0 -52.5t-16.5 -45.5t-33.5 -32t-51 -12q-23 0 -41 6.5t-33.5 14.5t-29.5 14.5t-29 6.5q-16 0 -24 -9.5t-6 -37.5h-73v0z" />
    <glyph glyph-name="hungarumlaut" unicode="&#x2dd;" horiz-adv-x="441" 
d="M58 588l57 158h127l-85 -158h-99zM229 588l57 158h127l-84 -158h-100z" />
    <glyph glyph-name="acutecomb" unicode="&#x301;" horiz-adv-x="0" 
d="M-231 746h147l-128 -158h-101z" />
    <glyph glyph-name="uni0401" unicode="&#x401;" horiz-adv-x="606" 
d="M415 768q-32 0 -53.5 22t-21.5 53q0 32 21.5 53t53.5 21t54 -21t22 -53q0 -31 -22 -53t-54 -22zM198 768q-32 0 -54 22t-22 53q0 32 22 53t54 21q31 0 52.5 -21t21.5 -53q0 -31 -21.5 -53t-52.5 -22zM71 717h477v-120h-334v-167h282v-119h-282v-192h339v-119h-482v717z
" />
    <glyph glyph-name="uni0402" unicode="&#x402;" horiz-adv-x="829" 
d="M378 597v-190q20 15 55 27q38 14 86 14q61 0 110.5 -18.5t85 -53.5t54.5 -85t19 -114q0 -75 -19 -131.5t-54.5 -95t-86.5 -57.5t-115 -19v119q69 0 100 46.5t31 137.5q0 72 -34 112.5t-111 40.5q-35 0 -67 -11q-30 -9 -54 -24v-295h-143v597h-215v120h573v-120h-215z" />
    <glyph glyph-name="uni0403" unicode="&#x403;" horiz-adv-x="539" 
d="M294 913h171l-127 -136h-125zM71 717h431v-120h-288v-597h-143v717z" />
    <glyph glyph-name="uni0404" unicode="&#x404;" horiz-adv-x="658" 
d="M614 41q-27 -20 -78.5 -35.5t-126.5 -15.5q-86 0 -154.5 25t-117.5 72.5t-75 115.5t-26 155t25.5 155t73.5 115.5t117 72.5t156 25q75 0 125.5 -13.5t79.5 -30.5v-123q-35 22 -86 35t-111 13q-201 0 -230 -186h308v-118h-309q25 -194 234 -194q60 0 109.5 13.5t85.5 38.5
v-120v0z" />
    <glyph glyph-name="uni0405" unicode="&#x405;" horiz-adv-x="593" 
d="M279 -10q-44 0 -79.5 6t-64 15t-50 20.5t-37.5 22.5v120q16 -12 40.5 -23.5t54.5 -20.5t64 -15t69 -6q67 0 107 18t40 66q0 26 -11 43t-31 28t-48.5 19t-62.5 16q-39 9 -79.5 23t-72.5 38t-52.5 61.5t-20.5 95.5q0 51 20 90.5t57 65.5t89.5 39.5t117.5 13.5
q77 0 123.5 -14.5t70.5 -28.5v-120q-32 20 -79 32t-109 12q-75 0 -111 -20.5t-36 -59.5q0 -24 11.5 -39.5t30.5 -25.5t44.5 -16.5t54.5 -13.5q42 -10 84.5 -23t76.5 -37t55.5 -62.5t21.5 -99.5q0 -65 -24.5 -107t-64.5 -67.5t-92 -35.5t-107 -10z" />
    <glyph glyph-name="uni0406" unicode="&#x406;" horiz-adv-x="284" 
d="M214 717v-717h-143v717h143z" />
    <glyph glyph-name="uni0407" unicode="&#x407;" horiz-adv-x="284" 
d="M214 717v-717h-143v717h143zM6 776q-35 0 -59 24t-24 57q0 35 24 58.5t59 23.5q37 0 61.5 -23.5t24.5 -58.5q0 -33 -24.5 -57t-61.5 -24zM247 776q-18 0 -33.5 6.5t-27 17.5t-18 25.5t-6.5 31.5t6.5 32t18 26t27 17.5t33.5 6.5t33.5 -6.5t27 -17.5t18 -26t6.5 -32
t-6.5 -31.5t-18 -25.5t-27 -17.5t-33.5 -6.5z" />
    <glyph glyph-name="uni0408" unicode="&#x408;" horiz-adv-x="405" 
d="M341 717v-554q0 -36 -11.5 -67.5t-35.5 -55t-61 -37t-88 -13.5q-29 0 -59 4.5t-58 16.5v118q24 -11 43 -15.5t41 -4.5q27 0 44.5 6.5t27 18.5t13 29t3.5 38v516h141z" />
    <glyph glyph-name="uni0409" unicode="&#x409;" horiz-adv-x="1029" 
d="M997 241q0 -63 -20.5 -109t-58.5 -75t-92 -43t-120 -14h-235v597h-190q-3 -141 -10.5 -252.5t-30.5 -189t-67.5 -118t-120.5 -40.5h-16.5t-16.5 2v133q5 -1 14 -1q41 0 63.5 31.5t34 101.5t14.5 181.5t5 271.5h464v-251h96q139 0 213 -55t74 -170zM614 348v-229h92
q69 0 107.5 25.5t38.5 90.5q0 113 -143 113h-95z" />
    <glyph glyph-name="uni040A" unicode="&#x40a;" horiz-adv-x="1063" 
d="M1029 238q0 -63 -20.5 -108t-58 -74t-91.5 -42.5t-120 -13.5h-235v340h-290v-340h-143v717h143v-258h290v258h143v-258h96q139 0 212.5 -54.5t73.5 -166.5zM647 340v-221h92q70 0 108 25t38 87q0 109 -143 109h-95z" />
    <glyph glyph-name="uni040B" unicode="&#x40b;" horiz-adv-x="820" 
d="M378 597v-190q19 14 54 27q38 14 94 14q53 0 97 -14t75.5 -44t49 -75.5t17.5 -108.5v-206h-143v194q0 39 -9 65t-25 41.5t-37.5 22.5t-46.5 7q-38 0 -71 -10q-30 -9 -55 -25v-295h-143v597h-215v120h573v-120h-215z" />
    <glyph glyph-name="uni040C" unicode="&#x40c;" horiz-adv-x="671" 
d="M279 291h-65v-291h-143v717h143v-308h71l216 308h149l-252 -358l262 -359h-169zM323 913h171l-127 -136h-125z" />
    <glyph glyph-name="uni040E" unicode="&#x40e;" horiz-adv-x="637" 
d="M413 196q-22 -51 -46 -88.5t-52.5 -62.5t-63 -37t-76.5 -12q-12 0 -24.5 1t-26.5 3v126q8 -1 14.5 -1.5t12.5 -0.5q43 0 71 14t46 37l-261 542h152l180 -384l152 384h142zM329 752q-48 0 -83.5 12.5t-59 34t-35 51t-11.5 64.5h125q0 -38 17 -54t47 -16q28 0 44 16t16 54
h127q0 -35 -11.5 -64.5t-35 -51t-58.5 -34t-82 -12.5z" />
    <glyph glyph-name="uni040F" unicode="&#x40f;" horiz-adv-x="724" 
d="M654 0h-227l-4 -171h-122l-4 171h-226v717h143v-598h296v598h144v-717z" />
    <glyph glyph-name="uni0410" unicode="&#x410;" horiz-adv-x="703" 
d="M265 717h173l252 -717h-144l-61 174h-290l-61 -174h-121zM444 293l-104 296l-103 -296h207z" />
    <glyph glyph-name="uni0411" unicode="&#x411;" horiz-adv-x="638" 
d="M71 717h475v-120h-332v-156h105q136 0 209 -52t73 -160q0 -60 -20 -103.5t-57.5 -71.5t-90.5 -41t-118 -13h-244v717zM214 322v-203h101q67 0 104.5 22.5t37.5 81.5q0 99 -139 99h-104z" />
    <glyph glyph-name="uni0412" unicode="&#x412;" horiz-adv-x="657" 
d="M71 717h246q136 0 207 -40t71 -135q0 -77 -45.5 -116.5t-120.5 -53.5q94 -11 143 -49t49 -116q0 -56 -23 -95.5t-64 -64t-97 -36t-122 -11.5h-244v717zM214 597v-169h118q54 0 87 22t33 69t-30 62.5t-84 15.5h-124zM214 310v-191h122q62 0 100 21t38 76q0 52 -35.5 73
t-111.5 21h-113z" />
    <glyph glyph-name="uni0413" unicode="&#x413;" horiz-adv-x="539" 
d="M71 717h431v-120h-288v-597h-143v717z" />
    <glyph glyph-name="uni0414" unicode="&#x414;" horiz-adv-x="787" 
d="M660 111h95v-282h-122l-9 171h-481l-9 -171h-122v282h51q27 23 45.5 68.5t30 119t18 176.5t10.5 242h493v-606zM516 111v486h-224q-4 -95 -9.5 -170.5t-14 -135t-21 -104t-31.5 -76.5h300z" />
    <glyph glyph-name="uni0415" unicode="&#x415;" horiz-adv-x="606" 
d="M71 717h477v-120h-334v-167h282v-119h-282v-192h339v-119h-482v717z" />
    <glyph glyph-name="uni0416" unicode="&#x416;" horiz-adv-x="974" 
d="M11 -2l254 362l-250 357h147l211 -306h39v306h144v-306h40l215 306h142l-248 -353l256 -364h-162l-210 301h-33v-301h-144v301h-34l-210 -301z" />
    <glyph glyph-name="uni0417" unicode="&#x417;" horiz-adv-x="596" 
d="M169 310v118h107q53 0 84 22.5t31 69.5q0 50 -34.5 69t-94.5 19q-62 0 -118 -13.5t-94 -33.5v119q31 17 87 32t135 15q125 0 193.5 -46.5t68.5 -142.5q0 -35 -10.5 -62t-29.5 -47t-46 -33.5t-59 -20.5q81 -12 126 -53t45 -118q0 -57 -23 -97.5t-62.5 -67t-93.5 -38.5
t-116 -12q-79 0 -135.5 16.5t-87.5 34.5v120q41 -23 100 -37.5t123 -14.5q66 0 107 23.5t41 82.5q0 54 -33.5 75t-105.5 21h-105z" />
    <glyph glyph-name="uni0418" unicode="&#x418;" horiz-adv-x="768" 
d="M71 0v717h143v-508l338 508h146v-717h-145v506l-337 -506h-145z" />
    <glyph glyph-name="uni0419" unicode="&#x419;" horiz-adv-x="768" 
d="M381 752q-48 0 -83.5 12.5t-59 34t-35 51t-11.5 64.5h125q0 -38 17 -54t47 -16q28 0 44 16t16 54h127q0 -35 -11.5 -64.5t-35 -51t-58.5 -34t-82 -12.5zM71 0v717h143v-508l338 508h146v-717h-145v506l-337 -506h-145z" />
    <glyph glyph-name="uni041A" unicode="&#x41a;" horiz-adv-x="671" 
d="M279 291h-65v-291h-143v717h143v-308h71l216 308h149l-252 -358l262 -359h-169z" />
    <glyph glyph-name="uni041B" unicode="&#x41b;" horiz-adv-x="694" 
d="M124 237q14 64 19 184.5t7 295.5h474v-717h-144v597h-199q-3 -141 -10.5 -252.5t-30.5 -189t-67.5 -118t-120.5 -40.5h-16.5t-16.5 2v133q5 -1 14 -1q40 0 61 27.5t30 78.5z" />
    <glyph glyph-name="uni041C" unicode="&#x41c;" horiz-adv-x="878" 
d="M664 505l-172 -395h-127l-167 401v-511h-127v717h187l181 -454l197 454h171v-717h-143v505z" />
    <glyph glyph-name="uni041D" unicode="&#x41d;" horiz-adv-x="737" 
d="M524 297h-310v-297h-143v717h143v-301h310v301h143v-717h-143v297z" />
    <glyph glyph-name="uni041E" unicode="&#x41e;" horiz-adv-x="775" 
d="M387 -10q-74 0 -138 23.5t-111 70t-74.5 115t-27.5 158.5t27.5 158.5t74.5 115.5t111 71t138 24t138 -23.5t111.5 -69.5t75 -114t27.5 -158t-27.5 -159t-75 -116t-111.5 -71.5t-138 -24.5zM387 109q44 0 81 13.5t64 43t42.5 77t15.5 115.5t-15.5 115.5t-42.5 77t-64 43
t-81 13.5q-43 0 -80 -13.5t-64 -43t-42.5 -77t-15.5 -115.5t15.5 -115.5t42.5 -77t64 -43t80 -13.5z" />
    <glyph glyph-name="uni041F" unicode="&#x41f;" horiz-adv-x="720" 
d="M71 717h578v-717h-143v597h-292v-597h-143v717z" />
    <glyph glyph-name="uni0420" unicode="&#x420;" horiz-adv-x="627" 
d="M71 717h238q138 0 213.5 -53t75.5 -171q0 -63 -20.5 -109t-58.5 -75.5t-92 -43.5t-120 -14h-93v-251h-143v717zM214 597v-228h93q70 0 108.5 26.5t38.5 91.5q0 57 -36.5 83.5t-108.5 26.5h-95z" />
    <glyph glyph-name="uni0421" unicode="&#x421;" horiz-adv-x="664" 
d="M407 -10q-85 0 -153.5 25t-117 72.5t-74.5 115.5t-26 155t25.5 155t73.5 115.5t116.5 72.5t155.5 25q75 0 125.5 -13.5t79.5 -30.5v-123q-35 22 -86 35t-111 13q-118 0 -174 -62t-56 -187q0 -249 232 -249q60 0 109.5 13.5t85.5 38.5v-120q-27 -20 -78.5 -35.5
t-126.5 -15.5z" />
    <glyph glyph-name="uni0422" unicode="&#x422;" horiz-adv-x="614" 
d="M378 597v-597h-143v597h-215v120h573v-120h-215z" />
    <glyph glyph-name="uni0423" unicode="&#x423;" horiz-adv-x="637" 
d="M413 196q-22 -51 -46 -88.5t-52.5 -62.5t-63 -37t-76.5 -12q-12 0 -24.5 1t-26.5 3v126q8 -1 14.5 -1.5t12.5 -0.5q43 0 71 14t46 37l-261 542h152l180 -384l152 384h142z" />
    <glyph glyph-name="uni0424" unicode="&#x424;" horiz-adv-x="827" 
d="M173 356q0 -45 13 -76t36 -50.5t54 -29t66 -10.5v332q-35 -2 -66 -11t-54 -28.5t-36 -50.5t-13 -76zM653 356q0 45 -12.5 76t-35 50.5t-53 28.5t-66.5 11v-332q36 1 66.5 10.5t53 29t35 50.5t12.5 76zM486 725v-94q66 -2 123 -20t99 -52.5t66 -85t24 -117.5
q0 -66 -24 -116.5t-66 -85t-99 -53t-123 -20.5v-91h-144v91q-67 2 -124 20.5t-99 52.5t-66 84.5t-24 116.5q0 67 24 117.5t66 85t99 53t124 20.5v94h144z" />
    <glyph glyph-name="uni0425" unicode="&#x425;" horiz-adv-x="641" 
d="M310 263l-158 -263h-142l224 361l-220 356h163l155 -257l151 257h143l-219 -354l229 -363h-162z" />
    <glyph glyph-name="uni0426" unicode="&#x426;" horiz-adv-x="777" 
d="M649 111h97v-282h-123l-10 171h-542v717h143v-606h292v606h143v-606z" />
    <glyph glyph-name="uni0427" unicode="&#x427;" horiz-adv-x="700" 
d="M630 0h-144v303q-38 -25 -80.5 -36t-94.5 -11q-56 0 -102.5 15t-79.5 46t-51 79.5t-18 115.5v205h144v-199q0 -66 28.5 -104.5t99.5 -38.5q44 0 82 9.5t72 32.5v300h144v-717z" />
    <glyph glyph-name="uni0428" unicode="&#x428;" horiz-adv-x="957" 
d="M887 0h-816v717h143v-606h193v606h144v-606h193v606h143v-717z" />
    <glyph glyph-name="uni0429" unicode="&#x429;" horiz-adv-x="1014" 
d="M887 111h95v-282h-121l-10 171h-780v717h143v-606h193v606h144v-606h193v606h143v-606z" />
    <glyph glyph-name="uni042A" unicode="&#x42a;" horiz-adv-x="756" 
d="M31 717h310v-251h97q138 0 212 -55t74 -170q0 -63 -20.5 -109t-58.5 -75t-91.5 -43t-119.5 -14h-237v597h-166v120zM341 348v-229h93q69 0 107 25.5t38 90.5q0 113 -143 113h-95z" />
    <glyph glyph-name="uni042B" unicode="&#x42b;" horiz-adv-x="873" 
d="M590 241q0 -63 -20.5 -109t-58.5 -75t-92 -43t-120 -14h-228v717h143v-251h89q138 0 212.5 -55t74.5 -170zM803 717v-717h-144v717h144zM214 348v-229h85q69 0 107.5 25.5t38.5 90.5q0 113 -143 113h-88z" />
    <glyph glyph-name="uni042C" unicode="&#x42c;" horiz-adv-x="629" 
d="M597 241q0 -63 -20.5 -109t-58.5 -75t-91.5 -43t-119.5 -14h-236v717h143v-251h96q139 0 213 -55t74 -170zM214 348v-229h93q69 0 107 25.5t38 90.5q0 113 -142 113h-96z" />
    <glyph glyph-name="uni042D" unicode="&#x42d;" horiz-adv-x="664" 
d="M627 358q0 -87 -25.5 -155.5t-74 -116t-118 -72.5t-156.5 -25q-75 0 -129.5 15.5t-81.5 35.5v120q36 -25 89 -38.5t113 -13.5q108 0 164 48.5t67 146.5h-302v118h301q-12 94 -66.5 140.5t-158.5 46.5q-60 0 -114.5 -13t-89.5 -36v120q29 19 82.5 33.5t128.5 14.5
q88 0 157 -25t116.5 -72.5t72.5 -116t25 -155.5z" />
    <glyph glyph-name="uni042E" unicode="&#x42e;" horiz-adv-x="1014" 
d="M978 361q0 -90 -26.5 -159t-72 -116.5t-107.5 -72t-132 -24.5q-66 0 -124 20t-102.5 59t-73.5 96.5t-37 132.5h-89v-297h-143v717h143v-301h89q9 75 38 133t73.5 97.5t102 60t123.5 20.5q70 0 132 -23.5t107.5 -70t72 -114.5t26.5 -158zM640 108q40 0 75 13.5t60 43.5
t39.5 77.5t14.5 115.5t-14.5 115.5t-39.5 77.5t-60 43.5t-75 13.5q-41 0 -76 -13.5t-60.5 -43.5t-40 -77.5t-14.5 -115.5t14.5 -115.5t40 -77.5t60.5 -43.5t76 -13.5z" />
    <glyph glyph-name="uni042F" unicode="&#x42f;" horiz-adv-x="664" 
d="M67 483q0 57 20 100.5t57.5 73.5t90 45t117.5 15h242v-717h-144v268h-96l-171 -268h-161l189 285q-75 22 -109.5 72.5t-34.5 125.5zM450 381v216h-99q-66 0 -102.5 -24.5t-36.5 -84.5q0 -58 33 -82.5t95 -24.5h110z" />
    <glyph glyph-name="uni0430" unicode="&#x430;" horiz-adv-x="545" 
d="M365 0q-3 15 -5.5 39.5t-4.5 42.5q-8 -17 -20.5 -33t-31.5 -29.5t-44.5 -21.5t-59.5 -8q-33 0 -62.5 9t-52 28t-35.5 47t-13 66q0 83 65 128t185 45h64v23q0 48 -24.5 65.5t-78.5 17.5t-99 -14t-79 -31v110q34 17 87 31t116 14q102 0 159.5 -43t57.5 -137v-265
q0 -9 0.5 -20.5t1 -23.5t1.5 -22.5t2 -17.5h-129zM241 89q34 0 55 14.5t33 33.5t16.5 37.5t4.5 26.5v31h-59q-62 0 -90.5 -20.5t-28.5 -55.5q0 -32 18.5 -49.5t50.5 -17.5z" />
    <glyph glyph-name="uni0431" unicode="&#x431;" horiz-adv-x="593" 
d="M562 257q0 -65 -20 -115t-55.5 -84t-84 -51t-104.5 -17q-57 0 -105 19.5t-83 57.5t-55 95.5t-20 134.5t7 135.5t22.5 103t39.5 76.5t57 56q42 29 91.5 39.5t105.5 13.5q39 1 66 3.5t46.5 6.5t32.5 8.5t24 10.5v-121q-11 -6 -23.5 -10.5t-31 -7.5t-44.5 -5.5t-63 -5.5
q-47 -4 -84 -10.5t-64 -28.5q-29 -23 -45.5 -62.5t-23.5 -98.5q49 110 192 110q43 0 83 -17t71 -49.5t49.5 -79.5t18.5 -107zM298 101q53 0 87 37t34 115q0 76 -34 113.5t-87 37.5q-52 0 -86 -37.5t-34 -112.5q0 -78 34 -115.5t86 -37.5z" />
    <glyph glyph-name="uni0432" unicode="&#x432;" horiz-adv-x="549" 
d="M60 519h226q105 0 154 -31.5t49 -94.5q0 -50 -30 -78t-87 -42q70 -10 103.5 -39t33.5 -86q0 -75 -60 -111.5t-165 -36.5h-224v519zM196 419v-108h74q37 0 59 12.5t22 41.5q0 31 -19 42.5t-56 11.5h-80zM196 219v-118h78q42 0 68 11.5t26 45.5q0 32 -23.5 46.5t-75.5 14.5
h-73z" />
    <glyph glyph-name="uni0433" unicode="&#x433;" horiz-adv-x="437" 
d="M60 519h351v-109h-213v-410h-138v519z" />
    <glyph glyph-name="uni0434" unicode="&#x434;" horiz-adv-x="625" 
d="M55 110q19 21 31.5 55.5t20 84.5t11.5 116.5t7 152.5h399v-409h77v-258h-120l-8 148h-336l-8 -148h-120v258h46zM385 110v300h-143q-4 -107 -14.5 -179.5t-32.5 -120.5h190z" />
    <glyph glyph-name="uni0435" unicode="&#x435;" horiz-adv-x="569" 
d="M511 34q-12 -7 -27.5 -14.5t-37 -14t-50 -11t-67.5 -4.5q-152 0 -225 71t-73 199q0 63 19.5 113t54.5 84.5t83.5 53t107.5 18.5q60 0 108 -19.5t79.5 -57.5t43.5 -96t0 -134h-352q8 -61 44.5 -91.5t116.5 -30.5q64 0 104.5 14t70.5 29v-109zM298 426q-46 0 -77 -28
t-42 -81h216q1 55 -24 82t-73 27z" />
    <glyph glyph-name="uni0436" unicode="&#x436;" horiz-adv-x="796" 
d="M467 519v-207h39l136 207h138l-165 -248l176 -271h-159l-129 202h-36v-202h-138v202h-37l-132 -202h-155l177 266l-167 253h141l135 -207h38v207h138z" />
    <glyph glyph-name="uni0437" unicode="&#x437;" horiz-adv-x="493" 
d="M453 148q0 -40 -18 -70t-49 -49.5t-73 -29t-91 -9.5q-71 0 -113 14t-62 28v107q26 -19 70 -31t97 -12q48 0 73.5 14.5t25.5 46.5q0 30 -24 43.5t-76 13.5h-78v100h78q41 0 63.5 13t22.5 41q0 31 -24 43t-65 12q-52 0 -90 -12.5t-67 -30.5v108q25 16 69.5 28.5t113.5 12.5
q95 0 146.5 -34t51.5 -101q0 -50 -29 -78.5t-86 -43.5q68 -11 101 -39.5t33 -84.5z" />
    <glyph glyph-name="uni0438" unicode="&#x438;" horiz-adv-x="601" 
d="M197 190l210 329h134v-519h-137v328l-208 -328h-136v519h137v-329z" />
    <glyph glyph-name="uni0439" unicode="&#x439;" horiz-adv-x="601" 
d="M298 575q-44 0 -76 11.5t-53 32t-31 48t-10 59.5h114q0 -33 15 -47t41 -14t40.5 14t14.5 47h115q0 -32 -10.5 -59.5t-32 -48t-53.5 -32t-74 -11.5zM197 190l210 329h134v-519h-137v328l-208 -328h-136v519h137v-329z" />
    <glyph glyph-name="uni043A" unicode="&#x43a;" horiz-adv-x="554" 
d="M243 202h-45v-202h-138v519h138v-207h47l152 207h139l-182 -246l195 -273h-162z" />
    <glyph glyph-name="uni043B" unicode="&#x43b;" horiz-adv-x="577" 
d="M108 203q11 48 13.5 126t2.5 190h392v-519h-138v410h-131q-1 -93 -8 -169.5t-26 -130.5t-54 -84t-92 -30q-11 0 -22 1t-23 3v124q5 -1 9 -1.5t9 -0.5q27 0 43.5 19.5t24.5 61.5z" />
    <glyph glyph-name="uni043C" unicode="&#x43c;" horiz-adv-x="739" 
d="M541 343l-135 -300h-97l-126 298v-341h-123v519h181l127 -301l135 301h176v-519h-138v343z" />
    <glyph glyph-name="uni043D" unicode="&#x43d;" horiz-adv-x="589" 
d="M391 210h-193v-210h-138v519h138v-200h193v200h138v-519h-138v210z" />
    <glyph glyph-name="uni043E" unicode="&#x43e;" horiz-adv-x="589" 
d="M293 -10q-56 0 -103.5 17.5t-83 52t-55.5 85t-20 115.5t20 115.5t55.5 84.5t83 51.5t103.5 17.5t104.5 -17.5t84 -51.5t56 -84.5t20.5 -115.5t-20.5 -115.5t-56 -85t-84 -52t-104.5 -17.5zM293 101q54 0 88 39t34 120q0 80 -34 119t-88 39q-51 0 -85.5 -39t-34.5 -119
q0 -81 34.5 -120t85.5 -39z" />
    <glyph glyph-name="uni043F" unicode="&#x43f;" horiz-adv-x="580" 
d="M60 519h460v-519h-138v410h-184v-410h-138v519z" />
    <glyph glyph-name="uni0440" unicode="&#x440;" horiz-adv-x="625" 
d="M365 -10q-58 0 -99.5 25.5t-67.5 68.5v-261h-138v696h129l7 -85q26 45 68 70t102 25q46 0 87.5 -16.5t73 -50t49.5 -84t18 -118.5q0 -69 -18.5 -119.5t-49.5 -84t-73 -50t-88 -16.5zM326 101q56 0 91 39t35 120q0 80 -35 119.5t-90 39.5q-56 0 -93 -39.5t-37 -119.5
q0 -81 37 -120t92 -39z" />
    <glyph glyph-name="uni0441" unicode="&#x441;" horiz-adv-x="512" 
d="M310 -10q-65 0 -116.5 18.5t-87.5 53t-55.5 84.5t-19.5 114q0 63 19.5 113t55.5 84.5t88 53t117 18.5q60 0 100 -12.5t63 -29.5v-110q-30 19 -64 30.5t-87 11.5q-150 0 -150 -159t148 -159q55 0 89 11.5t64 29.5v-109q-23 -17 -63.5 -30t-100.5 -13z" />
    <glyph glyph-name="uni0442" unicode="&#x442;" horiz-adv-x="483" 
d="M310 410v-410h-139v410h-152v109h445v-109h-154z" />
    <glyph glyph-name="uni0443" unicode="&#x443;" horiz-adv-x="555" 
d="M359 6q-17 -47 -36 -83t-44.5 -60.5t-60.5 -37t-84 -12.5q-30 0 -53 4.5t-45 14.5v120q17 -12 41.5 -19.5t53.5 -7.5q32 0 52 11.5t34 34.5l-207 548h147l130 -375l127 375h127l-182 -513v0z" />
    <glyph glyph-name="uni0444" unicode="&#x444;" horiz-adv-x="751" 
d="M172 260q0 -75 36.5 -115.5t98.5 -46.5v325q-62 -7 -98.5 -47.5t-36.5 -115.5zM578 260q0 75 -35.5 115.5t-97.5 47.5v-325q62 6 97.5 46.5t35.5 115.5zM31 260q0 61 20.5 109t57.5 82t87.5 53t110.5 23v200h138v-200q60 -4 110 -23t87 -53t57.5 -82t20.5 -109
q0 -62 -20.5 -109.5t-57.5 -81.5t-87 -53t-110 -23v-170h-138v170q-60 4 -110.5 23t-87.5 53t-57.5 81.5t-20.5 109.5z" />
    <glyph glyph-name="uni0445" unicode="&#x445;" horiz-adv-x="529" 
d="M251 178l-115 -178h-132l179 270l-164 249h155l107 -161l100 161h132l-165 -253l176 -266h-155z" />
    <glyph glyph-name="uni0446" unicode="&#x446;" horiz-adv-x="627" 
d="M474 0h-414v519h138v-409h188v409h139v-409h77v-258h-119z" />
    <glyph glyph-name="uni0447" unicode="&#x447;" horiz-adv-x="565" 
d="M506 0h-139v207q-24 -18 -59 -28.5t-79 -10.5q-89 0 -136 50t-47 149v152h139v-145q0 -51 21.5 -71t66.5 -20q26 0 50 6.5t44 20.5v209h139v-519z" />
    <glyph glyph-name="uni0448" unicode="&#x448;" horiz-adv-x="806" 
d="M746 0h-686v519h138v-409h136v409h139v-409h134v409h139v-519z" />
    <glyph glyph-name="uni0449" unicode="&#x449;" horiz-adv-x="848" 
d="M746 110h78v-258h-120l-8 148h-636v519h138v-409h136v409h139v-409h134v409h139v-409z" />
    <glyph glyph-name="uni044A" unicode="&#x44a;" horiz-adv-x="620" 
d="M19 519h273v-158h85q103 0 160.5 -44.5t57.5 -132.5q0 -45 -16.5 -79.5t-45.5 -58t-69.5 -35t-88.5 -11.5h-223v410h-133v109zM292 256v-152h67q42 0 67.5 17.5t25.5 58.5q0 40 -23.5 58t-68.5 18h-68z" />
    <glyph glyph-name="uni044B" unicode="&#x44b;" horiz-adv-x="738" 
d="M494 184q0 -45 -16.5 -79.5t-45.5 -58t-69.5 -35t-88.5 -11.5h-214v519h138v-158h78q103 0 160.5 -44.5t57.5 -132.5zM678 0h-139v519h139v-519zM198 256v-152h60q42 0 67.5 17.5t25.5 58.5q0 40 -23.5 58t-68.5 18h-61z" />
    <glyph glyph-name="uni044C" unicode="&#x44c;" horiz-adv-x="526" 
d="M502 184q0 -45 -16.5 -79.5t-45.5 -58t-69.5 -35t-88.5 -11.5h-223v519h139v-158h86q103 0 160.5 -44.5t57.5 -132.5zM198 256v-152h68q42 0 67.5 17.5t25.5 58.5q0 40 -23.5 58t-68.5 18h-69z" />
    <glyph glyph-name="uni044D" unicode="&#x44d;" horiz-adv-x="515" 
d="M484 260q0 -64 -19.5 -114t-55.5 -84.5t-88 -53t-116 -18.5q-61 0 -101 13t-64 30v109q15 -9 30.5 -16.5t33.5 -13t40 -8.5t50 -3q124 0 145 109h-200v109h198q-24 100 -143 100q-54 0 -87.5 -11t-63.5 -31v110q23 17 63.5 29.5t100.5 12.5q64 0 115.5 -18.5t87.5 -53
t55 -84.5t19 -113z" />
    <glyph glyph-name="uni044E" unicode="&#x44e;" horiz-adv-x="796" 
d="M765 260q0 -65 -19.5 -115.5t-53.5 -85t-80.5 -52t-100.5 -17.5q-48 0 -90.5 14.5t-75 42.5t-54 69t-28.5 94h-65v-210h-138v519h138v-200h67q8 51 29.5 90t54 66t74 40.5t88.5 13.5q54 0 100.5 -17.5t80.5 -51.5t53.5 -84.5t19.5 -115.5zM511 101q48 0 80 39t32 120
t-32 120t-80 39t-79.5 -39t-31.5 -120t31.5 -120t79.5 -39z" />
    <glyph glyph-name="uni044F" unicode="&#x44f;" horiz-adv-x="542" 
d="M49 347q0 83 59.5 127.5t161.5 44.5h212v-519h-138v167h-57l-114 -167h-150l137 195q-53 16 -82 53.5t-29 98.5zM344 272v142h-59q-42 0 -67.5 -16t-25.5 -53q0 -38 23 -55.5t69 -17.5h60z" />
    <glyph glyph-name="uni0451" unicode="&#x451;" horiz-adv-x="569" 
d="M399 587q-31 0 -52.5 22t-21.5 52q0 31 21.5 52.5t52.5 21.5q32 0 54 -21.5t22 -52.5q0 -30 -22 -52t-54 -22zM182 587q-30 0 -52 22t-22 52q0 31 22 52.5t52 21.5q32 0 54 -21.5t22 -52.5q0 -30 -22 -52t-54 -22zM511 34q-12 -7 -27.5 -14.5t-37 -14t-50 -11t-67.5 -4.5
q-152 0 -225 71t-73 199q0 63 19.5 113t54.5 84.5t83.5 53t107.5 18.5q60 0 108 -19.5t79.5 -57.5t43.5 -96t0 -134h-352q8 -61 44.5 -91.5t116.5 -30.5q64 0 104.5 14t70.5 29v-109zM298 426q-46 0 -77 -28t-42 -81h216q1 55 -24 82t-73 27z" />
    <glyph glyph-name="uni0452" unicode="&#x452;" horiz-adv-x="594" 
d="M540 -20q0 -78 -45.5 -122.5t-130.5 -44.5q-23 0 -45.5 5t-44.5 16v112q26 -23 61 -23q37 0 51.5 20.5t14.5 50.5v354q0 39 -21.5 55t-59.5 16q-42 0 -72.5 -17t-49.5 -44v-358h-138v565h-67v91h67v61h138v-61h151v-91h-151v-35l-1 -90h1q23 38 63 63.5t103 25.5
q37 0 69.5 -10.5t56 -31t37 -51.5t13.5 -73v-383v0z" />
    <glyph glyph-name="uni0453" unicode="&#x453;" horiz-adv-x="437" 
d="M60 519h351v-109h-213v-410h-138v519zM242 746h147l-128 -158h-101z" />
    <glyph glyph-name="uni0454" unicode="&#x454;" horiz-adv-x="509" 
d="M474 33q-23 -17 -63.5 -30t-100.5 -13q-65 0 -116.5 18.5t-87.5 53t-55.5 84.5t-19.5 114q0 128 73 198.5t204 70.5q60 0 100.5 -12.5t63.5 -29.5v-110q-30 19 -64 30.5t-87 11.5q-126 0 -150 -104h201v-108h-202q24 -106 151 -106q55 0 89 11.5t64 29.5v-109v0z" />
    <glyph glyph-name="uni0455" unicode="&#x455;" horiz-adv-x="479" 
d="M234 -10q-38 0 -69 6t-55.5 15t-41.5 19t-27 18v102q10 -9 27 -19t40.5 -18.5t53.5 -14t66 -5.5q54 0 74 15t20 39q0 19 -10 29.5t-26.5 16t-37.5 8.5t-44 8q-29 6 -58.5 15.5t-53 26.5t-38.5 44.5t-15 69.5q0 77 56 120.5t160 43.5q60 0 102 -13t60 -26v-102
q-22 15 -59.5 27t-96.5 12q-55 0 -76.5 -13t-21.5 -38q0 -17 9.5 -26t25.5 -14t36.5 -7.5t42.5 -5.5q29 -5 59 -13.5t54.5 -26.5t40 -47.5t15.5 -74.5q0 -48 -18 -80.5t-48 -53t-68 -29t-78 -8.5z" />
    <glyph glyph-name="uni0456" unicode="&#x456;" horiz-adv-x="260" 
d="M130 577q-36 0 -60.5 24t-24.5 58t24.5 58t60.5 24q18 0 33 -6.5t26.5 -17.5t18 -26t6.5 -32t-6.5 -32t-18 -26t-26.5 -17.5t-33 -6.5zM199 519v-519h-138v519h138z" />
    <glyph glyph-name="uni0457" unicode="&#x457;" horiz-adv-x="260" 
d="M32 577q-37 0 -61 24t-24 58q0 35 24 58.5t61 23.5q35 0 59.5 -23.5t24.5 -58.5q0 -34 -24.5 -58t-59.5 -24zM227 577q-35 0 -59.5 24t-24.5 58q0 35 24.5 58.5t59.5 23.5q36 0 60.5 -23.5t24.5 -58.5q0 -34 -24.5 -58t-60.5 -24zM199 519v-519h-138v519h138z" />
    <glyph glyph-name="uni0458" unicode="&#x458;" horiz-adv-x="273" 
d="M143 577q-35 0 -59.5 24t-24.5 58t24.5 58t59.5 24q18 0 33.5 -6.5t27 -17.5t18 -26t6.5 -32t-6.5 -32t-18 -26t-27 -17.5t-33.5 -6.5zM213 -20q0 -78 -47 -122.5t-135 -44.5q-26 0 -50.5 4.5t-47.5 16.5v112q25 -23 69 -23q41 0 57 20.5t16 50.5v525h138v-539z" />
    <glyph glyph-name="uni0459" unicode="&#x459;" horiz-adv-x="833" 
d="M809 184q0 -45 -16.5 -79.5t-46 -58t-70 -35t-88.5 -11.5h-220v410h-121q-1 -93 -8 -169.5t-26 -130.5t-54 -84t-92 -30q-11 0 -22 1t-23 3v124q5 -1 9 -1.5t9 -0.5q29 0 46 23t25.5 72t10.5 123.5t2 178.5h382v-158h85q105 0 161.5 -44.5t56.5 -132.5zM506 256v-152h67
q42 0 67.5 17t25.5 59q0 40 -23 58t-69 18h-68z" />
    <glyph glyph-name="uni045A" unicode="&#x45a;" horiz-adv-x="855" 
d="M830 179q0 -44 -16.5 -77.5t-45.5 -56t-69.5 -34t-88.5 -11.5h-230v241h-182v-241h-138v519h138v-168h182v168h139v-168h93q103 0 160.5 -43.5t57.5 -128.5zM519 246v-142h75q42 0 68 16.5t26 53.5q0 38 -24 55t-69 17h-76z" />
    <glyph glyph-name="uni045B" unicode="&#x45b;" horiz-adv-x="594" 
d="M320 419q-42 0 -72.5 -17t-49.5 -44v-358h-138v565h-67v91h67v61h138v-61h151v-91h-151v-35l-1 -90h1q23 38 63 63.5t103 25.5q37 0 69.5 -10.5t56 -31t37 -51.5t13.5 -73v-363h-139v348q0 39 -21.5 55t-59.5 16z" />
    <glyph glyph-name="uni045C" unicode="&#x45c;" horiz-adv-x="554" 
d="M243 202h-45v-202h-138v519h138v-207h47l152 207h139l-182 -246l195 -273h-162zM255 746h147l-128 -158h-101z" />
    <glyph glyph-name="uni045E" unicode="&#x45e;" horiz-adv-x="555" 
d="M359 6q-17 -47 -36 -83t-44.5 -60.5t-60.5 -37t-84 -12.5q-30 0 -53 4.5t-45 14.5v120q17 -12 41.5 -19.5t53.5 -7.5q32 0 52 11.5t34 34.5l-207 548h147l130 -375l127 375h127zM287 575q-44 0 -76 11.5t-53.5 32t-32 48t-10.5 59.5h116q0 -33 15 -47t41 -14t40 14t14 47
h115q0 -32 -10.5 -59.5t-31.5 -48t-53 -32t-74 -11.5z" />
    <glyph glyph-name="uni045F" unicode="&#x45f;" horiz-adv-x="585" 
d="M525 519v-519h-169l-4 -148h-118l-5 148h-169v519h138v-409h188v409h139z" />
    <glyph glyph-name="uni0490" unicode="&#x490;" horiz-adv-x="531" 
d="M71 717h301l9 161h121v-281h-288v-597h-143v717z" />
    <glyph glyph-name="uni0491" unicode="&#x491;" horiz-adv-x="437" 
d="M60 519h223l9 148h119v-257h-213v-410h-138v519z" />
    <glyph glyph-name="uni0492" unicode="&#x492;" horiz-adv-x="570" 
d="M15 414h87v303h431v-120h-288v-183h165v-106h-165v-308h-143v308h-87v106z" />
    <glyph glyph-name="uni0493" unicode="&#x493;" horiz-adv-x="465" 
d="M23 301h65v218h351v-109h-213v-109h125v-95h-125v-206h-138v206h-65v95z" />
    <glyph glyph-name="uni049A" unicode="&#x49a;" horiz-adv-x="676" 
d="M279 291h-65v-291h-143v717h143v-308h71l216 308h149l-252 -358l181 -248h86v-282h-122l-10 171h-42z" />
    <glyph glyph-name="uni049B" unicode="&#x49b;" horiz-adv-x="566" 
d="M243 202h-45v-202h-138v519h138v-207h47l152 207h139l-182 -246l116 -163h85v-258h-116l-9 148h-43z" />
    <glyph glyph-name="uni04A2" unicode="&#x4a2;" horiz-adv-x="796" 
d="M524 297h-310v-297h-143v717h143v-301h310v301h143v-606h96v-282h-122l-9 171h-108v297z" />
    <glyph glyph-name="uni04A3" unicode="&#x4a3;" horiz-adv-x="631" 
d="M391 210h-193v-210h-138v519h138v-200h193v200h138v-409h78v-258h-116l-9 148h-91v210z" />
    <glyph glyph-name="uni04AE" unicode="&#x4ae;" horiz-adv-x="614" 
d="M380 303v-303h-144v302l-233 415h158l156 -291l161 291h133z" />
    <glyph glyph-name="uni04AF" unicode="&#x4af;" horiz-adv-x="527" 
d="M332 -2v-175h-138v176l-191 520h144l126 -353l125 353h127z" />
    <glyph glyph-name="uni04B0" unicode="&#x4b0;" horiz-adv-x="614" 
d="M92 328h129l-218 389h158l156 -291l161 291h133l-217 -389h130v-106h-144v-222h-144v222h-144v106z" />
    <glyph glyph-name="uni04B1" unicode="&#x4b1;" horiz-adv-x="527" 
d="M56 0h137l-190 519h144l126 -353l125 353h127l-193 -519h138v-96h-138v-81h-138v81h-138v96z" />
    <glyph glyph-name="uni04BA" unicode="&#x4ba;" horiz-adv-x="700" 
d="M70.0381 717h143.991v-302.981q37.998 24.998 80.4951 35.998q42.498 10.999 94.4941 10.999q55.9971 0 102.494 -14.999t79.4951 -45.9971t50.9971 -79.4951t17.999 -115.493v-204.987h-143.991v198.987q0 65.9961 -28.498 104.494q-28.499 38.4971 -99.4941 38.4971
q-43.9971 0 -81.9951 -9.49902t-71.9961 -32.498v-299.981h-143.991v716.956z" />
    <glyph glyph-name="uni04BB" unicode="&#x4bb;" horiz-adv-x="594" 
d="M320 419q-42 0 -72.5 -17t-49.5 -44v-358h-138v717h138v-187l-1 -90h1q23 38 63 63.5t103 25.5q37 0 69.5 -10.5t56 -31t37 -51.5t13.5 -73v-363h-139v348q0 39 -21.5 55t-59.5 16z" />
    <glyph glyph-name="uni04D8" unicode="&#x4d8;" horiz-adv-x="735" 
d="M698 358q0 -85 -23 -153t-66 -116t-105 -73.5t-140 -25.5q-165 0 -247 89.5t-82 264.5v66h511q-10 95 -63.5 146t-165.5 51q-74 0 -128.5 -18t-98.5 -44v123q18 10 39.5 20.5t50 19t64 13.5t82.5 5q92 0 161.5 -25.5t116.5 -73.5t70.5 -116t23.5 -153zM363 109
q83 0 127 48t55 138h-364q5 -97 49.5 -141.5t132.5 -44.5z" />
    <glyph glyph-name="uni04D9" unicode="&#x4d9;" horiz-adv-x="567" 
d="M56.0312 485.002q11.999 7 27.498 14.499q15.499 7.5 36.998 13.999q21.499 6.5 49.9971 11q28.498 4.49902 67.4961 4.49902q151.99 0 224.985 -70.9951q72.9961 -70.9961 72.9961 -198.988q0 -62.9961 -19.499 -112.993t-54.4961 -84.4941
q-34.998 -34.498 -83.4951 -52.9971t-107.494 -18.499q-59.9961 0 -107.993 19.499t-79.4951 57.4961q-31.498 37.998 -43.4971 95.9941q-11.999 57.9971 0 133.992h351.979q-8 60.9961 -44.4971 91.4941q-36.498 30.498 -116.493 30.498q-63.9961 0 -104.493 -13.999
q-40.498 -13.999 -70.4961 -28.998v108.993zM269.019 93.0264q45.9971 0 76.9951 27.998t41.9971 80.9951h-215.986q-1 -54.9971 23.998 -81.9951q24.999 -26.998 72.9961 -26.998z" />
    <glyph glyph-name="uni04E8" unicode="&#x4e8;" horiz-adv-x="775" 
d="M387 -10q-74 0 -138 23.5t-111 70t-74.5 115t-27.5 158.5t27.5 158.5t74.5 115.5t111 71t138 24t138 -23.5t111.5 -69.5t75 -114t27.5 -158t-27.5 -159t-75 -116t-111.5 -71.5t-138 -24.5zM387 607q-38 0 -71.5 -10t-60.5 -32.5t-45.5 -58t-25.5 -86.5h409
q-7 51 -25.5 86.5t-46 58t-61.5 32.5t-73 10zM387 109q39 0 73.5 10.5t62 33.5t46 59.5t25.5 89.5h-411q7 -53 25 -89.5t45 -59.5t61.5 -33.5t72.5 -10.5z" />
    <glyph glyph-name="uni04E9" unicode="&#x4e9;" horiz-adv-x="589" 
d="M293 -10q-56 0 -103.5 17.5t-83 52t-55.5 85t-20 115.5t20 115.5t55.5 84.5t83 51.5t103.5 17.5t104.5 -17.5t84 -51.5t56 -84.5t20.5 -115.5t-20.5 -115.5t-56 -85t-84 -52t-104.5 -17.5zM293 421q-48 0 -80 -26t-43 -80h247q-11 54 -43.5 80t-80.5 26zM293 98
q50 0 82.5 28.5t42.5 86.5h-249q10 -58 42.5 -86.5t81.5 -28.5z" />
    <glyph glyph-name="uni058F" unicode="&#x58f;" horiz-adv-x="574" 
d="M192 312h152v51h-152v100h152v33q0 45 -18.5 73t-68.5 28t-68.5 -28t-18.5 -74h-160q0 107 64.5 169.5t182.5 62.5q58 0 104 -16t78 -44.5t48.5 -68.5t16.5 -88v-47h60v-100h-60v-51h60v-100h-60v-212h-160v212h-152v100z" />
    <glyph glyph-name="baht" unicode="&#xe3f;" horiz-adv-x="657" 
d="M251 674v180h126v-178zM250 62l127 2v-219h-127v217zM71 717h246q136 0 207 -40t71 -135q0 -77 -45.5 -116.5t-120.5 -53.5q94 -11 143 -49t49 -116q0 -56 -23 -95.5t-64 -64t-97 -36t-122 -11.5h-244v717zM214 597v-169h118q54 0 87 22t33 69t-30 62.5t-84 15.5h-124z
M214 310v-191h122q62 0 100 21t38 76q0 52 -35.5 73t-111.5 21h-113z" />
    <glyph glyph-name="Wgrave" unicode="&#x1e80;" horiz-adv-x="989" 
d="M818 0h-187l-137 511l-136 -511h-187l-152 717h146l112 -564l153 564h144l152 -557l117 557h127zM437 777l-127 136h172l80 -136h-125z" />
    <glyph glyph-name="wgrave" unicode="&#x1e81;" horiz-adv-x="825" 
d="M693 0h-191l-90 349l-90 -349h-190l-110 519h139l79 -400l110 400h138l107 -401l80 401h128zM370 588l-127 158h147l81 -158h-101z" />
    <glyph glyph-name="Wacute" unicode="&#x1e82;" horiz-adv-x="989" 
d="M818 0h-187l-137 511l-136 -511h-187l-152 717h146l112 -564l153 564h144l152 -557l117 557h127zM517 913h171l-127 -136h-125z" />
    <glyph glyph-name="wacute" unicode="&#x1e83;" horiz-adv-x="825" 
d="M693 0h-191l-90 349l-90 -349h-190l-110 519h139l79 -400l110 400h138l107 -401l80 401h128zM445 746h147l-128 -158h-101z" />
    <glyph glyph-name="Wdieresis" unicode="&#x1e84;" horiz-adv-x="989" 
d="M818 0h-187l-137 511l-136 -511h-187l-152 717h146l112 -564l153 564h144l152 -557l117 557h127zM379 776q-35 0 -59 24t-24 57q0 35 24 58.5t59 23.5q37 0 61.5 -23.5t24.5 -58.5q0 -33 -24.5 -57t-61.5 -24zM620 776q-18 0 -33.5 6.5t-27 17.5t-18 25.5t-6.5 31.5
t6.5 32t18 26t27 17.5t33.5 6.5t33.5 -6.5t27 -17.5t18 -26t6.5 -32t-6.5 -31.5t-18 -25.5t-27 -17.5t-33.5 -6.5z" />
    <glyph glyph-name="wdieresis" unicode="&#x1e85;" horiz-adv-x="825" 
d="M693 0h-191l-90 349l-90 -349h-190l-110 519h139l79 -400l110 400h138l107 -401l80 401h128zM304 577q-18 0 -33 6.5t-26.5 17.5t-18 26t-6.5 32q0 34 24.5 57.5t59.5 23.5t59.5 -23.5t24.5 -57.5q0 -17 -6.5 -32t-18 -26t-26.5 -17.5t-33 -6.5zM529 577q-35 0 -59 24
t-24 58t24 57.5t59 23.5q37 0 61 -23.5t24 -57.5t-24 -58t-61 -24z" />
    <glyph glyph-name="Ygrave" unicode="&#x1ef2;" horiz-adv-x="614" 
d="M380 303v-303h-144v302l-233 415h158l156 -291l161 291h133zM260 777l-127 136h172l80 -136h-125z" />
    <glyph glyph-name="ygrave" unicode="&#x1ef3;" horiz-adv-x="554" 
d="M359 6q-17 -47 -36 -83t-44.5 -60.5t-60.5 -37t-84 -12.5q-30 0 -53 4.5t-45 14.5v120q17 -12 41.5 -19.5t53.5 -7.5q32 0 52 11.5t34 34.5l-207 548h147l130 -375l127 375h127l-182 -513v0zM239 588l-127 158h147l81 -158h-101z" />
    <glyph glyph-name="uni2000" unicode="&#x2000;" horiz-adv-x="593" 
 />
    <glyph glyph-name="uni2001" unicode="&#x2001;" horiz-adv-x="954" 
 />
    <glyph glyph-name="uni2002" unicode="&#x2002;" horiz-adv-x="593" 
 />
    <glyph glyph-name="uni2003" unicode="&#x2003;" horiz-adv-x="954" 
 />
    <glyph glyph-name="uni2004" unicode="&#x2004;" horiz-adv-x="318" 
 />
    <glyph glyph-name="uni2005" unicode="&#x2005;" horiz-adv-x="238" 
 />
    <glyph glyph-name="uni2006" unicode="&#x2006;" horiz-adv-x="159" 
 />
    <glyph glyph-name="uni2007" unicode="&#x2007;" horiz-adv-x="573" 
 />
    <glyph glyph-name="uni2008" unicode="&#x2008;" horiz-adv-x="265" 
 />
    <glyph glyph-name="uni2009" unicode="&#x2009;" horiz-adv-x="78" 
 />
    <glyph glyph-name="uni200A" unicode="&#x200a;" horiz-adv-x="96" 
 />
    <glyph glyph-name="uni200B" unicode="&#x200b;" horiz-adv-x="0" 
 />
    <glyph glyph-name="endash" unicode="&#x2013;" horiz-adv-x="557" 
d="M52 356h454v-105h-454v105z" />
    <glyph glyph-name="emdash" unicode="&#x2014;" horiz-adv-x="909" 
d="M52 356h815v-105h-815v105z" />
    <glyph glyph-name="quoteleft" unicode="&#x2018;" horiz-adv-x="254" 
d="M211 539q0 -34 -22.5 -57t-63.5 -23q-39 0 -63 25t-24 71q0 26 8 50.5t20.5 46t28 40.5t31.5 33h93q-23 -23 -41 -49.5t-26 -61.5q32 -8 45.5 -29t13.5 -46z" />
    <glyph glyph-name="quoteright" unicode="&#x2019;" horiz-adv-x="254" 
d="M216 629q0 -26 -7.5 -50.5t-20 -46t-28.5 -40.5t-32 -33h-93q23 22 41 48.5t27 62.5q-32 8 -45.5 29t-13.5 46q0 34 22.5 57t62.5 23q39 0 63 -25t24 -71z" />
    <glyph glyph-name="quotesinglbase" unicode="&#x201a;" horiz-adv-x="254" 
d="M216 84q0 -26 -7.5 -50.5t-20 -46t-28.5 -40.5t-32 -33h-93q23 22 41 48.5t27 61.5q-32 9 -45.5 30t-13.5 46q0 34 22.5 57t62.5 23q39 0 63 -25t24 -71z" />
    <glyph glyph-name="quotedblleft" unicode="&#x201c;" horiz-adv-x="470" 
d="M422 539q0 -34 -23 -57t-62 -23q-40 0 -64 25t-24 71q0 26 8 50.5t20.5 46t28 40.5t31.5 33h93q-23 -23 -41 -49.5t-26 -61.5q32 -8 45.5 -29t13.5 -46zM206 539q0 -34 -22.5 -57t-62.5 -23t-64 25t-24 71q0 26 8 50.5t20.5 46t28 40.5t31.5 33h93q-23 -23 -41 -49.5
t-26 -61.5q32 -8 45.5 -29t13.5 -46z" />
    <glyph glyph-name="quotedblright" unicode="&#x201d;" horiz-adv-x="470" 
d="M221 629q0 -26 -8 -50.5t-20.5 -46t-28 -40.5t-31.5 -33h-93q23 22 41 48.5t27 62.5q-32 8 -46 29t-14 46q0 34 22.5 57t62.5 23t64 -25t24 -71zM437 629q0 -26 -8 -50.5t-20.5 -46t-28.5 -40.5t-32 -33h-92q23 22 40.5 48.5t26.5 62.5q-32 8 -46 29t-14 46q0 34 22.5 57
t63.5 23q39 0 63.5 -25t24.5 -71z" />
    <glyph glyph-name="quotedblbase" unicode="&#x201e;" horiz-adv-x="470" 
d="M216 84q0 -26 -7.5 -50.5t-20 -46.5t-28.5 -40.5t-32 -33.5h-93q23 23 41.5 49.5t26.5 61.5q-32 8 -45.5 29t-13.5 46q0 35 22.5 57.5t62.5 22.5q39 0 63 -24.5t24 -70.5zM432 84q0 -26 -8 -50.5t-20.5 -46.5t-28 -40.5t-31.5 -33.5h-93q23 23 41.5 49.5t26.5 61.5
q-32 8 -46 29t-14 46q0 35 23 57.5t62 22.5q40 0 64 -24.5t24 -70.5z" />
    <glyph glyph-name="dagger" unicode="&#x2020;" horiz-adv-x="521" 
d="M328 401v-481h-135v481h-169v127h169v189h135v-189h168v-127h-168z" />
    <glyph glyph-name="daggerdbl" unicode="&#x2021;" horiz-adv-x="522" 
d="M328 108v-188h-135v188h-169v128h169v165h-169v127h169v189h135v-189h168v-127h-168v-165h168v-128h-168z" />
    <glyph glyph-name="bullet" unicode="&#x2022;" horiz-adv-x="323" 
d="M162 164q-26 0 -48.5 9.5t-39.5 26t-26.5 38.5t-9.5 47t9.5 47t26.5 38t39.5 25t48.5 9t48.5 -9t39.5 -25t26.5 -38t9.5 -47t-9.5 -47t-26.5 -38.5t-39.5 -26t-48.5 -9.5z" />
    <glyph glyph-name="ellipsis" unicode="&#x2026;" horiz-adv-x="783" 
d="M648 -7q-19 0 -35.5 7t-29 19.5t-19.5 29t-7 34.5t7 34t19.5 28t29 19t35.5 7t36 -7t29.5 -19t19.5 -28t7 -34t-7 -34.5t-19.5 -29t-29.5 -19.5t-36 -7zM392 -7q-19 0 -35.5 7t-29 19.5t-19.5 29t-7 34.5t7 34t19.5 28t29 19t35.5 7t36 -7t29.5 -19t19.5 -28t7 -34
t-7 -34.5t-19.5 -29t-29.5 -19.5t-36 -7zM135 -7q-19 0 -35.5 7t-29 19.5t-19.5 29t-7 34.5t7 34t19.5 28t29 19t35.5 7t36 -7t29.5 -19t19.5 -28t7 -34t-7 -34.5t-19.5 -29t-29.5 -19.5t-36 -7z" />
    <glyph glyph-name="uni202F" unicode="&#x202f;" horiz-adv-x="67" 
 />
    <glyph glyph-name="perthousand" unicode="&#x2030;" horiz-adv-x="1000" 
d="M55 -3l453 722h108l-453 -722h-108zM304 536q0 -89 -39.5 -137t-107.5 -48t-108 45.5t-40 135.5q0 91 40 138.5t108 47.5t107.5 -45.5t39.5 -136.5zM112 534q0 -56 12 -78.5t33 -22.5q22 0 33 22.5t11 78.5q0 57 -11 79t-33 22q-23 0 -34 -22t-11 -79zM660 180
q0 -89 -39.5 -137t-107.5 -48q-67 0 -107.5 46t-40.5 135q0 91 40.5 138.5t107.5 47.5q68 0 107.5 -45.5t39.5 -136.5zM992 180q0 -89 -39.5 -137t-107.5 -48t-108 46t-40 135q0 91 40 138.5t108 47.5t107.5 -45.5t39.5 -136.5zM469 178q0 -56 11.5 -78t32.5 -22
q22 0 33.5 22t11.5 78t-11 78.5t-34 22.5q-22 0 -33 -22.5t-11 -78.5zM801 178q0 -56 11 -78t33 -22t33 22t11 78t-10.5 78.5t-33.5 22.5t-33.5 -22.5t-10.5 -78.5z" />
    <glyph glyph-name="uni2032" unicode="&#x2032;" horiz-adv-x="262" 
d="M84 717h142l-83 -299h-97z" />
    <glyph glyph-name="uni2033" unicode="&#x2033;" horiz-adv-x="445" 
d="M84 717h142l-83 -299h-97zM267 717h142l-83 -299h-97z" />
    <glyph glyph-name="guilsinglleft" unicode="&#x2039;" horiz-adv-x="309" 
d="M159 268l131 -206h-133l-131 206l131 206h133z" />
    <glyph glyph-name="guilsinglright" unicode="&#x203a;" horiz-adv-x="305" 
d="M156 62h-133l131 206l-131 206h133l131 -206z" />
    <glyph glyph-name="fraction" unicode="&#x2044;" horiz-adv-x="479" 
d="M-95 0l562 717h108l-563 -717h-107z" />
    <glyph glyph-name="uni205F" unicode="&#x205f;" horiz-adv-x="212" 
 />
    <glyph glyph-name="zero.sup" unicode="&#x2070;" horiz-adv-x="457" 
d="M229 319q-42 0 -78 15t-62.5 44.5t-42 72.5t-15.5 100t15.5 100t42 72.5t62.5 44.5t78 15t78 -15t62.5 -44t41.5 -72t15 -100q0 -56 -15 -99.5t-41.5 -73t-62.5 -45t-78 -15.5zM228 403q37 0 60 34t23 114t-23.5 113.5t-58.5 33.5q-36 0 -59 -33.5t-23 -113.5t23 -114
t58 -34z" />
    <glyph glyph-name="four.sup" unicode="&#x2074;" horiz-adv-x="411" 
d="M327 415v-90h-105v90h-200v81l200 280h105v-279h60v-82h-60zM222 497v152l-108 -152h108z" />
    <glyph glyph-name="five.sup" unicode="&#x2075;" horiz-adv-x="368" 
d="M339 481q0 -79 -50.5 -120.5t-131.5 -41.5q-45 0 -74 9.5t-53 24.5v87q19 -15 48.5 -26t70.5 -11q32 0 54.5 17.5t22.5 54.5q0 31 -16 47.5t-44 16.5q-23 0 -35 -6.5t-20 -12.5h-73v256h279v-86h-187v-85q11 8 28 13t40 5q68 0 104.5 -37.5t36.5 -104.5z" />
    <glyph glyph-name="six.sup" unicode="&#x2076;" horiz-adv-x="421" 
d="M385 473q0 -39 -14.5 -68t-38 -48.5t-54.5 -29t-64 -9.5q-88 0 -134.5 51t-46.5 157q0 55 13 102t40.5 81t69 53.5t98.5 19.5q36 0 59.5 -5.5t43.5 -13.5v-83q-21 9 -47 13.5t-52 4.5q-53 0 -81.5 -26t-35.5 -74q15 14 37.5 22.5t51.5 8.5q30 0 58 -9.5t49.5 -29
t34.5 -48.5t13 -69zM210 403q27 0 45 17.5t18 52.5q0 36 -18 53t-44 17q-28 0 -47 -17t-19 -54q0 -34 17 -51.5t48 -17.5z" />
    <glyph glyph-name="seven.sup" unicode="&#x2077;" horiz-adv-x="364" 
d="M189 325h-117l146 363h-196v88h323v-50z" />
    <glyph glyph-name="eight.sup" unicode="&#x2078;" horiz-adv-x="404" 
d="M377 449q0 -31 -13.5 -55t-37 -40.5t-55 -25.5t-68.5 -9q-38 0 -70 8.5t-55.5 25t-36.5 40.5t-13 54q0 42 25.5 69.5t68.5 41.5q-35 12 -56.5 36.5t-21.5 64.5q0 30 12 53t33.5 38.5t50.5 24t63 8.5q33 0 62 -8t50.5 -23.5t33.5 -38.5t12 -53q0 -40 -21 -65t-56 -37
q42 -13 67.5 -40t25.5 -69zM203 596q24 0 39 13.5t15 38.5q0 26 -15 38.5t-39 12.5t-39.5 -14t-15.5 -37q0 -24 15.5 -38t39.5 -14zM203 403q26 0 45 14.5t19 43.5q0 27 -19 42.5t-45 15.5q-29 0 -47.5 -15.5t-18.5 -42.5q0 -29 18.5 -43.5t47.5 -14.5z" />
    <glyph glyph-name="nine.sup" unicode="&#x2079;" horiz-adv-x="413" 
d="M379 579q0 -57 -13 -105t-40 -82.5t-69 -54t-99 -19.5q-36 0 -60.5 5.5t-44.5 13.5v84q22 -9 48 -13.5t52 -4.5q54 0 82.5 25.5t36.5 73.5q-16 -14 -38 -22.5t-51 -8.5q-32 0 -60 9.5t-49 28.5t-33 48t-12 69q0 39 14 68t38 48.5t54.5 29.5t63.5 10q37 0 69.5 -10.5
t57 -34.5t39 -63t14.5 -95zM202 698q-27 0 -45 -18t-18 -53t18 -52.5t44 -17.5q28 0 47.5 17.5t19.5 52.5t-17.5 53t-48.5 18z" />
    <glyph glyph-name="plus.sup" unicode="&#x207a;" horiz-adv-x="391" 
d="M241 529v-121h-92v121h-110v85h110v119h92v-119h111v-85h-111z" />
    <glyph glyph-name="minus.sup" unicode="&#x207b;" horiz-adv-x="391" 
d="M39 539v85h313v-85h-313z" />
    <glyph glyph-name="zero.sub" unicode="&#x2080;" horiz-adv-x="457" 
d="M229 -96q-42 0 -78 15t-62.5 44.5t-42 72.5t-15.5 100t15.5 100t42 72.5t62.5 44.5t78 15t78 -15t62.5 -44t41.5 -72t15 -100q0 -56 -15 -99.5t-41.5 -73t-62.5 -45t-78 -15.5zM228 -12q37 0 60 34t23 114t-23.5 113.5t-58.5 33.5q-36 0 -59 -33.5t-23 -113.5t23 -114
t58 -34z" />
    <glyph glyph-name="one.sub" unicode="&#x2081;" horiz-adv-x="304" 
d="M244 -90h-110v330l-104 -96v113l113 105h101v-452z" />
    <glyph glyph-name="two.sub" unicode="&#x2082;" horiz-adv-x="373" 
d="M342 -90h-316v100q55 38 93.5 68.5t62 55.5t34 46t10.5 40q0 29 -18 46t-52 17q-41 0 -70 -13t-49 -27v85q20 13 53 26t85 13q77 0 119.5 -35t42.5 -104q0 -29 -12 -56t-37 -54.5t-63 -57t-90 -63.5h207v-87z" />
    <glyph glyph-name="three.sub" unicode="&#x2083;" horiz-adv-x="369" 
d="M338 43q0 -64 -47 -101.5t-131 -37.5q-49 0 -85 11.5t-53 23.5v88q17 -12 47 -25.5t78 -13.5q78 0 78 59q0 27 -20 41t-54 14h-54v81h56q28 0 44 13.5t16 39.5q0 48 -60 48q-40 0 -73 -13.5t-50 -25.5v84q17 12 53 25t91 13q70 0 110.5 -33t40.5 -87q0 -42 -26 -68
t-62 -33q43 -6 72 -32t29 -71z" />
    <glyph glyph-name="four.sub" unicode="&#x2084;" horiz-adv-x="411" 
d="M327 0v-90h-105v90h-200v81l200 280h105v-279h60v-82h-60zM222 82v152l-108 -152h108z" />
    <glyph glyph-name="five.sub" unicode="&#x2085;" horiz-adv-x="368" 
d="M339 66q0 -79 -50.5 -120.5t-131.5 -41.5q-45 0 -74 9.5t-53 24.5v87q19 -15 48.5 -26t70.5 -11q32 0 54.5 17.5t22.5 54.5q0 31 -16 47.5t-44 16.5q-23 0 -35 -6.5t-20 -12.5h-73v256h279v-86h-187v-85q11 8 28 13t40 5q68 0 104.5 -37.5t36.5 -104.5z" />
    <glyph glyph-name="six.sub" unicode="&#x2086;" horiz-adv-x="421" 
d="M385 58q0 -39 -14.5 -68t-38 -48.5t-54.5 -29t-64 -9.5q-88 0 -134.5 51t-46.5 157q0 55 13 102t40.5 81t69 53.5t98.5 19.5q36 0 59.5 -5.5t43.5 -13.5v-83q-21 9 -47 13.5t-52 4.5q-53 0 -81.5 -26t-35.5 -74q15 14 37.5 22.5t51.5 8.5q30 0 58 -9.5t49.5 -29
t34.5 -48.5t13 -69zM210 -12q27 0 45 17.5t18 52.5q0 36 -18 53t-44 17q-28 0 -47 -17t-19 -54q0 -34 17 -51.5t48 -17.5z" />
    <glyph glyph-name="seven.sub" unicode="&#x2087;" horiz-adv-x="364" 
d="M189 -90h-117l146 363h-196v88h323v-50z" />
    <glyph glyph-name="eight.sub" unicode="&#x2088;" horiz-adv-x="404" 
d="M377 34q0 -31 -13.5 -55t-37 -40.5t-55 -25.5t-68.5 -9q-38 0 -70 8.5t-55.5 25t-36.5 40.5t-13 54q0 42 25.5 69.5t68.5 41.5q-35 12 -56.5 36.5t-21.5 64.5q0 30 12 53t33.5 38.5t50.5 24t63 8.5q33 0 62 -8t50.5 -23.5t33.5 -38.5t12 -53q0 -40 -21 -65t-56 -37
q42 -13 67.5 -40t25.5 -69zM203 181q24 0 39 13.5t15 38.5q0 26 -15 38.5t-39 12.5t-39.5 -14t-15.5 -37q0 -24 15.5 -38t39.5 -14zM203 -12q26 0 45 14.5t19 43.5q0 27 -19 42.5t-45 15.5q-29 0 -47.5 -15.5t-18.5 -42.5q0 -29 18.5 -43.5t47.5 -14.5z" />
    <glyph glyph-name="nine.sub" unicode="&#x2089;" horiz-adv-x="413" 
d="M379 164q0 -57 -13 -105t-40 -82.5t-69 -54t-99 -19.5q-36 0 -60.5 5.5t-44.5 13.5v84q22 -9 48 -13.5t52 -4.5q54 0 82.5 25.5t36.5 73.5q-16 -14 -38 -22.5t-51 -8.5q-32 0 -60 9.5t-49 28.5t-33 48t-12 69q0 39 14 68t38 48.5t54.5 29.5t63.5 10q37 0 69.5 -10.5
t57 -34.5t39 -63t14.5 -95zM202 283q-27 0 -45 -18t-18 -53t18 -52.5t44 -17.5q28 0 47.5 17.5t19.5 52.5t-17.5 53t-48.5 18z" />
    <glyph glyph-name="plus.sub" unicode="&#x208a;" horiz-adv-x="391" 
d="M241 114v-121h-92v121h-110v85h110v119h92v-119h111v-85h-111z" />
    <glyph glyph-name="minus.sub" unicode="&#x208b;" horiz-adv-x="391" 
d="M39 124v85h313v-85h-313z" />
    <glyph glyph-name="colonsign" unicode="&#x20a1;" horiz-adv-x="651" 
d="M602 788h100l-328 -876h-100zM442 788h100l-328 -876h-100zM407 -10q-85 0 -153.5 25t-117 72.5t-74.5 115.5t-26 155t25.5 155t73.5 115.5t116.5 72.5t155.5 25q75 0 125.5 -13.5t79.5 -30.5v-123q-35 22 -86 35t-111 13q-118 0 -174 -62t-56 -187q0 -249 232 -249
q60 0 109.5 13.5t85.5 38.5v-120q-27 -20 -78.5 -35.5t-126.5 -15.5z" />
    <glyph glyph-name="uni20A2" unicode="&#x20a2;" horiz-adv-x="651" 
d="M612 273q-42 2 -72 -12t-55 -44v-157h-145v359h136l6 -92h2q20 48 51.5 75t76.5 27v-156v0zM407 -10q-85 0 -153.5 25t-117 72.5t-74.5 115.5t-26 155t25.5 155t73.5 115.5t116.5 72.5t155.5 25q75 0 125.5 -13.5t79.5 -30.5v-123q-35 22 -86 35t-111 13q-118 0 -174 -62
t-56 -187q0 -249 232 -249q60 0 109.5 13.5t85.5 38.5v-120q-27 -20 -78.5 -35.5t-126.5 -15.5z" />
    <glyph glyph-name="franc" unicode="&#x20a3;" horiz-adv-x="580" 
d="M6 202h60v515h482v-131h-322v-172h273v-130h-273v-82h164v-100h-164v-102h-160v102h-60v100z" />
    <glyph glyph-name="lira" unicode="&#x20a4;" horiz-adv-x="532" 
d="M47 309h90q-3 14 -6.5 26t-7.5 24h-76v100h46q-6 25 -6 54q0 49 16 88.5t48.5 67.5t80.5 43t111 15q51 0 90 -8.5t54 -14.5v-120q-9 4 -23 8t-31 7t-35.5 5t-36.5 2q-69 0 -94 -28t-24 -73q0 -23 5 -46h186v-100h-160q2 -11 4 -23.5t4 -26.5h152v-100h-157
q-6 -23 -18 -45.5t-31 -43.5h284v-120h-455v81q38 30 59 61.5t26 66.5h-95v100z" />
    <glyph glyph-name="mill" unicode="&#x20a5;" horiz-adv-x="877" 
d="M362 242v104q0 35 -16.5 48.5t-42.5 13.5q-32 0 -54 -13.5t-38 -33.5v-361h-155v519h146l6 -73h2q21 35 57 59t91 24q37 0 68 -12.5t53 -37.5l88 177h100l-68 -138q31 11 67 11q34 0 63 -10.5t51 -31t34.5 -51.5t12.5 -73v-363h-156v342q0 35 -17.5 50.5t-44.5 15.5
q-32 0 -54 -15.5t-37 -38.5v-354h-156v39l-64 -129h-100z" />
    <glyph glyph-name="uni20A6" unicode="&#x20a6;" horiz-adv-x="725" 
d="M10 334h70v50h-70v90h70v243h192l116 -243h128v243h129v-243h70v-90h-70v-50h70v-90h-70v-244h-188l-116 244h-131v-244h-130v244h-70v90zM232 474l-22 45v-45h22zM298 334l-24 50h-64v-50h88zM516 334v50h-86l24 -50h62zM516 204v40h-19z" />
    <glyph glyph-name="uni20A7" unicode="&#x20a7;" horiz-adv-x="1474" 
d="M71 717h238q138 0 213.5 -53t75.5 -171q0 -63 -20.5 -109t-58.5 -75.5t-92 -43.5t-120 -14h-93v-251h-143v717zM214 597v-228h93q70 0 108.5 26.5t38.5 91.5q0 57 -36.5 83.5t-108.5 26.5h-95zM979 20q-20 -13 -48.5 -21.5t-70.5 -8.5q-45 0 -75 12.5t-48.5 33.5
t-26.5 49.5t-8 61.5v263h-62v109h62v109h138v-109h147v-109h-147v-248q0 -31 14 -46t46 -15q27 0 46 8.5t33 20.5v-110v0zM1234 -10q-38 0 -69 6t-55.5 15t-41.5 19t-27 18v102q10 -9 27 -19t40.5 -18.5t53.5 -14t66 -5.5q54 0 74 15t20 39q0 19 -10 29.5t-26.5 16
t-37.5 8.5t-44 8q-29 6 -58.5 15.5t-53 26.5t-38.5 44.5t-15 69.5q0 77 56 120.5t160 43.5q60 0 102 -13t60 -26v-102q-22 15 -59.5 27t-96.5 12q-55 0 -76.5 -13t-21.5 -38q0 -17 9.5 -26t25.5 -14t36.5 -7.5t42.5 -5.5q29 -5 59 -13.5t54.5 -26.5t40 -47.5t15.5 -74.5
q0 -48 -18 -80.5t-48 -53t-68 -29t-78 -8.5z" />
    <glyph glyph-name="uni20A8" unicode="&#x20a8;" horiz-adv-x="1089" 
d="M849 -10q-38 0 -69 6t-55.5 15t-41.5 19t-27 18v102q10 -9 27 -19t40.5 -18.5t53.5 -14t66 -5.5q54 0 74 15t20 39q0 19 -10 29.5t-26.5 16t-37.5 8.5t-44 8q-29 6 -58.5 15.5t-53 26.5t-38.5 44.5t-15 69.5q0 77 56 120.5t160 43.5q60 0 102 -13t60 -26v-102
q-22 15 -59.5 27t-96.5 12q-55 0 -76.5 -13t-21.5 -38q0 -17 9.5 -26t25.5 -14t36.5 -7.5t42.5 -5.5q29 -5 59 -13.5t54.5 -26.5t40 -47.5t15.5 -74.5q0 -48 -18 -80.5t-48 -53t-68 -29t-78 -8.5zM71 717h253q143 0 214 -52t71 -169q0 -86 -38 -134t-106 -68l176 -294h-165
l-165 277h-97v-277h-143v717zM214 597v-207h109q68 0 105 23.5t37 83.5q0 56 -35.5 78t-105.5 22h-110z" />
    <glyph glyph-name="uni20A9" unicode="&#x20a9;" horiz-adv-x="967" 
d="M20 319h90l-8 40h-82v95h65l-47 263h152l43 -263h116l65 263h163l63 -263h114l47 263h129l-48 -263h65v-95h-82l-7 -40h89v-95h-106l-41 -224h-198l-52 224h-130l-55 -224h-198l-40 224h-107v95zM504 454l-16 85l-18 -85h34zM315 319l10 40h-76l6 -40h60zM528 319l-9 40
h-67l-9 -40h85zM729 319l8 40h-74l9 -40h57zM278 124l21 100h-34zM706 136l12 88h-29z" />
    <glyph glyph-name="uni20AA" unicode="&#x20aa;" horiz-adv-x="843" 
d="M447 151v371q0 52 -21 73.5t-64 21.5h-157v-617h-139v717h359q85 0 123 -38t38 -122v-406h-139zM395 566v-371q0 -52 21.5 -73.5t64.5 -21.5h157v617h139v-717h-360q-85 0 -122.5 38t-37.5 122v406h138z" />
    <glyph glyph-name="dong" unicode="&#x20ab;" horiz-adv-x="633" 
d="M62 -76h515v-100h-515v100zM431 92q-25 -47 -66.5 -74.5t-102.5 -27.5q-44 0 -86 16.5t-74 50t-51.5 84t-19.5 119.5q0 68 19.5 118.5t52 84t74 50t86.5 16.5q57 0 97.5 -22t66.5 -60v118h-150v91h150v61h138v-61h67v-91h-67v-565h-128zM301 101q27 0 50 9.5t40 29.5
t27 49.5t10 70.5q0 81 -36.5 120t-90.5 39q-55 0 -91.5 -40.5t-36.5 -118.5q0 -80 36 -119.5t92 -39.5z" />
    <glyph glyph-name="Euro" unicode="&#x20ac;" 
d="M541 18q-17 -8 -55 -18.5t-95 -10.5q-126 0 -204 63.5t-104 181.5h-72v93h60q-1 8 -1 15.5v15.5v13.5t1 12.5h-60v93h71q26 120 105 185t206 65q56 0 92 -9.5t56 -19.5v-111q-23 11 -56 20t-78 9q-78 0 -120 -35t-58 -104h165v-93h-177v-26v-15.5t1 -15.5h176v-93h-165
q17 -66 58.5 -100t117.5 -34q47 0 82 10t54 19v-111v0z" />
    <glyph glyph-name="uni20AD" unicode="&#x20ad;" horiz-adv-x="681" 
d="M6 394h60v323h160v-323h56l218 323h163l-218 -323h143v-100h-121l206 -294h-187l-205 294h-55v-294h-160v294h-60v100z" />
    <glyph glyph-name="uni20AE" unicode="&#x20ae;" horiz-adv-x="619" 
d="M129 330l360 190v-105l-360 -190v105zM129 175l360 190v-105l-360 -190v105zM378 597v-597h-143v597h-215v120h573v-120h-215z" />
    <glyph glyph-name="uni20B1" unicode="&#x20b1;" horiz-adv-x="685" 
d="M10 439h70v29h-70v95h70v154h241q115 0 188 -36t99 -118h67v-95h-54v-15t-1 -14h55v-96h-75q-32 -79 -103.5 -116t-175.5 -37h-81v-190h-160v343h-70v96zM240 592v-29h183q-33 29 -102 29h-81zM461 468h-221v-29h220q1 5 1 11v13v5zM321 315q65 0 99 28h-180v-28h81z" />
    <glyph glyph-name="guarani" unicode="&#x20b2;" horiz-adv-x="744" 
d="M329 674v180h126v-178zM328 62l127 2v-219h-127v217zM706 287q0 -63 -19.5 -117.5t-58.5 -94t-98.5 -62.5t-139.5 -23t-145 25.5t-111.5 73.5t-72 116t-25.5 153t25 153t73.5 116t120 73.5t164.5 25.5q45 0 80.5 -5t63.5 -13.5t50 -19t40 -20.5v-123q-45 26 -99 44
t-128 18q-128 0 -184.5 -65.5t-56.5 -183.5q0 -119 53.5 -184t152.5 -65q45 0 77.5 12.5t53.5 34t30.5 51t9.5 63.5h-192v119h336v-102v0z" />
    <glyph glyph-name="austral" unicode="&#x20b3;" horiz-adv-x="710" 
d="M81 153h-51v100h84l16 51h-100v100h132l101 313h184l101 -313h132v-100h-100l16 -51h84v-100h-51l49 -153h-159l-48 153h-257l-49 -153h-133zM392 404l-49 154l-49 -154h98zM439 253l-16 51h-161l-16 -51h193z" />
    <glyph glyph-name="uni20B4" unicode="&#x20b4;" 
d="M470 55q-10 -9 -26 -20.5t-39.5 -21.5t-54 -17t-69.5 -7q-44 0 -82.5 12t-67 36.5t-45 62t-16.5 87.5q0 33 9 60h-47v92h111q21 18 46.5 31.5t51.5 24.5l5 2h-214v93h313q5 20 5 41q0 41 -21 63t-67 22q-24 0 -47 -4.5t-42.5 -11t-35 -15t-24.5 -16.5v110q17 14 58 31
t112 17q46 0 82.5 -13.5t61.5 -36.5t38.5 -54t13.5 -66q0 -37 -9 -67h49v-93h-106q-20 -20 -44.5 -34t-50.5 -24h201v-92h-315q-10 -25 -10 -50q0 -50 26 -73.5t74 -23.5q31 0 58 6.5t49 16.5t39.5 21.5t29.5 20.5v-110v0z" />
    <glyph glyph-name="cedi" unicode="&#x20b5;" horiz-adv-x="656" 
d="M311 674v180h126v-178zM310 62l127 2v-219h-127v217zM407 -10q-85 0 -153.5 25t-117 72.5t-74.5 115.5t-26 155t25.5 155t73.5 115.5t116.5 72.5t155.5 25q75 0 125.5 -13.5t79.5 -30.5v-123q-35 22 -86 35t-111 13q-118 0 -174 -62t-56 -187q0 -249 232 -249
q60 0 109.5 13.5t85.5 38.5v-120q-27 -20 -78.5 -35.5t-126.5 -15.5z" />
    <glyph glyph-name="uni20B8" unicode="&#x20b8;" 
d="M28 717h495v-93h-495v93zM347 446v-446h-144v446h-175v120h495v-120h-176z" />
    <glyph glyph-name="uni20B9" unicode="&#x20b9;" horiz-adv-x="615" 
d="M191 394q46 0 76.5 10.5t44.5 35.5h-256v100h256q-14 25 -44.5 35.5t-78.5 10.5h-133v131h509v-100h-133q17 -15 28 -34.5t17 -42.5h88v-100h-87q-11 -63 -48 -99.5t-96 -53.5l211 -287h-185l-198 271h-106v123h135v0z" />
    <glyph glyph-name="uni20BA" unicode="&#x20ba;" horiz-adv-x="643" 
d="M10 195l66 34v50l-66 -34v105l66 34v333h160v-251l145 74v-105l-145 -74v-50l145 74v-105l-145 -74v-76h16q58 0 96.5 12.5t62 39.5t33 70t9.5 103h160q0 -86 -17.5 -152.5t-59.5 -111.5t-111 -68t-172 -23h-177v124l-66 -34v105z" />
    <glyph glyph-name="manat" unicode="&#x20bc;" horiz-adv-x="814" 
d="M344 108v483q-41 -8 -68.5 -27t-44 -46.5t-24 -63.5t-7.5 -78v-376h-160v390q0 68 20.5 125.5t59.5 101t95.5 71t128.5 35.5v131h126v-131q72 -8 128.5 -35.5t95.5 -71t59.5 -101t20.5 -125.5v-390h-160v376q0 42 -7.5 78t-24 63.5t-44.5 46.5t-68 27v-483h-126z" />
    <glyph glyph-name="uni20BD" unicode="&#x20bd;" 
d="M91 392v325h193q55 0 100.5 -12.5t77.5 -38.5t50 -66t18 -95q0 -56 -18.5 -94.5t-51.5 -63.5t-79 -36t-101 -11h-46v-60h195v-92h-195v-148h-143v148h-71v92h71v60h-71v92h71zM234 606v-214h48q106 0 106 112q0 56 -24.5 79t-79.5 23h-50z" />
    <glyph glyph-name="uni20BE" unicode="&#x20be;" horiz-adv-x="717" 
d="M244 358v180q-21 -29 -33 -73.5t-12 -106.5q0 -117 47 -172.5t144 -55.5h252v-130h-601v130h62q-33 43 -51 99.5t-18 125.5q0 70 15.5 127.5t43 101.5t66 75t85.5 48v147h100v-128h31v128h100v-148q46 -17 84 -47.5t65.5 -74.5t43 -100.5t15.5 -125.5h-165
q0 60 -11.5 104t-31.5 73v-177h-100v237q-5 1 -8.5 1h-8.5q-9 0 -14 -1v-237h-100z" />
    <glyph glyph-name="uni2116" unicode="&#x2116;" horiz-adv-x="1105" 
d="M1073 536q0 -41 -14.5 -75.5t-40 -60t-61 -40t-76.5 -14.5q-42 0 -77 14.5t-60.5 40t-40 60t-14.5 75.5t14.5 76t40 60.5t60.5 39.5t77 14q41 0 76.5 -14t61 -39.5t40 -60.5t14.5 -76zM626 0h-179l-249 533v-533h-127v717h181l247 -527v527h127v-717zM794 536
q0 -42 23.5 -68t63.5 -26t63 26t23 68q0 43 -23 69t-63 26t-63.5 -26t-23.5 -69z" />
    <glyph glyph-name="trademark" unicode="&#x2122;" horiz-adv-x="895" 
d="M750 581l-81 -197h-96l-78 201v-263h-89v395h137l88 -227l98 227h125v-395h-104v259zM235 632v-310h-103v310h-119v85h341v-85h-119z" />
    <glyph glyph-name="onethird" unicode="&#x2153;" horiz-adv-x="1007" 
d="M155 0l562 717h108l-563 -717h-107zM964 133q0 -64 -47 -101.5t-131 -37.5q-49 0 -85 11.5t-53 23.5v88q17 -12 47 -25.5t78 -13.5q78 0 78 59q0 27 -20 41t-54 14h-54v81h56q28 0 44 13.5t16 39.5q0 48 -60 48q-40 0 -73 -13.5t-50 -25.5v84q17 12 53 25t91 13
q70 0 110.5 -33t40.5 -87q0 -42 -26 -68t-62 -33q43 -6 72 -32t29 -71zM254 265h-110v330l-104 -96v113l113 105h101v-452z" />
    <glyph glyph-name="twothirds" unicode="&#x2154;" horiz-adv-x="1079" 
d="M352 265h-316v100q55 38 93.5 68.5t62 55.5t34 46t10.5 40q0 29 -18 46t-52 17q-41 0 -70 -13t-49 -27v85q20 13 53 26t85 13q77 0 119.5 -35t42.5 -104q0 -29 -12 -56t-37 -54.5t-63 -57t-90 -63.5h207v-87zM218 0l562 717h108l-563 -717h-107zM1035 134
q0 -64 -47 -101.5t-131 -37.5q-49 0 -85 11.5t-53 23.5v88q17 -12 47 -25.5t78 -13.5q78 0 78 59q0 27 -20 41t-54 14h-54v81h56q28 0 44 13.5t16 39.5q0 48 -60 48q-40 0 -73 -13.5t-50 -25.5v84q17 12 53 25t91 13q70 0 110.5 -33t40.5 -87q0 -42 -26 -68t-62 -33
q43 -6 72 -32t29 -71z" />
    <glyph glyph-name="oneeighth" unicode="&#x215b;" horiz-adv-x="998" 
d="M133 0l562 717h108l-563 -717h-107zM961 124q0 -31 -13.5 -55t-37 -40.5t-55 -25.5t-68.5 -9q-38 0 -70 8.5t-55.5 25t-36.5 40.5t-13 54q0 42 25.5 69.5t68.5 41.5q-35 12 -56.5 36.5t-21.5 64.5q0 30 12 53t33.5 38.5t50.5 24t63 8.5q33 0 62 -8t50.5 -23.5t33.5 -38.5
t12 -53q0 -40 -21 -65t-56 -37q42 -13 67.5 -40t25.5 -69zM787 271q24 0 39 13.5t15 38.5q0 26 -15 38.5t-39 12.5t-39.5 -14t-15.5 -37q0 -24 15.5 -38t39.5 -14zM787 78q26 0 45 14.5t19 43.5q0 27 -19 42.5t-45 15.5q-29 0 -47.5 -15.5t-18.5 -42.5q0 -29 18.5 -43.5
t47.5 -14.5zM254 265h-110v330l-104 -96v113l113 105h101v-452z" />
    <glyph glyph-name="threeeighths" unicode="&#x215c;" horiz-adv-x="1036" 
d="M171 0l562 717h108l-563 -717h-107zM1000 124q0 -31 -13.5 -55t-37 -40.5t-55 -25.5t-68.5 -9q-38 0 -70 8.5t-55.5 25t-36.5 40.5t-13 54q0 42 25.5 69.5t68.5 41.5q-35 12 -56.5 36.5t-21.5 64.5q0 30 12 53t33.5 38.5t50.5 24t63 8.5q33 0 62 -8t50.5 -23.5
t33.5 -38.5t12 -53q0 -40 -21 -65t-56 -37q42 -13 67.5 -40t25.5 -69zM826 271q24 0 39 13.5t15 38.5q0 26 -15 38.5t-39 12.5t-39.5 -14t-15.5 -37q0 -24 15.5 -38t39.5 -14zM826 78q26 0 45 14.5t19 43.5q0 27 -19 42.5t-45 15.5q-29 0 -47.5 -15.5t-18.5 -42.5
q0 -29 18.5 -43.5t47.5 -14.5zM348 398q0 -64 -47 -101.5t-131 -37.5q-49 0 -85 11.5t-53 23.5v88q17 -12 47 -25.5t78 -13.5q78 0 78 59q0 27 -20 41t-54 14h-54v81h56q28 0 44 13.5t16 39.5q0 48 -60 48q-40 0 -73 -13.5t-50 -25.5v84q17 12 53 25t91 13q70 0 110.5 -33
t40.5 -87q0 -42 -26 -68t-62 -33q43 -6 72 -32t29 -71z" />
    <glyph glyph-name="fiveeighths" unicode="&#x215d;" horiz-adv-x="1027" 
d="M349 421q0 -79 -50.5 -120.5t-131.5 -41.5q-45 0 -74 9.5t-53 24.5v87q19 -15 48.5 -26t70.5 -11q32 0 54.5 17.5t22.5 54.5q0 31 -16 47.5t-44 16.5q-23 0 -35 -6.5t-20 -12.5h-73v256h279v-86h-187v-85q11 8 28 13t40 5q68 0 104.5 -37.5t36.5 -104.5zM160 0l562 717
h108l-563 -717h-107zM989 124q0 -31 -13.5 -55t-37 -40.5t-55 -25.5t-68.5 -9q-38 0 -70 8.5t-55.5 25t-36.5 40.5t-13 54q0 42 25.5 69.5t68.5 41.5q-35 12 -56.5 36.5t-21.5 64.5q0 30 12 53t33.5 38.5t50.5 24t63 8.5q33 0 62 -8t50.5 -23.5t33.5 -38.5t12 -53
q0 -40 -21 -65t-56 -37q42 -13 67.5 -40t25.5 -69zM815 271q24 0 39 13.5t15 38.5q0 26 -15 38.5t-39 12.5t-39.5 -14t-15.5 -37q0 -24 15.5 -38t39.5 -14zM815 78q26 0 45 14.5t19 43.5q0 27 -19 42.5t-45 15.5q-29 0 -47.5 -15.5t-18.5 -42.5q0 -29 18.5 -43.5t47.5 -14.5
z" />
    <glyph glyph-name="seveneighths" unicode="&#x215e;" horiz-adv-x="944" 
d="M199 265h-117l146 363h-196v88h323v-50zM78 0l562 717h108l-563 -717h-107zM906 124q0 -31 -13.5 -55t-37 -40.5t-55 -25.5t-68.5 -9q-38 0 -70 8.5t-55.5 25t-36.5 40.5t-13 54q0 42 25.5 69.5t68.5 41.5q-35 12 -56.5 36.5t-21.5 64.5q0 30 12 53t33.5 38.5t50.5 24
t63 8.5q33 0 62 -8t50.5 -23.5t33.5 -38.5t12 -53q0 -40 -21 -65t-56 -37q42 -13 67.5 -40t25.5 -69zM732 271q24 0 39 13.5t15 38.5q0 26 -15 38.5t-39 12.5t-39.5 -14t-15.5 -37q0 -24 15.5 -38t39.5 -14zM732 78q26 0 45 14.5t19 43.5q0 27 -19 42.5t-45 15.5
q-29 0 -47.5 -15.5t-18.5 -42.5q0 -29 18.5 -43.5t47.5 -14.5z" />
    <glyph glyph-name="minus" unicode="&#x2212;" 
d="M25 287v100h501v-100h-501z" />
    <glyph glyph-name="approxequal" unicode="&#x2248;" 
d="M1 362q1 37 10.5 72t29.5 62.5t51 44t76 16.5q43 0 73 -14t54 -31t44.5 -31t44.5 -14q29 0 46 23.5t25 75.5h94q-1 -37 -10.5 -72.5t-30 -63t-51 -44t-73.5 -16.5q-44 0 -74.5 14t-54.5 31t-44.5 31t-43.5 14q-29 0 -46.5 -23.5t-25.5 -74.5h-94zM1 122q1 37 10.5 72
t29.5 62.5t51 44t76 16.5q43 0 73.5 -14t54 -31t44 -31t43.5 -14q29 0 46.5 23.5t25.5 75.5h94q-1 -37 -10.5 -72.5t-29.5 -63t-51.5 -44t-75.5 -16.5q-43 0 -73.5 14t-54 31t-44 31t-43.5 14q-29 0 -46.5 -23.5t-25.5 -74.5h-94z" />
    <glyph glyph-name="notequal" unicode="&#x2260;" 
d="M265 177l-49 -120h-111l49 120h-129v100h170l50 120h-220v100h261l49 120h110l-49 -120h130v-100h-171l-49 -120h220v-100h-261z" />
    <glyph glyph-name="lessequal" unicode="&#x2264;" 
d="M44 306v120l462 169v-110l-323 -119l323 -119v-110zM44 0v100h462v-100h-462z" />
    <glyph glyph-name="greaterequal" unicode="&#x2265;" 
d="M44 247l322 119l-322 119v110l462 -169v-120l-462 -169v110zM44 100h462v-100h-462v100z" />
    <glyph glyph-name="uni24C5" unicode="&#x24c5;" horiz-adv-x="902" 
d="M451 -96q-87 0 -162 30.5t-130.5 85.5t-87 131t-31.5 166q0 89 31.5 164t87 129.5t130.5 85t162 30.5t162.5 -30.5t130.5 -85t86.5 -129.5t31.5 -164q0 -90 -31.5 -166t-86.5 -131t-130.5 -85.5t-162.5 -30.5zM451 -34q76 0 139.5 26t109 73t70.5 111t25 141
q0 75 -25 139t-70.5 110.5t-109 72.5t-139.5 26t-139.5 -26t-109 -72.5t-70.5 -110.5t-25 -139q0 -77 25 -141t70.5 -111t109 -73t139.5 -26zM318 524h145q79 0 121.5 -32t42.5 -97q0 -30 -9 -56.5t-29 -45.5t-51 -30t-76 -11h-66v-145h-78v417zM396 454v-132h65
q39 0 61.5 16t22.5 53q0 34 -21 48.5t-61 14.5h-67z" />
    <glyph glyph-name="zero.den" unicode="&#xe402;" horiz-adv-x="457" 
d="M229 -6q-42 0 -78 15t-62.5 44.5t-42 72.5t-15.5 100t15.5 100t42 72.5t62.5 44.5t78 15t78 -15t62.5 -44t41.5 -72t15 -100q0 -56 -15 -99.5t-41.5 -73t-62.5 -45t-78 -15.5zM228 78q37 0 60 34t23 114t-23.5 113.5t-58.5 33.5q-36 0 -59 -33.5t-23 -113.5t23 -114
t58 -34z" />
    <glyph glyph-name="one.den" unicode="&#xe403;" horiz-adv-x="304" 
d="M244 0h-110v330l-104 -96v113l113 105h101v-452z" />
    <glyph glyph-name="two.den" unicode="&#xe404;" horiz-adv-x="373" 
d="M342 0h-316v100q55 38 93.5 68.5t62 55.5t34 46t10.5 40q0 29 -18 46t-52 17q-41 0 -70 -13t-49 -27v85q20 13 53 26t85 13q77 0 119.5 -35t42.5 -104q0 -29 -12 -56t-37 -54.5t-63 -57t-90 -63.5h207v-87z" />
    <glyph glyph-name="three.den" unicode="&#xe405;" horiz-adv-x="369" 
d="M338 133q0 -64 -47 -101.5t-131 -37.5q-49 0 -85 11.5t-53 23.5v88q17 -12 47 -25.5t78 -13.5q78 0 78 59q0 27 -20 41t-54 14h-54v81h56q28 0 44 13.5t16 39.5q0 48 -60 48q-40 0 -73 -13.5t-50 -25.5v84q17 12 53 25t91 13q70 0 110.5 -33t40.5 -87q0 -42 -26 -68
t-62 -33q43 -6 72 -32t29 -71z" />
    <glyph glyph-name="four.den" unicode="&#xe406;" horiz-adv-x="413" 
d="M327 90v-90h-105v90h-200v81l200 280h105v-279h60v-82h-60zM222 172v152l-108 -152h108z" />
    <glyph glyph-name="five.den" unicode="&#xe407;" horiz-adv-x="368" 
d="M339 156q0 -79 -50.5 -120.5t-131.5 -41.5q-45 0 -74 9.5t-53 24.5v87q19 -15 48.5 -26t70.5 -11q32 0 54.5 17.5t22.5 54.5q0 31 -16 47.5t-44 16.5q-23 0 -35 -6.5t-20 -12.5h-73v256h279v-86h-187v-85q11 8 28 13t40 5q68 0 104.5 -37.5t36.5 -104.5z" />
    <glyph glyph-name="six.den" unicode="&#xe408;" horiz-adv-x="421" 
d="M385 148q0 -39 -14.5 -68t-38 -48.5t-54.5 -29t-64 -9.5q-88 0 -134.5 51t-46.5 157q0 55 13 102t40.5 81t69 53.5t98.5 19.5q36 0 59.5 -5.5t43.5 -13.5v-83q-21 9 -47 13.5t-52 4.5q-53 0 -81.5 -26t-35.5 -74q15 14 37.5 22.5t51.5 8.5q30 0 58 -9.5t49.5 -29
t34.5 -48.5t13 -69zM210 78q27 0 45 17.5t18 52.5q0 36 -18 53t-44 17q-28 0 -47 -17t-19 -54q0 -34 17 -51.5t48 -17.5z" />
    <glyph glyph-name="seven.den" unicode="&#xe409;" horiz-adv-x="364" 
d="M189 0h-117l146 363h-196v88h323v-50z" />
    <glyph glyph-name="eight.den" unicode="&#xe40a;" horiz-adv-x="404" 
d="M377 124q0 -31 -13.5 -55t-37 -40.5t-55 -25.5t-68.5 -9q-38 0 -70 8.5t-55.5 25t-36.5 40.5t-13 54q0 42 25.5 69.5t68.5 41.5q-35 12 -56.5 36.5t-21.5 64.5q0 30 12 53t33.5 38.5t50.5 24t63 8.5q33 0 62 -8t50.5 -23.5t33.5 -38.5t12 -53q0 -40 -21 -65t-56 -37
q42 -13 67.5 -40t25.5 -69zM203 271q24 0 39 13.5t15 38.5q0 26 -15 38.5t-39 12.5t-39.5 -14t-15.5 -37q0 -24 15.5 -38t39.5 -14zM203 78q26 0 45 14.5t19 43.5q0 27 -19 42.5t-45 15.5q-29 0 -47.5 -15.5t-18.5 -42.5q0 -29 18.5 -43.5t47.5 -14.5z" />
    <glyph glyph-name="nine.den" unicode="&#xe40b;" horiz-adv-x="413" 
d="M379 254q0 -57 -13 -105t-40 -82.5t-69 -54t-99 -19.5q-36 0 -60.5 5.5t-44.5 13.5v84q22 -9 48 -13.5t52 -4.5q54 0 82.5 25.5t36.5 73.5q-16 -14 -38 -22.5t-51 -8.5q-32 0 -60 9.5t-49 28.5t-33 48t-12 69q0 39 14 68t38 48.5t54.5 29.5t63.5 10q37 0 69.5 -10.5
t57 -34.5t39 -63t14.5 -95zM202 373q-27 0 -45 -18t-18 -53t18 -52.5t44 -17.5q28 0 47.5 17.5t19.5 52.5t-17.5 53t-48.5 18z" />
    <glyph glyph-name="zero.num" unicode="&#xe416;" horiz-adv-x="457" 
d="M229 259q-42 0 -78 15t-62.5 44.5t-42 72.5t-15.5 100t15.5 100t42 72.5t62.5 44.5t78 15t78 -15t62.5 -44t41.5 -72t15 -100q0 -56 -15 -99.5t-41.5 -73t-62.5 -45t-78 -15.5zM228 343q37 0 60 34t23 114t-23.5 113.5t-58.5 33.5q-36 0 -59 -33.5t-23 -113.5t23 -114
t58 -34z" />
    <glyph glyph-name="one.num" unicode="&#xe417;" horiz-adv-x="304" 
d="M244 265h-110v330l-104 -96v113l113 105h101v-452z" />
    <glyph glyph-name="two.num" unicode="&#xe418;" horiz-adv-x="373" 
d="M342 265h-316v100q55 38 93.5 68.5t62 55.5t34 46t10.5 40q0 29 -18 46t-52 17q-41 0 -70 -13t-49 -27v85q20 13 53 26t85 13q77 0 119.5 -35t42.5 -104q0 -29 -12 -56t-37 -54.5t-63 -57t-90 -63.5h207v-87z" />
    <glyph glyph-name="three.num" unicode="&#xe419;" horiz-adv-x="369" 
d="M338 398q0 -64 -47 -101.5t-131 -37.5q-49 0 -85 11.5t-53 23.5v88q17 -12 47 -25.5t78 -13.5q78 0 78 59q0 27 -20 41t-54 14h-54v81h56q28 0 44 13.5t16 39.5q0 48 -60 48q-40 0 -73 -13.5t-50 -25.5v84q17 12 53 25t91 13q70 0 110.5 -33t40.5 -87q0 -42 -26 -68
t-62 -33q43 -6 72 -32t29 -71z" />
    <glyph glyph-name="four.num" unicode="&#xe41a;" horiz-adv-x="411" 
d="M327 355v-90h-105v90h-200v81l200 280h105v-279h60v-82h-60zM222 437v152l-108 -152h108z" />
    <glyph glyph-name="five.num" unicode="&#xe41b;" horiz-adv-x="368" 
d="M339 421q0 -79 -50.5 -120.5t-131.5 -41.5q-45 0 -74 9.5t-53 24.5v87q19 -15 48.5 -26t70.5 -11q32 0 54.5 17.5t22.5 54.5q0 31 -16 47.5t-44 16.5q-23 0 -35 -6.5t-20 -12.5h-73v256h279v-86h-187v-85q11 8 28 13t40 5q68 0 104.5 -37.5t36.5 -104.5z" />
    <glyph glyph-name="six.num" unicode="&#xe41c;" horiz-adv-x="421" 
d="M385 413q0 -39 -14.5 -68t-38 -48.5t-54.5 -29t-64 -9.5q-88 0 -134.5 51t-46.5 157q0 55 13 102t40.5 81t69 53.5t98.5 19.5q36 0 59.5 -5.5t43.5 -13.5v-83q-21 9 -47 13.5t-52 4.5q-53 0 -81.5 -26t-35.5 -74q15 14 37.5 22.5t51.5 8.5q30 0 58 -9.5t49.5 -29
t34.5 -48.5t13 -69zM210 343q27 0 45 17.5t18 52.5q0 36 -18 53t-44 17q-28 0 -47 -17t-19 -54q0 -34 17 -51.5t48 -17.5z" />
    <glyph glyph-name="seven.num" unicode="&#xe41d;" horiz-adv-x="364" 
d="M189 265h-117l146 363h-196v88h323v-50z" />
    <glyph glyph-name="eight.num" unicode="&#xe41e;" horiz-adv-x="404" 
d="M377 389q0 -31 -13.5 -55t-37 -40.5t-55 -25.5t-68.5 -9q-38 0 -70 8.5t-55.5 25t-36.5 40.5t-13 54q0 42 25.5 69.5t68.5 41.5q-35 12 -56.5 36.5t-21.5 64.5q0 30 12 53t33.5 38.5t50.5 24t63 8.5q33 0 62 -8t50.5 -23.5t33.5 -38.5t12 -53q0 -40 -21 -65t-56 -37
q42 -13 67.5 -40t25.5 -69zM203 536q24 0 39 13.5t15 38.5q0 26 -15 38.5t-39 12.5t-39.5 -14t-15.5 -37q0 -24 15.5 -38t39.5 -14zM203 343q26 0 45 14.5t19 43.5q0 27 -19 42.5t-45 15.5q-29 0 -47.5 -15.5t-18.5 -42.5q0 -29 18.5 -43.5t47.5 -14.5z" />
    <glyph glyph-name="nine.num" unicode="&#xe41f;" horiz-adv-x="413" 
d="M379 519q0 -57 -13 -105t-40 -82.5t-69 -54t-99 -19.5q-36 0 -60.5 5.5t-44.5 13.5v84q22 -9 48 -13.5t52 -4.5q54 0 82.5 25.5t36.5 73.5q-16 -14 -38 -22.5t-51 -8.5q-32 0 -60 9.5t-49 28.5t-33 48t-12 69q0 39 14 68t38 48.5t54.5 29.5t63.5 10q37 0 69.5 -10.5
t57 -34.5t39 -63t14.5 -95zM202 638q-27 0 -45 -18t-18 -53t18 -52.5t44 -17.5q28 0 47.5 17.5t19.5 52.5t-17.5 53t-48.5 18z" />
    <glyph glyph-name="commaaccent" unicode="&#xf6c3;" horiz-adv-x="441" 
d="M300 -120q0 -39 -20.5 -70.5t-44.5 -54.5h-84q17 15 30.5 31.5t24.5 37.5q-22 5 -35.5 22t-13.5 43q0 28 18.5 47.5t49.5 19.5q32 0 53.5 -19t21.5 -57z" />
    <glyph glyph-name="f_f" unicode="&#xfb00;" horiz-adv-x="739" 
d="M564 410v-410h-138v410h-189v-410h-138v410h-61v109h61v6q0 48 15 85t43 62.5t67 38.5t86 13q19 0 33.5 -1.5t25.5 -3.5v-110q-20 5 -47 5q-38 0 -61.5 -21t-23.5 -68v-6h189v6q0 48 15 85t43 63t67 39.5t86 13.5q30 0 48 -2.5t32 -6.5v-112q-9 4 -26.5 7.5t-41.5 3.5
q-38 0 -61.5 -22t-23.5 -69v-6h142v-109h-142z" />
    <glyph glyph-name="fi" unicode="&#xfb01;" horiz-adv-x="643" 
d="M237 410v-410h-138v410h-61v109h61v6q0 48 15 85t43 63t67 39.5t86 13.5q30 0 48 -2.5t32 -6.5v-112q-9 4 -26.5 7.5t-41.5 3.5q-38 0 -61.5 -22t-23.5 -69v-6h142v-109h-142zM514 577q-36 0 -60.5 24t-24.5 58t24.5 58t60.5 24q18 0 33 -6.5t26.5 -17.5t18 -26t6.5 -32
t-6.5 -32t-18 -26t-26.5 -17.5t-33 -6.5zM583 519v-519h-138v519h138z" />
    <glyph glyph-name="fl" unicode="&#xfb02;" horiz-adv-x="643" 
d="M237 410v-410h-138v410h-61v109h61v6q0 48 15 85t43 63t67 39.5t86 13.5q30 0 48 -2.5t32 -6.5v-112q-9 4 -26.5 7.5t-41.5 3.5q-38 0 -61.5 -22t-23.5 -69v-6h142v-109h-142zM583 717v-717h-138v717h138z" />
    <glyph glyph-name="uniFEFF" unicode="&#xfeff;" horiz-adv-x="0" 
 />
    <glyph glyph-name="idotaccent" horiz-adv-x="260" 
d="M130 577q-36 0 -60.5 24t-24.5 58t24.5 58t60.5 24q18 0 33 -6.5t26.5 -17.5t18 -26t6.5 -32t-6.5 -32t-18 -26t-26.5 -17.5t-33 -6.5zM199 519v-519h-138v519h138z" />
    <glyph glyph-name="space_uni0326" horiz-adv-x="451" 
d="M300 -120q0 -39 -20.5 -70.5t-44.5 -54.5h-84q17 15 30.5 31.5t24.5 37.5q-22 5 -35.5 22t-13.5 43q0 28 18.5 47.5t49.5 19.5q32 0 53.5 -19t21.5 -57z" />
    <glyph glyph-name="one.sup" horiz-adv-x="304" 
d="M244 325h-110v330l-104 -96v113l113 105h101v-452z" />
    <glyph glyph-name="two.sup" horiz-adv-x="373" 
d="M342 325h-316v100q55 38 93.5 68.5t62 55.5t34 46t10.5 40q0 29 -18 46t-52 17q-41 0 -70 -13t-49 -27v85q20 13 53 26t85 13q77 0 119.5 -35t42.5 -104q0 -29 -12 -56t-37 -54.5t-63 -57t-90 -63.5h207v-87z" />
    <glyph glyph-name="three.sup" horiz-adv-x="369" 
d="M338 458q0 -64 -47 -101.5t-131 -37.5q-49 0 -85 11.5t-53 23.5v88q17 -12 47 -25.5t78 -13.5q78 0 78 59q0 27 -20 41t-54 14h-54v81h56q28 0 44 13.5t16 39.5q0 48 -60 48q-40 0 -73 -13.5t-50 -25.5v84q17 12 53 25t91 13q70 0 110.5 -33t40.5 -87q0 -42 -26 -68
t-62 -33q43 -6 72 -32t29 -71z" />
    <glyph glyph-name="I.alt" horiz-adv-x="389" 
d="M31 717h328v-113h-94v-491h94v-113h-328v113h94v491h-94v113z" />
    <glyph glyph-name="i.alt" horiz-adv-x="286" 
d="M157 579q-35 0 -58.5 25t-23.5 59q0 18 6.5 33.5t17.5 27t26 18t32 6.5q35 0 58.5 -25t23.5 -60q0 -17 -6 -32t-17 -26.5t-26 -18.5t-33 -7zM-1 519h227v-519h-139v414h-88v105z" />
    <glyph glyph-name="j.alt" horiz-adv-x="288" 
d="M157 579q-35 0 -58.5 25t-23.5 59q0 18 6.5 33.5t17.5 27t26 18t32 6.5t32 -6.5t26.5 -18t18 -27t6.5 -33.5q0 -34 -24 -59t-59 -25zM1 519h226v-542q0 -76 -46.5 -120t-134.5 -44q-26 0 -51 4.5t-48 16.5v112q25 -23 70 -23q40 0 56 20.5t16 50.5v420h-88v105z" />
    <glyph glyph-name="l.alt" horiz-adv-x="276" 
d="M-11 717h227v-717h-139v611h-88v106z" />
    <glyph glyph-name="dotlessi.alt" horiz-adv-x="286" 
d="M-1 519h227v-519h-139v414h-88v105z" />
    <glyph glyph-name="dotlessj.alt" horiz-adv-x="288" 
d="M1 519h226v-542q0 -76 -46.5 -120t-134.5 -44q-26 0 -51 4.5t-48 16.5v112q25 -23 70 -23q40 0 56 20.5t16 50.5v420h-88v105z" />
    <glyph glyph-name="Iacute.alt" horiz-adv-x="389" 
d="M31 717h328v-113h-94v-491h94v-113h-328v113h94v491h-94v113zM205 913h171l-127 -136h-125z" />
    <glyph glyph-name="Ibreve.alt" horiz-adv-x="389" 
d="M31 717h328v-113h-94v-491h94v-113h-328v113h94v491h-94v113zM193 765q-44 0 -76.5 13t-54 35t-32 51.5t-10.5 62.5h106q0 -32 17.5 -49.5t49.5 -17.5q65 0 65 67h108q0 -33 -10.5 -62.5t-32.5 -51.5t-54.5 -35t-75.5 -13z" />
    <glyph glyph-name="Icircumflex.alt" horiz-adv-x="389" 
d="M31 717h328v-113h-94v-491h94v-113h-328v113h94v491h-94v113zM194 849l-73 -75h-107l108 148h143l107 -148h-107z" />
    <glyph glyph-name="Idieresis.alt" horiz-adv-x="389" 
d="M31 717h328v-113h-94v-491h94v-113h-328v113h94v491h-94v113zM71 776q-35 0 -59 24t-24 57q0 35 24 58.5t59 23.5q37 0 61.5 -23.5t24.5 -58.5q0 -33 -24.5 -57t-61.5 -24zM312 776q-18 0 -33.5 6.5t-27 17.5t-18 25.5t-6.5 31.5t6.5 32t18 26t27 17.5t33.5 6.5
t33.5 -6.5t27 -17.5t18 -26t6.5 -32t-6.5 -31.5t-18 -25.5t-27 -17.5t-33.5 -6.5z" />
    <glyph glyph-name="Idotaccent.alt" horiz-adv-x="389" 
d="M31 717h328v-113h-94v-491h94v-113h-328v113h94v491h-94v113zM191 776q-17 0 -32.5 6.5t-27 17.5t-18 25.5t-6.5 31.5q0 35 24.5 58.5t59.5 23.5q18 0 33.5 -6.5t27 -17.5t18 -26t6.5 -32t-6.5 -31.5t-18 -25.5t-27 -17.5t-33.5 -6.5z" />
    <glyph glyph-name="Igrave.alt" horiz-adv-x="389" 
d="M31 717h328v-113h-94v-491h94v-113h-328v113h94v491h-94v113zM136 777l-127 136h172l80 -136h-125z" />
    <glyph glyph-name="Imacron.alt" horiz-adv-x="389" 
d="M31 717h328v-113h-94v-491h94v-113h-328v113h94v491h-94v113zM13 896h361v-100h-361v100z" />
    <glyph glyph-name="Iogonek.alt" horiz-adv-x="389" 
d="M31 717h328v-113h-94v-491h94v-113h-328v113h94v491h-94v113zM240 -189q-59 0 -91 24t-32 66q0 21 8 37t20.5 28t27.5 20.5t29 13.5h87q-22 -9 -40.5 -24t-18.5 -43q0 -43 43 -43q19 0 35 8v-75q-7 -4 -25 -8t-43 -4z" />
    <glyph glyph-name="Itilde.alt" horiz-adv-x="389" 
d="M31 717h328v-113h-94v-491h94v-113h-328v113h94v491h-94v113zM8 771q-7 33 -3.5 61.5t16.5 49.5t35.5 33t53.5 12q26 0 46.5 -7t37.5 -15t31.5 -15t29.5 -7q21 0 30.5 11.5t7.5 38.5h83q7 -33 3.5 -61.5t-16.5 -49.5t-35.5 -33t-53.5 -12q-26 0 -46 7t-37 15t-32 15
t-31 7q-20 0 -29 -11t-7 -39h-84v0z" />
    <glyph glyph-name="iacute.alt" horiz-adv-x="286" 
d="M-1 519h227v-519h-139v414h-88v105zM172 746h147l-128 -158h-101z" />
    <glyph glyph-name="ibreve.alt" horiz-adv-x="286" 
d="M-1 519h227v-519h-139v414h-88v105zM146 577q-42 0 -73.5 12.5t-51.5 33.5t-30 49t-10 59h102q0 -30 16.5 -46t46.5 -16q61 0 61 62h103q0 -31 -10 -59t-30 -49t-51 -33.5t-73 -12.5z" />
    <glyph glyph-name="icircumflex.alt" horiz-adv-x="286" 
d="M-1 519h227v-519h-139v414h-88v105zM136 660l-65 -72h-108l101 148h143l100 -148h-108z" />
    <glyph glyph-name="idieresis.alt" horiz-adv-x="286" 
d="M-1 519h227v-519h-139v414h-88v105zM25 577q-18 0 -33 6.5t-26.5 17.5t-18 26t-6.5 32q0 34 24.5 57.5t59.5 23.5t59.5 -23.5t24.5 -57.5q0 -17 -6.5 -32t-18 -26t-26.5 -17.5t-33 -6.5zM250 577q-35 0 -59 24t-24 58t24 57.5t59 23.5q37 0 61 -23.5t24 -57.5t-24 -58
t-61 -24z" />
    <glyph glyph-name="igrave.alt" horiz-adv-x="286" 
d="M-1 519h227v-519h-139v414h-88v105zM105 588l-127 158h147l81 -158h-101z" />
    <glyph glyph-name="imacron.alt" horiz-adv-x="286" 
d="M-1 519h227v-519h-139v414h-88v105zM-41 695h327v-97h-327v97z" />
    <glyph glyph-name="iogonek.alt" horiz-adv-x="286" 
d="M-1 519h227v-519q-23 -9 -41.5 -24t-18.5 -43q0 -43 43 -43q19 0 35 8v-75q-8 -4 -25.5 -8t-42.5 -4q-59 0 -91 24.5t-32 68.5q0 23 8 41.5t20 32.5q11 13 26 22h-20v414h-88v105zM157 579q-35 0 -58.5 25t-23.5 59q0 18 6.5 33.5t17.5 27t26 18t32 6.5q35 0 58.5 -25
t23.5 -60q0 -17 -6 -32t-17 -26.5t-26 -18.5t-33 -7z" />
    <glyph glyph-name="itilde.alt" horiz-adv-x="286" 
d="M-1 519h227v-519h-139v414h-88v105zM-47 587q-4 26 0 51.5t16.5 45.5t33.5 32t51 12q23 0 41 -6.5t33.5 -14.5t29.5 -14.5t29 -6.5q16 0 24 10t6 38h73q4 -27 0 -52.5t-16.5 -45.5t-33.5 -32t-51 -12q-23 0 -41 6.5t-33.5 14.5t-29.5 14.5t-29 6.5q-16 0 -24 -9.5
t-6 -37.5h-73v0z" />
    <glyph glyph-name="jcircumflex.alt" horiz-adv-x="288" 
d="M1 519h226v-542q0 -76 -46.5 -120t-134.5 -44q-26 0 -51 4.5t-48 16.5v112q25 -23 70 -23q40 0 56 20.5t16 50.5v420h-88v105zM132 660l-65 -72h-108l101 148h143l100 -148h-108z" />
    <glyph glyph-name="lacute.alt" horiz-adv-x="276" 
d="M-11 717h227v-717h-139v611h-88v106zM160 913h171l-127 -136h-125z" />
    <glyph glyph-name="lcaron.alt" horiz-adv-x="276" 
d="M262 528l19 189h128l-58 -189h-89zM-11 717h227v-717h-139v611h-88v106z" />
    <glyph glyph-name="lcommaaccent.alt" horiz-adv-x="276" 
d="M-11 717h227v-717h-139v611h-88v106zM221 -120q0 -39 -20.5 -70.5t-44.5 -54.5h-84q17 15 30.5 31.5t24.5 37.5q-22 5 -35.5 22t-13.5 43q0 28 18.5 47.5t49.5 19.5q32 0 53.5 -19t21.5 -57z" />
    <glyph glyph-name="space_uni0326.alt" horiz-adv-x="441" 
d="M297 665q0 -29 -18.5 -48.5t-49.5 -19.5q-32 0 -53.5 19t-21.5 57q0 40 21 71t44 54h84q-17 -15 -30.5 -31.5t-24.5 -36.5q22 -5 35.5 -22.5t13.5 -42.5z" />
    <glyph glyph-name="one.alt" 
d="M507 0h-458v106h164v441l-164 -129v138l206 161h100v-611h152v-106z" />
    <glyph glyph-name="registered.alt" horiz-adv-x="598" 
d="M299 172q-57 0 -106.5 20.5t-86 57.5t-57.5 88t-21 113q0 60 21 110.5t57.5 87t86 57t106.5 20.5q58 0 107.5 -20.5t86 -57t57 -87t20.5 -110.5q0 -62 -20.5 -113t-57 -88t-86 -57.5t-107.5 -20.5zM299 232q46 0 84.5 16.5t66 45.5t42.5 69t15 88q0 46 -15 85.5
t-42.5 68.5t-66 45t-84.5 16t-84 -16t-65.5 -45t-43 -68.5t-15.5 -85.5q0 -48 15.5 -88t43 -69t65.5 -45.5t84 -16.5zM194 587h103q60 0 90 -21t30 -66q0 -55 -49 -74l61 -110h-80l-55 98h-24v-98h-76v271zM270 528v-59h29q21 0 32.5 6.5t11.5 23.5q0 29 -46 29h-27z" />
    <glyph glyph-name="caron.alt" horiz-adv-x="453" 
d="M161 528l19 189h128l-58 -189h-89z" />
    <glyph glyph-name="questiondown.uc" horiz-adv-x="470" 
d="M36.0273 192.032q0 47.9971 14.999 80.9951t37.498 56.4961q22.498 23.499 48.4971 40.498q25.998 16.999 48.4961 31.998q22.499 14.999 37.498 30.998t14.999 37.9971v21.999h130.992v-20.999q0 -42.9971 -13.999 -70.9951t-34.498 -47.9971t-44.9971 -34.498
q-24.499 -14.499 -44.9971 -30.998q-20.499 -16.499 -34.498 -37.998q-13.999 -21.498 -13.999 -55.4961q0 -17.999 4.99902 -34.498q5 -16.499 17.999 -29.498t36.498 -20.999t60.4961 -8q44.9971 0 77.9951 10.5q32.998 10.499 53.9971 24.498v-110.993
q-22.999 -11.999 -61.9961 -22.998q-38.998 -11 -95.9941 -11q-59.9961 0 -104.994 14.499q-44.9971 14.5 -74.9951 40.998t-44.9971 63.4961t-14.999 81.9951zM301.011 724q18.999 0 35.498 -7t28.998 -19.499t19.499 -28.498t7 -33.998t-7 -33.998t-19.499 -27.998
t-28.998 -18.999q-16.499 -6.99902 -35.498 -6.99902t-35.9971 6.99902q-16.999 7 -29.499 18.999q-12.499 11.999 -19.498 27.998q-7 15.999 -7 33.998t7 33.998q6.99902 15.999 19.498 28.498q12.5 12.499 29.499 19.499q16.998 7 35.9971 7z" />
    <glyph glyph-name="exclamdown.uc" horiz-adv-x="295" 
d="M219 0.0439453l-17 492.97h-109l-16 -492.97h142zM148 724q-19 0 -36 -7t-29.5 -19.499t-19.5 -28.498t-7 -33.998t7 -33.998t19.5 -27.998t29.5 -18.999q17 -6.99902 36 -6.99902t35.5 6.99902q16.5 7 29 18.999t19.5 27.998t7 33.998t-7 33.998t-19.5 28.498
t-29 19.499t-35.5 7z" />
    <glyph glyph-name="hyphen.uc" horiz-adv-x="353" 
d="M52 416h249v-114h-249v114z" />
    <glyph glyph-name="endash.uc" horiz-adv-x="557" 
d="M52 407h454v-105h-454v105z" />
    <glyph glyph-name="emdash.uc" horiz-adv-x="880" 
d="M52 407h815v-105h-815v105z" />
    <glyph glyph-name="guilsinglleft.uc" horiz-adv-x="309" 
d="M159 327l131 -205h-133l-131 206l131 206h133z" />
    <glyph glyph-name="guilsinglright.uc" horiz-adv-x="309" 
d="M152 122h-133l131 205l-131 207h133l132 -206z" />
    <glyph glyph-name="guillemotleft.uc" horiz-adv-x="529" 
d="M379 327l131 -205h-133l-131 206l131 206h133zM159 327l131 -205h-133l-131 206l131 206h133z" />
    <glyph glyph-name="guillemotright.uc" horiz-adv-x="529" 
d="M372 122h-132l130 205l-130 207h132l131 -206zM152 122h-133l131 205l-131 207h133l132 -206z" />
    <glyph glyph-name="parenleft.uc" horiz-adv-x="407" 
d="M229 -78q-76 82 -113 186t-37 229q0 126 37 234.5t113 184.5h140q-80 -75 -118.5 -182.5t-38.5 -233.5q0 -125 38.5 -229.5t118.5 -188.5h-140z" />
    <glyph glyph-name="parenright.uc" horiz-adv-x="407" 
d="M178.014 -78q75.9961 82 112.993 186q36.998 104 36.998 229q0 126 -36.998 234.5q-36.9971 108.5 -112.993 184.5h-139.991q79.9951 -75 118.493 -182.5q38.4971 -107.5 38.4971 -233.5q0 -125 -38.4971 -229.5q-38.498 -104.5 -118.493 -188.5h139.991z" />
    <glyph glyph-name="bracketleft.uc" horiz-adv-x="458" 
d="M98 756h324v-105h-193v-625h193v-105h-324v835z" />
    <glyph glyph-name="bracketright.uc" horiz-adv-x="458" 
d="M360.006 756h-323.98v-105h192.988v-625h-192.988v-105h323.98v835z" />
    <glyph glyph-name="braceleft.uc" horiz-adv-x="450" 
d="M406 -75q-20 -3 -37.5 -4t-34.5 -1q-97 0 -140 38.5t-43 97.5q0 32 5.5 56t5.5 54q0 25 -3 46t-13.5 36t-30.5 25t-54 13v105q34 3 54 13t30.5 25.5t13.5 36t3 44.5q0 31 -5.5 55.5t-5.5 56.5q0 61 43.5 98t142.5 37q16 0 33 -1t36 -3v-101q-14 2 -25 3.5t-22 1.5
q-45 0 -60.5 -21.5t-15.5 -50.5q0 -30 4.5 -51.5t4.5 -49.5q0 -21 -5 -41t-19 -38.5t-40.5 -35.5t-68.5 -31q42 -13 68.5 -30t40.5 -35.5t19 -38.5t5 -40q0 -28 -4.5 -50t-4.5 -52q0 -29 15.5 -50t60.5 -21q11 0 22 1t25 4v-101z" />
    <glyph glyph-name="braceright.uc" horiz-adv-x="450" 
d="M44.0244 -75q19.999 -3 37.498 -4t34.498 -1q96.9941 0 139.991 38.5t42.9971 97.5q0 32 -5.49902 56q-5.5 24 -5.5 54q0 25 3 46t13.499 36t30.498 25t53.9971 13v105q-33.998 3 -53.9971 13t-30.498 25.5t-13.499 36t-3 44.5q0 31 5.5 55.5q5.49902 24.5 5.49902 56.5
q0 61 -43.4971 98t-142.491 37q-15.999 0 -32.998 -1t-35.998 -3v-101q13.999 2 24.999 3.5q10.999 1.5 21.998 1.5q44.998 0 60.4971 -21.5t15.499 -50.5q0 -30 -4.5 -51.5t-4.5 -49.5q0 -21 5 -41t18.999 -38.5t40.4971 -35.5q26.499 -17 68.4961 -31
q-41.9971 -13 -68.4961 -30q-26.498 -17 -40.4971 -35.5t-18.999 -38.5t-5 -40q0 -28 4.5 -50t4.5 -52q0 -29 -15.499 -50t-60.4971 -21q-10.999 0 -21.998 1q-11 1 -24.999 4v-101z" />
    <glyph glyph-name="slash.uc" horiz-adv-x="396" 
d="M0 -39l281 795h115l-281 -795h-115z" />
    <glyph glyph-name="backslash.uc" horiz-adv-x="396" 
d="M0 756h115l281 -795h-115z" />
    <glyph glyph-name="bar.uc" horiz-adv-x="272" 
d="M188 756v-796h-104v796h104z" />
    <glyph glyph-name="at.uc" horiz-adv-x="995" 
d="M698 -53q-14 -6 -36 -12t-50.5 -11t-61.5 -8.5t-68 -3.5q-94 0 -174.5 25t-140 74.5t-93.5 123t-34 169.5q0 99 35.5 180.5t99.5 140t151.5 90.5t191.5 32q91 0 170.5 -24.5t138.5 -70.5t93.5 -112t34.5 -148q0 -56 -16 -105t-46.5 -86.5t-74.5 -59t-100 -21.5
q-35 0 -60 8.5t-42 22.5t-27 33.5t-14 40.5q-24 -52 -64.5 -78.5t-90.5 -26.5q-29 0 -57.5 10.5t-51 33t-36 59t-13.5 89.5q0 46 15 89t41.5 76t63.5 53t82 20q44 0 76.5 -22.5t48.5 -72.5l27 69h105l-35 -242q-2 -15 0 -29t8 -25t17.5 -18t29.5 -7q45 0 76.5 46.5
t31.5 127.5q0 69 -26 122.5t-71 90t-106.5 55t-131.5 18.5q-80 0 -147.5 -24t-116 -69t-76 -110.5t-27.5 -147.5q0 -77 24.5 -136t69.5 -99t109 -60.5t142 -20.5t129.5 13.5t76.5 26.5v-89zM387 308q0 -29 6.5 -47.5t17.5 -29.5t25 -15.5t28 -4.5q25 0 45 12.5t34 33t21 47
t7 55.5q0 28 -6.5 47.5t-17 30.5t-24 16t-28.5 5q-27 0 -47.5 -13t-34 -34t-20 -48t-6.5 -55z" />
    <glyph glyph-name="grave.uc" horiz-adv-x="441" 
d="M188 777l-127 136h172l80 -136h-125z" />
    <glyph glyph-name="dieresis.uc" horiz-adv-x="441" 
d="M99 776q-35 0 -59 24t-24 57q0 35 24 58.5t59 23.5q37 0 61.5 -23.5t24.5 -58.5q0 -33 -24.5 -57t-61.5 -24zM340 776q-18 0 -33.5 6.5t-27 17.5t-18 25.5t-6.5 31.5t6.5 32t18 26t27 17.5t33.5 6.5t33.5 -6.5t27 -17.5t18 -26t6.5 -32t-6.5 -31.5t-18 -25.5t-27 -17.5
t-33.5 -6.5z" />
    <glyph glyph-name="macron.uc" horiz-adv-x="441" 
d="M39 896h361v-100h-361v100z" />
    <glyph glyph-name="acute.uc" horiz-adv-x="441" 
d="M225 913h171l-127 -136h-125z" />
    <glyph glyph-name="circumflex.uc" horiz-adv-x="441" 
d="M221 849l-73 -75h-107l108 148h143l107 -148h-107z" />
    <glyph glyph-name="caron.uc" horiz-adv-x="441" 
d="M292 774h-143l-108 148h107l73 -74l71 74h107z" />
    <glyph glyph-name="breve.uc" horiz-adv-x="440" 
d="M220 765q-44 0 -76.5 13t-54 35t-32 51.5t-10.5 62.5h106q0 -32 17.5 -49.5t49.5 -17.5q65 0 65 67h108q0 -33 -10.5 -62.5t-32.5 -51.5t-54.5 -35t-75.5 -13z" />
    <glyph glyph-name="dotaccent.uc" horiz-adv-x="441" 
d="M220 776q-17 0 -32.5 6.5t-27 17.5t-18 25.5t-6.5 31.5q0 35 24.5 58.5t59.5 23.5q18 0 33.5 -6.5t27 -17.5t18 -26t6.5 -32t-6.5 -31.5t-18 -25.5t-27 -17.5t-33.5 -6.5z" />
    <glyph glyph-name="ring.uc" horiz-adv-x="441" 
d="M220 758q-27 0 -50 9.5t-40 26t-27 39.5t-10 51q0 27 10 50.5t27 40t40 26t50 9.5t50 -9.5t40 -26t27 -40t10 -50.5q0 -28 -10 -51t-27 -39.5t-40 -26t-50 -9.5zM220 833q22 0 36 14t14 37t-14 37.5t-36 14.5t-35.5 -14.5t-13.5 -37.5t13.5 -37t35.5 -14z" />
    <glyph glyph-name="tilde.uc" horiz-adv-x="441" 
d="M36 771q-7 33 -3.5 61.5t16.5 49.5t35.5 33t53.5 12q26 0 46.5 -7t37.5 -15t31.5 -15t29.5 -7q21 0 30.5 11.5t7.5 38.5h83q7 -33 3.5 -61.5t-16.5 -49.5t-35.5 -33t-53.5 -12q-26 0 -46 7t-37 15t-32 15t-31 7q-20 0 -29 -11t-7 -39h-84v0z" />
    <glyph glyph-name="hungarumlaut.uc" horiz-adv-x="440" 
d="M51 777l45 136h143l-90 -136h-98zM245 777l45 136h143l-90 -136h-98z" />
    <glyph glyph-name="Cacute.pl" horiz-adv-x="656" 
d="M407 -10q-85 0 -153.5 25t-117 72.5t-74.5 115.5t-26 155t25.5 155t73.5 115.5t116.5 72.5t155.5 25q75 0 125.5 -13.5t79.5 -30.5v-123q-35 22 -86 35t-111 13q-118 0 -174 -62t-56 -187q0 -249 232 -249q60 0 109.5 13.5t85.5 38.5v-120q-27 -20 -78.5 -35.5
t-126.5 -15.5zM317 777l33 136h144l-86 -136h-91z" />
    <glyph glyph-name="Euro.prop" horiz-adv-x="595" 
d="M561 18q-17 -8 -53 -18.5t-93 -10.5q-127 0 -207 63.5t-107 181.5h-70v93h58q-1 8 -1 15.5v15.5v13.5t1 12.5h-58v93h69q27 120 108.5 185t209.5 65q54 0 88.5 -9.5t54.5 -19.5v-110q-22 11 -54.5 19.5t-76.5 8.5q-79 0 -123.5 -35t-61.5 -104h170v-93h-183v-26v-15.5
t1 -15.5h182v-93h-169q17 -66 60.5 -100t121.5 -34q47 0 81 9.5t52 19.5v-111v0z" />
    <glyph glyph-name="Nacute.pl" horiz-adv-x="739" 
d="M669 0h-181l-290 540v-540h-127v717h183l288 -536v536h127v-717zM325 777l33 136h144l-86 -136h-91z" />
    <glyph glyph-name="Oacute.pl" horiz-adv-x="775" 
d="M387 -10q-74 0 -138 23.5t-111 70t-74.5 115t-27.5 158.5t27.5 158.5t74.5 115.5t111 71t138 24t138 -23.5t111.5 -69.5t75 -114t27.5 -158t-27.5 -159t-75 -116t-111.5 -71.5t-138 -24.5zM387 109q44 0 81 13.5t64 43t42.5 77t15.5 115.5t-15.5 115.5t-42.5 77t-64 43
t-81 13.5q-43 0 -80 -13.5t-64 -43t-42.5 -77t-15.5 -115.5t15.5 -115.5t42.5 -77t64 -43t80 -13.5zM341 777l33 136h144l-86 -136h-91z" />
    <glyph glyph-name="Sacute.pl" horiz-adv-x="594" 
d="M279 -10q-44 0 -79.5 6t-64 15t-50 20.5t-37.5 22.5v120q16 -12 40.5 -23.5t54.5 -20.5t64 -15t69 -6q67 0 107 18t40 66q0 26 -11 43t-31 28t-48.5 19t-62.5 16q-39 9 -79.5 23t-72.5 38t-52.5 61.5t-20.5 95.5q0 51 20 90.5t57 65.5t89.5 39.5t117.5 13.5
q77 0 123.5 -14.5t70.5 -28.5v-120q-32 20 -79 32t-109 12q-75 0 -111 -20.5t-36 -59.5q0 -24 11.5 -39.5t30.5 -25.5t44.5 -16.5t54.5 -13.5q42 -10 84.5 -23t76.5 -37t55.5 -62.5t21.5 -99.5q0 -65 -24.5 -107t-64.5 -67.5t-92 -35.5t-107 -10zM254 777l33 136h144
l-86 -136h-91z" />
    <glyph glyph-name="Zacute.pl" horiz-adv-x="622" 
d="M583 0h-547v106l371 491h-360v120h535v-107l-372 -491h373v-119zM260 777l33 136h144l-86 -136h-91z" />
    <glyph glyph-name="acute.pl" horiz-adv-x="441" 
d="M153 588l34 158h133l-78 -158h-89z" />
    <glyph glyph-name="acute.ucpl" horiz-adv-x="441" 
d="M170 777l33 136h144l-86 -136h-91z" />
    <glyph glyph-name="approxequal.prop" horiz-adv-x="641" 
d="M47 362q1 37 10.5 72t29.5 62.5t51 44t76 16.5q43 0 73 -14t54 -31t44.5 -31t44.5 -14q29 0 46 23.5t25 75.5h94q-1 -37 -10.5 -72.5t-30 -63t-51 -44t-73.5 -16.5q-44 0 -74.5 14t-54.5 31t-44.5 31t-43.5 14q-29 0 -46.5 -23.5t-25.5 -74.5h-94zM47 122q1 37 10.5 72
t29.5 62.5t51 44t76 16.5q43 0 73.5 -14t54 -31t44 -31t43.5 -14q29 0 46.5 23.5t25.5 75.5h94q-1 -37 -10.5 -72.5t-29.5 -63t-51.5 -44t-75.5 -16.5q-43 0 -73.5 14t-54 31t-44 31t-43.5 14q-29 0 -46.5 -23.5t-25.5 -74.5h-94z" />
    <glyph glyph-name="cacute.pl" horiz-adv-x="509" 
d="M310 -10q-65 0 -116.5 18.5t-87.5 53t-55.5 84.5t-19.5 114q0 63 19.5 113t55.5 84.5t88 53t117 18.5q60 0 100 -12.5t63 -29.5v-110q-30 19 -64 30.5t-87 11.5q-150 0 -150 -159t148 -159q55 0 89 11.5t64 29.5v-109q-23 -17 -63.5 -30t-100.5 -13zM243 588l34 158h133
l-78 -158h-89z" />
    <glyph glyph-name="cent.prop" horiz-adv-x="514" 
d="M476 33q-20 -14 -50.5 -25.5t-75.5 -15.5v-140h-126v148q-91 22 -141.5 88.5t-50.5 171.5q0 106 52.5 173t146.5 88v134h127v-128q41 -5 70 -16t48 -24v-110q-30 19 -64.5 30.5t-87.5 11.5q-150 0 -150 -159t148 -159q55 0 89.5 11.5t64.5 29.5v-109v0z" />
    <glyph glyph-name="divide.prop" horiz-adv-x="582" 
d="M294 462q-39 0 -65 26.5t-26 63.5t26 62.5t65 25.5t65.5 -25.5t26.5 -62.5t-26.5 -63.5t-65.5 -26.5zM41 287v100h500v-100h-500zM294 34q-39 0 -65 26t-26 63t26 63t65 26t65.5 -26t26.5 -63t-26.5 -63t-65.5 -26z" />
    <glyph glyph-name="dollar.prop" horiz-adv-x="554" 
d="M521 209q0 -50 -14.5 -87t-39.5 -63t-58.5 -41.5t-71.5 -22.5v-150h-127v147q-69 7 -111.5 27t-64.5 36v110q15 -9 36.5 -20.5t49 -21.5t61.5 -16.5t73 -6.5q69 0 100.5 22.5t31.5 73.5q0 27 -9 44t-27 28.5t-44.5 19.5t-61.5 16q-39 9 -76 24t-66 39.5t-46.5 60.5
t-17.5 88q0 81 45.5 134t133.5 70v134h126v-129q57 -5 90 -20t50 -26v-110q-22 15 -65.5 31t-113.5 16q-72 0 -101.5 -23t-29.5 -63q0 -26 10 -42t27.5 -26.5t41 -17.5t51.5 -13q41 -9 80 -23t70 -39t49.5 -63.5t18.5 -96.5z" />
    <glyph glyph-name="eight.prop" horiz-adv-x="598" 
d="M560 196q0 -48 -19.5 -86.5t-54.5 -65t-82.5 -40.5t-102.5 -14q-57 0 -105 13.5t-83 40t-54.5 64t-19.5 85.5q0 66 36 111.5t99 68.5q-51 21 -80.5 61.5t-29.5 101.5q0 46 18 81.5t49.5 59.5t75 36.5t94.5 12.5q50 0 93 -12t74.5 -36t49.5 -59t18 -81q0 -61 -29.5 -102
t-79.5 -62q61 -22 97 -66.5t36 -111.5zM301 426q45 0 72 25t27 70t-27 70t-72 25t-73 -25t-28 -70t28 -70t73 -25zM301 101q51 0 84 28.5t33 82.5t-33 82.5t-84 28.5q-53 0 -87 -28.5t-34 -82.5t34 -82.5t87 -28.5z" />
    <glyph glyph-name="equal.prop" horiz-adv-x="594" 
d="M47 397v100h501v-100h-501zM47 177v100h501v-100h-501z" />
    <glyph glyph-name="five.prop" horiz-adv-x="558" 
d="M516 243q0 -56 -20 -102.5t-57 -80t-88 -52t-113 -18.5q-72 0 -118.5 16t-80.5 36v123q35 -23 81.5 -43.5t108.5 -20.5q70 0 106.5 39t36.5 97t-28.5 92t-88.5 34q-37 0 -61 -12t-36 -27h-105v393h429v-116h-306v-163q17 13 45 23.5t73 10.5q103 0 162.5 -60.5
t59.5 -168.5z" />
    <glyph glyph-name="florin.prop" horiz-adv-x="474" 
d="M219 16q-17 -107 -72.5 -155t-141.5 -48q-43 0 -62 7v111q8 -2 27.5 -4.5t33.5 -2.5q42 0 60.5 23.5t26.5 70.5l54 329h-72l21 104h68l12 72q17 107 74 155t144 48q20 0 35 -2t24 -4v-113q-8 3 -28 5t-35 2q-42 0 -60 -22.5t-25 -68.5l-12 -72h118l-21 -104h-114
l-55 -331v0z" />
    <glyph glyph-name="four.prop" horiz-adv-x="614" 
d="M489 156v-156h-138v156h-324v103l318 458h144v-452h87v-109h-87zM351 265v284l-196 -284h196z" />
    <glyph glyph-name="greater.prop" horiz-adv-x="523" 
d="M46 190l324 147l-324 148v110l433 -198v-120l-433 -197v110z" />
    <glyph glyph-name="greaterequal.prop" horiz-adv-x="555" 
d="M47 247l322 119l-322 119v110l462 -169v-120l-462 -169v110zM47 100h462v-100h-462v100z" />
    <glyph glyph-name="less.prop" horiz-adv-x="523" 
d="M46 277v120l433 198v-110l-324 -148l324 -147v-110z" />
    <glyph glyph-name="lessequal.prop" horiz-adv-x="555" 
d="M47 306v120l462 169v-110l-323 -119l323 -119v-110zM47 0v100h462v-100h-462z" />
    <glyph glyph-name="minus.prop" horiz-adv-x="592" 
d="M46 287v100h501v-100h-501z" />
    <glyph glyph-name="multiply.prop" horiz-adv-x="578" 
d="M460 89l-171 174l-170 -174l-72 74l170 174l-172 176l72 74l173 -176l172 176l71 -74l-172 -176l171 -174z" />
    <glyph glyph-name="nacute.pl" horiz-adv-x="594" 
d="M320 419q-42 0 -72.5 -17t-49.5 -44v-358h-138v519h130l6 -78h2q21 38 62 63t104 25q37 0 69.5 -10.5t56 -31t37 -51.5t13.5 -73v-363h-139v348q0 39 -21.5 55t-59.5 16zM249 588l34 158h133l-78 -158h-89z" />
    <glyph glyph-name="nine.prop" horiz-adv-x="623" 
d="M580 397q0 -84 -19 -158t-59 -129.5t-101.5 -87.5t-146.5 -32q-108 0 -173 42v115q42 -24 84 -35.5t80 -11.5q85 0 131 54t60 149q-33 -37 -75.5 -53.5t-93.5 -16.5q-45 0 -87 14t-74 43.5t-51 75t-19 107.5q0 61 22.5 108.5t60 80t86 49t101.5 16.5q60 0 110.5 -18
t87 -57.5t56.5 -102.5t20 -152zM305 616q-25 0 -48 -8.5t-40 -26t-27.5 -44t-10.5 -62.5q0 -34 10 -59t26.5 -41.5t38.5 -24.5t46 -8q26 0 49.5 8.5t41 25t28 41.5t10.5 59q0 71 -35.5 105.5t-88.5 34.5z" />
    <glyph glyph-name="notequal.prop" horiz-adv-x="594" 
d="M287 177l-49 -120h-111l49 120h-129v100h170l50 120h-220v100h261l49 120h110l-49 -120h130v-100h-171l-49 -120h220v-100h-261z" />
    <glyph glyph-name="oacute.pl" horiz-adv-x="589" 
d="M293 -10q-56 0 -103.5 17.5t-83 52t-55.5 85t-20 115.5t20 115.5t55.5 84.5t83 51.5t103.5 17.5t104.5 -17.5t84 -51.5t56 -84.5t20.5 -115.5t-20.5 -115.5t-56 -85t-84 -52t-104.5 -17.5zM293 101q54 0 88 39t34 120q0 80 -34 119t-88 39q-51 0 -85.5 -39t-34.5 -119
q0 -81 34.5 -120t85.5 -39zM245 588l34 158h133l-78 -158h-89z" />
    <glyph glyph-name="one.denalt" horiz-adv-x="352" 
d="M336 0h-291v82h92v243l-97 -82v104l127 105h82v-370h87v-82z" />
    <glyph glyph-name="one.numalt" horiz-adv-x="352" 
d="M336 265h-291v82h92v243l-97 -82v104l127 105h82v-370h87v-82z" />
    <glyph glyph-name="one.prop" horiz-adv-x="420" 
d="M328 0h-139v565l-148 -147v135l164 164h123v-717z" />
    <glyph glyph-name="one.propalt" horiz-adv-x="506" 
d="M482 0h-415v107h143v436l-143 -128v138l183 164h98v-610h134v-107z" />
    <glyph glyph-name="one.subalt" horiz-adv-x="352" 
d="M336 -90h-291v82h92v243l-97 -82v104l127 105h82v-370h87v-82z" />
    <glyph glyph-name="one.supalt" horiz-adv-x="352" 
d="M336 325h-291v82h92v243l-97 -82v104l127 105h82v-370h87v-82z" />
    <glyph glyph-name="percent.prop" horiz-adv-x="918" 
d="M205 -3l388 722h120l-388 -722h-120zM393 518q0 -49 -14.5 -86.5t-40 -63.5t-60 -39.5t-74.5 -13.5q-41 0 -75 12.5t-59.5 37.5t-39.5 62.5t-14 86.5t14 86.5t39.5 63.5t59.5 39.5t75 13.5q40 0 74.5 -13t60 -38t40 -62t14.5 -86zM134 516q0 -63 19 -88.5t51 -25.5
t51.5 25.5t19.5 88.5q0 62 -19.5 87.5t-51.5 25.5t-51 -25.5t-19 -87.5zM903 203q0 -49 -15 -87t-40.5 -63.5t-60 -39t-73.5 -13.5q-41 0 -75.5 12.5t-60 37.5t-39.5 62.5t-14 86.5t14 86.5t39.5 63t60 39t75.5 13.5q39 0 73.5 -12.5t60 -37.5t40.5 -62t15 -86zM714 314
q-32 0 -51.5 -25.5t-19.5 -87.5q0 -63 19.5 -88.5t51.5 -25.5t51.5 25.5t19.5 88.5q0 62 -19.5 87.5t-51.5 25.5z" />
    <glyph glyph-name="perthousand.prop" horiz-adv-x="1345" 
d="M205 -3l388 722h120l-388 -722h-120zM393 518q0 -49 -14.5 -86.5t-40 -63.5t-60 -39.5t-74.5 -13.5q-41 0 -75 12.5t-59.5 37.5t-39.5 62.5t-14 86.5t14 86.5t39.5 63.5t59.5 39.5t75 13.5q40 0 74.5 -13t60 -38t40 -62t14.5 -86zM134 516q0 -63 19 -88.5t51 -25.5
t51.5 25.5t19.5 88.5q0 62 -19.5 87.5t-51.5 25.5t-51 -25.5t-19 -87.5zM1330 203q0 -49 -14.5 -87t-40 -63.5t-60 -39t-74.5 -13.5t-74.5 12.5t-59.5 37.5t-39.5 62.5t-14.5 86.5t14.5 86.5t39.5 63t59.5 39t74.5 13.5t74.5 -12.5t60 -37.5t40 -62t14.5 -86zM903 203
q0 -49 -15 -87t-40.5 -63.5t-60 -39t-73.5 -13.5q-41 0 -75.5 12.5t-60 37.5t-39.5 62.5t-14 86.5t14 86.5t39.5 63t60 39t75.5 13.5q39 0 73.5 -12.5t60 -37.5t40.5 -62t15 -86zM1141 314q-32 0 -51.5 -25.5t-19.5 -87.5q0 -63 19.5 -88.5t51.5 -25.5t52 25.5t20 88.5
q0 62 -20 87.5t-52 25.5zM714 314q-32 0 -51.5 -25.5t-19.5 -87.5q0 -63 19.5 -88.5t51.5 -25.5t51.5 25.5t19.5 88.5q0 62 -19.5 87.5t-51.5 25.5z" />
    <glyph glyph-name="plus.prop" horiz-adv-x="592" 
d="M351 287v-210h-110v210h-195v100h195v210h110v-210h196v-100h-196z" />
    <glyph glyph-name="plusminus.prop" horiz-adv-x="594" 
d="M352 302v-156h-110v156h-195v100h195v195h110v-195h196v-100h-196zM47 0v100h501v-100h-501z" />
    <glyph glyph-name="sacute.pl" horiz-adv-x="476" 
d="M234 -10q-38 0 -69 6t-55.5 15t-41.5 19t-27 18v102q10 -9 27 -19t40.5 -18.5t53.5 -14t66 -5.5q54 0 74 15t20 39q0 19 -10 29.5t-26.5 16t-37.5 8.5t-44 8q-29 6 -58.5 15.5t-53 26.5t-38.5 44.5t-15 69.5q0 77 56 120.5t160 43.5q60 0 102 -13t60 -26v-102
q-22 15 -59.5 27t-96.5 12q-55 0 -76.5 -13t-21.5 -38q0 -17 9.5 -26t25.5 -14t36.5 -7.5t42.5 -5.5q29 -5 59 -13.5t54.5 -26.5t40 -47.5t15.5 -74.5q0 -48 -18 -80.5t-48 -53t-68 -29t-78 -8.5zM195 588l34 158h133l-78 -158h-89z" />
    <glyph glyph-name="seven.prop" horiz-adv-x="529" 
d="M241 0h-148l259 600h-317v117h473v-81z" />
    <glyph glyph-name="six.prop" horiz-adv-x="624" 
d="M587 243q0 -62 -22.5 -109t-60 -79t-86.5 -48.5t-101 -16.5q-60 0 -110.5 18t-86.5 58.5t-56 104t-20 155.5q0 82 19 154.5t58.5 127.5t101 87t146.5 32q55 0 98 -11t74 -31v-115q-41 24 -82.5 35t-80.5 11q-85 0 -131.5 -53.5t-59.5 -148.5q33 37 75.5 53.5t93.5 16.5
q45 0 87 -14t74 -43.5t51 -75t19 -108.5zM318 100q25 0 47.5 9t40 26.5t28 44t10.5 61.5q0 34 -10 59.5t-26.5 42t-38.5 24.5t-46 8q-26 0 -49 -8t-40.5 -24.5t-28 -42t-10.5 -59.5q-2 -69 34 -105t89 -36z" />
    <glyph glyph-name="space.prop" horiz-adv-x="211" 
 />
    <glyph glyph-name="sterling.prop" horiz-adv-x="544" 
d="M518 0h-458v74q48 37 69 75t21 83q0 23 -3 44h-92v106h64q-11 32 -20 63t-9 69q0 97 62.5 155t186.5 58q53 0 91.5 -9.5t55.5 -17.5v-110q-10 5 -25 9.5t-33 8.5t-37.5 6t-38.5 2q-35 0 -58.5 -8t-38 -22.5t-20 -35t-5.5 -44.5q0 -35 9 -63.5t18 -60.5h161v-106h-142v-16
q0 -38 -13 -76t-46 -74h301v-110z" />
    </font>
</defs>
</svg>
