<?xml version="1.0" standalone="no"?>
<!DOCTYPE svg PUBLIC "-//W3C//DTD SVG 1.1//EN" "http://www.w3.org/Graphics/SVG/1.1/DTD/svg11.dtd" >
<svg xmlns="http://www.w3.org/2000/svg" xmlns:xlink="http://www.w3.org/1999/xlink" version="1.1">
<metadata>
Created by FontForge 20170731 at Wed Sep 27 22:36:33 2017
 By Aleksey,,,
Copyright (C)2017 Commercial Type.
</metadata>
<defs>
<font id="YSText-LightItalic" horiz-adv-x="550" >
  <font-face 
    font-family="YS Text Light"
    font-weight="300"
    font-style="italic"
    font-stretch="normal"
    units-per-em="1000"
    panose-1="0 0 0 0 0 0 0 0 0 0"
    ascent="750"
    descent="-250"
    x-height="519"
    cap-height="717"
    bbox="-202 -222 1324 970"
    underline-thickness="46"
    underline-position="-188"
    slope="-11"
    unicode-range="U+000D-FEFF"
  />
<missing-glyph horiz-adv-x="208" 
 />
    <glyph glyph-name=".notdef" horiz-adv-x="208" 
 />
    <glyph glyph-name=".null" horiz-adv-x="0" 
 />
    <glyph glyph-name="nonmarkingreturn" unicode="&#xd;" horiz-adv-x="202" 
 />
    <glyph glyph-name="space" unicode=" " horiz-adv-x="229" 
 />
    <glyph glyph-name="exclam" unicode="!" horiz-adv-x="234" 
d="M244 704l-119 -525h-53l106 525h66zM74 -5q-24 0 -39 15t-15 37q0 23 15 38t39 15q23 0 38 -15t15 -38q0 -22 -15 -37t-38 -15z" />
    <glyph glyph-name="quotedbl" unicode="&#x22;" horiz-adv-x="390" 
d="M189 717h76l-69 -186h-58zM337 717h76l-69 -186h-58z" />
    <glyph glyph-name="numbersign" unicode="#" horiz-adv-x="646" 
d="M386 216h-165l-66 -216h-57l66 216h-134l11 52h138l62 201h-131l11 51h135l60 197h57l-60 -197h165l60 197h57l-60 -197h137l-12 -51h-140l-62 -201h133l-11 -52h-137l-66 -216h-57zM401 268l62 201h-165l-62 -201h165z" />
    <glyph glyph-name="dollar" unicode="$" 
d="M243 -10l-25 -121h-61l26 125q-35 5 -63.5 15t-51 21.5t-38.5 23.5t-25 22l16 59q14 -15 36.5 -30t51.5 -27.5t64.5 -20.5t76.5 -8q80 0 126 36t46 105q0 31 -9.5 53t-28 38t-45 28.5t-59.5 25.5q-32 12 -63.5 26.5t-56.5 36t-40.5 53t-15.5 77.5t17 82.5t47.5 62
t73.5 39.5t94 14l24 114h61l-25 -118q51 -7 88 -23t58 -31l-16 -59q-35 25 -84.5 41.5t-103.5 16.5q-81 0 -125 -37.5t-44 -97.5q0 -31 11 -52t29.5 -36t43 -26t51.5 -22q31 -13 64 -26.5t60 -34.5t44 -54t17 -84q0 -97 -64.5 -152t-179.5 -55h-2z" />
    <glyph glyph-name="percent" unicode="%" horiz-adv-x="650" 
d="M18 -10l578 736h61l-577 -736h-62zM169 363q-24 0 -46 8.5t-38.5 25.5t-26 43.5t-9.5 62.5q0 43 12.5 82.5t34.5 70t53 48.5t68 18q24 0 46 -8.5t38.5 -25.5t26 -43.5t9.5 -62.5q0 -43 -12.5 -82.5t-34.5 -70t-53 -48.5t-68 -18zM212 672q-24 0 -43 -13.5t-32.5 -37
t-21 -54t-7.5 -63.5q0 -50 19.5 -70t46.5 -20q24 0 43 13.5t32.5 36.5t21 53.5t7.5 63.5q0 51 -19.5 71t-46.5 20zM455 -6q-24 0 -46 8t-38 25.5t-25.5 43.5t-9.5 62q0 43 12.5 83t34.5 70.5t53 48.5t68 18q24 0 45.5 -8t38 -25.5t26 -44t9.5 -62.5q0 -43 -12 -82.5
t-34.5 -70t-53.5 -48.5t-68 -18zM498 302q-24 0 -43 -13.5t-32.5 -37t-21 -53.5t-7.5 -63q0 -51 19.5 -70.5t46.5 -19.5q24 0 43.5 13.5t33 36.5t21 53.5t7.5 63.5q0 50 -20 70t-47 20z" />
    <glyph glyph-name="ampersand" unicode="&#x26;" horiz-adv-x="753" 
d="M627 6q-41 0 -76 12.5t-70 40.5q-45 -32 -100 -50.5t-122 -18.5q-116 0 -174.5 50.5t-58.5 134.5q0 43 14.5 75.5t39.5 57t58.5 42t70.5 31.5q-24 34 -40 70t-16 81q0 37 12.5 72t36.5 61t60 42t83 16q81 0 127.5 -43t46.5 -118q0 -43 -17.5 -74.5t-46.5 -55.5t-67 -41
t-78 -32l113 -146q18 -23 34.5 -42t32.5 -35q45 42 74 94t45 104l51 -25q-18 -52 -49.5 -107t-79.5 -102q26 -19 54 -28.5t63 -9.5q9 0 21 1.5t22 4.5l-9 -54q-8 -3 -23 -5.5t-32 -2.5zM218 538q0 -42 18 -74t40 -61q43 14 76 29t55.5 33.5t34.5 42t12 54.5q0 45 -27.5 74
t-82.5 29q-32 0 -56 -10.5t-39.5 -28t-23 -40.5t-7.5 -48zM91 178q0 -62 45.5 -95.5t129.5 -33.5q51 0 94 12.5t79 35.5q-19 18 -38 40t-40 48l-118 151q-33 -11 -60.5 -25t-48 -33t-32 -43.5t-11.5 -56.5z" />
    <glyph glyph-name="quotesingle" unicode="'" horiz-adv-x="243" 
d="M189 717h76l-69 -186h-58z" />
    <glyph glyph-name="parenleft" unicode="(" horiz-adv-x="326" 
d="M158 -139q-38 60 -62.5 141t-24.5 185q0 89 18 170.5t51.5 153.5t80.5 133.5t104 111.5h74q-55 -47 -103 -108t-84 -134.5t-56.5 -157.5t-20.5 -177q0 -97 25 -177t63 -141h-65z" />
    <glyph glyph-name="parenright" unicode=")" horiz-adv-x="326" 
d="M186.01 755.991q37.998 -59.9961 62.4961 -140.991t24.498 -184.988q0 -88.9951 -17.998 -170.49q-17.999 -81.4951 -51.4971 -153.49q-33.498 -71.9961 -80.4951 -133.492t-103.994 -111.493h-73.9951q54.9971 46.9971 102.993 107.993q47.998 60.9971 83.9951 134.492
q35.998 73.4961 56.4971 157.49q20.498 83.9951 20.498 176.989q0 96.9941 -24.998 176.989t-62.9961 140.991h64.9961z" />
    <glyph glyph-name="asterisk" unicode="*" horiz-adv-x="417" 
d="M308 368l-54 136l-96 -110l-43 45l113 95l-132 57l29 55l121 -78l14 145l62 -10l-36 -141l140 32l9 -61l-145 -10l74 -127z" />
    <glyph glyph-name="plus" unicode="+" 
d="M311 310l-46 -218h-63l47 218h-200l11 54h200l47 219h62l-46 -219h200l-12 -54h-200z" />
    <glyph glyph-name="comma" unicode="," horiz-adv-x="223" 
d="M-3 -101q29 24 45.5 49.5t21.5 48.5q-19 4 -30 17.5t-11 32.5q0 21 13.5 36t37.5 15q23 0 38 -16t15 -44q0 -39 -23 -76.5t-53 -62.5h-54z" />
    <glyph glyph-name="hyphen" unicode="-" horiz-adv-x="345" 
d="M73 333h234l-12 -62h-235z" />
    <glyph glyph-name="period" unicode="." horiz-adv-x="225" 
d="M76 -5q-24 0 -39 15t-15 37q0 23 15 38t39 15t38.5 -15t14.5 -38q0 -22 -14.5 -37t-38.5 -15z" />
    <glyph glyph-name="slash" unicode="/" horiz-adv-x="370" 
d="M-78 -120l496 876h60l-496 -876h-60z" />
    <glyph glyph-name="zero" unicode="0" 
d="M234 -10q-36 0 -71 12t-63 41.5t-45 79t-17 124.5q0 83 19 168.5t57.5 154.5t95 112.5t131.5 43.5q36 0 71 -12.5t63 -42t45 -79t17 -124.5q0 -83 -19 -168t-57 -154t-95 -112.5t-132 -43.5zM106 242q0 -57 11.5 -94.5t31 -59.5t43.5 -30.5t50 -8.5q39 0 71 18.5
t57.5 50.5t44 74t31 89.5t18.5 97t6 95.5q0 57 -11.5 94.5t-31 59.5t-44 30.5t-49.5 8.5q-39 0 -71.5 -18.5t-57.5 -50.5t-44 -74t-31 -89.5t-18 -97t-6 -95.5z" />
    <glyph glyph-name="one" unicode="1" 
d="M287 0h-67l134 630l-237 -163l17 78l249 172h56z" />
    <glyph glyph-name="two" unicode="2" 
d="M446 0h-441l16 72q138 79 224 143t134.5 118.5t66 102.5t17.5 95q0 64 -39.5 100.5t-106.5 36.5q-57 0 -106.5 -25.5t-93.5 -72.5l17 82q35 35 80 54.5t111 19.5q47 0 85 -13.5t65 -39t42 -61t15 -80.5q0 -61 -23 -117t-74 -112.5t-132.5 -115.5t-198.5 -126h356z" />
    <glyph glyph-name="three" unicode="3" 
d="M484 212q0 -48 -16 -88.5t-47 -70t-76.5 -46.5t-105.5 -17q-73 0 -125 24t-82 55l13 64q15 -16 35 -31t44 -27t53 -19t63 -7q87 0 131.5 44.5t44.5 118.5q0 64 -40.5 98.5t-120.5 34.5h-74l13 58h73q51 0 86.5 11t58 30.5t33 45t10.5 54.5q0 31 -11 54.5t-29.5 39
t-42.5 23t-51 7.5q-60 0 -102.5 -24.5t-76.5 -58.5l16 76q33 32 74 48.5t97 16.5q39 0 73.5 -11t61 -33t41.5 -54.5t15 -75.5q0 -36 -12 -66.5t-33 -54t-49.5 -38.5t-62.5 -20q54 -15 87.5 -54t33.5 -107z" />
    <glyph glyph-name="four" unicode="4" 
d="M408 176l-37 -176h-65l37 176h-330l12 51l413 490h85l-102 -481h100l-13 -60h-100zM356 236l85 405l-342 -405h257z" />
    <glyph glyph-name="five" unicode="5" 
d="M493 241q0 -55 -17.5 -101t-50.5 -79.5t-80 -52t-107 -18.5q-71 0 -122 24.5t-81 53.5l14 64q15 -15 33.5 -30t41.5 -26.5t51 -19t63 -7.5q45 0 80 14t59 38.5t37 59.5t13 77q0 79 -38 120.5t-116 41.5q-45 0 -76.5 -13.5t-48.5 -30.5h-51l77 361h360l-11 -62h-299
l-49 -223q20 12 48 20t66 8q43 0 80.5 -14t65 -41.5t43 -68.5t15.5 -95z" />
    <glyph glyph-name="six" unicode="6" 
d="M517 265q0 -59 -21 -109.5t-57 -87.5t-84 -57.5t-102 -20.5q-106 0 -165 62t-59 193q0 96 21 183t64 153.5t108 106t153 39.5q54 0 91.5 -10t66.5 -26l-8 -66q-29 21 -69.5 30.5t-88.5 9.5q-56 0 -99.5 -22.5t-76 -62t-54 -94t-31.5 -118.5q35 55 87 82.5t112 27.5
q46 0 85 -14.5t67.5 -42t44 -67t15.5 -89.5zM254 50q43 0 78.5 16t60 44.5t38 67.5t13.5 84q0 37 -11.5 66.5t-32 49.5t-47.5 30.5t-57 10.5q-46 0 -82 -17.5t-60.5 -47t-37.5 -68t-13 -79.5q0 -72 41 -114.5t110 -42.5z" />
    <glyph glyph-name="seven" unicode="7" 
d="M94 0h-76l453 656h-375l13 61h445l-12 -60z" />
    <glyph glyph-name="eight" unicode="8" 
d="M494 209q0 -50 -19 -90.5t-52 -69t-77.5 -44t-94.5 -15.5q-49 0 -90 13t-70.5 38t-46 61t-16.5 81q0 78 47 132t126 72q-42 19 -67.5 55t-25.5 90q0 43 17 78.5t47 61t70.5 40t87.5 14.5q39 0 75 -10.5t63 -31.5t43 -53.5t16 -76.5q0 -64 -39.5 -111.5t-106.5 -66.5
q48 -20 80.5 -60.5t32.5 -106.5zM174 528q0 -58 38 -88.5t95 -30.5q33 0 61 9.5t48.5 27.5t32 43.5t11.5 57.5q0 31 -11 54t-30 38t-43 22t-49 7q-32 0 -60 -10t-48.5 -28.5t-32.5 -44.5t-12 -57zM97 191q0 -69 43.5 -105.5t112.5 -36.5q39 0 71.5 12.5t55 35t35 52.5
t12.5 66q0 37 -12.5 63.5t-33.5 44t-48.5 25.5t-57.5 8q-40 0 -72.5 -12.5t-56 -34.5t-36.5 -52.5t-13 -65.5z" />
    <glyph glyph-name="nine" unicode="9" 
d="M550 471q0 -95 -21 -182t-64 -153.5t-108.5 -106t-153.5 -39.5q-54 0 -91 9.5t-66 26.5l8 65q29 -20 69 -30.5t88 -10.5q56 0 100 22.5t76 62.5t53 94.5t32 118.5q-35 -55 -86.5 -82.5t-111.5 -27.5q-47 0 -85.5 14.5t-67 42t-44 67t-15.5 89.5q0 60 21 110.5t57 87
t84 57.5t102 21q105 0 164.5 -62.5t59.5 -193.5zM324 666q-43 0 -78 -16t-60 -44.5t-38.5 -67t-13.5 -83.5q0 -38 12 -67t32 -49t47 -30.5t57 -10.5q46 0 82 17.5t61 46.5t38 67t13 80q0 72 -41.5 114.5t-110.5 42.5z" />
    <glyph glyph-name="colon" unicode=":" horiz-adv-x="230" 
d="M76 -5q-24 0 -39 15t-15 37q0 23 15 38t39 15t38.5 -15t14.5 -38q0 -22 -14.5 -37t-38.5 -15zM159 379q-24 0 -39 15t-15 37q0 23 15 38t39 15t38.5 -15t14.5 -38q0 -22 -14.5 -37t-38.5 -15z" />
    <glyph glyph-name="semicolon" unicode=";" horiz-adv-x="230" 
d="M-3 -101q29 24 45.5 49.5t21.5 48.5q-19 4 -30 17.5t-11 32.5q0 21 13.5 36t37.5 15q23 0 38 -16t15 -44q0 -39 -23 -76.5t-53 -62.5h-54zM159 379q-24 0 -39 15t-15 37q0 23 15 38t39 15t38.5 -15t14.5 -38q0 -22 -14.5 -37t-38.5 -15z" />
    <glyph glyph-name="less" unicode="&#x3c;" 
d="M70 301l16 73l446 191l-14 -65l-387 -167l317 -167l-13 -56z" />
    <glyph glyph-name="equal" unicode="=" horiz-adv-x="549" 
d="M68 409l12 54h462l-11 -54h-463zM26 211l11 54h463l-11 -54h-463z" />
    <glyph glyph-name="greater" unicode="&#x3e;" 
d="M48 175l387 166l-316 167l12 57l365 -191l-16 -74l-445 -190z" />
    <glyph glyph-name="question" unicode="?" horiz-adv-x="442" 
d="M471 553q0 -55 -20 -91t-51 -61.5t-67.5 -44.5t-69.5 -39.5t-57 -48t-30 -68.5l-4 -21h-56l2 20q6 56 30 90.5t55.5 58t67 40.5t65.5 37t49.5 48t19.5 74q0 25 -7.5 46.5t-25 38t-46 26t-70.5 9.5q-34 0 -70 -7t-66 -20l12 59q29 14 66 20.5t72 6.5q101 0 151 -47.5
t50 -125.5zM134 -5q-24 0 -39 15t-15 37q0 23 15 38t39 15q23 0 38 -15t15 -38q0 -22 -15 -37t-38 -15z" />
    <glyph glyph-name="at" unicode="@" horiz-adv-x="1002" 
d="M744 -121q-29 -14 -91 -27t-140 -13q-97 0 -181.5 27t-147.5 79.5t-99 130.5t-36 180q0 104 36.5 190t101 148t154 96.5t194.5 34.5q92 0 173 -26t141 -74.5t95 -119t35 -158.5q0 -58 -15.5 -109t-44.5 -88.5t-71 -59.5t-95 -22q-63 0 -94.5 30t-39.5 72
q-25 -51 -67 -76.5t-94 -25.5q-32 0 -61.5 10.5t-52.5 34t-37 60t-14 89.5q0 47 15 91t42 77.5t65.5 54t85.5 20.5q53 0 88.5 -27t49.5 -82l29 82h44l-37 -228q-3 -21 -1.5 -44t10.5 -41.5t26.5 -31t47.5 -12.5q31 0 60 14.5t51.5 42.5t35.5 68.5t13 92.5q0 80 -29.5 142
t-81.5 104.5t-123 64.5t-153 22q-89 0 -166 -29t-133.5 -82.5t-89 -129t-32.5 -168.5t30.5 -163t84.5 -116t128.5 -69t163.5 -23q81 0 141 14.5t86 27.5v-55zM357 257q0 -39 10 -65.5t26.5 -42.5t36.5 -23t41 -7q37 0 65 16.5t47.5 43.5t29.5 62t10 73q0 36 -9.5 62.5
t-25 43t-36.5 24.5t-45 8q-36 0 -64 -17t-47 -44.5t-29 -62.5t-10 -71z" />
    <glyph glyph-name="A" unicode="A" horiz-adv-x="660" 
d="M378 717h97l110 -717h-69l-33 217h-325l-125 -217h-67zM473 279l-58 384l-221 -384h279z" />
    <glyph glyph-name="B" unicode="B" horiz-adv-x="617" 
d="M183 717h186q100 0 154 -40t54 -125q0 -80 -46 -123.5t-120 -57.5q68 -12 108 -52t40 -114q0 -51 -19.5 -89t-55 -64t-84.5 -39t-108 -13h-262zM240 655l-55 -255h134q41 0 75.5 8.5t59.5 26.5t39 45.5t14 64.5q0 62 -39 86t-109 24h-119zM172 338l-59 -276h189
q86 0 135.5 35t49.5 109q0 69 -45 100.5t-129 31.5h-141z" />
    <glyph glyph-name="C" unicode="C" horiz-adv-x="653" 
d="M359 -10q-63 0 -119 18.5t-97.5 57.5t-65.5 99t-24 142q0 88 28 164.5t79.5 133t123.5 89t160 32.5q67 0 120.5 -17.5t84.5 -46.5l-15 -65q-36 34 -87.5 50.5t-107.5 16.5q-73 0 -131 -28t-98.5 -76.5t-62 -112.5t-21.5 -136q0 -71 18.5 -120.5t51 -80t76 -44.5t93.5 -14
q56 0 105 16t94 45l-14 -68q-30 -23 -80 -39t-111 -16z" />
    <glyph glyph-name="D" unicode="D" horiz-adv-x="708" 
d="M183 717h192q62 0 117 -15.5t96 -50t65 -90t24 -136.5q0 -83 -27 -160t-79 -136t-127 -94t-172 -35h-242zM240 655l-127 -593h166q78 0 139 30t102 80t62.5 115t21.5 135q0 66 -18 110.5t-49.5 72t-73.5 39t-90 11.5h-133z" />
    <glyph glyph-name="E" unicode="E" horiz-adv-x="579" 
d="M183 717h431l-15 -62h-359l-53 -249h308l-13 -61h-308l-61 -283h366l-13 -62h-436z" />
    <glyph glyph-name="F" unicode="F" horiz-adv-x="557" 
d="M183 717h425l-14 -62h-354l-58 -269h305l-14 -62h-304l-69 -324h-70z" />
    <glyph glyph-name="G" unicode="G" horiz-adv-x="723" 
d="M693 308q-13 -84 -43.5 -144t-74 -98.5t-99 -57t-118.5 -18.5q-66 0 -121.5 19.5t-96.5 59t-64 100t-23 142.5q0 87 26.5 163t76.5 132t121 88t160 32q42 0 79 -7t67.5 -18t53 -25t36.5 -28l-15 -69q-33 34 -92 59.5t-134 25.5t-132 -28t-95.5 -76.5t-58.5 -112.5
t-20 -136q0 -71 18 -120.5t50 -80t75.5 -44.5t93.5 -14q51 0 93 14t75 44.5t56 79t34 116.5h-253l17 61h318l-10 -59v0z" />
    <glyph glyph-name="H" unicode="H" horiz-adv-x="707" 
d="M566 324h-397l-69 -324h-70l153 717h70l-71 -331h397l70 331h69l-152 -717h-69z" />
    <glyph glyph-name="I" unicode="I" horiz-adv-x="241" 
d="M253 717l-153 -717h-70l153 717h70z" />
    <glyph glyph-name="J" unicode="J" horiz-adv-x="357" 
d="M372 717l-122 -575q-7 -31 -20.5 -58.5t-35.5 -48.5t-53 -33t-72 -12q-27 0 -51 5.5t-41 13.5l13 59q34 -16 78 -16q54 0 79.5 27.5t36.5 81.5l118 556h70z" />
    <glyph glyph-name="K" unicode="K" horiz-adv-x="609" 
d="M266 332h-95l-71 -332h-70l153 717h70l-69 -324h94l315 324h81l-347 -357l212 -360h-77z" />
    <glyph glyph-name="L" unicode="L" horiz-adv-x="561" 
d="M458 0h-428l153 717h70l-140 -655h359z" />
    <glyph glyph-name="M" unicode="M" horiz-adv-x="846" 
d="M767 614l-342 -505h-69l-129 515l-132 -624h-65l153 717h87l134 -538l362 538h92l-152 -717h-69z" />
    <glyph glyph-name="N" unicode="N" horiz-adv-x="722" 
d="M581 0h-90l-259 641l-136 -641h-66l153 717h88l260 -644l137 644h65z" />
    <glyph glyph-name="O" unicode="O" horiz-adv-x="728" 
d="M350 -10q-68 0 -123 22t-93.5 63t-59.5 99.5t-21 131.5q0 93 28.5 170t77.5 132.5t114.5 86.5t139.5 31q68 0 123 -22t94 -62.5t60 -99.5t21 -132q0 -93 -28.5 -170t-77.5 -132.5t-115 -86.5t-140 -31zM126 304q0 -121 60.5 -186.5t166.5 -65.5q60 0 112 27t90.5 75
t60 114.5t21.5 144.5q0 121 -60 186t-166 65q-61 0 -113 -27t-90.5 -75t-60 -114t-21.5 -144z" />
    <glyph glyph-name="P" unicode="P" horiz-adv-x="593" 
d="M183 717h216q47 0 86 -11t66.5 -34t43 -58t15.5 -83q0 -57 -20.5 -101.5t-56.5 -75t-84.5 -46t-105.5 -15.5h-180l-63 -293h-70zM240 655l-64 -301h182q39 0 72 11.5t57 33.5t37.5 54t13.5 74q0 68 -39 98t-108 30h-151z" />
    <glyph glyph-name="Q" unicode="Q" horiz-adv-x="728" 
d="M635 -131q-106 23 -196.5 57t-160.5 62q-52 21 -93.5 48.5t-71 65.5t-45 88t-15.5 116q0 93 28.5 170t77.5 132.5t114.5 86.5t139.5 31q68 0 123 -22t94 -62.5t60 -99.5t21 -132q0 -83 -24 -154t-67 -125t-103 -87.5t-133 -40.5q78 -25 143 -40.5t133 -25.5zM126 304
q0 -121 60.5 -186.5t166.5 -65.5q60 0 112 27t90.5 75t60 114.5t21.5 144.5q0 121 -60 186t-166 65q-61 0 -113 -27t-90.5 -75t-60 -114t-21.5 -144z" />
    <glyph glyph-name="R" unicode="R" horiz-adv-x="620" 
d="M183 717h214q101 0 159.5 -45.5t58.5 -140.5q0 -50 -16 -89t-45 -67t-69.5 -45t-88.5 -23l126 -307h-73l-124 304h-160l-65 -304h-70zM240 655l-62 -289h180q39 0 73 10.5t59 31t39 50.5t14 70q0 69 -41 98t-114 29h-148z" />
    <glyph glyph-name="S" unicode="S" horiz-adv-x="574" 
d="M267 -10q-53 0 -95 9.5t-74 23.5t-53 30t-32 30l13 63q15 -17 38 -33.5t54.5 -30t69.5 -22t83 -8.5q85 0 132.5 33.5t47.5 104.5q0 31 -10.5 53t-31 38t-49.5 28.5t-66 25.5q-33 12 -68 26t-63 35.5t-46 53.5t-18 81q0 91 66.5 143t183.5 52q78 0 129.5 -20.5t79.5 -43.5
l-13 -63q-37 29 -87 47t-110 18q-87 0 -134.5 -34.5t-47.5 -94.5q0 -32 13 -53t34 -36t48 -26t56 -21q35 -12 71 -26t65.5 -36.5t48.5 -56.5t19 -86q0 -98 -67 -151t-187 -53z" />
    <glyph glyph-name="T" unicode="T" horiz-adv-x="575" 
d="M406 655l-139 -655h-70l139 655h-230l14 62h529l-13 -62h-230z" />
    <glyph glyph-name="U" unicode="U" horiz-adv-x="678" 
d="M168 717h69l-95 -447q-12 -56 -3 -97t33.5 -68t61.5 -40t82 -13q89 0 148 50t81 157l97 458h68l-100 -469q-27 -127 -103 -192.5t-194 -65.5q-59 0 -109.5 17.5t-84.5 53t-47 90.5t3 130z" />
    <glyph glyph-name="V" unicode="V" horiz-adv-x="654" 
d="M320 0h-105l-101 717h69l94 -670l378 670h69z" />
    <glyph glyph-name="W" unicode="W" horiz-adv-x="952" 
d="M689 0h-98l-46 608l-298 -608h-101l-18 717h68l15 -651l320 651h69l51 -647l292 647h69z" />
    <glyph glyph-name="X" unicode="X" horiz-adv-x="617" 
d="M319 317l-273 -317h-81l328 376l-153 341h74l135 -297l253 297h80l-309 -355l165 -362h-75z" />
    <glyph glyph-name="Y" unicode="Y" horiz-adv-x="597" 
d="M345 310l-66 -310h-71l67 310l-158 407h74l130 -345l276 345h76z" />
    <glyph glyph-name="Z" unicode="Z" horiz-adv-x="601" 
d="M496 0h-504l12 52l538 603h-401l14 62h493l-11 -53l-539 -602h412z" />
    <glyph glyph-name="bracketleft" unicode="[" horiz-adv-x="375" 
d="M204 756h250l-13 -55h-186l-166 -784h186l-11 -56h-250z" />
    <glyph glyph-name="backslash" unicode="\" horiz-adv-x="367" 
d="M100 756h59l123 -876h-60z" />
    <glyph glyph-name="bracketright" unicode="]" horiz-adv-x="375" 
d="M198.013 -138.954h-249.985l13 54.9971h185.988l165.99 783.952h-185.989l10.999 55.9961h249.985z" />
    <glyph glyph-name="asciicircum" unicode="^" horiz-adv-x="443" 
d="M308 666l-181 -208h-58l208 259h80l97 -259h-55z" />
    <glyph glyph-name="underscore" unicode="_" horiz-adv-x="383" 
d="M-65 -58h391l-13 -57h-392z" />
    <glyph glyph-name="grave" unicode="`" horiz-adv-x="449" 
d="M337 588l-123 158h88l89 -158h-54z" />
    <glyph glyph-name="a" unicode="a" horiz-adv-x="515" 
d="M337 0q-1 15 0.5 43.5t9.5 62.5q-12 -21 -28 -42t-38 -37.5t-49 -26.5t-61 -10q-29 0 -56 8.5t-48 26t-34 45t-13 65.5q0 80 60.5 126t178.5 46h130l3 16q9 41 3 69.5t-24 46t-46 25.5t-63 8q-49 0 -88 -11t-71 -28l11 57q27 16 67 27.5t95 11.5q48 0 86.5 -12
t63.5 -37.5t33.5 -66.5t-4.5 -98l-48 -224q-5 -21 -8 -48.5t-2 -42.5h-60zM183 44q36 0 66 14.5t52.5 36t37.5 45.5t23 43l15 73h-123q-89 0 -129 -32t-40 -85q0 -48 27.5 -71.5t70.5 -23.5z" />
    <glyph glyph-name="b" unicode="b" horiz-adv-x="588" 
d="M556 296q0 -63 -18.5 -118.5t-53 -97.5t-82.5 -66t-108 -24q-68 0 -117 32.5t-68 94.5l-27 -117h-62l152 717h65l-58 -273q31 38 73.5 61.5t98.5 23.5q96 0 150.5 -62.5t54.5 -170.5zM292 47q47 0 84 21t62 55.5t38 79.5t13 94q0 89 -42.5 132t-108.5 43q-46 0 -82.5 -20
t-62.5 -54.5t-40 -80.5t-14 -98q0 -45 12 -77.5t33 -53.5t48.5 -31t59.5 -10z" />
    <glyph glyph-name="c" unicode="c" horiz-adv-x="484" 
d="M267 -10q-50 0 -93 14t-74.5 43.5t-49.5 74t-18 105.5q0 66 20.5 121.5t57.5 95.5t89 62.5t115 22.5q48 0 84.5 -11t62.5 -31l-13 -56q-63 41 -136 41q-52 0 -92 -18.5t-67 -51t-40.5 -76.5t-13.5 -95q0 -93 48 -138.5t129 -45.5q32 0 66 7.5t66 22.5l-12 -60
q-57 -27 -129 -27z" />
    <glyph glyph-name="d" unicode="d" horiz-adv-x="589" 
d="M415 85q-32 -42 -76.5 -68.5t-103.5 -26.5q-45 0 -82 15.5t-64 45t-42 72.5t-15 99q0 63 18.5 118.5t53 97.5t83 66.5t108.5 24.5q67 0 116 -32t68 -97l67 317h65l-152 -717h-58zM450 303q0 45 -12 77t-33 52.5t-49 30t-59 9.5q-47 0 -83.5 -19t-61.5 -51.5t-38.5 -77
t-13.5 -95.5q0 -47 11.5 -81t31.5 -56.5t47 -33.5t59 -11q49 0 87 22.5t63 59t38 82.5t13 92z" />
    <glyph glyph-name="e" unicode="e" horiz-adv-x="534" 
d="M430 25q-20 -11 -58 -23t-95 -12q-116 0 -180.5 60.5t-64.5 175.5q0 70 21.5 126.5t58 95.5t85.5 60t104 21q54 0 96.5 -20t67.5 -56.5t29.5 -89t-17.5 -117.5h-378v-19q0 -88 46.5 -134t136.5 -46q49 0 91.5 11.5t68.5 24.5zM295 472q-70 0 -120.5 -44.5t-67.5 -125.5
h322q9 43 1.5 75t-26.5 53t-47.5 31.5t-61.5 10.5z" />
    <glyph glyph-name="f" unicode="f" horiz-adv-x="347" 
d="M220 465l-117 -592h-65l117 592h-66l11 54h66l3 16q18 96 65 143.5t132 47.5q17 0 35.5 -2t29.5 -6l-12 -57q-8 3 -26.5 5.5t-35.5 2.5q-55 0 -82 -31.5t-41 -102.5l-3 -16h148l-10 -54h-149z" />
    <glyph glyph-name="g" unicode="g" horiz-adv-x="587" 
d="M470 53q-12 -57 -33 -100t-54 -72.5t-80 -44.5t-111 -15q-59 0 -110.5 14t-83.5 39l12 58q42 -29 88.5 -41.5t96.5 -12.5q48 0 83 10.5t60 33t41.5 57t26.5 81.5l11 53q-32 -42 -76.5 -67t-103.5 -25q-44 0 -81 14.5t-63.5 42.5t-41.5 68.5t-15 93.5q0 59 18.5 111.5
t52.5 92t82.5 62.5t108.5 23q68 0 118 -31.5t67 -93.5l3 11q7 34 15 62t13 42h60q-5 -14 -12.5 -43t-14.5 -61zM252 77q49 0 86 21t62 55t37.5 76.5t12.5 85.5q0 42 -12 71.5t-32.5 48.5t-48 28t-58.5 9q-46 0 -82.5 -17.5t-61.5 -48t-38 -72t-13 -88.5q0 -87 42 -128
t106 -41z" />
    <glyph glyph-name="h" unicode="h" horiz-adv-x="564" 
d="M342 472q-34 0 -61.5 -10t-49.5 -26.5t-39.5 -39t-32.5 -47.5l-74 -349h-65l152 717h65l-43 -202l-23 -99h2q30 48 76 80.5t117 32.5q85 0 124 -53t18 -150l-69 -326h-65l69 327q9 40 5 67.5t-18 44.5t-36.5 25t-51.5 8z" />
    <glyph glyph-name="i" unicode="i" horiz-adv-x="214" 
d="M185 613q-20 0 -33 14t-13 32q0 19 13 33t33 14t33.5 -14t13.5 -33q0 -18 -13.5 -32t-33.5 -14zM195 519l-110 -519h-65l110 519h65z" />
    <glyph glyph-name="j" unicode="j" horiz-adv-x="221" 
d="M192 613q-20 0 -33 14t-13 32q0 19 13 33t33 14t33.5 -14t13.5 -33q0 -18 -13.5 -32t-33.5 -14zM84 -43q-7 -32 -18.5 -58.5t-29.5 -45.5t-43 -29.5t-60 -10.5q-25 0 -46.5 6t-36.5 16l12 55q11 -7 29 -13.5t44 -6.5q39 0 56.5 22.5t27.5 70.5l118 556h65z" />
    <glyph glyph-name="k" unicode="k" horiz-adv-x="470" 
d="M192 238h-57l-50 -238h-65l152 717h65l-90 -425h57l234 227h77l-267 -259l156 -260h-71z" />
    <glyph glyph-name="l" unicode="l" horiz-adv-x="214" 
d="M237 717l-152 -717h-65l152 717h65z" />
    <glyph glyph-name="m" unicode="m" horiz-adv-x="868" 
d="M85 0h-65l110 519h61l-20 -103h2q29 48 72 80.5t107 32.5q61 0 97.5 -33t40.5 -96q30 55 77 92t116 37q77 0 114 -51.5t17 -150.5l-70 -327h-65l69 328q9 40 5 67.5t-16.5 44.5t-33 24.5t-45.5 7.5q-29 0 -53.5 -9t-45.5 -25.5t-38 -38.5t-32 -48l-75 -351h-65l70 328
q9 40 5.5 67.5t-16.5 44.5t-33.5 24.5t-46.5 7.5q-31 0 -56 -10t-45.5 -26.5t-37 -39t-30.5 -47.5z" />
    <glyph glyph-name="n" unicode="n" horiz-adv-x="564" 
d="M342 472q-34 0 -61.5 -10t-49.5 -26.5t-39.5 -39t-32.5 -47.5l-74 -349h-65l110 519h61l-20 -103h2q30 48 76 80.5t117 32.5q85 0 124 -53t18 -150l-69 -326h-65l69 327q9 40 5 67.5t-18 44.5t-36.5 25t-51.5 8z" />
    <glyph glyph-name="o" unicode="o" horiz-adv-x="547" 
d="M250 -10q-50 0 -90 16.5t-68.5 47t-44 73.5t-15.5 97q0 63 19 119t54 97t83.5 65t108.5 24q49 0 89.5 -16.5t69.5 -47t44.5 -73.5t15.5 -97q0 -63 -19 -119t-54 -97t-84 -65t-109 -24zM99 226q0 -90 43 -134.5t111 -44.5q44 0 80 18.5t61.5 51t39.5 77.5t14 98
q0 91 -43.5 135.5t-109.5 44.5q-44 0 -80.5 -18.5t-62 -51.5t-39.5 -78t-14 -98z" />
    <glyph glyph-name="p" unicode="p" horiz-adv-x="588" 
d="M294 -10q-67 0 -116 32t-68 94l-63 -293h-65l148 696h58l-13 -80q31 41 75 65.5t101 24.5q96 0 150.5 -62.5t54.5 -170.5q0 -63 -18.5 -118.5t-53 -97.5t-82.5 -66t-108 -24zM139 219q0 -45 12 -77.5t33 -53.5t48.5 -31t59.5 -10q47 0 84 21t62 55.5t38 79.5t13 94
q0 89 -42.5 132t-108.5 43q-46 0 -82.5 -20t-62.5 -54.5t-40 -80.5t-14 -98z" />
    <glyph glyph-name="q" unicode="q" horiz-adv-x="589" 
d="M422 -177h-65l54 256q-32 -40 -75.5 -64.5t-100.5 -24.5q-45 0 -82 15.5t-64 45t-42 72.5t-15 99q0 63 18.5 118.5t53 97.5t83 66.5t108.5 24.5q69 0 118.5 -33.5t67.5 -101.5l5 21q6 34 14 61.5t14 42.5h61q-5 -14 -12.5 -43t-15.5 -61zM450 303q0 45 -12 77t-33 52.5
t-49 30t-59 9.5q-47 0 -83.5 -19t-61.5 -51.5t-38.5 -77t-13.5 -95.5q0 -47 11.5 -81t31.5 -56.5t47 -33.5t59 -11q49 0 87 22.5t63 59t38 82.5t13 92z" />
    <glyph glyph-name="r" unicode="r" horiz-adv-x="340" 
d="M348 457q-62 3 -112 -27t-80 -99l-71 -331h-65l110 519h58l-20 -119h2q26 55 73 92t120 37l-15 -72v0z" />
    <glyph glyph-name="s" unicode="s" horiz-adv-x="461" 
d="M402 144q0 -75 -48 -114.5t-139 -39.5q-39 0 -71 6.5t-57.5 16.5t-45 22t-31.5 23l13 58q13 -12 32.5 -24.5t44 -22t54.5 -16t63 -6.5q68 0 95.5 26t27.5 64q0 25 -10 41.5t-27 27t-39 18t-47 14.5q-27 8 -54 18t-48.5 25.5t-34.5 39t-13 59.5q0 37 14 64.5t39.5 46.5
t60.5 28.5t77 9.5q62 0 102.5 -15.5t64.5 -31.5l-12 -58q-26 18 -63 33t-91 15q-62 0 -95.5 -21.5t-33.5 -64.5q0 -21 8.5 -35t23 -24t34 -16.5t42.5 -13.5q27 -8 56 -17t53 -25.5t39.5 -42.5t15.5 -68z" />
    <glyph glyph-name="t" unicode="t" horiz-adv-x="350" 
d="M249 2q-26 -12 -65 -12q-75 0 -102.5 43.5t-12.5 110.5l69 321h-65l12 54h65l23 109h65l-23 -109h147l-12 -54h-147l-70 -325q-10 -45 4.5 -69t58.5 -24q19 0 36 2.5t28 7.5l-11 -55v0z" />
    <glyph glyph-name="u" unicode="u" horiz-adv-x="552" 
d="M217 47q33 0 59.5 10t47.5 27.5t37.5 39.5t30.5 46l75 349h65l-110 -519h-58l17 105h-2q-14 -23 -31 -44t-39 -37t-49.5 -25t-61.5 -9q-82 0 -122 52t-21 144l71 333h65l-70 -330q-8 -38 -3.5 -64.5t18 -44t34.5 -25.5t47 -8z" />
    <glyph glyph-name="v" unicode="v" horiz-adv-x="496" 
d="M243 0h-102l-74 519h66l66 -483l271 483h68z" />
    <glyph glyph-name="w" unicode="w" horiz-adv-x="754" 
d="M542 0h-99l-30 434l-215 -434h-96l-16 519h67l11 -466l228 466h76l34 -473l211 473h66z" />
    <glyph glyph-name="x" unicode="x" horiz-adv-x="475" 
d="M228 218l-189 -218h-75l239 271l-114 248h70l94 -203l172 203h75l-221 -254l124 -265h-71z" />
    <glyph glyph-name="y" unicode="y" horiz-adv-x="501" 
d="M241 6q-27 -47 -52.5 -83t-52.5 -60.5t-57.5 -37t-67.5 -12.5q-15 0 -28.5 2t-24.5 7l13 58q9 -5 22.5 -7.5t28.5 -2.5q40 0 69 26.5t66 82.5l-91 540h69l73 -457l263 457h67l-297 -513v0z" />
    <glyph glyph-name="z" unicode="z" horiz-adv-x="449" 
d="M356 0h-375l9 43l372 419h-278l12 57h365l-9 -43l-373 -419h289z" />
    <glyph glyph-name="braceleft" unicode="{" horiz-adv-x="387" 
d="M274 -135q-38 -6 -69 -6q-63 0 -95 27t-32 78q0 31 11 63.5t24 64t24 61.5t11 56q0 29 -20.5 49t-71.5 25l11 53q46 4 74 18.5t43 36t19.5 47t4.5 52.5t-2 58t1 61q8 70 51 109t124 39q37 0 75 -7l-11 -53q-19 5 -35 6.5t-32 1.5q-56 0 -81.5 -29t-29.5 -70
q-3 -28 -0.5 -56.5t2.5 -54.5t-4.5 -53.5t-18 -53t-38.5 -47t-67 -34.5q38 -14 53 -38t15 -59q0 -30 -11 -60t-24 -60t-24 -60t-11 -59q0 -28 20 -43.5t64 -15.5q14 0 29 1.5t32 3.5l-11 -52v0z" />
    <glyph glyph-name="bar" unicode="|" horiz-adv-x="281" 
d="M175 756v-876h-63v876h63z" />
    <glyph glyph-name="braceright" unicode="}" horiz-adv-x="387" 
d="M128.017 751.992q37.998 5.99902 68.9961 5.99902q62.9961 0 94.9941 -26.998t31.998 -77.9951q0 -30.998 -10.999 -63.4961q-11 -32.498 -23.999 -63.9961t-23.998 -61.4961q-11 -29.999 -11 -55.9971q0 -28.998 20.499 -48.9971t71.4961 -24.998l-11 -52.9971
q-45.9971 -4 -73.9951 -18.499t-42.9971 -35.998q-15 -21.498 -19.499 -46.9971q-4.5 -25.498 -4.5 -52.4961q0 -26.999 2 -57.9971t-1 -60.9961q-8 -69.9961 -50.9971 -108.993q-42.9971 -38.998 -123.992 -38.998q-36.998 0 -74.9951 7l10.999 52.9971
q18.999 -5 34.998 -6.5t31.998 -1.5q55.9961 0 81.4951 28.998q25.498 28.998 29.498 69.9961q3 27.998 0.5 56.4961q-2.5 28.499 -2.5 54.4971t4.5 53.4971q4.49902 27.498 17.998 52.9961q13.5 25.499 38.498 46.9971q24.999 21.499 66.9961 34.498
q-37.998 13.999 -52.9971 37.998q-14.999 23.998 -14.999 58.9961q0 29.998 10.999 59.9961q11 29.999 23.999 59.9971t23.998 59.9961q11 29.998 11 58.9961q0 27.998 -19.999 43.4971t-63.9961 15.499q-13.999 0 -28.998 -1.49902q-14.999 -1.5 -31.998 -3.5
l10.999 51.9971v0z" />
    <glyph glyph-name="asciitilde" unicode="~" horiz-adv-x="602" 
d="M36 251q3 31 14 60t30.5 52t48.5 37t68 14q42 0 71 -15.5t53 -33.5t46 -33.5t51 -15.5q37 0 60.5 25t31.5 79h59q-2 -30 -12 -59.5t-29.5 -52.5t-48.5 -37t-68 -14q-41 0 -70.5 15.5t-53.5 33.5t-47 33.5t-51 15.5q-36 0 -60 -24.5t-33 -79.5h-60v0z" />
    <glyph glyph-name="uni00A0" unicode="&#xa0;" horiz-adv-x="208" 
 />
    <glyph glyph-name="exclamdown" unicode="&#xa1;" horiz-adv-x="234" 
d="M-13.9854 -179.957l118.993 524.968h52.9961l-105.993 -524.968h-65.9961zM156.005 529q23.998 0 38.9971 -14.999t14.999 -36.998q0 -22.999 -14.999 -37.998t-38.9971 -14.999q-22.999 0 -37.998 14.999t-14.999 37.998q0 21.999 14.999 36.998t37.998 14.999z" />
    <glyph glyph-name="cent" unicode="&#xa2;" 
d="M304 -10q-13 0 -26 1l-27 -131h-56l29 140l-13 4q-43 14 -74.5 43.5t-49.5 74t-18 105.5q0 66 20.5 121.5t57.5 95.5t89 62q46 20 101 23l25 115h55l-25 -118q23 -2 43 -8q37 -11 63 -31l-13 -56q-63 41 -136 41q-52 0 -92 -18.5t-67 -51t-40.5 -76.5t-13.5 -95
q0 -93 48 -138.5t129 -45.5q32 0 66 7.5t66 22.5l-12 -60q-57 -27 -129 -27z" />
    <glyph glyph-name="sterling" unicode="&#xa3;" 
d="M463 0h-457l8 40q72 44 109 101.5t37 142.5v6h-101l12 56h86q-2 27 -4.5 55t-2.5 63q0 57 16.5 105.5t50 83t84 54t119.5 19.5q52 0 89.5 -11.5t55.5 -26.5l-13 -58q-21 16 -56 26.5t-80 10.5q-54 0 -91.5 -15t-61.5 -42t-34.5 -63.5t-10.5 -78.5q0 -35 2.5 -64t4.5 -58
h180l-12 -56h-166q-1 -74 -30.5 -129.5t-92.5 -102.5h372z" />
    <glyph glyph-name="currency" unicode="&#xa4;" horiz-adv-x="568" 
d="M294 139q-36 0 -67.5 11t-57.5 30l-69 -69l-38 38l69 70q-20 26 -30.5 57t-10.5 67t10.5 67t30.5 57l-69 69l38 39l69 -70q26 20 57.5 31t67.5 11q35 0 66.5 -10.5t57.5 -30.5l70 70l37 -39l-69 -69q20 -26 31 -57.5t11 -67.5t-11 -67t-31 -57l69 -70l-38 -38l-70 69
q-26 -19 -57 -30t-66 -11zM294 193q29 0 55 10.5t45 30t30 47.5t11 62t-11 62t-30 47.5t-45 30t-55 10.5t-54.5 -10.5t-44.5 -30t-30 -47.5t-11 -62t11 -62t30 -47.5t44.5 -30t54.5 -10.5z" />
    <glyph glyph-name="yen" unicode="&#xa5;" 
d="M277 161l-34 -161h-66l35 161h-170l12 52h169l21 99h-169l11 52h154l-135 353h71l119 -318l255 318h72l-284 -353h151l-10 -52h-170l-21 -99h169l-11 -52h-169z" />
    <glyph glyph-name="brokenbar" unicode="&#xa6;" horiz-adv-x="281" 
d="M175 756v-400h-63v400h63zM175 280v-400h-63v400h63z" />
    <glyph glyph-name="section" unicode="&#xa7;" horiz-adv-x="571" 
d="M429 -1q0 -45 -19 -79.5t-52 -58.5t-78.5 -36t-98.5 -12q-44 0 -80.5 7.5t-64.5 18t-46.5 23t-27.5 22.5l12 58q11 -11 30.5 -24t46.5 -24t60.5 -18t72.5 -7q81 0 129 33t48 91q0 25 -10 43t-28.5 31.5t-45.5 23.5t-61 21q-32 10 -63 23.5t-55 33t-39 45.5t-15 62
q0 65 48.5 104.5t127.5 46.5q-34 22 -53 52.5t-19 71.5q0 37 15.5 69t46 56t75.5 37.5t105 13.5q69 0 116 -16t73 -30l-13 -59q-32 23 -81 36t-104 13q-85 0 -125.5 -30.5t-40.5 -82.5q0 -50 35.5 -75t100.5 -44q32 -9 64 -22.5t57.5 -33.5t41.5 -47.5t16 -65.5
q0 -61 -45.5 -100.5t-130.5 -47.5q35 -21 55 -50t20 -73zM112 287q0 -32 17 -55.5t45.5 -39t65 -22.5t75.5 -7q78 0 113 27.5t35 70.5q0 32 -17 55.5t-45.5 38.5t-64.5 23t-75 8q-78 0 -113.5 -28t-35.5 -71z" />
    <glyph glyph-name="dieresis" unicode="&#xa8;" horiz-adv-x="449" 
d="M215 613q-21 0 -33 13.5t-12 32.5t12 32.5t33 13.5q22 0 34.5 -13.5t12.5 -32.5t-12.5 -32.5t-34.5 -13.5zM416 613q-21 0 -33.5 13.5t-12.5 32.5t12.5 32.5t33.5 13.5t33.5 -13.5t12.5 -32.5t-12.5 -32.5t-33.5 -13.5z" />
    <glyph glyph-name="copyright" unicode="&#xa9;" horiz-adv-x="902" 
d="M458 -96q-87 0 -162 30.5t-130.5 85.5t-87 131t-31.5 166q0 89 31.5 164t87 129.5t130.5 85t162 30.5t162.5 -30.5t130.5 -85t86.5 -129.5t31.5 -164q0 -90 -31.5 -166t-86.5 -131t-130.5 -85.5t-162.5 -30.5zM458 -47q79 0 145 27t113.5 75.5t73.5 115.5t26 146
q0 78 -26 144t-73.5 114.5t-113.5 75.5t-145 27t-145 -27t-113 -75.5t-73.5 -114.5t-26.5 -144q0 -79 26.5 -146t73.5 -115.5t113 -75.5t145 -27zM474 100q-96 0 -151.5 57t-55.5 158q0 102 53.5 158t152.5 56q42 0 72.5 -10t48.5 -24v-54q-22 17 -54 25.5t-67 8.5
q-145 0 -145 -160q0 -79 38.5 -120.5t111.5 -41.5q32 0 62.5 10t53.5 30v-57q-17 -14 -46.5 -25t-73.5 -11z" />
    <glyph glyph-name="ordfeminine" unicode="&#xaa;" horiz-adv-x="449" 
d="M353 328q-2 13 0 37.5t8 51.5q-10 -18 -24 -35.5t-32.5 -31.5t-42 -22.5t-51.5 -8.5q-25 0 -49 7.5t-42.5 22.5t-30 38.5t-11.5 56.5q0 71 53.5 111t156.5 40h111l3 12q7 36 2 61t-20.5 40t-40 22t-55.5 7q-42 0 -76 -10t-61 -25l9 51q24 14 58.5 24t82.5 10
q42 0 76 -10.5t56 -33t30 -58t-3 -85.5l-43 -194q-5 -17 -7.5 -41t-1.5 -37h-55zM222 368q36 0 64 15.5t47.5 37.5t31 44.5t14.5 37.5l10 46h-106q-76 0 -110.5 -27.5t-34.5 -72.5q0 -42 24 -61.5t60 -19.5z" />
    <glyph glyph-name="guillemotleft" unicode="&#xab;" horiz-adv-x="491" 
d="M312 259l97 -190h-63l-100 195l179 195h71zM112 260l97 -191h-64l-100 195l179 195h72z" />
    <glyph glyph-name="logicalnot" unicode="&#xac;" horiz-adv-x="590" 
d="M495 110h-63l46 208h-421l11 54h483l-6 -27z" />
    <glyph glyph-name="registered" unicode="&#xae;" horiz-adv-x="902" 
d="M458 -96q-87 0 -162 30.5t-130.5 85.5t-87 131t-31.5 166q0 89 31.5 164t87 129.5t130.5 85t162 30.5t162.5 -30.5t130.5 -85t86.5 -129.5t31.5 -164q0 -90 -31.5 -166t-86.5 -131t-130.5 -85.5t-162.5 -30.5zM458 -47q79 0 145 27t113.5 75.5t73.5 115.5t26 146
q0 78 -26 144t-73.5 114.5t-113.5 75.5t-145 27t-145 -27t-113 -75.5t-73.5 -114.5t-26.5 -144q0 -79 26.5 -146t73.5 -115.5t113 -75.5t145 -27zM324 524h142q73 0 112 -28.5t39 -91.5q0 -51 -25 -81t-67 -41l105 -175h-68l-100 166h-77v-166h-61v417zM385 470v-143h76
q43 0 68.5 16.5t25.5 58.5q0 37 -22.5 52.5t-66.5 15.5h-81z" />
    <glyph glyph-name="macron" unicode="&#xaf;" horiz-adv-x="449" 
d="M180 679h277l-11 -53h-277z" />
    <glyph glyph-name="degree" unicode="&#xb0;" horiz-adv-x="456" 
d="M237 419q-33 0 -61 11.5t-48.5 32.5t-32 49t-11.5 61q0 34 11.5 62t32 48t48.5 31.5t61 11.5t61.5 -11.5t49 -31.5t32 -48t11.5 -62q0 -33 -11.5 -61t-32 -49t-49 -32.5t-61.5 -11.5zM237 468q48 0 75 28.5t27 76.5q0 47 -27 76t-75 29q-46 0 -73 -29t-27 -76
q0 -48 27 -76.5t73 -28.5z" />
    <glyph glyph-name="plusminus" unicode="&#xb1;" 
d="M313 310l-40 -187h-63l40 187h-200l11 54h200l46 219h63l-45 -219h200l-12 -54h-200zM-16 0l10 54h464l-11 -54h-463z" />
    <glyph glyph-name="twosuperior" unicode="&#xb2;" horiz-adv-x="349" 
d="M332 325h-285l13 58q81 46 132.5 83t80.5 68t40 58.5t11 55.5q0 40 -22 62.5t-64 22.5q-35 0 -62.5 -13t-50.5 -35l13 60q19 15 46 26.5t67 11.5q62 0 99 -35t37 -95q0 -38 -15 -71.5t-46.5 -66.5t-80.5 -67.5t-118 -72.5h216z" />
    <glyph glyph-name="threesuperior" unicode="&#xb3;" horiz-adv-x="341" 
d="M349 457q0 -61 -43 -99.5t-117 -38.5q-51 0 -84 15.5t-50 32.5l11 49q18 -17 47.5 -33t75.5 -16q50 0 74 25t24 65t-24 59.5t-66 19.5h-49l10 47h49q53 0 79.5 22.5t26.5 57.5t-24 53t-57 18q-34 0 -57.5 -11t-46.5 -29l13 57q22 15 46 23.5t57 8.5q57 0 93 -31t36 -83
q0 -47 -29.5 -76t-74.5 -35q35 -8 57.5 -32.5t22.5 -68.5z" />
    <glyph glyph-name="acute" unicode="&#xb4;" horiz-adv-x="449" 
d="M364 746h90l-149 -158h-58z" />
    <glyph glyph-name="paragraph" unicode="&#xb6;" horiz-adv-x="610" 
d="M83 474q0 57 21.5 102t60 76.5t92.5 48t119 16.5h110l-192 -904h-62l98 466h-32q-97 0 -156 50t-59 145zM430 -187h-62l193 904h61z" />
    <glyph glyph-name="periodcentered" unicode="&#xb7;" horiz-adv-x="219" 
d="M110 210q-24 0 -39 15t-15 37q0 23 15 38t39 15t38.5 -15t14.5 -38q0 -22 -14.5 -37t-38.5 -15z" />
    <glyph glyph-name="cedilla" unicode="&#xb8;" horiz-adv-x="449" 
d="M270 16l-102 -203h-82l130 203h54z" />
    <glyph glyph-name="onesuperior" unicode="&#xb9;" horiz-adv-x="245" 
d="M199 325h-60l81 379l-135 -94l14 65l145 101h51z" />
    <glyph glyph-name="ordmasculine" unicode="&#xba;" horiz-adv-x="477" 
d="M277 319q-43 0 -78.5 14.5t-60.5 41.5t-38.5 65t-13.5 85q0 54 16.5 102t47 83.5t73 56t94.5 20.5q43 0 78.5 -14.5t60.5 -41t38.5 -64.5t13.5 -85q0 -54 -16.5 -102t-47 -84t-73 -56.5t-94.5 -20.5zM147 526q0 -79 37 -117t94 -38q38 0 69 15.5t53 43.5t34 66.5t12 83.5
q0 79 -37 117.5t-95 38.5q-38 0 -68.5 -16t-52.5 -44t-34 -66.5t-12 -83.5z" />
    <glyph glyph-name="guillemotright" unicode="&#xbb;" horiz-adv-x="492" 
d="M272 69h-72l184 200l-96 190h63l101 -195zM70 69h-71l184 199l-97 191h64l100 -195z" />
    <glyph glyph-name="onequarter" unicode="&#xbc;" horiz-adv-x="856" 
d="M199 265h-60l81 379l-135 -94l14 65l145 101h51zM89 0l647 717h63l-646 -717h-64zM719 106l-22 -105h-60l23 105h-213l9 44l268 303h67l-62 -298h62l-11 -49h-61zM670 155l50 232l-206 -232h156z" />
    <glyph glyph-name="onehalf" unicode="&#xbd;" horiz-adv-x="918" 
d="M89 0l647 717h63l-646 -717h-64zM826 1h-285l13 58q81 46 132.5 83t80.5 68t40 58.5t11 55.5q0 40 -22 62.5t-64 22.5q-35 0 -62.5 -13t-50.5 -35l13 60q19 15 46 26.5t67 11.5q62 0 99 -35t37 -95q0 -38 -15 -71.5t-46.5 -66.5t-80.5 -67.5t-118 -72.5h216zM199 265h-60
l81 379l-135 -94l14 65l145 101h51z" />
    <glyph glyph-name="threequarters" unicode="&#xbe;" horiz-adv-x="921" 
d="M345 397q0 -61 -43 -99.5t-117 -38.5q-51 0 -84 15.5t-50 32.5l11 49q18 -17 47.5 -33t75.5 -16q50 0 74 25t24 65t-24 59.5t-66 19.5h-49l10 47h49q53 0 79.5 22.5t26.5 57.5t-24 53t-57 18q-34 0 -57.5 -11t-46.5 -29l13 57q22 15 46 23.5t57 8.5q57 0 93 -31t36 -83
q0 -47 -29.5 -76t-74.5 -35q35 -8 57.5 -32.5t22.5 -68.5zM156 0l647 717h63l-646 -717h-64zM781 106l-22 -105h-60l23 105h-213l9 44l268 303h67l-62 -298h62l-11 -49h-61zM732 155l50 232l-206 -232h156z" />
    <glyph glyph-name="questiondown" unicode="&#xbf;" horiz-adv-x="442" 
d="M-9.97168 -29.9658q0 54.9961 19.999 90.9941t50.9971 61.4961t67.4961 44.4971q36.4971 18.999 69.4951 39.498q32.998 20.498 56.9971 47.9971q23.998 27.498 29.998 68.4951l4 20.999h55.9961l-2 -19.999q-5.99902 -55.9961 -29.998 -90.4941
q-23.998 -34.498 -55.4961 -57.9961q-31.498 -23.499 -66.9961 -40.498t-65.4961 -36.9971q-29.998 -19.999 -49.4971 -47.9971q-19.499 -27.999 -19.499 -73.9961q0 -24.998 7.5 -46.4971q7.49902 -21.499 24.998 -37.998t45.9971 -25.998
q28.499 -9.49902 70.4961 -9.49902q33.998 0 69.9961 6.99902q35.9971 7 65.9961 19.999l-12 -58.9961q-28.998 -13.999 -65.9961 -20.499q-36.9971 -6.5 -71.9951 -6.5q-100.994 0 -150.991 47.4971t-49.9971 125.493zM327.008 528q23.999 0 38.998 -14.999t14.999 -36.998
q0 -22.999 -14.999 -37.998t-38.998 -14.999q-22.998 0 -37.9971 14.999t-14.999 37.998q0 21.999 14.999 36.998t37.9971 14.999z" />
    <glyph glyph-name="Agrave" unicode="&#xc0;" horiz-adv-x="660" 
d="M378 717h97l110 -717h-69l-33 217h-325l-125 -217h-67zM473 279l-58 384l-221 -384h279zM411 773l-129 136h94l96 -136h-61z" />
    <glyph glyph-name="Aacute" unicode="&#xc1;" horiz-adv-x="660" 
d="M378 717h97l110 -717h-69l-33 217h-325l-125 -217h-67zM473 279l-58 384l-221 -384h279zM514 909h98l-152 -136h-67z" />
    <glyph glyph-name="Acircumflex" unicode="&#xc2;" horiz-adv-x="660" 
d="M378 717h97l110 -717h-69l-33 217h-325l-125 -217h-67zM473 279l-58 384l-221 -384h279zM446 862l-114 -99h-58l142 148h76l79 -148h-55z" />
    <glyph glyph-name="Atilde" unicode="&#xc3;" horiz-adv-x="660" 
d="M378 717h97l110 -717h-69l-33 217h-325l-125 -217h-67zM473 279l-58 384l-221 -384h279zM252 789q-1 57 28.5 90t78.5 33q27 0 46 -9t35.5 -20.5t33 -20.5t36.5 -9q46 0 52 63h48q1 -57 -25 -90.5t-76 -33.5q-26 0 -44.5 9.5t-35 20.5t-33 20.5t-38.5 9.5
q-23 0 -39 -15.5t-19 -47.5h-48v0z" />
    <glyph glyph-name="Adieresis" unicode="&#xc4;" horiz-adv-x="660" 
d="M378 717h97l110 -717h-69l-33 217h-325l-125 -217h-67zM473 279l-58 384l-221 -384h279zM321 797q-21 0 -33.5 13t-12.5 31q0 20 12.5 33.5t33.5 13.5q22 0 34.5 -13.5t12.5 -33.5q0 -18 -12.5 -31t-34.5 -13zM546 797q-21 0 -33.5 13t-12.5 31q0 20 12.5 33.5t33.5 13.5
t34 -13.5t13 -33.5q0 -18 -13 -31t-34 -13z" />
    <glyph glyph-name="Aring" unicode="&#xc5;" horiz-adv-x="660" 
d="M378 717h97l110 -717h-69l-33 217h-325l-125 -217h-67zM473 279l-58 384l-221 -384h279zM437 752q-48 0 -79 30.5t-31 78.5t31 78.5t79 30.5t79.5 -30.5t31.5 -78.5t-31.5 -78.5t-79.5 -30.5zM437 796q29 0 47 18t18 47t-18 47.5t-47 18.5q-28 0 -46 -18.5t-18 -47.5
t18 -47t46 -18z" />
    <glyph glyph-name="AE" unicode="&#xc6;" horiz-adv-x="960" 
d="M847 0h-435l52 244h-242l-186 -244h-73l548 717h484l-14 -62h-360l-53 -249h309l-13 -61h-309l-61 -283h366zM477 306l81 377l-288 -377h207z" />
    <glyph glyph-name="Ccedilla" unicode="&#xc7;" horiz-adv-x="653" 
d="M359 -10q-63 0 -119 18.5t-97.5 57.5t-65.5 99t-24 142q0 88 28 164.5t79.5 133t123.5 89t160 32.5q67 0 120.5 -17.5t84.5 -46.5l-15 -65q-36 34 -87.5 50.5t-107.5 16.5q-73 0 -131 -28t-98.5 -76.5t-62 -112.5t-21.5 -136q0 -71 18.5 -120.5t51 -80t76 -44.5t93.5 -14
q56 0 105 16t94 45l-14 -68q-30 -23 -80 -39t-111 -16zM382 16l-102 -203h-82l130 203h54z" />
    <glyph glyph-name="Egrave" unicode="&#xc8;" horiz-adv-x="579" 
d="M183 717h431l-15 -62h-359l-53 -249h308l-13 -61h-308l-61 -283h366l-13 -62h-436zM399 773l-129 136h94l96 -136h-61z" />
    <glyph glyph-name="Eacute" unicode="&#xc9;" horiz-adv-x="579" 
d="M183 717h431l-15 -62h-359l-53 -249h308l-13 -61h-308l-61 -283h366l-13 -62h-436zM473 909h98l-152 -136h-67z" />
    <glyph glyph-name="Ecircumflex" unicode="&#xca;" horiz-adv-x="579" 
d="M183 717h431l-15 -62h-359l-53 -249h308l-13 -61h-308l-61 -283h366l-13 -62h-436zM429 862l-114 -99h-58l142 148h76l79 -148h-55z" />
    <glyph glyph-name="Edieresis" unicode="&#xcb;" horiz-adv-x="579" 
d="M183 717h431l-15 -62h-359l-53 -249h308l-13 -61h-308l-61 -283h366l-13 -62h-436zM303 797q-21 0 -33.5 13t-12.5 31q0 20 12.5 33.5t33.5 13.5q22 0 34.5 -13.5t12.5 -33.5q0 -18 -12.5 -31t-34.5 -13zM528 797q-21 0 -33.5 13t-12.5 31q0 20 12.5 33.5t33.5 13.5
t34 -13.5t13 -33.5q0 -18 -13 -31t-34 -13z" />
    <glyph glyph-name="Igrave" unicode="&#xcc;" horiz-adv-x="241" 
d="M253 717l-153 -717h-70l153 717h70zM193 773l-129 136h94l96 -136h-61z" />
    <glyph glyph-name="Iacute" unicode="&#xcd;" horiz-adv-x="241" 
d="M253 717l-153 -717h-70l153 717h70zM315 909h98l-152 -136h-67z" />
    <glyph glyph-name="Icircumflex" unicode="&#xce;" horiz-adv-x="241" 
d="M253 717l-153 -717h-70l153 717h70zM238 862l-114 -99h-58l142 148h76l79 -148h-55z" />
    <glyph glyph-name="Idieresis" unicode="&#xcf;" horiz-adv-x="241" 
d="M253 717l-153 -717h-70l153 717h70zM113 797q-21 0 -33.5 13t-12.5 31q0 20 12.5 33.5t33.5 13.5q22 0 34.5 -13.5t12.5 -33.5q0 -18 -12.5 -31t-34.5 -13zM338 797q-21 0 -33.5 13t-12.5 31q0 20 12.5 33.5t33.5 13.5t34 -13.5t13 -33.5q0 -18 -13 -31t-34 -13z" />
    <glyph glyph-name="Eth" unicode="&#xd0;" horiz-adv-x="739" 
d="M146 393l69 324h192q62 0 117 -15.5t96 -50t65 -90t24 -136.5q0 -83 -27 -160t-79 -136t-127 -94t-172 -35h-242l72 338h-104l13 55h103zM203 338l-59 -276h166q78 0 139 30t102 80t62.5 115t21.5 135q0 66 -18 110.5t-49 72t-73 39t-90 11.5h-134l-56 -262h227l-12 -55
h-227z" />
    <glyph glyph-name="Ntilde" unicode="&#xd1;" horiz-adv-x="722" 
d="M581 0h-90l-259 641l-136 -641h-66l153 717h88l260 -644l137 644h65zM305 789q-1 57 28.5 90t78.5 33q27 0 46 -9t35.5 -20.5t33 -20.5t36.5 -9q46 0 52 63h48q1 -57 -25 -90.5t-76 -33.5q-26 0 -44.5 9.5t-35 20.5t-33 20.5t-38.5 9.5q-23 0 -39 -15.5t-19 -47.5h-48v0z
" />
    <glyph glyph-name="Ograve" unicode="&#xd2;" horiz-adv-x="728" 
d="M350 -10q-68 0 -123 22t-93.5 63t-59.5 99.5t-21 131.5q0 93 28.5 170t77.5 132.5t114.5 86.5t139.5 31q68 0 123 -22t94 -62.5t60 -99.5t21 -132q0 -93 -28.5 -170t-77.5 -132.5t-115 -86.5t-140 -31zM126 304q0 -121 60.5 -186.5t166.5 -65.5q60 0 112 27t90.5 75
t60 114.5t21.5 144.5q0 121 -60 186t-166 65q-61 0 -113 -27t-90.5 -75t-60 -114t-21.5 -144zM448 773l-129 136h94l96 -136h-61z" />
    <glyph glyph-name="Oacute" unicode="&#xd3;" horiz-adv-x="728" 
d="M350 -10q-68 0 -123 22t-93.5 63t-59.5 99.5t-21 131.5q0 93 28.5 170t77.5 132.5t114.5 86.5t139.5 31q68 0 123 -22t94 -62.5t60 -99.5t21 -132q0 -93 -28.5 -170t-77.5 -132.5t-115 -86.5t-140 -31zM126 304q0 -121 60.5 -186.5t166.5 -65.5q60 0 112 27t90.5 75
t60 114.5t21.5 144.5q0 121 -60 186t-166 65q-61 0 -113 -27t-90.5 -75t-60 -114t-21.5 -144zM496 909h98l-152 -136h-67z" />
    <glyph glyph-name="Ocircumflex" unicode="&#xd4;" horiz-adv-x="728" 
d="M350 -10q-68 0 -123 22t-93.5 63t-59.5 99.5t-21 131.5q0 93 28.5 170t77.5 132.5t114.5 86.5t139.5 31q68 0 123 -22t94 -62.5t60 -99.5t21 -132q0 -93 -28.5 -170t-77.5 -132.5t-115 -86.5t-140 -31zM126 304q0 -121 60.5 -186.5t166.5 -65.5q60 0 112 27t90.5 75
t60 114.5t21.5 144.5q0 121 -60 186t-166 65q-61 0 -113 -27t-90.5 -75t-60 -114t-21.5 -144zM444 862l-114 -99h-58l142 148h76l79 -148h-55z" />
    <glyph glyph-name="Otilde" unicode="&#xd5;" horiz-adv-x="728" 
d="M350 -10q-68 0 -123 22t-93.5 63t-59.5 99.5t-21 131.5q0 93 28.5 170t77.5 132.5t114.5 86.5t139.5 31q68 0 123 -22t94 -62.5t60 -99.5t21 -132q0 -93 -28.5 -170t-77.5 -132.5t-115 -86.5t-140 -31zM126 304q0 -121 60.5 -186.5t166.5 -65.5q60 0 112 27t90.5 75
t60 114.5t21.5 144.5q0 121 -60 186t-166 65q-61 0 -113 -27t-90.5 -75t-60 -114t-21.5 -144zM259 789q-1 57 28.5 90t78.5 33q27 0 46 -9t35.5 -20.5t33 -20.5t36.5 -9q46 0 52 63h48q1 -57 -25 -90.5t-76 -33.5q-26 0 -44.5 9.5t-35 20.5t-33 20.5t-38.5 9.5
q-23 0 -39 -15.5t-19 -47.5h-48v0z" />
    <glyph glyph-name="Odieresis" unicode="&#xd6;" horiz-adv-x="728" 
d="M350 -10q-68 0 -123 22t-93.5 63t-59.5 99.5t-21 131.5q0 93 28.5 170t77.5 132.5t114.5 86.5t139.5 31q68 0 123 -22t94 -62.5t60 -99.5t21 -132q0 -93 -28.5 -170t-77.5 -132.5t-115 -86.5t-140 -31zM126 304q0 -121 60.5 -186.5t166.5 -65.5q60 0 112 27t90.5 75
t60 114.5t21.5 144.5q0 121 -60 186t-166 65q-61 0 -113 -27t-90.5 -75t-60 -114t-21.5 -144zM324 797q-21 0 -33.5 13t-12.5 31q0 20 12.5 33.5t33.5 13.5q22 0 34.5 -13.5t12.5 -33.5q0 -18 -12.5 -31t-34.5 -13zM549 797q-21 0 -33.5 13t-12.5 31q0 20 12.5 33.5
t33.5 13.5t34 -13.5t13 -33.5q0 -18 -13 -31t-34 -13z" />
    <glyph glyph-name="multiply" unicode="&#xd7;" 
d="M414 115l-141 184l-209 -183l-34 41l212 184l-146 190l47 34l143 -184l213 185l34 -40l-215 -188l144 -187z" />
    <glyph glyph-name="Oslash" unicode="&#xd8;" horiz-adv-x="728" 
d="M350 -10q-68 0 -123 22q-29 11 -53 27l-85 -109h-70l113 146q-38 40 -58 98q-21 59 -21 132q0 93 28.5 170t77.5 132.5t114.5 86.5t139.5 31q68 0 123 -22q32 -13 59 -33l89 115h70l-118 -151q34 -39 54 -93q21 -59 21 -132q0 -93 -28.5 -170t-77.5 -132.5t-115 -86.5
t-140 -31zM126 304q0 -109 49 -173l379 488q-56 45 -143 45q-61 0 -113 -27t-90.5 -75t-60 -114t-21.5 -144zM353 52q60 0 112 27t90.5 75t60 114.5t21.5 144.5q0 103 -44 166l-378 -487q55 -40 138 -40z" />
    <glyph glyph-name="Ugrave" unicode="&#xd9;" horiz-adv-x="678" 
d="M168 717h69l-95 -447q-12 -56 -3 -97t33.5 -68t61.5 -40t82 -13q89 0 148 50t81 157l97 458h68l-100 -469q-27 -127 -103 -192.5t-194 -65.5q-59 0 -109.5 17.5t-84.5 53t-47 90.5t3 130zM429 773l-129 136h94l96 -136h-61z" />
    <glyph glyph-name="Uacute" unicode="&#xda;" horiz-adv-x="678" 
d="M168 717h69l-95 -447q-12 -56 -3 -97t33.5 -68t61.5 -40t82 -13q89 0 148 50t81 157l97 458h68l-100 -469q-27 -127 -103 -192.5t-194 -65.5q-59 0 -109.5 17.5t-84.5 53t-47 90.5t3 130zM515 909h98l-152 -136h-67z" />
    <glyph glyph-name="Ucircumflex" unicode="&#xdb;" horiz-adv-x="678" 
d="M168 717h69l-95 -447q-12 -56 -3 -97t33.5 -68t61.5 -40t82 -13q89 0 148 50t81 157l97 458h68l-100 -469q-27 -127 -103 -192.5t-194 -65.5q-59 0 -109.5 17.5t-84.5 53t-47 90.5t3 130zM462 862l-114 -99h-58l142 148h76l79 -148h-55z" />
    <glyph glyph-name="Udieresis" unicode="&#xdc;" horiz-adv-x="678" 
d="M168 717h69l-95 -447q-12 -56 -3 -97t33.5 -68t61.5 -40t82 -13q89 0 148 50t81 157l97 458h68l-100 -469q-27 -127 -103 -192.5t-194 -65.5q-59 0 -109.5 17.5t-84.5 53t-47 90.5t3 130zM336 797q-21 0 -33.5 13t-12.5 31q0 20 12.5 33.5t33.5 13.5q22 0 34.5 -13.5
t12.5 -33.5q0 -18 -12.5 -31t-34.5 -13zM561 797q-21 0 -33.5 13t-12.5 31q0 20 12.5 33.5t33.5 13.5t34 -13.5t13 -33.5q0 -18 -13 -31t-34 -13z" />
    <glyph glyph-name="Yacute" unicode="&#xdd;" horiz-adv-x="597" 
d="M345 310l-66 -310h-71l67 310l-158 407h74l130 -345l276 345h76zM472 909h98l-152 -136h-67z" />
    <glyph glyph-name="Thorn" unicode="&#xde;" horiz-adv-x="569" 
d="M133 154l-33 -154h-70l153 717h70l-30 -140h143q47 0 86 -11t66.5 -34t43 -58t15.5 -82q0 -57 -20.5 -101.5t-56.5 -75t-84.5 -46t-105.5 -15.5h-177zM210 516l-64 -302h178q39 0 72 11.5t57 33.5t37.5 54.5t13.5 74.5q0 68 -38.5 98t-107.5 30h-148z" />
    <glyph glyph-name="germandbls" unicode="&#xdf;" horiz-adv-x="574" 
d="M532 140q0 -69 -51.5 -109.5t-139.5 -40.5q-57 0 -92 14.5t-51 28.5l12 57q20 -16 52.5 -29.5t82.5 -13.5q63 0 91.5 24t28.5 59q0 26 -13 43t-33 30t-43 23t-43 24t-33 32.5t-13 48.5q0 32 14 53.5t35 38.5t45 31.5t45 31t35 38t14 52.5q0 46 -30.5 69.5t-82.5 23.5
q-71 0 -114.5 -45.5t-63.5 -142.5l-103 -481h-65l102 481q25 118 88 181.5t163 63.5q82 0 127 -40.5t45 -106.5q0 -37 -14 -64t-34.5 -47.5t-45 -36t-45 -30t-34.5 -29t-14 -33.5t13 -31t33 -22t43 -21t43 -26.5t33 -39t13 -59.5z" />
    <glyph glyph-name="agrave" unicode="&#xe0;" horiz-adv-x="515" 
d="M337 0q-1 15 0.5 43.5t9.5 62.5q-12 -21 -28 -42t-38 -37.5t-49 -26.5t-61 -10q-29 0 -56 8.5t-48 26t-34 45t-13 65.5q0 80 60.5 126t178.5 46h130l3 16q9 41 3 69.5t-24 46t-46 25.5t-63 8q-49 0 -88 -11t-71 -28l11 57q27 16 67 27.5t95 11.5q48 0 86.5 -12
t63.5 -37.5t33.5 -66.5t-4.5 -98l-48 -224q-5 -21 -8 -48.5t-2 -42.5h-60zM183 44q36 0 66 14.5t52.5 36t37.5 45.5t23 43l15 73h-123q-89 0 -129 -32t-40 -85q0 -48 27.5 -71.5t70.5 -23.5zM299 588l-123 158h88l89 -158h-54z" />
    <glyph glyph-name="aacute" unicode="&#xe1;" horiz-adv-x="515" 
d="M337 0q-1 15 0.5 43.5t9.5 62.5q-12 -21 -28 -42t-38 -37.5t-49 -26.5t-61 -10q-29 0 -56 8.5t-48 26t-34 45t-13 65.5q0 80 60.5 126t178.5 46h130l3 16q9 41 3 69.5t-24 46t-46 25.5t-63 8q-49 0 -88 -11t-71 -28l11 57q27 16 67 27.5t95 11.5q48 0 86.5 -12
t63.5 -37.5t33.5 -66.5t-4.5 -98l-48 -224q-5 -21 -8 -48.5t-2 -42.5h-60zM183 44q36 0 66 14.5t52.5 36t37.5 45.5t23 43l15 73h-123q-89 0 -129 -32t-40 -85q0 -48 27.5 -71.5t70.5 -23.5zM388 746h90l-149 -158h-58z" />
    <glyph glyph-name="acircumflex" unicode="&#xe2;" horiz-adv-x="515" 
d="M337 0q-1 15 0.5 43.5t9.5 62.5q-12 -21 -28 -42t-38 -37.5t-49 -26.5t-61 -10q-29 0 -56 8.5t-48 26t-34 45t-13 65.5q0 80 60.5 126t178.5 46h130l3 16q9 41 3 69.5t-24 46t-46 25.5t-63 8q-49 0 -88 -11t-71 -28l11 57q27 16 67 27.5t95 11.5q48 0 86.5 -12
t63.5 -37.5t33.5 -66.5t-4.5 -98l-48 -224q-5 -21 -8 -48.5t-2 -42.5h-60zM183 44q36 0 66 14.5t52.5 36t37.5 45.5t23 43l15 73h-123q-89 0 -129 -32t-40 -85q0 -48 27.5 -71.5t70.5 -23.5zM325 687l-117 -99h-56l141 148h76l80 -148h-56z" />
    <glyph glyph-name="atilde" unicode="&#xe3;" horiz-adv-x="515" 
d="M337 0q-1 15 0.5 43.5t9.5 62.5q-12 -21 -28 -42t-38 -37.5t-49 -26.5t-61 -10q-29 0 -56 8.5t-48 26t-34 45t-13 65.5q0 80 60.5 126t178.5 46h130l3 16q9 41 3 69.5t-24 46t-46 25.5t-63 8q-49 0 -88 -11t-71 -28l11 57q27 16 67 27.5t95 11.5q48 0 86.5 -12
t63.5 -37.5t33.5 -66.5t-4.5 -98l-48 -224q-5 -21 -8 -48.5t-2 -42.5h-60zM183 44q36 0 66 14.5t52.5 36t37.5 45.5t23 43l15 73h-123q-89 0 -129 -32t-40 -85q0 -48 27.5 -71.5t70.5 -23.5zM147 601q0 22 6 43t18.5 37t31.5 25.5t45 9.5q25 0 43 -8.5t33.5 -19t30.5 -19
t34 -8.5q24 0 34 15t12 44h49q0 -22 -5.5 -42.5t-16.5 -37t-29.5 -26.5t-44.5 -10q-24 0 -41.5 8.5t-33 19t-31 19t-36.5 8.5q-49 0 -50 -58h-49v0z" />
    <glyph glyph-name="adieresis" unicode="&#xe4;" horiz-adv-x="515" 
d="M337 0q-1 15 0.5 43.5t9.5 62.5q-12 -21 -28 -42t-38 -37.5t-49 -26.5t-61 -10q-29 0 -56 8.5t-48 26t-34 45t-13 65.5q0 80 60.5 126t178.5 46h130l3 16q9 41 3 69.5t-24 46t-46 25.5t-63 8q-49 0 -88 -11t-71 -28l11 57q27 16 67 27.5t95 11.5q48 0 86.5 -12
t63.5 -37.5t33.5 -66.5t-4.5 -98l-48 -224q-5 -21 -8 -48.5t-2 -42.5h-60zM183 44q36 0 66 14.5t52.5 36t37.5 45.5t23 43l15 73h-123q-89 0 -129 -32t-40 -85q0 -48 27.5 -71.5t70.5 -23.5zM217 613q-21 0 -33 13.5t-12 32.5t12 32.5t33 13.5q22 0 34.5 -13.5t12.5 -32.5
t-12.5 -32.5t-34.5 -13.5zM418 613q-21 0 -33.5 13.5t-12.5 32.5t12.5 32.5t33.5 13.5t33.5 -13.5t12.5 -32.5t-12.5 -32.5t-33.5 -13.5z" />
    <glyph glyph-name="aring" unicode="&#xe5;" horiz-adv-x="515" 
d="M337 0q-1 15 0.5 43.5t9.5 62.5q-12 -21 -28 -42t-38 -37.5t-49 -26.5t-61 -10q-29 0 -56 8.5t-48 26t-34 45t-13 65.5q0 80 60.5 126t178.5 46h130l3 16q9 41 3 69.5t-24 46t-46 25.5t-63 8q-49 0 -88 -11t-71 -28l11 57q27 16 67 27.5t95 11.5q48 0 86.5 -12
t63.5 -37.5t33.5 -66.5t-4.5 -98l-48 -224q-5 -21 -8 -48.5t-2 -42.5h-60zM183 44q36 0 66 14.5t52.5 36t37.5 45.5t23 43l15 73h-123q-89 0 -129 -32t-40 -85q0 -48 27.5 -71.5t70.5 -23.5zM338 571q-47 0 -78.5 30.5t-31.5 78.5t31.5 78.5t78.5 30.5q48 0 80 -30.5
t32 -78.5t-32 -78.5t-80 -30.5zM338 615q28 0 47 18t19 47t-19 47.5t-47 18.5q-27 0 -45 -18.5t-18 -47.5t17.5 -47t45.5 -18z" />
    <glyph glyph-name="ae" unicode="&#xe6;" horiz-adv-x="864" 
d="M770 25q-19 -11 -56 -23t-93 -12q-91 0 -148.5 40.5t-76.5 118.5q-11 -24 -28.5 -52t-44 -52t-64 -39.5t-86.5 -15.5q-30 0 -57.5 8.5t-48.5 26t-34 44.5t-13 65q0 81 60.5 127t178.5 46h129l4 16q9 41 3 69.5t-24 46t-46 25.5t-63 8q-49 0 -88 -11t-71 -28l11 57
q27 16 67 27.5t95 11.5q65 0 111 -24.5t60 -78.5q35 50 85.5 76.5t108.5 26.5q51 0 91 -20t64 -56.5t28.5 -89t-16.5 -117.5h-361v-19q0 -88 45.5 -134t133.5 -46q48 0 90 11.5t67 24.5zM185 44q37 0 67 14t51.5 35t36 45t21.5 43l16 75h-123q-89 0 -129 -32t-40 -86
q0 -48 27.5 -71t72.5 -23zM636 472q-68 0 -116.5 -44.5t-65.5 -125.5h306q8 43 1 75t-24.5 53t-43.5 31.5t-57 10.5z" />
    <glyph glyph-name="ccedilla" unicode="&#xe7;" horiz-adv-x="484" 
d="M267 -10q-50 0 -93 14t-74.5 43.5t-49.5 74t-18 105.5q0 66 20.5 121.5t57.5 95.5t89 62.5t115 22.5q48 0 84.5 -11t62.5 -31l-13 -56q-63 41 -136 41q-52 0 -92 -18.5t-67 -51t-40.5 -76.5t-13.5 -95q0 -93 48 -138.5t129 -45.5q32 0 66 7.5t66 22.5l-12 -60
q-57 -27 -129 -27zM278 16l-102 -203h-82l130 203h54z" />
    <glyph glyph-name="egrave" unicode="&#xe8;" horiz-adv-x="534" 
d="M430 25q-20 -11 -58 -23t-95 -12q-116 0 -180.5 60.5t-64.5 175.5q0 70 21.5 126.5t58 95.5t85.5 60t104 21q54 0 96.5 -20t67.5 -56.5t29.5 -89t-17.5 -117.5h-378v-19q0 -88 46.5 -134t136.5 -46q49 0 91.5 11.5t68.5 24.5zM295 472q-70 0 -120.5 -44.5t-67.5 -125.5
h322q9 43 1.5 75t-26.5 53t-47.5 31.5t-61.5 10.5zM315 588l-123 158h88l89 -158h-54z" />
    <glyph glyph-name="eacute" unicode="&#xe9;" horiz-adv-x="534" 
d="M430 25q-20 -11 -58 -23t-95 -12q-116 0 -180.5 60.5t-64.5 175.5q0 70 21.5 126.5t58 95.5t85.5 60t104 21q54 0 96.5 -20t67.5 -56.5t29.5 -89t-17.5 -117.5h-378v-19q0 -88 46.5 -134t136.5 -46q49 0 91.5 11.5t68.5 24.5zM295 472q-70 0 -120.5 -44.5t-67.5 -125.5
h322q9 43 1.5 75t-26.5 53t-47.5 31.5t-61.5 10.5zM376 746h90l-149 -158h-58z" />
    <glyph glyph-name="ecircumflex" unicode="&#xea;" horiz-adv-x="534" 
d="M430 25q-20 -11 -58 -23t-95 -12q-116 0 -180.5 60.5t-64.5 175.5q0 70 21.5 126.5t58 95.5t85.5 60t104 21q54 0 96.5 -20t67.5 -56.5t29.5 -89t-17.5 -117.5h-378v-19q0 -88 46.5 -134t136.5 -46q49 0 91.5 11.5t68.5 24.5zM295 472q-70 0 -120.5 -44.5t-67.5 -125.5
h322q9 43 1.5 75t-26.5 53t-47.5 31.5t-61.5 10.5zM331 687l-117 -99h-56l141 148h76l80 -148h-56z" />
    <glyph glyph-name="edieresis" unicode="&#xeb;" horiz-adv-x="534" 
d="M430 25q-20 -11 -58 -23t-95 -12q-116 0 -180.5 60.5t-64.5 175.5q0 70 21.5 126.5t58 95.5t85.5 60t104 21q54 0 96.5 -20t67.5 -56.5t29.5 -89t-17.5 -117.5h-378v-19q0 -88 46.5 -134t136.5 -46q49 0 91.5 11.5t68.5 24.5zM295 472q-70 0 -120.5 -44.5t-67.5 -125.5
h322q9 43 1.5 75t-26.5 53t-47.5 31.5t-61.5 10.5zM214 613q-21 0 -33 13.5t-12 32.5t12 32.5t33 13.5q22 0 34.5 -13.5t12.5 -32.5t-12.5 -32.5t-34.5 -13.5zM415 613q-21 0 -33.5 13.5t-12.5 32.5t12.5 32.5t33.5 13.5t33.5 -13.5t12.5 -32.5t-12.5 -32.5t-33.5 -13.5z
" />
    <glyph glyph-name="igrave" unicode="&#xec;" horiz-adv-x="214" 
d="M195 519l-110 -519h-65l110 519h65zM148 588l-123 158h88l89 -158h-54z" />
    <glyph glyph-name="iacute" unicode="&#xed;" horiz-adv-x="214" 
d="M195 519l-110 -519h-65l110 519h65zM256 746h90l-149 -158h-58z" />
    <glyph glyph-name="icircumflex" unicode="&#xee;" horiz-adv-x="214" 
d="M195 519l-110 -519h-65l110 519h65zM191 687l-117 -99h-56l141 148h76l80 -148h-56z" />
    <glyph glyph-name="idieresis" unicode="&#xef;" horiz-adv-x="214" 
d="M195 519l-110 -519h-65l110 519h65zM77 613q-21 0 -33 13.5t-12 32.5t12 32.5t33 13.5q22 0 34.5 -13.5t12.5 -32.5t-12.5 -32.5t-34.5 -13.5zM278 613q-21 0 -33.5 13.5t-12.5 32.5t12.5 32.5t33.5 13.5t33.5 -13.5t12.5 -32.5t-12.5 -32.5t-33.5 -13.5z" />
    <glyph glyph-name="eth" unicode="&#xf0;" horiz-adv-x="560" 
d="M533 353q0 -84 -21.5 -151.5t-59 -114t-89 -71.5t-111.5 -25q-47 0 -87 14t-69.5 43.5t-46.5 73.5t-17 104q0 68 20.5 122t56.5 92t84 58.5t104 20.5q48 0 90 -16.5t70 -57.5q-14 51 -36 91.5t-51 72.5l-165 -50l-11 41l140 43q-26 22 -55 38t-61 27l2 9h87
q23 -8 46.5 -21.5t45.5 -32.5l128 40l10 -43l-102 -31q42 -48 70 -116.5t28 -159.5zM254 48q48 0 87 20.5t66.5 59t43 94.5t15.5 127v12.5t-1 12.5q-19 47 -63.5 68.5t-96.5 21.5q-50 0 -88 -17.5t-64.5 -49t-40 -75t-13.5 -94.5q0 -48 12.5 -82.5t33.5 -56t49 -31.5t60 -10
z" />
    <glyph glyph-name="ntilde" unicode="&#xf1;" horiz-adv-x="564" 
d="M342 472q-34 0 -61.5 -10t-49.5 -26.5t-39.5 -39t-32.5 -47.5l-74 -349h-65l110 519h61l-20 -103h2q30 48 76 80.5t117 32.5q85 0 124 -53t18 -150l-69 -326h-65l69 327q9 40 5 67.5t-18 44.5t-36.5 25t-51.5 8zM184 601q0 22 6 43t18.5 37t31.5 25.5t45 9.5
q25 0 43 -8.5t33.5 -19t30.5 -19t34 -8.5q24 0 34 15t12 44h49q0 -22 -5.5 -42.5t-16.5 -37t-29.5 -26.5t-44.5 -10q-24 0 -41.5 8.5t-33 19t-31 19t-36.5 8.5q-49 0 -50 -58h-49v0z" />
    <glyph glyph-name="ograve" unicode="&#xf2;" horiz-adv-x="547" 
d="M250 -10q-50 0 -90 16.5t-68.5 47t-44 73.5t-15.5 97q0 63 19 119t54 97t83.5 65t108.5 24q49 0 89.5 -16.5t69.5 -47t44.5 -73.5t15.5 -97q0 -63 -19 -119t-54 -97t-84 -65t-109 -24zM99 226q0 -90 43 -134.5t111 -44.5q44 0 80 18.5t61.5 51t39.5 77.5t14 98
q0 91 -43.5 135.5t-109.5 44.5q-44 0 -80.5 -18.5t-62 -51.5t-39.5 -78t-14 -98zM329 588l-123 158h88l89 -158h-54z" />
    <glyph glyph-name="oacute" unicode="&#xf3;" horiz-adv-x="547" 
d="M250 -10q-50 0 -90 16.5t-68.5 47t-44 73.5t-15.5 97q0 63 19 119t54 97t83.5 65t108.5 24q49 0 89.5 -16.5t69.5 -47t44.5 -73.5t15.5 -97q0 -63 -19 -119t-54 -97t-84 -65t-109 -24zM99 226q0 -90 43 -134.5t111 -44.5q44 0 80 18.5t61.5 51t39.5 77.5t14 98
q0 91 -43.5 135.5t-109.5 44.5q-44 0 -80.5 -18.5t-62 -51.5t-39.5 -78t-14 -98zM376 746h90l-149 -158h-58z" />
    <glyph glyph-name="ocircumflex" unicode="&#xf4;" horiz-adv-x="547" 
d="M250 -10q-50 0 -90 16.5t-68.5 47t-44 73.5t-15.5 97q0 63 19 119t54 97t83.5 65t108.5 24q49 0 89.5 -16.5t69.5 -47t44.5 -73.5t15.5 -97q0 -63 -19 -119t-54 -97t-84 -65t-109 -24zM99 226q0 -90 43 -134.5t111 -44.5q44 0 80 18.5t61.5 51t39.5 77.5t14 98
q0 91 -43.5 135.5t-109.5 44.5q-44 0 -80.5 -18.5t-62 -51.5t-39.5 -78t-14 -98zM324 687l-117 -99h-56l141 148h76l80 -148h-56z" />
    <glyph glyph-name="otilde" unicode="&#xf5;" horiz-adv-x="547" 
d="M250 -10q-50 0 -90 16.5t-68.5 47t-44 73.5t-15.5 97q0 63 19 119t54 97t83.5 65t108.5 24q49 0 89.5 -16.5t69.5 -47t44.5 -73.5t15.5 -97q0 -63 -19 -119t-54 -97t-84 -65t-109 -24zM99 226q0 -90 43 -134.5t111 -44.5q44 0 80 18.5t61.5 51t39.5 77.5t14 98
q0 91 -43.5 135.5t-109.5 44.5q-44 0 -80.5 -18.5t-62 -51.5t-39.5 -78t-14 -98zM149 601q0 22 6 43t18.5 37t31.5 25.5t45 9.5q25 0 43 -8.5t33.5 -19t30.5 -19t34 -8.5q24 0 34 15t12 44h49q0 -22 -5.5 -42.5t-16.5 -37t-29.5 -26.5t-44.5 -10q-24 0 -41.5 8.5t-33 19
t-31 19t-36.5 8.5q-49 0 -50 -58h-49v0z" />
    <glyph glyph-name="odieresis" unicode="&#xf6;" horiz-adv-x="547" 
d="M250 -10q-50 0 -90 16.5t-68.5 47t-44 73.5t-15.5 97q0 63 19 119t54 97t83.5 65t108.5 24q49 0 89.5 -16.5t69.5 -47t44.5 -73.5t15.5 -97q0 -63 -19 -119t-54 -97t-84 -65t-109 -24zM99 226q0 -90 43 -134.5t111 -44.5q44 0 80 18.5t61.5 51t39.5 77.5t14 98
q0 91 -43.5 135.5t-109.5 44.5q-44 0 -80.5 -18.5t-62 -51.5t-39.5 -78t-14 -98zM211 613q-21 0 -33 13.5t-12 32.5t12 32.5t33 13.5q22 0 34.5 -13.5t12.5 -32.5t-12.5 -32.5t-34.5 -13.5zM412 613q-21 0 -33.5 13.5t-12.5 32.5t12.5 32.5t33.5 13.5t33.5 -13.5t12.5 -32.5
t-12.5 -32.5t-33.5 -13.5z" />
    <glyph glyph-name="divide" unicode="&#xf7;" 
d="M325 490q-24 0 -39 15.5t-15 37.5q0 23 15 38t39 15q23 0 38 -15t15 -38q0 -22 -15 -37.5t-38 -15.5zM49 310l11 54h463l-12 -54h-462zM240 79q-24 0 -39 15.5t-15 36.5q0 23 15 38t39 15q23 0 38 -15t15 -38q0 -21 -15 -36.5t-38 -15.5z" />
    <glyph glyph-name="oslash" unicode="&#xf8;" horiz-adv-x="547" 
d="M250 -10q-63 0 -110 26l-63 -92h-62l83 123q-32 30 -49 75t-17 102q0 63 19 119t54 97t83.5 65t108.5 24q62 0 111 -26l62 92h63l-83 -123q32 -31 49 -75.5t17 -101.5q0 -63 -19 -119t-54 -97t-84 -65t-109 -24zM99 226q0 -80 36 -125l238 352q-32 19 -78 19
q-44 0 -80.5 -18.5t-62 -51.5t-39.5 -78t-14 -98zM448 292q0 42 -9 72.5t-26 53.5l-239 -352q32 -19 79 -19q44 0 80 18.5t61.5 51t39.5 77.5t14 98z" />
    <glyph glyph-name="ugrave" unicode="&#xf9;" horiz-adv-x="552" 
d="M217 47q33 0 59.5 10t47.5 27.5t37.5 39.5t30.5 46l75 349h65l-110 -519h-58l17 105h-2q-14 -23 -31 -44t-39 -37t-49.5 -25t-61.5 -9q-82 0 -122 52t-21 144l71 333h65l-70 -330q-8 -38 -3.5 -64.5t18 -44t34.5 -25.5t47 -8zM321 588l-123 158h88l89 -158h-54z" />
    <glyph glyph-name="uacute" unicode="&#xfa;" horiz-adv-x="552" 
d="M217 47q33 0 59.5 10t47.5 27.5t37.5 39.5t30.5 46l75 349h65l-110 -519h-58l17 105h-2q-14 -23 -31 -44t-39 -37t-49.5 -25t-61.5 -9q-82 0 -122 52t-21 144l71 333h65l-70 -330q-8 -38 -3.5 -64.5t18 -44t34.5 -25.5t47 -8zM415 746h90l-149 -158h-58z" />
    <glyph glyph-name="ucircumflex" unicode="&#xfb;" horiz-adv-x="552" 
d="M217 47q33 0 59.5 10t47.5 27.5t37.5 39.5t30.5 46l75 349h65l-110 -519h-58l17 105h-2q-14 -23 -31 -44t-39 -37t-49.5 -25t-61.5 -9q-82 0 -122 52t-21 144l71 333h65l-70 -330q-8 -38 -3.5 -64.5t18 -44t34.5 -25.5t47 -8zM358 687l-117 -99h-56l141 148h76l80 -148
h-56z" />
    <glyph glyph-name="udieresis" unicode="&#xfc;" horiz-adv-x="552" 
d="M217 47q33 0 59.5 10t47.5 27.5t37.5 39.5t30.5 46l75 349h65l-110 -519h-58l17 105h-2q-14 -23 -31 -44t-39 -37t-49.5 -25t-61.5 -9q-82 0 -122 52t-21 144l71 333h65l-70 -330q-8 -38 -3.5 -64.5t18 -44t34.5 -25.5t47 -8zM243 613q-21 0 -33 13.5t-12 32.5t12 32.5
t33 13.5q22 0 34.5 -13.5t12.5 -32.5t-12.5 -32.5t-34.5 -13.5zM444 613q-21 0 -33.5 13.5t-12.5 32.5t12.5 32.5t33.5 13.5t33.5 -13.5t12.5 -32.5t-12.5 -32.5t-33.5 -13.5z" />
    <glyph glyph-name="yacute" unicode="&#xfd;" horiz-adv-x="501" 
d="M241 6q-27 -47 -52.5 -83t-52.5 -60.5t-57.5 -37t-67.5 -12.5q-15 0 -28.5 2t-24.5 7l13 58q9 -5 22.5 -7.5t28.5 -2.5q40 0 69 26.5t66 82.5l-91 540h69l73 -457l263 457h67l-297 -513v0zM389 746h90l-149 -158h-58z" />
    <glyph glyph-name="thorn" unicode="&#xfe;" horiz-adv-x="588" 
d="M294 -10q-67 0 -116 32t-68 93l-63 -292h-65l190 894h65l-59 -273q31 38 74 61.5t99 23.5q96 0 150.5 -62.5t54.5 -170.5q0 -63 -18.5 -118.5t-53 -97.5t-82.5 -66t-108 -24zM292 47q47 0 84 21t62 55.5t38 79.5t13 94q0 89 -42.5 132t-108.5 43q-46 0 -82.5 -20
t-62.5 -54.5t-40 -80.5t-14 -98q0 -45 12 -77.5t33 -53.5t48.5 -31t59.5 -10z" />
    <glyph glyph-name="ydieresis" unicode="&#xff;" horiz-adv-x="501" 
d="M241 6q-27 -47 -52.5 -83t-52.5 -60.5t-57.5 -37t-67.5 -12.5q-15 0 -28.5 2t-24.5 7l13 58q9 -5 22.5 -7.5t28.5 -2.5q40 0 69 26.5t66 82.5l-91 540h69l73 -457l263 457h67l-297 -513v0zM211 613q-21 0 -33 13.5t-12 32.5t12 32.5t33 13.5q22 0 34.5 -13.5t12.5 -32.5
t-12.5 -32.5t-34.5 -13.5zM412 613q-21 0 -33.5 13.5t-12.5 32.5t12.5 32.5t33.5 13.5t33.5 -13.5t12.5 -32.5t-12.5 -32.5t-33.5 -13.5z" />
    <glyph glyph-name="Amacron" unicode="&#x100;" horiz-adv-x="660" 
d="M378 717h97l110 -717h-69l-33 217h-325l-125 -217h-67zM473 279l-58 384l-221 -384h279zM287 870h304l-11 -54h-305z" />
    <glyph glyph-name="amacron" unicode="&#x101;" horiz-adv-x="515" 
d="M337 0q-1 15 0.5 43.5t9.5 62.5q-12 -21 -28 -42t-38 -37.5t-49 -26.5t-61 -10q-29 0 -56 8.5t-48 26t-34 45t-13 65.5q0 80 60.5 126t178.5 46h130l3 16q9 41 3 69.5t-24 46t-46 25.5t-63 8q-49 0 -88 -11t-71 -28l11 57q27 16 67 27.5t95 11.5q48 0 86.5 -12
t63.5 -37.5t33.5 -66.5t-4.5 -98l-48 -224q-5 -21 -8 -48.5t-2 -42.5h-60zM183 44q36 0 66 14.5t52.5 36t37.5 45.5t23 43l15 73h-123q-89 0 -129 -32t-40 -85q0 -48 27.5 -71.5t70.5 -23.5zM187 679h277l-11 -53h-277z" />
    <glyph glyph-name="Abreve" unicode="&#x102;" horiz-adv-x="660" 
d="M378 717h97l110 -717h-69l-33 217h-325l-125 -217h-67zM473 279l-58 384l-221 -384h279zM441 760q-38 0 -66 12t-44.5 32t-22.5 46.5t-1 56.5h65q-8 -45 11.5 -70.5t61.5 -25.5q38 0 64.5 24t37.5 72h65q-6 -30 -18.5 -56.5t-33 -47t-50 -32t-69.5 -11.5z" />
    <glyph glyph-name="abreve" unicode="&#x103;" horiz-adv-x="515" 
d="M337 0q-1 15 0.5 43.5t9.5 62.5q-12 -21 -28 -42t-38 -37.5t-49 -26.5t-61 -10q-29 0 -56 8.5t-48 26t-34 45t-13 65.5q0 80 60.5 126t178.5 46h130l3 16q9 41 3 69.5t-24 46t-46 25.5t-63 8q-49 0 -88 -11t-71 -28l11 57q27 16 67 27.5t95 11.5q48 0 86.5 -12
t63.5 -37.5t33.5 -66.5t-4.5 -98l-48 -224q-5 -21 -8 -48.5t-2 -42.5h-60zM183 44q36 0 66 14.5t52.5 36t37.5 45.5t23 43l15 73h-123q-89 0 -129 -32t-40 -85q0 -48 27.5 -71.5t70.5 -23.5zM308 584q-36 0 -62 11.5t-42 30.5t-21 44t1 53h63q-9 -42 9.5 -65t55.5 -23
q35 0 63 21.5t38 66.5h63q-6 -29 -19.5 -54t-34.5 -44t-49.5 -30t-64.5 -11z" />
    <glyph glyph-name="Aogonek" unicode="&#x104;" horiz-adv-x="660" 
d="M378 717h97l110 -717q-20 -6 -38 -15t-32 -20.5t-22.5 -26t-8.5 -32.5q0 -23 16 -36t44 -13q13 0 23 2t21 6l-9 -46q-8 -4 -23 -7.5t-35 -3.5q-45 0 -70.5 22.5t-25.5 60.5q0 42 26.5 71.5t63.5 43.5l-32 211h-325l-125 -217h-67zM473 279l-58 384l-221 -384h279z" />
    <glyph glyph-name="aogonek" unicode="&#x105;" horiz-adv-x="515" 
d="M392 -181q-9 -4 -23.5 -7.5t-34.5 -3.5q-45 0 -70.5 22.5t-25.5 60.5q0 45 30 74t69 42q-1 17 1 43t9 56q-12 -21 -28 -42t-38 -37.5t-49 -26.5t-61 -10q-29 0 -56 8.5t-48 26t-34 45t-13 65.5q0 80 60.5 126t178.5 46h130l3 16q9 41 3 69.5t-24 46t-46 25.5t-63 8
q-49 0 -88 -11t-71 -28l11 57q27 16 67 27.5t95 11.5q48 0 86.5 -12t63.5 -37.5t33.5 -66.5t-4.5 -98l-48 -224q-5 -21 -8 -48.5t-2 -42.5q-19 -6 -37 -15t-32 -20.5t-22.5 -26t-8.5 -32.5q0 -23 15.5 -36t44.5 -13q22 0 44 8zM183 44q36 0 66 14.5t52.5 36t37.5 45.5t23 43
l15 73h-123q-89 0 -129 -32t-40 -85q0 -48 27.5 -71.5t70.5 -23.5z" />
    <glyph glyph-name="Cacute" unicode="&#x106;" horiz-adv-x="653" 
d="M359 -10q-63 0 -119 18.5t-97.5 57.5t-65.5 99t-24 142q0 88 28 164.5t79.5 133t123.5 89t160 32.5q67 0 120.5 -17.5t84.5 -46.5l-15 -65q-36 34 -87.5 50.5t-107.5 16.5q-73 0 -131 -28t-98.5 -76.5t-62 -112.5t-21.5 -136q0 -71 18.5 -120.5t51 -80t76 -44.5t93.5 -14
q56 0 105 16t94 45l-14 -68q-30 -23 -80 -39t-111 -16zM536 909h98l-152 -136h-67z" />
    <glyph glyph-name="cacute" unicode="&#x107;" horiz-adv-x="484" 
d="M267 -10q-50 0 -93 14t-74.5 43.5t-49.5 74t-18 105.5q0 66 20.5 121.5t57.5 95.5t89 62.5t115 22.5q48 0 84.5 -11t62.5 -31l-13 -56q-63 41 -136 41q-52 0 -92 -18.5t-67 -51t-40.5 -76.5t-13.5 -95q0 -93 48 -138.5t129 -45.5q32 0 66 7.5t66 22.5l-12 -60
q-57 -27 -129 -27zM386 746h90l-149 -158h-58z" />
    <glyph glyph-name="Ccircumflex" unicode="&#x108;" horiz-adv-x="653" 
d="M359 -10q-63 0 -119 18.5t-97.5 57.5t-65.5 99t-24 142q0 88 28 164.5t79.5 133t123.5 89t160 32.5q67 0 120.5 -17.5t84.5 -46.5l-15 -65q-36 34 -87.5 50.5t-107.5 16.5q-73 0 -131 -28t-98.5 -76.5t-62 -112.5t-21.5 -136q0 -71 18.5 -120.5t51 -80t76 -44.5t93.5 -14
q56 0 105 16t94 45l-14 -68q-30 -23 -80 -39t-111 -16zM470 862l-114 -99h-58l142 148h76l79 -148h-55z" />
    <glyph glyph-name="ccircumflex" unicode="&#x109;" horiz-adv-x="484" 
d="M267 -10q-50 0 -93 14t-74.5 43.5t-49.5 74t-18 105.5q0 66 20.5 121.5t57.5 95.5t89 62.5t115 22.5q48 0 84.5 -11t62.5 -31l-13 -56q-63 41 -136 41q-52 0 -92 -18.5t-67 -51t-40.5 -76.5t-13.5 -95q0 -93 48 -138.5t129 -45.5q32 0 66 7.5t66 22.5l-12 -60
q-57 -27 -129 -27zM337 687l-117 -99h-56l141 148h76l80 -148h-56z" />
    <glyph glyph-name="Cdotaccent" unicode="&#x10a;" horiz-adv-x="653" 
d="M359 -10q-63 0 -119 18.5t-97.5 57.5t-65.5 99t-24 142q0 88 28 164.5t79.5 133t123.5 89t160 32.5q67 0 120.5 -17.5t84.5 -46.5l-15 -65q-36 34 -87.5 50.5t-107.5 16.5q-73 0 -131 -28t-98.5 -76.5t-62 -112.5t-21.5 -136q0 -71 18.5 -120.5t51 -80t76 -44.5t93.5 -14
q56 0 105 16t94 45l-14 -68q-30 -23 -80 -39t-111 -16zM425 797q-20 0 -33 13t-13 31q0 20 13 33.5t33 13.5q22 0 34.5 -13.5t12.5 -33.5q0 -18 -12.5 -31t-34.5 -13z" />
    <glyph glyph-name="cdotaccent" unicode="&#x10b;" horiz-adv-x="484" 
d="M267 -10q-50 0 -93 14t-74.5 43.5t-49.5 74t-18 105.5q0 66 20.5 121.5t57.5 95.5t89 62.5t115 22.5q48 0 84.5 -11t62.5 -31l-13 -56q-63 41 -136 41q-52 0 -92 -18.5t-67 -51t-40.5 -76.5t-13.5 -95q0 -93 48 -138.5t129 -45.5q32 0 66 7.5t66 22.5l-12 -60
q-57 -27 -129 -27zM327 613q-21 0 -33.5 13.5t-12.5 32.5t12.5 32.5t33.5 13.5q22 0 34.5 -13.5t12.5 -32.5t-12.5 -32.5t-34.5 -13.5z" />
    <glyph glyph-name="Ccaron" unicode="&#x10c;" horiz-adv-x="653" 
d="M359 -10q-63 0 -119 18.5t-97.5 57.5t-65.5 99t-24 142q0 88 28 164.5t79.5 133t123.5 89t160 32.5q67 0 120.5 -17.5t84.5 -46.5l-15 -65q-36 34 -87.5 50.5t-107.5 16.5q-73 0 -131 -28t-98.5 -76.5t-62 -112.5t-21.5 -136q0 -71 18.5 -120.5t51 -80t76 -44.5t93.5 -14
q56 0 105 16t94 45l-14 -68q-30 -23 -80 -39t-111 -16zM495 763h-76l-79 148h55l71 -99l113 99h58z" />
    <glyph glyph-name="ccaron" unicode="&#x10d;" horiz-adv-x="484" 
d="M267 -10q-50 0 -93 14t-74.5 43.5t-49.5 74t-18 105.5q0 66 20.5 121.5t57.5 95.5t89 62.5t115 22.5q48 0 84.5 -11t62.5 -31l-13 -56q-63 41 -136 41q-52 0 -92 -18.5t-67 -51t-40.5 -76.5t-13.5 -95q0 -93 48 -138.5t129 -45.5q32 0 66 7.5t66 22.5l-12 -60
q-57 -27 -129 -27zM356 588h-75l-80 148h56l69 -100l115 100h57z" />
    <glyph glyph-name="Dcaron" unicode="&#x10e;" horiz-adv-x="708" 
d="M183 717h192q62 0 117 -15.5t96 -50t65 -90t24 -136.5q0 -83 -27 -160t-79 -136t-127 -94t-172 -35h-242zM240 655l-127 -593h166q78 0 139 30t102 80t62.5 115t21.5 135q0 66 -18 110.5t-49.5 72t-73.5 39t-90 11.5h-133zM446 763h-76l-79 148h55l71 -99l113 99h58z" />
    <glyph glyph-name="dcaron" unicode="&#x10f;" horiz-adv-x="589" 
d="M415 85q-32 -42 -76.5 -68.5t-103.5 -26.5q-45 0 -82 15.5t-64 45t-42 72.5t-15 99q0 63 18.5 118.5t53 97.5t83 66.5t108.5 24.5q67 0 116 -32t68 -97l67 317h65l-152 -717h-58zM450 303q0 45 -12 77t-33 52.5t-49 30t-59 9.5q-47 0 -83.5 -19t-61.5 -51.5t-38.5 -77
t-13.5 -95.5q0 -47 11.5 -81t31.5 -56.5t47 -33.5t59 -11q49 0 87 22.5t63 59t38 82.5t13 92zM599 530l64 189h77l-94 -189h-47z" />
    <glyph glyph-name="Dcroat" unicode="&#x110;" horiz-adv-x="739" 
d="M146 393l69 324h192q62 0 117 -15.5t96 -50t65 -90t24 -136.5q0 -83 -27 -160t-79 -136t-127 -94t-172 -35h-242l72 338h-104l13 55h103zM203 338l-59 -276h166q78 0 139 30t102 80t62.5 115t21.5 135q0 66 -18 110.5t-49 72t-73 39t-90 11.5h-134l-56 -262h227l-12 -55
h-227z" />
    <glyph glyph-name="dcroat" unicode="&#x111;" horiz-adv-x="588" 
d="M415 85q-32 -42 -76.5 -68.5t-103.5 -26.5q-45 0 -82 15.5t-64 45t-42 72.5t-15 99q0 63 18.5 118.5t53 97.5t83 66.5t108.5 24.5q67 0 116 -32t68 -97l39 184h-182l11 50h181l18 83h65l-18 -83h73l-11 -50h-72l-124 -584h-58zM450 303q0 45 -12 77t-33 52.5t-49 30
t-59 9.5q-47 0 -83.5 -19t-61.5 -51.5t-38.5 -77t-13.5 -95.5q0 -47 11.5 -81t31.5 -56.5t47 -33.5t59 -11q49 0 87 22.5t63 59t38 82.5t13 92z" />
    <glyph glyph-name="Emacron" unicode="&#x112;" horiz-adv-x="579" 
d="M183 717h431l-15 -62h-359l-53 -249h308l-13 -61h-308l-61 -283h366l-13 -62h-436zM276 870h304l-11 -54h-305z" />
    <glyph glyph-name="emacron" unicode="&#x113;" horiz-adv-x="534" 
d="M430 25q-20 -11 -58 -23t-95 -12q-116 0 -180.5 60.5t-64.5 175.5q0 70 21.5 126.5t58 95.5t85.5 60t104 21q54 0 96.5 -20t67.5 -56.5t29.5 -89t-17.5 -117.5h-378v-19q0 -88 46.5 -134t136.5 -46q49 0 91.5 11.5t68.5 24.5zM295 472q-70 0 -120.5 -44.5t-67.5 -125.5
h322q9 43 1.5 75t-26.5 53t-47.5 31.5t-61.5 10.5zM185 679h277l-11 -53h-277z" />
    <glyph glyph-name="Ebreve" unicode="&#x114;" horiz-adv-x="579" 
d="M183 717h431l-15 -62h-359l-53 -249h308l-13 -61h-308l-61 -283h366l-13 -62h-436zM413 760q-38 0 -66 12t-44.5 32t-22.5 46.5t-1 56.5h65q-8 -45 11.5 -70.5t61.5 -25.5q38 0 64.5 24t37.5 72h65q-6 -30 -18.5 -56.5t-33 -47t-50 -32t-69.5 -11.5z" />
    <glyph glyph-name="ebreve" unicode="&#x115;" horiz-adv-x="534" 
d="M430 25q-20 -11 -58 -23t-95 -12q-116 0 -180.5 60.5t-64.5 175.5q0 70 21.5 126.5t58 95.5t85.5 60t104 21q54 0 96.5 -20t67.5 -56.5t29.5 -89t-17.5 -117.5h-378v-19q0 -88 46.5 -134t136.5 -46q49 0 91.5 11.5t68.5 24.5zM295 472q-70 0 -120.5 -44.5t-67.5 -125.5
h322q9 43 1.5 75t-26.5 53t-47.5 31.5t-61.5 10.5zM318 584q-36 0 -62 11.5t-42 30.5t-21 44t1 53h63q-9 -42 9.5 -65t55.5 -23q35 0 63 21.5t38 66.5h63q-6 -29 -19.5 -54t-34.5 -44t-49.5 -30t-64.5 -11z" />
    <glyph glyph-name="Edotaccent" unicode="&#x116;" horiz-adv-x="579" 
d="M183 717h431l-15 -62h-359l-53 -249h308l-13 -61h-308l-61 -283h366l-13 -62h-436zM413 797q-20 0 -33 13t-13 31q0 20 13 33.5t33 13.5q22 0 34.5 -13.5t12.5 -33.5q0 -18 -12.5 -31t-34.5 -13z" />
    <glyph glyph-name="edotaccent" unicode="&#x117;" horiz-adv-x="534" 
d="M430 25q-20 -11 -58 -23t-95 -12q-116 0 -180.5 60.5t-64.5 175.5q0 70 21.5 126.5t58 95.5t85.5 60t104 21q54 0 96.5 -20t67.5 -56.5t29.5 -89t-17.5 -117.5h-378v-19q0 -88 46.5 -134t136.5 -46q49 0 91.5 11.5t68.5 24.5zM295 472q-70 0 -120.5 -44.5t-67.5 -125.5
h322q9 43 1.5 75t-26.5 53t-47.5 31.5t-61.5 10.5zM313 613q-21 0 -33.5 13.5t-12.5 32.5t12.5 32.5t33.5 13.5q22 0 34.5 -13.5t12.5 -32.5t-12.5 -32.5t-34.5 -13.5z" />
    <glyph glyph-name="Eogonek" unicode="&#x118;" horiz-adv-x="579" 
d="M183 717h431l-15 -62h-359l-53 -249h308l-13 -61h-308l-61 -283h366l-13 -62h-436zM401 -192q-45 0 -70.5 22.5t-25.5 60.5q0 21 8.5 38.5t22 31t31 23.5t36.5 16h62q-20 -6 -38 -15t-31.5 -20.5t-22 -26t-8.5 -32.5q0 -23 15.5 -36t43.5 -13q13 0 23.5 2t21.5 6l-10 -46
q-8 -4 -23 -7.5t-35 -3.5z" />
    <glyph glyph-name="eogonek" unicode="&#x119;" horiz-adv-x="534" 
d="M430 25q-20 -11 -58 -23t-95 -12q-116 0 -180.5 60.5t-64.5 175.5q0 70 21.5 126.5t58 95.5t85.5 60t104 21q54 0 96.5 -20t67.5 -56.5t29.5 -89t-17.5 -117.5h-378v-19q0 -88 46.5 -134t136.5 -46q49 0 91.5 11.5t68.5 24.5zM295 472q-70 0 -120.5 -44.5t-67.5 -125.5
h322q9 43 1.5 75t-26.5 53t-47.5 31.5t-61.5 10.5zM302 -192q-45 0 -70.5 22.5t-25.5 60.5q0 21 8.5 38.5t22 31t31 23.5t36.5 16h62q-20 -6 -38 -15t-31.5 -20.5t-22 -26t-8.5 -32.5q0 -23 15.5 -36t43.5 -13q13 0 23.5 2t21.5 6l-10 -46q-8 -4 -23 -7.5t-35 -3.5z" />
    <glyph glyph-name="Ecaron" unicode="&#x11a;" horiz-adv-x="579" 
d="M183 717h431l-15 -62h-359l-53 -249h308l-13 -61h-308l-61 -283h366l-13 -62h-436zM450 763h-76l-79 148h55l71 -99l113 99h58z" />
    <glyph glyph-name="ecaron" unicode="&#x11b;" horiz-adv-x="534" 
d="M430 25q-20 -11 -58 -23t-95 -12q-116 0 -180.5 60.5t-64.5 175.5q0 70 21.5 126.5t58 95.5t85.5 60t104 21q54 0 96.5 -20t67.5 -56.5t29.5 -89t-17.5 -117.5h-378v-19q0 -88 46.5 -134t136.5 -46q49 0 91.5 11.5t68.5 24.5zM295 472q-70 0 -120.5 -44.5t-67.5 -125.5
h322q9 43 1.5 75t-26.5 53t-47.5 31.5t-61.5 10.5zM348 588h-75l-80 148h56l69 -100l115 100h57z" />
    <glyph glyph-name="Gcircumflex" unicode="&#x11c;" horiz-adv-x="723" 
d="M693 308q-13 -84 -43.5 -144t-74 -98.5t-99 -57t-118.5 -18.5q-66 0 -121.5 19.5t-96.5 59t-64 100t-23 142.5q0 87 26.5 163t76.5 132t121 88t160 32q42 0 79 -7t67.5 -18t53 -25t36.5 -28l-15 -69q-33 34 -92 59.5t-134 25.5t-132 -28t-95.5 -76.5t-58.5 -112.5
t-20 -136q0 -71 18 -120.5t50 -80t75.5 -44.5t93.5 -14q51 0 93 14t75 44.5t56 79t34 116.5h-253l17 61h318l-10 -59v0zM462 862l-114 -99h-58l142 148h76l79 -148h-55z" />
    <glyph glyph-name="gcircumflex" unicode="&#x11d;" horiz-adv-x="587" 
d="M470 53q-12 -57 -33 -100t-54 -72.5t-80 -44.5t-111 -15q-59 0 -110.5 14t-83.5 39l12 58q42 -29 88.5 -41.5t96.5 -12.5q48 0 83 10.5t60 33t41.5 57t26.5 81.5l11 53q-32 -42 -76.5 -67t-103.5 -25q-44 0 -81 14.5t-63.5 42.5t-41.5 68.5t-15 93.5q0 59 18.5 111.5
t52.5 92t82.5 62.5t108.5 23q68 0 118 -31.5t67 -93.5l3 11q7 34 15 62t13 42h60q-5 -14 -12.5 -43t-14.5 -61zM252 77q49 0 86 21t62 55t37.5 76.5t12.5 85.5q0 42 -12 71.5t-32.5 48.5t-48 28t-58.5 9q-46 0 -82.5 -17.5t-61.5 -48t-38 -72t-13 -88.5q0 -87 42 -128
t106 -41zM370 687l-117 -99h-56l141 148h76l80 -148h-56z" />
    <glyph glyph-name="Gbreve" unicode="&#x11e;" horiz-adv-x="723" 
d="M693 308q-13 -84 -43.5 -144t-74 -98.5t-99 -57t-118.5 -18.5q-66 0 -121.5 19.5t-96.5 59t-64 100t-23 142.5q0 87 26.5 163t76.5 132t121 88t160 32q42 0 79 -7t67.5 -18t53 -25t36.5 -28l-15 -69q-33 34 -92 59.5t-134 25.5t-132 -28t-95.5 -76.5t-58.5 -112.5
t-20 -136q0 -71 18 -120.5t50 -80t75.5 -44.5t93.5 -14q51 0 93 14t75 44.5t56 79t34 116.5h-253l17 61h318l-10 -59v0zM450 760q-38 0 -66 12t-44.5 32t-22.5 46.5t-1 56.5h65q-8 -45 11.5 -70.5t61.5 -25.5q38 0 64.5 24t37.5 72h65q-6 -30 -18.5 -56.5t-33 -47t-50 -32
t-69.5 -11.5z" />
    <glyph glyph-name="gbreve" unicode="&#x11f;" horiz-adv-x="587" 
d="M470 53q-12 -57 -33 -100t-54 -72.5t-80 -44.5t-111 -15q-59 0 -110.5 14t-83.5 39l12 58q42 -29 88.5 -41.5t96.5 -12.5q48 0 83 10.5t60 33t41.5 57t26.5 81.5l11 53q-32 -42 -76.5 -67t-103.5 -25q-44 0 -81 14.5t-63.5 42.5t-41.5 68.5t-15 93.5q0 59 18.5 111.5
t52.5 92t82.5 62.5t108.5 23q68 0 118 -31.5t67 -93.5l3 11q7 34 15 62t13 42h60q-5 -14 -12.5 -43t-14.5 -61zM252 77q49 0 86 21t62 55t37.5 76.5t12.5 85.5q0 42 -12 71.5t-32.5 48.5t-48 28t-58.5 9q-46 0 -82.5 -17.5t-61.5 -48t-38 -72t-13 -88.5q0 -87 42 -128
t106 -41zM342 584q-36 0 -62 11.5t-42 30.5t-21 44t1 53h63q-9 -42 9.5 -65t55.5 -23q35 0 63 21.5t38 66.5h63q-6 -29 -19.5 -54t-34.5 -44t-49.5 -30t-64.5 -11z" />
    <glyph glyph-name="Gdotaccent" unicode="&#x120;" horiz-adv-x="723" 
d="M693 308q-13 -84 -43.5 -144t-74 -98.5t-99 -57t-118.5 -18.5q-66 0 -121.5 19.5t-96.5 59t-64 100t-23 142.5q0 87 26.5 163t76.5 132t121 88t160 32q42 0 79 -7t67.5 -18t53 -25t36.5 -28l-15 -69q-33 34 -92 59.5t-134 25.5t-132 -28t-95.5 -76.5t-58.5 -112.5
t-20 -136q0 -71 18 -120.5t50 -80t75.5 -44.5t93.5 -14q51 0 93 14t75 44.5t56 79t34 116.5h-253l17 61h318l-10 -59v0zM443 797q-20 0 -33 13t-13 31q0 20 13 33.5t33 13.5q22 0 34.5 -13.5t12.5 -33.5q0 -18 -12.5 -31t-34.5 -13z" />
    <glyph glyph-name="gdotaccent" unicode="&#x121;" horiz-adv-x="587" 
d="M470 53q-12 -57 -33 -100t-54 -72.5t-80 -44.5t-111 -15q-59 0 -110.5 14t-83.5 39l12 58q42 -29 88.5 -41.5t96.5 -12.5q48 0 83 10.5t60 33t41.5 57t26.5 81.5l11 53q-32 -42 -76.5 -67t-103.5 -25q-44 0 -81 14.5t-63.5 42.5t-41.5 68.5t-15 93.5q0 59 18.5 111.5
t52.5 92t82.5 62.5t108.5 23q68 0 118 -31.5t67 -93.5l3 11q7 34 15 62t13 42h60q-5 -14 -12.5 -43t-14.5 -61zM252 77q49 0 86 21t62 55t37.5 76.5t12.5 85.5q0 42 -12 71.5t-32.5 48.5t-48 28t-58.5 9q-46 0 -82.5 -17.5t-61.5 -48t-38 -72t-13 -88.5q0 -87 42 -128
t106 -41zM352 613q-21 0 -33.5 13.5t-12.5 32.5t12.5 32.5t33.5 13.5q22 0 34.5 -13.5t12.5 -32.5t-12.5 -32.5t-34.5 -13.5z" />
    <glyph glyph-name="uni0122" unicode="&#x122;" horiz-adv-x="723" 
d="M693 308q-13 -84 -43.5 -144t-74 -98.5t-99 -57t-118.5 -18.5q-66 0 -121.5 19.5t-96.5 59t-64 100t-23 142.5q0 87 26.5 163t76.5 132t121 88t160 32q42 0 79 -7t67.5 -18t53 -25t36.5 -28l-15 -69q-33 34 -92 59.5t-134 25.5t-132 -28t-95.5 -76.5t-58.5 -112.5
t-20 -136q0 -71 18 -120.5t50 -80t75.5 -44.5t93.5 -14q51 0 93 14t75 44.5t56 79t34 116.5h-253l17 61h318l-10 -59v0zM396 -104q0 -18 -7 -35t-18 -32t-25.5 -28t-29.5 -23h-51q26 16 44 37t31 47q-18 2 -27.5 14t-9.5 28q0 20 13 32.5t33 12.5t33.5 -13.5t13.5 -39.5z
" />
    <glyph glyph-name="uni0123" unicode="&#x123;" horiz-adv-x="587" 
d="M470 53q-12 -57 -33 -100t-54 -72.5t-80 -44.5t-111 -15q-59 0 -110.5 14t-83.5 39l12 58q42 -29 88.5 -41.5t96.5 -12.5q48 0 83 10.5t60 33t41.5 57t26.5 81.5l11 53q-32 -42 -76.5 -67t-103.5 -25q-44 0 -81 14.5t-63.5 42.5t-41.5 68.5t-15 93.5q0 59 18.5 111.5
t52.5 92t82.5 62.5t108.5 23q68 0 118 -31.5t67 -93.5l3 11q7 34 15 62t13 42h60q-5 -14 -12.5 -43t-14.5 -61zM252 77q49 0 86 21t62 55t37.5 76.5t12.5 85.5q0 42 -12 71.5t-32.5 48.5t-48 28t-58.5 9q-46 0 -82.5 -17.5t-61.5 -48t-38 -72t-13 -88.5q0 -87 42 -128
t106 -41zM380 641q0 -20 -13 -33t-33 -13t-33.5 13.5t-13.5 39.5q0 18 7 35t18 32t25.5 28t29.5 23h51q-51 -31 -75 -84q18 -2 27.5 -14t9.5 -27z" />
    <glyph glyph-name="Hcircumflex" unicode="&#x124;" horiz-adv-x="707" 
d="M566 324h-397l-69 -324h-70l153 717h70l-71 -331h397l70 331h69l-152 -717h-69zM477 862l-114 -99h-58l142 148h76l79 -148h-55z" />
    <glyph glyph-name="hcircumflex" unicode="&#x125;" horiz-adv-x="564" 
d="M342 472q-34 0 -61.5 -10t-49.5 -26.5t-39.5 -39t-32.5 -47.5l-74 -349h-65l152 717h65l-43 -202l-23 -99h2q30 48 76 80.5t117 32.5q85 0 124 -53t18 -150l-69 -326h-65l69 327q9 40 5 67.5t-18 44.5t-36.5 25t-51.5 8zM397 893l-114 -99h-58l142 148h76l79 -148h-55z
" />
    <glyph glyph-name="Hbar" unicode="&#x126;" horiz-adv-x="742" 
d="M582 324h-397l-69 -324h-70l111 521h-112l13 58h111l30 138h70l-30 -138h397l29 138h69l-29 -138h111l-12 -58h-112l-110 -521h-69zM595 386l28 135h-396l-29 -135h397z" />
    <glyph glyph-name="hbar" unicode="&#x127;" horiz-adv-x="564" 
d="M342 472q-34 0 -61.5 -10t-49.5 -26.5t-39.5 -39t-32.5 -47.5l-74 -349h-65l124 584h-73l12 50h71l18 83h65l-18 -83h182l-11 -50h-182l-14 -69l-23 -99h2q30 48 76 80.5t117 32.5q85 0 124 -53t18 -150l-69 -326h-65l69 327q9 40 5 67.5t-18 44.5t-36.5 25t-51.5 8z" />
    <glyph glyph-name="Itilde" unicode="&#x128;" horiz-adv-x="241" 
d="M253 717l-153 -717h-70l153 717h70zM57 789q-1 57 28.5 90t78.5 33q27 0 46 -9t35.5 -20.5t33 -20.5t36.5 -9q46 0 52 63h48q1 -57 -25 -90.5t-76 -33.5q-26 0 -44.5 9.5t-35 20.5t-33 20.5t-38.5 9.5q-23 0 -39 -15.5t-19 -47.5h-48v0z" />
    <glyph glyph-name="itilde" unicode="&#x129;" horiz-adv-x="214" 
d="M195 519l-110 -519h-65l110 519h65zM8 601q0 22 6 43t18.5 37t31.5 25.5t45 9.5q25 0 43 -8.5t33.5 -19t30.5 -19t34 -8.5q24 0 34 15t12 44h49q0 -22 -5.5 -42.5t-16.5 -37t-29.5 -26.5t-44.5 -10q-24 0 -41.5 8.5t-33 19t-31 19t-36.5 8.5q-49 0 -50 -58h-49v0z" />
    <glyph glyph-name="Imacron" unicode="&#x12a;" horiz-adv-x="241" 
d="M253 717l-153 -717h-70l153 717h70zM85 870h304l-11 -54h-305z" />
    <glyph glyph-name="imacron" unicode="&#x12b;" horiz-adv-x="214" 
d="M195 519l-110 -519h-65l110 519h65zM45 678h277l-11 -53h-277z" />
    <glyph glyph-name="Ibreve" unicode="&#x12c;" horiz-adv-x="241" 
d="M253 717l-153 -717h-70l153 717h70zM224 760q-38 0 -66 12t-44.5 32t-22.5 46.5t-1 56.5h65q-8 -45 11.5 -70.5t61.5 -25.5q38 0 64.5 24t37.5 72h65q-6 -30 -18.5 -56.5t-33 -47t-50 -32t-69.5 -11.5z" />
    <glyph glyph-name="ibreve" unicode="&#x12d;" horiz-adv-x="214" 
d="M195 519l-110 -519h-65l110 519h65zM175 584q-36 0 -62 11.5t-42 30.5t-21 44t1 53h63q-9 -42 9.5 -65t55.5 -23q35 0 63 21.5t38 66.5h63q-6 -29 -19.5 -54t-34.5 -44t-49.5 -30t-64.5 -11z" />
    <glyph glyph-name="Iogonek" unicode="&#x12e;" horiz-adv-x="241" 
d="M94 -181q-8 -4 -23 -7.5t-34 -3.5q-45 0 -70.5 23t-25.5 63q0 43 26.5 71.5t64.5 42.5l151 709h70l-153 -717q-20 -6 -38 -15t-32 -20.5t-22.5 -26t-8.5 -32.5q0 -49 61 -49q12 0 22.5 2t21.5 6l-10 -46v0z" />
    <glyph glyph-name="iogonek" unicode="&#x12f;" horiz-adv-x="214" 
d="M195 519l-110 -519q-19 -6 -37 -15t-32 -20.5t-22.5 -26t-8.5 -32.5q0 -23 15.5 -36t44.5 -13q22 0 44 8l-9 -46q-9 -4 -24 -7.5t-34 -3.5q-45 0 -70.5 22.5t-25.5 60.5q0 48 31 79q27 27 65 40l108 509h65zM185 613q-20 0 -33 14t-13 32q0 19 13 33t33 14t33.5 -14
t13.5 -33q0 -18 -13.5 -32t-33.5 -14z" />
    <glyph glyph-name="Idotaccent" unicode="&#x130;" horiz-adv-x="241" 
d="M253 717l-153 -717h-70l153 717h70zM233 797q-20 0 -33 13t-13 31q0 20 13 33.5t33 13.5q22 0 34.5 -13.5t12.5 -33.5q0 -18 -12.5 -31t-34.5 -13z" />
    <glyph glyph-name="dotlessi" unicode="&#x131;" horiz-adv-x="214" 
d="M195 519l-110 -519h-65l110 519h65z" />
    <glyph glyph-name="IJ" unicode="&#x132;" horiz-adv-x="560" 
d="M253 717l-153 -717h-70l153 717h70zM575 717l-122 -575q-7 -31 -20.5 -58.5t-35.5 -48.5t-53 -33t-72 -12q-27 0 -51 5.5t-41 13.5l13 59q34 -16 78 -16q54 0 79.5 27.5t36.5 81.5l118 556h70z" />
    <glyph glyph-name="ij" unicode="&#x133;" horiz-adv-x="429" 
d="M184 613q-20 0 -33 14t-13 32q0 19 13 33t33 14t33.5 -14t13.5 -33q0 -18 -13.5 -32t-33.5 -14zM194 519l-110 -519h-65l110 519h65zM401 613q-20 0 -33 14t-13 32q0 19 13 33t33 14t33.5 -14t13.5 -33q0 -18 -13.5 -32t-33.5 -14zM293 -43q-7 -32 -18.5 -58.5
t-29.5 -45.5t-43 -29.5t-60 -10.5q-25 0 -46.5 6t-36.5 16l12 55q11 -7 29 -13.5t44 -6.5q39 0 56.5 22.5t27.5 70.5l118 556h65z" />
    <glyph glyph-name="Jcircumflex" unicode="&#x134;" horiz-adv-x="357" 
d="M372 717l-122 -575q-7 -31 -20.5 -58.5t-35.5 -48.5t-53 -33t-72 -12q-27 0 -51 5.5t-41 13.5l13 59q34 -16 78 -16q54 0 79.5 27.5t36.5 81.5l118 556h70zM362 862l-114 -99h-58l142 148h76l79 -148h-55z" />
    <glyph glyph-name="jcircumflex" unicode="&#x135;" horiz-adv-x="221" 
d="M84 -43q-7 -32 -18.5 -58.5t-29.5 -45.5t-43 -29.5t-60 -10.5q-25 0 -46.5 6t-36.5 16l12 55q11 -7 29 -13.5t44 -6.5q39 0 56.5 22.5t27.5 70.5l118 556h65zM198 687l-117 -99h-56l141 148h76l80 -148h-56z" />
    <glyph glyph-name="uni0136" unicode="&#x136;" horiz-adv-x="609" 
d="M266 332h-95l-71 -332h-70l153 717h70l-69 -324h94l315 324h81l-347 -357l212 -360h-77zM303 -104q0 -18 -7 -35t-18 -32t-25.5 -28t-29.5 -23h-51q26 16 44 37t31 47q-18 2 -27.5 14t-9.5 28q0 20 13 32.5t33 12.5t33.5 -13.5t13.5 -39.5z" />
    <glyph glyph-name="uni0137" unicode="&#x137;" horiz-adv-x="470" 
d="M192 238h-57l-50 -238h-65l152 717h65l-90 -425h57l234 227h77l-267 -259l156 -260h-71zM247 -104q0 -18 -7 -35t-18 -32t-25.5 -28t-29.5 -23h-51q26 16 44 37t31 47q-18 2 -27.5 14t-9.5 28q0 20 13 32.5t33 12.5t33.5 -13.5t13.5 -39.5z" />
    <glyph glyph-name="Lacute" unicode="&#x139;" horiz-adv-x="561" 
d="M458 0h-428l153 717h70l-140 -655h359zM315 909h98l-152 -136h-67z" />
    <glyph glyph-name="lacute" unicode="&#x13a;" horiz-adv-x="214" 
d="M237 717l-152 -717h-65l152 717h65zM306 940h98l-152 -136h-67z" />
    <glyph glyph-name="uni013B" unicode="&#x13b;" horiz-adv-x="561" 
d="M458 0h-428l153 717h70l-140 -655h359zM296 -104q0 -18 -7 -35t-18 -32t-25.5 -28t-29.5 -23h-51q26 16 44 37t31 47q-18 2 -27.5 14t-9.5 28q0 20 13 32.5t33 12.5t33.5 -13.5t13.5 -39.5z" />
    <glyph glyph-name="uni013C" unicode="&#x13c;" horiz-adv-x="214" 
d="M237 717l-152 -717h-65l152 717h65zM79 -104q0 -18 -7 -35t-18 -32t-25.5 -28t-29.5 -23h-51q26 16 44 37t31 47q-18 2 -27.5 14t-9.5 28q0 20 13 32.5t33 12.5t33.5 -13.5t13.5 -39.5z" />
    <glyph glyph-name="Lcaron" unicode="&#x13d;" horiz-adv-x="561" 
d="M458 0h-428l153 717h70l-140 -655h359zM313 528l64 189h77l-94 -189h-47z" />
    <glyph glyph-name="lcaron" unicode="&#x13e;" horiz-adv-x="214" 
d="M237 717l-152 -717h-65l152 717h65zM250 528l64 189h77l-94 -189h-47z" />
    <glyph glyph-name="Ldot" unicode="&#x13f;" horiz-adv-x="573" 
d="M458 0h-428l153 717h70l-140 -655h359zM496 299q-24 0 -39 15t-15 37q0 23 15 38t39 15t38.5 -15t14.5 -38q0 -22 -14.5 -37t-38.5 -15z" />
    <glyph glyph-name="ldot" unicode="&#x140;" horiz-adv-x="354" 
d="M237 717l-152 -717h-65l152 717h65zM292 278q-24 0 -39 15t-15 37q0 23 15 38t39 15t38.5 -15t14.5 -38q0 -22 -14.5 -37t-38.5 -15z" />
    <glyph glyph-name="Lslash" unicode="&#x141;" horiz-adv-x="637" 
d="M531 0h-428l55 260l-114 -58l15 70l114 58l83 387h70l-74 -348l238 121l-15 -70l-238 -121l-51 -237h359z" />
    <glyph glyph-name="lslash" unicode="&#x142;" horiz-adv-x="239" 
d="M5 289l110 79l74 349h65l-63 -294l110 78l-13 -64l-110 -79l-76 -358h-65l64 304l-109 -78z" />
    <glyph glyph-name="Nacute" unicode="&#x143;" horiz-adv-x="722" 
d="M581 0h-90l-259 641l-136 -641h-66l153 717h88l260 -644l137 644h65zM541 909h98l-152 -136h-67z" />
    <glyph glyph-name="nacute" unicode="&#x144;" horiz-adv-x="564" 
d="M342 472q-34 0 -61.5 -10t-49.5 -26.5t-39.5 -39t-32.5 -47.5l-74 -349h-65l110 519h61l-20 -103h2q30 48 76 80.5t117 32.5q85 0 124 -53t18 -150l-69 -326h-65l69 327q9 40 5 67.5t-18 44.5t-36.5 25t-51.5 8zM440 746h90l-149 -158h-58z" />
    <glyph glyph-name="uni0145" unicode="&#x145;" horiz-adv-x="722" 
d="M581 0h-90l-259 641l-136 -641h-66l153 717h88l260 -644l137 644h65zM348 -104q0 -18 -7 -35t-18 -32t-25.5 -28t-29.5 -23h-51q26 16 44 37t31 47q-18 2 -27.5 14t-9.5 28q0 20 13 32.5t33 12.5t33.5 -13.5t13.5 -39.5z" />
    <glyph glyph-name="uni0146" unicode="&#x146;" horiz-adv-x="564" 
d="M342 472q-34 0 -61.5 -10t-49.5 -26.5t-39.5 -39t-32.5 -47.5l-74 -349h-65l110 519h61l-20 -103h2q30 48 76 80.5t117 32.5q85 0 124 -53t18 -150l-69 -326h-65l69 327q9 40 5 67.5t-18 44.5t-36.5 25t-51.5 8zM252 -104q0 -18 -7 -35t-18 -32t-25.5 -28t-29.5 -23h-51
q26 16 44 37t31 47q-18 2 -27.5 14t-9.5 28q0 20 13 32.5t33 12.5t33.5 -13.5t13.5 -39.5z" />
    <glyph glyph-name="Ncaron" unicode="&#x147;" horiz-adv-x="722" 
d="M581 0h-90l-259 641l-136 -641h-66l153 717h88l260 -644l137 644h65zM507 763h-76l-79 148h55l71 -99l113 99h58z" />
    <glyph glyph-name="ncaron" unicode="&#x148;" horiz-adv-x="564" 
d="M342 472q-34 0 -61.5 -10t-49.5 -26.5t-39.5 -39t-32.5 -47.5l-74 -349h-65l110 519h61l-20 -103h2q30 48 76 80.5t117 32.5q85 0 124 -53t18 -150l-69 -326h-65l69 327q9 40 5 67.5t-18 44.5t-36.5 25t-51.5 8zM387 588h-75l-80 148h56l69 -100l115 100h57z" />
    <glyph glyph-name="Eng" unicode="&#x14a;" horiz-adv-x="722" 
d="M183 717h88l261 -644l136 644h65l-162 -764q-7 -32 -20.5 -59.5t-35.5 -48.5t-52.5 -33t-70.5 -12q-28 0 -52.5 5.5t-41.5 15.5l13 58q17 -8 36.5 -12.5t42.5 -4.5q54 0 81.5 28t38.5 81l6 29h-25l-259 641l-136 -641h-66z" />
    <glyph glyph-name="eng" unicode="&#x14b;" horiz-adv-x="564" 
d="M281 -187q-26 0 -47.5 6t-36.5 16l13 55q11 -7 28.5 -13.5t43.5 -6.5q39 0 56.5 22.5t28.5 70.5l76 364q9 40 5 67.5t-18 44.5t-36.5 25t-51.5 8q-34 0 -61.5 -10t-49.5 -26.5t-39.5 -39t-32.5 -47.5l-74 -349h-65l110 519h61l-20 -103h2q30 48 76 80.5t117 32.5
q85 0 124 -53t18 -150l-77 -369q-7 -32 -18 -58.5t-29 -45.5t-43 -29.5t-60 -10.5z" />
    <glyph glyph-name="Omacron" unicode="&#x14c;" horiz-adv-x="728" 
d="M350 -10q-68 0 -123 22t-93.5 63t-59.5 99.5t-21 131.5q0 93 28.5 170t77.5 132.5t114.5 86.5t139.5 31q68 0 123 -22t94 -62.5t60 -99.5t21 -132q0 -93 -28.5 -170t-77.5 -132.5t-115 -86.5t-140 -31zM126 304q0 -121 60.5 -186.5t166.5 -65.5q60 0 112 27t90.5 75
t60 114.5t21.5 144.5q0 121 -60 186t-166 65q-61 0 -113 -27t-90.5 -75t-60 -114t-21.5 -144zM291 870h304l-11 -54h-305z" />
    <glyph glyph-name="omacron" unicode="&#x14d;" horiz-adv-x="547" 
d="M250 -10q-50 0 -90 16.5t-68.5 47t-44 73.5t-15.5 97q0 63 19 119t54 97t83.5 65t108.5 24q49 0 89.5 -16.5t69.5 -47t44.5 -73.5t15.5 -97q0 -63 -19 -119t-54 -97t-84 -65t-109 -24zM99 226q0 -90 43 -134.5t111 -44.5q44 0 80 18.5t61.5 51t39.5 77.5t14 98
q0 91 -43.5 135.5t-109.5 44.5q-44 0 -80.5 -18.5t-62 -51.5t-39.5 -78t-14 -98zM176 679h277l-11 -53h-277z" />
    <glyph glyph-name="Obreve" unicode="&#x14e;" horiz-adv-x="728" 
d="M350 -10q-68 0 -123 22t-93.5 63t-59.5 99.5t-21 131.5q0 93 28.5 170t77.5 132.5t114.5 86.5t139.5 31q68 0 123 -22t94 -62.5t60 -99.5t21 -132q0 -93 -28.5 -170t-77.5 -132.5t-115 -86.5t-140 -31zM126 304q0 -121 60.5 -186.5t166.5 -65.5q60 0 112 27t90.5 75
t60 114.5t21.5 144.5q0 121 -60 186t-166 65q-61 0 -113 -27t-90.5 -75t-60 -114t-21.5 -144zM434 760q-38 0 -66 12t-44.5 32t-22.5 46.5t-1 56.5h65q-8 -45 11.5 -70.5t61.5 -25.5q38 0 64.5 24t37.5 72h65q-6 -30 -18.5 -56.5t-33 -47t-50 -32t-69.5 -11.5z" />
    <glyph glyph-name="obreve" unicode="&#x14f;" horiz-adv-x="547" 
d="M250 -10q-50 0 -90 16.5t-68.5 47t-44 73.5t-15.5 97q0 63 19 119t54 97t83.5 65t108.5 24q49 0 89.5 -16.5t69.5 -47t44.5 -73.5t15.5 -97q0 -63 -19 -119t-54 -97t-84 -65t-109 -24zM99 226q0 -90 43 -134.5t111 -44.5q44 0 80 18.5t61.5 51t39.5 77.5t14 98
q0 91 -43.5 135.5t-109.5 44.5q-44 0 -80.5 -18.5t-62 -51.5t-39.5 -78t-14 -98zM325 584q-36 0 -62 11.5t-42 30.5t-21 44t1 53h63q-9 -42 9.5 -65t55.5 -23q35 0 63 21.5t38 66.5h63q-6 -29 -19.5 -54t-34.5 -44t-49.5 -30t-64.5 -11z" />
    <glyph glyph-name="Ohungarumlaut" unicode="&#x150;" horiz-adv-x="728" 
d="M350 -10q-68 0 -123 22t-93.5 63t-59.5 99.5t-21 131.5q0 93 28.5 170t77.5 132.5t114.5 86.5t139.5 31q68 0 123 -22t94 -62.5t60 -99.5t21 -132q0 -93 -28.5 -170t-77.5 -132.5t-115 -86.5t-140 -31zM126 304q0 -121 60.5 -186.5t166.5 -65.5q60 0 112 27t90.5 75
t60 114.5t21.5 144.5q0 121 -60 186t-166 65q-61 0 -113 -27t-90.5 -75t-60 -114t-21.5 -144zM277 773l93 136h84l-117 -136h-60zM462 773l92 136h85l-118 -136h-59z" />
    <glyph glyph-name="ohungarumlaut" unicode="&#x151;" horiz-adv-x="547" 
d="M250 -10q-50 0 -90 16.5t-68.5 47t-44 73.5t-15.5 97q0 63 19 119t54 97t83.5 65t108.5 24q49 0 89.5 -16.5t69.5 -47t44.5 -73.5t15.5 -97q0 -63 -19 -119t-54 -97t-84 -65t-109 -24zM99 226q0 -90 43 -134.5t111 -44.5q44 0 80 18.5t61.5 51t39.5 77.5t14 98
q0 91 -43.5 135.5t-109.5 44.5q-44 0 -80.5 -18.5t-62 -51.5t-39.5 -78t-14 -98zM186 588l90 158h76l-113 -158h-53zM342 588l91 158h76l-114 -158h-53z" />
    <glyph glyph-name="OE" unicode="&#x152;" horiz-adv-x="990" 
d="M53 296q0 83 27 159t78.5 134.5t127 93t172.5 34.5h568l-15 -62h-360l-53 -249h309l-13 -61h-309l-60 -283h366l-14 -62h-522q-62 0 -117 16t-96 51t-65 91.5t-24 137.5zM455 61l127 594h-131q-78 0 -138.5 -29.5t-102 -79t-63 -114t-21.5 -133.5q0 -66 18 -111.5
t49.5 -73.5t73.5 -40.5t90 -12.5h98z" />
    <glyph glyph-name="oe" unicode="&#x153;" horiz-adv-x="948" 
d="M844 25q-20 -11 -58 -23t-96 -12q-85 0 -141.5 35.5t-79.5 103.5q-33 -63 -89 -101t-130 -38q-50 0 -90 16.5t-68.5 47t-44 73.5t-15.5 97q0 63 19 119t54 97t83.5 65t108.5 24q72 0 122.5 -36t72.5 -101q35 66 93.5 101.5t129.5 35.5q54 0 96.5 -20t67.5 -56.5t29.5 -89
t-17.5 -117.5h-379v-19q0 -88 47 -134t137 -46q49 0 92 11.5t68 24.5zM448 292q0 91 -43.5 135.5t-109.5 44.5q-44 0 -80.5 -18.5t-62 -51.5t-39.5 -78t-14 -98q0 -90 43 -134.5t111 -44.5q44 0 80 18.5t61.5 51t39.5 77.5t14 98zM709 472q-70 0 -121 -44.5t-68 -125.5h323
q9 43 1.5 75t-26.5 53t-47.5 31.5t-61.5 10.5z" />
    <glyph glyph-name="Racute" unicode="&#x154;" horiz-adv-x="620" 
d="M183 717h214q101 0 159.5 -45.5t58.5 -140.5q0 -50 -16 -89t-45 -67t-69.5 -45t-88.5 -23l126 -307h-73l-124 304h-160l-65 -304h-70zM240 655l-62 -289h180q39 0 73 10.5t59 31t39 50.5t14 70q0 69 -41 98t-114 29h-148zM463 909h98l-152 -136h-67z" />
    <glyph glyph-name="racute" unicode="&#x155;" horiz-adv-x="338" 
d="M348 457q-62 3 -112 -27t-80 -99l-71 -331h-65l110 519h58l-20 -119h2q26 55 73 92t120 37l-15 -72v0zM337 746h90l-149 -158h-58z" />
    <glyph glyph-name="uni0156" unicode="&#x156;" horiz-adv-x="620" 
d="M183 717h214q101 0 159.5 -45.5t58.5 -140.5q0 -50 -16 -89t-45 -67t-69.5 -45t-88.5 -23l126 -307h-73l-124 304h-160l-65 -304h-70zM240 655l-62 -289h180q39 0 73 10.5t59 31t39 50.5t14 70q0 69 -41 98t-114 29h-148zM309 -104q0 -18 -7 -35t-18 -32t-25.5 -28
t-29.5 -23h-51q26 16 44 37t31 47q-18 2 -27.5 14t-9.5 28q0 20 13 32.5t33 12.5t33.5 -13.5t13.5 -39.5z" />
    <glyph glyph-name="uni0157" unicode="&#x157;" horiz-adv-x="338" 
d="M348 457q-62 3 -112 -27t-80 -99l-71 -331h-65l110 519h58l-20 -119h2q26 55 73 92t120 37l-15 -72v0zM78 -104q0 -18 -7 -35t-18 -32t-25.5 -28t-29.5 -23h-51q26 16 44 37t31 47q-18 2 -27.5 14t-9.5 28q0 20 13 32.5t33 12.5t33.5 -13.5t13.5 -39.5z" />
    <glyph glyph-name="Rcaron" unicode="&#x158;" horiz-adv-x="620" 
d="M183 717h214q101 0 159.5 -45.5t58.5 -140.5q0 -50 -16 -89t-45 -67t-69.5 -45t-88.5 -23l126 -307h-73l-124 304h-160l-65 -304h-70zM240 655l-62 -289h180q39 0 73 10.5t59 31t39 50.5t14 70q0 69 -41 98t-114 29h-148zM433 763h-76l-79 148h55l71 -99l113 99h58z" />
    <glyph glyph-name="rcaron" unicode="&#x159;" horiz-adv-x="338" 
d="M348 457q-62 3 -112 -27t-80 -99l-71 -331h-65l110 519h58l-20 -119h2q26 55 73 92t120 37l-15 -72v0zM298 588h-75l-80 148h56l69 -100l115 100h57z" />
    <glyph glyph-name="Sacute" unicode="&#x15a;" horiz-adv-x="574" 
d="M267 -10q-53 0 -95 9.5t-74 23.5t-53 30t-32 30l13 63q15 -17 38 -33.5t54.5 -30t69.5 -22t83 -8.5q85 0 132.5 33.5t47.5 104.5q0 31 -10.5 53t-31 38t-49.5 28.5t-66 25.5q-33 12 -68 26t-63 35.5t-46 53.5t-18 81q0 91 66.5 143t183.5 52q78 0 129.5 -20.5t79.5 -43.5
l-13 -63q-37 29 -87 47t-110 18q-87 0 -134.5 -34.5t-47.5 -94.5q0 -32 13 -53t34 -36t48 -26t56 -21q35 -12 71 -26t65.5 -36.5t48.5 -56.5t19 -86q0 -98 -67 -151t-187 -53zM427 909h98l-152 -136h-67z" />
    <glyph glyph-name="sacute" unicode="&#x15b;" horiz-adv-x="461" 
d="M402 144q0 -75 -48 -114.5t-139 -39.5q-39 0 -71 6.5t-57.5 16.5t-45 22t-31.5 23l13 58q13 -12 32.5 -24.5t44 -22t54.5 -16t63 -6.5q68 0 95.5 26t27.5 64q0 25 -10 41.5t-27 27t-39 18t-47 14.5q-27 8 -54 18t-48.5 25.5t-34.5 39t-13 59.5q0 37 14 64.5t39.5 46.5
t60.5 28.5t77 9.5q62 0 102.5 -15.5t64.5 -31.5l-12 -58q-26 18 -63 33t-91 15q-62 0 -95.5 -21.5t-33.5 -64.5q0 -21 8.5 -35t23 -24t34 -16.5t42.5 -13.5q27 -8 56 -17t53 -25.5t39.5 -42.5t15.5 -68zM353 746h90l-149 -158h-58z" />
    <glyph glyph-name="Scircumflex" unicode="&#x15c;" horiz-adv-x="574" 
d="M267 -10q-53 0 -95 9.5t-74 23.5t-53 30t-32 30l13 63q15 -17 38 -33.5t54.5 -30t69.5 -22t83 -8.5q85 0 132.5 33.5t47.5 104.5q0 31 -10.5 53t-31 38t-49.5 28.5t-66 25.5q-33 12 -68 26t-63 35.5t-46 53.5t-18 81q0 91 66.5 143t183.5 52q78 0 129.5 -20.5t79.5 -43.5
l-13 -63q-37 29 -87 47t-110 18q-87 0 -134.5 -34.5t-47.5 -94.5q0 -32 13 -53t34 -36t48 -26t56 -21q35 -12 71 -26t65.5 -36.5t48.5 -56.5t19 -86q0 -98 -67 -151t-187 -53zM375 862l-114 -99h-58l142 148h76l79 -148h-55z" />
    <glyph glyph-name="scircumflex" unicode="&#x15d;" horiz-adv-x="461" 
d="M402 144q0 -75 -48 -114.5t-139 -39.5q-39 0 -71 6.5t-57.5 16.5t-45 22t-31.5 23l13 58q13 -12 32.5 -24.5t44 -22t54.5 -16t63 -6.5q68 0 95.5 26t27.5 64q0 25 -10 41.5t-27 27t-39 18t-47 14.5q-27 8 -54 18t-48.5 25.5t-34.5 39t-13 59.5q0 37 14 64.5t39.5 46.5
t60.5 28.5t77 9.5q62 0 102.5 -15.5t64.5 -31.5l-12 -58q-26 18 -63 33t-91 15q-62 0 -95.5 -21.5t-33.5 -64.5q0 -21 8.5 -35t23 -24t34 -16.5t42.5 -13.5q27 -8 56 -17t53 -25.5t39.5 -42.5t15.5 -68zM298 687l-117 -99h-56l141 148h76l80 -148h-56z" />
    <glyph glyph-name="uni015E" unicode="&#x15e;" horiz-adv-x="574" 
d="M267 -10q-53 0 -95 9.5t-74 23.5t-53 30t-32 30l13 63q15 -17 38 -33.5t54.5 -30t69.5 -22t83 -8.5q85 0 132.5 33.5t47.5 104.5q0 31 -10.5 53t-31 38t-49.5 28.5t-66 25.5q-33 12 -68 26t-63 35.5t-46 53.5t-18 81q0 91 66.5 143t183.5 52q78 0 129.5 -20.5t79.5 -43.5
l-13 -63q-37 29 -87 47t-110 18q-87 0 -134.5 -34.5t-47.5 -94.5q0 -32 13 -53t34 -36t48 -26t56 -21q35 -12 71 -26t65.5 -36.5t48.5 -56.5t19 -86q0 -98 -67 -151t-187 -53zM304 16l-102 -203h-82l130 203h54z" />
    <glyph glyph-name="uni015F" unicode="&#x15f;" horiz-adv-x="461" 
d="M402 144q0 -75 -48 -114.5t-139 -39.5q-39 0 -71 6.5t-57.5 16.5t-45 22t-31.5 23l13 58q13 -12 32.5 -24.5t44 -22t54.5 -16t63 -6.5q68 0 95.5 26t27.5 64q0 25 -10 41.5t-27 27t-39 18t-47 14.5q-27 8 -54 18t-48.5 25.5t-34.5 39t-13 59.5q0 37 14 64.5t39.5 46.5
t60.5 28.5t77 9.5q62 0 102.5 -15.5t64.5 -31.5l-12 -58q-26 18 -63 33t-91 15q-62 0 -95.5 -21.5t-33.5 -64.5q0 -21 8.5 -35t23 -24t34 -16.5t42.5 -13.5q27 -8 56 -17t53 -25.5t39.5 -42.5t15.5 -68zM246 16l-102 -203h-82l130 203h54z" />
    <glyph glyph-name="Scaron" unicode="&#x160;" horiz-adv-x="574" 
d="M267 -10q-53 0 -95 9.5t-74 23.5t-53 30t-32 30l13 63q15 -17 38 -33.5t54.5 -30t69.5 -22t83 -8.5q85 0 132.5 33.5t47.5 104.5q0 31 -10.5 53t-31 38t-49.5 28.5t-66 25.5q-33 12 -68 26t-63 35.5t-46 53.5t-18 81q0 91 66.5 143t183.5 52q78 0 129.5 -20.5t79.5 -43.5
l-13 -63q-37 29 -87 47t-110 18q-87 0 -134.5 -34.5t-47.5 -94.5q0 -32 13 -53t34 -36t48 -26t56 -21q35 -12 71 -26t65.5 -36.5t48.5 -56.5t19 -86q0 -98 -67 -151t-187 -53zM407 763h-76l-79 148h55l71 -99l113 99h58z" />
    <glyph glyph-name="scaron" unicode="&#x161;" horiz-adv-x="461" 
d="M402 144q0 -75 -48 -114.5t-139 -39.5q-39 0 -71 6.5t-57.5 16.5t-45 22t-31.5 23l13 58q13 -12 32.5 -24.5t44 -22t54.5 -16t63 -6.5q68 0 95.5 26t27.5 64q0 25 -10 41.5t-27 27t-39 18t-47 14.5q-27 8 -54 18t-48.5 25.5t-34.5 39t-13 59.5q0 37 14 64.5t39.5 46.5
t60.5 28.5t77 9.5q62 0 102.5 -15.5t64.5 -31.5l-12 -58q-26 18 -63 33t-91 15q-62 0 -95.5 -21.5t-33.5 -64.5q0 -21 8.5 -35t23 -24t34 -16.5t42.5 -13.5q27 -8 56 -17t53 -25.5t39.5 -42.5t15.5 -68zM322 588h-75l-80 148h56l69 -100l115 100h57z" />
    <glyph glyph-name="Tcommaaccent" unicode="&#x162;" horiz-adv-x="575" 
d="M406 655l-139 -655h-70l139 655h-230l14 62h529l-13 -62h-230zM260 -104q0 -18 -7 -35t-18 -32t-25.5 -28t-29.5 -23h-51q26 16 44 37t31 47q-18 2 -27.5 14t-9.5 28q0 20 13 32.5t33 12.5t33.5 -13.5t13.5 -39.5z" />
    <glyph glyph-name="tcommaaccent" unicode="&#x163;" horiz-adv-x="350" 
d="M249 2q-26 -12 -65 -12q-75 0 -102.5 43.5t-12.5 110.5l69 321h-65l12 54h65l23 109h65l-23 -109h147l-12 -54h-147l-70 -325q-10 -45 4.5 -69t58.5 -24q19 0 36 2.5t28 7.5l-11 -55v0zM178 -104q0 -18 -7 -35t-18 -32t-25.5 -28t-29.5 -23h-51q26 16 44 37t31 47
q-18 2 -27.5 14t-9.5 28q0 20 13 32.5t33 12.5t33.5 -13.5t13.5 -39.5z" />
    <glyph glyph-name="Tcaron" unicode="&#x164;" horiz-adv-x="575" 
d="M406 655l-139 -655h-70l139 655h-230l14 62h529l-13 -62h-230zM426 763h-76l-79 148h55l71 -99l113 99h58z" />
    <glyph glyph-name="tcaron" unicode="&#x165;" horiz-adv-x="350" 
d="M249 2q-26 -12 -65 -12q-75 0 -102.5 43.5t-12.5 110.5l69 321h-65l12 54h65l23 109h65l-23 -109h147l-12 -54h-147l-70 -325q-10 -45 4.5 -69t58.5 -24q19 0 36 2.5t28 7.5l-11 -55v0zM317.017 548.671l61.8711 167.763h74.4385l-90.873 -167.763h-45.4365z" />
    <glyph glyph-name="Tbar" unicode="&#x166;" horiz-adv-x="590" 
d="M119 421h182l50 234h-230l14 62h529l-13 -62h-230l-50 -234h184l-13 -58h-183l-77 -363h-70l77 363h-183z" />
    <glyph glyph-name="tbar" unicode="&#x167;" horiz-adv-x="349" 
d="M248 2q-26 -12 -65 -12q-75 0 -102.5 43.5t-12.5 110.5l30 142h-62l12 57h63l26 122h-65l12 54h65l23 109h65l-23 -109h147l-12 -54h-147l-26 -122h152l-12 -57h-153l-31 -146q-10 -45 4.5 -69t58.5 -24q19 0 36 2.5t28 7.5z" />
    <glyph glyph-name="Utilde" unicode="&#x168;" horiz-adv-x="678" 
d="M168 717h69l-95 -447q-12 -56 -3 -97t33.5 -68t61.5 -40t82 -13q89 0 148 50t81 157l97 458h68l-100 -469q-27 -127 -103 -192.5t-194 -65.5q-59 0 -109.5 17.5t-84.5 53t-47 90.5t3 130zM273 789q-1 57 28.5 90t78.5 33q27 0 46 -9t35.5 -20.5t33 -20.5t36.5 -9
q46 0 52 63h48q1 -57 -25 -90.5t-76 -33.5q-26 0 -44.5 9.5t-35 20.5t-33 20.5t-38.5 9.5q-23 0 -39 -15.5t-19 -47.5h-48v0z" />
    <glyph glyph-name="utilde" unicode="&#x169;" horiz-adv-x="552" 
d="M217 47q33 0 59.5 10t47.5 27.5t37.5 39.5t30.5 46l75 349h65l-110 -519h-58l17 105h-2q-14 -23 -31 -44t-39 -37t-49.5 -25t-61.5 -9q-82 0 -122 52t-21 144l71 333h65l-70 -330q-8 -38 -3.5 -64.5t18 -44t34.5 -25.5t47 -8zM179 601q0 22 6 43t18.5 37t31.5 25.5
t45 9.5q25 0 43 -8.5t33.5 -19t30.5 -19t34 -8.5q24 0 34 15t12 44h49q0 -22 -5.5 -42.5t-16.5 -37t-29.5 -26.5t-44.5 -10q-24 0 -41.5 8.5t-33 19t-31 19t-36.5 8.5q-49 0 -50 -58h-49v0z" />
    <glyph glyph-name="Umacron" unicode="&#x16a;" horiz-adv-x="678" 
d="M168 717h69l-95 -447q-12 -56 -3 -97t33.5 -68t61.5 -40t82 -13q89 0 148 50t81 157l97 458h68l-100 -469q-27 -127 -103 -192.5t-194 -65.5q-59 0 -109.5 17.5t-84.5 53t-47 90.5t3 130zM309 870h304l-11 -54h-305z" />
    <glyph glyph-name="umacron" unicode="&#x16b;" horiz-adv-x="552" 
d="M217 47q33 0 59.5 10t47.5 27.5t37.5 39.5t30.5 46l75 349h65l-110 -519h-58l17 105h-2q-14 -23 -31 -44t-39 -37t-49.5 -25t-61.5 -9q-82 0 -122 52t-21 144l71 333h65l-70 -330q-8 -38 -3.5 -64.5t18 -44t34.5 -25.5t47 -8zM211 679h277l-11 -53h-277z" />
    <glyph glyph-name="Ubreve" unicode="&#x16c;" horiz-adv-x="678" 
d="M168 717h69l-95 -447q-12 -56 -3 -97t33.5 -68t61.5 -40t82 -13q89 0 148 50t81 157l97 458h68l-100 -469q-27 -127 -103 -192.5t-194 -65.5q-59 0 -109.5 17.5t-84.5 53t-47 90.5t3 130zM441 760q-38 0 -66 12t-44.5 32t-22.5 46.5t-1 56.5h65q-8 -45 11.5 -70.5
t61.5 -25.5q38 0 64.5 24t37.5 72h65q-6 -30 -18.5 -56.5t-33 -47t-50 -32t-69.5 -11.5z" />
    <glyph glyph-name="ubreve" unicode="&#x16d;" horiz-adv-x="552" 
d="M217 47q33 0 59.5 10t47.5 27.5t37.5 39.5t30.5 46l75 349h65l-110 -519h-58l17 105h-2q-14 -23 -31 -44t-39 -37t-49.5 -25t-61.5 -9q-82 0 -122 52t-21 144l71 333h65l-70 -330q-8 -38 -3.5 -64.5t18 -44t34.5 -25.5t47 -8zM336 584q-36 0 -62 11.5t-42 30.5t-21 44
t1 53h63q-9 -42 9.5 -65t55.5 -23q35 0 63 21.5t38 66.5h63q-6 -29 -19.5 -54t-34.5 -44t-49.5 -30t-64.5 -11z" />
    <glyph glyph-name="Uring" unicode="&#x16e;" horiz-adv-x="678" 
d="M168 717h69l-95 -447q-12 -56 -3 -97t33.5 -68t61.5 -40t82 -13q89 0 148 50t81 157l97 458h68l-100 -469q-27 -127 -103 -192.5t-194 -65.5q-59 0 -109.5 17.5t-84.5 53t-47 90.5t3 130zM449 731q-48 0 -79 30.5t-31 78.5t31 78.5t79 30.5t79.5 -30.5t31.5 -78.5
t-31.5 -78.5t-79.5 -30.5zM449 775q29 0 47 18t18 47t-18 47.5t-47 18.5q-28 0 -46 -18.5t-18 -47.5t18 -47t46 -18z" />
    <glyph glyph-name="uring" unicode="&#x16f;" horiz-adv-x="552" 
d="M217 47q33 0 59.5 10t47.5 27.5t37.5 39.5t30.5 46l75 349h65l-110 -519h-58l17 105h-2q-14 -23 -31 -44t-39 -37t-49.5 -25t-61.5 -9q-82 0 -122 52t-21 144l71 333h65l-70 -330q-8 -38 -3.5 -64.5t18 -44t34.5 -25.5t47 -8zM339 571q-47 0 -78.5 30.5t-31.5 78.5
t31.5 78.5t78.5 30.5q48 0 80 -30.5t32 -78.5t-32 -78.5t-80 -30.5zM339 615q28 0 47 18t19 47t-19 47.5t-47 18.5q-27 0 -45 -18.5t-18 -47.5t17.5 -47t45.5 -18z" />
    <glyph glyph-name="Uhungarumlaut" unicode="&#x170;" horiz-adv-x="678" 
d="M168 717h69l-95 -447q-12 -56 -3 -97t33.5 -68t61.5 -40t82 -13q89 0 148 50t81 157l97 458h68l-100 -469q-27 -127 -103 -192.5t-194 -65.5q-59 0 -109.5 17.5t-84.5 53t-47 90.5t3 130zM310 773l93 136h84l-117 -136h-60zM495 773l92 136h85l-118 -136h-59z" />
    <glyph glyph-name="uhungarumlaut" unicode="&#x171;" horiz-adv-x="552" 
d="M217 47q33 0 59.5 10t47.5 27.5t37.5 39.5t30.5 46l75 349h65l-110 -519h-58l17 105h-2q-14 -23 -31 -44t-39 -37t-49.5 -25t-61.5 -9q-82 0 -122 52t-21 144l71 333h65l-70 -330q-8 -38 -3.5 -64.5t18 -44t34.5 -25.5t47 -8zM226 588l90 158h76l-113 -158h-53zM382 588
l91 158h76l-114 -158h-53z" />
    <glyph glyph-name="Uogonek" unicode="&#x172;" horiz-adv-x="678" 
d="M168 717h69l-95 -447q-12 -56 -3 -97t33.5 -68t61.5 -40t82 -13q89 0 148 50t81 157l97 458h68l-100 -469q-27 -127 -103 -192.5t-194 -65.5q-59 0 -109.5 17.5t-84.5 53t-47 90.5t3 130zM335 -192q-45 0 -70.5 22.5t-25.5 60.5q0 21 8.5 38.5t22 31t31 23.5t36.5 16h62
q-20 -6 -38 -15t-31.5 -20.5t-22 -26t-8.5 -32.5q0 -23 15.5 -36t43.5 -13q13 0 23.5 2t21.5 6l-10 -46q-8 -4 -23 -7.5t-35 -3.5z" />
    <glyph glyph-name="uogonek" unicode="&#x173;" horiz-adv-x="552" 
d="M416 -181q-8 -4 -23 -7.5t-34 -3.5q-45 0 -70.5 22.5t-25.5 60.5q0 45 30 75t73 44l15 95h-2q-14 -23 -31 -44t-39 -37t-49.5 -25t-61.5 -9q-82 0 -122 52t-21 144l71 333h65l-70 -330q-8 -38 -3.5 -64.5t18 -44t34.5 -25.5t47 -8q33 0 59.5 10t47.5 27.5t37.5 39.5
t30.5 46l75 349h65l-110 -519q-20 -6 -38 -15t-31.5 -20.5t-22 -26t-8.5 -32.5q0 -23 15.5 -36t44.5 -13q22 0 44 8l-10 -46v0z" />
    <glyph glyph-name="Wcircumflex" unicode="&#x174;" horiz-adv-x="952" 
d="M689 0h-98l-46 608l-298 -608h-101l-18 717h68l15 -651l320 651h69l51 -647l292 647h69zM589 862l-114 -99h-58l142 148h76l79 -148h-55z" />
    <glyph glyph-name="wcircumflex" unicode="&#x175;" horiz-adv-x="754" 
d="M542 0h-99l-30 434l-215 -434h-96l-16 519h67l11 -466l228 466h76l34 -473l211 473h66zM459 687l-117 -99h-56l141 148h76l80 -148h-56z" />
    <glyph glyph-name="Ycircumflex" unicode="&#x176;" horiz-adv-x="597" 
d="M345 310l-66 -310h-71l67 310l-158 407h74l130 -345l276 345h76zM416 862l-114 -99h-58l142 148h76l79 -148h-55z" />
    <glyph glyph-name="ycircumflex" unicode="&#x177;" horiz-adv-x="501" 
d="M241 6q-27 -47 -52.5 -83t-52.5 -60.5t-57.5 -37t-67.5 -12.5q-15 0 -28.5 2t-24.5 7l13 58q9 -5 22.5 -7.5t28.5 -2.5q40 0 69 26.5t66 82.5l-91 540h69l73 -457l263 457h67l-297 -513v0zM323 687l-117 -99h-56l141 148h76l80 -148h-56z" />
    <glyph glyph-name="Ydieresis" unicode="&#x178;" horiz-adv-x="597" 
d="M345 310l-66 -310h-71l67 310l-158 407h74l130 -345l276 345h76zM283 797q-21 0 -33.5 13t-12.5 31q0 20 12.5 33.5t33.5 13.5q22 0 34.5 -13.5t12.5 -33.5q0 -18 -12.5 -31t-34.5 -13zM508 797q-21 0 -33.5 13t-12.5 31q0 20 12.5 33.5t33.5 13.5t34 -13.5t13 -33.5
q0 -18 -13 -31t-34 -13z" />
    <glyph glyph-name="Zacute" unicode="&#x179;" horiz-adv-x="601" 
d="M496 0h-504l12 52l538 603h-401l14 62h493l-11 -53l-539 -602h412zM466 909h98l-152 -136h-67z" />
    <glyph glyph-name="zacute" unicode="&#x17a;" horiz-adv-x="449" 
d="M356 0h-375l9 43l372 419h-278l12 57h365l-9 -43l-373 -419h289zM363 746h90l-149 -158h-58z" />
    <glyph glyph-name="Zdotaccent" unicode="&#x17b;" horiz-adv-x="601" 
d="M496 0h-504l12 52l538 603h-401l14 62h493l-11 -53l-539 -602h412zM409 797q-20 0 -33 13t-13 31q0 20 13 33.5t33 13.5q22 0 34.5 -13.5t12.5 -33.5q0 -18 -12.5 -31t-34.5 -13z" />
    <glyph glyph-name="zdotaccent" unicode="&#x17c;" horiz-adv-x="449" 
d="M356 0h-375l9 43l372 419h-278l12 57h365l-9 -43l-373 -419h289zM286 613q-21 0 -33.5 13.5t-12.5 32.5t12.5 32.5t33.5 13.5q22 0 34.5 -13.5t12.5 -32.5t-12.5 -32.5t-34.5 -13.5z" />
    <glyph glyph-name="Zcaron" unicode="&#x17d;" horiz-adv-x="601" 
d="M496 0h-504l12 52l538 603h-401l14 62h493l-11 -53l-539 -602h412zM444 763h-76l-79 148h55l71 -99l113 99h58z" />
    <glyph glyph-name="zcaron" unicode="&#x17e;" horiz-adv-x="449" 
d="M356 0h-375l9 43l372 419h-278l12 57h365l-9 -43l-373 -419h289zM318 588h-75l-80 148h56l69 -100l115 100h57z" />
    <glyph glyph-name="uni0192" unicode="&#x192;" 
d="M162 10q-18 -47 -39 -84t-48 -62t-60.5 -38t-75.5 -13q-25 0 -43 4.5t-27 9.5l11 53q8 -5 24 -9t38 -4q31 0 54.5 10t42 29t32.5 46.5t28 61.5l138 357h-91l23 54h89l40 104q19 48 40 85t47.5 62t59.5 37.5t75 12.5q22 0 42.5 -4t28.5 -9l-12 -55q-8 4 -24.5 7.5
t-37.5 3.5q-62 0 -94.5 -35t-58.5 -105l-40 -104h139l-22 -54h-138l-141 -361v0z" />
    <glyph glyph-name="uni0218" unicode="&#x218;" horiz-adv-x="574" 
d="M267 -10q-53 0 -95 9.5t-74 23.5t-53 30t-32 30l13 63q15 -17 38 -33.5t54.5 -30t69.5 -22t83 -8.5q85 0 132.5 33.5t47.5 104.5q0 31 -10.5 53t-31 38t-49.5 28.5t-66 25.5q-33 12 -68 26t-63 35.5t-46 53.5t-18 81q0 91 66.5 143t183.5 52q78 0 129.5 -20.5t79.5 -43.5
l-13 -63q-37 29 -87 47t-110 18q-87 0 -134.5 -34.5t-47.5 -94.5q0 -32 13 -53t34 -36t48 -26t56 -21q35 -12 71 -26t65.5 -36.5t48.5 -56.5t19 -86q0 -98 -67 -151t-187 -53zM287 -104q0 -18 -7 -35t-18 -32t-25.5 -28t-29.5 -23h-51q26 16 44 37t31 47q-18 2 -27.5 14
t-9.5 28q0 20 13 32.5t33 12.5t33.5 -13.5t13.5 -39.5z" />
    <glyph glyph-name="uni0219" unicode="&#x219;" horiz-adv-x="461" 
d="M402 144q0 -75 -48 -114.5t-139 -39.5q-39 0 -71 6.5t-57.5 16.5t-45 22t-31.5 23l13 58q13 -12 32.5 -24.5t44 -22t54.5 -16t63 -6.5q68 0 95.5 26t27.5 64q0 25 -10 41.5t-27 27t-39 18t-47 14.5q-27 8 -54 18t-48.5 25.5t-34.5 39t-13 59.5q0 37 14 64.5t39.5 46.5
t60.5 28.5t77 9.5q62 0 102.5 -15.5t64.5 -31.5l-12 -58q-26 18 -63 33t-91 15q-62 0 -95.5 -21.5t-33.5 -64.5q0 -21 8.5 -35t23 -24t34 -16.5t42.5 -13.5q27 -8 56 -17t53 -25.5t39.5 -42.5t15.5 -68zM228 -104q0 -18 -7 -35t-18 -32t-25.5 -28t-29.5 -23h-51q26 16 44 37
t31 47q-18 2 -27.5 14t-9.5 28q0 20 13 32.5t33 12.5t33.5 -13.5t13.5 -39.5z" />
    <glyph glyph-name="uni021A" unicode="&#x21a;" horiz-adv-x="575" 
d="M406 655l-139 -655h-70l139 655h-230l14 62h529l-13 -62h-230zM260 -104q0 -18 -7 -35t-18 -32t-25.5 -28t-29.5 -23h-51q26 16 44 37t31 47q-18 2 -27.5 14t-9.5 28q0 20 13 32.5t33 12.5t33.5 -13.5t13.5 -39.5z" />
    <glyph glyph-name="uni021B" unicode="&#x21b;" horiz-adv-x="350" 
d="M249 2q-26 -12 -65 -12q-75 0 -102.5 43.5t-12.5 110.5l69 321h-65l12 54h65l23 109h65l-23 -109h147l-12 -54h-147l-70 -325q-10 -45 4.5 -69t58.5 -24q19 0 36 2.5t28 7.5l-11 -55v0zM178 -104q0 -18 -7 -35t-18 -32t-25.5 -28t-29.5 -23h-51q26 16 44 37t31 47
q-18 2 -27.5 14t-9.5 28q0 20 13 32.5t33 12.5t33.5 -13.5t13.5 -39.5z" />
    <glyph glyph-name="uni0237" unicode="&#x237;" horiz-adv-x="221" 
d="M84 -43q-7 -32 -18.5 -58.5t-29.5 -45.5t-43 -29.5t-60 -10.5q-25 0 -46.5 6t-36.5 16l12 55q11 -7 29 -13.5t44 -6.5q39 0 56.5 22.5t27.5 70.5l118 556h65z" />
    <glyph glyph-name="uni02BC" unicode="&#x2bc;" horiz-adv-x="230" 
d="M123 534q29 23 43.5 45t20.5 43q-17 4 -28.5 17.5t-11.5 31.5q0 20 13.5 34.5t36.5 14.5q22 0 37 -15t15 -43q0 -37 -22.5 -69.5t-51.5 -58.5h-52z" />
    <glyph glyph-name="circumflex" unicode="&#x2c6;" horiz-adv-x="449" 
d="M328 687l-117 -99h-56l141 148h76l80 -148h-56z" />
    <glyph glyph-name="caron" unicode="&#x2c7;" horiz-adv-x="449" 
d="M330 588h-75l-80 148h56l69 -100l115 100h57z" />
    <glyph glyph-name="breve" unicode="&#x2d8;" horiz-adv-x="449" 
d="M313 584q-36 0 -62 11.5t-42 30.5t-21 44t1 53h63q-9 -42 9.5 -65t55.5 -23q35 0 63 21.5t38 66.5h63q-6 -29 -19.5 -54t-34.5 -44t-49.5 -30t-64.5 -11z" />
    <glyph glyph-name="dotaccent" unicode="&#x2d9;" horiz-adv-x="449" 
d="M321 613q-21 0 -33.5 13.5t-12.5 32.5t12.5 32.5t33.5 13.5q22 0 34.5 -13.5t12.5 -32.5t-12.5 -32.5t-34.5 -13.5z" />
    <glyph glyph-name="ring" unicode="&#x2da;" horiz-adv-x="449" 
d="M330 571q-47 0 -78.5 30.5t-31.5 78.5t31.5 78.5t78.5 30.5q48 0 80 -30.5t32 -78.5t-32 -78.5t-80 -30.5zM330 615q28 0 47 18t19 47t-19 47.5t-47 18.5q-27 0 -45 -18.5t-18 -47.5t17.5 -47t45.5 -18z" />
    <glyph glyph-name="ogonek" unicode="&#x2db;" horiz-adv-x="449" 
d="M205 -192q-45 0 -70.5 22.5t-25.5 60.5q0 21 8.5 38.5t22 31t31 23.5t36.5 16h62q-20 -6 -38 -15t-31.5 -20.5t-22 -26t-8.5 -32.5q0 -23 15.5 -36t43.5 -13q13 0 23.5 2t21.5 6l-10 -46q-8 -4 -23 -7.5t-35 -3.5z" />
    <glyph glyph-name="tilde" unicode="&#x2dc;" horiz-adv-x="449" 
d="M153 601q0 22 6 43t18.5 37t31.5 25.5t45 9.5q25 0 43 -8.5t33.5 -19t30.5 -19t34 -8.5q24 0 34 15t12 44h49q0 -22 -5.5 -42.5t-16.5 -37t-29.5 -26.5t-44.5 -10q-24 0 -41.5 8.5t-33 19t-31 19t-36.5 8.5q-49 0 -50 -58h-49v0z" />
    <glyph glyph-name="hungarumlaut" unicode="&#x2dd;" horiz-adv-x="449" 
d="M174 588l90 158h76l-113 -158h-53zM330 588l91 158h76l-114 -158h-53z" />
    <glyph glyph-name="acutecomb" unicode="&#x301;" horiz-adv-x="0" 
d="M-85 746h90l-149 -158h-58z" />
    <glyph glyph-name="uni0401" unicode="&#x401;" horiz-adv-x="579" 
d="M542 827q0 -20 -11.5 -33.5t-33.5 -13.5q-21 0 -33.5 13.5t-12.5 33.5q0 19 12.5 32.5t33.5 13.5q22 0 33.5 -13.5t11.5 -32.5zM361 827q0 -20 -12 -33.5t-33 -13.5q-22 0 -34 13.5t-12 33.5q0 19 12 32.5t34 13.5q21 0 33 -13.5t12 -32.5zM183 717h431l-15 -62h-359
l-53 -249h308l-13 -61h-308l-61 -283h366l-13 -62h-436z" />
    <glyph glyph-name="uni0402" unicode="&#x402;" horiz-adv-x="791" 
d="M406 655l-53 -251q25 15 63 28q40 14 85 14q55 0 95.5 -16.5t67.5 -45.5t40.5 -69t13.5 -88q0 -74 -21 -138.5t-62.5 -112t-104 -75t-145.5 -27.5l12 63q63 0 109.5 23.5t77 63t46 92.5t15.5 112q0 34 -9 62.5t-27.5 49.5t-48 32.5t-69.5 11.5q-42 0 -80 -12t-72 -34
l-72 -338h-70l139 655h-230l14 62h529l-13 -62h-230z" />
    <glyph glyph-name="uni0403" unicode="&#x403;" horiz-adv-x="523" 
d="M460 909h98l-152 -136h-67zM183 717h394l-13 -62h-324l-140 -655h-70z" />
    <glyph glyph-name="uni0404" unicode="&#x404;" horiz-adv-x="653" 
d="M359 -10q-63 0 -119 18.5t-97.5 57.5t-65.5 99t-24 142q0 88 28 164.5t79.5 133t123.5 89t160 32.5q67 0 120.5 -17.5t84.5 -46.5l-15 -65q-36 34 -87.5 50.5t-107.5 16.5q-73 0 -131 -28t-98.5 -76.5t-62.5 -112.5q-8 -25 -13 -51h355l-13 -63h-350v-22
q0 -71 18.5 -120.5t51 -80t76 -44.5t93.5 -14q56 0 105 16t94 45l-14 -68q-30 -23 -80 -39t-111 -16z" />
    <glyph glyph-name="uni0405" unicode="&#x405;" horiz-adv-x="574" 
d="M267 -10q-53 0 -95 9.5t-74 23.5t-53 30t-32 30l13 63q15 -17 38 -33.5t54.5 -30t69.5 -22t83 -8.5q85 0 132.5 33.5t47.5 104.5q0 31 -10.5 53t-31 38t-49.5 28.5t-66 25.5q-33 12 -68 26t-63 35.5t-46 53.5t-18 81q0 91 66.5 143t183.5 52q78 0 129.5 -20.5t79.5 -43.5
l-13 -63q-37 29 -87 47t-110 18q-87 0 -134.5 -34.5t-47.5 -94.5q0 -32 13 -53t34 -36t48 -26t56 -21q35 -12 71 -26t65.5 -36.5t48.5 -56.5t19 -86q0 -98 -67 -151t-187 -53z" />
    <glyph glyph-name="uni0406" unicode="&#x406;" horiz-adv-x="241" 
d="M253 717l-153 -717h-70l153 717h70z" />
    <glyph glyph-name="uni0407" unicode="&#x407;" horiz-adv-x="244" 
d="M143 797q-20 0 -32.5 13t-12.5 31q0 20 12.5 33.5t32.5 13.5q22 0 34.5 -13.5t12.5 -33.5q0 -18 -12.5 -31t-34.5 -13zM327 797q-20 0 -33 13t-13 31q0 20 13 33.5t33 13.5q22 0 34.5 -13.5t12.5 -33.5q0 -18 -12.5 -31t-34.5 -13zM253 717l-153 -717h-70l153 717h70z
" />
    <glyph glyph-name="uni0408" unicode="&#x408;" horiz-adv-x="361" 
d="M372 717l-122 -575q-7 -31 -20.5 -58.5t-35.5 -48.5t-53 -33t-72 -12q-27 0 -51 5.5t-41 13.5l13 59q34 -16 78 -16q54 0 79.5 27.5t36.5 81.5l118 556h70z" />
    <glyph glyph-name="uni0409" unicode="&#x409;" horiz-adv-x="998" 
d="M951 235q0 -57 -20 -101t-55.5 -74t-83.5 -45t-103 -15h-244l139 655h-273q-35 -155 -63 -268.5t-54 -186.5q-17 -50 -36.5 -88t-46 -64.5t-61.5 -39.5t-84 -12l13 66q30 -1 53 9t40 29.5t31 47.5t26 63q27 77 59.5 203.5t70.5 302.5h408l-62 -293h130q48 0 88 -11.5
t68.5 -34.5t44 -59t15.5 -84zM592 363l-64 -303h171q39 0 72 11.5t56.5 33t37 53.5t13.5 73q0 70 -39.5 101t-111.5 31h-135z" />
    <glyph glyph-name="uni040A" unicode="&#x40a;" horiz-adv-x="1036" 
d="M989 235q0 -58 -20 -102t-55 -73.5t-82 -44.5t-102 -15h-248l78 364h-382l-78 -364h-70l153 717h70l-63 -293h383l63 293h69l-63 -293h137q47 0 85.5 -11.5t66.5 -34.5t43 -59t15 -84zM629 363l-64 -303h172q39 0 72 11.5t57 33t37.5 53.5t13.5 73q0 71 -39 101.5
t-108 30.5h-141z" />
    <glyph glyph-name="uni040B" unicode="&#x40b;" horiz-adv-x="797" 
d="M406 655l-53 -251q25 17 65 29q43 13 91 13q52 0 94.5 -14.5t70 -45.5t37.5 -79.5t-3 -115.5l-36 -191h-72l38 192q10 54 5 91t-24 59.5t-49.5 32t-70.5 9.5q-89 0 -160 -46l-72 -338h-70l139 655h-230l14 62h529l-13 -62h-230z" />
    <glyph glyph-name="uni040C" unicode="&#x40c;" horiz-adv-x="609" 
d="M266 332h-95l-71 -332h-70l153 717h70l-69 -324h94l315 324h81l-347 -357l212 -360h-77zM481 909h98l-152 -136h-67z" />
    <glyph glyph-name="uni040E" unicode="&#x40e;" horiz-adv-x="619" 
d="M344 168q-30 -47 -58.5 -81t-60 -55t-68 -29t-82.5 -3l12 62q59 -10 100.5 19t80.5 86l-138 550h72l116 -474l293 474h73zM405 758q-39 0 -67.5 11.5t-45.5 30.5t-23 44.5t0 52.5h63q-5 -21 -1.5 -37.5t14 -27.5t26.5 -17t36 -6q39 0 66 20.5t35 67.5h65
q-10 -60 -51.5 -99.5t-116.5 -39.5z" />
    <glyph glyph-name="uni040F" unicode="&#x40f;" horiz-adv-x="692" 
d="M550 0h-225l-36 -170h-64l29 170h-224l152 717h71l-140 -656h380l140 656h69z" />
    <glyph glyph-name="uni0410" unicode="&#x410;" horiz-adv-x="660" 
d="M378 717h97l110 -717h-69l-33 217h-325l-125 -217h-67zM473 279l-58 384l-221 -384h279z" />
    <glyph glyph-name="uni0411" unicode="&#x411;" horiz-adv-x="591" 
d="M183 717h403l-12 -62h-334l-51 -236h137q47 0 86 -11t66.5 -34t43 -57.5t15.5 -81.5q0 -56 -20.5 -100t-56.5 -74t-84.5 -45.5t-105.5 -15.5h-240zM176 357l-63 -297h172q39 0 72 11.5t56.5 33t37 53.5t13.5 73q0 68 -38.5 97t-107.5 29h-142z" />
    <glyph glyph-name="uni0412" unicode="&#x412;" horiz-adv-x="617" 
d="M183 717h186q100 0 154 -40t54 -125q0 -80 -46 -123.5t-120 -57.5q68 -12 108 -52t40 -114q0 -51 -19.5 -89t-55 -64t-84.5 -39t-108 -13h-262zM240 655l-55 -255h134q41 0 75.5 8.5t59.5 26.5t39 45.5t14 64.5q0 62 -39 86t-109 24h-119zM172 338l-59 -276h189
q86 0 135.5 35t49.5 109q0 69 -45 100.5t-129 31.5h-141z" />
    <glyph glyph-name="uni0413" unicode="&#x413;" horiz-adv-x="523" 
d="M183 717h394l-13 -62h-324l-140 -655h-70z" />
    <glyph glyph-name="uni0414" unicode="&#x414;" horiz-adv-x="722" 
d="M562 61h90l-50 -231h-63l28 170h-549l-45 -170h-62l49 231h68q43 28 73.5 77.5t57 128t52.5 189t59 261.5h432zM492 61l126 594h-296q-30 -132 -54 -230t-47 -168.5t-48 -118t-57 -77.5h376z" />
    <glyph glyph-name="uni0415" unicode="&#x415;" horiz-adv-x="579" 
d="M183 717h431l-15 -62h-359l-53 -249h308l-13 -61h-308l-61 -283h366l-13 -62h-436z" />
    <glyph glyph-name="uni0416" unicode="&#x416;" horiz-adv-x="917" 
d="M434 332h-71l-319 -332h-90l363 376l-178 341h75l166 -324h67l69 324h70l-69 -324h68l314 324h83l-347 -358l211 -359h-77l-196 332h-69l-70 -332h-70z" />
    <glyph glyph-name="uni0417" unicode="&#x417;" horiz-adv-x="581" 
d="M508 209q0 -48 -17 -88t-50 -69.5t-82 -45.5t-114 -16q-89 0 -145.5 25t-87.5 55l15 62q16 -16 36 -30.5t46.5 -25.5t60 -17.5t76.5 -6.5q56 0 93 13.5t58.5 36t30.5 51t9 58.5q-1 63 -39.5 95.5t-119.5 32.5h-101l14 62h108q88 0 132.5 39.5t44.5 98.5q0 64 -43.5 94.5
t-119.5 30.5q-54 0 -102 -11.5t-82 -29.5l15 64q27 14 72.5 26.5t105.5 12.5q49 0 90 -11.5t70.5 -34t46 -56t16.5 -77.5q0 -36 -12.5 -66.5t-34 -53.5t-50.5 -38t-62 -21q55 -14 88.5 -52t33.5 -107z" />
    <glyph glyph-name="uni0418" unicode="&#x418;" horiz-adv-x="731" 
d="M100 1v-1h-70l153 717h70l-132 -619l548 619h74l-152 -717h-71l131 616l-546 -616z" />
    <glyph glyph-name="uni0419" unicode="&#x419;" horiz-adv-x="731" 
d="M465 758q-39 0 -67.5 11.5t-45.5 30.5t-23.5 44.5t-0.5 52.5h63q-5 -21 -1.5 -37.5t14 -27.5t26.5 -17t36 -6q39 0 66 20.5t35 67.5h65q-10 -60 -51.5 -99.5t-115.5 -39.5zM100 1v-1h-70l153 717h70l-132 -619l548 619h74l-152 -717h-71l131 616l-546 -616z" />
    <glyph glyph-name="uni041A" unicode="&#x41a;" horiz-adv-x="609" 
d="M266 332h-95l-71 -332h-70l153 717h70l-69 -324h94l315 324h81l-347 -357l212 -360h-77z" />
    <glyph glyph-name="uni041B" unicode="&#x41b;" horiz-adv-x="665" 
d="M129 211q27 77 59.5 203.5t70.5 302.5h418l-152 -717h-70l139 655h-283q-35 -155 -63 -268.5t-54 -186.5q-17 -50 -36.5 -88t-46 -64.5t-61.5 -39.5t-84 -12l13 66q30 -1 53 9t40 29.5t31 47.5t26 63z" />
    <glyph glyph-name="uni041C" unicode="&#x41c;" horiz-adv-x="846" 
d="M767 614l-342 -505h-69l-129 515l-132 -624h-65l153 717h87l134 -538l362 538h92l-152 -717h-69z" />
    <glyph glyph-name="uni041D" unicode="&#x41d;" horiz-adv-x="707" 
d="M566 324h-397l-69 -324h-70l153 717h70l-71 -331h397l70 331h69l-152 -717h-69z" />
    <glyph glyph-name="uni041E" unicode="&#x41e;" horiz-adv-x="728" 
d="M350 -10q-68 0 -123 22t-93.5 63t-59.5 99.5t-21 131.5q0 93 28.5 170t77.5 132.5t114.5 86.5t139.5 31q68 0 123 -22t94 -62.5t60 -99.5t21 -132q0 -93 -28.5 -170t-77.5 -132.5t-115 -86.5t-140 -31zM126 304q0 -121 60.5 -186.5t166.5 -65.5q60 0 112 27t90.5 75
t60 114.5t21.5 144.5q0 121 -60 186t-166 65q-61 0 -113 -27t-90.5 -75t-60 -114t-21.5 -144z" />
    <glyph glyph-name="uni041F" unicode="&#x41f;" horiz-adv-x="691" 
d="M183 717h519l-152 -717h-70l140 655h-380l-140 -655h-70z" />
    <glyph glyph-name="uni0420" unicode="&#x420;" horiz-adv-x="593" 
d="M183 717h216q47 0 86 -11t66.5 -34t43 -58t15.5 -83q0 -57 -20.5 -101.5t-56.5 -75t-84.5 -46t-105.5 -15.5h-180l-63 -293h-70zM240 655l-64 -301h182q39 0 72 11.5t57 33.5t37.5 54t13.5 74q0 68 -39 98t-108 30h-151z" />
    <glyph glyph-name="uni0421" unicode="&#x421;" horiz-adv-x="653" 
d="M359 -10q-63 0 -119 18.5t-97.5 57.5t-65.5 99t-24 142q0 88 28 164.5t79.5 133t123.5 89t160 32.5q67 0 120.5 -17.5t84.5 -46.5l-15 -65q-36 34 -87.5 50.5t-107.5 16.5q-73 0 -131 -28t-98.5 -76.5t-62 -112.5t-21.5 -136q0 -71 18.5 -120.5t51 -80t76 -44.5t93.5 -14
q56 0 105 16t94 45l-14 -68q-30 -23 -80 -39t-111 -16z" />
    <glyph glyph-name="uni0422" unicode="&#x422;" horiz-adv-x="575" 
d="M406 655l-139 -655h-70l139 655h-230l14 62h529l-13 -62h-230z" />
    <glyph glyph-name="uni0423" unicode="&#x423;" horiz-adv-x="619" 
d="M344 168q-30 -47 -58.5 -81t-60 -55t-68 -29t-82.5 -3l12 62q59 -10 100.5 19t80.5 86l-138 550h72l116 -474l293 474h73l-340 -549v0z" />
    <glyph glyph-name="uni0424" unicode="&#x424;" horiz-adv-x="773" 
d="M756 389q0 -68 -27.5 -123.5t-77 -95t-118.5 -61.5t-152 -23l-20 -96h-69l20 97q-53 3 -99.5 20t-81.5 47t-55.5 74t-20.5 102q0 67 27.5 122.5t77 95.5t118 62t150.5 23l20 92h69l-20 -92q53 -4 100 -21t82.5 -47.5t56 -74.5t20.5 -101zM126 334q0 -49 16.5 -83.5
t44.5 -57t64 -34.5t74 -15l91 432q-64 -2 -117 -19t-91.5 -48t-60 -75.5t-21.5 -99.5zM685 385q0 49 -17 83.5t-44.5 57t-63.5 34t-75 14.5l-92 -431q64 1 118 18.5t92.5 48.5t60 75t21.5 100z" />
    <glyph glyph-name="uni0425" unicode="&#x425;" horiz-adv-x="617" 
d="M319 317l-273 -317h-81l328 376l-153 341h74l135 -297l253 297h80l-309 -355l165 -362h-75z" />
    <glyph glyph-name="uni0426" unicode="&#x426;" horiz-adv-x="723" 
d="M563 61h91l-49 -231h-64l27 170h-538l153 717h70l-140 -656h380l140 656h69z" />
    <glyph glyph-name="uni0427" unicode="&#x427;" horiz-adv-x="651" 
d="M510 0h-70l67 315q-42 -22 -87.5 -33.5t-99.5 -11.5q-53 0 -94.5 16t-67.5 48.5t-35 80.5t5 112l41 190h69l-40 -190q-22 -102 15 -149t115 -47q56 0 103 13t90 39l71 334h70z" />
    <glyph glyph-name="uni0428" unicode="&#x428;" horiz-adv-x="923" 
d="M782 0h-752l153 717h70l-140 -656h270l140 656h71l-139 -656h271l139 656h69z" />
    <glyph glyph-name="uni0429" unicode="&#x429;" horiz-adv-x="955" 
d="M795 61h89l-49 -231h-63l27 170h-769l153 717h70l-140 -656h270l140 656h71l-139 -656h271l139 656h69z" />
    <glyph glyph-name="uni042A" unicode="&#x42a;" horiz-adv-x="702" 
d="M121 717h250l-63 -293h131q48 0 88 -11.5t68.5 -34.5t44 -59t15.5 -84q0 -57 -20 -101t-55.5 -74t-83 -45t-102.5 -15h-246l140 655h-180zM295 363l-64 -303h172q39 0 72 11.5t56.5 33t37 53.5t13.5 73q0 70 -39.5 101t-111.5 31h-136z" />
    <glyph glyph-name="uni042B" unicode="&#x42b;" horiz-adv-x="799" 
d="M537 235q0 -57 -20 -101t-55.5 -74t-83 -45t-102.5 -15h-246l153 717h70l-63 -293h131q48 0 88 -11.5t68.5 -34.5t44 -59t15.5 -84zM177 363l-64 -303h172q39 0 72 11.5t56.5 33t37 53.5t13.5 73q0 70 -39.5 101t-111.5 31h-136zM813 717l-153 -717h-70l153 717h70z" />
    <glyph glyph-name="uni042C" unicode="&#x42c;" horiz-adv-x="584" 
d="M537 235q0 -57 -20 -101t-55.5 -74t-83 -45t-102.5 -15h-246l153 717h70l-63 -293h131q48 0 88 -11.5t68.5 -34.5t44 -59t15.5 -84zM177 363l-64 -303h172q39 0 72 11.5t56.5 33t37 53.5t13.5 73q0 70 -39.5 101t-111.5 31h-136z" />
    <glyph glyph-name="uni042D" unicode="&#x42d;" horiz-adv-x="645" 
d="M627 405q-1 -86 -27 -161.5t-76 -132t-122.5 -89t-165.5 -32.5q-74 0 -130.5 18t-89.5 47l15 64q38 -33 93 -50t117 -17q69 0 122.5 22t92 60.5t61.5 90.5t32 111h-362l14 59h353v6q0 72 -18.5 122.5t-51.5 81.5t-78 45t-97 14q-109 0 -200 -61l15 69q32 24 80.5 39
t112.5 15q66 0 122.5 -19t98.5 -58t66 -99.5t23 -144.5z" />
    <glyph glyph-name="uni042E" unicode="&#x42e;" horiz-adv-x="954" 
d="M937 410q0 -93 -28 -170t-76 -132.5t-112.5 -86.5t-137.5 -31q-67 0 -120.5 22t-91.5 63t-58.5 99.5t-20.5 131.5v19h-123l-69 -325h-70l153 717h70l-71 -331h116q11 76 42.5 139t77.5 107.5t104 69t123 24.5q67 0 121 -22t92 -62.5t58.5 -99.5t20.5 -132zM365 304
q0 -121 58.5 -186.5t161.5 -65.5q59 0 109.5 27t88 75t59 114.5t21.5 144.5q0 121 -58.5 186t-161.5 65q-59 0 -109.5 -27t-88 -75t-59 -114t-21.5 -144z" />
    <glyph glyph-name="uni042F" unicode="&#x42f;" horiz-adv-x="627" 
d="M130 491q0 54 19.5 96t55.5 71t87 44t113 15h234l-153 -717h-70l63 298h-103q-25 0 -49 3l-260 -301h-84l275 315q-128 43 -128 176zM492 359l63 296h-158q-91 0 -143.5 -41.5t-52.5 -119.5q0 -70 43 -102.5t123 -32.5h125z" />
    <glyph glyph-name="uni0430" unicode="&#x430;" horiz-adv-x="515" 
d="M337 0q-1 15 0.5 43.5t9.5 62.5q-12 -21 -28 -42t-38 -37.5t-49 -26.5t-61 -10q-29 0 -56 8.5t-48 26t-34 45t-13 65.5q0 80 60.5 126t178.5 46h130l3 16q9 41 3 69.5t-24 46t-46 25.5t-63 8q-49 0 -88 -11t-71 -28l11 57q27 16 67 27.5t95 11.5q48 0 86.5 -12
t63.5 -37.5t33.5 -66.5t-4.5 -98l-48 -224q-5 -21 -8 -48.5t-2 -42.5h-60zM183 44q36 0 66 14.5t52.5 36t37.5 45.5t23 43l15 73h-123q-89 0 -129 -32t-40 -85q0 -48 27.5 -71.5t70.5 -23.5z" />
    <glyph glyph-name="uni0431" unicode="&#x431;" horiz-adv-x="567" 
d="M537 310q0 -70 -21.5 -128.5t-59 -101t-88 -66.5t-109.5 -24q-48 0 -87.5 14.5t-68 43.5t-44 72.5t-15.5 101.5q0 63 9.5 130.5t32.5 129.5t63 113.5t100 82.5q34 18 65.5 27t60.5 12.5t55.5 4t52.5 1.5q41 2 65 7.5t42 16.5l-12 -61q-19 -11 -41.5 -14.5t-59.5 -5.5
q-26 -2 -50 -2.5t-49 -3.5t-51.5 -11.5t-56.5 -24.5q-60 -31 -98.5 -94t-64.5 -163q35 79 94 118t137 39q42 0 78.5 -13t63.5 -39t42 -66.5t15 -95.5zM108 215q0 -81 43 -124.5t110 -43.5q44 0 82 18.5t66 52t44 80.5t16 104q0 85 -39.5 125.5t-104.5 40.5q-44 0 -83.5 -18
t-69 -51.5t-47 -80t-17.5 -103.5z" />
    <glyph glyph-name="uni0432" unicode="&#x432;" horiz-adv-x="507" 
d="M130 519h167q74 0 116 -27t42 -90q0 -55 -30 -87t-80 -44q38 -8 65.5 -35.5t27.5 -81.5q0 -81 -59 -117.5t-158 -36.5h-201zM184 465l-36 -170h112q55 0 92 25t37 74q0 39 -26.5 55t-74.5 16h-104zM137 244l-40 -189h139q66 0 100.5 25t34.5 76q0 50 -32.5 69t-87.5 19
h-114z" />
    <glyph glyph-name="uni0433" unicode="&#x433;" horiz-adv-x="443" 
d="M203 -10q-31 0 -62 7.5t-56.5 24t-41.5 43.5t-16 66q0 47 19 76t49 46.5t66.5 26.5t71.5 16q26 5 48 11t38.5 16.5t25.5 27.5t9 44q0 22 -8.5 37t-23.5 24t-35.5 13t-45.5 4q-44 0 -77 -10t-58 -23l10 59q20 11 51.5 20.5t79.5 9.5q86 0 129.5 -34.5t43.5 -95.5
q0 -42 -16 -70t-42.5 -46t-59.5 -28t-66 -16q-30 -6 -56 -13t-45 -18.5t-30 -29t-11 -45.5q0 -23 9.5 -39.5t25.5 -27t38 -15.5t46 -5q30 0 54.5 5.5t44 13t34 16t25.5 15.5l-12 -64q-9 -6 -21.5 -13t-31 -13.5t-43.5 -11t-60 -4.5z" />
    <glyph glyph-name="uni0434" unicode="&#x434;" horiz-adv-x="575" 
d="M526 425q0 -214 -72 -324.5t-204 -110.5q-50 0 -90 16.5t-68.5 47t-44 73.5t-15.5 97q0 58 18.5 108.5t52.5 88t82 59t106 21.5q67 0 110.5 -30t63.5 -83q4 73 -7 126t-34.5 86.5t-60 49.5t-83.5 16q-24 0 -46 -3t-40.5 -7.5t-31.5 -9t-18 -7.5l13 58q11 6 45 17.5
t81 11.5q123 0 183 -73t60 -228zM443 283q0 82 -43.5 122t-109.5 40q-43 0 -78.5 -16.5t-60.5 -46t-38.5 -69.5t-13.5 -87q0 -90 43 -134.5t111 -44.5q43 0 78 17.5t60 49t38.5 75t13.5 94.5z" />
    <glyph glyph-name="uni0435" unicode="&#x435;" horiz-adv-x="534" 
d="M430 25q-20 -11 -58 -23t-95 -12q-116 0 -180.5 60.5t-64.5 175.5q0 70 21.5 126.5t58 95.5t85.5 60t104 21q54 0 96.5 -20t67.5 -56.5t29.5 -89t-17.5 -117.5h-378v-19q0 -88 46.5 -134t136.5 -46q49 0 91.5 11.5t68.5 24.5zM295 472q-70 0 -120.5 -44.5t-67.5 -125.5
h322q9 43 1.5 75t-26.5 53t-47.5 31.5t-61.5 10.5z" />
    <glyph glyph-name="uni0436" unicode="&#x436;" horiz-adv-x="730" 
d="M329 232h-58l-224 -232h-82l265 273l-146 246h67l135 -230h55l49 230h66l-49 -230h58l220 230h77l-254 -264l143 -255h-71l-130 232h-55l-50 -232h-65z" />
    <glyph glyph-name="uni0437" unicode="&#x437;" horiz-adv-x="452" 
d="M379 149q0 -33 -12 -62t-36 -50.5t-61.5 -34t-88.5 -12.5q-63 0 -108 17t-70 40l11 57q26 -23 68.5 -40t98.5 -17q71 0 102.5 28.5t31.5 77.5q-1 47 -28.5 67.5t-85.5 20.5h-70l11 54h79q64 0 94 27t30 67q0 42 -32.5 62.5t-92.5 21.5q-35 0 -70 -7.5t-61 -21.5l11 57
q23 11 57.5 19.5t75.5 8.5q78 0 124.5 -34t46.5 -101q0 -54 -29.5 -87t-78.5 -41q37 -11 60 -39.5t23 -77.5z" />
    <glyph glyph-name="uni0438" unicode="&#x438;" horiz-adv-x="552" 
d="M217 47q33 0 59.5 10t47.5 27.5t37.5 39.5t30.5 46l75 349h65l-110 -519h-58l17 105h-2q-14 -23 -31 -44t-39 -37t-49.5 -25t-61.5 -9q-82 0 -122 52t-21 144l71 333h65l-70 -330q-8 -38 -3.5 -64.5t18 -44t34.5 -25.5t47 -8z" />
    <glyph glyph-name="uni0439" unicode="&#x439;" horiz-adv-x="552" 
d="M339 580q-36 0 -61.5 10.5t-41.5 28t-21.5 41t-2.5 49.5h61q-6 -40 13 -59.5t55 -19.5q35 0 59 17.5t32 61.5h62q-9 -57 -47.5 -93t-107.5 -36zM217 47q33 0 59.5 10t47.5 27.5t37.5 39.5t30.5 46l75 349h65l-110 -519h-58l17 105h-2q-14 -23 -31 -44t-39 -37t-49.5 -25
t-61.5 -9q-82 0 -122 52t-21 144l71 333h65l-70 -330q-8 -38 -3.5 -64.5t18 -44t34.5 -25.5t47 -8z" />
    <glyph glyph-name="uni043A" unicode="&#x43a;" horiz-adv-x="487" 
d="M192 236h-57l-50 -236h-65l110 519h65l-49 -229h58l234 229h78l-268 -260l156 -259h-72z" />
    <glyph glyph-name="uni043B" unicode="&#x43b;" horiz-adv-x="533" 
d="M-13 64q35 -4 61 21t48.5 81t44 143.5t47.5 209.5h325l-110 -519h-65l99 465h-199q-25 -116 -48.5 -205t-53 -148t-68.5 -88t-95 -25l14 65v0z" />
    <glyph glyph-name="uni043C" unicode="&#x43c;" horiz-adv-x="689" 
d="M589 443l-265 -379h-51l-97 380l-94 -444h-62l110 519h89l96 -378l264 378h92l-111 -519h-65z" />
    <glyph glyph-name="uni043D" unicode="&#x43d;" horiz-adv-x="558" 
d="M414 242h-278l-51 -242h-65l110 519h65l-47 -223h278l47 223h65l-110 -519h-65z" />
    <glyph glyph-name="uni043E" unicode="&#x43e;" horiz-adv-x="547" 
d="M250 -10q-50 0 -90 16.5t-68.5 47t-44 73.5t-15.5 97q0 63 19 119t54 97t83.5 65t108.5 24q49 0 89.5 -16.5t69.5 -47t44.5 -73.5t15.5 -97q0 -63 -19 -119t-54 -97t-84 -65t-109 -24zM99 226q0 -90 43 -134.5t111 -44.5q44 0 80 18.5t61.5 51t39.5 77.5t14 98
q0 91 -43.5 135.5t-109.5 44.5q-44 0 -80.5 -18.5t-62 -51.5t-39.5 -78t-14 -98z" />
    <glyph glyph-name="uni043F" unicode="&#x43f;" horiz-adv-x="564" 
d="M342 472q-34 0 -61.5 -10t-49.5 -26.5t-39.5 -39t-32.5 -47.5l-74 -349h-65l110 519h61l-20 -103h2q30 48 76 80.5t117 32.5q85 0 124 -53t18 -150l-69 -326h-65l69 327q9 40 5 67.5t-18 44.5t-36.5 25t-51.5 8z" />
    <glyph glyph-name="uni0440" unicode="&#x440;" horiz-adv-x="588" 
d="M294 -10q-67 0 -116 32t-68 94l-63 -293h-65l148 696h58l-13 -80q31 41 75 65.5t101 24.5q96 0 150.5 -62.5t54.5 -170.5q0 -63 -18.5 -118.5t-53 -97.5t-82.5 -66t-108 -24zM139 219q0 -45 12 -77.5t33 -53.5t48.5 -31t59.5 -10q47 0 84 21t62 55.5t38 79.5t13 94
q0 89 -42.5 132t-108.5 43q-46 0 -82.5 -20t-62.5 -54.5t-40 -80.5t-14 -98z" />
    <glyph glyph-name="uni0441" unicode="&#x441;" horiz-adv-x="484" 
d="M267 -10q-50 0 -93 14t-74.5 43.5t-49.5 74t-18 105.5q0 66 20.5 121.5t57.5 95.5t89 62.5t115 22.5q48 0 84.5 -11t62.5 -31l-13 -56q-63 41 -136 41q-52 0 -92 -18.5t-67 -51t-40.5 -76.5t-13.5 -95q0 -93 48 -138.5t129 -45.5q32 0 66 7.5t66 22.5l-12 -60
q-57 -27 -129 -27z" />
    <glyph glyph-name="uni0442" unicode="&#x442;" horiz-adv-x="868" 
d="M85 0h-65l110 519h61l-20 -103h2q29 48 72 80.5t107 32.5q61 0 97.5 -33t40.5 -96q30 55 77 92t116 37q77 0 114 -51.5t17 -150.5l-70 -327h-65l69 328q9 40 5 67.5t-16.5 44.5t-33 24.5t-45.5 7.5q-29 0 -53.5 -9t-45.5 -25.5t-38 -38.5t-32 -48l-75 -351h-65l70 328
q9 40 5.5 67.5t-16.5 44.5t-33.5 24.5t-46.5 7.5q-31 0 -56 -10t-45.5 -26.5t-37 -39t-30.5 -47.5z" />
    <glyph glyph-name="uni0443" unicode="&#x443;" horiz-adv-x="501" 
d="M241 6q-27 -47 -52.5 -83t-52.5 -60.5t-57.5 -37t-67.5 -12.5q-15 0 -28.5 2t-24.5 7l13 58q9 -5 22.5 -7.5t28.5 -2.5q40 0 69 26.5t66 82.5l-91 540h69l73 -457l263 457h67l-297 -513v0z" />
    <glyph glyph-name="uni0444" unicode="&#x444;" horiz-adv-x="690" 
d="M660 288q0 -65 -25.5 -119.5t-71 -93.5t-107.5 -61t-135 -22l-36 -169h-64l36 169q-42 3 -82.5 19t-73 45.5t-52 72.5t-19.5 100q0 65 26 119.5t71.5 94.5t108 62t135.5 22l42 200h65l-43 -201q42 -3 82.5 -19.5t72 -46t51 -72.5t19.5 -100zM97 234q0 -47 15.5 -80.5
t40 -56t55 -34.5t61.5 -15l90 424q-54 -1 -101.5 -18t-83.5 -48t-56.5 -74.5t-20.5 -97.5zM593 285q0 46 -15 80t-39.5 56.5t-55 34.5t-60.5 15l-90 -424q53 1 100.5 18t83 48t56 74.5t20.5 97.5z" />
    <glyph glyph-name="uni0445" unicode="&#x445;" horiz-adv-x="475" 
d="M228 218l-189 -218h-75l239 271l-114 248h70l94 -203l172 203h75l-221 -254l124 -265h-71z" />
    <glyph glyph-name="uni0446" unicode="&#x446;" horiz-adv-x="578" 
d="M217 47q33 0 59.5 10t47.5 27.5t37.5 39.5t30.5 46l75 349h65l-99 -465h86l-43 -202h-56l23 148h-79l17 105h-2q-14 -23 -31 -44t-39 -37t-49.5 -25t-61.5 -9q-82 0 -122 52t-21 144l71 333h65l-70 -330q-8 -38 -3.5 -64.5t18 -44t34.5 -25.5t47 -8z" />
    <glyph glyph-name="uni0447" unicode="&#x447;" horiz-adv-x="509" 
d="M379 0h-66l49 227q-29 -17 -63.5 -26.5t-71.5 -9.5q-89 0 -128 46.5t-18 142.5l30 139h64l-29 -143q-8 -36 -4.5 -60.5t15.5 -40t31.5 -22t44.5 -6.5q35 0 71.5 8t69.5 29l50 235h64z" />
    <glyph glyph-name="uni0448" unicode="&#x448;" horiz-adv-x="869" 
d="M689 104q-29 -49 -72 -81.5t-107 -32.5q-61 0 -97 33t-41 96q-29 -55 -76 -92t-116 -37q-77 0 -114.5 51.5t-17.5 150.5l70 327h66l-70 -328q-9 -40 -5.5 -67.5t16.5 -45t33.5 -25t45.5 -7.5q29 0 54 9.5t45.5 25.5t38 38t31.5 47l75 353h65l-70 -328q-9 -40 -5 -67.5
t16.5 -45t33 -25t46.5 -7.5q31 0 56 10t45 27t36.5 39.5t30.5 47.5l76 349h64l-110 -519h-62l21 104h-2v0z" />
    <glyph glyph-name="uni0449" unicode="&#x449;" horiz-adv-x="888" 
d="M689 104q-29 -49 -72 -81.5t-107 -32.5q-61 0 -97 33t-41 96q-29 -55 -76 -92t-116 -37q-77 0 -114.5 51.5t-17.5 150.5l70 327h66l-70 -328q-9 -40 -5.5 -67.5t16.5 -45t33.5 -25t45.5 -7.5q29 0 54 9.5t45.5 25.5t38 38t31.5 47l75 353h65l-70 -328q-9 -40 -5 -67.5
t16.5 -45t33 -25t46.5 -7.5q31 0 56 10t45 27t36.5 39.5t30.5 47.5l76 349h64l-99 -465h86l-43 -202h-57l23 148h-82l21 104h-2z" />
    <glyph glyph-name="uni044A" unicode="&#x44a;" horiz-adv-x="545" 
d="M490 185q0 -45 -17 -79.5t-46.5 -58t-70 -35.5t-87.5 -12h-174l98 465h-135l11 54h201l-40 -190h90q78 0 124 -35t46 -109zM218 275l-47 -221h110q63 0 102 32t39 92q0 52 -29.5 74.5t-83.5 22.5h-91z" />
    <glyph glyph-name="uni044B" unicode="&#x44b;" horiz-adv-x="652" 
d="M523 0h-65l110 519h65zM415 185q0 -45 -17 -79.5t-46.5 -58t-70 -35.5t-87.5 -12h-174l110 519h65l-40 -190h90q78 0 124 -35t46 -109zM143 275l-47 -221h110q63 0 102 32t39 92q0 52 -29.5 74.5t-83.5 22.5h-91z" />
    <glyph glyph-name="uni044C" unicode="&#x44c;" horiz-adv-x="470" 
d="M415 185q0 -45 -17 -79.5t-46.5 -58t-70 -35.5t-87.5 -12h-174l110 519h65l-40 -190h90q78 0 124 -35t46 -109zM143 275l-47 -221h110q63 0 102 32t39 92q0 52 -29.5 74.5t-83.5 22.5h-91z" />
    <glyph glyph-name="uni044D" unicode="&#x44d;" horiz-adv-x="473" 
d="M441 291q0 -66 -21 -121.5t-58.5 -95t-90 -62t-115.5 -22.5q-46 0 -83.5 11t-63.5 31l13 57q32 -22 65.5 -32t71.5 -10q46 0 82.5 14t63.5 39.5t43.5 61t22.5 78.5h-248l13 54h238q-3 178 -171 178q-35 0 -64 -7t-59 -21l13 59q54 26 118 26q50 0 92 -14.5t73 -43.5
t48 -74t17 -106z" />
    <glyph glyph-name="uni044E" unicode="&#x44e;" horiz-adv-x="747" 
d="M713 295q0 -63 -19 -119t-53.5 -97t-83 -65t-107.5 -24q-48 0 -88 16.5t-68 47t-43.5 73.5t-15.5 97v17h-99l-51 -241h-65l110 519h65l-47 -221h94q10 50 32 92.5t55 73t75.5 48t92.5 17.5q49 0 88.5 -16.5t68 -47t44 -73.5t15.5 -97zM302 226q0 -45 11.5 -78.5t31.5 -56
t47.5 -33.5t60.5 -11q43 0 78.5 18.5t61 51t39.5 77.5t14 98q0 46 -11.5 79.5t-31.5 56t-47.5 33.5t-60.5 11q-44 0 -79.5 -18.5t-60.5 -51.5t-39 -78t-14 -98z" />
    <glyph glyph-name="uni044F" unicode="&#x44f;" horiz-adv-x="500" 
d="M84 348q0 42 16 74t44 53.5t67 32.5t86 11h184l-110 -519h-65l44 206h-97l-179 -206h-77l191 217q-49 14 -76.5 46.5t-27.5 84.5zM362 260l43 205h-116q-61 0 -99.5 -28t-38.5 -85q0 -48 30.5 -70t84.5 -22h96z" />
    <glyph glyph-name="uni0451" unicode="&#x451;" horiz-adv-x="534" 
d="M397 629q-21 0 -33.5 13.5t-12.5 32.5t12.5 32.5t33.5 13.5q22 0 34 -13.5t12 -32.5t-12 -32.5t-34 -13.5zM217 629q-21 0 -33.5 13.5t-12.5 32.5t12.5 32.5t33.5 13.5q22 0 34 -13.5t12 -32.5t-12 -32.5t-34 -13.5zM430 25q-20 -11 -58 -23t-95 -12q-116 0 -180.5 60.5
t-64.5 175.5q0 70 21.5 126.5t58 95.5t85.5 60t104 21q54 0 96.5 -20t67.5 -56.5t29.5 -89t-17.5 -117.5h-378v-19q0 -88 46.5 -134t136.5 -46q49 0 91.5 11.5t68.5 24.5zM295 472q-70 0 -120.5 -44.5t-67.5 -125.5h322q9 43 1.5 75t-26.5 53t-47.5 31.5t-61.5 10.5z" />
    <glyph glyph-name="uni0452" unicode="&#x452;" horiz-adv-x="571" 
d="M429 -43q-7 -32 -18 -58.5t-29 -45.5t-43 -29.5t-60 -10.5q-25 0 -46.5 6t-36.5 16l12 55q11 -7 29 -13.5t44 -6.5q39 0 56 22.5t28 70.5l78 364q8 40 4 67.5t-17.5 44.5t-36 25t-51.5 8q-34 0 -61.5 -10t-49.5 -26.5t-39.5 -39t-32.5 -47.5l-74 -349h-65l124 584h-100
l10 50h100l18 83h65l-18 -83h153l-9 -50h-154l-15 -69l-23 -99h2q30 48 76 80.5t117 32.5q85 0 124 -53t18 -150l-79 -369v0z" />
    <glyph glyph-name="uni0453" unicode="&#x453;" horiz-adv-x="443" 
d="M203 -10q-31 0 -62 7.5t-56.5 24t-41.5 43.5t-16 66q0 47 19 76t49 46.5t66.5 26.5t71.5 16q26 5 48 11t38.5 16.5t25.5 27.5t9 44q0 22 -8.5 37t-23.5 24t-35.5 13t-45.5 4q-44 0 -77 -10t-58 -23l10 59q20 11 51.5 20.5t79.5 9.5q86 0 129.5 -34.5t43.5 -95.5
q0 -42 -16 -70t-42.5 -46t-59.5 -28t-66 -16q-30 -6 -56 -13t-45 -18.5t-30 -29t-11 -45.5q0 -23 9.5 -39.5t25.5 -27t38 -15.5t46 -5q30 0 54.5 5.5t44 13t34 16t25.5 15.5l-12 -64q-9 -6 -21.5 -13t-31 -13.5t-43.5 -11t-60 -4.5zM373 746h90l-149 -158h-58z" />
    <glyph glyph-name="uni0454" unicode="&#x454;" horiz-adv-x="484" 
d="M396 17q-57 -27 -129 -27q-50 0 -93 14t-74.5 43.5t-49.5 74t-18 105.5q0 66 20.5 121.5t57.5 95.5t89 62.5t115 22.5q48 0 84.5 -11t62.5 -31l-13 -56q-63 41 -136 41q-44 0 -78.5 -13t-61 -36.5t-43.5 -56t-24 -71.5h252l-12 -57h-246v-7q0 -93 48 -138.5t129 -45.5
q32 0 66 7.5t66 22.5l-12 -60v0z" />
    <glyph glyph-name="uni0455" unicode="&#x455;" horiz-adv-x="461" 
d="M402 144q0 -75 -48 -114.5t-139 -39.5q-39 0 -71 6.5t-57.5 16.5t-45 22t-31.5 23l13 58q13 -12 32.5 -24.5t44 -22t54.5 -16t63 -6.5q68 0 95.5 26t27.5 64q0 25 -10 41.5t-27 27t-39 18t-47 14.5q-27 8 -54 18t-48.5 25.5t-34.5 39t-13 59.5q0 37 14 64.5t39.5 46.5
t60.5 28.5t77 9.5q62 0 102.5 -15.5t64.5 -31.5l-12 -58q-26 18 -63 33t-91 15q-62 0 -95.5 -21.5t-33.5 -64.5q0 -21 8.5 -35t23 -24t34 -16.5t42.5 -13.5q27 -8 56 -17t53 -25.5t39.5 -42.5t15.5 -68z" />
    <glyph glyph-name="uni0456" unicode="&#x456;" horiz-adv-x="214" 
d="M185 613q-20 0 -33 14t-13 32q0 19 13 33t33 14t33.5 -14t13.5 -33q0 -18 -13.5 -32t-33.5 -14zM195 519l-110 -519h-65l110 519h65z" />
    <glyph glyph-name="uni0457" unicode="&#x457;" horiz-adv-x="219" 
d="M250 616q-22 0 -34 14t-12 32q0 20 12 33t34 13q21 0 33.5 -13t12.5 -33q0 -18 -12.5 -32t-33.5 -14zM119 616q-21 0 -34 14t-13 32q0 20 13 33t34 13t33 -13t12 -33q0 -18 -12 -32t-33 -14zM195 519l-110 -519h-65l110 519h65z" />
    <glyph glyph-name="uni0458" unicode="&#x458;" horiz-adv-x="224" 
d="M192 613q-20 0 -33 14t-13 32q0 19 13 33t33 14t33.5 -14t13.5 -33q0 -18 -13.5 -32t-33.5 -14zM84 -43q-7 -32 -18.5 -58.5t-29.5 -45.5t-43 -29.5t-60 -10.5q-25 0 -46.5 6t-36.5 16l12 55q11 -7 29 -13.5t44 -6.5q39 0 56.5 22.5t27.5 70.5l118 556h65z" />
    <glyph glyph-name="uni0459" unicode="&#x459;" horiz-adv-x="781" 
d="M726 185q0 -45 -17 -79.5t-46.5 -58t-70 -35.5t-87.5 -12h-174l99 465h-192q-25 -116 -48.5 -205t-53 -148t-68.5 -88t-95 -25l14 65q35 -4 61 21t48.5 81t44 143.5t47.5 209.5h319l-41 -190h89q79 0 125 -35t46 -109zM455 275l-47 -221h108q63 0 102.5 32t39.5 92
q0 52 -29.5 74.5t-84.5 22.5h-89z" />
    <glyph glyph-name="uni045A" unicode="&#x45a;" horiz-adv-x="802" 
d="M748 177q0 -43 -16.5 -76t-46 -55.5t-70 -34t-88.5 -11.5h-174l55 261h-268l-55 -261h-65l110 519h65l-43 -204h267l43 204h66l-43 -204h92q79 0 125 -34t46 -104zM473 260l-44 -206h109q63 0 102.5 30t39.5 86q0 48 -29.5 69t-84.5 21h-93z" />
    <glyph glyph-name="uni045B" unicode="&#x45b;" horiz-adv-x="571" 
d="M342 472q-34 0 -61.5 -10t-49.5 -26.5t-39.5 -39t-32.5 -47.5l-74 -349h-65l124 584h-100l10 50h100l18 83h65l-18 -83h153l-9 -50h-155l-14 -69l-23 -99h2q30 48 76 80.5t117 32.5q85 0 124 -53t18 -150l-69 -326h-65l69 327q9 40 5 67.5t-18 44.5t-36.5 25t-51.5 8z
" />
    <glyph glyph-name="uni045C" unicode="&#x45c;" horiz-adv-x="487" 
d="M192 236h-57l-50 -236h-65l110 519h65l-49 -229h58l234 229h78l-268 -260l156 -259h-72zM390 746h90l-149 -158h-58z" />
    <glyph glyph-name="uni045E" unicode="&#x45e;" horiz-adv-x="501" 
d="M241 6q-27 -47 -52.5 -83t-52.5 -60.5t-57.5 -37t-67.5 -12.5q-15 0 -28.5 2t-24.5 7l13 58q9 -5 22.5 -7.5t28.5 -2.5q40 0 69 26.5t66 82.5l-91 540h69l73 -457l263 457h67zM303 580q-36 0 -61.5 10.5t-41.5 28t-21.5 41t-2.5 49.5h61q-6 -40 13 -59.5t55 -19.5
q35 0 59.5 17.5t31.5 61.5h62q-9 -57 -47.5 -93t-107.5 -36z" />
    <glyph glyph-name="uni045F" unicode="&#x45f;" horiz-adv-x="557" 
d="M217 47q33 0 59.5 10t47.5 27.5t37.5 39.5t30.5 46l75 349h65l-110 -519h-58l17 105h-2l-14 -22l-26 -38q-20 -29 -37.5 -59.5t-30 -63.5t-16.5 -70h-62q4 38 17.5 68.5t32.5 57.5q8 11 16 21q-27 -9 -61 -9q-82 0 -122 52t-21 144l71 333h65l-70 -330q-8 -38 -3.5 -64.5
t18 -44t34.5 -25.5t47 -8z" />
    <glyph glyph-name="uni0490" unicode="&#x490;" horiz-adv-x="528" 
d="M183 717h323l36 170h65l-38 -232h-329l-140 -655h-70z" />
    <glyph glyph-name="uni0491" unicode="&#x491;" horiz-adv-x="405" 
d="M122 519h235l38 148h57l-30 -148h1l-12 -57h-234l-90 -462h-67z" />
    <glyph glyph-name="uni0492" unicode="&#x492;" horiz-adv-x="561" 
d="M27 387h124l71 330h394l-13 -62h-324l-58 -268h184l-10 -57h-186l-70 -330h-70l70 330h-123z" />
    <glyph glyph-name="uni0493" unicode="&#x493;" horiz-adv-x="447" 
d="M119 288l45 231h301l-11 -57h-235l-34 -174h156l-9 -50h-157l-46 -238h-66l46 238h-84l9 50h85z" />
    <glyph glyph-name="uni049A" unicode="&#x49a;" horiz-adv-x="634" 
d="M266 332h-95l-71 -332h-70l153 717h70l-69 -324h94l315 324h81l-347 -357l176 -299h67l-48 -231h-65l28 170h-23z" />
    <glyph glyph-name="uni049B" unicode="&#x49b;" horiz-adv-x="500" 
d="M192 236h-57l-50 -236h-65l110 519h65l-49 -229h58l234 229h78l-268 -260l123 -205h64l-43 -202h-56l23 148h-27z" />
    <glyph glyph-name="uni04A2" unicode="&#x4a2;" horiz-adv-x="739" 
d="M566 324h-397l-69 -324h-70l153 717h70l-71 -331h397l70 331h69l-139 -656h90l-48 -231h-65l28 170h-87z" />
    <glyph glyph-name="uni04A3" unicode="&#x4a3;" horiz-adv-x="584" 
d="M414 242h-278l-51 -242h-65l110 519h65l-47 -223h278l47 223h65l-99 -465h86l-43 -202h-56l23 148h-86z" />
    <glyph glyph-name="uni04AE" unicode="&#x4ae;" horiz-adv-x="597" 
d="M345 310l-66 -310h-71l67 310l-158 407h74l130 -345l276 345h76z" />
    <glyph glyph-name="uni04AF" unicode="&#x4af;" horiz-adv-x="497" 
d="M236 -1l-34 -176h-67l35 175l-102 521h69l83 -439l253 439h69z" />
    <glyph glyph-name="uni04B0" unicode="&#x4b0;" horiz-adv-x="597" 
d="M109 323h161l-153 394h74l130 -345l276 345h76l-318 -394h160l-11 -57h-169l-56 -266h-71l57 266h-167z" />
    <glyph glyph-name="uni04B1" unicode="&#x4b1;" horiz-adv-x="497" 
d="M29 0h140l-101 519h69l83 -439l253 439h69l-306 -519h142l-11 -54h-141l-24 -123h-67l24 123h-141z" />
    <glyph glyph-name="uni04BA" unicode="&#x4ba;" horiz-adv-x="653" 
d="M181.031 717h69.9961l-66.9961 -314.98q41.9971 21.998 87.4941 33.498q45.4971 11.499 99.4941 11.499q52.9971 0 94.4941 -15.999q41.498 -15.999 67.4961 -48.4971t34.998 -80.4951q8.99902 -47.9971 -5 -111.993l-40.9971 -189.988h-68.9961l39.9971 189.988
q21.999 101.994 -14.999 148.991q-36.9971 46.9971 -114.993 46.9971q-55.9961 0 -102.993 -12.999q-46.9971 -13 -89.9941 -38.998l-70.9961 -333.979h-69.9961z" />
    <glyph glyph-name="uni04BB" unicode="&#x4bb;" horiz-adv-x="571" 
d="M342 472q-34 0 -61.5 -10t-49.5 -26.5t-39.5 -39t-32.5 -47.5l-74 -349h-65l152 717h65l-43 -202l-23 -99h2q30 48 76 80.5t117 32.5q85 0 124 -53t18 -150l-69 -326h-65l69 327q9 40 5 67.5t-18 44.5t-36.5 25t-51.5 8z" />
    <glyph glyph-name="uni04D8" unicode="&#x4d8;" horiz-adv-x="707" 
d="M669 405q-1 -86 -26 -161.5t-71 -132t-112 -89t-149 -32.5q-79 0 -130.5 28.5t-79 78t-33 115t8.5 139.5l8 36h512v14q0 72 -18.5 122.5t-51.5 81.5t-78 45t-97 14q-109 0 -200 -61l15 69q32 24 80.5 39t111.5 15q66 0 123 -19t99 -58t65.5 -99.5t22.5 -144.5zM314 52
q59 0 106 21t81.5 57.5t57 86t31.5 106.5h-446q-9 -57 -4.5 -107t24.5 -86.5t57 -57t93 -20.5z" />
    <glyph glyph-name="uni04D9" unicode="&#x4d9;" horiz-adv-x="529" 
d="M99 494q20 11 58 23t95 12q116 0 180.5 -60.5t64.5 -175.5q0 -70 -21.5 -126.5t-58 -95.5t-85.5 -60t-104 -21q-54 0 -96.5 20t-67.5 56.5t-29.5 89t17.5 117.5h378v19q0 88 -46.5 134t-136.5 46q-49 0 -91.5 -11.5t-68.5 -24.5zM234 47q70 0 120.5 44.5t67.5 125.5h-322
q-9 -43 -1.5 -75t26.5 -53t47.5 -31.5t61.5 -10.5z" />
    <glyph glyph-name="uni04E8" unicode="&#x4e8;" horiz-adv-x="728" 
d="M350 -10q-68 0 -123 22t-93.5 63t-59.5 99.5t-21 131.5q0 93 28.5 170t77.5 132.5t114.5 86.5t139.5 31q68 0 123 -22t94 -62.5t60 -99.5t21 -132q0 -93 -28.5 -170t-77.5 -132.5t-115 -86.5t-140 -31zM126 304q0 -121 60.5 -186.5t166.5 -65.5q60 0 112 27t90.5 75
t59.5 114q10 29 15 60h-504v-24zM637 413q0 121 -60 186t-166 65q-61 0 -113 -27t-90.5 -75t-60.5 -114q-9 -27 -14 -56h504v21z" />
    <glyph glyph-name="uni04E9" unicode="&#x4e9;" horiz-adv-x="547" 
d="M250 -10q-50 0 -90 16.5t-68.5 47t-44 73.5t-15.5 97q0 63 19 119t54 97t83.5 65t108.5 24q49 0 89.5 -16.5t69.5 -47t44.5 -73.5t15.5 -97q0 -63 -19 -119t-54 -97t-84 -65t-109 -24zM99 226q0 -90 43 -134.5t111 -44.5q39 0 71 14t57 40t41.5 61.5t22.5 79.5h-346v-16z
M295 472q-74 0 -123.5 -48.5t-65.5 -127.5h342q-2 90 -44.5 133t-108.5 43z" />
    <glyph glyph-name="uni058F" unicode="&#x58f;" horiz-adv-x="594" 
d="M214 317h186l20 96h-185l11 54h186l8 39q17 81 -13 120t-98 39q-67 0 -109.5 -42t-59.5 -119h-71q21 103 84 163t166 60q51 0 88 -16t59 -45.5t28.5 -70.5t-3.5 -91l-8 -37h88l-12 -54h-87l-21 -96h88l-12 -54h-87l-56 -263h-71l56 263h-186z" />
    <glyph glyph-name="baht" unicode="&#xe3f;" horiz-adv-x="617" 
d="M356 691l31 149h61l-32 -150zM222 22h61l-32 -153h-61zM183 717h186q100 0 154 -40t54 -125q0 -80 -46 -123.5t-120 -57.5q68 -12 108 -52t40 -114q0 -51 -19.5 -89t-55 -64t-84.5 -39t-108 -13h-262zM240 655l-55 -255h134q41 0 75.5 8.5t59.5 26.5t39 45.5t14 64.5
q0 62 -39 86t-109 24h-119zM172 338l-59 -276h189q86 0 135.5 35t49.5 109q0 69 -45 100.5t-129 31.5h-141z" />
    <glyph glyph-name="Wgrave" unicode="&#x1e80;" horiz-adv-x="952" 
d="M689 0h-98l-46 608l-298 -608h-101l-18 717h68l15 -651l320 651h69l51 -647l292 647h69zM544 773l-129 136h94l96 -136h-61z" />
    <glyph glyph-name="wgrave" unicode="&#x1e81;" horiz-adv-x="754" 
d="M542 0h-99l-30 434l-215 -434h-96l-16 519h67l11 -466l228 466h76l34 -473l211 473h66zM412 588l-123 158h88l89 -158h-54z" />
    <glyph glyph-name="Wacute" unicode="&#x1e82;" horiz-adv-x="952" 
d="M689 0h-98l-46 608l-298 -608h-101l-18 717h68l15 -651l320 651h69l51 -647l292 647h69zM662 909h98l-152 -136h-67z" />
    <glyph glyph-name="wacute" unicode="&#x1e83;" horiz-adv-x="754" 
d="M542 0h-99l-30 434l-215 -434h-96l-16 519h67l11 -466l228 466h76l34 -473l211 473h66zM523 746h90l-149 -158h-58z" />
    <glyph glyph-name="Wdieresis" unicode="&#x1e84;" horiz-adv-x="952" 
d="M689 0h-98l-46 608l-298 -608h-101l-18 717h68l15 -651l320 651h69l51 -647l292 647h69zM460 797q-21 0 -33.5 13t-12.5 31q0 20 12.5 33.5t33.5 13.5q22 0 34.5 -13.5t12.5 -33.5q0 -18 -12.5 -31t-34.5 -13zM685 797q-21 0 -33.5 13t-12.5 31q0 20 12.5 33.5t33.5 13.5
t34 -13.5t13 -33.5q0 -18 -13 -31t-34 -13z" />
    <glyph glyph-name="wdieresis" unicode="&#x1e85;" horiz-adv-x="754" 
d="M542 0h-99l-30 434l-215 -434h-96l-16 519h67l11 -466l228 466h76l34 -473l211 473h66zM340 613q-21 0 -33 13.5t-12 32.5t12 32.5t33 13.5q22 0 34.5 -13.5t12.5 -32.5t-12.5 -32.5t-34.5 -13.5zM541 613q-21 0 -33.5 13.5t-12.5 32.5t12.5 32.5t33.5 13.5t33.5 -13.5
t12.5 -32.5t-12.5 -32.5t-33.5 -13.5z" />
    <glyph glyph-name="Ygrave" unicode="&#x1ef2;" horiz-adv-x="597" 
d="M345 310l-66 -310h-71l67 310l-158 407h74l130 -345l276 345h76zM369 773l-129 136h94l96 -136h-61z" />
    <glyph glyph-name="ygrave" unicode="&#x1ef3;" horiz-adv-x="501" 
d="M241 6q-27 -47 -52.5 -83t-52.5 -60.5t-57.5 -37t-67.5 -12.5q-15 0 -28.5 2t-24.5 7l13 58q9 -5 22.5 -7.5t28.5 -2.5q40 0 69 26.5t66 82.5l-91 540h69l73 -457l263 457h67l-297 -513v0zM282 588l-123 158h88l89 -158h-54z" />
    <glyph glyph-name="uni2000" unicode="&#x2000;" horiz-adv-x="593" 
 />
    <glyph glyph-name="uni2001" unicode="&#x2001;" horiz-adv-x="954" 
 />
    <glyph glyph-name="uni2002" unicode="&#x2002;" horiz-adv-x="593" 
 />
    <glyph glyph-name="uni2003" unicode="&#x2003;" horiz-adv-x="954" 
 />
    <glyph glyph-name="uni2004" unicode="&#x2004;" horiz-adv-x="318" 
 />
    <glyph glyph-name="uni2005" unicode="&#x2005;" horiz-adv-x="238" 
 />
    <glyph glyph-name="uni2006" unicode="&#x2006;" horiz-adv-x="159" 
 />
    <glyph glyph-name="uni2007" unicode="&#x2007;" horiz-adv-x="573" 
 />
    <glyph glyph-name="uni2008" unicode="&#x2008;" horiz-adv-x="265" 
 />
    <glyph glyph-name="uni2009" unicode="&#x2009;" horiz-adv-x="80" 
 />
    <glyph glyph-name="uni200A" unicode="&#x200a;" horiz-adv-x="96" 
 />
    <glyph glyph-name="uni200B" unicode="&#x200b;" horiz-adv-x="0" 
 />
    <glyph glyph-name="endash" unicode="&#x2013;" horiz-adv-x="554" 
d="M72 329h444l-13 -57h-443z" />
    <glyph glyph-name="emdash" unicode="&#x2014;" horiz-adv-x="923" 
d="M72 329h813l-12 -57h-813z" />
    <glyph glyph-name="quoteleft" unicode="&#x2018;" horiz-adv-x="230" 
d="M258 720q-28 -23 -43 -45t-20 -43q17 -4 28.5 -17.5t11.5 -31.5q0 -20 -13.5 -34.5t-36.5 -14.5q-22 0 -37 15t-15 42q0 38 22.5 70.5t51.5 58.5h51z" />
    <glyph glyph-name="quoteright" unicode="&#x2019;" horiz-adv-x="230" 
d="M123 534q29 23 43.5 45t20.5 43q-17 4 -28.5 17.5t-11.5 31.5q0 20 13.5 34.5t36.5 14.5q22 0 37 -15t15 -43q0 -37 -22.5 -69.5t-51.5 -58.5h-52z" />
    <glyph glyph-name="quotesinglbase" unicode="&#x201a;" horiz-adv-x="230" 
d="M8 -92q28 23 43 45t20 43q-17 4 -28 17.5t-11 30.5q0 21 13.5 35t35.5 14q23 0 37.5 -15t14.5 -42q0 -37 -22 -70t-52 -58h-51z" />
    <glyph glyph-name="quotedblleft" unicode="&#x201c;" horiz-adv-x="373" 
d="M402 720q-52 -45 -63 -88q17 -4 28 -17.5t11 -31.5q0 -20 -13 -34.5t-36 -14.5t-37 15t-14 42q0 38 22 70.5t51 58.5h51zM258 720q-28 -23 -43 -45t-20 -43q17 -4 28.5 -17.5t11.5 -31.5q0 -20 -13.5 -34.5t-36.5 -14.5q-22 0 -37 15t-15 42q0 38 22.5 70.5t51.5 58.5h51
z" />
    <glyph glyph-name="quotedblright" unicode="&#x201d;" horiz-adv-x="373" 
d="M123 534q29 23 43.5 45t20.5 43q-17 4 -28.5 17.5t-11.5 31.5q0 20 13.5 34.5t36.5 14.5q22 0 37 -15t15 -43q0 -37 -22.5 -69.5t-51.5 -58.5h-52zM267 534q28 23 43 45t20 43q-17 4 -28.5 17.5t-11.5 31.5q0 20 14 34.5t36 14.5q23 0 37.5 -15t14.5 -43
q0 -37 -22.5 -69.5t-51.5 -58.5h-51z" />
    <glyph glyph-name="quotedblbase" unicode="&#x201e;" horiz-adv-x="373" 
d="M8 -93q28 23 43 45t20 43q-17 4 -28 17.5t-11 30.5q0 21 13.5 35t35.5 14q23 0 37.5 -14.5t14.5 -41.5q0 -38 -22 -71t-52 -58h-51zM152 -93q27 23 42 45t20 43q-17 4 -28 17.5t-11 30.5q0 21 13.5 35t36.5 14t37 -14.5t14 -41.5q0 -38 -22 -71t-51 -58h-51z" />
    <glyph glyph-name="dagger" unicode="&#x2020;" horiz-adv-x="483" 
d="M308 435l-110 -515h-64l110 515h-173l12 54h172l49 228h64l-49 -228h173l-12 -54h-172z" />
    <glyph glyph-name="daggerdbl" unicode="&#x2021;" horiz-adv-x="487" 
d="M250 147l-48 -227h-65l48 227h-172l11 54h173l50 234h-173l12 54h172l49 228h64l-48 -228h172l-12 -54h-172l-49 -234h171l-11 -54h-172z" />
    <glyph glyph-name="bullet" unicode="&#x2022;" horiz-adv-x="234" 
d="M117 196q-39 0 -64 25t-25 63t25 63t64 25t64 -25t25 -63t-25 -63t-64 -25z" />
    <glyph glyph-name="ellipsis" unicode="&#x2026;" horiz-adv-x="682" 
d="M533 -5q-24 0 -39 15t-15 37q0 23 15 38t39 15t38.5 -15t14.5 -38q0 -22 -14.5 -37t-38.5 -15zM305 -5q-24 0 -39 15t-15 37q0 23 15 38t39 15t38.5 -15t14.5 -38q0 -22 -14.5 -37t-38.5 -15zM76 -5q-24 0 -39 15t-15 37q0 23 15 38t39 15t38.5 -15t14.5 -38
q0 -22 -14.5 -37t-38.5 -15z" />
    <glyph glyph-name="uni202F" unicode="&#x202f;" horiz-adv-x="67" 
 />
    <glyph glyph-name="perthousand" unicode="&#x2030;" horiz-adv-x="1000" 
d="M34 -10l578 736h61l-578 -736h-61zM185 363q-25 0 -46.5 8.5t-38 25.5t-26 43.5t-9.5 62.5q0 43 12 82.5t34.5 70t53 48.5t68.5 18q24 0 46 -8.5t38.5 -25.5t26 -43.5t9.5 -62.5q0 -43 -12.5 -82.5t-34.5 -70t-53 -48.5t-68 -18zM228 672q-24 0 -43.5 -13.5t-33 -37
t-21 -54t-7.5 -63.5q0 -50 20 -70t46 -20q24 0 43 13.5t32.5 36.5t21 53.5t7.5 63.5q0 51 -19 71t-46 20zM471 -6q-24 0 -46 8t-38.5 25.5t-26 43.5t-9.5 62q0 43 12.5 83t34.5 70.5t53 48.5t68 18q24 0 46 -8t38.5 -25.5t26 -44t9.5 -62.5q0 -43 -12.5 -82.5t-34.5 -70
t-53 -48.5t-68 -18zM801 -6q-24 0 -45.5 8t-38 25.5t-26 43.5t-9.5 62q0 43 12 83t34.5 70.5t53 48.5t68.5 18q24 0 46 -8t38.5 -25.5t26 -44t9.5 -62.5q0 -43 -12.5 -82.5t-34.5 -70t-53.5 -48.5t-68.5 -18zM514 302q-24 0 -43.5 -13.5t-33 -37t-20.5 -53.5t-7 -63
q0 -51 19.5 -70.5t46.5 -19.5q24 0 43 13.5t32.5 36.5t21 53.5t7.5 63.5q0 50 -19.5 70t-46.5 20zM845 302q-24 0 -43.5 -13.5t-33 -37t-21 -53.5t-7.5 -63q0 -51 20 -70.5t47 -19.5q24 0 43 13.5t32.5 36.5t21 53.5t7.5 63.5q0 50 -19.5 70t-46.5 20z" />
    <glyph glyph-name="uni2032" unicode="&#x2032;" horiz-adv-x="249" 
d="M210 717h78l-117 -211h-54z" />
    <glyph glyph-name="uni2033" unicode="&#x2033;" horiz-adv-x="409" 
d="M210 717h78l-117 -211h-54zM370 717h78l-117 -211h-54z" />
    <glyph glyph-name="guilsinglleft" unicode="&#x2039;" horiz-adv-x="290" 
d="M112 260l97 -191h-64l-100 195l179 195h72z" />
    <glyph glyph-name="guilsinglright" unicode="&#x203a;" horiz-adv-x="290" 
d="M70 69h-71l184 199l-97 191h64l100 -195z" />
    <glyph glyph-name="fraction" unicode="&#x2044;" horiz-adv-x="443" 
d="M-115 0l647 717h63l-646 -717h-64z" />
    <glyph glyph-name="uni205F" unicode="&#x205f;" horiz-adv-x="212" 
 />
    <glyph glyph-name="zero.sup" unicode="&#x2070;" horiz-adv-x="411" 
d="M451 604q0 -54 -14.5 -105t-42 -91t-68.5 -64.5t-94 -24.5q-29 0 -56.5 9t-49 30t-34.5 55t-13 84q0 54 14.5 105.5t42 91.5t68.5 64.5t94 24.5q29 0 56.5 -9t49 -30t34.5 -55.5t13 -84.5zM141 494q0 -35 7.5 -59t20.5 -38.5t30.5 -21t36.5 -6.5q40 0 68.5 22t47.5 56.5
t28 77t9 82.5q0 36 -8 60t-21 38.5t-30.5 21t-36.5 6.5q-39 0 -68 -22.5t-47.5 -57t-27.5 -77t-9 -82.5z" />
    <glyph glyph-name="four.sup" unicode="&#x2074;" horiz-adv-x="377" 
d="M324 430l-22 -105h-60l23 105h-213l9 44l268 303h67l-62 -298h62l-11 -49h-61zM275 479l50 232l-206 -232h156z" />
    <glyph glyph-name="five.sup" unicode="&#x2075;" horiz-adv-x="334" 
d="M357 484q0 -77 -45.5 -121t-121.5 -44q-51 0 -82.5 15.5t-48.5 30.5l10 50q17 -16 45.5 -32t75.5 -16q52 0 79.5 30.5t27.5 79.5q0 44 -21.5 68.5t-64.5 24.5q-27 0 -45 -7.5t-27 -17.5h-42l50 231h238l-10 -51h-186l-28 -122q12 7 28.5 11.5t38.5 4.5q57 0 93 -34
t36 -101z" />
    <glyph glyph-name="six.sup" unicode="&#x2076;" horiz-adv-x="371" 
d="M404 489q0 -38 -14 -69.5t-38 -55t-56 -36.5t-68 -13q-68 0 -109.5 40.5t-41.5 124.5q0 59 14 113.5t42.5 96t71.5 66.5t101 25q34 0 58 -6t41 -17l-6 -53q-38 25 -99 25q-67 0 -107.5 -48.5t-54.5 -123.5q21 32 52 49t73 17q64 0 102.5 -36t38.5 -99zM229 365
q54 0 85 35t31 86q0 42 -26 65t-64 23q-27 0 -49 -10t-37 -26.5t-23 -38.5t-8 -46q0 -41 25 -64.5t66 -23.5z" />
    <glyph glyph-name="seven.sup" unicode="&#x2077;" horiz-adv-x="335" 
d="M138 325h-66l272 400h-230l11 51h296l-10 -45z" />
    <glyph glyph-name="eight.sup" unicode="&#x2078;" horiz-adv-x="367" 
d="M385 456q0 -32 -12.5 -57t-35 -43t-52.5 -27.5t-64 -9.5q-69 0 -111 31.5t-42 89.5q0 49 31.5 82t83.5 45q-29 11 -47 34t-18 58q0 28 11.5 50.5t32 38.5t48 25t60.5 9q28 0 52.5 -6.5t43 -20t29 -34t10.5 -48.5q0 -41 -25.5 -70.5t-69.5 -41.5q32 -12 53.5 -37.5
t21.5 -67.5zM255 587q39 0 65 20.5t26 58.5q0 36 -25 52t-55 16q-38 0 -64.5 -21.5t-26.5 -57.5q0 -34 23.5 -51t56.5 -17zM222 367q46 0 74.5 26.5t28.5 68.5q0 43 -27 62t-63 19q-47 0 -75.5 -26.5t-28.5 -68.5q0 -40 25.5 -60.5t65.5 -20.5z" />
    <glyph glyph-name="nine.sup" unicode="&#x2079;" horiz-adv-x="377" 
d="M414 616q0 -59 -14 -113.5t-42.5 -96t-71.5 -66.5t-101 -25q-35 0 -59 6t-41 16l6 54q18 -13 43.5 -19t56.5 -6q66 0 106 48t54 123q-20 -31 -51.5 -48t-72.5 -17q-64 0 -102.5 35.5t-38.5 98.5q0 38 14 70t38 55.5t56 36.5t68 13q69 0 110.5 -40.5t41.5 -124.5zM261 731
q-27 0 -48.5 -9.5t-36.5 -26t-23 -38.5t-8 -47q0 -42 26.5 -65.5t63.5 -23.5q27 0 49 10t37 26.5t23 39t8 46.5q0 41 -24.5 64.5t-66.5 23.5z" />
    <glyph glyph-name="plus.sup" unicode="&#x207a;" horiz-adv-x="382" 
d="M276 546l-27 -128h-56l27 128h-123l12 50h122l27 127h56l-27 -127h123l-11 -50h-123z" />
    <glyph glyph-name="minus.sup" unicode="&#x207b;" horiz-adv-x="382" 
d="M97 552l12 50h301l-11 -50h-302z" />
    <glyph glyph-name="zero.sub" unicode="&#x2080;" horiz-adv-x="411" 
d="M364 189q0 -54 -14.5 -105t-42 -91t-68.5 -64.5t-94 -24.5q-29 0 -56.5 9t-49 30t-34.5 55t-13 84q0 54 14.5 105.5t42 91.5t68.5 64.5t94 24.5q29 0 56.5 -9t49 -30t34.5 -55.5t13 -84.5zM54 79q0 -35 7.5 -59t20.5 -38.5t30.5 -21t36.5 -6.5q40 0 68.5 22t47.5 56.5
t28 77t9 82.5q0 36 -8 60t-21 38.5t-30.5 21t-36.5 6.5q-39 0 -68 -22.5t-47.5 -57t-27.5 -77t-9 -82.5z" />
    <glyph glyph-name="one.sub" unicode="&#x2081;" horiz-adv-x="245" 
d="M112 -90h-60l81 379l-135 -94l14 65l145 101h51z" />
    <glyph glyph-name="two.sub" unicode="&#x2082;" horiz-adv-x="349" 
d="M245 -90h-285l13 58q81 46 132.5 83t80.5 68t40 58.5t11 55.5q0 40 -22 62.5t-64 22.5q-35 0 -62.5 -13t-50.5 -35l13 60q19 15 46 26.5t67 11.5q62 0 99 -35t37 -95q0 -38 -15 -71.5t-46.5 -66.5t-80.5 -67.5t-118 -72.5h216z" />
    <glyph glyph-name="three.sub" unicode="&#x2083;" horiz-adv-x="341" 
d="M262 42q0 -61 -43 -99.5t-117 -38.5q-51 0 -84 15.5t-50 32.5l11 49q18 -17 47.5 -33t75.5 -16q50 0 74 25t24 65t-24 59.5t-66 19.5h-49l10 47h49q53 0 79.5 22.5t26.5 57.5t-24 53t-57 18q-34 0 -57.5 -11t-46.5 -29l13 57q22 15 46 23.5t57 8.5q57 0 93 -31t36 -83
q0 -47 -29.5 -76t-74.5 -35q35 -8 57.5 -32.5t22.5 -68.5z" />
    <glyph glyph-name="four.sub" unicode="&#x2084;" horiz-adv-x="377" 
d="M237 15l-22 -105h-60l23 105h-213l9 44l268 303h67l-62 -298h62l-11 -49h-61zM188 64l50 232l-206 -232h156z" />
    <glyph glyph-name="five.sub" unicode="&#x2085;" horiz-adv-x="334" 
d="M270 69q0 -77 -45.5 -121t-121.5 -44q-51 0 -82.5 15.5t-48.5 30.5l10 50q17 -16 45.5 -32t75.5 -16q52 0 79.5 30.5t27.5 79.5q0 44 -21.5 68.5t-64.5 24.5q-27 0 -45 -7.5t-27 -17.5h-42l50 231h238l-10 -51h-186l-28 -122q12 7 28.5 11.5t38.5 4.5q57 0 93 -34
t36 -101z" />
    <glyph glyph-name="six.sub" unicode="&#x2086;" horiz-adv-x="371" 
d="M317 74q0 -38 -14 -69.5t-38 -55t-56 -36.5t-68 -13q-68 0 -109.5 40.5t-41.5 124.5q0 59 14 113.5t42.5 96t71.5 66.5t101 25q34 0 58 -6t41 -17l-6 -53q-38 25 -99 25q-67 0 -107.5 -48.5t-54.5 -123.5q21 32 52 49t73 17q64 0 102.5 -36t38.5 -99zM142 -50q54 0 85 35
t31 86q0 42 -26 65t-64 23q-27 0 -49 -10t-37 -26.5t-23 -38.5t-8 -46q0 -41 25 -64.5t66 -23.5z" />
    <glyph glyph-name="seven.sub" unicode="&#x2087;" horiz-adv-x="335" 
d="M51 -90h-66l272 400h-230l11 51h296l-10 -45z" />
    <glyph glyph-name="eight.sub" unicode="&#x2088;" horiz-adv-x="367" 
d="M298 41q0 -32 -12.5 -57t-35 -43t-52.5 -27.5t-64 -9.5q-69 0 -111 31.5t-42 89.5q0 49 31.5 82t83.5 45q-29 11 -47 34t-18 58q0 28 11.5 50.5t32 38.5t48 25t60.5 9q28 0 52.5 -6.5t43 -20t29 -34t10.5 -48.5q0 -41 -25.5 -70.5t-69.5 -41.5q32 -12 53.5 -37.5
t21.5 -67.5zM168 172q39 0 65 20.5t26 58.5q0 36 -25 52t-55 16q-38 0 -64.5 -21.5t-26.5 -57.5q0 -34 23.5 -51t56.5 -17zM135 -48q46 0 74.5 26.5t28.5 68.5q0 43 -27 62t-63 19q-47 0 -75.5 -26.5t-28.5 -68.5q0 -40 25.5 -60.5t65.5 -20.5z" />
    <glyph glyph-name="nine.sub" unicode="&#x2089;" horiz-adv-x="377" 
d="M327 201q0 -59 -14 -113.5t-42.5 -96t-71.5 -66.5t-101 -25q-35 0 -59 6t-41 16l6 54q18 -13 43.5 -19t56.5 -6q66 0 106 48t54 123q-20 -31 -51.5 -48t-72.5 -17q-64 0 -102.5 35.5t-38.5 98.5q0 38 14 70t38 55.5t56 36.5t68 13q69 0 110.5 -40.5t41.5 -124.5zM174 316
q-27 0 -48.5 -9.5t-36.5 -26t-23 -38.5t-8 -47q0 -42 26.5 -65.5t63.5 -23.5q27 0 49 10t37 26.5t23 39t8 46.5q0 41 -24.5 64.5t-66.5 23.5z" />
    <glyph glyph-name="plus.sub" unicode="&#x208a;" horiz-adv-x="382" 
d="M192 131l-27 -128h-56l27 128h-123l12 50h122l27 127h56l-27 -127h123l-11 -50h-123z" />
    <glyph glyph-name="minus.sub" unicode="&#x208b;" horiz-adv-x="382" 
d="M13 137l12 50h301l-11 -50h-302z" />
    <glyph glyph-name="colonsign" unicode="&#x20a1;" horiz-adv-x="652" 
d="M682 788h64l-514 -876h-64zM527 788h64l-514 -876h-64zM359 -10q-63 0 -119 18.5t-97.5 57.5t-65.5 99t-24 142q0 88 28 164.5t79.5 133t123.5 89t160 32.5q67 0 120.5 -17.5t84.5 -46.5l-15 -65q-36 34 -87.5 50.5t-107.5 16.5q-73 0 -131 -28t-98.5 -76.5t-62 -112.5
t-21.5 -136q0 -71 18.5 -120.5t51 -80t76 -44.5t93.5 -14q56 0 105 16t94 45l-14 -68q-30 -23 -80 -39t-111 -16z" />
    <glyph glyph-name="uni20A2" unicode="&#x20a2;" horiz-adv-x="653" 
d="M596 318q-59 -5 -108 -33.5t-84 -86.5l-37 -175h-63l75 353h55l-18 -117h2q28 46 75 82.5t117 43.5l-14 -67v0zM359 -10q-63 0 -119 18.5t-97.5 57.5t-65.5 99t-24 142q0 88 28 164.5t79.5 133t123.5 89t160 32.5q67 0 120.5 -17.5t84.5 -46.5l-15 -65q-36 34 -87.5 50.5
t-107.5 16.5q-73 0 -131 -28t-98.5 -76.5t-62 -112.5t-21.5 -136q0 -71 18.5 -120.5t51 -80t76 -44.5t93.5 -14q56 0 105 16t94 45l-14 -68q-30 -23 -80 -39t-111 -16z" />
    <glyph glyph-name="franc" unicode="&#x20a3;" horiz-adv-x="574" 
d="M-11 191h89l112 526h434l-13 -65h-364l-55 -261h311l-14 -64h-311l-29 -136h187l-11 -54h-187l-29 -137h-71l29 137h-90z" />
    <glyph glyph-name="lira" unicode="&#x20a4;" horiz-adv-x="552" 
d="M67 293h98q-1 25 -2.5 48t-3.5 48h-72l12 54h57v21q0 57 15.5 105.5t48 83t81.5 54t115 19.5q53 0 91 -11.5t57 -26.5l-13 -58q-21 16 -57.5 26.5t-81.5 10.5q-51 0 -87 -15t-58.5 -42t-32.5 -63.5t-10 -78.5v-25h226l-12 -54h-211q2 -25 3.5 -48t1.5 -48h186l-11 -54
h-179q-9 -55 -38 -99t-80 -82h376l-13 -58h-462l9 40q61 38 97 85.5t45 113.5h-106z" />
    <glyph glyph-name="mill" unicode="&#x20a5;" horiz-adv-x="863" 
d="M419 346q7 36 4 60t-15 38.5t-31 21t-44 6.5q-33 0 -59 -10t-46.5 -27t-37 -38.5t-30.5 -45.5l-75 -351h-65l110 519h61l-20 -105h2q15 23 32.5 44t39.5 36.5t49.5 25t62.5 9.5q105 0 126 -88l144 215h61l-101 -151q20 11 44 17.5t53 6.5q76 0 111 -48t15 -142l-73 -339
h-65l72 339q8 38 5 63.5t-14.5 41t-31 22t-43.5 6.5q-52 0 -88 -23t-62 -58l-19 -30l-4 -6l-76 -355h-65l45 212l-202 -302h-61z" />
    <glyph glyph-name="uni20A6" unicode="&#x20a6;" horiz-adv-x="749" 
d="M33 305h80l20 96h-80l12 54h79l56 262h95l98 -262h217l56 262h68l-56 -262h80l-11 -54h-80l-20 -96h79l-11 -54h-80l-53 -251h-97l-94 251h-223l-53 -251h-67l53 251h-80zM315 455l-66 177l-38 -177h104zM371 305l-36 96h-135l-20 -96h191zM579 305l20 96h-186l36 -96
h130zM532 84l35 167h-98z" />
    <glyph glyph-name="uni20A7" unicode="&#x20a7;" horiz-adv-x="1360" 
d="M183 717h216q47 0 86 -11t66.5 -34t43 -58t15.5 -83q0 -57 -20.5 -101.5t-56.5 -75t-84.5 -46t-105.5 -15.5h-180l-63 -293h-70zM240 655l-64 -301h182q39 0 72 11.5t57 33.5t37.5 54t13.5 74q0 68 -39 98t-108 30h-151zM825 2q-26 -12 -65 -12q-75 0 -102.5 43.5
t-12.5 110.5l69 321h-65l12 54h65l23 109h65l-23 -109h147l-12 -54h-147l-70 -325q-10 -45 4.5 -69t58.5 -24q19 0 36 2.5t28 7.5l-11 -55v0zM1301 144q0 -75 -48 -114.5t-139 -39.5q-39 0 -71 6.5t-57.5 16.5t-45 22t-31.5 23l13 58q13 -12 32.5 -24.5t44 -22t54.5 -16
t63 -6.5q68 0 95.5 26t27.5 64q0 25 -10 41.5t-27 27t-39 18t-47 14.5q-27 8 -54 18t-48.5 25.5t-34.5 39t-13 59.5q0 37 14 64.5t39.5 46.5t60.5 28.5t77 9.5q62 0 102.5 -15.5t64.5 -31.5l-12 -58q-26 18 -63 33t-91 15q-62 0 -95.5 -21.5t-33.5 -64.5q0 -21 8.5 -35
t23 -24t34 -16.5t42.5 -13.5q27 -8 56 -17t53 -25.5t39.5 -42.5t15.5 -68z" />
    <glyph glyph-name="uni20A8" unicode="&#x20a8;" horiz-adv-x="1058" 
d="M1000 144q0 -75 -48 -114.5t-139 -39.5q-39 0 -71 6.5t-57.5 16.5t-45 22t-31.5 23l13 58q13 -12 32.5 -24.5t44 -22t54.5 -16t63 -6.5q68 0 95.5 26t27.5 64q0 25 -10 41.5t-27 27t-39 18t-47 14.5q-27 8 -54 18t-48.5 25.5t-34.5 39t-13 59.5q0 37 14 64.5t39.5 46.5
t60.5 28.5t77 9.5q62 0 102.5 -15.5t64.5 -31.5l-12 -58q-26 18 -63 33t-91 15q-62 0 -95.5 -21.5t-33.5 -64.5q0 -21 8.5 -35t23 -24t34 -16.5t42.5 -13.5q27 -8 56 -17t53 -25.5t39.5 -42.5t15.5 -68zM183 717h214q101 0 159.5 -45.5t58.5 -140.5q0 -50 -16 -89t-45 -67
t-69.5 -45t-88.5 -23l126 -307h-73l-124 304h-160l-65 -304h-70zM240 655l-62 -289h180q39 0 73 10.5t59 31t39 50.5t14 70q0 69 -41 98t-114 29h-148z" />
    <glyph glyph-name="uni20A9" unicode="&#x20a9;" horiz-adv-x="935" 
d="M44 288h110l1 96h-91l12 54h79v279h68l-2 -279h175l132 279h67l14 -279h172l117 279h68l-118 -279h78l-11 -54h-90l-41 -96h110l-11 -54h-122l-99 -234h-99l-11 234h-188l-110 -234h-100v234h-122zM544 438l-6 167l-78 -167h84zM325 288l46 96h-150l-1 -96h105zM549 288
l-4 96h-110l-45 -96h159zM718 288l40 96h-147l5 -96h102zM217 56l83 178h-82zM625 64l71 170h-79z" />
    <glyph glyph-name="uni20AA" unicode="&#x20aa;" horiz-adv-x="846" 
d="M466 161l76 355q17 79 -8.5 111.5t-91.5 32.5h-201l-139 -660h-72l152 717h290q97 0 130.5 -45t13.5 -145l-78 -366h-72zM420 556l-75 -354q-17 -80 9 -112t91 -32h200l141 659h71l-152 -717h-290q-97 0 -130.5 45t-13.5 145l78 366h71z" />
    <glyph glyph-name="dong" unicode="&#x20ab;" horiz-adv-x="588" 
d="M-10 -93h458l-11 -54h-458zM415 85q-32 -42 -76.5 -68.5t-103.5 -26.5q-45 0 -82 15.5t-64 45t-42 72.5t-15 99q0 63 18.5 118.5t53 97.5t83 66.5t108.5 24.5q67 0 116 -32t68 -97l39 184h-182l11 50h181l18 83h65l-18 -83h73l-11 -50h-72l-124 -584h-58zM450 303
q0 45 -12 77t-33 52.5t-49 30t-59 9.5q-47 0 -83.5 -19t-61.5 -51.5t-38.5 -77t-13.5 -95.5q0 -47 11.5 -81t31.5 -56.5t47 -33.5t59 -11q49 0 87 22.5t63 59t38 82.5t13 92z" />
    <glyph glyph-name="Euro" unicode="&#x20ac;" 
d="M496 9q-15 -8 -44.5 -13.5t-61.5 -5.5q-51 0 -98.5 14.5t-85 47t-62.5 83.5t-31 124h-87l11 52h74q0 26 2.5 51t7.5 48h-63l11 53h66q19 58 51.5 106.5t76.5 83.5t98 54t117 19q54 0 91.5 -13t57.5 -27l-12 -57q-22 16 -58 28t-83 12q-51 0 -93.5 -15t-76.5 -42.5
t-59 -65.5t-40 -83h230l-11 -53h-234q-5 -25 -7.5 -50t-2.5 -49h223l-11 -52h-210q6 -61 25 -102t48.5 -65.5t66.5 -34.5t78 -10q34 0 62 5.5t46 13.5l-12 -57v0z" />
    <glyph glyph-name="uni20AD" unicode="&#x20ad;" horiz-adv-x="629" 
d="M27 383h86l71 334h71l-71 -334h90l336 334h84l-338 -334h151l-11 -54h-149l201 -329h-84l-201 329h-90l-70 -329h-71l70 329h-86z" />
    <glyph glyph-name="uni20AE" unicode="&#x20ae;" horiz-adv-x="583" 
d="M117 289l401 190l-13 -61l-402 -190zM83 133l402 190l-13 -61l-402 -190zM410 655l-139 -655h-70l139 655h-230l14 62h529l-13 -62h-230z" />
    <glyph glyph-name="uni20B1" unicode="&#x20b1;" horiz-adv-x="644" 
d="M41 444h86l16 77h-86l11 53h87l30 143h216q88 0 140.5 -37.5t64.5 -105.5h91l-11 -53h-77q0 -15 -3 -30q-2 -12 -4.5 -24t-5.5 -23h73l-11 -53h-82q-36 -71 -105.5 -107t-168.5 -36h-145l-53 -248h-71l83 391h-87zM539 521h-325l-16 -77h327q8 25 11 48zM316 312
q124 0 182 79h-311l-17 -79h146zM242 652l-16 -78h306q-24 78 -135 78h-155z" />
    <glyph glyph-name="guarani" unicode="&#x20b2;" horiz-adv-x="723" 
d="M418 691l32 149h61l-32 -150zM298 22h62l-32 -153h-62zM693 308q-13 -84 -43.5 -144t-74 -98.5t-99 -57t-118.5 -18.5q-66 0 -121.5 19.5t-96.5 59t-64 100t-23 142.5q0 87 26.5 163t76.5 132t121 88t160 32q42 0 79 -7t67.5 -18t53 -25t36.5 -28l-15 -69
q-33 34 -92 59.5t-134 25.5t-132 -28t-95.5 -76.5t-58.5 -112.5t-20 -136q0 -71 18 -120.5t50 -80t75.5 -44.5t93.5 -14q51 0 93 14t75 44.5t56 79t34 116.5h-253l17 61h318l-10 -59v0z" />
    <glyph glyph-name="austral" unicode="&#x20b3;" horiz-adv-x="726" 
d="M97 189h-79l11 54h100l56 96h-135l11 54h155l189 324h101l52 -324h156l-12 -54h-135l16 -96h99l-12 -54h-79l31 -189h-69l-31 189h-354l-110 -189h-71zM489 393l-44 270l-157 -270h201zM513 243l-15 96h-242l-56 -96h313z" />
    <glyph glyph-name="uni20B4" unicode="&#x20b4;" 
d="M440 50q-10 -9 -28.5 -19.5t-44 -19.5t-57.5 -15t-69 -6q-38 0 -73 8t-61.5 26.5t-42 49t-14.5 75.5q1 35 12 64t31 53h-71l11 53h118q32 23 68 39.5t73 29.5q16 6 31.5 12.5t29.5 14.5h-301l11 54h361q18 21 29 46.5t11 55.5q0 47 -32.5 71t-87.5 24q-54 0 -99.5 -11.5
t-74.5 -28.5l12 61q24 12 63.5 25.5t102.5 13.5q83 0 131 -39.5t47 -114.5q-1 -58 -34 -103h76l-12 -54h-118q-31 -23 -67 -40.5t-73 -30.5q-16 -6 -30.5 -12t-28.5 -13h298l-11 -53h-363q-23 -23 -35.5 -51t-13.5 -63q0 -28 10 -47.5t28 -31.5t41.5 -17.5t50.5 -5.5
q35 0 67.5 6.5t59.5 16t48 20t33 18.5l-12 -61v0z" />
    <glyph glyph-name="cedi" unicode="&#x20b5;" horiz-adv-x="653" 
d="M418 691l32 149h61l-32 -150zM292 22h62l-33 -153h-61zM359 -10q-63 0 -119 18.5t-97.5 57.5t-65.5 99t-24 142q0 88 28 164.5t79.5 133t123.5 89t160 32.5q67 0 120.5 -17.5t84.5 -46.5l-15 -65q-36 34 -87.5 50.5t-107.5 16.5q-73 0 -131 -28t-98.5 -76.5t-62 -112.5
t-21.5 -136q0 -71 18.5 -120.5t51 -80t76 -44.5t93.5 -14q56 0 105 16t94 45l-14 -68q-30 -23 -80 -39t-111 -16z" />
    <glyph glyph-name="uni20B8" unicode="&#x20b8;" 
d="M131 717h470l-12 -53h-470zM357 502l-104 -502h-70l104 502h-201l13 62h471l-12 -62h-201z" />
    <glyph glyph-name="uni20B9" unicode="&#x20b9;" horiz-adv-x="615" 
d="M225 368q88 0 141.5 30.5t71.5 83.5h-333l11 54h330q-1 63 -38.5 89.5t-110.5 26.5h-157l14 65h504l-12 -54h-184q58 -41 58 -122v-5h99l-11 -54h-96q-19 -72 -81 -116.5t-153 -57.5l157 -308h-81l-154 304h-133l13 64h145v0z" />
    <glyph glyph-name="uni20BA" unicode="&#x20ba;" horiz-adv-x="616" 
d="M-6 177l125 59l20 94l-125 -59l13 62l125 59l69 325h71l-61 -287l197 93l-13 -62l-197 -93l-20 -94l197 93l-13 -62l-197 -93l-32 -149h45q73 0 126 17t89.5 51t59.5 84t37 115h73q-16 -75 -45.5 -136t-76.5 -104t-115 -66.5t-161 -23.5h-116l37 174l-125 -59z" />
    <glyph glyph-name="manat" unicode="&#x20bc;" horiz-adv-x="822" 
d="M348 110l118 554q-117 -8 -185.5 -77t-92.5 -181l-86 -406h-72l89 420q13 64 42 118t74 94.5t106 65t138 28.5l24 111h63l-24 -111q69 -5 118 -30t78.5 -65.5t37.5 -95.5t-6 -119l-88 -416h-71l86 406q12 56 9 102t-23 79t-58 52.5t-96 24.5l-118 -554h-63z" />
    <glyph glyph-name="uni20BD" unicode="&#x20bd;" 
d="M143 387l70 330h165q89 0 140 -41.5t51 -127.5q0 -50 -17.5 -89.5t-49.5 -67t-76.5 -42t-97.5 -14.5h-132l-21 -102h243l-12 -53h-243l-38 -180h-64l38 180h-94l12 53h93l22 102h-93l11 52h93zM265 657l-57 -270h120q81 0 128 42t47 115q0 60 -35 86.5t-101 26.5h-102z
" />
    <glyph glyph-name="uni20BE" unicode="&#x20be;" horiz-adv-x="713" 
d="M279 385l55 260q-72 -26 -122 -90t-73 -173q-17 -82 -9.5 -142t38.5 -99.5t84 -59t126 -19.5h196l-13 -62h-574l13 62h147q-59 43 -81 131t3 202q28 132 100 213t180 107l22 106h59l-20 -96q11 1 22.5 1.5t22.5 0.5q23 0 46 -3l20 97h59l-23 -111q83 -32 119 -115.5
t15 -209.5h-73q17 96 -3 160.5t-73 94.5l-54 -255h-59l58 274q-11 2 -22.5 3t-23.5 1q-23 0 -45 -3l-58 -275h-59z" />
    <glyph glyph-name="uni2116" unicode="&#x2116;" horiz-adv-x="1083" 
d="M930 355q-39 0 -68.5 12t-49.5 33.5t-30.5 50t-10.5 61.5q0 44 14 83t40.5 68t64.5 46t86 17q38 0 67.5 -12.5t50 -34t31 -50.5t10.5 -61q0 -45 -14 -83.5t-40.5 -67.5t-64.5 -45.5t-86 -16.5zM973 676q-33 0 -59.5 -13t-45 -35t-28 -51t-9.5 -62q0 -47 26 -79.5
t77 -32.5q33 0 59.5 13t44.5 35t27.5 51t9.5 62q0 48 -26.5 80t-75.5 32zM581 0h-90l-259 641l-136 -641h-66l153 717h88l260 -644l137 644h65z" />
    <glyph glyph-name="trademark" unicode="&#x2122;" horiz-adv-x="886" 
d="M831 655l-180 -272h-62l-57 274l-71 -335h-53l84 395h84l57 -279l182 279h85l-84 -395h-56zM281 667l-73 -345h-55l74 345h-129l10 50h312l-11 -50h-128z" />
    <glyph glyph-name="onethird" unicode="&#x2153;" horiz-adv-x="904" 
d="M89 0l647 717h63l-646 -717h-64zM837 132q0 -61 -43 -99.5t-117 -38.5q-51 0 -84 15.5t-50 32.5l11 49q18 -17 47.5 -33t75.5 -16q50 0 74 25t24 65t-24 59.5t-66 19.5h-49l10 47h49q53 0 79.5 22.5t26.5 57.5t-24 53t-57 18q-34 0 -57.5 -11t-46.5 -29l13 57
q22 15 46 23.5t57 8.5q57 0 93 -31t36 -83q0 -47 -29.5 -76t-74.5 -35q35 -8 57.5 -32.5t22.5 -68.5zM198 265h-60l81 379l-135 -94l14 65l145 101h51z" />
    <glyph glyph-name="twothirds" unicode="&#x2154;" horiz-adv-x="1014" 
d="M328 265h-285l13 58q81 46 132.5 83t80.5 68t40 58.5t11 55.5q0 40 -22 62.5t-64 22.5q-35 0 -62.5 -13t-50.5 -35l13 60q19 15 46 26.5t67 11.5q62 0 99 -35t37 -95q0 -38 -15 -71.5t-46.5 -66.5t-80.5 -67.5t-118 -72.5h216zM192 0l647 717h63l-646 -717h-64zM946 133
q0 -61 -43 -99.5t-117 -38.5q-51 0 -84 15.5t-50 32.5l11 49q18 -17 47.5 -33t75.5 -16q50 0 74 25t24 65t-24 59.5t-66 19.5h-49l10 47h49q53 0 79.5 22.5t26.5 57.5t-24 53t-57 18q-34 0 -57.5 -11t-46.5 -29l13 57q22 15 46 23.5t57 8.5q57 0 93 -31t36 -83
q0 -47 -29.5 -76t-74.5 -35q35 -8 57.5 -32.5t22.5 -68.5z" />
    <glyph glyph-name="oneeighth" unicode="&#x215b;" horiz-adv-x="918" 
d="M89 0l647 717h63l-646 -717h-64zM861 131q0 -32 -12.5 -57t-35 -43t-52.5 -27.5t-64 -9.5q-69 0 -111 31.5t-42 89.5q0 49 31.5 82t83.5 45q-29 11 -47 34t-18 58q0 28 11.5 50.5t32 38.5t48 25t60.5 9q28 0 52.5 -6.5t43 -20t29 -34t10.5 -48.5q0 -41 -25.5 -70.5
t-69.5 -41.5q32 -12 53.5 -37.5t21.5 -67.5zM731 262q39 0 65 20.5t26 58.5q0 36 -25 52t-55 16q-38 0 -64.5 -21.5t-26.5 -57.5q0 -34 23.5 -51t56.5 -17zM698 42q46 0 74.5 26.5t28.5 68.5q0 43 -27 62t-63 19q-47 0 -75.5 -26.5t-28.5 -68.5q0 -40 25.5 -60.5t65.5 -20.5
zM198 265h-60l81 379l-135 -94l14 65l145 101h51z" />
    <glyph glyph-name="threeeighths" unicode="&#x215c;" horiz-adv-x="985" 
d="M156 0l647 717h63l-646 -717h-64zM928 131q0 -32 -12.5 -57t-35 -43t-52.5 -27.5t-64 -9.5q-69 0 -111 31.5t-42 89.5q0 49 31.5 82t83.5 45q-29 11 -47 34t-18 58q0 28 11.5 50.5t32 38.5t48 25t60.5 9q28 0 52.5 -6.5t43 -20t29 -34t10.5 -48.5q0 -41 -25.5 -70.5
t-69.5 -41.5q32 -12 53.5 -37.5t21.5 -67.5zM798 262q39 0 65 20.5t26 58.5q0 36 -25 52t-55 16q-38 0 -64.5 -21.5t-26.5 -57.5q0 -34 23.5 -51t56.5 -17zM765 42q46 0 74.5 26.5t28.5 68.5q0 43 -27 62t-63 19q-47 0 -75.5 -26.5t-28.5 -68.5q0 -40 25.5 -60.5t65.5 -20.5
zM345 397q0 -61 -43 -99.5t-117 -38.5q-51 0 -84 15.5t-50 32.5l11 49q18 -17 47.5 -33t75.5 -16q50 0 74 25t24 65t-24 59.5t-66 19.5h-49l10 47h49q53 0 79.5 22.5t26.5 57.5t-24 53t-57 18q-34 0 -57.5 -11t-46.5 -29l13 57q22 15 46 23.5t57 8.5q57 0 93 -31t36 -83
q0 -47 -29.5 -76t-74.5 -35q35 -8 57.5 -32.5t22.5 -68.5z" />
    <glyph glyph-name="fiveeighths" unicode="&#x215d;" horiz-adv-x="978" 
d="M354 424q0 -77 -45.5 -121t-121.5 -44q-51 0 -82.5 15.5t-48.5 30.5l10 50q17 -16 45.5 -32t75.5 -16q52 0 79.5 30.5t27.5 79.5q0 44 -21.5 68.5t-64.5 24.5q-27 0 -45 -7.5t-27 -17.5h-42l50 231h238l-10 -51h-186l-28 -122q12 7 28.5 11.5t38.5 4.5q57 0 93 -34
t36 -101zM148 0l647 717h63l-646 -717h-64zM920 131q0 -32 -12.5 -57t-35 -43t-52.5 -27.5t-64 -9.5q-69 0 -111 31.5t-42 89.5q0 49 31.5 82t83.5 45q-29 11 -47 34t-18 58q0 28 11.5 50.5t32 38.5t48 25t60.5 9q28 0 52.5 -6.5t43 -20t29 -34t10.5 -48.5
q0 -41 -25.5 -70.5t-69.5 -41.5q32 -12 53.5 -37.5t21.5 -67.5zM790 262q39 0 65 20.5t26 58.5q0 36 -25 52t-55 16q-38 0 -64.5 -21.5t-26.5 -57.5q0 -34 23.5 -51t56.5 -17zM757 42q46 0 74.5 26.5t28.5 68.5q0 43 -27 62t-63 19q-47 0 -75.5 -26.5t-28.5 -68.5
q0 -40 25.5 -60.5t65.5 -20.5z" />
    <glyph glyph-name="seveneighths" unicode="&#x215e;" horiz-adv-x="898" 
d="M172 265h-66l272 400h-230l11 51h296l-10 -45zM68 0l647 717h63l-646 -717h-64zM840 131q0 -32 -12.5 -57t-35 -43t-52.5 -27.5t-64 -9.5q-69 0 -111 31.5t-42 89.5q0 49 31.5 82t83.5 45q-29 11 -47 34t-18 58q0 28 11.5 50.5t32 38.5t48 25t60.5 9q28 0 52.5 -6.5
t43 -20t29 -34t10.5 -48.5q0 -41 -25.5 -70.5t-69.5 -41.5q32 -12 53.5 -37.5t21.5 -67.5zM710 262q39 0 65 20.5t26 58.5q0 36 -25 52t-55 16q-38 0 -64.5 -21.5t-26.5 -57.5q0 -34 23.5 -51t56.5 -17zM677 42q46 0 74.5 26.5t28.5 68.5q0 43 -27 62t-63 19
q-47 0 -75.5 -26.5t-28.5 -68.5q0 -40 25.5 -60.5t65.5 -20.5z" />
    <glyph glyph-name="minus" unicode="&#x2212;" 
d="M45 310l12 54h463l-13 -54h-462z" />
    <glyph glyph-name="approxequal" unicode="&#x2248;" 
d="M29 358q6 31 18.5 60t33 51t49.5 35.5t68 13.5q43 0 71 -15.5t50.5 -33.5t45 -33.5t54.5 -15.5q36 0 63 24.5t43 79.5h56q-6 -30 -18.5 -59t-32.5 -51.5t-49 -36t-68 -13.5q-43 0 -71 15.5t-50.5 33.5t-45 33.5t-53.5 15.5q-35 0 -63.5 -23.5t-45.5 -80.5h-55zM-16 148
q6 31 18.5 60t33.5 51t50 35.5t68 13.5q43 0 71 -15t50.5 -33.5t44.5 -33.5t54 -15q37 0 64 24t42 80h57q-6 -30 -18.5 -59t-32.5 -51.5t-49 -36.5t-68 -14q-43 0 -71 15.5t-50.5 34t-45 34t-53.5 15.5q-35 0 -63.5 -24t-45.5 -81h-56z" />
    <glyph glyph-name="notequal" unicode="&#x2260;" 
d="M235 211l-87 -139h-63l87 139h-146l11 54h169l89 144h-227l12 54h249l87 139h64l-87 -139h149l-11 -54h-172l-90 -144h231l-11 -54h-254z" />
    <glyph glyph-name="lessequal" unicode="&#x2264;" 
d="M81 307l15 73l446 185l-14 -65l-383 -160l316 -160l-14 -58zM16 0l11 54h406l-12 -54h-405z" />
    <glyph glyph-name="greaterequal" unicode="&#x2265;" 
d="M53 187l382 160l-315 160l13 58l367 -186l-16 -72l-445 -185zM25 54h406l-12 -54h-405z" />
    <glyph glyph-name="zero.den" unicode="&#xe402;" horiz-adv-x="411" 
d="M386 279q0 -54 -14.5 -105t-42 -91t-68.5 -64.5t-94 -24.5q-29 0 -56.5 9t-49 30t-34.5 55t-13 84q0 54 14.5 105.5t42 91.5t68.5 64.5t94 24.5q29 0 56.5 -9t49 -30t34.5 -55.5t13 -84.5zM76 169q0 -35 7.5 -59t20.5 -38.5t30.5 -21t36.5 -6.5q40 0 68.5 22t47.5 56.5
t28 77t9 82.5q0 36 -8 60t-21 38.5t-30.5 21t-36.5 6.5q-39 0 -68 -22.5t-47.5 -57t-27.5 -77t-9 -82.5z" />
    <glyph glyph-name="one.den" unicode="&#xe403;" horiz-adv-x="245" 
d="M134 0h-60l81 379l-135 -94l14 65l145 101h51z" />
    <glyph glyph-name="two.den" unicode="&#xe404;" horiz-adv-x="349" 
d="M267 0h-285l13 58q81 46 132.5 83t80.5 68t40 58.5t11 55.5q0 40 -22 62.5t-64 22.5q-35 0 -62.5 -13t-50.5 -35l13 60q19 15 46 26.5t67 11.5q62 0 99 -35t37 -95q0 -38 -15 -71.5t-46.5 -66.5t-80.5 -67.5t-118 -72.5h216z" />
    <glyph glyph-name="three.den" unicode="&#xe405;" horiz-adv-x="340" 
d="M284 132q0 -61 -43 -99.5t-117 -38.5q-51 0 -84 15.5t-50 32.5l11 49q18 -17 47.5 -33t75.5 -16q50 0 74 25t24 65t-24 59.5t-66 19.5h-49l10 47h49q53 0 79.5 22.5t26.5 57.5t-24 53t-57 18q-34 0 -57.5 -11t-46.5 -29l13 57q22 15 46 23.5t57 8.5q57 0 93 -31t36 -83
q0 -47 -29.5 -76t-74.5 -35q35 -8 57.5 -32.5t22.5 -68.5z" />
    <glyph glyph-name="four.den" unicode="&#xe406;" horiz-adv-x="377" 
d="M259 105l-22 -105h-60l23 105h-213l9 44l268 303h67l-62 -298h62l-11 -49h-61zM210 154l50 232l-206 -232h156z" />
    <glyph glyph-name="five.den" unicode="&#xe407;" horiz-adv-x="334" 
d="M292 159q0 -77 -45.5 -121t-121.5 -44q-51 0 -82.5 15.5t-48.5 30.5l10 50q17 -16 45.5 -32t75.5 -16q52 0 79.5 30.5t27.5 79.5q0 44 -21.5 68.5t-64.5 24.5q-27 0 -45 -7.5t-27 -17.5h-42l50 231h238l-10 -51h-186l-28 -122q12 7 28.5 11.5t38.5 4.5q57 0 93 -34
t36 -101z" />
    <glyph glyph-name="six.den" unicode="&#xe408;" horiz-adv-x="376" 
d="M339 164q0 -38 -14 -69.5t-38 -55t-56 -36.5t-68 -13q-68 0 -109.5 40.5t-41.5 124.5q0 59 14 113.5t42.5 96t71.5 66.5t101 25q34 0 58 -6t41 -17l-6 -53q-38 25 -99 25q-67 0 -107.5 -48.5t-54.5 -123.5q21 32 52 49t73 17q64 0 102.5 -36t38.5 -99zM164 40q54 0 85 35
t31 86q0 42 -26 65t-64 23q-27 0 -49 -10t-37 -26.5t-23 -38.5t-8 -46q0 -41 25 -64.5t66 -23.5z" />
    <glyph glyph-name="seven.den" unicode="&#xe409;" horiz-adv-x="335" 
d="M73 0h-66l272 400h-230l11 51h296l-10 -45z" />
    <glyph glyph-name="eight.den" unicode="&#xe40a;" horiz-adv-x="367" 
d="M320 131q0 -32 -12.5 -57t-35 -43t-52.5 -27.5t-64 -9.5q-69 0 -111 31.5t-42 89.5q0 49 31.5 82t83.5 45q-29 11 -47 34t-18 58q0 28 11.5 50.5t32 38.5t48 25t60.5 9q28 0 52.5 -6.5t43 -20t29 -34t10.5 -48.5q0 -41 -25.5 -70.5t-69.5 -41.5q32 -12 53.5 -37.5
t21.5 -67.5zM190 262q39 0 65 20.5t26 58.5q0 36 -25 52t-55 16q-38 0 -64.5 -21.5t-26.5 -57.5q0 -34 23.5 -51t56.5 -17zM157 42q46 0 74.5 26.5t28.5 68.5q0 43 -27 62t-63 19q-47 0 -75.5 -26.5t-28.5 -68.5q0 -40 25.5 -60.5t65.5 -20.5z" />
    <glyph glyph-name="nine.den" unicode="&#xe40b;" horiz-adv-x="377" 
d="M349 291q0 -59 -14 -113.5t-42.5 -96t-71.5 -66.5t-101 -25q-35 0 -59 6t-41 16l6 54q18 -13 43.5 -19t56.5 -6q66 0 106 48t54 123q-20 -31 -51.5 -48t-72.5 -17q-64 0 -102.5 35.5t-38.5 98.5q0 38 14 70t38 55.5t56 36.5t68 13q69 0 110.5 -40.5t41.5 -124.5zM196 406
q-27 0 -48.5 -9.5t-36.5 -26t-23 -38.5t-8 -47q0 -42 26.5 -65.5t63.5 -23.5q27 0 49 10t37 26.5t23 39t8 46.5q0 41 -24.5 64.5t-66.5 23.5z" />
    <glyph glyph-name="zero.num" unicode="&#xe416;" horiz-adv-x="411" 
d="M438 544q0 -54 -14.5 -105t-42 -91t-68.5 -64.5t-94 -24.5q-29 0 -56.5 9t-49 30t-34.5 55t-13 84q0 54 14.5 105.5t42 91.5t68.5 64.5t94 24.5q29 0 56.5 -9t49 -30t34.5 -55.5t13 -84.5zM128 434q0 -35 7.5 -59t20.5 -38.5t30.5 -21t36.5 -6.5q40 0 68.5 22t47.5 56.5
t28 77t9 82.5q0 36 -8 60t-21 38.5t-30.5 21t-36.5 6.5q-39 0 -68 -22.5t-47.5 -57t-27.5 -77t-9 -82.5z" />
    <glyph glyph-name="one.num" unicode="&#xe417;" horiz-adv-x="245" 
d="M186 265h-60l81 379l-135 -94l14 65l145 101h51z" />
    <glyph glyph-name="two.num" unicode="&#xe418;" horiz-adv-x="349" 
d="M318 265h-285l13 58q81 46 132.5 83t80.5 68t40 58.5t11 55.5q0 40 -22 62.5t-64 22.5q-35 0 -62.5 -13t-50.5 -35l13 60q19 15 46 26.5t67 11.5q62 0 99 -35t37 -95q0 -38 -15 -71.5t-46.5 -66.5t-80.5 -67.5t-118 -72.5h216z" />
    <glyph glyph-name="three.num" unicode="&#xe419;" horiz-adv-x="341" 
d="M336 397q0 -61 -43 -99.5t-117 -38.5q-51 0 -84 15.5t-50 32.5l11 49q18 -17 47.5 -33t75.5 -16q50 0 74 25t24 65t-24 59.5t-66 19.5h-49l10 47h49q53 0 79.5 22.5t26.5 57.5t-24 53t-57 18q-34 0 -57.5 -11t-46.5 -29l13 57q22 15 46 23.5t57 8.5q57 0 93 -31t36 -83
q0 -47 -29.5 -76t-74.5 -35q35 -8 57.5 -32.5t22.5 -68.5z" />
    <glyph glyph-name="four.num" unicode="&#xe41a;" horiz-adv-x="377" 
d="M311 370l-22 -105h-60l23 105h-213l9 44l268 303h67l-62 -298h62l-11 -49h-61zM262 419l50 232l-206 -232h156z" />
    <glyph glyph-name="five.num" unicode="&#xe41b;" horiz-adv-x="334" 
d="M343 424q0 -77 -45.5 -121t-121.5 -44q-51 0 -82.5 15.5t-48.5 30.5l10 50q17 -16 45.5 -32t75.5 -16q52 0 79.5 30.5t27.5 79.5q0 44 -21.5 68.5t-64.5 24.5q-27 0 -45 -7.5t-27 -17.5h-42l50 231h238l-10 -51h-186l-28 -122q12 7 28.5 11.5t38.5 4.5q57 0 93 -34
t36 -101z" />
    <glyph glyph-name="six.num" unicode="&#xe41c;" horiz-adv-x="371" 
d="M391 429q0 -38 -14 -69.5t-38 -55t-56 -36.5t-68 -13q-68 0 -109.5 40.5t-41.5 124.5q0 59 14 113.5t42.5 96t71.5 66.5t101 25q34 0 58 -6t41 -17l-6 -53q-38 25 -99 25q-67 0 -107.5 -48.5t-54.5 -123.5q21 32 52 49t73 17q64 0 102.5 -36t38.5 -99zM216 305
q54 0 85 35t31 86q0 42 -26 65t-64 23q-27 0 -49 -10t-37 -26.5t-23 -38.5t-8 -46q0 -41 25 -64.5t66 -23.5z" />
    <glyph glyph-name="seven.num" unicode="&#xe41d;" horiz-adv-x="335" 
d="M124 265h-66l272 400h-230l11 51h296l-10 -45z" />
    <glyph glyph-name="eight.num" unicode="&#xe41e;" horiz-adv-x="367" 
d="M372 396q0 -32 -12.5 -57t-35 -43t-52.5 -27.5t-64 -9.5q-69 0 -111 31.5t-42 89.5q0 49 31.5 82t83.5 45q-29 11 -47 34t-18 58q0 28 11.5 50.5t32 38.5t48 25t60.5 9q28 0 52.5 -6.5t43 -20t29 -34t10.5 -48.5q0 -41 -25.5 -70.5t-69.5 -41.5q32 -12 53.5 -37.5
t21.5 -67.5zM242 527q39 0 65 20.5t26 58.5q0 36 -25 52t-55 16q-38 0 -64.5 -21.5t-26.5 -57.5q0 -34 23.5 -51t56.5 -17zM209 307q46 0 74.5 26.5t28.5 68.5q0 43 -27 62t-63 19q-47 0 -75.5 -26.5t-28.5 -68.5q0 -40 25.5 -60.5t65.5 -20.5z" />
    <glyph glyph-name="nine.num" unicode="&#xe41f;" horiz-adv-x="377" 
d="M401 556q0 -59 -14 -113.5t-42.5 -96t-71.5 -66.5t-101 -25q-35 0 -59 6t-41 16l6 54q18 -13 43.5 -19t56.5 -6q66 0 106 48t54 123q-20 -31 -51.5 -48t-72.5 -17q-64 0 -102.5 35.5t-38.5 98.5q0 38 14 70t38 55.5t56 36.5t68 13q69 0 110.5 -40.5t41.5 -124.5zM248 671
q-27 0 -48.5 -9.5t-36.5 -26t-23 -38.5t-8 -47q0 -42 26.5 -65.5t63.5 -23.5q27 0 49 10t37 26.5t23 39t8 46.5q0 41 -24.5 64.5t-66.5 23.5z" />
    <glyph glyph-name="commaaccent" unicode="&#xf6c3;" horiz-adv-x="449" 
d="M260 -104q0 -18 -7 -35t-18 -32t-25.5 -28t-29.5 -23h-51q26 16 44 37t31 47q-18 2 -27.5 14t-9.5 28q0 20 13 32.5t33 12.5t33.5 -13.5t13.5 -39.5z" />
    <glyph glyph-name="f_f" unicode="&#xfb00;" horiz-adv-x="620" 
d="M494 465l-117 -592h-65l117 592h-209l-117 -592h-65l117 592h-66l11 54h66l3 16q18 96 65 143.5t132 47.5q21 0 42 -3l-12 -57q-20 3 -39 3q-55 0 -82 -31.5t-41 -102.5l-3 -16h209l3 16q18 96 65 143.5t132 47.5q17 0 35.5 -2t29.5 -6l-12 -57q-8 3 -26.5 5.5t-35.5 2.5
q-55 0 -82 -31.5t-41 -102.5l-3 -16h148l-10 -54h-149z" />
    <glyph glyph-name="fi" unicode="&#xfb01;" 
d="M220 465l-117 -592h-65l117 592h-66l11 54h66l3 16q18 96 65 143.5t132 47.5q17 0 35.5 -2t29.5 -6l-12 -57q-8 3 -26.5 5.5t-35.5 2.5q-55 0 -82 -31.5t-41 -102.5l-3 -16h148l-10 -54h-149zM518 613q-20 0 -33 14t-13 32q0 19 13 33t33 14t33.5 -14t13.5 -33
q0 -18 -13.5 -32t-33.5 -14zM528 519l-110 -519h-65l110 519h65z" />
    <glyph glyph-name="fl" unicode="&#xfb02;" 
d="M220 465l-117 -592h-65l117 592h-66l11 54h66l3 16q18 96 65 143.5t132 47.5q17 0 35.5 -2t29.5 -6l-12 -57q-8 3 -26.5 5.5t-35.5 2.5q-55 0 -82 -31.5t-41 -102.5l-3 -16h148l-10 -54h-149zM570 717l-152 -717h-65l152 717h65z" />
    <glyph glyph-name="uniFEFF" unicode="&#xfeff;" horiz-adv-x="0" 
 />
    <glyph glyph-name="idotaccent" horiz-adv-x="218" 
d="M185 613q-20 0 -33 14t-13 32q0 19 13 33t33 14t33.5 -14t13.5 -33q0 -18 -13.5 -32t-33.5 -14zM195 519l-110 -519h-65l110 519h65z" />
    <glyph glyph-name="space_uni0326" horiz-adv-x="451" 
d="M260 -104q0 -18 -7 -35t-18 -32t-25.5 -28t-29.5 -23h-51q26 16 44 37t31 47q-18 2 -27.5 14t-9.5 28q0 20 13 32.5t33 12.5t33.5 -13.5t13.5 -39.5z" />
    <glyph glyph-name="one.sup" horiz-adv-x="245" 
d="M199 325h-60l81 379l-135 -94l14 65l145 101h51z" />
    <glyph glyph-name="two.sup" horiz-adv-x="349" 
d="M332 325h-285l13 58q81 46 132.5 83t80.5 68t40 58.5t11 55.5q0 40 -22 62.5t-64 22.5q-35 0 -62.5 -13t-50.5 -35l13 60q19 15 46 26.5t67 11.5q62 0 99 -35t37 -95q0 -38 -15 -71.5t-46.5 -66.5t-80.5 -67.5t-118 -72.5h216z" />
    <glyph glyph-name="three.sup" horiz-adv-x="341" 
d="M349 457q0 -61 -43 -99.5t-117 -38.5q-51 0 -84 15.5t-50 32.5l11 49q18 -17 47.5 -33t75.5 -16q50 0 74 25t24 65t-24 59.5t-66 19.5h-49l10 47h49q53 0 79.5 22.5t26.5 57.5t-24 53t-57 18q-34 0 -57.5 -11t-46.5 -29l13 57q22 15 46 23.5t57 8.5q57 0 93 -31t36 -83
q0 -47 -29.5 -76t-74.5 -35q35 -8 57.5 -32.5t22.5 -68.5z" />
    <glyph glyph-name="I.alt" horiz-adv-x="329" 
d="M133 717h265l-11 -48h-96l-134 -621h99l-11 -48h-265l11 48h96l133 621h-98z" />
    <glyph glyph-name="i.alt" horiz-adv-x="229" 
d="M206 613q-20 0 -33 14t-13 32q0 19 13 33t33 14q21 0 34 -14t13 -33q0 -18 -13 -32t-34 -14zM56 519h154l-110 -519h-65l100 472h-88z" />
    <glyph glyph-name="j.alt" horiz-adv-x="236" 
d="M213 613q-20 0 -33 14t-13 32q0 19 13 33t33 14t33.5 -14t13.5 -33q0 -18 -13.5 -32t-33.5 -14zM61 519h156l-119 -562q-7 -32 -18 -58.5t-29 -45.5t-43 -29.5t-60 -10.5q-26 0 -47.5 6t-35.5 16l12 55q11 -7 28.5 -13.5t43.5 -6.5q21 0 35 5.5t23.5 17t15.5 29t11 41.5
l108 509h-90z" />
    <glyph glyph-name="l.alt" horiz-adv-x="221" 
d="M90 717h154l-152 -717h-65l142 669h-89z" />
    <glyph glyph-name="dotlessi.alt" horiz-adv-x="229" 
d="M56 519h154l-110 -519h-65l100 472h-88z" />
    <glyph glyph-name="dotlessj.alt" horiz-adv-x="236" 
d="M61 519h156l-119 -562q-7 -32 -18 -58.5t-29 -45.5t-43 -29.5t-60 -10.5q-26 0 -47.5 6t-35.5 16l12 55q11 -7 28.5 -13.5t43.5 -6.5q21 0 35 5.5t23.5 17t15.5 29t11 41.5l108 509h-90z" />
    <glyph glyph-name="Iacute.alt" horiz-adv-x="329" 
d="M133 717h265l-11 -48h-96l-134 -621h99l-11 -48h-265l11 48h96l133 621h-98zM363 909h98l-152 -136h-67z" />
    <glyph glyph-name="Ibreve.alt" horiz-adv-x="329" 
d="M133 717h265l-11 -48h-96l-134 -621h99l-11 -48h-265l11 48h96l133 621h-98zM280 761q-38 0 -66 12t-44.5 32t-22.5 46.5t-1 56.5h65q-8 -45 11.5 -70.5t61.5 -25.5q38 0 64.5 24t37.5 72h65q-6 -30 -18.5 -56.5t-33 -47t-50 -32t-69.5 -11.5z" />
    <glyph glyph-name="Icircumflex.alt" horiz-adv-x="329" 
d="M133 717h265l-11 -48h-96l-134 -621h99l-11 -48h-265l11 48h96l133 621h-98zM294 862l-114 -99h-58l142 148h76l79 -148h-55z" />
    <glyph glyph-name="Idieresis.alt" horiz-adv-x="329" 
d="M133 717h265l-11 -48h-96l-134 -621h99l-11 -48h-265l11 48h96l133 621h-98zM173 797q-21 0 -33.5 13t-12.5 31q0 20 12.5 33.5t33.5 13.5q22 0 34.5 -13.5t12.5 -33.5q0 -18 -12.5 -31t-34.5 -13zM398 797q-21 0 -33.5 13t-12.5 31q0 20 12.5 33.5t33.5 13.5t34 -13.5
t13 -33.5q0 -18 -13 -31t-34 -13z" />
    <glyph glyph-name="Idotaccent.alt" horiz-adv-x="329" 
d="M133 717h265l-11 -48h-96l-134 -621h99l-11 -48h-265l11 48h96l133 621h-98zM287 797q-20 0 -33 13t-13 31q0 20 13 33.5t33 13.5q22 0 34.5 -13.5t12.5 -33.5q0 -18 -12.5 -31t-34.5 -13z" />
    <glyph glyph-name="Igrave.alt" horiz-adv-x="329" 
d="M133 717h265l-11 -48h-96l-134 -621h99l-11 -48h-265l11 48h96l133 621h-98zM243 773l-129 136h94l96 -136h-61z" />
    <glyph glyph-name="Imacron.alt" horiz-adv-x="329" 
d="M133 717h265l-11 -48h-96l-134 -621h99l-11 -48h-265l11 48h96l133 621h-98zM139 870h304l-11 -54h-305z" />
    <glyph glyph-name="Iogonek.alt" horiz-adv-x="329" 
d="M133 717h265l-11 -48h-96l-134 -621h99l-11 -48h-265l11 48h96l133 621h-98zM103 -192q-45 0 -70.5 22.5t-25.5 60.5q0 21 8.5 38.5t22 31t31 23.5t36.5 16h62q-20 -6 -38 -15t-31.5 -20.5t-22 -26t-8.5 -32.5q0 -23 15.5 -36t43.5 -13q13 0 23.5 2t21.5 6l-10 -46
q-8 -4 -23 -7.5t-35 -3.5z" />
    <glyph glyph-name="Itilde.alt" horiz-adv-x="329" 
d="M133 717h265l-11 -48h-96l-134 -621h99l-11 -48h-265l11 48h96l133 621h-98zM113 789q-1 57 28.5 90t78.5 33q27 0 46 -9t35.5 -20.5t33 -20.5t36.5 -9q46 0 52 63h48q1 -57 -25 -90.5t-76 -33.5q-26 0 -44.5 9.5t-35 20.5t-33 20.5t-38.5 9.5q-23 0 -39 -15.5t-19 -47.5
h-48v0z" />
    <glyph glyph-name="iacute.alt" horiz-adv-x="229" 
d="M56 519h154l-110 -519h-65l100 472h-88zM268 746h90l-149 -158h-58z" />
    <glyph glyph-name="ibreve.alt" horiz-adv-x="229" 
d="M56 519h154l-110 -519h-65l100 472h-88zM187 584q-36 0 -62 11.5t-42 30.5t-21 44t1 53h63q-9 -42 9.5 -65t55.5 -23q35 0 63 21.5t38 66.5h63q-6 -29 -19.5 -54t-34.5 -44t-49.5 -30t-64.5 -11z" />
    <glyph glyph-name="icircumflex.alt" horiz-adv-x="229" 
d="M56 519h154l-110 -519h-65l100 472h-88zM174 687l-117 -99h-56l141 148h76l80 -148h-56z" />
    <glyph glyph-name="idieresis.alt" horiz-adv-x="229" 
d="M56 519h154l-110 -519h-65l100 472h-88zM68 613q-21 0 -33 13.5t-12 32.5t12 32.5t33 13.5q22 0 34.5 -13.5t12.5 -32.5t-12.5 -32.5t-34.5 -13.5zM269 613q-21 0 -33.5 13.5t-12.5 32.5t12.5 32.5t33.5 13.5t33.5 -13.5t12.5 -32.5t-12.5 -32.5t-33.5 -13.5z" />
    <glyph glyph-name="igrave.alt" horiz-adv-x="229" 
d="M56 519h154l-110 -519h-65l100 472h-88zM150 588l-123 158h88l89 -158h-54z" />
    <glyph glyph-name="imacron.alt" horiz-adv-x="229" 
d="M56 519h154l-110 -519h-65l100 472h-88zM26 679h277l-11 -53h-277z" />
    <glyph glyph-name="iogonek.alt" horiz-adv-x="229" 
d="M56 519h154l-110 -519q-39 -13 -69 -35.5t-30 -58.5q0 -23 15.5 -36t43.5 -13q13 0 23.5 2t21.5 6l-10 -46q-8 -4 -23.5 -7.5t-34.5 -3.5q-42 0 -68.5 23t-26.5 65q0 45 30 75q27 27 65 38l98 463h-88zM206 613q-20 0 -33 14t-13 32q0 19 13 33t33 14q21 0 34 -14t13 -33
q0 -18 -13 -32t-34 -14z" />
    <glyph glyph-name="itilde.alt" horiz-adv-x="229" 
d="M56 519h154l-110 -519h-65l100 472h-88zM1 602q0 22 6 43t18.5 37t31.5 25.5t45 9.5q25 0 43 -8.5t33.5 -19t30.5 -19t34 -8.5q24 0 34 15t12 44h49q0 -22 -5.5 -42.5t-16.5 -37t-29.5 -26.5t-44.5 -10q-24 0 -41.5 8.5t-33 19t-31 19t-36.5 8.5q-49 0 -50 -58h-49v0z
" />
    <glyph glyph-name="jcircumflex.alt" horiz-adv-x="236" 
d="M61 519h156l-119 -562q-7 -32 -18 -58.5t-29 -45.5t-43 -29.5t-60 -10.5q-26 0 -47.5 6t-35.5 16l12 55q11 -7 28.5 -13.5t43.5 -6.5q21 0 35 5.5t23.5 17t15.5 29t11 41.5l108 509h-90zM180 688l-117 -99h-56l141 148h76l80 -148h-56z" />
    <glyph glyph-name="lacute.alt" horiz-adv-x="221" 
d="M90 717h154l-152 -717h-65l142 669h-89zM301 909h98l-152 -136h-67z" />
    <glyph glyph-name="lcaron.alt" horiz-adv-x="221" 
d="M270 528l64 189h77l-94 -189h-47zM90 717h154l-152 -717h-65l142 669h-89z" />
    <glyph glyph-name="lcommaaccent.alt" horiz-adv-x="221" 
d="M90 717h154l-152 -717h-65l142 669h-89zM83 -104q0 -18 -7 -35t-18 -32t-25.5 -28t-29.5 -23h-51q26 16 44 37t31 47q-18 2 -27.5 14t-9.5 28q0 20 13 32.5t33 12.5t33.5 -13.5t13.5 -39.5z" />
    <glyph glyph-name="space_uni0326.alt" horiz-adv-x="449" 
d="M372 641q0 -20 -13 -33t-33 -13t-33.5 13.5t-13.5 39.5q0 18 7 35t18 32t25.5 28t29.5 23h51q-51 -31 -75 -84q18 -2 27.5 -14t9.5 -27z" />
    <glyph glyph-name="one.alt" 
d="M456 0h-429l12 55h182l122 574l-215 -161l17 77l229 172h51l-139 -662h182z" />
    <glyph glyph-name="registered.alt" horiz-adv-x="618" 
d="M343 172q-59 0 -109 20.5t-87.5 57.5t-58.5 88t-21 113q0 60 21 110.5t58.5 87t87.5 57t109 20.5q60 0 110.5 -20.5t88 -57t58.5 -87t21 -110.5q0 -62 -21 -113t-58.5 -88t-88 -57.5t-110.5 -20.5zM343 213q52 0 95 18t73.5 49.5t47.5 75t17 95.5q0 51 -17 93.5t-47.5 74
t-73.5 49t-95 17.5q-51 0 -94 -17.5t-73.5 -48.5t-47.5 -74t-17 -94q0 -52 17 -96t47.5 -75.5t73.5 -49t94 -17.5zM251 585h94q48 0 75 -19t27 -60q0 -32 -17 -51.5t-43 -27.5l69 -113h-49l-65 107h-46v-107h-45v271zM296 547v-89h44q28 0 44.5 10.5t16.5 36.5
q0 23 -14 32.5t-42 9.5h-49z" />
    <glyph glyph-name="caron.alt" horiz-adv-x="449" 
d="M240 528l64 189h77l-94 -189h-47z" />
    <glyph glyph-name="questiondown.uc" horiz-adv-x="454" 
d="M14.0283 164.034q0 54.9961 19.999 90.9941t50.9971 61.4961t67.4961 44.4971q36.4971 18.999 69.4951 39.498q32.998 20.498 56.9971 47.9971q23.998 27.498 29.998 68.4951l4 20.999h55.9961l-2 -19.999q-5.99902 -55.9961 -29.998 -90.4941
q-23.998 -34.498 -55.4961 -57.9961q-31.498 -23.499 -66.9961 -40.498t-65.4961 -36.9971q-29.998 -19.999 -49.4971 -47.9971q-19.499 -27.999 -19.499 -73.9961q0 -24.998 7.5 -46.4971q7.49902 -21.499 24.998 -37.998t45.9971 -25.998
q28.499 -9.49902 70.4961 -9.49902q33.998 0 69.9961 6.99902q35.9971 7 65.9961 19.999l-12 -58.9961q-28.998 -13.999 -65.9961 -20.499q-36.9971 -6.5 -71.9951 -6.5q-100.994 0 -150.991 47.4971t-49.9971 125.493zM351.008 722q23.999 0 38.998 -14.999t14.999 -36.998
q0 -22.999 -14.999 -37.998t-38.998 -14.999q-22.998 0 -37.9971 14.999t-14.999 37.998q0 21.999 14.999 36.998t37.9971 14.999z" />
    <glyph glyph-name="exclamdown.uc" horiz-adv-x="262" 
d="M42.0146 13.043l118.993 524.968h52.9961l-105.993 -524.968h-65.9961zM212.005 722q23.998 0 38.9971 -14.999t14.999 -36.998q0 -22.999 -14.999 -37.998t-38.9971 -14.999q-22.999 0 -37.998 14.999t-14.999 37.998q0 21.999 14.999 36.998t37.998 14.999z" />
    <glyph glyph-name="hyphen.uc" horiz-adv-x="363" 
d="M100 384h234l-12 -62h-235z" />
    <glyph glyph-name="endash.uc" horiz-adv-x="575" 
d="M89 380h444l-13 -57h-443z" />
    <glyph glyph-name="emdash.uc" horiz-adv-x="920" 
d="M89 380h813l-12 -57h-813z" />
    <glyph glyph-name="guilsinglleft.uc" horiz-adv-x="293" 
d="M115 319l97 -190h-64l-100 195l180 195h71z" />
    <glyph glyph-name="guilsinglright.uc" horiz-adv-x="293" 
d="M83 129h-72l185 199l-97 191h63l101 -195z" />
    <glyph glyph-name="guillemotleft.uc" horiz-adv-x="493" 
d="M316 318l96 -189h-63l-100 195l179 195h72zM115 319l97 -190h-64l-100 195l180 195h71z" />
    <glyph glyph-name="guillemotright.uc" horiz-adv-x="493" 
d="M284 129h-71l184 200l-96 190h63l100 -195zM83 129h-72l185 199l-97 191h63l101 -195z" />
    <glyph glyph-name="parenleft.uc" horiz-adv-x="325" 
d="M157 -79q-35 54 -59.5 134.5t-24.5 181.5q0 172 66 305t183 214h76q-57 -39 -105 -92t-82.5 -119.5t-53.5 -145.5t-19 -170q0 -45 6.5 -88.5t18 -83.5t26.5 -74.5t33 -61.5h-65z" />
    <glyph glyph-name="parenright.uc" horiz-adv-x="330" 
d="M199.01 754.995q34.998 -53.9971 59.4961 -134.492q24.499 -80.4951 24.499 -181.488q0 -171.989 -65.9961 -304.981t-182.989 -213.987h-75.9951q56.9961 38.998 104.993 91.9951q47.9971 52.9961 82.4951 119.492t53.4971 145.491t18.999 169.989
q0 44.998 -6.5 88.4951t-17.999 83.4951q-11.499 39.9971 -26.498 74.4951t-32.998 61.4961h64.9961z" />
    <glyph glyph-name="bracketleft.uc" horiz-adv-x="385" 
d="M200 756h253l-12 -55h-189l-154 -724h190l-12 -56h-253z" />
    <glyph glyph-name="bracketright.uc" horiz-adv-x="385" 
d="M223.012 -79.9541h-252.984l12 54.9971h188.988l153.99 723.956h-189.988l11.999 55.9961h252.984z" />
    <glyph glyph-name="braceleft.uc" horiz-adv-x="412" 
d="M292 -75q-39 -6 -68 -6q-129 0 -129 107q0 32 11 59.5t23.5 53.5t23.5 51t11 51q0 29 -20.5 47.5t-73.5 23.5l11 54q36 3 60.5 11.5t40.5 21t24.5 29.5t12.5 38q3 19 2.5 38t-2 39t-1.5 40t4 40q11 63 54 98t120 35q18 0 37 -1.5t39 -6.5l-11 -52q-19 5 -35.5 6t-31.5 1
q-51 0 -77.5 -24t-34.5 -63q-4 -19 -3.5 -37.5t2 -37t2.5 -37.5t-3 -39q-3 -21 -10.5 -40t-21.5 -35.5t-36 -30.5t-54 -23q38 -14 53 -37t15 -55q0 -30 -11 -55.5t-23.5 -50.5t-23.5 -50t-11 -54q0 -30 20.5 -46.5t65.5 -16.5q25 0 60 6l-11 -52v0z" />
    <glyph glyph-name="braceright.uc" horiz-adv-x="417" 
d="M166.018 747.995q38.998 6 67.9961 6q128.992 0 128.992 -106.993q0 -31.998 -10.999 -59.4971q-11 -27.498 -23.499 -53.4961q-12.499 -25.999 -23.498 -50.9971q-11 -24.999 -11 -50.9971q0 -28.998 20.499 -47.4971t73.4951 -23.498l-10.999 -53.9971
q-35.998 -3 -60.4961 -11.499q-24.499 -8.5 -40.498 -20.999t-24.498 -29.498q-8.5 -16.999 -12.499 -37.998q-3 -18.999 -2.5 -37.9971q0.5 -18.999 2 -38.998t1.5 -39.998q0 -19.998 -4 -39.9971q-10.999 -62.9961 -53.9971 -97.9941q-42.9971 -34.998 -119.992 -34.998
q-17.999 0 -36.998 1.5t-38.9971 6.5l10.999 51.9971q18.999 -5 35.498 -6t31.498 -1q50.9961 0 77.4951 23.998q26.498 23.999 34.498 62.9961q3.99902 18.999 3.49902 37.498t-1.99902 36.998q-1.5 18.499 -2.5 37.498q-1 18.998 3 38.9971q2.99902 20.999 10.499 39.998
q7.49902 18.998 21.499 35.4971q13.999 16.499 35.9971 30.498q21.999 14 53.9971 22.999q-37.998 13.999 -52.9971 36.998q-14.999 22.998 -14.999 54.9961q0 29.998 10.999 55.4971q11 25.498 23.499 50.4971q12.499 24.998 23.498 49.9971q11 24.998 11 53.9961
q0 29.998 -20.499 46.4971t-65.4961 16.499q-24.998 0 -59.9961 -5.99902l10.999 51.9961v0z" />
    <glyph glyph-name="slash.uc" horiz-adv-x="349" 
d="M-15 -40l351 796h63l-351 -796h-63z" />
    <glyph glyph-name="backslash.uc" horiz-adv-x="349" 
d="M21 756h61l289 -796h-62z" />
    <glyph glyph-name="bar.uc" horiz-adv-x="281" 
d="M175 756v-796h-63v796h63z" />
    <glyph glyph-name="at.uc" horiz-adv-x="952" 
d="M709 -56q-14 -6 -36 -12.5t-50 -12.5t-61.5 -9.5t-69.5 -3.5q-92 0 -172.5 25.5t-140 75.5t-94 124t-34.5 171q0 98 34.5 180t96 140.5t146.5 91t185 32.5q87 0 163.5 -24.5t133 -71t89.5 -112.5t33 -150q0 -55 -14.5 -103t-42 -83.5t-66.5 -56t-88 -20.5q-59 0 -90 28.5
t-40 68.5q-24 -48 -64 -72.5t-88 -24.5q-30 0 -58.5 10t-50 32t-35 57t-13.5 84q0 45 14 86t40 72.5t62.5 50.5t81.5 19q51 0 85 -25.5t47 -79.5l27 80h46l-39 -214q-3 -20 -2 -41t10 -38t26.5 -28.5t46.5 -11.5t55.5 13.5t46.5 39t31.5 63.5t11.5 86q0 73 -28.5 131.5
t-78 98.5t-115.5 61.5t-141 21.5q-85 0 -157.5 -27t-126 -77.5t-83.5 -121.5t-30 -158t29.5 -152t81 -109t121.5 -66t151 -22q77 0 133 13.5t81 26.5v-56zM345 300q0 -35 9 -59t24 -38t34 -20t40 -6q34 0 60.5 15t44 40t26.5 58t9 69q0 67 -30.5 95.5t-74.5 28.5
q-35 0 -61.5 -15.5t-44.5 -41t-27 -58.5t-9 -68z" />
    <glyph glyph-name="grave.uc" horiz-adv-x="449" 
d="M417 773l-129 136h94l96 -136h-61z" />
    <glyph glyph-name="dieresis.uc" horiz-adv-x="449" 
d="M293 797q-21 0 -33.5 13t-12.5 31q0 20 12.5 33.5t33.5 13.5q22 0 34.5 -13.5t12.5 -33.5q0 -18 -12.5 -31t-34.5 -13zM518 797q-21 0 -33.5 13t-12.5 31q0 20 12.5 33.5t33.5 13.5t34 -13.5t13 -33.5q0 -18 -13 -31t-34 -13z" />
    <glyph glyph-name="macron.uc" horiz-adv-x="449" 
d="M260 870h304l-11 -54h-305z" />
    <glyph glyph-name="acute.uc" horiz-adv-x="449" 
d="M442 909h98l-152 -136h-67z" />
    <glyph glyph-name="circumflex.uc" horiz-adv-x="449" 
d="M413 862l-114 -99h-58l142 148h76l79 -148h-55z" />
    <glyph glyph-name="caron.uc" horiz-adv-x="449" 
d="M407 763h-76l-79 148h55l71 -99l113 99h58z" />
    <glyph glyph-name="breve.uc" horiz-adv-x="449" 
d="M403 760q-38 0 -66 12t-44.5 32t-22.5 46.5t-1 56.5h65q-8 -45 11.5 -70.5t61.5 -25.5q38 0 64.5 24t37.5 72h65q-6 -30 -18.5 -56.5t-33 -47t-50 -32t-69.5 -11.5z" />
    <glyph glyph-name="dotaccent.uc" horiz-adv-x="449" 
d="M394 797q-20 0 -33 13t-13 31q0 20 13 33.5t33 13.5q22 0 34.5 -13.5t12.5 -33.5q0 -18 -12.5 -31t-34.5 -13z" />
    <glyph glyph-name="ring.uc" horiz-adv-x="449" 
d="M406 752q-48 0 -79 30.5t-31 78.5t31 78.5t79 30.5t79.5 -30.5t31.5 -78.5t-31.5 -78.5t-79.5 -30.5zM406 796q29 0 47 18t18 47t-18 47.5t-47 18.5q-28 0 -46 -18.5t-18 -47.5t18 -47t46 -18z" />
    <glyph glyph-name="tilde.uc" horiz-adv-x="449" 
d="M228 789q-1 57 28.5 90t78.5 33q27 0 46 -9t35.5 -20.5t33 -20.5t36.5 -9q46 0 52 63h48q1 -57 -25 -90.5t-76 -33.5q-26 0 -44.5 9.5t-35 20.5t-33 20.5t-38.5 9.5q-23 0 -39 -15.5t-19 -47.5h-48v0z" />
    <glyph glyph-name="hungarumlaut.uc" horiz-adv-x="449" 
d="M246 773l93 136h84l-117 -136h-60zM431 773l92 136h85l-118 -136h-59z" />
    <glyph glyph-name="Cacute.pl" horiz-adv-x="653" 
d="M359 -10q-63 0 -119 18.5t-97.5 57.5t-65.5 99t-24 142q0 88 28 164.5t79.5 133t123.5 89t160 32.5q67 0 120.5 -17.5t84.5 -46.5l-15 -65q-36 34 -87.5 50.5t-107.5 16.5q-73 0 -131 -28t-98.5 -76.5t-62 -112.5t-21.5 -136q0 -71 18.5 -120.5t51 -80t76 -44.5t93.5 -14
q56 0 105 16t94 45l-14 -68q-30 -23 -80 -39t-111 -16zM412 773l71 136h91l-108 -136h-54z" />
    <glyph glyph-name="Euro.prop" horiz-adv-x="627" 
d="M533 11q-18 -9 -48.5 -15t-67.5 -6q-54 0 -103 14.5t-88 47t-65 83.5t-32 124h-94l11 52h81q0 26 2.5 51t7.5 48h-70l12 53h72q18 58 50.5 106.5t77 83.5t100 54t121.5 19q55 0 94.5 -13.5t58.5 -28.5l-12 -59q-21 17 -59.5 29.5t-88.5 12.5q-53 0 -96.5 -15t-78 -42
t-59.5 -64.5t-40 -82.5h237l-12 -53h-239q-5 -24 -7.5 -49.5t-2.5 -49.5h229l-12 -52h-215q6 -61 26 -101.5t50 -64.5t68.5 -34t82.5 -10q38 0 69 5.5t52 14.5l-12 -58v0z" />
    <glyph glyph-name="Nacute.pl" horiz-adv-x="722" 
d="M581 0h-90l-259 641l-136 -641h-66l153 717h88l260 -644l137 644h65zM441 773l71 136h91l-108 -136h-54z" />
    <glyph glyph-name="Oacute.pl" horiz-adv-x="728" 
d="M350 -10q-68 0 -123 22t-93.5 63t-59.5 99.5t-21 131.5q0 93 28.5 170t77.5 132.5t114.5 86.5t139.5 31q68 0 123 -22t94 -62.5t60 -99.5t21 -132q0 -93 -28.5 -170t-77.5 -132.5t-115 -86.5t-140 -31zM126 304q0 -121 60.5 -186.5t166.5 -65.5q60 0 112 27t90.5 75
t60 114.5t21.5 144.5q0 121 -60 186t-166 65q-61 0 -113 -27t-90.5 -75t-60 -114t-21.5 -144zM397 773l71 136h91l-108 -136h-54z" />
    <glyph glyph-name="Sacute.pl" horiz-adv-x="574" 
d="M267 -10q-53 0 -95 9.5t-74 23.5t-53 30t-32 30l13 63q15 -17 38 -33.5t54.5 -30t69.5 -22t83 -8.5q85 0 132.5 33.5t47.5 104.5q0 31 -10.5 53t-31 38t-49.5 28.5t-66 25.5q-33 12 -68 26t-63 35.5t-46 53.5t-18 81q0 91 66.5 143t183.5 52q78 0 129.5 -20.5t79.5 -43.5
l-13 -63q-37 29 -87 47t-110 18q-87 0 -134.5 -34.5t-47.5 -94.5q0 -32 13 -53t34 -36t48 -26t56 -21q35 -12 71 -26t65.5 -36.5t48.5 -56.5t19 -86q0 -98 -67 -151t-187 -53zM324 773l71 136h91l-108 -136h-54z" />
    <glyph glyph-name="Zacute.pl" horiz-adv-x="601" 
d="M496 0h-504l12 52l538 603h-401l14 62h493l-11 -53l-539 -602h412zM360 773l71 136h91l-108 -136h-54z" />
    <glyph glyph-name="acute.pl" horiz-adv-x="449" 
d="M279 588l73 158h80l-106 -158h-47z" />
    <glyph glyph-name="acute.ucpl" horiz-adv-x="449" 
d="M355 773l71 136h91l-108 -136h-54z" />
    <glyph glyph-name="approxequal.prop" horiz-adv-x="620" 
d="M61 358q6 31 18.5 60t33 51t49.5 35.5t68 13.5q43 0 71 -15.5t50.5 -33.5t45 -33.5t54.5 -15.5q36 0 63 24.5t43 79.5h56q-6 -30 -18.5 -59t-32.5 -51.5t-49 -36t-68 -13.5q-43 0 -71 15.5t-50.5 33.5t-45 33.5t-53.5 15.5q-35 0 -63.5 -23.5t-45.5 -80.5h-55zM16 148
q6 31 18.5 60t33.5 51t50 35.5t68 13.5q43 0 71 -15t50.5 -33.5t44.5 -33.5t54 -15q37 0 64 24t42 80h57q-6 -30 -18.5 -59t-32.5 -51.5t-49 -36.5t-68 -14q-43 0 -71 15.5t-50.5 34t-45 34t-53.5 15.5q-35 0 -63.5 -24t-45.5 -81h-56z" />
    <glyph glyph-name="cacute.pl" horiz-adv-x="484" 
d="M267 -10q-50 0 -93 14t-74.5 43.5t-49.5 74t-18 105.5q0 66 20.5 121.5t57.5 95.5t89 62.5t115 22.5q48 0 84.5 -11t62.5 -31l-13 -56q-63 41 -136 41q-52 0 -92 -18.5t-67 -51t-40.5 -76.5t-13.5 -95q0 -93 48 -138.5t129 -45.5q32 0 66 7.5t66 22.5l-12 -60
q-57 -27 -129 -27zM278 588l73 158h80l-106 -158h-47z" />
    <glyph glyph-name="cent.prop" horiz-adv-x="513" 
d="M288 -10h-13.5t-13.5 1l-27 -131h-55l29 140q-69 19 -112.5 74.5t-43.5 152.5q0 64 19 118.5t54.5 94t85 63t110.5 26.5l25 115h55l-25 -117q65 -9 105 -40l-12 -56q-64 41 -136 41q-52 0 -92 -18.5t-67 -51t-41 -76.5t-14 -95q0 -93 48.5 -138.5t129.5 -45.5
q32 0 66 7.5t66 22.5l-13 -60q-57 -27 -128 -27z" />
    </font>
</defs>
</svg>
