<?xml version="1.0" standalone="no"?>
<!DOCTYPE svg PUBLIC "-//W3C//DTD SVG 1.1//EN" "http://www.w3.org/Graphics/SVG/1.1/DTD/svg11.dtd" >
<svg xmlns="http://www.w3.org/2000/svg" xmlns:xlink="http://www.w3.org/1999/xlink" version="1.1">
<metadata>
Created by FontForge 20170731 at Wed Sep 27 22:36:39 2017
 By Aleksey,,,
Copyright (C)2017 Commercial Type.
</metadata>
<defs>
<font id="YSText-Light" horiz-adv-x="550" >
  <font-face 
    font-family="YS Text Light"
    font-weight="300"
    font-stretch="normal"
    units-per-em="1000"
    panose-1="0 0 0 0 0 0 0 0 0 0"
    ascent="750"
    descent="-250"
    x-height="519"
    cap-height="717"
    bbox="-300 -222 1352 970"
    underline-thickness="46"
    underline-position="-188"
    unicode-range="U+000D-FEFF"
  />
<missing-glyph horiz-adv-x="208" 
 />
    <glyph glyph-name=".notdef" horiz-adv-x="208" 
 />
    <glyph glyph-name=".null" horiz-adv-x="0" 
 />
    <glyph glyph-name="nonmarkingreturn" unicode="&#xd;" horiz-adv-x="202" 
 />
    <glyph glyph-name="space" unicode=" " horiz-adv-x="229" 
 />
    <glyph glyph-name="exclam" unicode="!" horiz-adv-x="265" 
d="M167 711l-6 -532h-54l-7 532h67zM133 -5q-23 0 -37.5 15t-14.5 36q0 22 14.5 37t37.5 15t37 -15t14 -37q0 -21 -14 -36t-37 -15z" />
    <glyph glyph-name="quotedbl" unicode="&#x22;" horiz-adv-x="377" 
d="M77 717h76l-9 -186h-58zM224 717h76l-9 -186h-58z" />
    <glyph glyph-name="numbersign" unicode="#" horiz-adv-x="671" 
d="M394 216h-167l-35 -216h-60l35 216h-127v53h136l32 198h-141v53h150l32 197h60l-32 -197h167l32 197h60l-32 -197h127v-53h-136l-32 -198h141v-53h-150l-35 -216h-60zM403 269l32 198h-167l-32 -198h167z" />
    <glyph glyph-name="dollar" unicode="$" 
d="M502 187q0 -50 -15.5 -85t-42.5 -58t-62.5 -35.5t-75.5 -16.5v-123h-63v121q-39 1 -71 7.5t-56.5 15.5t-41 19t-25.5 18v61q12 -9 32 -19.5t47.5 -20t61 -16t71.5 -6.5q37 0 69 8t55 24.5t36 43t13 63.5q0 35 -11 58t-33 39t-53.5 27t-73.5 23q-38 10 -75.5 24t-67.5 36
t-48.5 55.5t-18.5 84.5q0 82 48.5 130t138.5 58v117h64v-114q31 -1 56 -5t44 -9.5t33.5 -12t25.5 -12.5v-60q-28 16 -73 28t-103 12q-80 0 -123.5 -31.5t-43.5 -97.5q0 -33 12.5 -55.5t33.5 -38.5t50 -26t62 -19q37 -11 76.5 -23.5t72.5 -34.5t54 -58.5t21 -95.5z" />
    <glyph glyph-name="percent" unicode="%" horiz-adv-x="650" 
d="M57 -10l476 736h60l-476 -736h-60zM294 544q0 -45 -11.5 -79t-31 -56.5t-45 -34t-54.5 -11.5t-54 10.5t-44 32.5t-30 55.5t-11 78.5t11 79t30 57t44 34.5t54 11.5t54.5 -11t45 -33t31 -55.5t11.5 -78.5zM72 542q0 -67 21 -98t59 -31q39 0 60.5 31t21.5 98q0 68 -21.5 99
t-60.5 31q-38 0 -59 -31t-21 -99zM637 175q0 -45 -11 -79t-30.5 -56.5t-45 -34t-54.5 -11.5t-54.5 11t-44.5 32.5t-30 55t-11 78.5t11 79t30 57t44.5 34.5t54.5 11.5t54.5 -11t45 -33t30.5 -55.5t11 -78.5zM416 173q0 -67 21 -98t59 -31q39 0 60.5 31t21.5 98q0 68 -21.5 99
t-60.5 31q-38 0 -59 -31t-21 -99z" />
    <glyph glyph-name="ampersand" unicode="&#x26;" horiz-adv-x="767" 
d="M676 12q-44 0 -81.5 15.5t-75.5 43.5q-45 -36 -103 -58.5t-133 -22.5q-62 0 -107.5 15.5t-75 42.5t-43.5 63t-14 76q0 38 11.5 67.5t31.5 52.5t47 40.5t58 30.5q-37 38 -60.5 81.5t-23.5 95.5q0 34 12 65.5t35.5 54.5t58.5 37t81 14t81 -13.5t59 -36.5t36 -54t12 -66
q0 -41 -15 -71.5t-40 -53t-57 -39.5t-66 -32l137 -132q20 -19 39 -37.5t38 -35.5q38 44 60 94.5t30 98.5l59 -17q-10 -51 -35 -107.5t-67 -106.5q28 -20 57.5 -32.5t61.5 -12.5q21 0 37.5 3.5t21.5 5.5v-56q-11 -5 -27 -9t-40 -4zM175 555q0 -24 7.5 -45t19.5 -40t27.5 -36
t31.5 -32q35 15 63.5 30t49 33t31.5 40t11 51q0 46 -31 78.5t-91 32.5q-30 0 -52.5 -9t-37 -24.5t-22 -36t-7.5 -42.5zM110 189q0 -30 10.5 -55.5t32 -44t55 -29.5t79.5 -11q57 0 102.5 16.5t81.5 44.5q-21 19 -43.5 39.5t-46.5 43.5l-148 143q-54 -21 -88.5 -55.5
t-34.5 -91.5z" />
    <glyph glyph-name="quotesingle" unicode="'" horiz-adv-x="230" 
d="M77 717h76l-9 -186h-58z" />
    <glyph glyph-name="parenleft" unicode="(" horiz-adv-x="334" 
d="M231 -139q-75 89 -113 203.5t-38 242.5q0 63 9.5 126t28.5 121.5t47 109.5t66 92h67q-38 -39 -67 -90t-48.5 -109t-29 -121t-9.5 -126q0 -128 38.5 -243t115.5 -206h-67z" />
    <glyph glyph-name="parenright" unicode=")" horiz-adv-x="334" 
d="M103.014 -139q74.9961 89 112.993 203.5q37.998 114.5 37.998 242.5q0 63 -9.49902 126q-9.5 63 -28.499 121.5q-18.998 58.5 -46.9971 109.5q-27.998 51 -65.9961 92h-66.9951q37.9971 -39 66.9951 -90q28.999 -51 48.4971 -109q19.499 -58 28.999 -121
q9.49902 -63 9.49902 -126q0 -128 -38.498 -243q-38.4971 -115 -115.492 -206h66.9951z" />
    <glyph glyph-name="asterisk" unicode="*" horiz-adv-x="427" 
d="M290 378l-76 126l-76 -126l-51 38l95 112l-140 34l19 59l133 -56l-12 146h63l-12 -146l132 56l20 -59l-140 -35l95 -111z" />
    <glyph glyph-name="plus" unicode="+" 
d="M306 310v-218h-62v218h-200v54h200v219h62v-219h200v-54h-200z" />
    <glyph glyph-name="comma" unicode="," horiz-adv-x="224" 
d="M55 -101q18 21 32 49.5t16 48.5q-19 3 -30.5 16.5t-11.5 33.5q0 21 14 36t37 15q24 0 39 -16t15 -44q0 -18 -5.5 -38.5t-14 -39t-19 -35t-19.5 -26.5h-53z" />
    <glyph glyph-name="hyphen" unicode="-" horiz-adv-x="360" 
d="M60 333h240v-62h-240v62z" />
    <glyph glyph-name="period" unicode="." horiz-adv-x="224" 
d="M113 -5q-24 0 -39 15t-15 37q0 23 15 38t39 15q23 0 38 -15t15 -38q0 -22 -15 -37t-38 -15z" />
    <glyph glyph-name="slash" unicode="/" horiz-adv-x="379" 
d="M0 -120l317 876h62l-317 -876h-62z" />
    <glyph glyph-name="zero" unicode="0" 
d="M277 -10q-53 0 -96.5 22.5t-75 68t-49 115t-17.5 163.5t17.5 163t49 114.5t75 67.5t96.5 22t96.5 -22t74.5 -67t48 -113.5t17 -162.5q0 -93 -17 -163t-48 -116t-74.5 -69t-96.5 -23zM276 49q39 0 70 17t52 54.5t32.5 96t11.5 141.5t-11 141.5t-32.5 96t-52 54.5t-69.5 17
t-70.5 -17t-53 -54.5t-33 -96t-11.5 -141.5t11.5 -141.5t33 -96t52.5 -54.5t70 -17z" />
    <glyph glyph-name="one" unicode="1" 
d="M367 0h-68v631l-213 -160v76l225 170h56v-717z" />
    <glyph glyph-name="two" unicode="2" 
d="M502 0h-451v74q103 82 174 144t115 113t63 95.5t19 91.5q0 31 -9 57.5t-28 46.5t-48 31.5t-68 11.5q-60 0 -109.5 -28.5t-87.5 -73.5v77q35 39 84 63t115 24q55 0 97 -15.5t70 -42.5t42 -64.5t14 -81.5q0 -55 -21 -105t-65.5 -103t-114 -114t-166.5 -137h375v-64z" />
    <glyph glyph-name="three" unicode="3" 
d="M506 202q0 -48 -18 -87t-51 -67t-78.5 -43t-100.5 -15q-72 0 -124 19.5t-81 48.5v77q31 -34 82.5 -59t123.5 -25q85 0 130 42t45 108q0 67 -43 105t-128 38h-93v64h98q64 0 102 34.5t38 97.5q0 54 -34.5 89.5t-106.5 35.5q-34 0 -62 -7t-51.5 -18.5t-43.5 -27t-38 -33.5
v74q33 32 82 53t114 21q49 0 88 -13.5t66 -37.5t41.5 -58t14.5 -74q0 -37 -11 -65t-29.5 -48.5t-42 -33t-48.5 -18.5q31 -5 60 -19t51 -36.5t35 -53t13 -68.5z" />
    <glyph glyph-name="four" unicode="4" 
d="M424 176v-176h-67v176h-330v49l310 492h87v-483h98v-58h-98zM357 234v407l-259 -407h259z" />
    <glyph glyph-name="five" unicode="5" 
d="M493 232q0 -53 -16.5 -97.5t-48 -76.5t-77.5 -50t-104 -18q-66 0 -114 18.5t-79 44.5v76q32 -32 78.5 -55t114.5 -23q43 0 76 13.5t55 37.5t33 57t11 72q0 43 -12 74t-34 51t-51.5 29.5t-64.5 9.5q-48 0 -79 -14.5t-48 -30.5h-54v367h384v-64h-322v-238q21 15 53 27
t77 12q46 0 86.5 -13.5t70.5 -41.5t47.5 -69.5t17.5 -97.5z" />
    <glyph glyph-name="six" unicode="6" 
d="M519 235q0 -55 -18 -100t-50 -77.5t-75 -50t-94 -17.5q-118 0 -182.5 79t-64.5 240q0 93 16.5 170t51.5 132t89 85.5t130 30.5q51 0 87 -10.5t65 -25.5v-66q-62 40 -151 40q-56 0 -96 -22.5t-66.5 -62t-40.5 -94t-17 -118.5q32 56 80 83t105 27q49 0 91 -16.5t73 -48
t49 -76.5t18 -102zM280 50q34 0 65 12.5t53.5 36t36 57.5t13.5 78q0 43 -13 77.5t-35 58.5t-51.5 36.5t-61.5 12.5q-37 0 -68.5 -12.5t-54.5 -36.5t-36 -58.5t-13 -78.5q0 -41 11.5 -74.5t33.5 -57.5t52 -37.5t68 -13.5z" />
    <glyph glyph-name="seven" unicode="7" 
d="M186 0h-74l318 653h-380v64h452v-60z" />
    <glyph glyph-name="eight" unicode="8" 
d="M513 196q0 -48 -18 -86.5t-49.5 -65t-74.5 -40.5t-94 -14t-95 13.5t-75.5 40t-49.5 64t-18 85.5q0 72 39.5 120.5t105.5 68.5q-54 18 -86.5 58t-32.5 103q0 44 16 78t44.5 57.5t67.5 35.5t85 12q44 0 82.5 -11.5t67 -34.5t45 -56.5t16.5 -78.5q0 -63 -32.5 -103.5
t-85.5 -59.5q64 -20 103 -66.5t39 -119.5zM278 409q30 0 56 8.5t45.5 24.5t30.5 39.5t11 54.5q0 63 -40 97t-103 34q-31 0 -58 -8.5t-46.5 -25.5t-30.5 -41.5t-11 -55.5q0 -30 11.5 -54t31.5 -40t46.5 -24.5t56.5 -8.5zM277 49q36 0 66.5 10.5t53 31t35 49t12.5 64.5t-13 64
t-35.5 47.5t-52.5 29.5t-65 10q-36 0 -67.5 -10t-54 -29.5t-35.5 -47.5t-13 -64t12.5 -64.5t35 -49t53.5 -31t68 -10.5z" />
    <glyph glyph-name="nine" unicode="9" 
d="M522 414q0 -98 -16.5 -176.5t-51.5 -133.5t-90 -84.5t-133 -29.5q-51 0 -88 10t-66 26v65q31 -19 70.5 -30t83.5 -11q58 0 99 22t67.5 61.5t40 94.5t16.5 120q-31 -53 -79 -78t-105 -25q-49 0 -91.5 16t-73.5 47t-48.5 75.5t-17.5 100.5q0 54 18 99t49.5 77t74.5 49.5
t94 17.5q118 0 182.5 -77.5t64.5 -235.5zM277 666q-35 0 -65.5 -12t-53.5 -35t-36 -56.5t-13 -76.5t13 -76.5t35.5 -57t51.5 -36t62 -12.5q37 0 68 12.5t54 36t36 57.5t13 77q0 40 -12 73t-33.5 56.5t-52 36.5t-67.5 13z" />
    <glyph glyph-name="colon" unicode=":" horiz-adv-x="224" 
d="M113 -5q-24 0 -39 15t-15 37q0 23 15 38t39 15q23 0 38 -15t15 -38q0 -22 -15 -37t-38 -15zM113 379q-24 0 -39 15t-15 37q0 23 15 38t39 15q23 0 38 -15t15 -38q0 -22 -15 -37t-38 -15z" />
    <glyph glyph-name="semicolon" unicode=";" horiz-adv-x="224" 
d="M53 -101q18 21 32 49.5t16 48.5q-19 3 -30.5 16.5t-11.5 33.5q0 21 14 36t37 15q24 0 39 -16t15 -44q0 -18 -5.5 -38.5t-14 -39t-19 -35t-19.5 -26.5h-53zM113 379q-24 0 -39 15t-15 37q0 23 15 38t39 15q23 0 38 -15t15 -38q0 -22 -15 -37t-38 -15z" />
    <glyph glyph-name="less" unicode="&#x3c;" 
d="M73 301v73l405 191v-61l-352 -167l352 -167v-60z" />
    <glyph glyph-name="equal" unicode="=" horiz-adv-x="549" 
d="M42 409v54h463v-54h-463zM42 211v54h463v-54h-463z" />
    <glyph glyph-name="greater" unicode="&#x3e;" 
d="M73 170l352 167l-352 167v61l405 -191v-73l-405 -191v60z" />
    <glyph glyph-name="question" unicode="?" horiz-adv-x="474" 
d="M438 526q0 -54 -18 -90t-45.5 -60.5t-59 -42.5t-59 -36.5t-45.5 -41.5t-18 -58v-18h-57v17q0 48 17.5 79t43.5 53t56.5 38.5t56.5 37.5t43.5 49t17.5 73q0 27 -7 52t-24.5 45t-48 32t-78.5 12q-52 0 -89 -12t-60 -26v59q27 15 64 26.5t91 11.5q56 0 97.5 -15t68.5 -42
t40 -63.5t13 -79.5zM167 -5q-23 0 -37.5 15t-14.5 36q0 22 14.5 37t37.5 15t37.5 -15t14.5 -37q0 -21 -14.5 -36t-37.5 -15z" />
    <glyph glyph-name="at" unicode="@" horiz-adv-x="1047" 
d="M760 -144q-15 -7 -38.5 -14.5t-53.5 -13.5t-65 -9.5t-73 -3.5q-101 0 -189.5 27.5t-153.5 81.5t-102.5 134.5t-37.5 186.5t37 194.5t103.5 152.5t158 99t201.5 35q93 0 175.5 -26t144 -75.5t97.5 -122t36 -166.5q0 -59 -15 -112.5t-43.5 -94.5t-71.5 -65t-98 -24
q-33 0 -57.5 8.5t-41 23.5t-27 34.5t-14.5 41.5q-27 -54 -71 -81t-98 -27q-33 0 -64.5 11t-55.5 35.5t-38.5 63t-14.5 92.5t15.5 101t43.5 82.5t68 55.5t88 20q57 0 95 -28.5t53 -87.5l31 87h45l-40 -241q-3 -22 -1.5 -46t11 -44.5t28.5 -33.5t51 -13q33 0 62.5 16.5
t51.5 47t34.5 74t12.5 96.5q0 82 -31.5 146.5t-85.5 108.5t-126 67t-153 23q-93 0 -172.5 -30.5t-138 -86t-91.5 -134t-33 -173.5q0 -97 32.5 -168.5t89.5 -119t134.5 -70.5t166.5 -23q82 0 142.5 15t86.5 29v-56zM355 239q0 -42 11 -70t28 -45t39 -24t45 -7q37 0 66.5 17.5
t49.5 46.5t30.5 66t10.5 77q0 39 -10 66.5t-26.5 45t-38.5 26t-46 8.5q-39 0 -68.5 -17.5t-49.5 -46.5t-30.5 -66t-10.5 -77z" />
    <glyph glyph-name="A" unicode="A" horiz-adv-x="677" 
d="M286 717h102l269 -717h-75l-81 217h-333l-81 -217h-67zM477 281l-144 383l-142 -383h286z" />
    <glyph glyph-name="B" unicode="B" horiz-adv-x="636" 
d="M88 717h239q113 0 173 -41t60 -134q0 -75 -38.5 -115t-103.5 -54q83 -11 124.5 -51t41.5 -118q0 -55 -20 -94t-55 -63.5t-83 -35.5t-104 -11h-234v717zM159 652v-251h157q77 0 125 32.5t48 105.5q0 63 -41.5 88t-120.5 25h-168zM159 337v-273h163q42 0 77 7t59.5 23.5
t38 43t13.5 64.5q0 72 -45.5 103.5t-142.5 31.5h-163z" />
    <glyph glyph-name="C" unicode="C" horiz-adv-x="669" 
d="M393 -10q-80 0 -144 25t-109 72.5t-69 116t-24 154.5q0 87 23 155t67 115.5t108 72.5t147 25q76 0 130.5 -18t88.5 -42v-68q-42 30 -101 47t-119 17q-134 0 -201 -77.5t-67 -226.5t70.5 -226.5t204.5 -77.5q59 0 114 18t99 53v-70q-30 -25 -85 -45t-133 -20z" />
    <glyph glyph-name="D" unicode="D" horiz-adv-x="706" 
d="M88 717h238q70 0 131 -17.5t106 -57t71 -104t26 -158.5q0 -95 -26 -166t-72 -118.5t-109.5 -71.5t-137.5 -24h-227v717zM159 652v-588h157q58 0 107 19t85 57.5t56 97t20 138.5q0 79 -20 132.5t-54.5 85t-81.5 45t-101 13.5h-168z" />
    <glyph glyph-name="E" unicode="E" horiz-adv-x="593" 
d="M88 717h440v-65h-369v-244h316v-64h-316v-280h374v-64h-445v717z" />
    <glyph glyph-name="F" unicode="F" horiz-adv-x="570" 
d="M88 717h435v-65h-364v-265h311v-64h-311v-323h-71v717z" />
    <glyph glyph-name="G" unicode="G" horiz-adv-x="743" 
d="M690 279q0 -63 -19.5 -116t-57.5 -91.5t-94.5 -60t-131.5 -21.5q-74 0 -136.5 25.5t-107.5 73.5t-70.5 116t-25.5 153t24.5 153t71 116t113.5 73.5t152 25.5q45 0 81 -6t64.5 -15.5t50 -21t37.5 -23.5v-68q-45 30 -101 50t-133 20q-141 0 -212.5 -79t-71.5 -225
q0 -72 19 -128.5t54 -95.5t83.5 -59.5t107.5 -20.5q58 0 101.5 16t72 45t43 69.5t14.5 88.5v30h-252v64h324v-88v0z" />
    <glyph glyph-name="H" unicode="H" horiz-adv-x="724" 
d="M565 323h-406v-323h-71v717h71v-330h406v330h72v-717h-72v323z" />
    <glyph glyph-name="I" unicode="I" horiz-adv-x="246" 
d="M159 717v-717h-71v717h71z" />
    <glyph glyph-name="J" unicode="J" horiz-adv-x="365" 
d="M281 717v-582q0 -30 -8.5 -56t-27.5 -46t-48 -31.5t-70 -11.5q-55 0 -96 19v61q38 -16 82 -16q54 0 75.5 24.5t21.5 74.5v564h71z" />
    <glyph glyph-name="K" unicode="K" horiz-adv-x="628" 
d="M255 323h-96v-323h-71v717h71v-330h94l261 330h80l-284 -356l298 -361h-89z" />
    <glyph glyph-name="L" unicode="L" horiz-adv-x="575" 
d="M526 0h-438v717h71v-653h367v-64z" />
    <glyph glyph-name="M" unicode="M" horiz-adv-x="867" 
d="M709 617l-243 -508h-70l-241 511v-620h-67v717h99l246 -533l254 533h93v-717h-71v617z" />
    <glyph glyph-name="N" unicode="N" horiz-adv-x="739" 
d="M652 0h-98l-399 636v-636h-67v717h96l401 -639v639h67v-717z" />
    <glyph glyph-name="O" unicode="O" horiz-adv-x="770" 
d="M385 -10q-72 0 -134 25t-107 72t-71 116t-26 158q0 88 26 156.5t71 114.5t107 70t134 24q73 0 135 -24t107.5 -70.5t71 -114.5t25.5 -157q0 -88 -25.5 -156.5t-71 -116t-107.5 -72.5t-135 -25zM385 54q57 0 105.5 18t83.5 55.5t55 95t20 135.5t-20 135.5t-55 95
t-83.5 55.5t-105.5 18t-105 -18t-83 -55.5t-55 -95t-20 -135.5t20 -135.5t55 -95t83 -55.5t105 -18z" />
    <glyph glyph-name="P" unicode="P" horiz-adv-x="601" 
d="M88 717h227q115 0 179 -49t64 -153q0 -59 -18 -101t-51 -69t-80 -39.5t-104 -12.5h-146v-293h-71v717zM159 652v-295h146q85 0 133 36t48 121q0 72 -43 105t-128 33h-156z" />
    <glyph glyph-name="Q" unicode="Q" horiz-adv-x="771" 
d="M705 -129q-80 15 -143.5 33t-115.5 36t-95.5 35.5t-82.5 31.5q-49 18 -89.5 48t-70 73.5t-45.5 100t-16 128.5q0 88 25.5 157t70.5 116t107 71.5t135 24.5q72 0 134 -24t107.5 -70t71.5 -114.5t26 -156.5q0 -71 -16.5 -131t-51.5 -106.5t-89 -78t-128 -44.5
q63 -20 132 -36.5t159 -28.5zM385 54q57 0 105.5 18t83.5 55.5t55 95t20 135.5t-20 135.5t-55 95t-83.5 55.5t-105.5 18t-105 -18t-83 -55.5t-55 -95t-20 -135.5t20 -135.5t55 -95t83 -55.5t105 -18z" />
    <glyph glyph-name="R" unicode="R" horiz-adv-x="637" 
d="M88 717h237q119 0 182 -48t63 -151q0 -94 -47 -143t-125 -64l199 -311h-81l-194 304h-163v-304h-71v717zM159 652v-284h153q42 0 76 8t58 26t37.5 46.5t13.5 70.5q0 71 -43.5 102t-128.5 31h-166z" />
    <glyph glyph-name="S" unicode="S" horiz-adv-x="571" 
d="M276 -10q-48 0 -85.5 6.5t-66 16.5t-48 21.5t-29.5 21.5v68q13 -11 35 -23t51.5 -22.5t65.5 -17.5t76 -7q38 0 71.5 7.5t58 24t39 42t14.5 60.5q0 34 -12.5 57t-36 39t-57.5 26.5t-76 21.5q-41 11 -81 25t-72 36.5t-52 56.5t-20 85q0 93 65.5 142t186.5 49q37 0 66 -4
t51.5 -10t39.5 -13.5t31 -14.5v-68q-35 22 -82 34t-106 12q-181 0 -181 -124q0 -33 13.5 -55.5t37 -37.5t54 -25t63.5 -19q40 -10 82.5 -22.5t78 -35t58 -58.5t22.5 -94q0 -56 -21.5 -94t-57.5 -62t-82 -34.5t-94 -10.5z" />
    <glyph glyph-name="T" unicode="T" horiz-adv-x="589" 
d="M330 651v-651h-72v651h-235v66h542v-66h-235z" />
    <glyph glyph-name="U" unicode="U" horiz-adv-x="695" 
d="M72 717h71v-471q0 -49 14.5 -85t41 -60t64 -36t83.5 -12q45 0 84 12t67.5 36t45 60.5t16.5 85.5v470h68v-467q0 -63 -21.5 -111.5t-59.5 -81.5t-89.5 -50t-111.5 -17q-59 0 -108.5 16t-86.5 48t-57.5 80t-20.5 112v471z" />
    <glyph glyph-name="V" unicode="V" horiz-adv-x="659" 
d="M384 0h-107l-260 717h73l242 -670l243 670h67z" />
    <glyph glyph-name="W" unicode="W" horiz-adv-x="971" 
d="M763 0h-102l-175 603l-176 -603h-102l-176 717h73l157 -652l193 652h68l190 -646l158 646h67z" />
    <glyph glyph-name="X" unicode="X" horiz-adv-x="629" 
d="M310 321l-216 -321h-75l254 371l-234 346h85l199 -295l199 295h74l-237 -345l252 -372h-84z" />
    <glyph glyph-name="Y" unicode="Y" horiz-adv-x="610" 
d="M342 312v-312h-72v310l-250 407h80l208 -345l209 345h73z" />
    <glyph glyph-name="Z" unicode="Z" horiz-adv-x="614" 
d="M562 0h-516v52l427 600h-416v65h504v-53l-430 -600h431v-64z" />
    <glyph glyph-name="bracketleft" unicode="[" horiz-adv-x="383" 
d="M100 756h257v-57h-193v-781h193v-57h-257v895z" />
    <glyph glyph-name="backslash" unicode="\" horiz-adv-x="376" 
d="M0 756h62l317 -876h-62z" />
    <glyph glyph-name="bracketright" unicode="]" horiz-adv-x="383" 
d="M283.006 756h-256.984v-57h192.988v-781h-192.988v-57h256.984v895z" />
    <glyph glyph-name="asciicircum" unicode="^" horiz-adv-x="451" 
d="M226 665l-137 -207h-59l154 259h82l154 -259h-58z" />
    <glyph glyph-name="underscore" unicode="_" horiz-adv-x="375" 
d="M-10 -58h395v-57h-395v57z" />
    <glyph glyph-name="grave" unicode="`" horiz-adv-x="451" 
d="M243 588l-125 158h89l94 -158h-58z" />
    <glyph glyph-name="a" unicode="a" horiz-adv-x="528" 
d="M390 104q-9 -19 -23 -39.5t-36 -37t-51.5 -27t-69.5 -10.5q-74 0 -118 40.5t-44 114.5q0 82 59.5 122t170.5 40h110v46q0 60 -31.5 88.5t-102.5 28.5q-52 0 -97.5 -16.5t-76.5 -36.5v60q26 17 73.5 34.5t108.5 17.5q91 0 141.5 -40t50.5 -123v-275q0 -23 1.5 -49.5
t4.5 -41.5h-61q-3 15 -5.5 40.5t-2.5 51.5zM223 49q45 0 76.5 19t51 43t28.5 47.5t9 32.5v62h-104q-89 0 -129.5 -27.5t-40.5 -78.5q0 -46 29 -72t80 -26z" />
    <glyph glyph-name="b" unicode="b" horiz-adv-x="606" 
d="M567 260q0 -67 -19 -117.5t-51 -84.5t-75.5 -51t-91.5 -17q-66 0 -113.5 32t-74.5 89l-2 -111h-63v717h66l-1 -310q26 57 74 89.5t117 32.5q48 0 90.5 -17t74.5 -51t50.5 -84t18.5 -117zM322 49q39 0 71.5 13.5t56 40t36.5 66t13 91.5q0 51 -13 90.5t-36.5 66t-56 40
t-71.5 13.5q-38 0 -71 -13.5t-57 -39.5t-38 -65.5t-14 -91.5t14 -91.5t38 -66t57 -40t71 -13.5z" />
    <glyph glyph-name="c" unicode="c" horiz-adv-x="497" 
d="M298 -10q-59 0 -106.5 18.5t-81.5 53t-52.5 84.5t-18.5 114q0 63 18.5 113t53 84.5t83 53t108.5 18.5q44 0 85.5 -10t67.5 -28v-59q-32 20 -73 29t-79 9q-97 0 -147 -53.5t-50 -156.5t49.5 -157t142.5 -54q45 0 85 11t72 29v-59q-27 -17 -65 -28.5t-92 -11.5z" />
    <glyph glyph-name="d" unicode="d" horiz-adv-x="606" 
d="M465 114q-25 -57 -72.5 -90.5t-116.5 -33.5q-49 0 -92 17t-75.5 51t-51 84.5t-18.5 117.5t19 117t51 84t75.5 51t92.5 17q65 0 112.5 -29t73.5 -83v300h66v-717h-59zM284 49q38 0 71 13.5t57 40t38 66t14 91.5t-14 91.5t-38 66t-57 39.5t-71 13q-39 0 -71.5 -13.5
t-56 -40t-37 -66t-13.5 -90.5q0 -52 13.5 -91.5t37 -66t56 -40t71.5 -13.5z" />
    <glyph glyph-name="e" unicode="e" horiz-adv-x="534" 
d="M481 44q-9 -8 -25.5 -17t-39 -17.5t-51.5 -14t-64 -5.5q-126 0 -194 71t-68 199q0 63 18.5 113t51.5 84.5t77.5 53t95.5 18.5q53 0 96 -18t71.5 -53.5t39.5 -88.5t1 -123h-384q4 -97 55 -147t145 -50q60 0 105.5 18t69.5 37v-60zM281 470q-66 0 -113.5 -42t-58.5 -126
h320q3 43 -8 74.5t-31 52.5t-48 31t-61 10z" />
    <glyph glyph-name="f" unicode="f" horiz-adv-x="352" 
d="M176 462v-462h-66v462h-67v57h67v16q0 91 45 141t126 50q15 0 30 -1.5t29 -6.5v-60q-9 4 -25 6.5t-31 2.5q-52 0 -80 -33t-28 -99v-16h153v-57h-153z" />
    <glyph glyph-name="g" unicode="g" horiz-adv-x="601" 
d="M523 43q0 -104 -60.5 -163t-194.5 -59q-43 0 -74.5 5.5t-53.5 13t-35.5 15.5t-19.5 12v59q10 -5 25.5 -13t38 -15.5t52 -12.5t68.5 -5q101 0 144 40.5t43 121.5v93q-25 -53 -71 -83.5t-112 -30.5q-48 0 -91 16.5t-75 48.5t-50.5 79t-18.5 109q0 63 18.5 110.5t50.5 79.5
t75 48.5t92 16.5q67 0 114.5 -30.5t72.5 -85.5v2q0 34 2 62t4 42h61q-2 -14 -3.5 -43t-1.5 -61v-372zM283 80q37 0 69 12.5t55.5 36.5t36.5 60.5t13 84.5q0 49 -13 85.5t-36.5 61t-55.5 37t-70 12.5t-70.5 -12.5t-56 -37t-37 -61t-13.5 -85.5q0 -48 13.5 -84t37.5 -60.5
t56.5 -37t70.5 -12.5z" />
    <glyph glyph-name="h" unicode="h" horiz-adv-x="578" 
d="M319 470q-36 0 -63.5 -9.5t-48.5 -25.5t-36.5 -38t-27.5 -46v-351h-66v717h66v-202l-1 -101h2q10 23 26.5 44t40 36.5t54 25t69.5 9.5q79 0 125.5 -41.5t46.5 -123.5v-364h-66v358q0 62 -33 87t-88 25z" />
    <glyph glyph-name="i" unicode="i" horiz-adv-x="219" 
d="M111 613q-23 0 -35.5 13.5t-12.5 32.5t12.5 33t35.5 14q21 0 33 -14t12 -33t-12 -32.5t-33 -13.5zM143 519v-519h-66v519h66z" />
    <glyph glyph-name="j" unicode="j" horiz-adv-x="226" 
d="M117 613q-22 0 -34.5 13.5t-12.5 32.5t12.5 33t34.5 14q21 0 33.5 -14t12.5 -33t-12.5 -32.5t-33.5 -13.5zM150 -58q0 -25 -7 -48.5t-22.5 -41.5t-40 -28.5t-58.5 -10.5q-23 0 -44.5 6t-38.5 15v64q12 -10 30.5 -18t43.5 -8q37 0 54 20t17 50v577h66v-577z" />
    <glyph glyph-name="k" unicode="k" horiz-adv-x="484" 
d="M201 232h-57v-232h-67v717h67v-428h61l189 230h77l-214 -256l212 -263h-81z" />
    <glyph glyph-name="l" unicode="l" horiz-adv-x="219" 
d="M143 717v-717h-66v717h66z" />
    <glyph glyph-name="m" unicode="m" horiz-adv-x="890" 
d="M143 0h-66v519h59l6 -105h2q10 23 25.5 44t37.5 36.5t50.5 25t65.5 9.5q63 0 103 -31t51 -92q22 54 67 88.5t117 34.5q73 0 115.5 -41.5t42.5 -123.5v-364h-67v357q0 60 -29.5 86.5t-79.5 26.5q-33 0 -58 -10.5t-44 -27.5t-33.5 -40t-26.5 -47v-345h-67v363
q0 59 -29.5 83t-78.5 24q-33 0 -58 -9.5t-44.5 -26t-34 -38t-26.5 -46.5v-350z" />
    <glyph glyph-name="n" unicode="n" horiz-adv-x="578" 
d="M319 470q-36 0 -63.5 -9.5t-48.5 -25.5t-36.5 -38t-27.5 -46v-351h-66v519h62l3 -105h2q10 23 26.5 44t40 36.5t54 25t69.5 9.5q79 0 125.5 -41.5t46.5 -123.5v-364h-66v358q0 62 -33 87t-88 25z" />
    <glyph glyph-name="o" unicode="o" horiz-adv-x="574" 
d="M286 -10q-53 0 -98 18t-78 52.5t-52 85t-19 114.5t19 114t52 84.5t78 52.5t98 18t98.5 -18t79 -52.5t52.5 -84.5t19 -114t-19 -114.5t-52.5 -85t-79 -52.5t-98.5 -18zM286 49q39 0 72 13.5t57.5 39.5t38 65.5t13.5 92.5t-13.5 92.5t-38 65.5t-57.5 39t-72 13t-72 -13
t-57 -39t-37.5 -65.5t-13.5 -92.5t13.5 -92.5t37.5 -65.5t57 -39.5t72 -13.5z" />
    <glyph glyph-name="p" unicode="p" horiz-adv-x="606" 
d="M330 -10q-65 0 -112.5 31.5t-74.5 87.5v-286h-66v696h59l6 -111v-1q26 57 74 89.5t117 32.5q48 0 90.5 -17t74.5 -51t50.5 -84t18.5 -117t-19 -117.5t-51 -84.5t-75.5 -51t-91.5 -17zM322 49q39 0 71.5 13.5t56 40t36.5 66t13 91.5q0 51 -13 90.5t-36.5 66t-56 40
t-71.5 13.5q-38 0 -71 -13.5t-57 -39.5t-38 -65.5t-14 -91.5t14 -91.5t38 -66t57 -40t71 -13.5z" />
    <glyph glyph-name="q" unicode="q" horiz-adv-x="608" 
d="M529 -177h-66v286q-26 -55 -72.5 -87t-114.5 -32q-49 0 -92 17t-75.5 51t-51 84.5t-18.5 117.5t19 117t51 84t75.5 51t92.5 17q66 0 114.5 -30.5t74.5 -87.5v4q0 34 2 62t5 42h61q-2 -14 -3.5 -43t-1.5 -61v-592zM284 49q38 0 71 13.5t57 40t38 66t14 91.5t-14 91.5
t-38 65.5t-57 39.5t-71 13.5q-39 0 -71.5 -13.5t-56 -40t-37 -66t-13.5 -90.5q0 -52 13.5 -91.5t37 -66t56 -40t71.5 -13.5z" />
    <glyph glyph-name="r" unicode="r" horiz-adv-x="348" 
d="M317 457q-60 -5 -105.5 -34.5t-68.5 -89.5v-333h-66v519h59l6 -121h2q9 24 24 46t36 39.5t49 29.5t64 16v-72v0z" />
    <glyph glyph-name="s" unicode="s" horiz-adv-x="477" 
d="M235 -10q-40 0 -71 6.5t-54 15.5t-38.5 19t-24.5 18v60q10 -9 26.5 -19.5t40 -20.5t53.5 -16.5t67 -6.5q28 0 53 5t43.5 16t29 28.5t10.5 43.5t-11 42.5t-30 27t-45.5 16.5t-56.5 12q-31 6 -63 14.5t-57.5 24.5t-41.5 42t-16 67q0 70 53.5 107t145.5 37q56 0 95 -11
t62 -24v-60q-25 16 -62.5 27.5t-93.5 11.5q-61 0 -97.5 -19t-36.5 -68q0 -24 9.5 -38t26 -23t39 -14.5t47.5 -10.5q33 -7 68 -15t64 -24.5t48 -45t19 -75.5q0 -44 -17.5 -73t-46 -46t-64.5 -24t-73 -7z" />
    <glyph glyph-name="t" unicode="t" horiz-adv-x="357" 
d="M311 7q-14 -8 -35.5 -12.5t-46.5 -4.5q-35 0 -60 10t-40.5 27.5t-23 40t-7.5 47.5v347h-67v57h67v109h66v-109h151v-57h-151v-338q0 -36 18 -55.5t63 -19.5q37 0 66 18v-60v0z" />
    <glyph glyph-name="u" unicode="u" horiz-adv-x="565" 
d="M422 104q-20 -47 -65.5 -80.5t-120.5 -33.5t-120 42.5t-45 127.5v359h67v-359q0 -62 32.5 -86.5t82.5 -24.5q34 0 60 9t46 24.5t35.5 37t27.5 46.5v353h66v-519h-59l-5 104h-2v0z" />
    <glyph glyph-name="v" unicode="v" horiz-adv-x="508" 
d="M306 0h-105l-189 519h71l174 -484l172 484h67z" />
    <glyph glyph-name="w" unicode="w" horiz-adv-x="772" 
d="M612 0h-102l-124 434l-126 -434h-100l-128 519h70l113 -470l135 470h79l133 -466l113 466h66z" />
    <glyph glyph-name="x" unicode="x" horiz-adv-x="483" 
d="M237 221l-152 -221h-70l188 269l-172 250h77l139 -202l138 202h69l-173 -249l186 -270h-77z" />
    <glyph glyph-name="y" unicode="y" horiz-adv-x="513" 
d="M302 6q-19 -47 -38 -82.5t-41.5 -60.5t-50.5 -37.5t-64 -12.5q-34 0 -56 9v63q21 -13 54 -13q40 0 65.5 26t50.5 80l-211 541h74l175 -452l178 452h65l-201 -513v0z" />
    <glyph glyph-name="z" unicode="z" horiz-adv-x="456" 
d="M416 0h-383v43l299 419h-291v57h374v-43l-298 -419h299v-57z" />
    <glyph glyph-name="braceleft" unicode="{" horiz-adv-x="411" 
d="M362 -135q-17 -3 -31 -4t-28 -1q-78 0 -113 37.5t-35 98.5q0 23 4 43t8.5 39.5t8.5 39.5t4 44q0 22 -3.5 42t-15 35.5t-33 26.5t-58.5 14v57q35 3 56.5 13t33.5 24.5t16 33t4 39.5q0 25 -4 46t-8.5 41t-8.5 40.5t-4 44.5q0 62 35.5 100t112.5 38q14 0 28 -1.5t31 -3.5
v-54q-14 2 -26.5 3.5t-23.5 1.5q-51 0 -70.5 -23.5t-19.5 -62.5q0 -23 3.5 -43t7 -39.5t7 -40t3.5 -45.5q0 -21 -4 -41t-15 -38.5t-31 -34t-51 -27.5q31 -12 50.5 -27.5t31 -33t15.5 -37t4 -40.5q0 -26 -3.5 -46.5t-7 -40.5l-7 -40t-3.5 -44q0 -37 19 -61.5t70 -24.5
q21 0 51 6v-54z" />
    <glyph glyph-name="bar" unicode="|" horiz-adv-x="264" 
d="M164 756v-876h-64v876h64z" />
    <glyph glyph-name="braceright" unicode="}" horiz-adv-x="409" 
d="M47.0225 -135q16.999 -3 30.998 -4t27.998 -1q77.9951 0 112.993 37.5t34.998 98.5q0 23 -4 43t-8.5 39.5q-4.49902 19.5 -8.49902 39.5t-4 44q0 22 3.5 42t14.999 35.5t32.998 26.5t58.4961 14v57q-34.9971 3 -56.4961 13t-33.498 24.5t-15.999 33t-4 39.5q0 25 4 46
t8.49902 41q4.5 20 8.5 40.5t4 44.5q0 62 -35.498 100t-112.493 38q-13.999 0 -27.998 -1.5t-30.998 -3.5v-54q13.999 2 26.498 3.5t23.499 1.5q50.9961 0 70.4951 -23.5t19.499 -62.5q0 -23 -3.5 -43t-6.99902 -39.5q-3.5 -19.5 -7 -40t-3.5 -45.5q0 -21 4 -41
t14.999 -38.5t30.998 -34t50.9971 -27.5q-30.998 -12 -50.4971 -27.5t-30.998 -33t-15.499 -37t-4 -40.5q0 -26 3.5 -46.5t7 -40.5q3.49902 -20 6.99902 -40t3.5 -44q0 -37 -18.999 -61.5t-69.9961 -24.5q-20.998 0 -50.9961 6v-54z" />
    <glyph glyph-name="asciitilde" unicode="~" horiz-adv-x="596" 
d="M49 251q-3 31 2 60t21 52t43 37t66 14q42 0 73 -15.5t57 -33.5t50 -33.5t53 -15.5q38 0 56.5 25t16.5 79h59q3 -30 -2.5 -59.5t-21 -52.5t-42.5 -37t-66 -14q-42 0 -72.5 15.5t-57 33.5t-50.5 33.5t-52 15.5q-38 0 -56.5 -24.5t-16.5 -79.5h-60v0z" />
    <glyph glyph-name="uni00A0" unicode="&#xa0;" horiz-adv-x="208" 
 />
    <glyph glyph-name="exclamdown" unicode="&#xa1;" horiz-adv-x="265" 
d="M98.0098 -186.957l6 531.968h53.9971l6.99902 -531.968h-66.9961zM132.008 529q22.999 0 37.498 -14.999t14.499 -35.998q0 -21.999 -14.499 -36.998t-37.498 -14.999q-22.998 0 -36.9971 14.999t-13.999 36.998q0 20.999 13.999 35.998t36.9971 14.999z" />
    <glyph glyph-name="cent" unicode="&#xa2;" 
d="M482 30q-25 -15 -59 -26.5t-82 -13.5v-130h-64v133q-97 14 -154 83.5t-57 183.5q0 112 55.5 180.5t152.5 84.5v119h63v-115q42 -1 81 -11t64 -27v-59q-31 20 -72.5 29t-79.5 9q-97 0 -146.5 -53.5t-49.5 -156.5t49 -157t142 -54q45 0 85 11t72 29v-59v0z" />
    <glyph glyph-name="sterling" unicode="&#xa3;" 
d="M514 0h-469v40q103 84 103 188q0 16 -2 31.5t-5 29.5h-101v57h84q-14 39 -27 79.5t-13 89.5q0 96 60 153.5t177 57.5q64 0 101.5 -13.5t59.5 -30.5v-62q-25 18 -67 31.5t-95 13.5q-48 0 -80 -12t-51.5 -33t-27.5 -49.5t-8 -60.5q0 -25 4 -46.5t10 -41t13.5 -38.5
t13.5 -38h185v-57h-170q3 -20 3 -40q0 -51 -17 -97t-62 -92h381v-60z" />
    <glyph glyph-name="currency" unicode="&#xa4;" horiz-adv-x="553" 
d="M400 180q-26 -19 -57 -30t-66 -11q-36 0 -67.5 11t-57.5 30l-69 -69l-38 38l68 70q-18 26 -29 57t-11 67t11 67t29 57l-68 69l38 39l69 -70q26 20 57.5 31t67.5 11q35 0 66.5 -10.5t57.5 -30.5l69 70l39 -39l-70 -69q20 -26 31 -57.5t11 -67.5t-11 -67t-31 -57l70 -70
l-39 -38zM278 493q-29 0 -55 -10.5t-45 -30t-30 -47.5t-11 -62t11 -62t30 -47.5t45 -30t55 -10.5t54.5 10.5t44 30t29.5 47.5t11 62t-11 62t-29.5 47.5t-44 30t-54.5 10.5z" />
    <glyph glyph-name="yen" unicode="&#xa5;" 
d="M310 161v-161h-67v161h-174v54h174v96h-174v54h158l-213 352h78l186 -319l189 319h70l-212 -352h158v-54h-173v-96h173v-54h-173z" />
    <glyph glyph-name="brokenbar" unicode="&#xa6;" horiz-adv-x="264" 
d="M164 756v-400h-64v400h64zM164 280v-400h-64v400h64z" />
    <glyph glyph-name="section" unicode="&#xa7;" horiz-adv-x="571" 
d="M481 -17q0 -47 -19.5 -79.5t-51.5 -52.5t-73.5 -29t-84.5 -9q-44 0 -79 6t-61 15t-43.5 19.5t-27.5 19.5v58q12 -9 32 -20t47.5 -20.5t60.5 -15.5t71 -6q34 0 63.5 6.5t51.5 20t34.5 35t12.5 51.5t-11 50t-32 34t-52.5 23.5t-72.5 18.5q-38 8 -74 19t-64.5 29.5
t-45.5 46.5t-17 70q0 58 36.5 97t104.5 52q-50 23 -75.5 57.5t-25.5 85.5q0 78 59 119.5t168 41.5q34 0 60.5 -3.5t47 -9t36.5 -12.5t29 -13v-59q-32 20 -75.5 31t-97.5 11q-83 0 -122.5 -25.5t-39.5 -78.5q0 -29 12 -49t33 -33.5t49 -22t60 -14.5q36 -7 74.5 -17.5
t70 -29.5t52 -49.5t20.5 -76.5q0 -59 -36.5 -95.5t-102.5 -50.5q48 -22 73.5 -57t25.5 -89zM299 167q34 0 62.5 6.5t49.5 19t32.5 32t11.5 46.5q0 56 -47.5 84.5t-135.5 28.5q-78 0 -120.5 -26.5t-42.5 -80.5q0 -32 17 -53.5t44.5 -33.5t61.5 -17.5t67 -5.5z" />
    <glyph glyph-name="dieresis" unicode="&#xa8;" horiz-adv-x="451" 
d="M124 613q-21 0 -33.5 13.5t-12.5 32.5t12.5 32.5t33.5 13.5t33.5 -13.5t12.5 -32.5t-12.5 -32.5t-33.5 -13.5zM326 613q-21 0 -33.5 13.5t-12.5 32.5t12.5 32.5t33.5 13.5t33.5 -13.5t12.5 -32.5t-12.5 -32.5t-33.5 -13.5z" />
    <glyph glyph-name="copyright" unicode="&#xa9;" horiz-adv-x="902" 
d="M451 -96q-87 0 -162 30.5t-130.5 85.5t-87 131t-31.5 166q0 89 31.5 164t87 129.5t130.5 85t162 30.5t162.5 -30.5t130.5 -85t86.5 -129.5t31.5 -164q0 -90 -31.5 -166t-86.5 -131t-130.5 -85.5t-162.5 -30.5zM451 -47q79 0 145 27t113.5 75.5t73.5 115.5t26 146
q0 78 -26 144t-73.5 114.5t-113.5 75.5t-145 27t-145 -27t-113 -75.5t-73.5 -114.5t-26.5 -144q0 -79 26.5 -146t73.5 -115.5t113 -75.5t145 -27zM468 100q-97 0 -152.5 57t-55.5 158q0 102 54 158t153 56q42 0 72.5 -10t47.5 -24v-54q-22 17 -54 25.5t-67 8.5
q-145 0 -145 -160q0 -79 38.5 -120.5t110.5 -41.5q33 0 63.5 10t53.5 30v-57q-16 -14 -46 -25t-73 -11z" />
    <glyph glyph-name="ordfeminine" unicode="&#xaa;" horiz-adv-x="456" 
d="M338 413q-7 -17 -19 -34.5t-31 -31.5t-45 -23.5t-60 -9.5q-64 0 -103 35.5t-39 99.5q0 72 52.5 106t149.5 34h93v40q0 51 -27 75t-87 24q-47 0 -86.5 -14t-65.5 -31v55q23 15 64 30t95 15q79 0 123.5 -35.5t44.5 -107.5v-239q0 -20 1 -42t3 -36h-55q-3 13 -5 34.5
t-2 44.5zM196 368q39 0 65.5 16t43 37t24 41t7.5 28v51h-88q-76 0 -111 -23t-35 -66q0 -41 24.5 -62.5t69.5 -21.5z" />
    <glyph glyph-name="guillemotleft" unicode="&#xab;" horiz-adv-x="502" 
d="M322 264l140 -195h-71l-140 195l140 195h71zM118 264l140 -195h-71l-140 195l140 195h71z" />
    <glyph glyph-name="logicalnot" unicode="&#xac;" horiz-adv-x="582" 
d="M531 372v-262h-62v208h-420v54h482z" />
    <glyph glyph-name="registered" unicode="&#xae;" horiz-adv-x="902" 
d="M451 -96q-87 0 -162 30.5t-130.5 85.5t-87 131t-31.5 166q0 89 31.5 164t87 129.5t130.5 85t162 30.5t162.5 -30.5t130.5 -85t86.5 -129.5t31.5 -164q0 -90 -31.5 -166t-86.5 -131t-130.5 -85.5t-162.5 -30.5zM451 -47q79 0 145 27t113.5 75.5t73.5 115.5t26 146
q0 78 -26 144t-73.5 114.5t-113.5 75.5t-145 27t-145 -27t-113 -75.5t-73.5 -114.5t-26.5 -144q0 -79 26.5 -146t73.5 -115.5t113 -75.5t145 -27zM318 524h141q73 0 112 -28.5t39 -91.5q0 -52 -25 -81.5t-67 -40.5l105 -175h-68l-99 166h-78v-166h-60v417zM378 470v-143h75
q45 0 70 16.5t25 58.5q0 37 -22.5 52.5t-66.5 15.5h-81z" />
    <glyph glyph-name="macron" unicode="&#xaf;" horiz-adv-x="451" 
d="M81 679h288v-54h-288v54z" />
    <glyph glyph-name="degree" unicode="&#xb0;" horiz-adv-x="464" 
d="M232 419q-33 0 -61 11.5t-48.5 32.5t-32 49t-11.5 61q0 34 11.5 62t32 48t48.5 31.5t61 11.5t61 -11.5t48.5 -31.5t32 -48t11.5 -62q0 -33 -11.5 -61t-32 -49t-48.5 -32.5t-61 -11.5zM232 468q47 0 74 28.5t27 76.5q0 47 -27 76t-74 29t-74 -29t-27 -76q0 -48 27 -76.5
t74 -28.5z" />
    <glyph glyph-name="plusminus" unicode="&#xb1;" 
d="M306 310v-187h-63v187h-200v54h200v219h63v-219h200v-54h-200zM43 0v54h463v-54h-463z" />
    <glyph glyph-name="twosuperior" unicode="&#xb2;" horiz-adv-x="382" 
d="M332 325h-298v60q64 49 108 86t71 67t38.5 56t11.5 52q0 38 -22.5 62t-66.5 24q-40 0 -71.5 -14t-55.5 -36v52q23 20 55 34t82 14q66 0 103.5 -36.5t37.5 -99.5q0 -31 -13 -60.5t-40.5 -61.5t-70 -68t-102.5 -79h233v-52z" />
    <glyph glyph-name="threesuperior" unicode="&#xb3;" horiz-adv-x="370" 
d="M322 451q0 -60 -43 -96t-121 -36q-44 0 -77 12.5t-53 26.5v55q19 -16 51 -30t79 -14q52 0 76 23t24 62q0 38 -24.5 60t-72.5 22h-60v51h63q36 0 57.5 19.5t21.5 54.5q0 32 -19.5 52t-63.5 20q-38 0 -69 -11.5t-54 -30.5v55q23 16 54 26t72 10q68 0 104.5 -32.5
t36.5 -84.5q0 -45 -23 -69.5t-54 -31.5q38 -8 66.5 -35.5t28.5 -77.5z" />
    <glyph glyph-name="acute" unicode="&#xb4;" horiz-adv-x="451" 
d="M245 746h89l-125 -158h-58z" />
    <glyph glyph-name="paragraph" unicode="&#xb6;" horiz-adv-x="617" 
d="M40 497q0 109 64.5 164.5t182.5 55.5h109v-904h-63v466h-38q-57 0 -103.5 14t-80.5 41t-52.5 68t-18.5 95zM534 -187h-63v904h63v-904z" />
    <glyph glyph-name="periodcentered" unicode="&#xb7;" horiz-adv-x="221" 
d="M112 235q-24 0 -39 15t-15 37q0 23 15 38t39 15q23 0 38 -15t15 -38q0 -22 -15 -37t-38 -15z" />
    <glyph glyph-name="cedilla" unicode="&#xb8;" horiz-adv-x="451" 
d="M274 16l-61 -203h-85l88 203h58z" />
    <glyph glyph-name="onesuperior" unicode="&#xb9;" horiz-adv-x="291" 
d="M205 325h-62v381l-101 -91v62l110 99h53v-451z" />
    <glyph glyph-name="ordmasculine" unicode="&#xba;" horiz-adv-x="495" 
d="M247 314q-46 0 -85.5 16t-68 46t-45 74t-16.5 100q0 55 16.5 98.5t45 73.5t68 45.5t85.5 15.5t85.5 -15.5t69 -45.5t46 -73.5t16.5 -98.5q0 -56 -16.5 -100t-46 -74t-69 -46t-85.5 -16zM247 368q33 0 61.5 11.5t49.5 34t32.5 56.5t11.5 80q0 90 -44 134t-111 44
t-110.5 -44t-43.5 -134q0 -92 43.5 -137t110.5 -45z" />
    <glyph glyph-name="guillemotright" unicode="&#xbb;" horiz-adv-x="502" 
d="M316 69h-71l140 195l-140 195h71l139 -195zM112 69h-71l140 195l-140 195h71l139 -195z" />
    <glyph glyph-name="onequarter" unicode="&#xbc;" horiz-adv-x="886" 
d="M215 265h-62v381l-101 -91v62l110 99h53v-451zM122 0l554 717h63l-553 -717h-64zM779 107v-106h-60v106h-223v45l216 300h67v-295h67v-50h-67zM719 157v226l-162 -226h162z" />
    <glyph glyph-name="onehalf" unicode="&#xbd;" horiz-adv-x="950" 
d="M122 0l554 717h63l-553 -717h-64zM903 1h-298v60q64 49 108 86t71 67t38.5 56t11.5 52q0 38 -22.5 62t-66.5 24q-40 0 -71.5 -14t-55.5 -36v52q23 20 55 34t82 14q66 0 103.5 -36.5t37.5 -99.5q0 -31 -13 -60.5t-40.5 -61.5t-70 -68t-102.5 -79h233v-52zM215 265h-62v381
l-101 -91v62l110 99h53v-451z" />
    <glyph glyph-name="threequarters" unicode="&#xbe;" horiz-adv-x="948" 
d="M332 391q0 -60 -43 -96t-121 -36q-44 0 -77 12.5t-53 26.5v55q19 -16 51 -30t79 -14q52 0 76 23t24 62q0 38 -24.5 60t-72.5 22h-60v51h63q36 0 57.5 19.5t21.5 54.5q0 32 -19.5 52t-63.5 20q-38 0 -69 -11.5t-54 -30.5v55q23 16 54 26t72 10q68 0 104.5 -32.5
t36.5 -84.5q0 -45 -23 -69.5t-54 -31.5q38 -8 66.5 -35.5t28.5 -77.5zM184 0l554 717h63l-553 -717h-64zM841 107v-106h-60v106h-223v45l216 300h67v-295h67v-50h-67zM781 157v226l-162 -226h162z" />
    <glyph glyph-name="questiondown" unicode="&#xbf;" horiz-adv-x="474" 
d="M50.0264 -2.96777q0 53.9971 17.999 89.9941q17.999 35.998 45.4971 60.4961q27.499 24.499 58.9971 42.498t58.9961 36.498q27.498 18.498 45.4971 41.4971q17.999 22.998 17.999 57.9961v17.999h56.9961v-16.999q0 -47.9971 -17.498 -78.9951
q-17.499 -30.998 -43.498 -52.9971q-25.998 -21.998 -56.4961 -38.4971t-56.4971 -37.498q-25.998 -20.998 -43.4971 -48.9971q-17.499 -27.998 -17.499 -72.9951q0 -26.998 7 -51.9971q6.99902 -24.998 24.498 -44.9971t47.9971 -31.998t78.4951 -11.999
q51.9971 0 88.9951 11.999q36.9971 11.999 59.9961 25.998v-58.9961q-26.998 -14.999 -63.9961 -26.498q-36.998 -11.5 -90.9941 -11.5q-55.9971 0 -97.4941 14.999q-41.498 15 -68.4961 41.998t-39.9971 63.4961q-13 36.498 -13 79.4951zM321.01 528
q22.999 0 37.498 -14.999t14.499 -35.998q0 -21.999 -14.499 -36.998t-37.498 -14.999q-22.998 0 -37.4971 14.999t-14.499 36.998q0 20.999 14.499 35.998t37.4971 14.999z" />
    <glyph glyph-name="Agrave" unicode="&#xc0;" horiz-adv-x="677" 
d="M286 717h102l269 -717h-75l-81 217h-333l-81 -217h-67zM477 281l-144 383l-142 -383h286zM308 773l-130 136h95l99 -136h-64z" />
    <glyph glyph-name="Aacute" unicode="&#xc1;" horiz-adv-x="677" 
d="M286 717h102l269 -717h-75l-81 217h-333l-81 -217h-67zM477 281l-144 383l-142 -383h286zM398 909h95l-130 -136h-64z" />
    <glyph glyph-name="Acircumflex" unicode="&#xc2;" horiz-adv-x="677" 
d="M286 717h102l269 -717h-75l-81 217h-333l-81 -217h-67zM477 281l-144 383l-142 -383h286zM333 862l-92 -99h-58l111 148h78l111 -148h-58z" />
    <glyph glyph-name="Atilde" unicode="&#xc3;" horiz-adv-x="677" 
d="M286 717h102l269 -717h-75l-81 217h-333l-81 -217h-67zM477 281l-144 383l-142 -383h286zM162 789q-5 23 -2 45.5t14 40t29.5 28t45.5 10.5t49 -10t40.5 -22t36 -22t35.5 -10q47 0 39 67h49q4 -23 1.5 -45.5t-13 -40t-29 -28t-45.5 -10.5t-49 10t-41 21.5t-36.5 21.5
t-35.5 10q-22 0 -32.5 -16.5t-5.5 -49.5h-50v0z" />
    <glyph glyph-name="Adieresis" unicode="&#xc4;" horiz-adv-x="677" 
d="M286 717h102l269 -717h-75l-81 217h-333l-81 -217h-67zM477 281l-144 383l-142 -383h286zM226 797q-21 0 -33.5 13t-12.5 32t12.5 32.5t33.5 13.5t33 -13.5t12 -32.5t-12 -32t-33 -13zM441 797q-22 0 -34.5 13t-12.5 32t12.5 32.5t34.5 13.5q21 0 33.5 -13.5t12.5 -32.5
t-12.5 -32t-33.5 -13z" />
    <glyph glyph-name="Aring" unicode="&#xc5;" horiz-adv-x="677" 
d="M286 717h102l269 -717h-75l-81 217h-333l-81 -217h-67zM477 281l-144 383l-142 -383h286zM338 752q-48 0 -79.5 30.5t-31.5 78.5t31.5 78.5t79.5 30.5t79.5 -30.5t31.5 -78.5t-31.5 -78.5t-79.5 -30.5zM338 796q28 0 46.5 18t18.5 47t-18.5 47.5t-46.5 18.5t-46 -18.5
t-18 -47.5t17.5 -47t46.5 -18z" />
    <glyph glyph-name="AE" unicode="&#xc6;" horiz-adv-x="983" 
d="M924 0h-446v242h-250l-137 -242h-71l403 717h496v-65h-370v-244h317v-64h-317v-280h375v-64zM478 306v379l-214 -379h214z" />
    <glyph glyph-name="Ccedilla" unicode="&#xc7;" horiz-adv-x="669" 
d="M399 -10q-80 0 -144 25t-109 72.5t-69 116t-24 154.5q0 87 23 155t67 115.5t108 72.5t147 25q76 0 130.5 -18t88.5 -42v-68q-42 30 -101 47t-119 17q-134 0 -201 -77.5t-67 -226.5t70.5 -226.5t204.5 -77.5q59 0 114 18t99 53v-70q-30 -25 -85 -45t-133 -20zM408 16
l-61 -203h-85l88 203h58z" />
    <glyph glyph-name="Egrave" unicode="&#xc8;" horiz-adv-x="593" 
d="M88 717h440v-65h-369v-244h316v-64h-316v-280h374v-64h-445v717zM302 773l-130 136h95l99 -136h-64z" />
    <glyph glyph-name="Eacute" unicode="&#xc9;" horiz-adv-x="593" 
d="M88 717h440v-65h-369v-244h316v-64h-316v-280h374v-64h-445v717zM351 909h95l-130 -136h-64z" />
    <glyph glyph-name="Ecircumflex" unicode="&#xca;" horiz-adv-x="593" 
d="M88 717h440v-65h-369v-244h316v-64h-316v-280h374v-64h-445v717zM310 862l-92 -99h-58l111 148h78l111 -148h-58z" />
    <glyph glyph-name="Edieresis" unicode="&#xcb;" horiz-adv-x="593" 
d="M88 717h440v-65h-369v-244h316v-64h-316v-280h374v-64h-445v717zM201 797q-21 0 -33.5 13t-12.5 32t12.5 32.5t33.5 13.5t33 -13.5t12 -32.5t-12 -32t-33 -13zM416 797q-22 0 -34.5 13t-12.5 32t12.5 32.5t34.5 13.5q21 0 33.5 -13.5t12.5 -32.5t-12.5 -32t-33.5 -13z
" />
    <glyph glyph-name="Igrave" unicode="&#xcc;" horiz-adv-x="246" 
d="M159 717v-717h-71v717h71zM88 773l-130 136h95l99 -136h-64z" />
    <glyph glyph-name="Iacute" unicode="&#xcd;" horiz-adv-x="246" 
d="M159 717v-717h-71v717h71zM190 909h95l-130 -136h-64z" />
    <glyph glyph-name="Icircumflex" unicode="&#xce;" horiz-adv-x="246" 
d="M159 717v-717h-71v717h71zM122 862l-92 -99h-58l111 148h78l111 -148h-58z" />
    <glyph glyph-name="Idieresis" unicode="&#xcf;" horiz-adv-x="246" 
d="M159 717v-717h-71v717h71zM15 797q-21 0 -33.5 13t-12.5 32t12.5 32.5t33.5 13.5t33 -13.5t12 -32.5t-12 -32t-33 -13zM230 797q-22 0 -34.5 13t-12.5 32t12.5 32.5t34.5 13.5q21 0 33.5 -13.5t12.5 -32.5t-12.5 -32t-33.5 -13z" />
    <glyph glyph-name="Eth" unicode="&#xd0;" horiz-adv-x="725" 
d="M106 395v322h239q70 0 131 -17.5t106.5 -57t71.5 -104t26 -158.5q0 -95 -26 -166t-72.5 -118.5t-110 -71.5t-137.5 -24h-228v337h-102v58h102zM178 337v-273h156q58 0 107.5 19t85.5 57.5t56 97t20 138.5q0 79 -20 132.5t-54.5 85t-81.5 45t-101 13.5h-168v-257h231v-58
h-231z" />
    <glyph glyph-name="Ntilde" unicode="&#xd1;" horiz-adv-x="739" 
d="M652 0h-98l-399 636v-636h-67v717h96l401 -639v639h67v-717zM209 789q-5 23 -2 45.5t14 40t29.5 28t45.5 10.5t49 -10t40.5 -22t36 -22t35.5 -10q47 0 39 67h49q4 -23 1.5 -45.5t-13 -40t-29 -28t-45.5 -10.5t-49 10t-41 21.5t-36.5 21.5t-35.5 10q-22 0 -32.5 -16.5
t-5.5 -49.5h-50v0z" />
    <glyph glyph-name="Ograve" unicode="&#xd2;" horiz-adv-x="770" 
d="M385 -10q-72 0 -134 25t-107 72t-71 116t-26 158q0 88 26 156.5t71 114.5t107 70t134 24q73 0 135 -24t107.5 -70.5t71 -114.5t25.5 -157q0 -88 -25.5 -156.5t-71 -116t-107.5 -72.5t-135 -25zM385 54q57 0 105.5 18t83.5 55.5t55 95t20 135.5t-20 135.5t-55 95
t-83.5 55.5t-105.5 18t-105 -18t-83 -55.5t-55 -95t-20 -135.5t20 -135.5t55 -95t83 -55.5t105 -18zM382 773l-130 136h95l99 -136h-64z" />
    <glyph glyph-name="Oacute" unicode="&#xd3;" horiz-adv-x="770" 
d="M385 -10q-72 0 -134 25t-107 72t-71 116t-26 158q0 88 26 156.5t71 114.5t107 70t134 24q73 0 135 -24t107.5 -70.5t71 -114.5t25.5 -157q0 -88 -25.5 -156.5t-71 -116t-107.5 -72.5t-135 -25zM385 54q57 0 105.5 18t83.5 55.5t55 95t20 135.5t-20 135.5t-55 95
t-83.5 55.5t-105.5 18t-105 -18t-83 -55.5t-55 -95t-20 -135.5t20 -135.5t55 -95t83 -55.5t105 -18zM431 909h95l-130 -136h-64z" />
    <glyph glyph-name="Ocircumflex" unicode="&#xd4;" horiz-adv-x="770" 
d="M385 -10q-72 0 -134 25t-107 72t-71 116t-26 158q0 88 26 156.5t71 114.5t107 70t134 24q73 0 135 -24t107.5 -70.5t71 -114.5t25.5 -157q0 -88 -25.5 -156.5t-71 -116t-107.5 -72.5t-135 -25zM385 54q57 0 105.5 18t83.5 55.5t55 95t20 135.5t-20 135.5t-55 95
t-83.5 55.5t-105.5 18t-105 -18t-83 -55.5t-55 -95t-20 -135.5t20 -135.5t55 -95t83 -55.5t105 -18zM385 862l-92 -99h-58l111 148h78l111 -148h-58z" />
    <glyph glyph-name="Otilde" unicode="&#xd5;" horiz-adv-x="770" 
d="M385 -10q-72 0 -134 25t-107 72t-71 116t-26 158q0 88 26 156.5t71 114.5t107 70t134 24q73 0 135 -24t107.5 -70.5t71 -114.5t25.5 -157q0 -88 -25.5 -156.5t-71 -116t-107.5 -72.5t-135 -25zM385 54q57 0 105.5 18t83.5 55.5t55 95t20 135.5t-20 135.5t-55 95
t-83.5 55.5t-105.5 18t-105 -18t-83 -55.5t-55 -95t-20 -135.5t20 -135.5t55 -95t83 -55.5t105 -18zM217 789q-5 23 -2 45.5t14 40t29.5 28t45.5 10.5t49 -10t40.5 -22t36 -22t35.5 -10q47 0 39 67h49q4 -23 1.5 -45.5t-13 -40t-29 -28t-45.5 -10.5t-49 10t-41 21.5
t-36.5 21.5t-35.5 10q-22 0 -32.5 -16.5t-5.5 -49.5h-50v0z" />
    <glyph glyph-name="Odieresis" unicode="&#xd6;" horiz-adv-x="770" 
d="M385 -10q-72 0 -134 25t-107 72t-71 116t-26 158q0 88 26 156.5t71 114.5t107 70t134 24q73 0 135 -24t107.5 -70.5t71 -114.5t25.5 -157q0 -88 -25.5 -156.5t-71 -116t-107.5 -72.5t-135 -25zM385 54q57 0 105.5 18t83.5 55.5t55 95t20 135.5t-20 135.5t-55 95
t-83.5 55.5t-105.5 18t-105 -18t-83 -55.5t-55 -95t-20 -135.5t20 -135.5t55 -95t83 -55.5t105 -18zM278 797q-21 0 -33.5 13t-12.5 32t12.5 32.5t33.5 13.5t33 -13.5t12 -32.5t-12 -32t-33 -13zM493 797q-22 0 -34.5 13t-12.5 32t12.5 32.5t34.5 13.5q21 0 33.5 -13.5
t12.5 -32.5t-12.5 -32t-33.5 -13z" />
    <glyph glyph-name="multiply" unicode="&#xd7;" 
d="M458 118l-183 183l-182 -183l-41 40l183 183l-180 180l40 40l180 -180l180 180l40 -40l-180 -180l183 -182z" />
    <glyph glyph-name="Oslash" unicode="&#xd8;" horiz-adv-x="771" 
d="M385 -10q-72 0 -134 25q-10 4 -20 9l-53 -94h-68l70 124q-19 15 -36 33q-45 47 -71 116t-26 158q0 88 26 156.5t71 114.5t107 70t134 24q73 0 135 -24q11 -4 21 -9l53 93h68l-70 -124q19 -14 35 -31q46 -46 71.5 -114t25.5 -157q0 -88 -25.5 -156.5t-71 -116
t-107.5 -72.5t-135 -25zM490 644q-48 18 -105 18t-105 -18t-83 -55.5t-55 -95t-20 -135.5t20 -135.5t55 -95.5q8 -8 16 -15l296 524q-9 4 -19 8zM385 54q57 0 105.5 18t83.5 55.5t55 95t20 135.5t-20 135.5t-55 94.5q-8 8 -16 15l-296 -524q9 -4 18 -7q48 -18 105 -18z" />
    <glyph glyph-name="Ugrave" unicode="&#xd9;" horiz-adv-x="695" 
d="M72 717h71v-471q0 -49 14.5 -85t41 -60t64 -36t83.5 -12q45 0 84 12t67.5 36t45 60.5t16.5 85.5v470h68v-467q0 -63 -21.5 -111.5t-59.5 -81.5t-89.5 -50t-111.5 -17q-59 0 -108.5 16t-86.5 48t-57.5 80t-20.5 112v471zM333 773l-130 136h95l99 -136h-64z" />
    <glyph glyph-name="Uacute" unicode="&#xda;" horiz-adv-x="695" 
d="M72 717h71v-471q0 -49 14.5 -85t41 -60t64 -36t83.5 -12q45 0 84 12t67.5 36t45 60.5t16.5 85.5v470h68v-467q0 -63 -21.5 -111.5t-59.5 -81.5t-89.5 -50t-111.5 -17q-59 0 -108.5 16t-86.5 48t-57.5 80t-20.5 112v471zM408 909h95l-130 -136h-64z" />
    <glyph glyph-name="Ucircumflex" unicode="&#xdb;" horiz-adv-x="695" 
d="M72 717h71v-471q0 -49 14.5 -85t41 -60t64 -36t83.5 -12q45 0 84 12t67.5 36t45 60.5t16.5 85.5v470h68v-467q0 -63 -21.5 -111.5t-59.5 -81.5t-89.5 -50t-111.5 -17q-59 0 -108.5 16t-86.5 48t-57.5 80t-20.5 112v471zM354 862l-92 -99h-58l111 148h78l111 -148h-58z
" />
    <glyph glyph-name="Udieresis" unicode="&#xdc;" horiz-adv-x="695" 
d="M72 717h71v-471q0 -49 14.5 -85t41 -60t64 -36t83.5 -12q45 0 84 12t67.5 36t45 60.5t16.5 85.5v470h68v-467q0 -63 -21.5 -111.5t-59.5 -81.5t-89.5 -50t-111.5 -17q-59 0 -108.5 16t-86.5 48t-57.5 80t-20.5 112v471zM246 797q-21 0 -33.5 13t-12.5 32t12.5 32.5
t33.5 13.5t33 -13.5t12 -32.5t-12 -32t-33 -13zM461 797q-22 0 -34.5 13t-12.5 32t12.5 32.5t34.5 13.5q21 0 33.5 -13.5t12.5 -32.5t-12.5 -32t-33.5 -13z" />
    <glyph glyph-name="Yacute" unicode="&#xdd;" horiz-adv-x="610" 
d="M342 312v-312h-72v310l-250 407h80l208 -345l209 345h73zM372 909h95l-130 -136h-64z" />
    <glyph glyph-name="Thorn" unicode="&#xde;" horiz-adv-x="601" 
d="M159 150v-150h-71v717h71v-151h156q114 0 178.5 -47t64.5 -148q0 -58 -18 -99.5t-51 -68.5t-80 -40t-104 -13h-146zM159 502v-288h146q85 0 133 35t48 118q0 70 -43 102.5t-128 32.5h-156z" />
    <glyph glyph-name="germandbls" unicode="&#xdf;" horiz-adv-x="608" 
d="M584 138q0 -39 -14.5 -67t-39.5 -46t-59 -26.5t-73 -8.5q-53 0 -87 11.5t-53 24.5v60q20 -15 56 -27.5t81 -12.5q60 0 91 24t31 67q0 31 -16.5 49t-41 30t-53 21.5t-53 23.5t-41 35t-16.5 57q0 28 10.5 46t26 31.5t33.5 24t33.5 24t26 31.5t10.5 46q0 54 -37.5 82.5
t-97.5 28.5q-72 0 -108 -43t-36 -127v-497h-67v497q0 106 53.5 167.5t158.5 61.5q48 0 85 -13t62.5 -35.5t38.5 -53t13 -66.5q0 -34 -10.5 -56.5t-26 -39t-33.5 -28t-33.5 -23t-26 -24t-10.5 -30.5q0 -23 16.5 -36t41.5 -23t53.5 -20t53.5 -27t41.5 -43.5t16.5 -69.5z" />
    <glyph glyph-name="agrave" unicode="&#xe0;" horiz-adv-x="528" 
d="M390 104q-9 -19 -23 -39.5t-36 -37t-51.5 -27t-69.5 -10.5q-74 0 -118 40.5t-44 114.5q0 82 59.5 122t170.5 40h110v46q0 60 -31.5 88.5t-102.5 28.5q-52 0 -97.5 -16.5t-76.5 -36.5v60q26 17 73.5 34.5t108.5 17.5q91 0 141.5 -40t50.5 -123v-275q0 -23 1.5 -49.5
t4.5 -41.5h-61q-3 15 -5.5 40.5t-2.5 51.5zM223 49q45 0 76.5 19t51 43t28.5 47.5t9 32.5v62h-104q-89 0 -129.5 -27.5t-40.5 -78.5q0 -46 29 -72t80 -26zM246 588l-125 158h89l94 -158h-58z" />
    <glyph glyph-name="aacute" unicode="&#xe1;" horiz-adv-x="528" 
d="M390 104q-9 -19 -23 -39.5t-36 -37t-51.5 -27t-69.5 -10.5q-74 0 -118 40.5t-44 114.5q0 82 59.5 122t170.5 40h110v46q0 60 -31.5 88.5t-102.5 28.5q-52 0 -97.5 -16.5t-76.5 -36.5v60q26 17 73.5 34.5t108.5 17.5q91 0 141.5 -40t50.5 -123v-275q0 -23 1.5 -49.5
t4.5 -41.5h-61q-3 15 -5.5 40.5t-2.5 51.5zM223 49q45 0 76.5 19t51 43t28.5 47.5t9 32.5v62h-104q-89 0 -129.5 -27.5t-40.5 -78.5q0 -46 29 -72t80 -26zM320 746h89l-125 -158h-58z" />
    <glyph glyph-name="acircumflex" unicode="&#xe2;" horiz-adv-x="528" 
d="M390 104q-9 -19 -23 -39.5t-36 -37t-51.5 -27t-69.5 -10.5q-74 0 -118 40.5t-44 114.5q0 82 59.5 122t170.5 40h110v46q0 60 -31.5 88.5t-102.5 28.5q-52 0 -97.5 -16.5t-76.5 -36.5v60q26 17 73.5 34.5t108.5 17.5q91 0 141.5 -40t50.5 -123v-275q0 -23 1.5 -49.5
t4.5 -41.5h-61q-3 15 -5.5 40.5t-2.5 51.5zM223 49q45 0 76.5 19t51 43t28.5 47.5t9 32.5v62h-104q-89 0 -129.5 -27.5t-40.5 -78.5q0 -46 29 -72t80 -26zM266 687l-92 -99h-58l111 148h78l111 -148h-58z" />
    <glyph glyph-name="atilde" unicode="&#xe3;" horiz-adv-x="528" 
d="M390 104q-9 -19 -23 -39.5t-36 -37t-51.5 -27t-69.5 -10.5q-74 0 -118 40.5t-44 114.5q0 82 59.5 122t170.5 40h110v46q0 60 -31.5 88.5t-102.5 28.5q-52 0 -97.5 -16.5t-76.5 -36.5v60q26 17 73.5 34.5t108.5 17.5q91 0 141.5 -40t50.5 -123v-275q0 -23 1.5 -49.5
t4.5 -41.5h-61q-3 15 -5.5 40.5t-2.5 51.5zM223 49q45 0 76.5 19t51 43t28.5 47.5t9 32.5v62h-104q-89 0 -129.5 -27.5t-40.5 -78.5q0 -46 29 -72t80 -26zM105 601q-4 21 -1.5 42t13 37t28 26t43.5 10q25 0 45 -8.5t37.5 -19t33 -19t32.5 -8.5q44 0 36 59h49
q4 -22 1.5 -42.5t-13 -37t-28.5 -26.5t-43 -10t-45 8.5t-37.5 19t-33.5 19t-32 8.5q-20 0 -30 -14.5t-5 -43.5h-50v0z" />
    <glyph glyph-name="adieresis" unicode="&#xe4;" horiz-adv-x="528" 
d="M390 104q-9 -19 -23 -39.5t-36 -37t-51.5 -27t-69.5 -10.5q-74 0 -118 40.5t-44 114.5q0 82 59.5 122t170.5 40h110v46q0 60 -31.5 88.5t-102.5 28.5q-52 0 -97.5 -16.5t-76.5 -36.5v60q26 17 73.5 34.5t108.5 17.5q91 0 141.5 -40t50.5 -123v-275q0 -23 1.5 -49.5
t4.5 -41.5h-61q-3 15 -5.5 40.5t-2.5 51.5zM223 49q45 0 76.5 19t51 43t28.5 47.5t9 32.5v62h-104q-89 0 -129.5 -27.5t-40.5 -78.5q0 -46 29 -72t80 -26zM164 613q-21 0 -33.5 13.5t-12.5 32.5t12.5 32.5t33.5 13.5t33.5 -13.5t12.5 -32.5t-12.5 -32.5t-33.5 -13.5z
M366 613q-21 0 -33.5 13.5t-12.5 32.5t12.5 32.5t33.5 13.5t33.5 -13.5t12.5 -32.5t-12.5 -32.5t-33.5 -13.5z" />
    <glyph glyph-name="aring" unicode="&#xe5;" horiz-adv-x="528" 
d="M394 104q-9 -19 -23 -39.5t-36 -37t-51.5 -27t-69.5 -10.5q-74 0 -118 40.5t-44 114.5q0 82 59.5 122t170.5 40h110v46q0 60 -31.5 88.5t-102.5 28.5q-52 0 -97.5 -16.5t-76.5 -36.5v60q26 17 73.5 34.5t108.5 17.5q91 0 141.5 -40t50.5 -123v-275q0 -23 1.5 -49.5
t4.5 -41.5h-61q-3 15 -5.5 40.5t-2.5 51.5zM227 49q45 0 76.5 19t51 43t28.5 47.5t9 32.5v62h-104q-89 0 -129.5 -27.5t-40.5 -78.5q0 -46 29 -72t80 -26zM259 571q-48 0 -79.5 30.5t-31.5 78.5t31.5 78.5t79.5 30.5t79.5 -30.5t31.5 -78.5t-31.5 -78.5t-79.5 -30.5z
M259 615q28 0 46.5 18t18.5 47t-18.5 47.5t-46.5 18.5t-46 -18.5t-18 -47.5t17.5 -47t46.5 -18z" />
    <glyph glyph-name="ae" unicode="&#xe6;" horiz-adv-x="881" 
d="M647 -6q-87 0 -144 36t-83 103q-6 -19 -20 -44t-38 -47t-60 -37t-86 -15q-79 0 -123.5 40.5t-44.5 114.5q0 82 59.5 122t170.5 40h113v46q0 117 -131 117q-57 0 -103 -16.5t-77 -36.5v60q26 17 74 34.5t114 17.5q65 0 110 -24.5t62 -75.5q30 51 78 77.5t111 26.5
q52 0 94 -18t70 -53.5t39 -88.5t1 -123h-375q4 -97 53.5 -147t140.5 -50q61 0 104.5 18t67.5 37v-60q-9 -8 -24.5 -17t-37 -17.5t-50.5 -14t-65 -5.5zM628 474q-64 0 -110.5 -42t-56.5 -126h310q3 43 -7.5 74.5t-30 52.5t-47 31t-58.5 10zM224 49q47 0 79 19.5t51.5 44.5
t28 49t8.5 33v58h-107q-89 0 -129.5 -27.5t-40.5 -78.5q0 -46 29 -72t81 -26z" />
    <glyph glyph-name="ccedilla" unicode="&#xe7;" horiz-adv-x="497" 
d="M300 -10q-59 0 -106.5 18.5t-81.5 53t-52.5 84.5t-18.5 114q0 63 18.5 113t53 84.5t83 53t108.5 18.5q44 0 85.5 -10t67.5 -28v-59q-32 20 -73 29t-79 9q-97 0 -147 -53.5t-50 -156.5t49.5 -157t142.5 -54q45 0 85 11t72 29v-59q-27 -17 -65 -28.5t-92 -11.5zM322 16
l-61 -203h-85l88 203h58z" />
    <glyph glyph-name="egrave" unicode="&#xe8;" horiz-adv-x="534" 
d="M481 44q-9 -8 -25.5 -17t-39 -17.5t-51.5 -14t-64 -5.5q-126 0 -194 71t-68 199q0 63 18.5 113t51.5 84.5t77.5 53t95.5 18.5q53 0 96 -18t71.5 -53.5t39.5 -88.5t1 -123h-384q4 -97 55 -147t145 -50q60 0 105.5 18t69.5 37v-60zM281 470q-66 0 -113.5 -42t-58.5 -126
h320q3 43 -8 74.5t-31 52.5t-48 31t-61 10zM255 588l-125 158h89l94 -158h-58z" />
    <glyph glyph-name="eacute" unicode="&#xe9;" horiz-adv-x="534" 
d="M481 44q-9 -8 -25.5 -17t-39 -17.5t-51.5 -14t-64 -5.5q-126 0 -194 71t-68 199q0 63 18.5 113t51.5 84.5t77.5 53t95.5 18.5q53 0 96 -18t71.5 -53.5t39.5 -88.5t1 -123h-384q4 -97 55 -147t145 -50q60 0 105.5 18t69.5 37v-60zM281 470q-66 0 -113.5 -42t-58.5 -126
h320q3 43 -8 74.5t-31 52.5t-48 31t-61 10zM307 746h89l-125 -158h-58z" />
    <glyph glyph-name="ecircumflex" unicode="&#xea;" horiz-adv-x="534" 
d="M481 44q-9 -8 -25.5 -17t-39 -17.5t-51.5 -14t-64 -5.5q-126 0 -194 71t-68 199q0 63 18.5 113t51.5 84.5t77.5 53t95.5 18.5q53 0 96 -18t71.5 -53.5t39.5 -88.5t1 -123h-384q4 -97 55 -147t145 -50q60 0 105.5 18t69.5 37v-60zM281 470q-66 0 -113.5 -42t-58.5 -126
h320q3 43 -8 74.5t-31 52.5t-48 31t-61 10zM275 687l-92 -99h-58l111 148h78l111 -148h-58z" />
    <glyph glyph-name="edieresis" unicode="&#xeb;" horiz-adv-x="534" 
d="M481 44q-9 -8 -25.5 -17t-39 -17.5t-51.5 -14t-64 -5.5q-126 0 -194 71t-68 199q0 63 18.5 113t51.5 84.5t77.5 53t95.5 18.5q53 0 96 -18t71.5 -53.5t39.5 -88.5t1 -123h-384q4 -97 55 -147t145 -50q60 0 105.5 18t69.5 37v-60zM281 470q-66 0 -113.5 -42t-58.5 -126
h320q3 43 -8 74.5t-31 52.5t-48 31t-61 10zM177 613q-21 0 -33.5 13.5t-12.5 32.5t12.5 32.5t33.5 13.5t33.5 -13.5t12.5 -32.5t-12.5 -32.5t-33.5 -13.5zM379 613q-21 0 -33.5 13.5t-12.5 32.5t12.5 32.5t33.5 13.5t33.5 -13.5t12.5 -32.5t-12.5 -32.5t-33.5 -13.5z" />
    <glyph glyph-name="igrave" unicode="&#xec;" horiz-adv-x="219" 
d="M143 519v-519h-66v519h66zM81 588l-125 158h89l94 -158h-58z" />
    <glyph glyph-name="iacute" unicode="&#xed;" horiz-adv-x="219" 
d="M143 519v-519h-66v519h66zM173 746h89l-125 -158h-58z" />
    <glyph glyph-name="icircumflex" unicode="&#xee;" horiz-adv-x="219" 
d="M143 519v-519h-66v519h66zM110 687l-92 -99h-58l111 148h78l111 -148h-58z" />
    <glyph glyph-name="idieresis" unicode="&#xef;" horiz-adv-x="219" 
d="M143 519v-519h-66v519h66zM11 613q-21 0 -33.5 13.5t-12.5 32.5t12.5 32.5t33.5 13.5t33.5 -13.5t12.5 -32.5t-12.5 -32.5t-33.5 -13.5zM213 613q-21 0 -33.5 13.5t-12.5 32.5t12.5 32.5t33.5 13.5t33.5 -13.5t12.5 -32.5t-12.5 -32.5t-33.5 -13.5z" />
    <glyph glyph-name="eth" unicode="&#xf0;" horiz-adv-x="575" 
d="M539 291q0 -75 -19 -131.5t-53 -94t-80.5 -56.5t-100.5 -19q-53 0 -98 18t-78 52.5t-52 85t-19 114.5t19 113.5t51.5 83t76 50.5t93.5 17q49 0 87.5 -16t67.5 -52q-21 46 -52.5 84.5t-70.5 69.5l-164 -53l-14 43l132 43q-65 42 -135 65v9h96q25 -8 51.5 -21t53.5 -31
l116 38l14 -44l-85 -28q33 -28 62.5 -63.5t52 -78.5t35.5 -92.5t13 -105.5zM285 49q39 0 72.5 13.5t57.5 42.5t38 73t14 106q0 29 -2.5 56.5t-10.5 50.5q-25 35 -65 56t-101 21q-39 0 -72.5 -12.5t-58 -38.5t-38 -65t-13.5 -92t13.5 -92.5t37.5 -65.5t57 -39.5t71 -13.5z
" />
    <glyph glyph-name="ntilde" unicode="&#xf1;" horiz-adv-x="578" 
d="M319 470q-36 0 -63.5 -9.5t-48.5 -25.5t-36.5 -38t-27.5 -46v-351h-66v519h62l3 -105h2q10 23 26.5 44t40 36.5t54 25t69.5 9.5q79 0 125.5 -41.5t46.5 -123.5v-364h-66v358q0 62 -33 87t-88 25zM133 601q-4 21 -1.5 42t13 37t28 26t43.5 10q25 0 45 -8.5t37.5 -19
t33 -19t32.5 -8.5q44 0 36 59h49q4 -22 1.5 -42.5t-13 -37t-28.5 -26.5t-43 -10t-45 8.5t-37.5 19t-33.5 19t-32 8.5q-20 0 -30 -14.5t-5 -43.5h-50v0z" />
    <glyph glyph-name="ograve" unicode="&#xf2;" horiz-adv-x="574" 
d="M286 -10q-53 0 -98 18t-78 52.5t-52 85t-19 114.5t19 114t52 84.5t78 52.5t98 18t98.5 -18t79 -52.5t52.5 -84.5t19 -114t-19 -114.5t-52.5 -85t-79 -52.5t-98.5 -18zM286 49q39 0 72 13.5t57.5 39.5t38 65.5t13.5 92.5t-13.5 92.5t-38 65.5t-57.5 39t-72 13t-72 -13
t-57 -39t-37.5 -65.5t-13.5 -92.5t13.5 -92.5t37.5 -65.5t57 -39.5t72 -13.5zM275 588l-125 158h89l94 -158h-58z" />
    <glyph glyph-name="oacute" unicode="&#xf3;" horiz-adv-x="574" 
d="M286 -10q-53 0 -98 18t-78 52.5t-52 85t-19 114.5t19 114t52 84.5t78 52.5t98 18t98.5 -18t79 -52.5t52.5 -84.5t19 -114t-19 -114.5t-52.5 -85t-79 -52.5t-98.5 -18zM286 49q39 0 72 13.5t57.5 39.5t38 65.5t13.5 92.5t-13.5 92.5t-38 65.5t-57.5 39t-72 13t-72 -13
t-57 -39t-37.5 -65.5t-13.5 -92.5t13.5 -92.5t37.5 -65.5t57 -39.5t72 -13.5zM331 746h89l-125 -158h-58z" />
    <glyph glyph-name="ocircumflex" unicode="&#xf4;" horiz-adv-x="574" 
d="M286 -10q-53 0 -98 18t-78 52.5t-52 85t-19 114.5t19 114t52 84.5t78 52.5t98 18t98.5 -18t79 -52.5t52.5 -84.5t19 -114t-19 -114.5t-52.5 -85t-79 -52.5t-98.5 -18zM286 49q39 0 72 13.5t57.5 39.5t38 65.5t13.5 92.5t-13.5 92.5t-38 65.5t-57.5 39t-72 13t-72 -13
t-57 -39t-37.5 -65.5t-13.5 -92.5t13.5 -92.5t37.5 -65.5t57 -39.5t72 -13.5zM287 687l-92 -99h-58l111 148h78l111 -148h-58z" />
    <glyph glyph-name="otilde" unicode="&#xf5;" horiz-adv-x="574" 
d="M286 -10q-53 0 -98 18t-78 52.5t-52 85t-19 114.5t19 114t52 84.5t78 52.5t98 18t98.5 -18t79 -52.5t52.5 -84.5t19 -114t-19 -114.5t-52.5 -85t-79 -52.5t-98.5 -18zM286 49q39 0 72 13.5t57.5 39.5t38 65.5t13.5 92.5t-13.5 92.5t-38 65.5t-57.5 39t-72 13t-72 -13
t-57 -39t-37.5 -65.5t-13.5 -92.5t13.5 -92.5t37.5 -65.5t57 -39.5t72 -13.5zM129 601q-4 21 -1.5 42t13 37t28 26t43.5 10q25 0 45 -8.5t37.5 -19t33 -19t32.5 -8.5q44 0 36 59h49q4 -22 1.5 -42.5t-13 -37t-28.5 -26.5t-43 -10t-45 8.5t-37.5 19t-33.5 19t-32 8.5
q-20 0 -30 -14.5t-5 -43.5h-50v0z" />
    <glyph glyph-name="odieresis" unicode="&#xf6;" horiz-adv-x="574" 
d="M286 -10q-53 0 -98 18t-78 52.5t-52 85t-19 114.5t19 114t52 84.5t78 52.5t98 18t98.5 -18t79 -52.5t52.5 -84.5t19 -114t-19 -114.5t-52.5 -85t-79 -52.5t-98.5 -18zM286 49q39 0 72 13.5t57.5 39.5t38 65.5t13.5 92.5t-13.5 92.5t-38 65.5t-57.5 39t-72 13t-72 -13
t-57 -39t-37.5 -65.5t-13.5 -92.5t13.5 -92.5t37.5 -65.5t57 -39.5t72 -13.5zM186 613q-21 0 -33.5 13.5t-12.5 32.5t12.5 32.5t33.5 13.5t33.5 -13.5t12.5 -32.5t-12.5 -32.5t-33.5 -13.5zM388 613q-21 0 -33.5 13.5t-12.5 32.5t12.5 32.5t33.5 13.5t33.5 -13.5t12.5 -32.5
t-12.5 -32.5t-33.5 -13.5z" />
    <glyph glyph-name="divide" unicode="&#xf7;" 
d="M274 482q-23 0 -38 15.5t-15 37.5q0 23 15 38t38 15q24 0 38.5 -15t14.5 -38q0 -22 -14.5 -37.5t-38.5 -15.5zM43 310v54h463v-54h-463zM274 86q-23 0 -38 15.5t-15 37.5q0 23 15 38t38 15q24 0 38.5 -15t14.5 -38q0 -22 -14.5 -37.5t-38.5 -15.5z" />
    <glyph glyph-name="oslash" unicode="&#xf8;" horiz-adv-x="574" 
d="M286 -10q-51 0 -92 16l-40 -82h-62l52 107q-48 34 -76.5 91.5t-28.5 137.5q0 64 19 114t52 84.5t78 52.5t98 18q51 0 92 -16l40 82h63l-52 -107q49 -33 77.5 -90.5t28.5 -137.5q0 -64 -19 -114.5t-52.5 -85t-79 -52.5t-98.5 -18zM106 260q0 -60 17.5 -103t48.5 -69
l180 371q-31 11 -66 11q-39 0 -72 -13t-57 -39t-37.5 -65.5t-13.5 -92.5zM467 260q0 60 -17.5 102.5t-48.5 68.5l-181 -371q31 -11 66 -11q39 0 72 13.5t57.5 39.5t38 65.5t13.5 92.5z" />
    <glyph glyph-name="ugrave" unicode="&#xf9;" horiz-adv-x="565" 
d="M422 104q-20 -47 -65.5 -80.5t-120.5 -33.5t-120 42.5t-45 127.5v359h67v-359q0 -62 32.5 -86.5t82.5 -24.5q34 0 60 9t46 24.5t35.5 37t27.5 46.5v353h66v-519h-59l-5 104h-2v0zM258 588l-125 158h89l94 -158h-58z" />
    <glyph glyph-name="uacute" unicode="&#xfa;" horiz-adv-x="565" 
d="M422 104q-20 -47 -65.5 -80.5t-120.5 -33.5t-120 42.5t-45 127.5v359h67v-359q0 -62 32.5 -86.5t82.5 -24.5q34 0 60 9t46 24.5t35.5 37t27.5 46.5v353h66v-519h-59l-5 104h-2v0zM337 746h89l-125 -158h-58z" />
    <glyph glyph-name="ucircumflex" unicode="&#xfb;" horiz-adv-x="565" 
d="M422 104q-20 -47 -65.5 -80.5t-120.5 -33.5t-120 42.5t-45 127.5v359h67v-359q0 -62 32.5 -86.5t82.5 -24.5q34 0 60 9t46 24.5t35.5 37t27.5 46.5v353h66v-519h-59l-5 104h-2v0zM279 687l-92 -99h-58l111 148h78l111 -148h-58z" />
    <glyph glyph-name="udieresis" unicode="&#xfc;" horiz-adv-x="565" 
d="M422 104q-20 -47 -65.5 -80.5t-120.5 -33.5t-120 42.5t-45 127.5v359h67v-359q0 -62 32.5 -86.5t82.5 -24.5q34 0 60 9t46 24.5t35.5 37t27.5 46.5v353h66v-519h-59l-5 104h-2v0zM177 613q-21 0 -33.5 13.5t-12.5 32.5t12.5 32.5t33.5 13.5t33.5 -13.5t12.5 -32.5
t-12.5 -32.5t-33.5 -13.5zM379 613q-21 0 -33.5 13.5t-12.5 32.5t12.5 32.5t33.5 13.5t33.5 -13.5t12.5 -32.5t-12.5 -32.5t-33.5 -13.5z" />
    <glyph glyph-name="yacute" unicode="&#xfd;" horiz-adv-x="513" 
d="M302 6q-19 -47 -38 -82.5t-41.5 -60.5t-50.5 -37.5t-64 -12.5q-34 0 -56 9v63q21 -13 54 -13q40 0 65.5 26t50.5 80l-211 541h74l175 -452l178 452h65l-201 -513v0zM320 746h89l-125 -158h-58z" />
    <glyph glyph-name="thorn" unicode="&#xfe;" horiz-adv-x="606" 
d="M330 -10q-65 0 -112.5 31.5t-74.5 87.5v-286h-66v894h66l1 -301q26 54 73 83.5t113 29.5q49 0 92 -17t75.5 -51t51 -84t18.5 -117t-19 -117.5t-51 -84.5t-75.5 -51t-91.5 -17zM322 49q39 0 71.5 13.5t56 40t36.5 66t13 91.5q0 51 -13 90.5t-36.5 66t-56 40t-71.5 13.5
q-38 0 -71 -13.5t-57 -39.5t-38 -65.5t-14 -91.5t14 -91.5t38 -66t57 -40t71 -13.5z" />
    <glyph glyph-name="ydieresis" unicode="&#xff;" horiz-adv-x="513" 
d="M302 6q-19 -47 -38 -82.5t-41.5 -60.5t-50.5 -37.5t-64 -12.5q-34 0 -56 9v63q21 -13 54 -13q40 0 65.5 26t50.5 80l-211 541h74l175 -452l178 452h65l-201 -513v0zM157 613q-21 0 -33.5 13.5t-12.5 32.5t12.5 32.5t33.5 13.5t33.5 -13.5t12.5 -32.5t-12.5 -32.5
t-33.5 -13.5zM359 613q-21 0 -33.5 13.5t-12.5 32.5t12.5 32.5t33.5 13.5t33.5 -13.5t12.5 -32.5t-12.5 -32.5t-33.5 -13.5z" />
    <glyph glyph-name="Amacron" unicode="&#x100;" horiz-adv-x="677" 
d="M286 717h102l269 -717h-75l-81 217h-333l-81 -217h-67zM477 281l-144 383l-142 -383h286zM180 870h308v-54h-308v54z" />
    <glyph glyph-name="amacron" unicode="&#x101;" horiz-adv-x="528" 
d="M390 104q-9 -19 -23 -39.5t-36 -37t-51.5 -27t-69.5 -10.5q-74 0 -118 40.5t-44 114.5q0 82 59.5 122t170.5 40h110v46q0 60 -31.5 88.5t-102.5 28.5q-52 0 -97.5 -16.5t-76.5 -36.5v60q26 17 73.5 34.5t108.5 17.5q91 0 141.5 -40t50.5 -123v-275q0 -23 1.5 -49.5
t4.5 -41.5h-61q-3 15 -5.5 40.5t-2.5 51.5zM223 49q45 0 76.5 19t51 43t28.5 47.5t9 32.5v62h-104q-89 0 -129.5 -27.5t-40.5 -78.5q0 -46 29 -72t80 -26zM120 679h288v-54h-288v54z" />
    <glyph glyph-name="Abreve" unicode="&#x102;" horiz-adv-x="677" 
d="M286 717h102l269 -717h-75l-81 217h-333l-81 -217h-67zM477 281l-144 383l-142 -383h286zM335 763q-39 0 -68 11.5t-48.5 31.5t-29 47t-9.5 58h66q0 -49 24 -72.5t65 -23.5t64.5 23.5t23.5 72.5h66q0 -31 -9.5 -58t-29 -47t-48 -31.5t-67.5 -11.5z" />
    <glyph glyph-name="abreve" unicode="&#x103;" horiz-adv-x="528" 
d="M390 104q-9 -19 -23 -39.5t-36 -37t-51.5 -27t-69.5 -10.5q-74 0 -118 40.5t-44 114.5q0 82 59.5 122t170.5 40h110v46q0 60 -31.5 88.5t-102.5 28.5q-52 0 -97.5 -16.5t-76.5 -36.5v60q26 17 73.5 34.5t108.5 17.5q91 0 141.5 -40t50.5 -123v-275q0 -23 1.5 -49.5
t4.5 -41.5h-61q-3 15 -5.5 40.5t-2.5 51.5zM223 49q45 0 76.5 19t51 43t28.5 47.5t9 32.5v62h-104q-89 0 -129.5 -27.5t-40.5 -78.5q0 -46 29 -72t80 -26zM264 584q-37 0 -65 11t-46.5 30t-28 44t-9.5 54h67q0 -45 22 -66.5t60 -21.5t59.5 21.5t21.5 66.5h67q0 -29 -9 -54
t-27.5 -44t-46.5 -30t-65 -11z" />
    <glyph glyph-name="Aogonek" unicode="&#x104;" horiz-adv-x="677" 
d="M286 717h102l269 -717q-31 -10 -54.5 -31.5t-23.5 -56.5q0 -26 17 -40.5t49 -14.5q25 0 47 8v-46q-8 -5 -23.5 -8t-35.5 -3q-51 0 -81.5 24.5t-30.5 71.5q0 33 16.5 59t42.5 42l-79 212h-333l-81 -217h-67zM477 281l-144 383l-142 -383h286z" />
    <glyph glyph-name="aogonek" unicode="&#x105;" horiz-adv-x="528" 
d="M497 -181q-8 -5 -23.5 -8t-36.5 -3q-51 0 -81 24t-30 66q0 39 23.5 64.5t53.5 37.5q-2 15 -4.5 40.5t-2.5 51.5l-1 13q-8 -19 -22 -39.5t-36 -37t-52 -27.5t-70 -11q-74 0 -118 40.5t-44 114.5q0 82 59.5 122t170.5 40h109v46q0 60 -31.5 88.5t-101.5 28.5
q-53 0 -98.5 -16.5t-75.5 -36.5v60q26 17 73 34.5t108 17.5q91 0 141.5 -40t50.5 -123v-275q0 -23 1.5 -49.5t4.5 -41.5q-31 -10 -55.5 -31.5t-24.5 -56.5q0 -26 16.5 -40.5t48.5 -14.5q26 0 48 8v-46zM227 49q46 0 77.5 19t51 43t28 47.5t8.5 32.5v62h-103
q-89 0 -130 -27.5t-41 -78.5q0 -46 29 -72t80 -26z" />
    <glyph glyph-name="Cacute" unicode="&#x106;" horiz-adv-x="669" 
d="M393 -10q-80 0 -144 25t-109 72.5t-69 116t-24 154.5q0 87 23 155t67 115.5t108 72.5t147 25q76 0 130.5 -18t88.5 -42v-68q-42 30 -101 47t-119 17q-134 0 -201 -77.5t-67 -226.5t70.5 -226.5t204.5 -77.5q59 0 114 18t99 53v-70q-30 -25 -85 -45t-133 -20zM426 909h95
l-130 -136h-64z" />
    <glyph glyph-name="cacute" unicode="&#x107;" horiz-adv-x="497" 
d="M298 -10q-59 0 -106.5 18.5t-81.5 53t-52.5 84.5t-18.5 114q0 63 18.5 113t53 84.5t83 53t108.5 18.5q44 0 85.5 -10t67.5 -28v-59q-32 20 -73 29t-79 9q-97 0 -147 -53.5t-50 -156.5t49.5 -157t142.5 -54q45 0 85 11t72 29v-59q-27 -17 -65 -28.5t-92 -11.5zM338 746h89
l-125 -158h-58z" />
    <glyph glyph-name="Ccircumflex" unicode="&#x108;" horiz-adv-x="669" 
d="M393 -10q-80 0 -144 25t-109 72.5t-69 116t-24 154.5q0 87 23 155t67 115.5t108 72.5t147 25q76 0 130.5 -18t88.5 -42v-68q-42 30 -101 47t-119 17q-134 0 -201 -77.5t-67 -226.5t70.5 -226.5t204.5 -77.5q59 0 114 18t99 53v-70q-30 -25 -85 -45t-133 -20zM383 862
l-92 -99h-58l111 148h78l111 -148h-58z" />
    <glyph glyph-name="ccircumflex" unicode="&#x109;" horiz-adv-x="497" 
d="M298 -10q-59 0 -106.5 18.5t-81.5 53t-52.5 84.5t-18.5 114q0 63 18.5 113t53 84.5t83 53t108.5 18.5q44 0 85.5 -10t67.5 -28v-59q-32 20 -73 29t-79 9q-97 0 -147 -53.5t-50 -156.5t49.5 -157t142.5 -54q45 0 85 11t72 29v-59q-27 -17 -65 -28.5t-92 -11.5zM286 687
l-92 -99h-58l111 148h78l111 -148h-58z" />
    <glyph glyph-name="Cdotaccent" unicode="&#x10a;" horiz-adv-x="669" 
d="M399 -10q-80 0 -144 25t-109 72.5t-69 116t-24 154.5q0 87 23 155t67 115.5t108 72.5t147 25q76 0 130.5 -18t88.5 -42v-68q-42 30 -101 47t-119 17q-134 0 -201 -77.5t-67 -226.5t70.5 -226.5t204.5 -77.5q59 0 114 18t99 53v-70q-30 -25 -85 -45t-133 -20zM376 797
q-21 0 -33.5 13t-12.5 32t12.5 32.5t33.5 13.5t33.5 -13.5t12.5 -32.5t-12.5 -32t-33.5 -13z" />
    <glyph glyph-name="cdotaccent" unicode="&#x10b;" horiz-adv-x="497" 
d="M298 -10q-59 0 -106.5 18.5t-81.5 53t-52.5 84.5t-18.5 114q0 63 18.5 113t53 84.5t83 53t108.5 18.5q44 0 85.5 -10t67.5 -28v-59q-32 20 -73 29t-79 9q-97 0 -147 -53.5t-50 -156.5t49.5 -157t142.5 -54q45 0 85 11t72 29v-59q-27 -17 -65 -28.5t-92 -11.5zM278 613
q-21 0 -33.5 13.5t-12.5 32.5t12.5 32.5t33.5 13.5t33.5 -13.5t12.5 -32.5t-12.5 -32.5t-33.5 -13.5z" />
    <glyph glyph-name="Ccaron" unicode="&#x10c;" horiz-adv-x="669" 
d="M393 -10q-80 0 -144 25t-109 72.5t-69 116t-24 154.5q0 87 23 155t67 115.5t108 72.5t147 25q76 0 130.5 -18t88.5 -42v-68q-42 30 -101 47t-119 17q-134 0 -201 -77.5t-67 -226.5t70.5 -226.5t204.5 -77.5q59 0 114 18t99 53v-70q-30 -25 -85 -45t-133 -20zM421 763h-78
l-111 148h58l92 -99l92 99h58z" />
    <glyph glyph-name="ccaron" unicode="&#x10d;" horiz-adv-x="497" 
d="M298 -10q-59 0 -106.5 18.5t-81.5 53t-52.5 84.5t-18.5 114q0 63 18.5 113t53 84.5t83 53t108.5 18.5q44 0 85.5 -10t67.5 -28v-59q-32 20 -73 29t-79 9q-97 0 -147 -53.5t-50 -156.5t49.5 -157t142.5 -54q45 0 85 11t72 29v-59q-27 -17 -65 -28.5t-92 -11.5zM321 588
h-78l-111 148h58l92 -99l92 99h58z" />
    <glyph glyph-name="Dcaron" unicode="&#x10e;" horiz-adv-x="706" 
d="M88 717h238q70 0 131 -17.5t106 -57t71 -104t26 -158.5q0 -95 -26 -166t-72 -118.5t-109.5 -71.5t-137.5 -24h-227v717zM159 652v-588h157q58 0 107 19t85 57.5t56 97t20 138.5q0 79 -20 132.5t-54.5 85t-81.5 45t-101 13.5h-168zM359 763h-78l-111 148h58l92 -99l92 99
h58z" />
    <glyph glyph-name="dcaron" unicode="&#x10f;" horiz-adv-x="594" 
d="M473 114q-25 -57 -72.5 -90.5t-116.5 -33.5q-49 0 -92 17t-75.5 51t-51 84.5t-18.5 117.5t19 117t51 84t75.5 51t92.5 17q65 0 112.5 -29t73.5 -83v300h66v-717h-59zM292 49q38 0 71 13.5t57 40t38 66t14 91.5t-14 91.5t-38 66t-57 39.5t-71 13q-39 0 -71.5 -13.5
t-56 -40t-37 -66t-13.5 -90.5q0 -52 13.5 -91.5t37 -66t56 -40t71.5 -13.5zM598 528l24 189h79l-55 -189h-48z" />
    <glyph glyph-name="Dcroat" unicode="&#x110;" horiz-adv-x="725" 
d="M108 395v322h239q70 0 131 -17.5t106.5 -57t71.5 -104t26 -158.5q0 -95 -26 -166t-72.5 -118.5t-110 -71.5t-137.5 -24h-228v337h-102v58h102zM180 337v-273h156q58 0 107.5 19t85.5 57.5t56 97t20 138.5q0 79 -20 132.5t-54.5 85t-81.5 45t-101 13.5h-168v-257h231v-58
h-231z" />
    <glyph glyph-name="dcroat" unicode="&#x111;" horiz-adv-x="606" 
d="M465 114q-25 -57 -72.5 -90.5t-116.5 -33.5q-49 0 -92 17t-75.5 51t-51 84.5t-18.5 117.5t19 117t51 84t75.5 51t92.5 17q65 0 112.5 -29t73.5 -83v167h-173v50h173v83h66v-83h79v-50h-79v-584h-59zM284 49q38 0 71 13.5t57 40t38 66t14 91.5t-14 91.5t-38 66t-57 39.5
t-71 13q-39 0 -71.5 -13.5t-56 -40t-37 -66t-13.5 -90.5q0 -52 13.5 -91.5t37 -66t56 -40t71.5 -13.5z" />
    <glyph glyph-name="Emacron" unicode="&#x112;" horiz-adv-x="593" 
d="M88 717h440v-65h-369v-244h316v-64h-316v-280h374v-64h-445v717zM154 870h308v-54h-308v54z" />
    <glyph glyph-name="emacron" unicode="&#x113;" horiz-adv-x="534" 
d="M481 44q-9 -8 -25.5 -17t-39 -17.5t-51.5 -14t-64 -5.5q-126 0 -194 71t-68 199q0 63 18.5 113t51.5 84.5t77.5 53t95.5 18.5q53 0 96 -18t71.5 -53.5t39.5 -88.5t1 -123h-384q4 -97 55 -147t145 -50q60 0 105.5 18t69.5 37v-60zM281 470q-66 0 -113.5 -42t-58.5 -126
h320q3 43 -8 74.5t-31 52.5t-48 31t-61 10zM136 679h288v-54h-288v54z" />
    <glyph glyph-name="Ebreve" unicode="&#x114;" horiz-adv-x="593" 
d="M88 717h440v-65h-369v-244h316v-64h-316v-280h374v-64h-445v717zM309 763q-39 0 -68 11.5t-48.5 31.5t-29 47t-9.5 58h66q0 -49 24 -72.5t65 -23.5t64.5 23.5t23.5 72.5h66q0 -31 -9.5 -58t-29 -47t-48 -31.5t-67.5 -11.5z" />
    <glyph glyph-name="ebreve" unicode="&#x115;" horiz-adv-x="534" 
d="M481 44q-9 -8 -25.5 -17t-39 -17.5t-51.5 -14t-64 -5.5q-126 0 -194 71t-68 199q0 63 18.5 113t51.5 84.5t77.5 53t95.5 18.5q53 0 96 -18t71.5 -53.5t39.5 -88.5t1 -123h-384q4 -97 55 -147t145 -50q60 0 105.5 18t69.5 37v-60zM281 470q-66 0 -113.5 -42t-58.5 -126
h320q3 43 -8 74.5t-31 52.5t-48 31t-61 10zM280 584q-37 0 -65 11t-46.5 30t-28 44t-9.5 54h67q0 -45 22 -66.5t60 -21.5t59.5 21.5t21.5 66.5h67q0 -29 -9 -54t-27.5 -44t-46.5 -30t-65 -11z" />
    <glyph glyph-name="Edotaccent" unicode="&#x116;" horiz-adv-x="593" 
d="M88 717h440v-65h-369v-244h316v-64h-316v-280h374v-64h-445v717zM312 797q-21 0 -33.5 13t-12.5 32t12.5 32.5t33.5 13.5t33.5 -13.5t12.5 -32.5t-12.5 -32t-33.5 -13z" />
    <glyph glyph-name="edotaccent" unicode="&#x117;" horiz-adv-x="534" 
d="M481 44q-9 -8 -25.5 -17t-39 -17.5t-51.5 -14t-64 -5.5q-126 0 -194 71t-68 199q0 63 18.5 113t51.5 84.5t77.5 53t95.5 18.5q53 0 96 -18t71.5 -53.5t39.5 -88.5t1 -123h-384q4 -97 55 -147t145 -50q60 0 105.5 18t69.5 37v-60zM281 470q-66 0 -113.5 -42t-58.5 -126
h320q3 43 -8 74.5t-31 52.5t-48 31t-61 10zM267 613q-21 0 -33.5 13.5t-12.5 32.5t12.5 32.5t33.5 13.5t33.5 -13.5t12.5 -32.5t-12.5 -32.5t-33.5 -13.5z" />
    <glyph glyph-name="Eogonek" unicode="&#x118;" horiz-adv-x="593" 
d="M88 717h440v-65h-369v-244h316v-64h-316v-280h374v-64h-445v717zM507 -192q-51 0 -81.5 24t-30.5 66q0 41 25 66t56 36h58q-31 -10 -55.5 -31.5t-24.5 -56.5q0 -26 16.5 -40.5t48.5 -14.5q25 0 47 8v-46q-8 -5 -23.5 -8t-35.5 -3z" />
    <glyph glyph-name="eogonek" unicode="&#x119;" horiz-adv-x="534" 
d="M481 44q-9 -8 -25.5 -17t-39 -17.5t-51.5 -14t-64 -5.5q-126 0 -194 71t-68 199q0 63 18.5 113t51.5 84.5t77.5 53t95.5 18.5q53 0 96 -18t71.5 -53.5t39.5 -88.5t1 -123h-384q4 -97 55 -147t145 -50q60 0 105.5 18t69.5 37v-60zM281 470q-66 0 -113.5 -42t-58.5 -126
h320q3 43 -8 74.5t-31 52.5t-48 31t-61 10zM360 -192q-51 0 -81.5 24t-30.5 66q0 41 25 66t56 36h58q-31 -10 -55.5 -31.5t-24.5 -56.5q0 -26 16.5 -40.5t48.5 -14.5q25 0 47 8v-46q-8 -5 -23.5 -8t-35.5 -3z" />
    <glyph glyph-name="Ecaron" unicode="&#x11a;" horiz-adv-x="593" 
d="M88 717h440v-65h-369v-244h316v-64h-316v-280h374v-64h-445v717zM353 763h-78l-111 148h58l92 -99l92 99h58z" />
    <glyph glyph-name="ecaron" unicode="&#x11b;" horiz-adv-x="534" 
d="M481 44q-9 -8 -25.5 -17t-39 -17.5t-51.5 -14t-64 -5.5q-126 0 -194 71t-68 199q0 63 18.5 113t51.5 84.5t77.5 53t95.5 18.5q53 0 96 -18t71.5 -53.5t39.5 -88.5t1 -123h-384q4 -97 55 -147t145 -50q60 0 105.5 18t69.5 37v-60zM281 470q-66 0 -113.5 -42t-58.5 -126
h320q3 43 -8 74.5t-31 52.5t-48 31t-61 10zM321 588h-78l-111 148h58l92 -99l92 99h58z" />
    <glyph glyph-name="Gcircumflex" unicode="&#x11c;" horiz-adv-x="743" 
d="M690 279q0 -63 -19.5 -116t-57.5 -91.5t-94.5 -60t-131.5 -21.5q-74 0 -136.5 25.5t-107.5 73.5t-70.5 116t-25.5 153t24.5 153t71 116t113.5 73.5t152 25.5q45 0 81 -6t64.5 -15.5t50 -21t37.5 -23.5v-68q-45 30 -101 50t-133 20q-141 0 -212.5 -79t-71.5 -225
q0 -72 19 -128.5t54 -95.5t83.5 -59.5t107.5 -20.5q58 0 101.5 16t72 45t43 69.5t14.5 88.5v30h-252v64h324v-88v0zM392 862l-92 -99h-58l111 148h78l111 -148h-58z" />
    <glyph glyph-name="gcircumflex" unicode="&#x11d;" horiz-adv-x="601" 
d="M523 43q0 -104 -60.5 -163t-194.5 -59q-43 0 -74.5 5.5t-53.5 13t-35.5 15.5t-19.5 12v59q10 -5 25.5 -13t38 -15.5t52 -12.5t68.5 -5q101 0 144 40.5t43 121.5v93q-25 -53 -71 -83.5t-112 -30.5q-48 0 -91 16.5t-75 48.5t-50.5 79t-18.5 109q0 63 18.5 110.5t50.5 79.5
t75 48.5t92 16.5q67 0 114.5 -30.5t72.5 -85.5v2q0 34 2 62t4 42h61q-2 -14 -3.5 -43t-1.5 -61v-372zM283 80q37 0 69 12.5t55.5 36.5t36.5 60.5t13 84.5q0 49 -13 85.5t-36.5 61t-55.5 37t-70 12.5t-70.5 -12.5t-56 -37t-37 -61t-13.5 -85.5q0 -48 13.5 -84t37.5 -60.5
t56.5 -37t70.5 -12.5zM288 687l-92 -99h-58l111 148h78l111 -148h-58z" />
    <glyph glyph-name="Gbreve" unicode="&#x11e;" horiz-adv-x="743" 
d="M690 279q0 -63 -19.5 -116t-57.5 -91.5t-94.5 -60t-131.5 -21.5q-74 0 -136.5 25.5t-107.5 73.5t-70.5 116t-25.5 153t24.5 153t71 116t113.5 73.5t152 25.5q45 0 81 -6t64.5 -15.5t50 -21t37.5 -23.5v-68q-45 30 -101 50t-133 20q-141 0 -212.5 -79t-71.5 -225
q0 -72 19 -128.5t54 -95.5t83.5 -59.5t107.5 -20.5q58 0 101.5 16t72 45t43 69.5t14.5 88.5v30h-252v64h324v-88v0zM394 763q-39 0 -68 11.5t-48.5 31.5t-29 47t-9.5 58h66q0 -49 24 -72.5t65 -23.5t64.5 23.5t23.5 72.5h66q0 -31 -9.5 -58t-29 -47t-48 -31.5t-67.5 -11.5z
" />
    <glyph glyph-name="gbreve" unicode="&#x11f;" horiz-adv-x="601" 
d="M523 43q0 -104 -60.5 -163t-194.5 -59q-43 0 -74.5 5.5t-53.5 13t-35.5 15.5t-19.5 12v59q10 -5 25.5 -13t38 -15.5t52 -12.5t68.5 -5q101 0 144 40.5t43 121.5v93q-25 -53 -71 -83.5t-112 -30.5q-48 0 -91 16.5t-75 48.5t-50.5 79t-18.5 109q0 63 18.5 110.5t50.5 79.5
t75 48.5t92 16.5q67 0 114.5 -30.5t72.5 -85.5v2q0 34 2 62t4 42h61q-2 -14 -3.5 -43t-1.5 -61v-372zM283 80q37 0 69 12.5t55.5 36.5t36.5 60.5t13 84.5q0 49 -13 85.5t-36.5 61t-55.5 37t-70 12.5t-70.5 -12.5t-56 -37t-37 -61t-13.5 -85.5q0 -48 13.5 -84t37.5 -60.5
t56.5 -37t70.5 -12.5zM277 584q-37 0 -65 11t-46.5 30t-28 44t-9.5 54h67q0 -45 22 -66.5t60 -21.5t59.5 21.5t21.5 66.5h67q0 -29 -9 -54t-27.5 -44t-46.5 -30t-65 -11z" />
    <glyph glyph-name="Gdotaccent" unicode="&#x120;" horiz-adv-x="743" 
d="M690 279q0 -63 -19.5 -116t-57.5 -91.5t-94.5 -60t-131.5 -21.5q-74 0 -136.5 25.5t-107.5 73.5t-70.5 116t-25.5 153t24.5 153t71 116t113.5 73.5t152 25.5q45 0 81 -6t64.5 -15.5t50 -21t37.5 -23.5v-68q-45 30 -101 50t-133 20q-141 0 -212.5 -79t-71.5 -225
q0 -72 19 -128.5t54 -95.5t83.5 -59.5t107.5 -20.5q58 0 101.5 16t72 45t43 69.5t14.5 88.5v30h-252v64h324v-88v0zM387 797q-21 0 -33.5 13t-12.5 32t12.5 32.5t33.5 13.5t33.5 -13.5t12.5 -32.5t-12.5 -32t-33.5 -13z" />
    <glyph glyph-name="gdotaccent" unicode="&#x121;" horiz-adv-x="601" 
d="M523 43q0 -104 -60.5 -163t-194.5 -59q-43 0 -74.5 5.5t-53.5 13t-35.5 15.5t-19.5 12v59q10 -5 25.5 -13t38 -15.5t52 -12.5t68.5 -5q101 0 144 40.5t43 121.5v93q-25 -53 -71 -83.5t-112 -30.5q-48 0 -91 16.5t-75 48.5t-50.5 79t-18.5 109q0 63 18.5 110.5t50.5 79.5
t75 48.5t92 16.5q67 0 114.5 -30.5t72.5 -85.5v2q0 34 2 62t4 42h61q-2 -14 -3.5 -43t-1.5 -61v-372zM283 80q37 0 69 12.5t55.5 36.5t36.5 60.5t13 84.5q0 49 -13 85.5t-36.5 61t-55.5 37t-70 12.5t-70.5 -12.5t-56 -37t-37 -61t-13.5 -85.5q0 -48 13.5 -84t37.5 -60.5
t56.5 -37t70.5 -12.5zM277 613q-21 0 -33.5 13.5t-12.5 32.5t12.5 32.5t33.5 13.5t33.5 -13.5t12.5 -32.5t-12.5 -32.5t-33.5 -13.5z" />
    <glyph glyph-name="uni0122" unicode="&#x122;" horiz-adv-x="744" 
d="M690 279q0 -63 -19.5 -116t-57.5 -91.5t-94.5 -60t-131.5 -21.5q-74 0 -136.5 25.5t-107.5 73.5t-70.5 116t-25.5 153t24.5 153t71 116t113.5 73.5t152 25.5q45 0 81 -6t64.5 -15.5t50 -21t37.5 -23.5v-68q-45 30 -101 50t-133 20q-141 0 -212.5 -79t-71.5 -225
q0 -72 19 -128.5t54 -95.5t83.5 -59.5t107.5 -20.5q58 0 101.5 16t72 45t43 69.5t14.5 88.5v30h-252v64h324v-88v0zM439 -105q0 -19 -5.5 -36t-14.5 -32t-19 -27t-19 -22h-49q16 17 28 37t23 47q-19 3 -28 15t-9 28q0 19 12.5 31.5t32.5 12.5t34 -13t14 -41z" />
    <glyph glyph-name="uni0123" unicode="&#x123;" horiz-adv-x="601" 
d="M523 43q0 -104 -60.5 -163t-194.5 -59q-43 0 -74.5 5.5t-53.5 13t-35.5 15.5t-19.5 12v59q10 -5 25.5 -13t38 -15.5t52 -12.5t68.5 -5q101 0 144 40.5t43 121.5v93q-25 -53 -71 -83.5t-112 -30.5q-48 0 -91 16.5t-75 48.5t-50.5 79t-18.5 109q0 63 18.5 110.5t50.5 79.5
t75 48.5t92 16.5q67 0 114.5 -30.5t72.5 -85.5v2q0 34 2 62t4 42h61q-2 -14 -3.5 -43t-1.5 -61v-372zM283 80q37 0 69 12.5t55.5 36.5t36.5 60.5t13 84.5q0 49 -13 85.5t-36.5 61t-55.5 37t-70 12.5t-70.5 -12.5t-56 -37t-37 -61t-13.5 -85.5q0 -48 13.5 -84t37.5 -60.5
t56.5 -37t70.5 -12.5zM327 643q0 -19 -12.5 -32t-32.5 -13t-34 14t-14 40q0 19 5.5 36.5t14 32t18.5 27t19 22.5h50q-16 -16 -28 -36.5t-23 -47.5q18 -3 27.5 -15t9.5 -28z" />
    <glyph glyph-name="Hcircumflex" unicode="&#x124;" horiz-adv-x="724" 
d="M565 323h-406v-323h-71v717h71v-330h406v330h72v-717h-72v323zM363 862l-92 -99h-58l111 148h78l111 -148h-58z" />
    <glyph glyph-name="hcircumflex" unicode="&#x125;" horiz-adv-x="578" 
d="M319 470q-36 0 -63.5 -9.5t-48.5 -25.5t-36.5 -38t-27.5 -46v-351h-66v717h66v-202l-1 -101h2q10 23 26.5 44t40 36.5t54 25t69.5 9.5q79 0 125.5 -41.5t46.5 -123.5v-364h-66v358q0 62 -33 87t-88 25zM284 893l-92 -99h-58l111 148h78l111 -148h-58z" />
    <glyph glyph-name="Hbar" unicode="&#x126;" horiz-adv-x="724" 
d="M565 323h-406v-323h-71v521h-104v58h104v138h71v-138h406v138h72v-138h104v-58h-104v-521h-72v323zM565 387v134h-406v-134h406z" />
    <glyph glyph-name="hbar" unicode="&#x127;" horiz-adv-x="578" 
d="M319 470q-36 0 -63.5 -9.5t-48.5 -25.5t-36.5 -38t-27.5 -46v-351h-66v584h-85v50h85v83h66v-83h167v-50h-167v-69l-1 -101h2q10 23 26.5 44t40 36.5t54 25t69.5 9.5q79 0 125.5 -41.5t46.5 -123.5v-364h-66v358q0 62 -33 87t-88 25z" />
    <glyph glyph-name="Itilde" unicode="&#x128;" horiz-adv-x="246" 
d="M159 717v-717h-71v717h71zM-46 789q-5 23 -2 45.5t14 40t29.5 28t45.5 10.5t49 -10t40.5 -22t36 -22t35.5 -10q47 0 39 67h49q4 -23 1.5 -45.5t-13 -40t-29 -28t-45.5 -10.5t-49 10t-41 21.5t-36.5 21.5t-35.5 10q-22 0 -32.5 -16.5t-5.5 -49.5h-50v0z" />
    <glyph glyph-name="itilde" unicode="&#x129;" horiz-adv-x="219" 
d="M143 519v-519h-66v519h66zM-48 601q-4 21 -1.5 42t13 37t28 26t43.5 10q25 0 45 -8.5t37.5 -19t33 -19t32.5 -8.5q44 0 36 59h49q4 -22 1.5 -42.5t-13 -37t-28.5 -26.5t-43 -10t-45 8.5t-37.5 19t-33.5 19t-32 8.5q-20 0 -30 -14.5t-5 -43.5h-50v0z" />
    <glyph glyph-name="Imacron" unicode="&#x12a;" horiz-adv-x="246" 
d="M159 717v-717h-71v717h71zM-30 870h308v-54h-308v54z" />
    <glyph glyph-name="imacron" unicode="&#x12b;" horiz-adv-x="219" 
d="M143 519v-519h-66v519h66zM-38 678h288v-54h-288v54z" />
    <glyph glyph-name="Ibreve" unicode="&#x12c;" horiz-adv-x="246" 
d="M159 717v-717h-71v717h71zM123 763q-39 0 -68 11.5t-48.5 31.5t-29 47t-9.5 58h66q0 -49 24 -72.5t65 -23.5t64.5 23.5t23.5 72.5h66q0 -31 -9.5 -58t-29 -47t-48 -31.5t-67.5 -11.5z" />
    <glyph glyph-name="ibreve" unicode="&#x12d;" horiz-adv-x="219" 
d="M143 519v-519h-66v519h66zM110 584q-37 0 -65 11t-46.5 30t-28 44t-9.5 54h67q0 -45 22 -66.5t60 -21.5t59.5 21.5t21.5 66.5h67q0 -29 -9 -54t-27.5 -44t-46.5 -30t-65 -11z" />
    <glyph glyph-name="Iogonek" unicode="&#x12e;" horiz-adv-x="246" 
d="M194 -181q-8 -5 -23.5 -8t-35.5 -3q-51 0 -81.5 25.5t-30.5 70.5q0 36 18 61t47 39v713h71v-717q-31 -10 -54.5 -31.5t-23.5 -56.5q0 -26 17 -40.5t49 -14.5q25 0 47 8v-46v0z" />
    <glyph glyph-name="iogonek" unicode="&#x12f;" horiz-adv-x="219" 
d="M143 519v-519q-30 -10 -55 -31.5t-25 -56.5q0 -26 16.5 -40.5t48.5 -14.5q14 0 25.5 2t22.5 6v-46q-8 -5 -23.5 -8t-35.5 -3q-52 0 -82.5 25.5t-30.5 70.5q0 44 26 70q21 22 47 33v512h66zM111 613q-23 0 -35.5 13.5t-12.5 32.5t12.5 33t35.5 14q21 0 33 -14t12 -33
t-12 -32.5t-33 -13.5z" />
    <glyph glyph-name="Idotaccent" unicode="&#x130;" horiz-adv-x="246" 
d="M159 717v-717h-71v717h71zM122 797q-21 0 -33.5 13t-12.5 32t12.5 32.5t33.5 13.5t33.5 -13.5t12.5 -32.5t-12.5 -32t-33.5 -13z" />
    <glyph glyph-name="dotlessi" unicode="&#x131;" horiz-adv-x="219" 
d="M143 519v-519h-66v519h66z" />
    <glyph glyph-name="IJ" unicode="&#x132;" horiz-adv-x="581" 
d="M497 717v-582q0 -30 -8.5 -56t-27.5 -46t-48 -31.5t-70 -11.5q-56 0 -96 19v61q37 -16 83 -16q54 0 75 24.5t21 74.5v564h71zM159 717v-717h-71v717h71z" />
    <glyph glyph-name="ij" unicode="&#x133;" horiz-adv-x="448" 
d="M111 613q-23 0 -35.5 13.5t-12.5 32.5t12.5 33t35.5 14q21 0 33 -14t12 -33t-12 -32.5t-33 -13.5zM143 519v-519h-66v519h66zM339 613q-22 0 -34.5 13.5t-12.5 32.5t12.5 33t34.5 14q21 0 33.5 -14t12.5 -33t-12.5 -32.5t-33.5 -13.5zM372 -58q0 -25 -7 -48.5
t-22.5 -41.5t-40 -28.5t-58.5 -10.5q-23 0 -44.5 6t-38.5 15v64q12 -10 30.5 -18t43.5 -8q37 0 54 20t17 50v577h66v-577z" />
    <glyph glyph-name="Jcircumflex" unicode="&#x134;" horiz-adv-x="365" 
d="M281 717v-582q0 -30 -8.5 -56t-27.5 -46t-48 -31.5t-70 -11.5q-55 0 -96 19v61q38 -16 82 -16q54 0 75.5 24.5t21.5 74.5v564h71zM245 862l-92 -99h-58l111 148h78l111 -148h-58z" />
    <glyph glyph-name="jcircumflex" unicode="&#x135;" horiz-adv-x="226" 
d="M150 -58q0 -25 -7 -48.5t-22.5 -41.5t-40 -28.5t-58.5 -10.5q-23 0 -44.5 6t-38.5 15v64q12 -10 30.5 -18t43.5 -8q37 0 54 20t17 50v577h66v-577zM113 687l-92 -99h-58l111 148h78l111 -148h-58z" />
    <glyph glyph-name="uni0136" unicode="&#x136;" horiz-adv-x="628" 
d="M255 323h-96v-323h-71v717h71v-330h94l261 330h80l-284 -356l298 -361h-89zM367 -105q0 -19 -5.5 -36t-14.5 -32t-19 -27t-19 -22h-49q16 17 28 37t23 47q-19 3 -28 15t-9 28q0 19 12.5 31.5t32.5 12.5t34 -13t14 -41z" />
    <glyph glyph-name="uni0137" unicode="&#x137;" horiz-adv-x="484" 
d="M201 232h-57v-232h-67v717h67v-428h61l189 230h77l-214 -256l212 -263h-81zM309 -105q0 -19 -5.5 -36t-14.5 -32t-19 -27t-19 -22h-49q16 17 28 37t23 47q-19 3 -28 15t-9 28q0 19 12.5 31.5t32.5 12.5t34 -13t14 -41z" />
    <glyph glyph-name="Lacute" unicode="&#x139;" horiz-adv-x="575" 
d="M526 0h-438v717h71v-653h367v-64zM190 909h95l-130 -136h-64z" />
    <glyph glyph-name="lacute" unicode="&#x13a;" horiz-adv-x="219" 
d="M143 717v-717h-66v717h66zM181 940h95l-130 -136h-64z" />
    <glyph glyph-name="uni013B" unicode="&#x13b;" horiz-adv-x="575" 
d="M526 0h-438v717h71v-653h367v-64zM355 -105q0 -19 -5.5 -36t-14.5 -32t-19 -27t-19 -22h-49q16 17 28 37t23 47q-19 3 -28 15t-9 28q0 19 12.5 31.5t32.5 12.5t34 -13t14 -41z" />
    <glyph glyph-name="uni013C" unicode="&#x13c;" horiz-adv-x="219" 
d="M143 717v-717h-66v717h66zM157 -105q0 -19 -5.5 -36t-14.5 -32t-19 -27t-19 -22h-49q16 17 28 37t23 47q-19 3 -28 15t-9 28q0 19 12.5 31.5t32.5 12.5t34 -13t14 -41z" />
    <glyph glyph-name="Lcaron" unicode="&#x13d;" horiz-adv-x="575" 
d="M526 0h-438v717h71v-653h367v-64zM283 528l24 189h79l-55 -189h-48z" />
    <glyph glyph-name="lcaron" unicode="&#x13e;" horiz-adv-x="219" 
d="M143 717v-717h-66v717h66zM193 528l24 189h79l-55 -189h-48z" />
    <glyph glyph-name="Ldot" unicode="&#x13f;" horiz-adv-x="572" 
d="M526 0h-438v717h71v-653h367v-64zM483 299q-24 0 -39 15t-15 37q0 23 15 38t39 15q23 0 38 -15t15 -38q0 -22 -15 -37t-38 -15z" />
    <glyph glyph-name="ldot" unicode="&#x140;" horiz-adv-x="376" 
d="M143 717v-717h-66v717h66zM297 279q-24 0 -39 15t-15 37q0 23 15 38t39 15q23 0 38 -15t15 -38q0 -22 -15 -37t-38 -15z" />
    <glyph glyph-name="Lslash" unicode="&#x141;" horiz-adv-x="581" 
d="M533 0h-438v254l-91 -51v69l91 51v394h71v-354l223 126v-69l-223 -126v-230h367v-64z" />
    <glyph glyph-name="lslash" unicode="&#x142;" horiz-adv-x="263" 
d="M6 289l93 77v351h66v-296l93 78v-62l-93 -78v-359h-66v304l-93 -77v62z" />
    <glyph glyph-name="Nacute" unicode="&#x143;" horiz-adv-x="739" 
d="M652 0h-98l-399 636v-636h-67v717h96l401 -639v639h67v-717zM430 909h95l-130 -136h-64z" />
    <glyph glyph-name="nacute" unicode="&#x144;" horiz-adv-x="578" 
d="M319 470q-36 0 -63.5 -9.5t-48.5 -25.5t-36.5 -38t-27.5 -46v-351h-66v519h62l3 -105h2q10 23 26.5 44t40 36.5t54 25t69.5 9.5q79 0 125.5 -41.5t46.5 -123.5v-364h-66v358q0 62 -33 87t-88 25zM342 746h89l-125 -158h-58z" />
    <glyph glyph-name="uni0145" unicode="&#x145;" horiz-adv-x="739" 
d="M652 0h-98l-399 636v-636h-67v717h96l401 -639v639h67v-717zM402 -105q0 -19 -5.5 -36t-14.5 -32t-19 -27t-19 -22h-49q16 17 28 37t23 47q-19 3 -28 15t-9 28q0 19 12.5 31.5t32.5 12.5t34 -13t14 -41z" />
    <glyph glyph-name="uni0146" unicode="&#x146;" horiz-adv-x="578" 
d="M319 470q-36 0 -63.5 -9.5t-48.5 -25.5t-36.5 -38t-27.5 -46v-351h-66v519h62l3 -105h2q10 23 26.5 44t40 36.5t54 25t69.5 9.5q79 0 125.5 -41.5t46.5 -123.5v-364h-66v358q0 62 -33 87t-88 25zM355 -105q0 -19 -5.5 -36t-14.5 -32t-19 -27t-19 -22h-49q16 17 28 37
t23 47q-19 3 -28 15t-9 28q0 19 12.5 31.5t32.5 12.5t34 -13t14 -41z" />
    <glyph glyph-name="Ncaron" unicode="&#x147;" horiz-adv-x="739" 
d="M652 0h-98l-399 636v-636h-67v717h96l401 -639v639h67v-717zM421 763h-78l-111 148h58l92 -99l92 99h58z" />
    <glyph glyph-name="ncaron" unicode="&#x148;" horiz-adv-x="578" 
d="M319 470q-36 0 -63.5 -9.5t-48.5 -25.5t-36.5 -38t-27.5 -46v-351h-66v519h62l3 -105h2q10 23 26.5 44t40 36.5t54 25t69.5 9.5q79 0 125.5 -41.5t46.5 -123.5v-364h-66v358q0 62 -33 87t-88 25zM331 588h-78l-111 148h58l92 -99l92 99h58z" />
    <glyph glyph-name="Eng" unicode="&#x14a;" horiz-adv-x="739" 
d="M88 717h96l401 -639v639h67v-759q0 -34 -9 -63t-27.5 -50t-48 -33t-70.5 -12q-26 0 -51 5t-45 13v60q37 -16 83 -16q54 0 77.5 26t23.5 75v37h-31l-399 636v-636h-67v717z" />
    <glyph glyph-name="eng" unicode="&#x14b;" horiz-adv-x="569" 
d="M334 529q79 0 125.5 -41.5t46.5 -123.5v-429q0 -23 -7 -44.5t-22 -39t-39.5 -28t-58.5 -10.5q-23 0 -45 6t-39 15v64q12 -10 30.5 -18t42.5 -8q38 0 55 20t17 50v416q0 62 -33 87t-88 25q-36 0 -63.5 -9.5t-48.5 -25.5t-36.5 -38t-27.5 -46v-351h-66v519h62l3 -105h2
q10 23 26.5 44t40 36.5t54 25t69.5 9.5z" />
    <glyph glyph-name="Omacron" unicode="&#x14c;" horiz-adv-x="770" 
d="M385 -10q-72 0 -134 25t-107 72t-71 116t-26 158q0 88 26 156.5t71 114.5t107 70t134 24q73 0 135 -24t107.5 -70.5t71 -114.5t25.5 -157q0 -88 -25.5 -156.5t-71 -116t-107.5 -72.5t-135 -25zM385 54q57 0 105.5 18t83.5 55.5t55 95t20 135.5t-20 135.5t-55 95
t-83.5 55.5t-105.5 18t-105 -18t-83 -55.5t-55 -95t-20 -135.5t20 -135.5t55 -95t83 -55.5t105 -18zM231 870h308v-54h-308v54z" />
    <glyph glyph-name="omacron" unicode="&#x14d;" horiz-adv-x="574" 
d="M286 -10q-53 0 -98 18t-78 52.5t-52 85t-19 114.5t19 114t52 84.5t78 52.5t98 18t98.5 -18t79 -52.5t52.5 -84.5t19 -114t-19 -114.5t-52.5 -85t-79 -52.5t-98.5 -18zM286 49q39 0 72 13.5t57.5 39.5t38 65.5t13.5 92.5t-13.5 92.5t-38 65.5t-57.5 39t-72 13t-72 -13
t-57 -39t-37.5 -65.5t-13.5 -92.5t13.5 -92.5t37.5 -65.5t57 -39.5t72 -13.5zM143 679h288v-54h-288v54z" />
    <glyph glyph-name="Obreve" unicode="&#x14e;" horiz-adv-x="770" 
d="M385 -10q-72 0 -134 25t-107 72t-71 116t-26 158q0 88 26 156.5t71 114.5t107 70t134 24q73 0 135 -24t107.5 -70.5t71 -114.5t25.5 -157q0 -88 -25.5 -156.5t-71 -116t-107.5 -72.5t-135 -25zM385 54q57 0 105.5 18t83.5 55.5t55 95t20 135.5t-20 135.5t-55 95
t-83.5 55.5t-105.5 18t-105 -18t-83 -55.5t-55 -95t-20 -135.5t20 -135.5t55 -95t83 -55.5t105 -18zM386 763q-39 0 -68 11.5t-48.5 31.5t-29 47t-9.5 58h66q0 -49 24 -72.5t65 -23.5t64.5 23.5t23.5 72.5h66q0 -31 -9.5 -58t-29 -47t-48 -31.5t-67.5 -11.5z" />
    <glyph glyph-name="obreve" unicode="&#x14f;" horiz-adv-x="574" 
d="M286 -10q-53 0 -98 18t-78 52.5t-52 85t-19 114.5t19 114t52 84.5t78 52.5t98 18t98.5 -18t79 -52.5t52.5 -84.5t19 -114t-19 -114.5t-52.5 -85t-79 -52.5t-98.5 -18zM286 49q39 0 72 13.5t57.5 39.5t38 65.5t13.5 92.5t-13.5 92.5t-38 65.5t-57.5 39t-72 13t-72 -13
t-57 -39t-37.5 -65.5t-13.5 -92.5t13.5 -92.5t37.5 -65.5t57 -39.5t72 -13.5zM287 584q-37 0 -65 11t-46.5 30t-28 44t-9.5 54h67q0 -45 22 -66.5t60 -21.5t59.5 21.5t21.5 66.5h67q0 -29 -9 -54t-27.5 -44t-46.5 -30t-65 -11z" />
    <glyph glyph-name="Ohungarumlaut" unicode="&#x150;" horiz-adv-x="770" 
d="M385 -10q-72 0 -134 25t-107 72t-71 116t-26 158q0 88 26 156.5t71 114.5t107 70t134 24q73 0 135 -24t107.5 -70.5t71 -114.5t25.5 -157q0 -88 -25.5 -156.5t-71 -116t-107.5 -72.5t-135 -25zM385 54q57 0 105.5 18t83.5 55.5t55 95t20 135.5t-20 135.5t-55 95
t-83.5 55.5t-105.5 18t-105 -18t-83 -55.5t-55 -95t-20 -135.5t20 -135.5t55 -95t83 -55.5t105 -18zM247 773l67 136h84l-90 -136h-61zM435 773l66 136h84l-90 -136h-60z" />
    <glyph glyph-name="ohungarumlaut" unicode="&#x151;" horiz-adv-x="574" 
d="M286 -10q-53 0 -98 18t-78 52.5t-52 85t-19 114.5t19 114t52 84.5t78 52.5t98 18t98.5 -18t79 -52.5t52.5 -84.5t19 -114t-19 -114.5t-52.5 -85t-79 -52.5t-98.5 -18zM286 49q39 0 72 13.5t57.5 39.5t38 65.5t13.5 92.5t-13.5 92.5t-38 65.5t-57.5 39t-72 13t-72 -13
t-57 -39t-37.5 -65.5t-13.5 -92.5t13.5 -92.5t37.5 -65.5t57 -39.5t72 -13.5zM167 588l59 158h77l-81 -158h-55zM326 588l59 158h77l-82 -158h-54z" />
    <glyph glyph-name="OE" unicode="&#x152;" horiz-adv-x="1031" 
d="M47 370q0 97 27.5 163.5t75 107t112 58.5t138.5 18h567v-65h-371v-244h318v-64h-318v-280h376v-64h-573q-76 0 -140.5 23.5t-111.5 70t-73.5 115.5t-26.5 161zM525 64v588h-126q-58 0 -108.5 -13.5t-87.5 -46t-58.5 -87t-21.5 -135.5q0 -78 21.5 -136t59.5 -95.5
t90.5 -56t115.5 -18.5h115z" />
    <glyph glyph-name="oe" unicode="&#x153;" horiz-adv-x="967" 
d="M910 44q-9 -8 -25.5 -17t-39 -17.5t-51.5 -14t-65 -5.5q-87 0 -144 34.5t-85 100.5q-29 -66 -84.5 -100.5t-129.5 -34.5q-53 0 -98 18t-78 52.5t-52 85t-19 114.5t19 114t52 84.5t78 52.5t98 18q75 0 130.5 -35t84.5 -101q28 66 83 101t127 35q52 0 95 -18t71.5 -53.5
t40 -88.5t1.5 -123h-384q4 -97 54.5 -147t144.5 -50q60 0 105.5 18t70.5 37v-60zM709 470q-66 0 -113 -42t-58 -126h319q3 43 -7.5 74.5t-30.5 52.5t-48.5 31t-61.5 10zM286 49q39 0 72 13.5t57.5 39.5t38 65.5t13.5 92.5t-13.5 92.5t-38 65.5t-57.5 39t-72 13t-72 -13
t-57 -39t-37.5 -65.5t-13.5 -92.5t13.5 -92.5t37.5 -65.5t57 -39.5t72 -13.5z" />
    <glyph glyph-name="Racute" unicode="&#x154;" horiz-adv-x="637" 
d="M88 717h237q119 0 182 -48t63 -151q0 -94 -47 -143t-125 -64l199 -311h-81l-194 304h-163v-304h-71v717zM159 652v-284h153q42 0 76 8t58 26t37.5 46.5t13.5 70.5q0 71 -43.5 102t-128.5 31h-166zM343 909h95l-130 -136h-64z" />
    <glyph glyph-name="racute" unicode="&#x155;" horiz-adv-x="348" 
d="M317 457q-60 -5 -105.5 -34.5t-68.5 -89.5v-333h-66v519h59l6 -121h2q9 24 24 46t36 39.5t49 29.5t64 16v-72v0zM239 746h89l-125 -158h-58z" />
    <glyph glyph-name="uni0156" unicode="&#x156;" horiz-adv-x="637" 
d="M88 717h237q119 0 182 -48t63 -151q0 -94 -47 -143t-125 -64l199 -311h-81l-194 304h-163v-304h-71v717zM159 652v-284h153q42 0 76 8t58 26t37.5 46.5t13.5 70.5q0 71 -43.5 102t-128.5 31h-166zM371 -105q0 -19 -5.5 -36t-14.5 -32t-19 -27t-19 -22h-49q16 17 28 37
t23 47q-19 3 -28 15t-9 28q0 19 12.5 31.5t32.5 12.5t34 -13t14 -41z" />
    <glyph glyph-name="uni0157" unicode="&#x157;" horiz-adv-x="348" 
d="M317 457q-60 -5 -105.5 -34.5t-68.5 -89.5v-333h-66v519h59l6 -121h2q9 24 24 46t36 39.5t49 29.5t64 16v-72v0zM161 -105q0 -19 -5.5 -36t-14.5 -32t-19 -27t-19 -22h-49q16 17 28 37t23 47q-19 3 -28 15t-9 28q0 19 12.5 31.5t32.5 12.5t34 -13t14 -41z" />
    <glyph glyph-name="Rcaron" unicode="&#x158;" horiz-adv-x="637" 
d="M88 717h237q119 0 182 -48t63 -151q0 -94 -47 -143t-125 -64l199 -311h-81l-194 304h-163v-304h-71v717zM159 652v-284h153q42 0 76 8t58 26t37.5 46.5t13.5 70.5q0 71 -43.5 102t-128.5 31h-166zM341 763h-78l-111 148h58l92 -99l92 99h58z" />
    <glyph glyph-name="rcaron" unicode="&#x159;" horiz-adv-x="348" 
d="M317 457q-60 -5 -105.5 -34.5t-68.5 -89.5v-333h-66v519h59l6 -121h2q9 24 24 46t36 39.5t49 29.5t64 16v-72v0zM234 588h-78l-111 148h58l92 -99l92 99h58z" />
    <glyph glyph-name="Sacute" unicode="&#x15a;" horiz-adv-x="571" 
d="M276 -10q-48 0 -85.5 6.5t-66 16.5t-48 21.5t-29.5 21.5v68q13 -11 35 -23t51.5 -22.5t65.5 -17.5t76 -7q38 0 71.5 7.5t58 24t39 42t14.5 60.5q0 34 -12.5 57t-36 39t-57.5 26.5t-76 21.5q-41 11 -81 25t-72 36.5t-52 56.5t-20 85q0 93 65.5 142t186.5 49q37 0 66 -4
t51.5 -10t39.5 -13.5t31 -14.5v-68q-35 22 -82 34t-106 12q-181 0 -181 -124q0 -33 13.5 -55.5t37 -37.5t54 -25t63.5 -19q40 -10 82.5 -22.5t78 -35t58 -58.5t22.5 -94q0 -56 -21.5 -94t-57.5 -62t-82 -34.5t-94 -10.5zM343 909h95l-130 -136h-64z" />
    <glyph glyph-name="sacute" unicode="&#x15b;" horiz-adv-x="477" 
d="M235 -10q-40 0 -71 6.5t-54 15.5t-38.5 19t-24.5 18v60q10 -9 26.5 -19.5t40 -20.5t53.5 -16.5t67 -6.5q28 0 53 5t43.5 16t29 28.5t10.5 43.5t-11 42.5t-30 27t-45.5 16.5t-56.5 12q-31 6 -63 14.5t-57.5 24.5t-41.5 42t-16 67q0 70 53.5 107t145.5 37q56 0 95 -11
t62 -24v-60q-25 16 -62.5 27.5t-93.5 11.5q-61 0 -97.5 -19t-36.5 -68q0 -24 9.5 -38t26 -23t39 -14.5t47.5 -10.5q33 -7 68 -15t64 -24.5t48 -45t19 -75.5q0 -44 -17.5 -73t-46 -46t-64.5 -24t-73 -7zM281 746h89l-125 -158h-58z" />
    <glyph glyph-name="Scircumflex" unicode="&#x15c;" horiz-adv-x="571" 
d="M276 -10q-48 0 -85.5 6.5t-66 16.5t-48 21.5t-29.5 21.5v68q13 -11 35 -23t51.5 -22.5t65.5 -17.5t76 -7q38 0 71.5 7.5t58 24t39 42t14.5 60.5q0 34 -12.5 57t-36 39t-57.5 26.5t-76 21.5q-41 11 -81 25t-72 36.5t-52 56.5t-20 85q0 93 65.5 142t186.5 49q37 0 66 -4
t51.5 -10t39.5 -13.5t31 -14.5v-68q-35 22 -82 34t-106 12q-181 0 -181 -124q0 -33 13.5 -55.5t37 -37.5t54 -25t63.5 -19q40 -10 82.5 -22.5t78 -35t58 -58.5t22.5 -94q0 -56 -21.5 -94t-57.5 -62t-82 -34.5t-94 -10.5zM293 862l-92 -99h-58l111 148h78l111 -148h-58z" />
    <glyph glyph-name="scircumflex" unicode="&#x15d;" horiz-adv-x="477" 
d="M235 -10q-40 0 -71 6.5t-54 15.5t-38.5 19t-24.5 18v60q10 -9 26.5 -19.5t40 -20.5t53.5 -16.5t67 -6.5q28 0 53 5t43.5 16t29 28.5t10.5 43.5t-11 42.5t-30 27t-45.5 16.5t-56.5 12q-31 6 -63 14.5t-57.5 24.5t-41.5 42t-16 67q0 70 53.5 107t145.5 37q56 0 95 -11
t62 -24v-60q-25 16 -62.5 27.5t-93.5 11.5q-61 0 -97.5 -19t-36.5 -68q0 -24 9.5 -38t26 -23t39 -14.5t47.5 -10.5q33 -7 68 -15t64 -24.5t48 -45t19 -75.5q0 -44 -17.5 -73t-46 -46t-64.5 -24t-73 -7zM232 687l-92 -99h-58l111 148h78l111 -148h-58z" />
    <glyph glyph-name="uni015E" unicode="&#x15e;" horiz-adv-x="571" 
d="M276 -10q-48 0 -85.5 6.5t-66 16.5t-48 21.5t-29.5 21.5v68q13 -11 35 -23t51.5 -22.5t65.5 -17.5t76 -7q38 0 71.5 7.5t58 24t39 42t14.5 60.5q0 34 -12.5 57t-36 39t-57.5 26.5t-76 21.5q-41 11 -81 25t-72 36.5t-52 56.5t-20 85q0 93 65.5 142t186.5 49q37 0 66 -4
t51.5 -10t39.5 -13.5t31 -14.5v-68q-35 22 -82 34t-106 12q-181 0 -181 -124q0 -33 13.5 -55.5t37 -37.5t54 -25t63.5 -19q40 -10 82.5 -22.5t78 -35t58 -58.5t22.5 -94q0 -56 -21.5 -94t-57.5 -62t-82 -34.5t-94 -10.5zM329 16l-61 -203h-85l88 203h58z" />
    <glyph glyph-name="uni015F" unicode="&#x15f;" horiz-adv-x="477" 
d="M235 -10q-40 0 -71 6.5t-54 15.5t-38.5 19t-24.5 18v60q10 -9 26.5 -19.5t40 -20.5t53.5 -16.5t67 -6.5q28 0 53 5t43.5 16t29 28.5t10.5 43.5t-11 42.5t-30 27t-45.5 16.5t-56.5 12q-31 6 -63 14.5t-57.5 24.5t-41.5 42t-16 67q0 70 53.5 107t145.5 37q56 0 95 -11
t62 -24v-60q-25 16 -62.5 27.5t-93.5 11.5q-61 0 -97.5 -19t-36.5 -68q0 -24 9.5 -38t26 -23t39 -14.5t47.5 -10.5q33 -7 68 -15t64 -24.5t48 -45t19 -75.5q0 -44 -17.5 -73t-46 -46t-64.5 -24t-73 -7zM285 16l-61 -203h-85l88 203h58z" />
    <glyph glyph-name="Scaron" unicode="&#x160;" horiz-adv-x="571" 
d="M273 -10q-48 0 -85.5 6.5t-66 16.5t-48 21.5t-29.5 21.5v68q13 -11 35 -23t51.5 -22.5t65.5 -17.5t76 -7q38 0 71.5 7.5t58 24t39 42t14.5 60.5q0 34 -12.5 57t-36 39t-57.5 26.5t-76 21.5q-41 11 -81 25t-72 36.5t-52 56.5t-20 85q0 93 65.5 142t186.5 49q37 0 66 -4
t51.5 -10t39.5 -13.5t31 -14.5v-68q-35 22 -82 34t-106 12q-181 0 -181 -124q0 -33 13.5 -55.5t37 -37.5t54 -25t63.5 -19q40 -10 82.5 -22.5t78 -35t58 -58.5t22.5 -94q0 -56 -21.5 -94t-57.5 -62t-82 -34.5t-94 -10.5zM329 763h-78l-111 148h58l92 -99l92 99h58z" />
    <glyph glyph-name="scaron" unicode="&#x161;" horiz-adv-x="477" 
d="M231 -10q-40 0 -71 6.5t-54 15.5t-38.5 19t-24.5 18v60q10 -9 26.5 -19.5t40 -20.5t53.5 -16.5t67 -6.5q28 0 53 5t43.5 16t29 28.5t10.5 43.5t-11 42.5t-30 27t-45.5 16.5t-56.5 12q-31 6 -63 14.5t-57.5 24.5t-41.5 42t-16 67q0 70 53.5 107t145.5 37q56 0 95 -11
t62 -24v-60q-25 16 -62.5 27.5t-93.5 11.5q-61 0 -97.5 -19t-36.5 -68q0 -24 9.5 -38t26 -23t39 -14.5t47.5 -10.5q33 -7 68 -15t64 -24.5t48 -45t19 -75.5q0 -44 -17.5 -73t-46 -46t-64.5 -24t-73 -7zM277 588h-78l-111 148h58l92 -99l92 99h58z" />
    <glyph glyph-name="Tcommaaccent" unicode="&#x162;" horiz-adv-x="588" 
d="M330 651v-651h-72v651h-235v66h542v-66h-235zM340 -105q0 -19 -5.5 -36t-14.5 -32t-19 -27t-19 -22h-49q16 17 28 37t23 47q-19 3 -28 15t-9 28q0 19 12.5 31.5t32.5 12.5t34 -13t14 -41z" />
    <glyph glyph-name="tcommaaccent" unicode="&#x163;" horiz-adv-x="357" 
d="M311 7q-14 -8 -35.5 -12.5t-46.5 -4.5q-35 0 -60 10t-40.5 27.5t-23 40t-7.5 47.5v347h-67v57h67v109h66v-109h151v-57h-151v-338q0 -36 18 -55.5t63 -19.5q37 0 66 18v-60v0zM244 -105q0 -19 -5.5 -36t-14.5 -32t-19 -27t-19 -22h-49q16 17 28 37t23 47q-19 3 -28 15
t-9 28q0 19 12.5 31.5t32.5 12.5t34 -13t14 -41z" />
    <glyph glyph-name="Tcaron" unicode="&#x164;" horiz-adv-x="588" 
d="M330 651v-651h-72v651h-235v66h542v-66h-235zM334 763h-78l-111 148h58l92 -99l92 99h58z" />
    <glyph glyph-name="tcaron" unicode="&#x165;" horiz-adv-x="357" 
d="M311 7q-14 -8 -35.5 -12.5t-46.5 -4.5q-35 0 -60 10t-40.5 27.5t-23 40t-7.5 47.5v347h-67v57h67v109h66v-109h151v-57h-151v-338q0 -36 18 -55.5t63 -19.5q37 0 66 18v-60v0zM257.147 548.671l23.2021 167.763h76.3721l-53.1709 -167.763h-46.4033z" />
    <glyph glyph-name="Tbar" unicode="&#x166;" horiz-adv-x="589" 
d="M76 421h182v230h-235v66h542v-66h-235v-230h182v-58h-182v-363h-72v363h-182v58z" />
    <glyph glyph-name="tbar" unicode="&#x167;" horiz-adv-x="358" 
d="M312 7q-14 -8 -35.5 -12.5t-46.5 -4.5q-35 0 -60 10t-40.5 27.5t-23 40t-7.5 47.5v171h-67v57h67v119h-67v57h67v109h66v-109h151v-57h-151v-119h151v-57h-151v-162q0 -36 18 -55.5t63 -19.5q37 0 66 18v-60z" />
    <glyph glyph-name="Utilde" unicode="&#x168;" horiz-adv-x="695" 
d="M72 717h71v-471q0 -49 14.5 -85t41 -60t64 -36t83.5 -12q45 0 84 12t67.5 36t45 60.5t16.5 85.5v470h68v-467q0 -63 -21.5 -111.5t-59.5 -81.5t-89.5 -50t-111.5 -17q-59 0 -108.5 16t-86.5 48t-57.5 80t-20.5 112v471zM182 789q-5 23 -2 45.5t14 40t29.5 28t45.5 10.5
t49 -10t40.5 -22t36 -22t35.5 -10q47 0 39 67h49q4 -23 1.5 -45.5t-13 -40t-29 -28t-45.5 -10.5t-49 10t-41 21.5t-36.5 21.5t-35.5 10q-22 0 -32.5 -16.5t-5.5 -49.5h-50v0z" />
    <glyph glyph-name="utilde" unicode="&#x169;" horiz-adv-x="565" 
d="M422 104q-20 -47 -65.5 -80.5t-120.5 -33.5t-120 42.5t-45 127.5v359h67v-359q0 -62 32.5 -86.5t82.5 -24.5q34 0 60 9t46 24.5t35.5 37t27.5 46.5v353h66v-519h-59l-5 104h-2v0zM122 601q-4 21 -1.5 42t13 37t28 26t43.5 10q25 0 45 -8.5t37.5 -19t33 -19t32.5 -8.5
q44 0 36 59h49q4 -22 1.5 -42.5t-13 -37t-28.5 -26.5t-43 -10t-45 8.5t-37.5 19t-33.5 19t-32 8.5q-20 0 -30 -14.5t-5 -43.5h-50v0z" />
    <glyph glyph-name="Umacron" unicode="&#x16a;" horiz-adv-x="695" 
d="M72 717h71v-471q0 -49 14.5 -85t41 -60t64 -36t83.5 -12q45 0 84 12t67.5 36t45 60.5t16.5 85.5v470h68v-467q0 -63 -21.5 -111.5t-59.5 -81.5t-89.5 -50t-111.5 -17q-59 0 -108.5 16t-86.5 48t-57.5 80t-20.5 112v471zM194 870h308v-54h-308v54z" />
    <glyph glyph-name="umacron" unicode="&#x16b;" horiz-adv-x="565" 
d="M422 104q-20 -47 -65.5 -80.5t-120.5 -33.5t-120 42.5t-45 127.5v359h67v-359q0 -62 32.5 -86.5t82.5 -24.5q34 0 60 9t46 24.5t35.5 37t27.5 46.5v353h66v-519h-59l-5 104h-2v0zM135 679h288v-54h-288v54z" />
    <glyph glyph-name="Ubreve" unicode="&#x16c;" horiz-adv-x="695" 
d="M72 717h71v-471q0 -49 14.5 -85t41 -60t64 -36t83.5 -12q45 0 84 12t67.5 36t45 60.5t16.5 85.5v470h68v-467q0 -63 -21.5 -111.5t-59.5 -81.5t-89.5 -50t-111.5 -17q-59 0 -108.5 16t-86.5 48t-57.5 80t-20.5 112v471zM349 763q-39 0 -68 11.5t-48.5 31.5t-29 47
t-9.5 58h66q0 -49 24 -72.5t65 -23.5t64.5 23.5t23.5 72.5h66q0 -31 -9.5 -58t-29 -47t-48 -31.5t-67.5 -11.5z" />
    <glyph glyph-name="ubreve" unicode="&#x16d;" horiz-adv-x="565" 
d="M422 104q-20 -47 -65.5 -80.5t-120.5 -33.5t-120 42.5t-45 127.5v359h67v-359q0 -62 32.5 -86.5t82.5 -24.5q34 0 60 9t46 24.5t35.5 37t27.5 46.5v353h66v-519h-59l-5 104h-2v0zM279 584q-37 0 -65 11t-46.5 30t-28 44t-9.5 54h67q0 -45 22 -66.5t60 -21.5t59.5 21.5
t21.5 66.5h67q0 -29 -9 -54t-27.5 -44t-46.5 -30t-65 -11z" />
    <glyph glyph-name="Uring" unicode="&#x16e;" horiz-adv-x="695" 
d="M72 717h71v-471q0 -49 14.5 -85t41 -60t64 -36t83.5 -12q45 0 84 12t67.5 36t45 60.5t16.5 85.5v470h68v-467q0 -63 -21.5 -111.5t-59.5 -81.5t-89.5 -50t-111.5 -17q-59 0 -108.5 16t-86.5 48t-57.5 80t-20.5 112v471zM349 731q-48 0 -79.5 30.5t-31.5 78.5t31.5 78.5
t79.5 30.5t79.5 -30.5t31.5 -78.5t-31.5 -78.5t-79.5 -30.5zM349 775q28 0 46.5 18t18.5 47t-18.5 47.5t-46.5 18.5t-46 -18.5t-18 -47.5t17.5 -47t46.5 -18z" />
    <glyph glyph-name="uring" unicode="&#x16f;" horiz-adv-x="565" 
d="M422 104q-20 -47 -65.5 -80.5t-120.5 -33.5t-120 42.5t-45 127.5v359h67v-359q0 -62 32.5 -86.5t82.5 -24.5q34 0 60 9t46 24.5t35.5 37t27.5 46.5v353h66v-519h-59l-5 104h-2v0zM280 571q-48 0 -79.5 30.5t-31.5 78.5t31.5 78.5t79.5 30.5t79.5 -30.5t31.5 -78.5
t-31.5 -78.5t-79.5 -30.5zM280 615q28 0 46.5 18t18.5 47t-18.5 47.5t-46.5 18.5t-46 -18.5t-18 -47.5t17.5 -47t46.5 -18z" />
    <glyph glyph-name="Uhungarumlaut" unicode="&#x170;" horiz-adv-x="695" 
d="M72 717h71v-471q0 -49 14.5 -85t41 -60t64 -36t83.5 -12q45 0 84 12t67.5 36t45 60.5t16.5 85.5v470h68v-467q0 -63 -21.5 -111.5t-59.5 -81.5t-89.5 -50t-111.5 -17q-59 0 -108.5 16t-86.5 48t-57.5 80t-20.5 112v471zM217 773l67 136h84l-90 -136h-61zM405 773l66 136
h84l-90 -136h-60z" />
    <glyph glyph-name="uhungarumlaut" unicode="&#x171;" horiz-adv-x="565" 
d="M422 104q-20 -47 -65.5 -80.5t-120.5 -33.5t-120 42.5t-45 127.5v359h67v-359q0 -62 32.5 -86.5t82.5 -24.5q34 0 60 9t46 24.5t35.5 37t27.5 46.5v353h66v-519h-59l-5 104h-2v0zM169 588l59 158h77l-81 -158h-55zM328 588l59 158h77l-82 -158h-54z" />
    <glyph glyph-name="Uogonek" unicode="&#x172;" horiz-adv-x="695" 
d="M72 717h71v-471q0 -49 14.5 -85t41 -60t64 -36t83.5 -12q45 0 84 12t67.5 36t45 60.5t16.5 85.5v470h68v-467q0 -63 -21.5 -111.5t-59.5 -81.5t-89.5 -50t-111.5 -17q-59 0 -108.5 16t-86.5 48t-57.5 80t-20.5 112v471zM404 -192q-51 0 -81.5 24t-30.5 66q0 41 25 66
t56 36h58q-31 -10 -55.5 -31.5t-24.5 -56.5q0 -26 16.5 -40.5t48.5 -14.5q25 0 47 8v-46q-8 -5 -23.5 -8t-35.5 -3z" />
    <glyph glyph-name="uogonek" unicode="&#x173;" horiz-adv-x="565" 
d="M521 -181q-8 -5 -23.5 -8t-35.5 -3q-54 0 -83.5 26.5t-29.5 68.5q0 36 23.5 64t56.5 40l-5 97h-2q-20 -47 -65.5 -80.5t-120.5 -33.5t-120 42.5t-45 127.5v359h67v-359q0 -62 32.5 -86.5t82.5 -24.5q34 0 60 9t46 24.5t35.5 37t27.5 46.5v353h66v-519q-30 -10 -55 -31.5
t-25 -56.5q0 -26 16.5 -40.5t48.5 -14.5q14 0 25.5 2t22.5 6v-46v0z" />
    <glyph glyph-name="Wcircumflex" unicode="&#x174;" horiz-adv-x="971" 
d="M763 0h-102l-175 603l-176 -603h-102l-176 717h73l157 -652l193 652h68l190 -646l158 646h67zM488 862l-92 -99h-58l111 148h78l111 -148h-58z" />
    <glyph glyph-name="wcircumflex" unicode="&#x175;" horiz-adv-x="772" 
d="M612 0h-102l-124 434l-126 -434h-100l-128 519h70l113 -470l135 470h79l133 -466l113 466h66zM390 687l-92 -99h-58l111 148h78l111 -148h-58z" />
    <glyph glyph-name="Ycircumflex" unicode="&#x176;" horiz-adv-x="610" 
d="M342 312v-312h-72v310l-250 407h80l208 -345l209 345h73zM310 862l-92 -99h-58l111 148h78l111 -148h-58z" />
    <glyph glyph-name="ycircumflex" unicode="&#x177;" horiz-adv-x="513" 
d="M302 6q-19 -47 -38 -82.5t-41.5 -60.5t-50.5 -37.5t-64 -12.5q-34 0 -56 9v63q21 -13 54 -13q40 0 65.5 26t50.5 80l-211 541h74l175 -452l178 452h65l-201 -513v0zM259 687l-92 -99h-58l111 148h78l111 -148h-58z" />
    <glyph glyph-name="Ydieresis" unicode="&#x178;" horiz-adv-x="610" 
d="M342 312v-312h-72v310l-250 407h80l208 -345l209 345h73zM202 797q-21 0 -33.5 13t-12.5 32t12.5 32.5t33.5 13.5t33 -13.5t12 -32.5t-12 -32t-33 -13zM417 797q-22 0 -34.5 13t-12.5 32t12.5 32.5t34.5 13.5q21 0 33.5 -13.5t12.5 -32.5t-12.5 -32t-33.5 -13z" />
    <glyph glyph-name="Zacute" unicode="&#x179;" horiz-adv-x="614" 
d="M562 0h-516v52l427 600h-416v65h504v-53l-430 -600h431v-64zM359 909h95l-130 -136h-64z" />
    <glyph glyph-name="zacute" unicode="&#x17a;" horiz-adv-x="456" 
d="M416 0h-383v43l299 419h-291v57h374v-43l-298 -419h299v-57zM277 746h89l-125 -158h-58z" />
    <glyph glyph-name="Zdotaccent" unicode="&#x17b;" horiz-adv-x="614" 
d="M562 0h-516v52l427 600h-416v65h504v-53l-430 -600h431v-64zM304 797q-21 0 -33.5 13t-12.5 32t12.5 32.5t33.5 13.5t33.5 -13.5t12.5 -32.5t-12.5 -32t-33.5 -13z" />
    <glyph glyph-name="zdotaccent" unicode="&#x17c;" horiz-adv-x="456" 
d="M416 0h-383v43l299 419h-291v57h374v-43l-298 -419h299v-57zM226 613q-21 0 -33.5 13.5t-12.5 32.5t12.5 32.5t33.5 13.5t33.5 -13.5t12.5 -32.5t-12.5 -32.5t-33.5 -13.5z" />
    <glyph glyph-name="Zcaron" unicode="&#x17d;" horiz-adv-x="614" 
d="M562 0h-516v52l427 600h-416v65h504v-53l-430 -600h431v-64zM354 763h-78l-111 148h58l92 -99l92 99h58z" />
    <glyph glyph-name="zcaron" unicode="&#x17e;" horiz-adv-x="456" 
d="M416 0h-383v43l299 419h-291v57h374v-43l-298 -419h299v-57zM267 588h-78l-111 148h58l92 -99l92 99h58z" />
    <glyph glyph-name="uni0192" unicode="&#x192;" 
d="M257 10q-17 -95 -60.5 -146t-126.5 -51q-23 0 -40 3.5t-30 7.5v56q9 -5 28 -9t41 -4q29 0 50 9.5t35 28t23.5 46t15.5 63.5l63 357h-94l12 54h92l18 104q16 97 61.5 147t133.5 50q18 0 33 -2.5t28 -5.5v-60q-10 4 -29 7.5t-41 3.5q-29 0 -49.5 -8.5t-34 -26t-22.5 -43.5
t-15 -62l-18 -104h142l-11 -54h-141l-64 -361v0z" />
    <glyph glyph-name="uni0218" unicode="&#x218;" horiz-adv-x="571" 
d="M273 -10q-48 0 -85.5 6.5t-66 16.5t-48 21.5t-29.5 21.5v68q13 -11 35 -23t51.5 -22.5t65.5 -17.5t76 -7q38 0 71.5 7.5t58 24t39 42t14.5 60.5q0 34 -12.5 57t-36 39t-57.5 26.5t-76 21.5q-41 11 -81 25t-72 36.5t-52 56.5t-20 85q0 93 65.5 142t186.5 49q37 0 66 -4
t51.5 -10t39.5 -13.5t31 -14.5v-68q-35 22 -82 34t-106 12q-181 0 -181 -124q0 -33 13.5 -55.5t37 -37.5t54 -25t63.5 -19q40 -10 82.5 -22.5t78 -35t58 -58.5t22.5 -94q0 -56 -21.5 -94t-57.5 -62t-82 -34.5t-94 -10.5zM340 -105q0 -19 -5.5 -36t-14.5 -32t-19 -27t-19 -22
h-49q16 17 28 37t23 47q-19 3 -28 15t-9 28q0 19 12.5 31.5t32.5 12.5t34 -13t14 -41z" />
    <glyph glyph-name="uni0219" unicode="&#x219;" horiz-adv-x="477" 
d="M235 -10q-40 0 -71 6.5t-54 15.5t-38.5 19t-24.5 18v60q10 -9 26.5 -19.5t40 -20.5t53.5 -16.5t67 -6.5q28 0 53 5t43.5 16t29 28.5t10.5 43.5t-11 42.5t-30 27t-45.5 16.5t-56.5 12q-31 6 -63 14.5t-57.5 24.5t-41.5 42t-16 67q0 70 53.5 107t145.5 37q56 0 95 -11
t62 -24v-60q-25 16 -62.5 27.5t-93.5 11.5q-61 0 -97.5 -19t-36.5 -68q0 -24 9.5 -38t26 -23t39 -14.5t47.5 -10.5q33 -7 68 -15t64 -24.5t48 -45t19 -75.5q0 -44 -17.5 -73t-46 -46t-64.5 -24t-73 -7zM291 -105q0 -19 -5.5 -36t-14.5 -32t-19 -27t-19 -22h-49q16 17 28 37
t23 47q-19 3 -28 15t-9 28q0 19 12.5 31.5t32.5 12.5t34 -13t14 -41z" />
    <glyph glyph-name="uni021A" unicode="&#x21a;" horiz-adv-x="588" 
d="M330 651v-651h-72v651h-235v66h542v-66h-235zM340 -105q0 -19 -5.5 -36t-14.5 -32t-19 -27t-19 -22h-49q16 17 28 37t23 47q-19 3 -28 15t-9 28q0 19 12.5 31.5t32.5 12.5t34 -13t14 -41z" />
    <glyph glyph-name="uni021B" unicode="&#x21b;" horiz-adv-x="357" 
d="M311 7q-14 -8 -35.5 -12.5t-46.5 -4.5q-35 0 -60 10t-40.5 27.5t-23 40t-7.5 47.5v347h-67v57h67v109h66v-109h151v-57h-151v-338q0 -36 18 -55.5t63 -19.5q37 0 66 18v-60v0zM244 -105q0 -19 -5.5 -36t-14.5 -32t-19 -27t-19 -22h-49q16 17 28 37t23 47q-19 3 -28 15
t-9 28q0 19 12.5 31.5t32.5 12.5t34 -13t14 -41z" />
    <glyph glyph-name="uni0237" unicode="&#x237;" horiz-adv-x="226" 
d="M150 -58q0 -25 -7 -48.5t-22.5 -41.5t-40 -28.5t-58.5 -10.5q-23 0 -44.5 6t-38.5 15v64q12 -10 30.5 -18t43.5 -8q37 0 54 20t17 50v577h66v-577z" />
    <glyph glyph-name="uni02BC" unicode="&#x2bc;" horiz-adv-x="236" 
d="M171 661q0 -18 -5.5 -35t-13.5 -34.5t-18 -32t-19 -24.5h-51q14 17 26 39.5t19 52.5q-18 4 -28.5 14.5t-10.5 29.5q0 20 13.5 34.5t36.5 14.5t37 -15t14 -44z" />
    <glyph glyph-name="circumflex" unicode="&#x2c6;" horiz-adv-x="451" 
d="M225 687l-92 -99h-58l111 148h78l111 -148h-58z" />
    <glyph glyph-name="caron" unicode="&#x2c7;" horiz-adv-x="451" 
d="M264 588h-78l-111 148h58l92 -99l92 99h58z" />
    <glyph glyph-name="breve" unicode="&#x2d8;" horiz-adv-x="450" 
d="M225 584q-37 0 -65 11t-46.5 30t-28 44t-9.5 54h67q0 -45 22 -66.5t60 -21.5t59.5 21.5t21.5 66.5h67q0 -29 -9 -54t-27.5 -44t-46.5 -30t-65 -11z" />
    <glyph glyph-name="dotaccent" unicode="&#x2d9;" horiz-adv-x="451" 
d="M225 613q-21 0 -33.5 13.5t-12.5 32.5t12.5 32.5t33.5 13.5t33.5 -13.5t12.5 -32.5t-12.5 -32.5t-33.5 -13.5z" />
    <glyph glyph-name="ring" unicode="&#x2da;" horiz-adv-x="451" 
d="M225 571q-48 0 -79.5 30.5t-31.5 78.5t31.5 78.5t79.5 30.5t79.5 -30.5t31.5 -78.5t-31.5 -78.5t-79.5 -30.5zM225 615q28 0 46.5 18t18.5 47t-18.5 47.5t-46.5 18.5t-46 -18.5t-18 -47.5t17.5 -47t46.5 -18z" />
    <glyph glyph-name="ogonek" unicode="&#x2db;" horiz-adv-x="450" 
d="M241 -192q-51 0 -81.5 24t-30.5 66q0 41 25 66t56 36h58q-31 -10 -55.5 -31.5t-24.5 -56.5q0 -26 16.5 -40.5t48.5 -14.5q25 0 47 8v-46q-8 -5 -23.5 -8t-35.5 -3z" />
    <glyph glyph-name="tilde" unicode="&#x2dc;" horiz-adv-x="451" 
d="M67 601q-4 21 -1.5 42t13 37t28 26t43.5 10q25 0 45 -8.5t37.5 -19t33 -19t32.5 -8.5q44 0 36 59h49q4 -22 1.5 -42.5t-13 -37t-28.5 -26.5t-43 -10t-45 8.5t-37.5 19t-33.5 19t-32 8.5q-20 0 -30 -14.5t-5 -43.5h-50v0z" />
    <glyph glyph-name="hungarumlaut" unicode="&#x2dd;" horiz-adv-x="451" 
d="M94 588l59 158h77l-81 -158h-55zM253 588l59 158h77l-82 -158h-54z" />
    <glyph glyph-name="acutecomb" unicode="&#x301;" horiz-adv-x="0" 
d="M-206 746h89l-125 -158h-58z" />
    <glyph glyph-name="uni0401" unicode="&#x401;" horiz-adv-x="593" 
d="M399 780q-21 0 -33.5 13.5t-12.5 33.5q0 19 12.5 32.5t33.5 13.5q22 0 33.5 -13.5t11.5 -32.5q0 -20 -11.5 -33.5t-33.5 -13.5zM218 780q-22 0 -34 13.5t-12 33.5q0 19 12 32.5t34 13.5q21 0 33 -13.5t12 -32.5q0 -20 -12 -33.5t-33 -13.5zM88 717h440v-65h-369v-244h316
v-64h-316v-280h374v-64h-445v717z" />
    <glyph glyph-name="uni0402" unicode="&#x402;" horiz-adv-x="790" 
d="M330 651v-244q22 16 59 27q42 12 93 12q60 0 109 -18t83 -54t52.5 -88.5t18.5 -121.5q0 -70 -18.5 -124t-53 -91t-84 -56t-110.5 -19v63q101 0 148 60t47 167q0 105 -47.5 161.5t-146.5 56.5q-47 0 -87 -11q-35 -9 -63 -28v-343h-72v651h-235v66h542v-66h-235z" />
    <glyph glyph-name="uni0403" unicode="&#x403;" horiz-adv-x="534" 
d="M331 909h95l-130 -136h-64zM88 717h404v-65h-333v-652h-71v717z" />
    <glyph glyph-name="uni0404" unicode="&#x404;" horiz-adv-x="674" 
d="M616 55q-30 -25 -85 -45t-133 -20q-81 0 -145.5 25t-110.5 72.5t-70.5 116t-24.5 154.5q0 87 23 155t67 115.5t109 72.5t148 25q77 0 131.5 -18t88.5 -42v-68q-42 30 -101 47t-120 17q-125 0 -192.5 -67.5t-76.5 -198.5h359v-63h-359q6 -137 76.5 -208t201.5 -71
q60 0 115 18t99 53v-70v0z" />
    <glyph glyph-name="uni0405" unicode="&#x405;" horiz-adv-x="566" 
d="M276 -10q-48 0 -85.5 6.5t-66 16.5t-48 21.5t-29.5 21.5v68q13 -11 35 -23t51.5 -22.5t65.5 -17.5t76 -7q38 0 71.5 7.5t58 24t39 42t14.5 60.5q0 34 -12.5 57t-36 39t-57.5 26.5t-76 21.5q-41 11 -81 25t-72 36.5t-52 56.5t-20 85q0 93 65.5 142t186.5 49q37 0 66 -4
t51.5 -10t39.5 -13.5t31 -14.5v-68q-35 22 -82 34t-106 12q-181 0 -181 -124q0 -33 13.5 -55.5t37 -37.5t54 -25t63.5 -19q40 -10 82.5 -22.5t78 -35t58 -58.5t22.5 -94q0 -56 -21.5 -94t-57.5 -62t-82 -34.5t-94 -10.5z" />
    <glyph glyph-name="uni0406" unicode="&#x406;" horiz-adv-x="246" 
d="M159 717v-717h-71v717h71z" />
    <glyph glyph-name="uni0407" unicode="&#x407;" horiz-adv-x="246" 
d="M159 717v-717h-71v717h71zM16 797q-21 0 -33.5 13t-12.5 32t12.5 32.5t33.5 13.5t33 -13.5t12 -32.5t-12 -32t-33 -13zM231 797q-22 0 -34.5 13t-12.5 32t12.5 32.5t34.5 13.5q21 0 33.5 -13.5t12.5 -32.5t-12.5 -32t-33.5 -13z" />
    <glyph glyph-name="uni0408" unicode="&#x408;" horiz-adv-x="365" 
d="M281 717v-582q0 -30 -8.5 -56t-27.5 -46t-48 -31.5t-70 -11.5q-55 0 -96 19v61q38 -16 82 -16q54 0 75.5 24.5t21.5 74.5v564h71z" />
    <glyph glyph-name="uni0409" unicode="&#x409;" horiz-adv-x="1027" 
d="M975 220q0 -59 -18 -101t-50.5 -68.5t-78.5 -38.5t-102 -12h-218v652h-278q-4 -149 -9.5 -264t-18.5 -188q-9 -46 -22 -84t-33.5 -65.5t-51 -42t-75.5 -12.5v72q25 -2 44 7.5t32 28t22 46t15 61.5q14 77 20 206t10 300h416v-293h159q115 0 176 -48.5t61 -155.5zM579 361
v-297h147q41 0 73.5 8t55 26t34.5 47.5t12 71.5q0 144 -165 144h-157z" />
    <glyph glyph-name="uni040A" unicode="&#x40a;" horiz-adv-x="1064" 
d="M1013 220q0 -59 -18 -101t-51 -68.5t-79 -38.5t-102 -12h-218v361h-386v-361h-71v717h71v-293h386v293h71v-293h159q115 0 176.5 -48.5t61.5 -155.5zM616 361v-297h147q41 0 73.5 8t55.5 26t35 47.5t12 71.5q0 144 -166 144h-157z" />
    <glyph glyph-name="uni040B" unicode="&#x40b;" horiz-adv-x="779" 
d="M330 651v-244q23 15 59 26q42 13 102 13q52 0 93.5 -13.5t70.5 -41t44.5 -70.5t15.5 -103v-218h-72v214q0 47 -11 79.5t-31.5 52t-49 28t-63.5 8.5q-49 0 -91 -10q-37 -9 -67 -28v-344h-72v651h-235v66h542v-66h-235z" />
    <glyph glyph-name="uni040C" unicode="&#x40c;" horiz-adv-x="628" 
d="M255 323h-96v-323h-71v717h71v-330h94l261 330h80l-284 -356l298 -361h-89zM361 909h95l-130 -136h-64z" />
    <glyph glyph-name="uni040E" unicode="&#x40e;" horiz-adv-x="628" 
d="M375 193q-22 -51 -44.5 -89t-49.5 -62t-61 -34.5t-79 -7.5v72q61 -6 96.5 21.5t61.5 82.5l-266 541h81l222 -457l192 457h74zM333 759q-39 0 -68.5 10.5t-48.5 29.5t-28.5 44.5t-9.5 54.5h67q0 -46 23 -67t65 -21t64.5 21t22.5 67h67q0 -29 -9.5 -54.5t-28.5 -44.5
t-48 -29.5t-68 -10.5z" />
    <glyph glyph-name="uni040F" unicode="&#x40f;" horiz-adv-x="718" 
d="M631 0h-233l-4 -170h-63l-4 170h-239v717h71v-653h401v653h71v-717z" />
    <glyph glyph-name="uni0410" unicode="&#x410;" horiz-adv-x="677" 
d="M286 717h102l269 -717h-75l-81 217h-333l-81 -217h-67zM477 281l-144 383l-142 -383h286z" />
    <glyph glyph-name="uni0411" unicode="&#x411;" horiz-adv-x="608" 
d="M88 717h420v-65h-349v-234h160q113 0 175 -48t62 -153q0 -58 -18 -99t-50.5 -67.5t-78.5 -38.5t-103 -12h-218v717zM159 354v-290h147q41 0 73.5 8t55.5 26t35 46.5t12 69.5q0 72 -42 106t-123 34h-158z" />
    <glyph glyph-name="uni0412" unicode="&#x412;" horiz-adv-x="636" 
d="M88 717h239q113 0 173 -41t60 -134q0 -75 -38.5 -115t-103.5 -54q83 -11 124.5 -51t41.5 -118q0 -55 -20 -94t-55 -63.5t-83 -35.5t-104 -11h-234v717zM159 652v-251h157q77 0 125 32.5t48 105.5q0 63 -41.5 88t-120.5 25h-168zM159 337v-273h163q42 0 77 7t59.5 23.5
t38 43t13.5 64.5q0 72 -45.5 103.5t-142.5 31.5h-163z" />
    <glyph glyph-name="uni0413" unicode="&#x413;" horiz-adv-x="534" 
d="M88 717h404v-65h-333v-652h-71v717z" />
    <glyph glyph-name="uni0414" unicode="&#x414;" horiz-adv-x="743" 
d="M619 64h88v-234h-65l-9 170h-542l-9 -170h-63v234h51q34 27 54 79.5t31 133t15.5 190t8.5 250.5h440v-653zM547 64v588h-302q-3 -124 -8 -220t-15 -167t-25.5 -120.5t-40.5 -80.5h391z" />
    <glyph glyph-name="uni0415" unicode="&#x415;" horiz-adv-x="593" 
d="M88 717h440v-65h-369v-244h316v-64h-316v-280h374v-64h-445v717z" />
    <glyph glyph-name="uni0416" unicode="&#x416;" horiz-adv-x="934" 
d="M429 328h-68l-258 -328h-84l287 365l-272 352h77l252 -329h66v329h71v-329h67l252 329h78l-273 -353l288 -364h-87l-259 328h-66v-328h-71v328z" />
    <glyph glyph-name="uni0417" unicode="&#x417;" horiz-adv-x="597" 
d="M181 338v61h95q82 0 127.5 33.5t45.5 102.5t-42 98.5t-118 29.5q-69 0 -126 -17.5t-97 -43.5v67q33 22 86.5 39.5t136.5 17.5q108 0 170 -45.5t62 -141.5q0 -67 -36.5 -108t-105.5 -58q165 -23 165 -169q0 -57 -20.5 -97.5t-56 -66.5t-83.5 -38t-102 -12q-81 0 -137 21
t-85 45v69q42 -33 98.5 -52t122.5 -19q40 0 74.5 8t60 25.5t40 45.5t14.5 69q0 73 -45.5 104.5t-137.5 31.5h-106z" />
    <glyph glyph-name="uni0418" unicode="&#x418;" horiz-adv-x="748" 
d="M88 0v717h71v-623l426 623h76v-717h-72v621l-425 -621h-76z" />
    <glyph glyph-name="uni0419" unicode="&#x419;" horiz-adv-x="748" 
d="M370 759q-39 0 -68.5 10.5t-48.5 29.5t-28.5 44.5t-9.5 54.5h67q0 -46 23 -67t65 -21t64.5 21t22.5 67h67q0 -29 -9.5 -54.5t-28.5 -44.5t-48 -29.5t-68 -10.5zM88 0v717h71v-623l426 623h76v-717h-72v621l-425 -621h-76z" />
    <glyph glyph-name="uni041A" unicode="&#x41a;" horiz-adv-x="628" 
d="M255 323h-96v-323h-71v717h71v-330h94l261 330h80l-284 -356l298 -361h-89z" />
    <glyph glyph-name="uni041B" unicode="&#x41b;" horiz-adv-x="671" 
d="M133 211q14 77 20 206t10 300h422v-717h-72v652h-283q-4 -149 -9.5 -264t-18.5 -188q-9 -46 -22 -84t-33.5 -65.5t-51 -42t-75.5 -12.5v72q25 -2 44 7.5t32 28t22 46t15 61.5z" />
    <glyph glyph-name="uni041C" unicode="&#x41c;" horiz-adv-x="867" 
d="M709 617l-243 -508h-70l-241 511v-620h-67v717h99l246 -533l254 533h93v-717h-71v617z" />
    <glyph glyph-name="uni041D" unicode="&#x41d;" horiz-adv-x="723" 
d="M564 323h-406v-323h-71v717h71v-330h406v330h72v-717h-72v323z" />
    <glyph glyph-name="uni041E" unicode="&#x41e;" horiz-adv-x="771" 
d="M385 -10q-72 0 -134 25t-107 72t-71 116t-26 158q0 88 26 156.5t71 114.5t107 70t134 24q73 0 135 -24t107.5 -70.5t71 -114.5t25.5 -157q0 -88 -25.5 -156.5t-71 -116t-107.5 -72.5t-135 -25zM385 54q57 0 105.5 18t83.5 55.5t55 95t20 135.5t-20 135.5t-55 95
t-83.5 55.5t-105.5 18t-105 -18t-83 -55.5t-55 -95t-20 -135.5t20 -135.5t55 -95t83 -55.5t105 -18z" />
    <glyph glyph-name="uni041F" unicode="&#x41f;" horiz-adv-x="707" 
d="M88 717h532v-717h-71v652h-390v-652h-71v717z" />
    <glyph glyph-name="uni0420" unicode="&#x420;" horiz-adv-x="601" 
d="M88 717h227q115 0 179 -49t64 -153q0 -59 -18 -101t-51 -69t-80 -39.5t-104 -12.5h-146v-293h-71v717zM159 652v-295h146q85 0 133 36t48 121q0 72 -43 105t-128 33h-156z" />
    <glyph glyph-name="uni0421" unicode="&#x421;" horiz-adv-x="669" 
d="M393 -10q-80 0 -144 25t-109 72.5t-69 116t-24 154.5q0 87 23 155t67 115.5t108 72.5t147 25q76 0 130.5 -18t88.5 -42v-68q-42 30 -101 47t-119 17q-134 0 -201 -77.5t-67 -226.5t70.5 -226.5t204.5 -77.5q59 0 114 18t99 53v-70q-30 -25 -85 -45t-133 -20z" />
    <glyph glyph-name="uni0422" unicode="&#x422;" horiz-adv-x="588" 
d="M330 651v-651h-72v651h-235v66h542v-66h-235z" />
    <glyph glyph-name="uni0423" unicode="&#x423;" horiz-adv-x="628" 
d="M375 193q-22 -51 -44.5 -89t-49.5 -62t-61 -34.5t-79 -7.5v72q61 -6 96.5 21.5t61.5 82.5l-266 541h81l222 -457l192 457h74l-227 -524v0z" />
    <glyph glyph-name="uni0424" unicode="&#x424;" horiz-adv-x="806" 
d="M121 358q0 -57 19 -97.5t52 -66t78 -38t97 -14.5v434q-52 -3 -97 -15.5t-78 -38.5t-52 -66t-19 -98zM684 359q0 57 -19 97t-52 66t-78 38.5t-97 14.5v-434q52 3 97 15.5t78 38.5t52 66t19 98zM438 725v-92q69 -2 127.5 -19t101 -51t67 -84.5t24.5 -117.5t-24.5 -118
t-67 -85.5t-101 -53t-127.5 -20.5v-94h-71v94q-68 1 -126.5 18.5t-101.5 51.5t-67.5 84t-24.5 118q0 67 24.5 118t67.5 85.5t101.5 53t126.5 20.5v92h71z" />
    <glyph glyph-name="uni0425" unicode="&#x425;" horiz-adv-x="629" 
d="M310 321l-216 -321h-75l254 371l-234 346h85l199 -295l199 295h74l-237 -345l252 -372h-84z" />
    <glyph glyph-name="uni0426" unicode="&#x426;" horiz-adv-x="745" 
d="M620 64h89v-234h-65l-9 170h-547v717h71v-653h390v653h71v-653z" />
    <glyph glyph-name="uni0427" unicode="&#x427;" horiz-adv-x="672" 
d="M581 0h-71v324q-43 -29 -89.5 -41.5t-99.5 -12.5q-114 0 -179.5 60.5t-65.5 191.5v195h72v-195q0 -97 45.5 -144t127.5 -47q51 0 99 12t90 43v331h71v-717z" />
    <glyph glyph-name="uni0428" unicode="&#x428;" horiz-adv-x="945" 
d="M857 0h-769v717h71v-653h277v653h72v-653h278v653h71v-717z" />
    <glyph glyph-name="uni0429" unicode="&#x429;" horiz-adv-x="982" 
d="M857 64h87v-234h-64l-9 170h-783v717h71v-653h277v653h72v-653h278v653h71v-653z" />
    <glyph glyph-name="uni042A" unicode="&#x42a;" horiz-adv-x="726" 
d="M24 717h256v-293h160q114 0 175 -48.5t61 -155.5q0 -59 -18 -101t-50.5 -68.5t-78.5 -38.5t-103 -12h-218v652h-184v65zM280 361v-297h146q41 0 74 8t56 26t35 47.5t12 71.5q0 144 -166 144h-157z" />
    <glyph glyph-name="uni042B" unicode="&#x42b;" horiz-adv-x="819" 
d="M552 220q0 -59 -18 -101t-50.5 -68.5t-78.5 -38.5t-103 -12h-214v717h71v-293h156q114 0 175.5 -48.5t61.5 -155.5zM731 716v-716h-71v716h71zM159 361v-297h143q41 0 74 8t55.5 26t34.5 47.5t12 71.5q0 73 -42 108.5t-123 35.5h-154z" />
    <glyph glyph-name="uni042C" unicode="&#x42c;" horiz-adv-x="607" 
d="M556 220q0 -59 -18 -101t-50.5 -68.5t-78.5 -38.5t-103 -12h-218v717h71v-293h160q114 0 175.5 -48.5t61.5 -155.5zM159 361v-297h147q41 0 73.5 8t55.5 26t35 47.5t12 71.5q0 73 -42 108.5t-123 35.5h-158z" />
    <glyph glyph-name="uni042D" unicode="&#x42d;" horiz-adv-x="671" 
d="M625 358q0 -86 -24.5 -154.5t-70 -116t-110 -72.5t-145.5 -25t-136 20t-86 45v70q45 -35 100.5 -53t117.5 -18q131 0 201 71t76 208h-355v63h355q-8 131 -74.5 198.5t-190.5 67.5q-63 0 -121.5 -17t-100.5 -47v68q34 24 88.5 42t132.5 18q82 0 146 -25t107.5 -72.5
t66.5 -115.5t23 -155z" />
    <glyph glyph-name="uni042E" unicode="&#x42e;" horiz-adv-x="965" 
d="M918 361q0 -88 -24 -157t-67 -116.5t-101 -72.5t-126 -25q-65 0 -121 22t-98 64t-68 104t-31 143h-123v-323h-71v717h71v-330h123q4 81 30 144.5t68 106.5t98.5 65.5t121.5 22.5q68 0 126 -24t101 -70t67 -114.5t24 -156.5zM600 54q52 0 97 18t77 55.5t50.5 95
t18.5 135.5t-18.5 135.5t-50.5 95t-77 55.5t-97 18q-53 0 -97.5 -18t-77 -55.5t-50.5 -95t-18 -135.5t18 -135.5t50.5 -95t77 -55.5t97.5 -18z" />
    <glyph glyph-name="uni042F" unicode="&#x42f;" horiz-adv-x="642" 
d="M86 511q0 54 17.5 92.5t49.5 64t77.5 37.5t101.5 12h222v-717h-71v298h-153l-212 -298h-87l226 309q-82 14 -126.5 63t-44.5 139zM483 362v290h-151q-81 0 -126.5 -32.5t-45.5 -108.5q0 -78 42.5 -113.5t127.5 -35.5h153z" />
    <glyph glyph-name="uni0430" unicode="&#x430;" horiz-adv-x="528" 
d="M390 104q-9 -19 -23 -39.5t-36 -37t-51.5 -27t-69.5 -10.5q-74 0 -118 40.5t-44 114.5q0 82 59.5 122t170.5 40h110v46q0 60 -31.5 88.5t-102.5 28.5q-52 0 -97.5 -16.5t-76.5 -36.5v60q26 17 73.5 34.5t108.5 17.5q91 0 141.5 -40t50.5 -123v-275q0 -23 1.5 -49.5
t4.5 -41.5h-61q-3 15 -5.5 40.5t-2.5 51.5zM223 49q45 0 76.5 19t51 43t28.5 47.5t9 32.5v62h-104q-89 0 -129.5 -27.5t-40.5 -78.5q0 -46 29 -72t80 -26z" />
    <glyph glyph-name="uni0431" unicode="&#x431;" horiz-adv-x="581" 
d="M540 258q0 -64 -19 -113.5t-52.5 -84t-79 -52.5t-98.5 -18t-98 18t-78 55t-51.5 93t-18.5 133q0 58 2.5 116.5t15.5 111t40 96t76 72.5q27 15 54 23t54.5 12t56 4.5t59.5 1.5q66 5 98 25v-62q-17 -11 -39 -16.5t-54 -7.5q-31 -2 -58.5 -2.5t-52 -3t-47.5 -9t-46 -18.5
q-56 -32 -78 -95t-28 -150q26 67 78.5 101.5t129.5 34.5q49 0 92 -17.5t74.5 -51.5t49.5 -83.5t18 -112.5zM291 49q39 0 72.5 13t58 39.5t38 65.5t13.5 91t-13.5 91t-37.5 65t-56.5 39t-71.5 13t-72.5 -13t-58 -38.5t-38 -64.5t-13.5 -90q0 -53 13.5 -92.5t37.5 -66
t56.5 -39.5t71.5 -13z" />
    <glyph glyph-name="uni0432" unicode="&#x432;" horiz-adv-x="528" 
d="M77 519h183q91 0 137 -31.5t46 -99.5q0 -45 -23.5 -74t-65.5 -41q56 -8 85 -40t29 -83q0 -41 -15 -69.5t-42 -46.5t-65 -26t-84 -8h-185v519zM143 462v-166h117q53 0 85.5 21.5t32.5 63.5q0 46 -30.5 63.5t-85.5 17.5h-119zM143 243v-186h122q30 0 55 4.5t43 15.5
t27.5 29t9.5 44q0 51 -34 72t-102 21h-121z" />
    <glyph glyph-name="uni0433" unicode="&#x433;" horiz-adv-x="434" 
d="M77 519h322v-57h-256v-462h-66v519z" />
    <glyph glyph-name="uni0434" unicode="&#x434;" horiz-adv-x="579" 
d="M482 57h77v-205h-57l-9 148h-417l-8 -148h-59v205h39q27 17 43 54t25 94.5t12.5 135.5t6.5 178h347v-462zM416 57v405h-221q-3 -82 -7 -146.5t-11.5 -114.5t-19.5 -85.5t-31 -58.5h290z" />
    <glyph glyph-name="uni0435" unicode="&#x435;" horiz-adv-x="539" 
d="M481 44q-9 -8 -25.5 -17t-39 -17.5t-51.5 -14t-64 -5.5q-126 0 -194 71t-68 199q0 63 18.5 113t51.5 84.5t77.5 53t95.5 18.5q53 0 96 -18t71.5 -53.5t39.5 -88.5t1 -123h-384q4 -97 55 -147t145 -50q60 0 105.5 18t69.5 37v-60zM281 470q-66 0 -113.5 -42t-58.5 -126
h320q3 43 -8 74.5t-31 52.5t-48 31t-61 10z" />
    <glyph glyph-name="uni0436" unicode="&#x436;" horiz-adv-x="749" 
d="M341 232h-56l-178 -232h-79l201 262l-195 257h77l171 -230h59v230h67v-230h59l173 230h75l-195 -254l201 -265h-81l-176 232h-56v-232h-67v232z" />
    <glyph glyph-name="uni0437" unicode="&#x437;" horiz-adv-x="490" 
d="M431 149q0 -42 -16.5 -72.5t-45 -49.5t-67.5 -28t-83 -9q-52 0 -95.5 11t-69.5 27v59q31 -18 74.5 -28t89.5 -10q31 0 58.5 5t47 17t31 31t11.5 47q0 51 -34.5 71.5t-103.5 20.5h-77v54h77q57 0 88.5 23t31.5 68q0 46 -36 65t-91 19q-92 0 -158 -40v59q26 16 65.5 28
t96.5 12q91 0 138 -35t47 -103q0 -50 -26.5 -80t-72.5 -41q58 -8 89 -38.5t31 -82.5z" />
    <glyph glyph-name="uni0438" unicode="&#x438;" horiz-adv-x="592" 
d="M449 427l-306 -427h-66v519h66v-425l307 425h65v-519h-66v427z" />
    <glyph glyph-name="uni0439" unicode="&#x439;" horiz-adv-x="592" 
d="M297 587q-74 0 -109.5 37t-35.5 91h67q0 -41 20.5 -60t57.5 -19q38 0 58 19t20 60h66q0 -54 -35.5 -91t-108.5 -37zM449 427l-306 -427h-66v519h66v-425l307 425h65v-519h-66v427z" />
    <glyph glyph-name="uni043A" unicode="&#x43a;" horiz-adv-x="497" 
d="M201 232h-57v-232h-67v519h67v-230h61l187 230h77l-212 -256l216 -263h-81z" />
    <glyph glyph-name="uni043B" unicode="&#x43b;" horiz-adv-x="543" 
d="M107 134q17 53 21 147.5t5 237.5h334v-519h-67v462h-204q-2 -117 -6.5 -204t-20.5 -146q-17 -60 -50 -88.5t-93 -24.5v67q31 -4 50 12.5t31 55.5z" />
    <glyph glyph-name="uni043C" unicode="&#x43c;" horiz-adv-x="714" 
d="M572 444l-193 -380h-52l-187 382v-446h-63v519h99l181 -370l187 370h94v-519h-66v444z" />
    <glyph glyph-name="uni043D" unicode="&#x43d;" horiz-adv-x="571" 
d="M428 241h-285v-241h-66v519h66v-221h285v221h67v-519h-67v241z" />
    <glyph glyph-name="uni043E" unicode="&#x43e;" horiz-adv-x="574" 
d="M286 -10q-53 0 -98 18t-78 52.5t-52 85t-19 114.5t19 114t52 84.5t78 52.5t98 18t98.5 -18t79 -52.5t52.5 -84.5t19 -114t-19 -114.5t-52.5 -85t-79 -52.5t-98.5 -18zM286 49q39 0 72 13.5t57.5 39.5t38 65.5t13.5 92.5t-13.5 92.5t-38 65.5t-57.5 39t-72 13t-72 -13
t-57 -39t-37.5 -65.5t-13.5 -92.5t13.5 -92.5t37.5 -65.5t57 -39.5t72 -13.5z" />
    <glyph glyph-name="uni043F" unicode="&#x43f;" horiz-adv-x="561" 
d="M77 519h407v-519h-66v462h-275v-462h-66v519z" />
    <glyph glyph-name="uni0440" unicode="&#x440;" horiz-adv-x="606" 
d="M330 -10q-65 0 -112.5 31.5t-74.5 87.5v-286h-66v696h59l6 -111v-1q26 57 74 89.5t117 32.5q48 0 90.5 -17t74.5 -51t50.5 -84t18.5 -117t-19 -117.5t-51 -84.5t-75.5 -51t-91.5 -17zM322 49q39 0 71.5 13.5t56 40t36.5 66t13 91.5q0 51 -13 90.5t-36.5 66t-56 40
t-71.5 13.5q-38 0 -71 -13.5t-57 -39.5t-38 -65.5t-14 -91.5t14 -91.5t38 -66t57 -40t71 -13.5z" />
    <glyph glyph-name="uni0441" unicode="&#x441;" horiz-adv-x="504" 
d="M298 -10q-59 0 -106.5 18.5t-81.5 53t-52.5 84.5t-18.5 114q0 63 18.5 113t53 84.5t83 53t108.5 18.5q44 0 85.5 -10t67.5 -28v-59q-32 20 -73 29t-79 9q-97 0 -147 -53.5t-50 -156.5t49.5 -157t142.5 -54q45 0 85 11t72 29v-59q-27 -17 -65 -28.5t-92 -11.5z" />
    <glyph glyph-name="uni0442" unicode="&#x442;" horiz-adv-x="471" 
d="M268 462v-462h-67v462h-173v57h415v-57h-175z" />
    <glyph glyph-name="uni0443" unicode="&#x443;" horiz-adv-x="517" 
d="M302 6q-19 -47 -38 -82.5t-41.5 -60.5t-50.5 -37.5t-64 -12.5q-34 0 -56 9v63q21 -13 54 -13q40 0 65.5 26t50.5 80l-211 541h74l175 -452l178 452h65l-201 -513v0z" />
    <glyph glyph-name="uni0444" unicode="&#x444;" horiz-adv-x="700" 
d="M660 260q0 -66 -22 -115.5t-60 -82.5t-88.5 -50.5t-106.5 -19.5v-169h-66v169q-57 2 -107.5 19.5t-88.5 51t-60 82.5t-22 115t22 115t60 82t88.5 50.5t107.5 19.5v200h66v-200q57 -2 107 -19.5t88 -50.5t60 -82t22 -115zM593 260q0 54 -16.5 92.5t-45 63.5t-67 38
t-81.5 15v-418q44 2 82 14.5t66.5 38t45 64t16.5 92.5zM106 260q0 -54 16.5 -92.5t45.5 -64t67 -38t82 -14.5v418q-44 -2 -82.5 -15t-67 -38t-45 -63.5t-16.5 -92.5z" />
    <glyph glyph-name="uni0445" unicode="&#x445;" horiz-adv-x="483" 
d="M237 221l-152 -221h-70l188 269l-172 250h77l139 -202l138 202h69l-173 -249l186 -270h-77z" />
    <glyph glyph-name="uni0446" unicode="&#x446;" horiz-adv-x="591" 
d="M493 57h78v-205h-57l-9 148h-428v519h66v-462h284v462h66v-462z" />
    <glyph glyph-name="uni0447" unicode="&#x447;" horiz-adv-x="539" 
d="M462 0h-66v239q-57 -49 -150 -49q-87 0 -133 42t-46 135v152h67v-153q0 -68 32 -94t89 -26q38 0 75 11t66 37v225h66v-519z" />
    <glyph glyph-name="uni0448" unicode="&#x448;" horiz-adv-x="782" 
d="M705 0h-628v519h66v-462h215v462h66v-462h215v462h66v-519z" />
    <glyph glyph-name="uni0449" unicode="&#x449;" horiz-adv-x="802" 
d="M705 57h77v-205h-56l-9 148h-640v519h66v-462h215v462h66v-462h215v462h66v-462z" />
    <glyph glyph-name="uni044A" unicode="&#x44a;" horiz-adv-x="579" 
d="M28 519h207v-190h101q93 0 146 -38t53 -122q0 -44 -15.5 -76t-43 -52.5t-65.5 -30.5t-83 -10h-160v462h-140v57zM235 272v-215h93q62 0 101 25t39 83q0 57 -35 82t-98 25h-100z" />
    <glyph glyph-name="uni044B" unicode="&#x44b;" horiz-adv-x="672" 
d="M441 169q0 -44 -15.5 -76t-43 -52.5t-65.5 -30.5t-83 -10h-157v519h66v-190h98q94 0 147 -38t53 -122zM595 0h-66v519h66v-519zM143 272v-215h91q62 0 101.5 25t39.5 83q0 57 -35.5 82t-98.5 25h-98z" />
    <glyph glyph-name="uni044C" unicode="&#x44c;" horiz-adv-x="486" 
d="M443 169q0 -44 -15.5 -76t-43.5 -52.5t-66 -30.5t-83 -10h-160v519h66v-190h102q93 0 146.5 -38t53.5 -122zM141 272v-215h94q63 0 102 25t39 83q0 57 -35.5 82t-98.5 25h-101z" />
    <glyph glyph-name="uni044D" unicode="&#x44d;" horiz-adv-x="505" 
d="M464 260q0 -64 -18.5 -114t-52.5 -84.5t-82 -53t-107 -18.5q-47 0 -87.5 10.5t-68.5 27.5v59q32 -17 73 -27.5t83 -10.5q91 0 139 48.5t53 142.5h-243v57h242q-8 85 -55 129t-132 44q-42 0 -81 -10t-71 -30v59q26 18 65.5 29t90.5 11q118 0 185 -71t67 -198z" />
    <glyph glyph-name="uni044E" unicode="&#x44e;" horiz-adv-x="764" 
d="M725 260q0 -64 -18 -114.5t-50.5 -85t-76 -52.5t-94.5 -18q-49 0 -91 17t-73.5 49t-50.5 78.5t-22 106.5h-106v-241h-66v519h66v-221h108q5 55 25 98t51 72.5t71.5 45t87.5 15.5q51 0 94.5 -18t76 -52.5t50.5 -84.5t18 -114zM486 49q37 0 68 13.5t54 39.5t36 65.5
t13 92.5t-13 92.5t-36 65.5t-54 39t-68 13q-36 0 -67.5 -13t-54 -39t-35.5 -65.5t-13 -92.5t13 -92.5t35.5 -65.5t54 -39.5t67.5 -13.5z" />
    <glyph glyph-name="uni044F" unicode="&#x44f;" horiz-adv-x="510" 
d="M73 357q0 42 15.5 72.5t43 50.5t65.5 29.5t83 9.5h154v-519h-67v201h-105l-142 -201h-79l154 216q-58 14 -90 47.5t-32 93.5zM367 259v203h-87q-62 0 -101 -24t-39 -78t35.5 -77.5t98.5 -23.5h93z" />
    <glyph glyph-name="uni0451" unicode="&#x451;" horiz-adv-x="539" 
d="M368 629q-21 0 -33.5 13.5t-12.5 32.5t12.5 32.5t33.5 13.5t33.5 -13.5t12.5 -32.5t-12.5 -32.5t-33.5 -13.5zM188 629q-21 0 -33.5 13.5t-12.5 32.5t12.5 32.5t33.5 13.5t33.5 -13.5t12.5 -32.5t-12.5 -32.5t-33.5 -13.5zM481 44q-9 -8 -25.5 -17t-39 -17.5t-51.5 -14
t-64 -5.5q-126 0 -194 71t-68 199q0 63 18.5 113t51.5 84.5t77.5 53t95.5 18.5q53 0 96 -18t71.5 -53.5t39.5 -88.5t1 -123h-384q4 -97 55 -147t145 -50q60 0 105.5 18t69.5 37v-60zM281 470q-66 0 -113.5 -42t-58.5 -126h320q3 43 -8 74.5t-31 52.5t-48 31t-61 10z" />
    <glyph glyph-name="uni0452" unicode="&#x452;" horiz-adv-x="575" 
d="M506 -58q0 -25 -7 -48.5t-22.5 -41.5t-40 -28.5t-58.5 -10.5q-23 0 -44.5 6t-38.5 15v64q12 -10 30.5 -18t42.5 -8q38 0 55 20t17 50v416q0 62 -33 87t-88 25q-36 0 -63.5 -9.5t-48.5 -25.5t-36.5 -38t-27.5 -46v-351h-66v584h-85v50h85v83h66v-83h167v-50h-167v-69
l-1 -101h2q10 23 26.5 44t40 36.5t54 25t69.5 9.5q79 0 125.5 -41.5t46.5 -123.5v-422v0z" />
    <glyph glyph-name="uni0453" unicode="&#x453;" horiz-adv-x="434" 
d="M77 519h322v-57h-256v-462h-66v519zM256 746h89l-125 -158h-58z" />
    <glyph glyph-name="uni0454" unicode="&#x454;" horiz-adv-x="497" 
d="M455 30q-27 -17 -65 -28.5t-92 -11.5q-59 0 -106.5 18.5t-81.5 53t-52.5 84.5t-18.5 114q0 128 67 198.5t188 70.5q45 0 87 -10t68 -28v-59q-32 20 -72 29t-79 9q-88 0 -135 -44.5t-55 -130.5h243v-57h-244q5 -93 54 -141t137 -48q45 0 85 11t72 29v-59v0z" />
    <glyph glyph-name="uni0455" unicode="&#x455;" horiz-adv-x="483" 
d="M235 -10q-40 0 -71 6.5t-54 15.5t-38.5 19t-24.5 18v60q10 -9 26.5 -19.5t40 -20.5t53.5 -16.5t67 -6.5q28 0 53 5t43.5 16t29 28.5t10.5 43.5t-11 42.5t-30 27t-45.5 16.5t-56.5 12q-31 6 -63 14.5t-57.5 24.5t-41.5 42t-16 67q0 70 53.5 107t145.5 37q56 0 95 -11
t62 -24v-60q-25 16 -62.5 27.5t-93.5 11.5q-61 0 -97.5 -19t-36.5 -68q0 -24 9.5 -38t26 -23t39 -14.5t47.5 -10.5q33 -7 68 -15t64 -24.5t48 -45t19 -75.5q0 -44 -17.5 -73t-46 -46t-64.5 -24t-73 -7z" />
    <glyph glyph-name="uni0456" unicode="&#x456;" horiz-adv-x="219" 
d="M111 613q-23 0 -35.5 13.5t-12.5 32.5t12.5 33t35.5 14q21 0 33 -14t12 -33t-12 -32.5t-33 -13.5zM143 519v-519h-66v519h66z" />
    <glyph glyph-name="uni0457" unicode="&#x457;" horiz-adv-x="225" 
d="M42 613q-21 0 -33.5 13.5t-12.5 32.5q0 20 12.5 33.5t33.5 13.5q22 0 35 -13.5t13 -33.5q0 -19 -13 -32.5t-35 -13.5zM182 613q-21 0 -34 13.5t-13 32.5q0 20 13 33.5t34 13.5q22 0 34 -13.5t12 -33.5q0 -19 -12 -32.5t-34 -13.5zM143 519v-519h-66v519h66z" />
    <glyph glyph-name="uni0458" unicode="&#x458;" horiz-adv-x="226" 
d="M117 613q-22 0 -34.5 13.5t-12.5 32.5t12.5 33t34.5 14q21 0 33.5 -14t12.5 -33t-12.5 -32.5t-33.5 -13.5zM150 -58q0 -25 -7 -48.5t-22.5 -41.5t-40 -28.5t-58.5 -10.5q-23 0 -44.5 6t-38.5 15v64q12 -10 30.5 -18t43.5 -8q37 0 54 20t17 50v577h66v-577z" />
    <glyph glyph-name="uni0459" unicode="&#x459;" horiz-adv-x="800" 
d="M757 169q0 -44 -15.5 -76t-43 -52.5t-65.5 -30.5t-83 -10h-157v462h-197q-2 -117 -6.5 -204t-20.5 -146q-17 -60 -50 -88.5t-93 -24.5v67q31 -4 50 12.5t31 55.5q17 53 21 147.5t5 237.5h327v-190h98q93 0 146 -38t53 -122zM460 272v-215h90q62 0 101 25t39 83
q0 57 -35 82t-98 25h-97z" />
    <glyph glyph-name="uni045A" unicode="&#x45a;" horiz-adv-x="821" 
d="M778 162q0 -42 -15.5 -72.5t-43 -50.5t-66 -29.5t-83.5 -9.5h-156v258h-271v-258h-66v519h66v-204h271v204h66v-204h97q94 0 147.5 -36t53.5 -117zM480 258v-201h90q62 0 101.5 23.5t39.5 77.5q0 53 -35.5 76.5t-98.5 23.5h-97z" />
    <glyph glyph-name="uni045B" unicode="&#x45b;" horiz-adv-x="578" 
d="M319 470q-36 0 -63.5 -9.5t-48.5 -25.5t-36.5 -38t-27.5 -46v-351h-66v584h-85v50h85v83h66v-83h167v-50h-167v-69l-1 -101h2q10 23 26.5 44t40 36.5t54 25t69.5 9.5q79 0 125.5 -41.5t46.5 -123.5v-364h-66v358q0 62 -33 87t-88 25z" />
    <glyph glyph-name="uni045C" unicode="&#x45c;" horiz-adv-x="497" 
d="M201 232h-57v-232h-67v519h67v-230h61l187 230h77l-212 -256l216 -263h-81zM291 746h89l-125 -158h-58z" />
    <glyph glyph-name="uni045E" unicode="&#x45e;" horiz-adv-x="517" 
d="M302 6q-19 -47 -38 -82.5t-41.5 -60.5t-50.5 -37.5t-64 -12.5q-34 0 -56 9v63q21 -13 54 -13q40 0 65.5 26t50.5 80l-211 541h74l175 -452l178 452h65zM265 586q-74 0 -110 37.5t-36 91.5h67q0 -42 21 -60.5t58 -18.5t57 18.5t20 60.5h67q0 -54 -35.5 -91.5t-108.5 -37.5
z" />
    <glyph glyph-name="uni045F" unicode="&#x45f;" horiz-adv-x="570" 
d="M493 0h-175l-5 -148h-55l-5 148h-176v519h66v-462h284v462h66v-519z" />
    <glyph glyph-name="uni0490" unicode="&#x490;" horiz-adv-x="534" 
d="M88 717h330l10 168h64v-234h-77v1h-256v-652h-71v717z" />
    <glyph glyph-name="uni0491" unicode="&#x491;" horiz-adv-x="434" 
d="M77 519h256l9 148h57v-205h-256v-462h-66v519z" />
    <glyph glyph-name="uni0492" unicode="&#x492;" horiz-adv-x="564" 
d="M14 387h105v330h404v-65h-333v-265h202v-57h-202v-330h-71v330h-105v57z" />
    <glyph glyph-name="uni0493" unicode="&#x493;" horiz-adv-x="462" 
d="M18 288h87v231h322v-57h-256v-174h155v-50h-155v-238h-66v238h-87v50z" />
    <glyph glyph-name="uni049A" unicode="&#x49a;" horiz-adv-x="638" 
d="M255 323h-96v-323h-71v717h71v-330h94l261 330h80l-284 -356l245 -297h73v-234h-64l-9 170h-36z" />
    <glyph glyph-name="uni049B" unicode="&#x49b;" horiz-adv-x="504" 
d="M201 232h-57v-232h-67v519h67v-230h61l187 230h77l-212 -256l169 -206h69v-205h-57l-9 148h-37z" />
    <glyph glyph-name="uni04A2" unicode="&#x4a2;" horiz-adv-x="763" 
d="M565 323h-406v-323h-71v717h71v-330h406v330h72v-653h88v-234h-65l-9 170h-86v323z" />
    <glyph glyph-name="uni04A3" unicode="&#x4a3;" horiz-adv-x="592" 
d="M428 241h-285v-241h-66v519h66v-221h285v221h67v-462h76v-205h-56l-9 148h-78v241z" />
    <glyph glyph-name="uni04AE" unicode="&#x4ae;" horiz-adv-x="610" 
d="M342 312v-312h-72v310l-250 407h80l208 -345l209 345h73z" />
    <glyph glyph-name="uni04AF" unicode="&#x4af;" horiz-adv-x="502" 
d="M284 1v-178h-66v176l-206 520h71l171 -435l169 435h68z" />
    <glyph glyph-name="uni04B0" unicode="&#x4b0;" horiz-adv-x="610" 
d="M102 323h160l-242 394h80l208 -345l209 345h73l-242 -394h161v-57h-167v-266h-72v266h-168v57z" />
    <glyph glyph-name="uni04B1" unicode="&#x4b1;" horiz-adv-x="502" 
d="M76 0h141l-205 519h71l171 -435l169 435h68l-207 -518v-1h142v-54h-142v-123h-66v123h-142v54z" />
    <glyph glyph-name="uni04BA" unicode="&#x4ba;" horiz-adv-x="669" 
d="M88.0352 717h70.9961v-323.98q42.9971 28.998 89.4941 41.498q46.4971 12.499 99.4941 12.499q113.993 0 179.489 -60.4961q65.4961 -60.4971 65.4961 -191.488v-194.988h-71.9961v194.988q0 96.9941 -45.4971 143.991t-127.492 46.9971q-50.9971 0 -98.9941 -12
q-47.9971 -11.999 -89.9941 -42.9971v-330.979h-70.9961v716.956z" />
    <glyph glyph-name="uni04BB" unicode="&#x4bb;" horiz-adv-x="578" 
d="M319 470q-36 0 -63.5 -9.5t-48.5 -25.5t-36.5 -38t-27.5 -46v-351h-66v717h66v-202l-1 -101h2q10 23 26.5 44t40 36.5t54 25t69.5 9.5q79 0 125.5 -41.5t46.5 -123.5v-364h-66v358q0 62 -33 87t-88 25z" />
    <glyph glyph-name="uni04D8" unicode="&#x4d8;" horiz-adv-x="716" 
d="M669 358q0 -84 -22.5 -152t-64 -116t-101.5 -74t-135 -26q-153 0 -227 89.5t-74 271.5v36h547q-6 130 -71 202.5t-194 72.5q-78 0 -135 -20t-100 -51v68q15 12 35.5 24t49 21.5t66 15.5t85.5 6q84 0 147.5 -26t106.5 -74t65 -116t22 -152zM346 54q114 0 176 70.5
t70 198.5h-474q5 -142 59.5 -205.5t168.5 -63.5z" />
    <glyph glyph-name="uni04D9" unicode="&#x4d9;" horiz-adv-x="530" 
d="M49 475q9 8 25.5 17t39 17.5t51.5 14t64 5.5q126 0 194 -71t68 -199q0 -63 -18.5 -113t-51.5 -84.5t-77.5 -53t-95.5 -18.5q-53 0 -96 18t-71.5 53.5t-39.5 88.5t-1 123h384q-4 97 -55 147t-145 50q-60 0 -105.5 -18t-69.5 -37v60zM249 49q66 0 113.5 42t58.5 126h-320
q-3 -43 8 -74.5t31 -52.5t48 -31t61 -10z" />
    <glyph glyph-name="uni04E8" unicode="&#x4e8;" horiz-adv-x="770" 
d="M385 -10q-72 0 -134 25t-107 72t-71 116t-26 158q0 88 26 156.5t71 114.5t107 70t134 24q73 0 135 -24t107.5 -70.5t71 -114.5t25.5 -157q0 -88 -25.5 -156.5t-71 -116t-107.5 -72.5t-135 -25zM385 662q-54 0 -100 -16t-81 -49.5t-57 -84.5t-26 -120h529q-5 69 -26.5 120
t-57 84.5t-81.5 49.5t-100 16zM385 54q54 0 100.5 16.5t82 50t57 85t25.5 122.5h-529q4 -71 25.5 -122.5t56.5 -85t81.5 -50t100.5 -16.5z" />
    <glyph glyph-name="uni04E9" unicode="&#x4e9;" horiz-adv-x="574" 
d="M286 -10q-53 0 -98 18t-78 52.5t-52 85t-19 114.5t19 114t52 84.5t78 52.5t98 18t98.5 -18t79 -52.5t52.5 -84.5t19 -114t-19 -114.5t-52.5 -85t-79 -52.5t-98.5 -18zM286 470q-71 0 -120.5 -42.5t-59.5 -130.5h362q-5 43 -21 75.5t-40 54.5t-55 32.5t-66 10.5zM286 49
q37 0 69.5 12t56.5 36t39 59.5t18 83.5h-364q3 -48 17.5 -83.5t38.5 -59.5t56 -36t69 -12z" />
    <glyph glyph-name="uni058F" unicode="&#x58f;" horiz-adv-x="588" 
d="M209 317h186v96h-186v54h186v39q0 81 -38.5 120t-104.5 39q-61 0 -99 -40t-38 -121h-71q0 52 15.5 93.5t43 70t66.5 44t86 15.5t86 -15t66.5 -43t43 -68.5t15.5 -91.5v-42h88v-54h-88v-96h88v-54h-88v-263h-71v263h-186v54z" />
    <glyph glyph-name="baht" unicode="&#xe3f;" horiz-adv-x="636" 
d="M270 691v149h63v-150zM270 22h63v-153h-63v153zM88 717h239q113 0 173 -41t60 -134q0 -75 -38.5 -115t-103.5 -54q83 -11 124.5 -51t41.5 -118q0 -55 -20 -94t-55 -63.5t-83 -35.5t-104 -11h-234v717zM159 652v-251h157q77 0 125 32.5t48 105.5q0 63 -41.5 88t-120.5 25
h-168zM159 337v-273h163q42 0 77 7t59.5 23.5t38 43t13.5 64.5q0 72 -45.5 103.5t-142.5 31.5h-163z" />
    <glyph glyph-name="Wgrave" unicode="&#x1e80;" horiz-adv-x="971" 
d="M763 0h-102l-175 603l-176 -603h-102l-176 717h73l157 -652l193 652h68l190 -646l158 646h67zM461 773l-130 136h95l99 -136h-64z" />
    <glyph glyph-name="wgrave" unicode="&#x1e81;" horiz-adv-x="772" 
d="M612 0h-102l-124 434l-126 -434h-100l-128 519h70l113 -470l135 470h79l133 -466l113 466h66zM359 588l-125 158h89l94 -158h-58z" />
    <glyph glyph-name="Wacute" unicode="&#x1e82;" horiz-adv-x="971" 
d="M763 0h-102l-175 603l-176 -603h-102l-176 717h73l157 -652l193 652h68l190 -646l158 646h67zM555 909h95l-130 -136h-64z" />
    <glyph glyph-name="wacute" unicode="&#x1e83;" horiz-adv-x="772" 
d="M612 0h-102l-124 434l-126 -434h-100l-128 519h70l113 -470l135 470h79l133 -466l113 466h66zM447 746h89l-125 -158h-58z" />
    <glyph glyph-name="Wdieresis" unicode="&#x1e84;" horiz-adv-x="971" 
d="M763 0h-102l-175 603l-176 -603h-102l-176 717h73l157 -652l193 652h68l190 -646l158 646h67zM382 797q-21 0 -33.5 13t-12.5 32t12.5 32.5t33.5 13.5t33 -13.5t12 -32.5t-12 -32t-33 -13zM597 797q-22 0 -34.5 13t-12.5 32t12.5 32.5t34.5 13.5q21 0 33.5 -13.5
t12.5 -32.5t-12.5 -32t-33.5 -13z" />
    <glyph glyph-name="wdieresis" unicode="&#x1e85;" horiz-adv-x="772" 
d="M612 0h-102l-124 434l-126 -434h-100l-128 519h70l113 -470l135 470h79l133 -466l113 466h66zM289 613q-21 0 -33.5 13.5t-12.5 32.5t12.5 32.5t33.5 13.5t33.5 -13.5t12.5 -32.5t-12.5 -32.5t-33.5 -13.5zM491 613q-21 0 -33.5 13.5t-12.5 32.5t12.5 32.5t33.5 13.5
t33.5 -13.5t12.5 -32.5t-12.5 -32.5t-33.5 -13.5z" />
    <glyph glyph-name="Ygrave" unicode="&#x1ef2;" horiz-adv-x="610" 
d="M342 312v-312h-72v310l-250 407h80l208 -345l209 345h73zM290 773l-130 136h95l99 -136h-64z" />
    <glyph glyph-name="ygrave" unicode="&#x1ef3;" horiz-adv-x="513" 
d="M302 6q-19 -47 -38 -82.5t-41.5 -60.5t-50.5 -37.5t-64 -12.5q-34 0 -56 9v63q21 -13 54 -13q40 0 65.5 26t50.5 80l-211 541h74l175 -452l178 452h65l-201 -513v0zM238 588l-125 158h89l94 -158h-58z" />
    <glyph glyph-name="uni2000" unicode="&#x2000;" horiz-adv-x="593" 
 />
    <glyph glyph-name="uni2001" unicode="&#x2001;" horiz-adv-x="954" 
 />
    <glyph glyph-name="uni2002" unicode="&#x2002;" horiz-adv-x="593" 
 />
    <glyph glyph-name="uni2003" unicode="&#x2003;" horiz-adv-x="954" 
 />
    <glyph glyph-name="uni2004" unicode="&#x2004;" horiz-adv-x="318" 
 />
    <glyph glyph-name="uni2005" unicode="&#x2005;" horiz-adv-x="238" 
 />
    <glyph glyph-name="uni2006" unicode="&#x2006;" horiz-adv-x="159" 
 />
    <glyph glyph-name="uni2007" unicode="&#x2007;" horiz-adv-x="573" 
 />
    <glyph glyph-name="uni2008" unicode="&#x2008;" horiz-adv-x="265" 
 />
    <glyph glyph-name="uni2009" unicode="&#x2009;" horiz-adv-x="80" 
 />
    <glyph glyph-name="uni200A" unicode="&#x200a;" horiz-adv-x="96" 
 />
    <glyph glyph-name="uni200B" unicode="&#x200b;" horiz-adv-x="0" 
 />
    <glyph glyph-name="endash" unicode="&#x2013;" horiz-adv-x="570" 
d="M60 329h450v-57h-450v57z" />
    <glyph glyph-name="emdash" unicode="&#x2014;" horiz-adv-x="915" 
d="M60 329h820v-57h-820v57z" />
    <glyph glyph-name="quoteleft" unicode="&#x2018;" horiz-adv-x="236" 
d="M165 579q0 -21 -13 -35t-36 -14t-37.5 15t-14.5 44q0 18 5.5 36t13.5 34.5t18 31t19 24.5h51q-14 -17 -26 -38.5t-19 -50.5q18 -3 28.5 -16t10.5 -31z" />
    <glyph glyph-name="quoteright" unicode="&#x2019;" horiz-adv-x="236" 
d="M171 661q0 -18 -5.5 -35t-13.5 -34.5t-18 -32t-19 -24.5h-51q14 17 26 39.5t19 52.5q-18 4 -28.5 14.5t-10.5 29.5q0 20 13.5 34.5t36.5 14.5t37 -15t14 -44z" />
    <glyph glyph-name="quotesinglbase" unicode="&#x201a;" horiz-adv-x="236" 
d="M171 34q0 -18 -5.5 -36.5t-13.5 -35t-18 -31t-19 -24.5h-51q14 17 26 38.5t19 50.5q-18 3 -28.5 16t-10.5 31q0 21 13.5 35t36.5 14t37 -15t14 -43z" />
    <glyph glyph-name="quotedblleft" unicode="&#x201c;" horiz-adv-x="375" 
d="M305 584q0 -21 -13 -35t-36 -14t-37.5 15t-14.5 44q0 18 5.5 35.5t13.5 34t18 31t19 25.5h51q-14 -17 -26 -39t-19 -50q18 -3 28.5 -16t10.5 -31zM165 584q0 -21 -13 -35t-36 -14t-37.5 15t-14.5 44q0 18 5.5 35.5t13.5 34t18 31t19 25.5h51q-14 -17 -26 -39t-19 -50
q18 -3 28.5 -16t10.5 -31z" />
    <glyph glyph-name="quotedblright" unicode="&#x201d;" horiz-adv-x="380" 
d="M171 657q0 -18 -5.5 -36t-13.5 -35t-18 -31.5t-19 -24.5h-51q14 17 26 38.5t19 50.5q-18 3 -28.5 16t-10.5 32q0 20 13.5 34t36.5 14t37 -14.5t14 -43.5zM316 657q0 -18 -5.5 -36t-14 -35t-18.5 -31.5t-19 -24.5h-51q14 17 26.5 38.5t18.5 50.5q-18 3 -28.5 16t-10.5 32
q0 20 13.5 34t36.5 14t37.5 -14.5t14.5 -43.5z" />
    <glyph glyph-name="quotedblbase" unicode="&#x201e;" horiz-adv-x="380" 
d="M171 33q0 -17 -5.5 -35t-13.5 -35t-18 -31.5t-19 -24.5h-51q14 17 26 38.5t19 50.5q-18 4 -28.5 16.5t-10.5 31.5q0 20 13.5 34t36.5 14t37 -15t14 -44zM316 33q0 -17 -5.5 -35t-14 -35t-18.5 -31.5t-19 -24.5h-51q14 17 26.5 38.5t18.5 50.5q-18 4 -28.5 16.5
t-10.5 31.5q0 20 13.5 34t36.5 14t37.5 -15t14.5 -44z" />
    <glyph glyph-name="dagger" unicode="&#x2020;" horiz-adv-x="491" 
d="M277 434v-514h-64v514h-173v57h173v226h64v-226h172v-57h-172z" />
    <glyph glyph-name="daggerdbl" unicode="&#x2021;" horiz-adv-x="494" 
d="M277 146v-226h-64v226h-173v57h173v231h-173v57h173v226h64v-226h172v-57h-172v-231h172v-57h-172z" />
    <glyph glyph-name="bullet" unicode="&#x2022;" horiz-adv-x="240" 
d="M120 196q-39 0 -64 25t-25 63t25 63t64 25t64 -25t25 -63t-25 -63t-64 -25z" />
    <glyph glyph-name="ellipsis" unicode="&#x2026;" horiz-adv-x="686" 
d="M575 -5q-24 0 -39 15t-15 37q0 23 15 38t39 15q23 0 38 -15t15 -38q0 -22 -15 -37t-38 -15zM344 -5q-24 0 -39 15t-15 37q0 23 15 38t39 15q23 0 38 -15t15 -38q0 -22 -15 -37t-38 -15zM113 -5q-24 0 -39 15t-15 37q0 23 15 38t39 15q23 0 38 -15t15 -38q0 -22 -15 -37
t-38 -15z" />
    <glyph glyph-name="uni202F" unicode="&#x202f;" horiz-adv-x="67" 
 />
    <glyph glyph-name="perthousand" unicode="&#x2030;" horiz-adv-x="1000" 
d="M61 -10l476 736h61l-476 -736h-61zM294 544q0 -45 -11 -79t-30.5 -56.5t-45.5 -34t-55 -11.5t-54 10.5t-44 32.5t-30 55.5t-11 78.5t11 79t30 57t44 34.5t54 11.5t55 -11t45.5 -33t30.5 -55.5t11 -78.5zM72 542q0 -67 21 -98t59 -31q39 0 60.5 31t21.5 98q0 68 -21.5 99
t-60.5 31q-38 0 -59 -31t-21 -99zM646 175q0 -45 -11 -79t-30.5 -56.5t-45 -34t-54.5 -11.5t-54 11t-44 32.5t-30 55t-11 78.5t11 79t30 57t44 34.5t54 11.5t54.5 -11t45 -33t30.5 -55.5t11 -78.5zM988 175q0 -45 -11 -79t-30.5 -56.5t-45 -34t-54.5 -11.5t-54.5 11
t-44.5 32.5t-30 55t-11 78.5t11 79t30 57t44.5 34.5t54.5 11.5t54.5 -11t45 -33t30.5 -55.5t11 -78.5zM424 173q0 -67 21.5 -98t59.5 -31q39 0 60.5 31t21.5 98q0 68 -21.5 99t-60.5 31q-38 0 -59.5 -31t-21.5 -99zM766 173q0 -67 21 -98t60 -31t60 31t21 98q0 68 -21 99
t-60 31t-60 -31t-21 -99z" />
    <glyph glyph-name="uni2032" unicode="&#x2032;" horiz-adv-x="226" 
d="M94 717h79l-59 -211h-54z" />
    <glyph glyph-name="uni2033" unicode="&#x2033;" horiz-adv-x="376" 
d="M94 717h79l-59 -211h-54zM245 717h79l-59 -211h-54z" />
    <glyph glyph-name="guilsinglleft" unicode="&#x2039;" horiz-adv-x="298" 
d="M118 264l140 -195h-71l-140 195l140 195h71z" />
    <glyph glyph-name="guilsinglright" unicode="&#x203a;" horiz-adv-x="298" 
d="M112 69h-71l140 195l-140 195h71l139 -195z" />
    <glyph glyph-name="fraction" unicode="&#x2044;" horiz-adv-x="445" 
d="M-86 0l554 717h63l-553 -717h-64z" />
    <glyph glyph-name="uni205F" unicode="&#x205f;" horiz-adv-x="212" 
 />
    <glyph glyph-name="zero.sup" unicode="&#x2070;" horiz-adv-x="451" 
d="M226 319q-39 0 -73.5 14.5t-60 44t-40.5 73t-15 100.5t15 100.5t40.5 72.5t60 43.5t73.5 14.5t73.5 -14.5t60 -43t40 -72t14.5 -100.5t-14.5 -100.5t-40 -73t-60 -44.5t-73.5 -15zM226 368q26 0 49 10.5t40 32.5t26.5 56.5t9.5 83.5t-9.5 83.5t-26.5 56.5t-40 32t-49 10
t-49 -10t-40 -32t-27 -56.5t-10 -83.5t10 -83.5t27 -56.5t40 -32.5t49 -10.5z" />
    <glyph glyph-name="four.sup" unicode="&#x2074;" horiz-adv-x="396" 
d="M306 431v-106h-60v106h-223v45l216 300h67v-295h67v-50h-67zM246 481v226l-162 -226h162z" />
    <glyph glyph-name="five.sup" unicode="&#x2075;" horiz-adv-x="368" 
d="M330 473q0 -72 -44 -113t-118 -41q-83 0 -129 37v57q20 -18 49 -31t77 -13t75 28t27 74q0 48 -27.5 70t-69.5 22q-33 0 -51 -8t-27 -16h-42v237h255v-52h-201v-130q14 9 33.5 14.5t47.5 5.5q65 0 105 -36t40 -105z" />
    <glyph glyph-name="six.sup" unicode="&#x2076;" horiz-adv-x="399" 
d="M367 471q0 -35 -12.5 -63.5t-34.5 -48.5t-51 -31.5t-63 -11.5q-78 0 -124 50t-46 152q0 59 11.5 107.5t35.5 83t60.5 53.5t86.5 19q34 0 58 -6t43 -17v-51q-20 14 -45.5 20t-54.5 6q-35 0 -60 -12.5t-42 -35t-27 -53.5t-13 -68q21 32 52 48t66 16q34 0 63.5 -11t51 -31
t33.5 -49.5t12 -65.5zM207 367q41 0 70.5 27.5t29.5 76.5q0 51 -29 79.5t-71 28.5q-45 0 -75 -28.5t-30 -80.5q0 -46 28 -74.5t77 -28.5z" />
    <glyph glyph-name="seven.sup" unicode="&#x2077;" horiz-adv-x="354" 
d="M136 325h-65l187 399h-227v52h295v-40z" />
    <glyph glyph-name="eight.sup" unicode="&#x2078;" horiz-adv-x="381" 
d="M348 447q0 -30 -12 -54t-33 -40.5t-49.5 -25t-62.5 -8.5t-63 8.5t-50 25t-33 39.5t-12 53q0 46 26.5 76t71.5 42q-38 11 -60 37t-22 67q0 28 11 49.5t30 36t45 22t57 7.5q60 0 100.5 -28.5t40.5 -84.5q0 -42 -22 -68t-58 -37q44 -12 69.5 -41t25.5 -76zM192 586
q34 0 57.5 19.5t23.5 54.5t-23 54t-58 19t-58.5 -19t-23.5 -54t23.5 -54.5t58.5 -19.5zM191 368q42 0 68.5 23t26.5 64t-26.5 63t-67.5 22q-42 0 -69 -22t-27 -63t26.5 -64t68.5 -23z" />
    <glyph glyph-name="nine.sup" unicode="&#x2079;" horiz-adv-x="399" 
d="M362 583q0 -60 -12 -109t-36 -84.5t-61 -54.5t-88 -19q-35 0 -59 6t-44 17v51q20 -14 46.5 -20t55.5 -6q35 0 61 12.5t43 34.5t27 53t13 67q-20 -32 -50.5 -47.5t-65.5 -15.5q-34 0 -63.5 11t-51 31t-33.5 49.5t-12 65.5q0 35 12.5 64t34 49.5t51 31.5t63.5 11
q78 0 123.5 -49t45.5 -149zM192 730q-41 0 -71 -27.5t-30 -77.5q0 -51 29.5 -79.5t71.5 -28.5q45 0 75 29t30 80q0 47 -28 75.5t-77 28.5z" />
    <glyph glyph-name="plus.sup" unicode="&#x207a;" horiz-adv-x="385" 
d="M220 546v-128h-56v128h-122v50h122v127h56v-127h123v-50h-123z" />
    <glyph glyph-name="minus.sup" unicode="&#x207b;" horiz-adv-x="385" 
d="M42 552v50h301v-50h-301z" />
    <glyph glyph-name="zero.sub" unicode="&#x2080;" horiz-adv-x="451" 
d="M226 -96q-39 0 -73.5 14.5t-60 44t-40.5 73t-15 100.5t15 100.5t40.5 72.5t60 43.5t73.5 14.5t73.5 -14.5t60 -43t40 -72t14.5 -100.5t-14.5 -100.5t-40 -73t-60 -44.5t-73.5 -15zM226 -47q26 0 49 10.5t40 32.5t26.5 56.5t9.5 83.5t-9.5 83.5t-26.5 56.5t-40 32t-49 10
t-49 -10t-40 -32t-27 -56.5t-10 -83.5t10 -83.5t27 -56.5t40 -32.5t49 -10.5z" />
    <glyph glyph-name="one.sub" unicode="&#x2081;" horiz-adv-x="279" 
d="M205 -90h-62v381l-101 -91v62l110 99h53v-451z" />
    <glyph glyph-name="two.sub" unicode="&#x2082;" horiz-adv-x="369" 
d="M332 -90h-298v60q64 49 108 86t71 67t38.5 56t11.5 52q0 38 -22.5 62t-66.5 24q-40 0 -71.5 -14t-55.5 -36v52q23 20 55 34t82 14q66 0 103.5 -36.5t37.5 -99.5q0 -31 -13 -60.5t-40.5 -61.5t-70 -68t-102.5 -79h233v-52z" />
    <glyph glyph-name="three.sub" unicode="&#x2083;" horiz-adv-x="363" 
d="M322 36q0 -60 -43 -96t-121 -36q-44 0 -77 12.5t-53 26.5v55q19 -16 51 -30t79 -14q52 0 76 23t24 62q0 38 -24.5 60t-72.5 22h-60v51h63q36 0 57.5 19.5t21.5 54.5q0 32 -19.5 52t-63.5 20q-38 0 -69 -11.5t-54 -30.5v55q23 16 54 26t72 10q68 0 104.5 -32.5t36.5 -84.5
q0 -45 -23 -69.5t-54 -31.5q38 -8 66.5 -35.5t28.5 -77.5z" />
    <glyph glyph-name="four.sub" unicode="&#x2084;" horiz-adv-x="396" 
d="M306 16v-106h-60v106h-223v45l216 300h67v-295h67v-50h-67zM246 66v226l-162 -226h162z" />
    <glyph glyph-name="five.sub" unicode="&#x2085;" horiz-adv-x="368" 
d="M330 58q0 -72 -44 -113t-118 -41q-83 0 -129 37v57q20 -18 49 -31t77 -13t75 28t27 74q0 48 -27.5 70t-69.5 22q-33 0 -51 -8t-27 -16h-42v237h255v-52h-201v-130q14 9 33.5 14.5t47.5 5.5q65 0 105 -36t40 -105z" />
    <glyph glyph-name="six.sub" unicode="&#x2086;" horiz-adv-x="399" 
d="M367 56q0 -35 -12.5 -63.5t-34.5 -48.5t-51 -31.5t-63 -11.5q-78 0 -124 50t-46 152q0 59 11.5 107.5t35.5 83t60.5 53.5t86.5 19q34 0 58 -6t43 -17v-51q-20 14 -45.5 20t-54.5 6q-35 0 -60 -12.5t-42 -35t-27 -53.5t-13 -68q21 32 52 48t66 16q34 0 63.5 -11t51 -31
t33.5 -49.5t12 -65.5zM207 -48q41 0 70.5 27.5t29.5 76.5q0 51 -29 79.5t-71 28.5q-45 0 -75 -28.5t-30 -80.5q0 -46 28 -74.5t77 -28.5z" />
    <glyph glyph-name="seven.sub" unicode="&#x2087;" horiz-adv-x="354" 
d="M136 -90h-65l187 399h-227v52h295v-40z" />
    <glyph glyph-name="eight.sub" unicode="&#x2088;" horiz-adv-x="381" 
d="M348 32q0 -30 -12 -54t-33 -40.5t-49.5 -25t-62.5 -8.5t-63 8.5t-50 25t-33 39.5t-12 53q0 46 26.5 76t71.5 42q-38 11 -60 37t-22 67q0 28 11 49.5t30 36t45 22t57 7.5q60 0 100.5 -28.5t40.5 -84.5q0 -42 -22 -68t-58 -37q44 -12 69.5 -41t25.5 -76zM192 171
q34 0 57.5 19.5t23.5 54.5t-23 54t-58 19t-58.5 -19t-23.5 -54t23.5 -54.5t58.5 -19.5zM191 -47q42 0 68.5 23t26.5 64t-26.5 63t-67.5 22q-42 0 -69 -22t-27 -63t26.5 -64t68.5 -23z" />
    <glyph glyph-name="nine.sub" unicode="&#x2089;" horiz-adv-x="399" 
d="M362 168q0 -60 -12 -109t-36 -84.5t-61 -54.5t-88 -19q-35 0 -59 6t-44 17v51q20 -14 46.5 -20t55.5 -6q35 0 61 12.5t43 34.5t27 53t13 67q-20 -32 -50.5 -47.5t-65.5 -15.5q-34 0 -63.5 11t-51 31t-33.5 49.5t-12 65.5q0 35 12.5 64t34 49.5t51 31.5t63.5 11
q78 0 123.5 -49t45.5 -149zM192 315q-41 0 -71 -27.5t-30 -77.5q0 -51 29.5 -79.5t71.5 -28.5q45 0 75 29t30 80q0 47 -28 75.5t-77 28.5z" />
    <glyph glyph-name="plus.sub" unicode="&#x208a;" horiz-adv-x="385" 
d="M220 131v-128h-56v128h-122v50h122v127h56v-127h123v-50h-123z" />
    <glyph glyph-name="minus.sub" unicode="&#x208b;" horiz-adv-x="385" 
d="M42 137v50h301v-50h-301z" />
    <glyph glyph-name="colonsign" unicode="&#x20a1;" horiz-adv-x="654" 
d="M622 788h61l-328 -876h-61zM464 788h61l-328 -876h-61zM393 -10q-80 0 -144 25t-109 72.5t-69 116t-24 154.5q0 87 23 155t67 115.5t108 72.5t147 25q76 0 130.5 -18t88.5 -42v-68q-42 30 -101 47t-119 17q-134 0 -201 -77.5t-67 -226.5t70.5 -226.5t204.5 -77.5
q59 0 114 18t99 53v-70q-30 -25 -85 -45t-133 -20z" />
    <glyph glyph-name="uni20A2" unicode="&#x20a2;" horiz-adv-x="669" 
d="M605 318q-58 -5 -101 -33.5t-65 -86.5v-175h-63v353h55l6 -117h3q18 46 57.5 82.5t107.5 43.5v-67v0zM393 -10q-80 0 -144 25t-109 72.5t-69 116t-24 154.5q0 87 23 155t67 115.5t108 72.5t147 25q76 0 130.5 -18t88.5 -42v-68q-42 30 -101 47t-119 17q-134 0 -201 -77.5
t-67 -226.5t70.5 -226.5t204.5 -77.5q59 0 114 18t99 53v-70q-30 -25 -85 -45t-133 -20z" />
    <glyph glyph-name="franc" unicode="&#x20a3;" horiz-adv-x="570" 
d="M-1 191h89v526h435v-65h-364v-261h311v-64h-311v-136h187v-54h-187v-137h-71v137h-89v54z" />
    <glyph glyph-name="lira" unicode="&#x20a4;" horiz-adv-x="578" 
d="M58 293h100q-6 25 -14 48.5t-16 47.5h-70v54h55q-9 34 -9 73q0 95 60 152.5t179 57.5q62 0 99.5 -14.5t60.5 -31.5v-62q-26 20 -68 33.5t-94 13.5q-48 0 -80 -12t-51.5 -33t-27.5 -49t-8 -60q0 -34 8 -68h227v-54h-211q8 -23 15.5 -46.5t12.5 -49.5h183v-54h-179
q-1 -52 -17.5 -94t-58.5 -85h381v-60h-469v40q52 42 76 84.5t24 98.5v16h-108v54z" />
    <glyph glyph-name="mill" unicode="&#x20a5;" horiz-adv-x="862" 
d="M401 321v42q0 60 -27 83.5t-75 23.5q-33 0 -56.5 -9.5t-41.5 -26t-32 -38t-26 -46.5v-350h-66v519h59l6 -105h2q10 22 24.5 43t35.5 37t48.5 25.5t63.5 9.5q107 0 139 -90l99 217h60l-68 -150q38 23 94 23q72 0 111.5 -41.5t39.5 -123.5v-364h-67v357q0 60 -26.5 86.5
t-74.5 26.5t-77.5 -21t-50.5 -53l-28 -62v-334h-66v190l-128 -280h-60z" />
    <glyph glyph-name="uni20A6" unicode="&#x20a6;" horiz-adv-x="736" 
d="M21 305h80v96h-80v54h80v262h97l153 -262h217v262h67v-262h80v-54h-80v-96h80v-54h-80v-251h-98l-147 251h-222v-251h-67v251h-80v54zM270 455l-102 175v-175h102zM358 305l-56 96h-134v-96h190zM568 305v96h-185l56 -96h129zM568 85v166h-97z" />
    <glyph glyph-name="uni20A7" unicode="&#x20a7;" horiz-adv-x="1393" 
d="M106 717h227q115 0 179 -49t64 -153q0 -59 -18 -101t-51 -69t-80 -39.5t-104 -12.5h-146v-293h-71v717zM177 652v-295h146q85 0 133 36t48 121q0 72 -43 105t-128 33h-156zM905 7q-14 -8 -35.5 -12.5t-46.5 -4.5q-35 0 -60 10t-40.5 27.5t-23 40t-7.5 47.5v347h-67v57h67
v109h66v-109h151v-57h-151v-338q0 -36 18 -55.5t63 -19.5q37 0 66 18v-60v0zM1151 -10q-40 0 -71 6.5t-54 15.5t-38.5 19t-24.5 18v60q10 -9 26.5 -19.5t40 -20.5t53.5 -16.5t67 -6.5q28 0 53 5t43.5 16t29 28.5t10.5 43.5t-11 42.5t-30 27t-45.5 16.5t-56.5 12
q-31 6 -63 14.5t-57.5 24.5t-41.5 42t-16 67q0 70 53.5 107t145.5 37q56 0 95 -11t62 -24v-60q-25 16 -62.5 27.5t-93.5 11.5q-61 0 -97.5 -19t-36.5 -68q0 -24 9.5 -38t26 -23t39 -14.5t47.5 -10.5q33 -7 68 -15t64 -24.5t48 -45t19 -75.5q0 -44 -17.5 -73t-46 -46
t-64.5 -24t-73 -7z" />
    <glyph glyph-name="uni20A8" unicode="&#x20a8;" horiz-adv-x="1074" 
d="M833 -10q-40 0 -71 6.5t-54 15.5t-38.5 19t-24.5 18v60q10 -9 26.5 -19.5t40 -20.5t53.5 -16.5t67 -6.5q28 0 53 5t43.5 16t29 28.5t10.5 43.5t-11 42.5t-30 27t-45.5 16.5t-56.5 12q-31 6 -63 14.5t-57.5 24.5t-41.5 42t-16 67q0 70 53.5 107t145.5 37q56 0 95 -11
t62 -24v-60q-25 16 -62.5 27.5t-93.5 11.5q-61 0 -97.5 -19t-36.5 -68q0 -24 9.5 -38t26 -23t39 -14.5t47.5 -10.5q33 -7 68 -15t64 -24.5t48 -45t19 -75.5q0 -44 -17.5 -73t-46 -46t-64.5 -24t-73 -7zM88 717h237q119 0 182 -48t63 -151q0 -94 -47 -143t-125 -64l199 -311
h-81l-194 304h-163v-304h-71v717zM159 652v-284h153q42 0 76 8t58 26t37.5 46.5t13.5 70.5q0 71 -43.5 102t-128.5 31h-166z" />
    <glyph glyph-name="uni20A9" unicode="&#x20a9;" horiz-adv-x="903" 
d="M26 288h111l-20 96h-91v54h79l-59 279h71l58 -279h173l74 279h67l73 -279h171l58 279h66l-59 -279h79v-54h-91l-20 -96h111v-54h-122l-50 -234h-99l-60 234h-187l-61 -234h-100l-50 234h-122v54zM495 438l-42 167l-43 -167h85zM309 288l25 96h-148l20 -96h103zM532 288
l-25 96h-109l-25 -96h159zM701 288l20 96h-145l25 -96h100zM252 61l44 173h-80zM657 67l34 167h-77z" />
    <glyph glyph-name="uni20AA" unicode="&#x20aa;" horiz-adv-x="852" 
d="M491 161v355q0 79 -32.5 111.5t-98.5 32.5h-200v-660h-71v717h290q97 0 140 -45t43 -145v-366h-71zM361 556v-354q0 -80 32.5 -112t98.5 -32h200v659h72v-717h-290q-97 0 -140.5 45t-43.5 145v366h71z" />
    <glyph glyph-name="dong" unicode="&#x20ab;" horiz-adv-x="606" 
d="M66 -93h463v-54h-463v54zM465 114q-25 -57 -72.5 -90.5t-116.5 -33.5q-49 0 -92 17t-75.5 51t-51 84.5t-18.5 117.5t19 117t51 84t75.5 51t92.5 17q65 0 112.5 -29t73.5 -83v167h-173v50h173v83h66v-83h79v-50h-79v-584h-59zM284 49q38 0 71 13.5t57 40t38 66t14 91.5
t-14 91.5t-38 66t-57 39.5t-71 13q-39 0 -71.5 -13.5t-56 -40t-37 -66t-13.5 -90.5q0 -52 13.5 -91.5t37 -66t56 -40t71.5 -13.5z" />
    <glyph glyph-name="Euro" unicode="&#x20ac;" 
d="M542 37q-23 -16 -63.5 -31.5t-100.5 -15.5q-124 0 -197 70.5t-93 198.5h-79v54h73q-1 11 -1 22.5v22.5q0 14 0.5 26.5t1.5 24.5h-74v54h81q22 125 97 194t196 69q56 0 93 -13t66 -31v-62q-35 21 -73 33t-87 12q-97 0 -152 -50.5t-73 -151.5h227v-54h-233
q-1 -12 -1.5 -24.5t-0.5 -26.5v-23t1 -22h234v-54h-228q15 -104 69 -156.5t154 -52.5q54 0 95.5 16t67.5 34v-63v0z" />
    <glyph glyph-name="uni20AD" unicode="&#x20ad;" horiz-adv-x="636" 
d="M10 383h86v334h71v-334h90l265 334h80l-266 -334h154v-54h-145l271 -329h-88l-270 329h-91v-329h-71v329h-86v54z" />
    <glyph glyph-name="uni20AE" unicode="&#x20ae;" horiz-adv-x="588" 
d="M114 287l361 190v-58l-361 -190v58zM114 131l361 190v-58l-361 -190v58zM330 651v-651h-72v651h-235v66h542v-66h-235z" />
    <glyph glyph-name="uni20B1" unicode="&#x20b1;" horiz-adv-x="649" 
d="M10 444h86v77h-86v53h86v143h227q92 0 152 -35t80 -108h84v-53h-74q1 -7 1 -14v-15q0 -26 -3 -48h76v-53h-87q-25 -75 -87 -109t-152 -34h-146v-248h-71v391h-86v53zM167 652v-78h312q-37 78 -156 78h-156zM494 491q0 8 -0.5 15.5t-1.5 14.5h-325v-77h324q3 21 3 47z
M313 312q59 0 100 18.5t61 60.5h-307v-79h146z" />
    <glyph glyph-name="guarani" unicode="&#x20b2;" horiz-adv-x="743" 
d="M351 691v149h63v-150zM351 22h63v-153h-63v153zM690 279q0 -63 -19.5 -116t-57.5 -91.5t-94.5 -60t-131.5 -21.5q-74 0 -136.5 25.5t-107.5 73.5t-70.5 116t-25.5 153t24.5 153t71 116t113.5 73.5t152 25.5q45 0 81 -6t64.5 -15.5t50 -21t37.5 -23.5v-68q-45 30 -101 50
t-133 20q-141 0 -212.5 -79t-71.5 -225q0 -72 19 -128.5t54 -95.5t83.5 -59.5t107.5 -20.5q58 0 101.5 16t72 45t43 69.5t14.5 88.5v30h-252v64h324v-88v0z" />
    <glyph glyph-name="austral" unicode="&#x20b3;" horiz-adv-x="685" 
d="M95 189h-79v54h99l36 96h-135v54h155l120 324h102l122 -324h154v-54h-134l36 -96h98v-54h-78l71 -189h-75l-71 189h-354l-70 -189h-67zM440 393l-102 271l-100 -271h202zM496 243l-36 96h-242l-36 -96h314z" />
    <glyph glyph-name="uni20B4" unicode="&#x20b4;" 
d="M487 50q-9 -9 -26 -19.5t-42.5 -19.5t-58.5 -15t-74 -6t-80.5 9t-70 30.5t-49 57.5t-18.5 91q0 51 20 88h-61v53h105q31 26 68 41.5t72 28.5q16 6 30.5 12t28.5 14h-304v54h367q23 32 23 77q0 63 -36.5 91.5t-102.5 28.5q-57 0 -102.5 -11.5t-71.5 -28.5v61
q23 12 63.5 25.5t107.5 13.5q98 0 153 -43.5t55 -128.5q0 -47 -19 -85h61v-54h-103q-28 -24 -61.5 -40.5t-67.5 -28.5q-35 -14 -63 -27h295v-53h-365q-14 -17 -20.5 -38t-6.5 -48q0 -36 12 -61t32.5 -40t48.5 -22t60 -7q36 0 67.5 6.5t58 16t45.5 20t30 18.5v-61v0z" />
    <glyph glyph-name="cedi" unicode="&#x20b5;" horiz-adv-x="669" 
d="M350 691v149h63v-150zM350 22h63v-153h-63v153zM393 -10q-80 0 -144 25t-109 72.5t-69 116t-24 154.5q0 87 23 155t67 115.5t108 72.5t147 25q76 0 130.5 -18t88.5 -42v-68q-42 30 -101 47t-119 17q-134 0 -201 -77.5t-67 -226.5t70.5 -226.5t204.5 -77.5q59 0 114 18
t99 53v-70q-30 -25 -85 -45t-133 -20z" />
    <glyph glyph-name="uni20B8" unicode="&#x20b8;" 
d="M39 717h474v-56h-474v56zM312 499v-499h-72v499h-201v66h474v-66h-201z" />
    <glyph glyph-name="uni20B9" unicode="&#x20b9;" horiz-adv-x="621" 
d="M220 368q73 0 121.5 26t60.5 88h-326v54h328q-5 62 -49 89t-123 27h-156v65h503v-54h-174q66 -42 72 -127h102v-54h-103q-10 -81 -61.5 -122t-129.5 -52l223 -308h-81l-218 304h-133v64h144v0z" />
    <glyph glyph-name="uni20BA" unicode="&#x20ba;" horiz-adv-x="609" 
d="M10 173l112 59v98l-112 -59v58l112 59v329h72v-291l177 93v-58l-177 -93v-98l177 93v-58l-177 -93v-149h44q73 0 122.5 17t78.5 51t41.5 84t12.5 115h73q0 -75 -16 -136t-54.5 -104t-101 -66.5t-155.5 -23.5h-117v174l-112 -59v58z" />
    <glyph glyph-name="manat" unicode="&#x20bc;" horiz-adv-x="811" 
d="M374 110v554q-59 -4 -101 -24t-69 -53t-40 -79t-13 -102v-406h-72v420q0 65 20 119t57.5 94t92.5 64t125 29v111h63v-111q70 -5 124.5 -29t92 -64t57.5 -94.5t20 -118.5v-420h-71v406q0 56 -13 102t-40 79t-69.5 53t-100.5 24v-554h-63z" />
    <glyph glyph-name="uni20BD" unicode="&#x20bd;" 
d="M118 387v330h172q109 0 169 -47t60 -143q0 -51 -17 -87.5t-48 -60.5t-75 -35t-99 -11h-92v-99h227v-54h-227v-180h-70v180h-88v54h88v99h-88v54h88zM188 656v-269h92q84 0 126 33.5t42 106.5q0 66 -38 97.5t-120 31.5h-102z" />
    <glyph glyph-name="uni20BE" unicode="&#x20be;" horiz-adv-x="711" 
d="M256 385v256q-64 -28 -101.5 -93.5t-37.5 -173.5q0 -158 79 -235t224 -77h201v-62h-575v62h144q-72 44 -109 125.5t-37 185.5q0 67 15.5 122.5t43 98t66.5 72t87 44.5v111h59v-98q13 2 26 3t27 1q10 0 19.5 -0.5t18.5 -1.5v96h59v-110q89 -30 144 -114.5t60 -211.5h-74
q-3 97 -37.5 162t-92.5 94v-256h-59v275q-18 3 -38 3q-14 0 -27 -1t-26 -3v-274h-59z" />
    <glyph glyph-name="uni2116" unicode="&#x2116;" horiz-adv-x="1089" 
d="M1057 546q0 -40 -13.5 -73t-37.5 -56.5t-56.5 -36.5t-69.5 -13t-69 13t-55.5 36.5t-37 56t-13.5 72.5t13.5 73t37 56.5t55.5 36.5t69 13t69.5 -12.5t56.5 -36t37.5 -56.5t13.5 -73zM622 0h-94l-373 631v-631h-67v717h93l374 -632v632h67v-717zM764 546q0 -59 31 -93.5
t85 -34.5t85.5 34.5t31.5 93.5q0 58 -31.5 93t-85.5 35t-85 -35t-31 -93z" />
    <glyph glyph-name="trademark" unicode="&#x2122;" horiz-adv-x="872" 
d="M766 654l-121 -271h-63l-120 275v-336h-54v395h91l118 -275l121 275h84v-395h-56v332zM206 665v-343h-55v343h-131v52h316v-52h-130z" />
    <glyph glyph-name="onethird" unicode="&#x2153;" horiz-adv-x="950" 
d="M122 0l554 717h63l-553 -717h-64zM893 126q0 -60 -43 -96t-121 -36q-44 0 -77 12.5t-53 26.5v55q19 -16 51 -30t79 -14q52 0 76 23t24 62q0 38 -24.5 60t-72.5 22h-60v51h63q36 0 57.5 19.5t21.5 54.5q0 32 -19.5 52t-63.5 20q-38 0 -69 -11.5t-54 -30.5v55q23 16 54 26
t72 10q68 0 104.5 -32.5t36.5 -84.5q0 -45 -23 -69.5t-54 -31.5q38 -8 66.5 -35.5t28.5 -77.5zM215 265h-62v381l-101 -91v62l110 99h53v-451z" />
    <glyph glyph-name="twothirds" unicode="&#x2154;" horiz-adv-x="1052" 
d="M342 265h-298v60q64 49 108 86t71 67t38.5 56t11.5 52q0 38 -22.5 62t-66.5 24q-40 0 -71.5 -14t-55.5 -36v52q23 20 55 34t82 14q66 0 103.5 -36.5t37.5 -99.5q0 -31 -13 -60.5t-40.5 -61.5t-70 -68t-102.5 -79h233v-52zM225 0l554 717h63l-553 -717h-64zM996 127
q0 -60 -43 -96t-121 -36q-44 0 -77 12.5t-53 26.5v55q19 -16 51 -30t79 -14q52 0 76 23t24 62q0 38 -24.5 60t-72.5 22h-60v51h63q36 0 57.5 19.5t21.5 54.5q0 32 -19.5 52t-63.5 20q-38 0 -69 -11.5t-54 -30.5v55q23 16 54 26t72 10q68 0 104.5 -32.5t36.5 -84.5
q0 -45 -23 -69.5t-54 -31.5q38 -8 66.5 -35.5t28.5 -77.5z" />
    <glyph glyph-name="oneeighth" unicode="&#x215b;" horiz-adv-x="941" 
d="M122 0l554 717h63l-553 -717h-64zM898 122q0 -30 -12 -54t-33 -40.5t-49.5 -25t-62.5 -8.5t-63 8.5t-50 25t-33 39.5t-12 53q0 46 26.5 76t71.5 42q-38 11 -60 37t-22 67q0 28 11 49.5t30 36t45 22t57 7.5q60 0 100.5 -28.5t40.5 -84.5q0 -42 -22 -68t-58 -37
q44 -12 69.5 -41t25.5 -76zM742 261q34 0 57.5 19.5t23.5 54.5t-23 54t-58 19t-58.5 -19t-23.5 -54t23.5 -54.5t58.5 -19.5zM741 43q42 0 68.5 23t26.5 64t-26.5 63t-67.5 22q-42 0 -69 -22t-27 -63t26.5 -64t68.5 -23zM215 265h-62v381l-101 -91v62l110 99h53v-451z" />
    <glyph glyph-name="threeeighths" unicode="&#x215c;" horiz-adv-x="1003" 
d="M184 0l554 717h63l-553 -717h-64zM960 122q0 -30 -12 -54t-33 -40.5t-49.5 -25t-62.5 -8.5t-63 8.5t-50 25t-33 39.5t-12 53q0 46 26.5 76t71.5 42q-38 11 -60 37t-22 67q0 28 11 49.5t30 36t45 22t57 7.5q60 0 100.5 -28.5t40.5 -84.5q0 -42 -22 -68t-58 -37
q44 -12 69.5 -41t25.5 -76zM804 261q34 0 57.5 19.5t23.5 54.5t-23 54t-58 19t-58.5 -19t-23.5 -54t23.5 -54.5t58.5 -19.5zM803 43q42 0 68.5 23t26.5 64t-26.5 63t-67.5 22q-42 0 -69 -22t-27 -63t26.5 -64t68.5 -23zM332 391q0 -60 -43 -96t-121 -36q-44 0 -77 12.5
t-53 26.5v55q19 -16 51 -30t79 -14q52 0 76 23t24 62q0 38 -24.5 60t-72.5 22h-60v51h63q36 0 57.5 19.5t21.5 54.5q0 32 -19.5 52t-63.5 20q-38 0 -69 -11.5t-54 -30.5v55q23 16 54 26t72 10q68 0 104.5 -32.5t36.5 -84.5q0 -45 -23 -69.5t-54 -31.5q38 -8 66.5 -35.5
t28.5 -77.5z" />
    <glyph glyph-name="fiveeighths" unicode="&#x215d;" horiz-adv-x="1000" 
d="M340 413q0 -72 -44 -113t-118 -41q-83 0 -129 37v57q20 -18 49 -31t77 -13t75 28t27 74q0 48 -27.5 70t-69.5 22q-33 0 -51 -8t-27 -16h-42v237h255v-52h-201v-130q14 9 33.5 14.5t47.5 5.5q65 0 105 -36t40 -105zM181 0l554 717h63l-553 -717h-64zM957 122
q0 -30 -12 -54t-33 -40.5t-49.5 -25t-62.5 -8.5t-63 8.5t-50 25t-33 39.5t-12 53q0 46 26.5 76t71.5 42q-38 11 -60 37t-22 67q0 28 11 49.5t30 36t45 22t57 7.5q60 0 100.5 -28.5t40.5 -84.5q0 -42 -22 -68t-58 -37q44 -12 69.5 -41t25.5 -76zM801 261q34 0 57.5 19.5
t23.5 54.5t-23 54t-58 19t-58.5 -19t-23.5 -54t23.5 -54.5t58.5 -19.5zM800 43q42 0 68.5 23t26.5 64t-26.5 63t-67.5 22q-42 0 -69 -22t-27 -63t26.5 -64t68.5 -23z" />
    <glyph glyph-name="seveneighths" unicode="&#x215e;" horiz-adv-x="893" 
d="M146 265h-65l187 399h-227v52h295v-40zM74 0l554 717h63l-553 -717h-64zM850 122q0 -30 -12 -54t-33 -40.5t-49.5 -25t-62.5 -8.5t-63 8.5t-50 25t-33 39.5t-12 53q0 46 26.5 76t71.5 42q-38 11 -60 37t-22 67q0 28 11 49.5t30 36t45 22t57 7.5q60 0 100.5 -28.5
t40.5 -84.5q0 -42 -22 -68t-58 -37q44 -12 69.5 -41t25.5 -76zM694 261q34 0 57.5 19.5t23.5 54.5t-23 54t-58 19t-58.5 -19t-23.5 -54t23.5 -54.5t58.5 -19.5zM693 43q42 0 68.5 23t26.5 64t-26.5 63t-67.5 22q-42 0 -69 -22t-27 -63t26.5 -64t68.5 -23z" />
    <glyph glyph-name="minus" unicode="&#x2212;" 
d="M44 310v54h462v-54h-462z" />
    <glyph glyph-name="approxequal" unicode="&#x2248;" 
d="M15 358q1 30 9.5 58.5t26.5 51t45 36.5t66 14q42 0 71.5 -15.5t54 -33.5t47.5 -33.5t51 -15.5q37 0 59.5 24.5t30.5 79.5h56q-1 -30 -10 -59t-26.5 -51.5t-44.5 -36t-65 -13.5q-42 0 -72 15.5t-54.5 33.5t-47.5 33.5t-50 15.5q-37 0 -60 -24.5t-31 -79.5h-56zM15 148
q1 30 9.5 58.5t26.5 51t45 36.5t66 14q42 0 71.5 -15.5t54 -33.5t47.5 -33.5t51 -15.5q37 0 59.5 24.5t30.5 79.5h56q-1 -30 -10 -59t-26.5 -51.5t-44.5 -36t-65 -13.5q-42 0 -72 15.5t-54.5 33.5t-47.5 33.5t-50 15.5q-37 0 -60 -24.5t-31 -79.5h-56z" />
    <glyph glyph-name="notequal" unicode="&#x2260;" 
d="M254 211l-58 -139h-62l58 139h-149v54h171l60 144h-231v54h253l58 139h62l-58 -139h148v-54h-170l-60 -144h230v-54h-252z" />
    <glyph glyph-name="lessequal" unicode="&#x2264;" 
d="M72 307v73l406 185v-61l-350 -161l350 -160v-61zM72 0v54h406v-54h-406z" />
    <glyph glyph-name="greaterequal" unicode="&#x2265;" 
d="M72 183l351 160l-351 161v61l406 -185v-73l-406 -185v61zM72 54h406v-54h-406v54z" />
    <glyph glyph-name="uni24C5" unicode="&#x24c5;" horiz-adv-x="902" 
d="M451 -96q-87 0 -162 30.5t-130.5 85.5t-87 131t-31.5 166q0 89 31.5 164t87 129.5t130.5 85t162 30.5t162.5 -30.5t130.5 -85t86.5 -129.5t31.5 -164q0 -90 -31.5 -166t-86.5 -131t-130.5 -85.5t-162.5 -30.5zM451 -34q76 0 139.5 26t109 73t70.5 111t25 141
q0 75 -25 139t-70.5 110.5t-109 72.5t-139.5 26t-139.5 -26t-109 -72.5t-70.5 -110.5t-25 -139q0 -77 25 -141t70.5 -111t109 -73t139.5 -26zM318 524h145q79 0 121.5 -32t42.5 -97q0 -30 -9 -56.5t-29 -45.5t-51 -30t-76 -11h-66v-145h-78v417zM396 454v-132h65
q39 0 61.5 16t22.5 53q0 34 -21 48.5t-61 14.5h-67z" />
    <glyph glyph-name="zero.den" unicode="&#xe402;" horiz-adv-x="451" 
d="M226 -6q-39 0 -73.5 14.5t-60 44t-40.5 73t-15 100.5t15 100.5t40.5 72.5t60 43.5t73.5 14.5t73.5 -14.5t60 -43t40 -72t14.5 -100.5t-14.5 -100.5t-40 -73t-60 -44.5t-73.5 -15zM226 43q26 0 49 10.5t40 32.5t26.5 56.5t9.5 83.5t-9.5 83.5t-26.5 56.5t-40 32t-49 10
t-49 -10t-40 -32t-27 -56.5t-10 -83.5t10 -83.5t27 -56.5t40 -32.5t49 -10.5z" />
    <glyph glyph-name="one.den" unicode="&#xe403;" horiz-adv-x="279" 
d="M205 0h-62v381l-101 -91v62l110 99h53v-451z" />
    <glyph glyph-name="two.den" unicode="&#xe404;" horiz-adv-x="369" 
d="M332 0h-298v60q64 49 108 86t71 67t38.5 56t11.5 52q0 38 -22.5 62t-66.5 24q-40 0 -71.5 -14t-55.5 -36v52q23 20 55 34t82 14q66 0 103.5 -36.5t37.5 -99.5q0 -31 -13 -60.5t-40.5 -61.5t-70 -68t-102.5 -79h233v-52z" />
    <glyph glyph-name="three.den" unicode="&#xe405;" horiz-adv-x="363" 
d="M322 126q0 -60 -43 -96t-121 -36q-44 0 -77 12.5t-53 26.5v55q19 -16 51 -30t79 -14q52 0 76 23t24 62q0 38 -24.5 60t-72.5 22h-60v51h63q36 0 57.5 19.5t21.5 54.5q0 32 -19.5 52t-63.5 20q-38 0 -69 -11.5t-54 -30.5v55q23 16 54 26t72 10q68 0 104.5 -32.5
t36.5 -84.5q0 -45 -23 -69.5t-54 -31.5q38 -8 66.5 -35.5t28.5 -77.5z" />
    <glyph glyph-name="four.den" unicode="&#xe406;" horiz-adv-x="403" 
d="M306 106v-106h-60v106h-223v45l216 300h67v-295h67v-50h-67zM246 156v226l-162 -226h162z" />
    <glyph glyph-name="five.den" unicode="&#xe407;" horiz-adv-x="368" 
d="M330 148q0 -72 -44 -113t-118 -41q-83 0 -129 37v57q20 -18 49 -31t77 -13t75 28t27 74q0 48 -27.5 70t-69.5 22q-33 0 -51 -8t-27 -16h-42v237h255v-52h-201v-130q14 9 33.5 14.5t47.5 5.5q65 0 105 -36t40 -105z" />
    <glyph glyph-name="six.den" unicode="&#xe408;" horiz-adv-x="399" 
d="M367 146q0 -35 -12.5 -63.5t-34.5 -48.5t-51 -31.5t-63 -11.5q-78 0 -124 50t-46 152q0 59 11.5 107.5t35.5 83t60.5 53.5t86.5 19q34 0 58 -6t43 -17v-51q-20 14 -45.5 20t-54.5 6q-35 0 -60 -12.5t-42 -35t-27 -53.5t-13 -68q21 32 52 48t66 16q34 0 63.5 -11t51 -31
t33.5 -49.5t12 -65.5zM207 42q41 0 70.5 27.5t29.5 76.5q0 51 -29 79.5t-71 28.5q-45 0 -75 -28.5t-30 -80.5q0 -46 28 -74.5t77 -28.5z" />
    <glyph glyph-name="seven.den" unicode="&#xe409;" horiz-adv-x="354" 
d="M136 0h-65l187 399h-227v52h295v-40z" />
    <glyph glyph-name="eight.den" unicode="&#xe40a;" horiz-adv-x="381" 
d="M348 122q0 -30 -12 -54t-33 -40.5t-49.5 -25t-62.5 -8.5t-63 8.5t-50 25t-33 39.5t-12 53q0 46 26.5 76t71.5 42q-38 11 -60 37t-22 67q0 28 11 49.5t30 36t45 22t57 7.5q60 0 100.5 -28.5t40.5 -84.5q0 -42 -22 -68t-58 -37q44 -12 69.5 -41t25.5 -76zM192 261
q34 0 57.5 19.5t23.5 54.5t-23 54t-58 19t-58.5 -19t-23.5 -54t23.5 -54.5t58.5 -19.5zM191 43q42 0 68.5 23t26.5 64t-26.5 63t-67.5 22q-42 0 -69 -22t-27 -63t26.5 -64t68.5 -23z" />
    <glyph glyph-name="nine.den" unicode="&#xe40b;" horiz-adv-x="399" 
d="M362 258q0 -60 -12 -109t-36 -84.5t-61 -54.5t-88 -19q-35 0 -59 6t-44 17v51q20 -14 46.5 -20t55.5 -6q35 0 61 12.5t43 34.5t27 53t13 67q-20 -32 -50.5 -47.5t-65.5 -15.5q-34 0 -63.5 11t-51 31t-33.5 49.5t-12 65.5q0 35 12.5 64t34 49.5t51 31.5t63.5 11
q78 0 123.5 -49t45.5 -149zM192 405q-41 0 -71 -27.5t-30 -77.5q0 -51 29.5 -79.5t71.5 -28.5q45 0 75 29t30 80q0 47 -28 75.5t-77 28.5z" />
    <glyph glyph-name="zero.num" unicode="&#xe416;" horiz-adv-x="451" 
d="M226 259q-39 0 -73.5 14.5t-60 44t-40.5 73t-15 100.5t15 100.5t40.5 72.5t60 43.5t73.5 14.5t73.5 -14.5t60 -43t40 -72t14.5 -100.5t-14.5 -100.5t-40 -73t-60 -44.5t-73.5 -15zM226 308q26 0 49 10.5t40 32.5t26.5 56.5t9.5 83.5t-9.5 83.5t-26.5 56.5t-40 32t-49 10
t-49 -10t-40 -32t-27 -56.5t-10 -83.5t10 -83.5t27 -56.5t40 -32.5t49 -10.5z" />
    <glyph glyph-name="one.num" unicode="&#xe417;" horiz-adv-x="279" 
d="M205 265h-62v381l-101 -91v62l110 99h53v-451z" />
    <glyph glyph-name="two.num" unicode="&#xe418;" horiz-adv-x="369" 
d="M332 265h-298v60q64 49 108 86t71 67t38.5 56t11.5 52q0 38 -22.5 62t-66.5 24q-40 0 -71.5 -14t-55.5 -36v52q23 20 55 34t82 14q66 0 103.5 -36.5t37.5 -99.5q0 -31 -13 -60.5t-40.5 -61.5t-70 -68t-102.5 -79h233v-52z" />
    <glyph glyph-name="three.num" unicode="&#xe419;" horiz-adv-x="363" 
d="M322 391q0 -60 -43 -96t-121 -36q-44 0 -77 12.5t-53 26.5v55q19 -16 51 -30t79 -14q52 0 76 23t24 62q0 38 -24.5 60t-72.5 22h-60v51h63q36 0 57.5 19.5t21.5 54.5q0 32 -19.5 52t-63.5 20q-38 0 -69 -11.5t-54 -30.5v55q23 16 54 26t72 10q68 0 104.5 -32.5
t36.5 -84.5q0 -45 -23 -69.5t-54 -31.5q38 -8 66.5 -35.5t28.5 -77.5z" />
    <glyph glyph-name="four.num" unicode="&#xe41a;" horiz-adv-x="396" 
d="M306 371v-106h-60v106h-223v45l216 300h67v-295h67v-50h-67zM246 421v226l-162 -226h162z" />
    <glyph glyph-name="five.num" unicode="&#xe41b;" horiz-adv-x="368" 
d="M330 413q0 -72 -44 -113t-118 -41q-83 0 -129 37v57q20 -18 49 -31t77 -13t75 28t27 74q0 48 -27.5 70t-69.5 22q-33 0 -51 -8t-27 -16h-42v237h255v-52h-201v-130q14 9 33.5 14.5t47.5 5.5q65 0 105 -36t40 -105z" />
    <glyph glyph-name="six.num" unicode="&#xe41c;" horiz-adv-x="399" 
d="M367 411q0 -35 -12.5 -63.5t-34.5 -48.5t-51 -31.5t-63 -11.5q-78 0 -124 50t-46 152q0 59 11.5 107.5t35.5 83t60.5 53.5t86.5 19q34 0 58 -6t43 -17v-51q-20 14 -45.5 20t-54.5 6q-35 0 -60 -12.5t-42 -35t-27 -53.5t-13 -68q21 32 52 48t66 16q34 0 63.5 -11t51 -31
t33.5 -49.5t12 -65.5zM207 307q41 0 70.5 27.5t29.5 76.5q0 51 -29 79.5t-71 28.5q-45 0 -75 -28.5t-30 -80.5q0 -46 28 -74.5t77 -28.5z" />
    <glyph glyph-name="seven.num" unicode="&#xe41d;" horiz-adv-x="354" 
d="M136 265h-65l187 399h-227v52h295v-40z" />
    <glyph glyph-name="eight.num" unicode="&#xe41e;" horiz-adv-x="381" 
d="M348 387q0 -30 -12 -54t-33 -40.5t-49.5 -25t-62.5 -8.5t-63 8.5t-50 25t-33 39.5t-12 53q0 46 26.5 76t71.5 42q-38 11 -60 37t-22 67q0 28 11 49.5t30 36t45 22t57 7.5q60 0 100.5 -28.5t40.5 -84.5q0 -42 -22 -68t-58 -37q44 -12 69.5 -41t25.5 -76zM192 526
q34 0 57.5 19.5t23.5 54.5t-23 54t-58 19t-58.5 -19t-23.5 -54t23.5 -54.5t58.5 -19.5zM191 308q42 0 68.5 23t26.5 64t-26.5 63t-67.5 22q-42 0 -69 -22t-27 -63t26.5 -64t68.5 -23z" />
    <glyph glyph-name="nine.num" unicode="&#xe41f;" horiz-adv-x="399" 
d="M362 523q0 -60 -12 -109t-36 -84.5t-61 -54.5t-88 -19q-35 0 -59 6t-44 17v51q20 -14 46.5 -20t55.5 -6q35 0 61 12.5t43 34.5t27 53t13 67q-20 -32 -50.5 -47.5t-65.5 -15.5q-34 0 -63.5 11t-51 31t-33.5 49.5t-12 65.5q0 35 12.5 64t34 49.5t51 31.5t63.5 11
q78 0 123.5 -49t45.5 -149zM192 670q-41 0 -71 -27.5t-30 -77.5q0 -51 29.5 -79.5t71.5 -28.5q45 0 75 29t30 80q0 47 -28 75.5t-77 28.5z" />
    <glyph glyph-name="commaaccent" unicode="&#xf6c3;" horiz-adv-x="451" 
d="M277 -105q0 -19 -5.5 -36t-14.5 -32t-19 -27t-19 -22h-49q16 17 28 37t23 47q-19 3 -28 15t-9 28q0 19 12.5 31.5t32.5 12.5t34 -13t14 -41z" />
    <glyph glyph-name="f_f" unicode="&#xfb00;" horiz-adv-x="667" 
d="M492 462v-462h-66v462h-250v-462h-66v462h-67v57h67v16q0 91 45 138.5t126 47.5q32 0 59 -9v-59q-9 4 -25 6.5t-31 2.5q-52 0 -80 -30.5t-28 -96.5v-16h250v16q0 91 45 141t126 50q15 0 30 -1.5t29 -6.5v-60q-9 4 -25 6.5t-31 2.5q-52 0 -80 -33t-28 -99v-16h153v-57
h-153z" />
    <glyph glyph-name="fi" unicode="&#xfb01;" horiz-adv-x="570" 
d="M176 462v-462h-66v462h-67v57h67v16q0 91 45 141t126 50q15 0 30 -1.5t29 -6.5v-60q-9 4 -25 6.5t-31 2.5q-52 0 -80 -33t-28 -99v-16h153v-57h-153zM461 613q-23 0 -35.5 13.5t-12.5 32.5t12.5 33t35.5 14q21 0 33 -14t12 -33t-12 -32.5t-33 -13.5zM493 519v-519h-66
v519h66z" />
    <glyph glyph-name="fl" unicode="&#xfb02;" horiz-adv-x="570" 
d="M176 462v-462h-66v462h-67v57h67v16q0 91 45 141t126 50q15 0 30 -1.5t29 -6.5v-60q-9 4 -25 6.5t-31 2.5q-52 0 -80 -33t-28 -99v-16h153v-57h-153zM493 717v-717h-66v717h66z" />
    <glyph glyph-name="uniFEFF" unicode="&#xfeff;" horiz-adv-x="0" 
 />
    <glyph glyph-name="idotaccent" horiz-adv-x="231" 
d="M111 613q-23 0 -35.5 13.5t-12.5 32.5t12.5 33t35.5 14q21 0 33 -14t12 -33t-12 -32.5t-33 -13.5zM143 519v-519h-66v519h66z" />
    <glyph glyph-name="space_uni0326" horiz-adv-x="451" 
d="M277 -105q0 -19 -5.5 -36t-14.5 -32t-19 -27t-19 -22h-49q16 17 28 37t23 47q-19 3 -28 15t-9 28q0 19 12.5 31.5t32.5 12.5t34 -13t14 -41z" />
    <glyph glyph-name="one.sup" horiz-adv-x="279" 
d="M205 325h-62v381l-101 -91v62l110 99h53v-451z" />
    <glyph glyph-name="two.sup" horiz-adv-x="369" 
d="M332 325h-298v60q64 49 108 86t71 67t38.5 56t11.5 52q0 38 -22.5 62t-66.5 24q-40 0 -71.5 -14t-55.5 -36v52q23 20 55 34t82 14q66 0 103.5 -36.5t37.5 -99.5q0 -31 -13 -60.5t-40.5 -61.5t-70 -68t-102.5 -79h233v-52z" />
    <glyph glyph-name="three.sup" horiz-adv-x="363" 
d="M322 451q0 -60 -43 -96t-121 -36q-44 0 -77 12.5t-53 26.5v55q19 -16 51 -30t79 -14q52 0 76 23t24 62q0 38 -24.5 60t-72.5 22h-60v51h63q36 0 57.5 19.5t21.5 54.5q0 32 -19.5 52t-63.5 20q-38 0 -69 -11.5t-54 -30.5v55q23 16 54 26t72 10q68 0 104.5 -32.5
t36.5 -84.5q0 -45 -23 -69.5t-54 -31.5q38 -8 66.5 -35.5t28.5 -77.5z" />
    <glyph glyph-name="I.alt" horiz-adv-x="403" 
d="M66 717h271v-64h-100v-589h100v-64h-271v64h100v589h-100v64z" />
    <glyph glyph-name="i.alt" horiz-adv-x="242" 
d="M133 613q-22 0 -34.5 13.5t-12.5 32.5t12.5 33t34.5 14q21 0 33.5 -14t12.5 -33t-12.5 -32.5t-33.5 -13.5zM9 519h157v-519h-66v472h-91v47z" />
    <glyph glyph-name="j.alt" horiz-adv-x="246" 
d="M136 613q-22 0 -34.5 13.5t-12.5 32.5t12.5 33t34.5 14q21 0 33.5 -14t12.5 -33t-12.5 -32.5t-33.5 -13.5zM10 519h159v-584q0 -23 -7 -44.5t-22 -39t-39.5 -28t-58.5 -10.5q-23 0 -45 6t-39 15v64q12 -10 30.5 -18t43.5 -8q37 0 54 20t17 50v530h-93v47z" />
    <glyph glyph-name="l.alt" horiz-adv-x="227" 
d="M-7 717h157v-717h-66v669h-91v48z" />
    <glyph glyph-name="dotlessi.alt" horiz-adv-x="242" 
d="M9 519h157v-519h-66v472h-91v47z" />
    <glyph glyph-name="dotlessj.alt" horiz-adv-x="246" 
d="M10 519h159v-584q0 -23 -7 -44.5t-22 -39t-39.5 -28t-58.5 -10.5q-23 0 -45 6t-39 15v64q12 -10 30.5 -18t43.5 -8q37 0 54 20t17 50v530h-93v47z" />
    <glyph glyph-name="Iacute.alt" horiz-adv-x="403" 
d="M66 717h271v-64h-100v-589h100v-64h-271v64h100v589h-100v64zM257 909h95l-130 -136h-64z" />
    <glyph glyph-name="Ibreve.alt" horiz-adv-x="403" 
d="M66 717h271v-64h-100v-589h100v-64h-271v64h100v589h-100v64zM206 763q-39 0 -68 11.5t-48.5 31.5t-29 47t-9.5 58h66q0 -49 24 -72.5t65 -23.5t64.5 23.5t23.5 72.5h66q0 -31 -9.5 -58t-29 -47t-48 -31.5t-67.5 -11.5z" />
    <glyph glyph-name="Icircumflex.alt" horiz-adv-x="403" 
d="M66 717h271v-64h-100v-589h100v-64h-271v64h100v589h-100v64zM206 862l-92 -99h-58l111 148h78l111 -148h-58z" />
    <glyph glyph-name="Idieresis.alt" horiz-adv-x="403" 
d="M66 717h271v-64h-100v-589h100v-64h-271v64h100v589h-100v64zM98 797q-21 0 -33.5 13t-12.5 32t12.5 32.5t33.5 13.5t33 -13.5t12 -32.5t-12 -32t-33 -13zM313 797q-22 0 -34.5 13t-12.5 32t12.5 32.5t34.5 13.5q21 0 33.5 -13.5t12.5 -32.5t-12.5 -32t-33.5 -13z" />
    <glyph glyph-name="Idotaccent.alt" horiz-adv-x="403" 
d="M66 717h271v-64h-100v-589h100v-64h-271v64h100v589h-100v64zM204 797q-21 0 -33.5 13t-12.5 32t12.5 32.5t33.5 13.5t33.5 -13.5t12.5 -32.5t-12.5 -32t-33.5 -13z" />
    <glyph glyph-name="Igrave.alt" horiz-adv-x="403" 
d="M66 717h271v-64h-100v-589h100v-64h-271v64h100v589h-100v64zM181 773l-130 136h95l99 -136h-64z" />
    <glyph glyph-name="Imacron.alt" horiz-adv-x="403" 
d="M66 717h271v-64h-100v-589h100v-64h-271v64h100v589h-100v64zM51 870h308v-54h-308v54z" />
    <glyph glyph-name="Iogonek.alt" horiz-adv-x="403" 
d="M66 717h271v-64h-100v-589h100v-64h-271v64h100v589h-100v64zM235 -192q-51 0 -81.5 24t-30.5 66q0 41 25 66t56 36h58q-31 -10 -55.5 -31.5t-24.5 -56.5q0 -26 16.5 -40.5t48.5 -14.5q25 0 47 8v-46q-8 -5 -23.5 -8t-35.5 -3z" />
    <glyph glyph-name="Itilde.alt" horiz-adv-x="403" 
d="M66 717h271v-64h-100v-589h100v-64h-271v64h100v589h-100v64zM36 789q-5 23 -2 45.5t14 40t29.5 28t45.5 10.5t49 -10t40.5 -22t36 -22t35.5 -10q47 0 39 67h49q4 -23 1.5 -45.5t-13 -40t-29 -28t-45.5 -10.5t-49 10t-41 21.5t-36.5 21.5t-35.5 10q-22 0 -32.5 -16.5
t-5.5 -49.5h-50v0z" />
    <glyph glyph-name="iacute.alt" horiz-adv-x="242" 
d="M9 519h157v-519h-66v472h-91v47zM176 746h89l-125 -158h-58z" />
    <glyph glyph-name="ibreve.alt" horiz-adv-x="242" 
d="M9 519h157v-519h-66v472h-91v47zM122 584q-37 0 -65 11t-46.5 30t-28 44t-9.5 54h67q0 -45 22 -66.5t60 -21.5t59.5 21.5t21.5 66.5h67q0 -29 -9 -54t-27.5 -44t-46.5 -30t-65 -11z" />
    <glyph glyph-name="icircumflex.alt" horiz-adv-x="242" 
d="M9 519h157v-519h-66v472h-91v47zM117 687l-92 -99h-58l111 148h78l111 -148h-58z" />
    <glyph glyph-name="idieresis.alt" horiz-adv-x="242" 
d="M9 519h157v-519h-66v472h-91v47zM25 613q-21 0 -33.5 13.5t-12.5 32.5t12.5 32.5t33.5 13.5t33.5 -13.5t12.5 -32.5t-12.5 -32.5t-33.5 -13.5zM227 613q-21 0 -33.5 13.5t-12.5 32.5t12.5 32.5t33.5 13.5t33.5 -13.5t12.5 -32.5t-12.5 -32.5t-33.5 -13.5z" />
    <glyph glyph-name="igrave.alt" horiz-adv-x="242" 
d="M9 519h157v-519h-66v472h-91v47zM94 588l-125 158h89l94 -158h-58z" />
    <glyph glyph-name="imacron.alt" horiz-adv-x="242" 
d="M9 519h157v-519h-66v472h-91v47zM-30 679h288v-54h-288v54z" />
    <glyph glyph-name="iogonek.alt" horiz-adv-x="242" 
d="M9 519h157v-519q-31 -10 -55.5 -31.5t-24.5 -56.5q0 -26 16.5 -40.5t48.5 -14.5q25 0 47 8v-46q-8 -5 -23 -8t-36 -3q-51 0 -81.5 24.5t-30.5 72.5q0 42 25 69q21 23 48 34v464h-91v47zM133 613q-22 0 -34.5 13.5t-12.5 32.5t12.5 33t34.5 14q21 0 33.5 -14t12.5 -33
t-12.5 -32.5t-33.5 -13.5z" />
    <glyph glyph-name="itilde.alt" horiz-adv-x="242" 
d="M9 519h157v-519h-66v472h-91v47zM-46 601q-4 21 -1.5 42t13 37t28 26t43.5 10q25 0 45 -8.5t37.5 -19t33 -19t32.5 -8.5q44 0 36 59h49q4 -22 1.5 -42.5t-13 -37t-28.5 -26.5t-43 -10t-45 8.5t-37.5 19t-33.5 19t-32 8.5q-20 0 -30 -14.5t-5 -43.5h-50v0z" />
    <glyph glyph-name="jcircumflex.alt" horiz-adv-x="246" 
d="M10 519h159v-584q0 -23 -7 -44.5t-22 -39t-39.5 -28t-58.5 -10.5q-23 0 -45 6t-39 15v64q12 -10 30.5 -18t43.5 -8q37 0 54 20t17 50v530h-93v47zM113 687l-92 -99h-58l111 148h78l111 -148h-58z" />
    <glyph glyph-name="lacute.alt" horiz-adv-x="227" 
d="M-7 717h157v-717h-66v669h-91v48zM177 909h95l-130 -136h-64z" />
    <glyph glyph-name="lcaron.alt" horiz-adv-x="227" 
d="M230 528l24 189h79l-55 -189h-48zM-7 717h157v-717h-66v669h-91v48z" />
    <glyph glyph-name="lcommaaccent.alt" horiz-adv-x="227" 
d="M-7 717h157v-717h-66v669h-91v48zM165 -105q0 -19 -5.5 -36t-14.5 -32t-19 -27t-19 -22h-49q16 17 28 37t23 47q-19 3 -28 15t-9 28q0 19 12.5 31.5t32.5 12.5t34 -13t14 -41z" />
    <glyph glyph-name="space_uni0326.alt" horiz-adv-x="451" 
d="M266 643q0 -19 -12.5 -32t-32.5 -13t-34 14t-14 40q0 19 5.5 36.5t14 32t18.5 27t19 22.5h50q-16 -16 -28 -36.5t-23 -47.5q18 -3 27.5 -15t9.5 -28z" />
    <glyph glyph-name="one.alt" 
d="M502 0h-434v55h187v576l-187 -155v75l199 166h56v-662h179v-55z" />
    <glyph glyph-name="registered.alt" horiz-adv-x="634" 
d="M317 172q-59 0 -109.5 20.5t-88 57.5t-58.5 88t-21 113q0 60 21 110.5t58.5 87t88 57t109.5 20.5t110 -20.5t88 -57t58 -87t21 -110.5q0 -62 -21 -113t-58 -88t-88 -57.5t-110 -20.5zM317 213q52 0 95 18t73.5 49.5t47 75t16.5 95.5q0 51 -16.5 93.5t-47 74t-73.5 49
t-95 17.5q-51 0 -94 -17.5t-73.5 -48.5t-47.5 -74t-17 -94q0 -52 17 -96t47.5 -75.5t73.5 -49t94 -17.5zM225 585h95q48 0 74.5 -19t26.5 -60q0 -33 -17 -52t-44 -27l70 -113h-50l-65 107h-45v-107h-45v271zM270 547v-89h44q28 0 44.5 10.5t16.5 36.5q0 23 -14 32.5t-41 9.5
h-50z" />
    <glyph glyph-name="caron.alt" horiz-adv-x="500" 
d="M206 528l24 189h79l-55 -189h-48z" />
    <glyph glyph-name="questiondown.uc" horiz-adv-x="474" 
d="M57.0264 191.032q0 53.9971 17.999 89.9941q17.999 35.998 45.4971 60.4961q27.499 24.499 58.9971 42.498t58.9961 36.498q27.498 18.498 45.4971 41.4971q17.999 22.998 17.999 57.9961v17.999h56.9961v-16.999q0 -47.9971 -17.498 -78.9951
q-17.499 -30.998 -43.498 -52.9971q-25.998 -21.998 -56.4961 -38.4971t-56.4971 -37.498q-25.998 -20.998 -43.4971 -48.9971q-17.499 -27.998 -17.499 -72.9951q0 -26.998 7 -51.9971q6.99902 -24.998 24.498 -44.9971t47.9971 -31.998t78.4951 -11.999
q51.9971 0 88.9951 11.999q36.9971 11.999 59.9961 25.998v-58.9961q-26.998 -14.999 -63.9961 -26.498q-36.998 -11.5 -90.9941 -11.5q-55.9971 0 -97.4941 14.999q-41.498 15 -68.4961 41.998t-39.9971 63.4961q-13 36.498 -13 79.4951zM328.01 722
q22.999 0 37.498 -14.999t14.499 -35.998q0 -21.999 -14.499 -36.998t-37.498 -14.999q-22.998 0 -37.4971 14.999t-14.499 36.998q0 20.999 14.499 35.998t37.4971 14.999z" />
    <glyph glyph-name="exclamdown.uc" horiz-adv-x="265" 
d="M167 6.04297l-6 531.968h-54l-7 -531.968h67zM133 722q-23 0 -37.5 -14.999t-14.5 -35.998q0 -21.999 14.5 -36.998t37.5 -14.999t37 14.999t14 36.998q0 20.999 -14 35.998t-37 14.999z" />
    <glyph glyph-name="hyphen.uc" horiz-adv-x="360" 
d="M60 384h240v-62h-240v62z" />
    <glyph glyph-name="endash.uc" horiz-adv-x="570" 
d="M60 380h450v-57h-450v57z" />
    <glyph glyph-name="emdash.uc" horiz-adv-x="900" 
d="M60 380h820v-57h-820v57z" />
    <glyph glyph-name="guilsinglleft.uc" horiz-adv-x="298" 
d="M119 324l139 -195h-71l-140 195l140 195h71z" />
    <glyph glyph-name="guilsinglright.uc" horiz-adv-x="298" 
d="M112 129h-71l139 195l-139 195h71l139 -195z" />
    <glyph glyph-name="guillemotleft.uc" horiz-adv-x="502" 
d="M323 324l139 -195h-71l-140 195l140 195h71zM119 324l139 -195h-71l-140 195l140 195h71z" />
    <glyph glyph-name="guillemotright.uc" horiz-adv-x="502" 
d="M316 129h-71l139 195l-139 195h71l139 -195zM112 129h-71l139 195l-139 195h71l139 -195z" />
    <glyph glyph-name="parenleft.uc" horiz-adv-x="334" 
d="M231 -79q-75 83 -113 190.5t-38 225.5q0 59 9.5 118t28.5 113t47 102t66 86h67q-38 -37 -67 -84.5t-48.5 -101.5t-29 -112.5t-9.5 -117.5q0 -118 38.5 -226t115.5 -193h-67z" />
    <glyph glyph-name="parenright.uc" horiz-adv-x="334" 
d="M103.014 -79q74.9961 83 112.993 190.5q37.998 107.5 37.998 225.5q0 59 -9.49902 118q-9.5 59 -28.499 113q-18.998 54 -46.9971 102q-27.998 48 -65.9961 86h-66.9951q37.9971 -37 66.9951 -84.5q28.999 -47.5 48.4971 -101.5q19.499 -54 28.999 -112.5
q9.49902 -58.5 9.49902 -117.5q0 -118 -38.498 -226q-38.4971 -108 -115.492 -193h66.9951z" />
    <glyph glyph-name="bracketleft.uc" horiz-adv-x="391" 
d="M100 756h257v-57h-193v-721h193v-57h-257v835z" />
    <glyph glyph-name="bracketright.uc" horiz-adv-x="391" 
d="M291.006 756h-256.984v-57h192.988v-721h-192.988v-57h256.984v835z" />
    <glyph glyph-name="braceleft.uc" horiz-adv-x="411" 
d="M362 -75q-17 -3 -31 -4t-28 -1q-77 0 -112.5 37.5t-35.5 100.5q0 21 4 38.5t8.5 35t8.5 36t4 40.5q0 19 -4.5 36.5t-16.5 31t-33.5 22.5t-55.5 12v57q35 3 56.5 12t33.5 22.5t16 30.5t4 37q0 22 -4 40.5t-8.5 36t-8.5 35.5t-4 38q0 62 35.5 100t112.5 38q14 0 28 -1.5
t31 -3.5v-54q-14 2 -26.5 3.5t-23.5 1.5q-51 0 -70.5 -23.5t-19.5 -62.5q0 -20 3.5 -37.5t7 -34t7 -34.5t3.5 -39q0 -20 -4 -39t-15 -36t-30 -32t-50 -26q31 -12 50 -26.5t30 -31.5t15 -36t4 -39q0 -21 -3.5 -39t-7 -35t-7 -34.5t-3.5 -37.5q0 -39 19.5 -63t71.5 -24
q11 0 23 1.5t26 3.5v-53z" />
    <glyph glyph-name="braceright.uc" horiz-adv-x="411" 
d="M49.0225 -75q16.999 -3 30.998 -4t27.998 -1q76.9951 0 112.493 37.5t35.498 100.5q0 21 -4 38.5t-8.5 35q-4.49902 17.5 -8.49902 36t-4 40.5q0 19 4.5 36.5t16.499 31t33.498 22.5q21.498 9 55.4961 12v57q-34.9971 3 -56.4961 12t-33.498 22.5t-15.999 30.5t-4 37
q0 22 4 40.5t8.49902 36q4.5 17.5 8.5 35.5t4 38q0 62 -35.498 100t-112.493 38q-13.999 0 -27.998 -1.5t-30.998 -3.5v-54q13.999 2 26.498 3.5t23.499 1.5q50.9961 0 70.4951 -23.5t19.499 -62.5q0 -20 -3.5 -37.5t-6.99902 -34q-3.5 -16.5 -7 -34.5t-3.5 -39q0 -20 4 -39
t14.999 -36t29.998 -32t49.9971 -26q-30.998 -12 -49.9971 -26.5t-29.998 -31.5t-14.999 -36t-4 -39q0 -21 3.5 -39t7 -35q3.49902 -17 6.99902 -34.5t3.5 -37.5q0 -39 -19.499 -63t-71.4951 -24q-11 0 -22.999 1.5t-25.998 3.5v-53z" />
    <glyph glyph-name="slash.uc" horiz-adv-x="350" 
d="M0 -40l288 796h62l-288 -796h-62z" />
    <glyph glyph-name="backslash.uc" horiz-adv-x="350" 
d="M0 756h62l288 -796h-62z" />
    <glyph glyph-name="bar.uc" horiz-adv-x="264" 
d="M164 756v-796h-64v796h64z" />
    <glyph glyph-name="at.uc" horiz-adv-x="972" 
d="M704 -56q-14 -6 -36 -12.5t-50.5 -12.5t-62 -9.5t-69.5 -3.5q-92 0 -172.5 25.5t-140 75.5t-94 124t-34.5 171q0 98 34.5 180t96 140.5t146 91t184.5 32.5q87 0 163.5 -24.5t133.5 -71t90 -112.5t33 -150q0 -55 -14.5 -103t-42 -83.5t-66.5 -56t-88 -20.5q-59 0 -90 28.5
t-39 69.5q-24 -48 -64 -73t-88 -25q-30 0 -58.5 10t-50.5 32t-35.5 57t-13.5 84q0 45 14.5 86t40.5 72.5t62.5 50.5t81.5 19q51 0 84.5 -26t46.5 -80l28 81h44l-38 -214q-3 -20 -2 -41t10 -38t26 -28.5t46 -11.5q30 0 56.5 13.5t46.5 39t31.5 63.5t11.5 86q0 73 -28.5 131.5
t-78 98.5t-115.5 61.5t-141 21.5q-84 0 -157 -27t-126 -77.5t-83.5 -121.5t-30.5 -158t29 -152t80.5 -109t121.5 -66t152 -22q77 0 133.5 13.5t81.5 26.5v-56zM339 300q0 -35 9 -59t24 -38t34.5 -20t39.5 -6q34 0 60.5 15t44 40t26.5 58t9 69q0 67 -30.5 95.5t-74.5 28.5
q-35 0 -61.5 -15.5t-44.5 -41t-27 -58.5t-9 -68z" />
    <glyph glyph-name="grave.uc" horiz-adv-x="451" 
d="M225 773l-130 136h95l99 -136h-64z" />
    <glyph glyph-name="dieresis.uc" horiz-adv-x="451" 
d="M118 797q-21 0 -33.5 13t-12.5 32t12.5 32.5t33.5 13.5t33 -13.5t12 -32.5t-12 -32t-33 -13zM333 797q-22 0 -34.5 13t-12.5 32t12.5 32.5t34.5 13.5q21 0 33.5 -13.5t12.5 -32.5t-12.5 -32t-33.5 -13z" />
    <glyph glyph-name="macron.uc" horiz-adv-x="451" 
d="M71 870h308v-54h-308v54z" />
    <glyph glyph-name="acute.uc" horiz-adv-x="451" 
d="M261 909h95l-130 -136h-64z" />
    <glyph glyph-name="circumflex.uc" horiz-adv-x="451" 
d="M225 862l-92 -99h-58l111 148h78l111 -148h-58z" />
    <glyph glyph-name="caron.uc" horiz-adv-x="451" 
d="M264 763h-78l-111 148h58l92 -99l92 99h58z" />
    <glyph glyph-name="breve.uc" horiz-adv-x="450" 
d="M225 763q-39 0 -68 11.5t-48.5 31.5t-29 47t-9.5 58h66q0 -49 24 -72.5t65 -23.5t64.5 23.5t23.5 72.5h66q0 -31 -9.5 -58t-29 -47t-48 -31.5t-67.5 -11.5z" />
    <glyph glyph-name="dotaccent.uc" horiz-adv-x="451" 
d="M225 797q-21 0 -33.5 13t-12.5 32t12.5 32.5t33.5 13.5t33.5 -13.5t12.5 -32.5t-12.5 -32t-33.5 -13z" />
    <glyph glyph-name="ring.uc" horiz-adv-x="451" 
d="M225 752q-48 0 -79.5 30.5t-31.5 78.5t31.5 78.5t79.5 30.5t79.5 -30.5t31.5 -78.5t-31.5 -78.5t-79.5 -30.5zM225 796q28 0 46.5 18t18.5 47t-18.5 47.5t-46.5 18.5t-46 -18.5t-18 -47.5t17.5 -47t46.5 -18z" />
    <glyph glyph-name="tilde.uc" horiz-adv-x="451" 
d="M57 789q-5 23 -2 45.5t14 40t29.5 28t45.5 10.5t49 -10t40.5 -22t36 -22t35.5 -10q47 0 39 67h49q4 -23 1.5 -45.5t-13 -40t-29 -28t-45.5 -10.5t-49 10t-41 21.5t-36.5 21.5t-35.5 10q-22 0 -32.5 -16.5t-5.5 -49.5h-50v0z" />
    <glyph glyph-name="hungarumlaut.uc" horiz-adv-x="450" 
d="M76 773l67 136h84l-90 -136h-61zM264 773l66 136h84l-90 -136h-60z" />
    <glyph glyph-name="Cacute.pl" horiz-adv-x="669" 
d="M393 -10q-80 0 -144 25t-109 72.5t-69 116t-24 154.5q0 87 23 155t67 115.5t108 72.5t147 25q76 0 130.5 -18t88.5 -42v-68q-42 30 -101 47t-119 17q-134 0 -201 -77.5t-67 -226.5t70.5 -226.5t204.5 -77.5q59 0 114 18t99 53v-70q-30 -25 -85 -45t-133 -20zM329 773
l46 136h91l-80 -136h-57z" />
    <glyph glyph-name="Euro.prop" horiz-adv-x="641" 
d="M579 39q-23 -17 -64.5 -33t-103.5 -16q-127 0 -201.5 71t-94.5 198h-82v54h76q-1 11 -1 22.5v22.5q0 14 0.5 26.5t1.5 24.5h-77v54h84q23 125 100 194t202 69q56 0 93.5 -13.5t66.5 -34.5v-61q-35 24 -74 37t-87 13q-100 0 -157.5 -51.5t-75.5 -152.5h230v-54h-236
q-1 -12 -1.5 -24.5t-0.5 -26.5v-23t1 -22h237v-54h-231q17 -104 72 -157t157 -53q57 0 98.5 16t67.5 36v-62v0z" />
    <glyph glyph-name="Nacute.pl" horiz-adv-x="739" 
d="M652 0h-98l-399 636v-636h-67v717h96l401 -639v639h67v-717zM333 773l46 136h91l-80 -136h-57z" />
    <glyph glyph-name="Oacute.pl" horiz-adv-x="770" 
d="M385 -10q-72 0 -134 25t-107 72t-71 116t-26 158q0 88 26 156.5t71 114.5t107 70t134 24q73 0 135 -24t107.5 -70.5t71 -114.5t25.5 -157q0 -88 -25.5 -156.5t-71 -116t-107.5 -72.5t-135 -25zM385 54q57 0 105.5 18t83.5 55.5t55 95t20 135.5t-20 135.5t-55 95
t-83.5 55.5t-105.5 18t-105 -18t-83 -55.5t-55 -95t-20 -135.5t20 -135.5t55 -95t83 -55.5t105 -18zM354 773l46 136h91l-80 -136h-57z" />
    <glyph glyph-name="Sacute.pl" horiz-adv-x="571" 
d="M276 -10q-48 0 -85.5 6.5t-66 16.5t-48 21.5t-29.5 21.5v68q13 -11 35 -23t51.5 -22.5t65.5 -17.5t76 -7q38 0 71.5 7.5t58 24t39 42t14.5 60.5q0 34 -12.5 57t-36 39t-57.5 26.5t-76 21.5q-41 11 -81 25t-72 36.5t-52 56.5t-20 85q0 93 65.5 142t186.5 49q37 0 66 -4
t51.5 -10t39.5 -13.5t31 -14.5v-68q-35 22 -82 34t-106 12q-181 0 -181 -124q0 -33 13.5 -55.5t37 -37.5t54 -25t63.5 -19q40 -10 82.5 -22.5t78 -35t58 -58.5t22.5 -94q0 -56 -21.5 -94t-57.5 -62t-82 -34.5t-94 -10.5zM243 773l46 136h91l-80 -136h-57z" />
    <glyph glyph-name="Zacute.pl" horiz-adv-x="614" 
d="M562 0h-516v52l427 600h-416v65h504v-53l-430 -600h431v-64zM272 773l46 136h91l-80 -136h-57z" />
    <glyph glyph-name="acute.pl" horiz-adv-x="451" 
d="M184 588l42 158h81l-74 -158h-49z" />
    <glyph glyph-name="acute.ucpl" horiz-adv-x="451" 
d="M190 773l46 136h91l-80 -136h-57z" />
    <glyph glyph-name="approxequal.prop" horiz-adv-x="619" 
d="M51 358q1 30 9.5 58.5t26.5 51t45 36.5t66 14q42 0 71.5 -15.5t54 -33.5t47.5 -33.5t51 -15.5q37 0 59.5 24.5t30.5 79.5h56q-1 -30 -10 -59t-26.5 -51.5t-44.5 -36t-65 -13.5q-42 0 -72 15.5t-54.5 33.5t-47.5 33.5t-50 15.5q-37 0 -60 -24.5t-31 -79.5h-56zM51 148
q1 30 9.5 58.5t26.5 51t45 36.5t66 14q42 0 71.5 -15.5t54 -33.5t47.5 -33.5t51 -15.5q37 0 59.5 24.5t30.5 79.5h56q-1 -30 -10 -59t-26.5 -51.5t-44.5 -36t-65 -13.5q-42 0 -72 15.5t-54.5 33.5t-47.5 33.5t-50 15.5q-37 0 -60 -24.5t-31 -79.5h-56z" />
    <glyph glyph-name="cacute.pl" horiz-adv-x="497" 
d="M298 -10q-59 0 -106.5 18.5t-81.5 53t-52.5 84.5t-18.5 114q0 63 18.5 113t53 84.5t83 53t108.5 18.5q44 0 85.5 -10t67.5 -28v-59q-32 20 -73 29t-79 9q-97 0 -147 -53.5t-50 -156.5t49.5 -157t142.5 -54q45 0 85 11t72 29v-59q-27 -17 -65 -28.5t-92 -11.5zM243 588
l42 158h81l-74 -158h-49z" />
    <glyph glyph-name="cent.prop" horiz-adv-x="543" 
d="M475 30q-25 -15 -59 -26.5t-82 -13.5v-130h-64v133q-97 14 -154 83.5t-57 183.5q0 112 55.5 180.5t152.5 84.5v119h63v-115q42 -1 81 -11t64 -27v-59q-31 20 -72.5 29t-79.5 9q-97 0 -146.5 -53.5t-49.5 -156.5t49 -157t142 -54q45 0 85 11t72 29v-59v0z" />
    <glyph glyph-name="divide.prop" horiz-adv-x="580" 
d="M285 482q-23 0 -38 15.5t-15 37.5q0 23 15 38t38 15q24 0 38.5 -15t14.5 -38q0 -22 -14.5 -37.5t-38.5 -15.5zM54 310v54h463v-54h-463zM285 86q-23 0 -38 15.5t-15 37.5q0 23 15 38t38 15q24 0 38.5 -15t14.5 -38q0 -22 -14.5 -37.5t-38.5 -15.5z" />
    <glyph glyph-name="dollar.prop" horiz-adv-x="573" 
d="M518 187q0 -50 -16 -85t-43 -58t-63 -35.5t-76 -16.5v-123h-63v121q-40 1 -72.5 7.5t-57 15.5t-41.5 19t-26 18v61q11 -9 32 -19.5t49 -20t61.5 -16t71.5 -6.5t70 8t55.5 24.5t37 43t13.5 63.5q0 35 -11.5 58t-33.5 39t-54 27t-73 23q-39 10 -77 24t-68.5 36t-49 55.5
t-18.5 84.5q0 82 49.5 130t139.5 58v117h63v-114q63 -2 102 -15t60 -24v-60q-27 16 -73 28t-105 12q-81 0 -125.5 -31.5t-44.5 -97.5q0 -33 13 -55.5t35 -38.5t51 -26t61 -19q37 -11 77.5 -23.5t73.5 -34.5t54.5 -58.5t21.5 -95.5z" />
    <glyph glyph-name="eight.prop" horiz-adv-x="584" 
d="M538 196q0 -48 -18.5 -86.5t-51.5 -65t-78 -40.5t-97 -14q-54 0 -99 14t-78 40t-51.5 63.5t-18.5 85.5q0 72 40.5 120t107.5 68q-55 19 -88.5 60.5t-33.5 104.5q0 43 16.5 77t46 56.5t70 34.5t88.5 12q47 0 87.5 -11.5t70 -34t46.5 -56t17 -77.5q0 -63 -34 -104.5
t-88 -60.5q66 -20 106 -67t40 -119zM293 409q32 0 60 8.5t49 25t33 40.5t12 56q0 62 -43.5 95t-110.5 33q-33 0 -61 -8.5t-48.5 -25t-32.5 -40t-12 -54.5t12 -55.5t33 -41t49 -25t60 -8.5zM293 49q38 0 70.5 10.5t56 31t36.5 49t13 64.5t-13.5 64t-37 47.5t-56 29.5
t-69.5 10q-38 0 -70.5 -10t-56.5 -29.5t-37.5 -47.5t-13.5 -64t13 -64.5t36.5 -49t56.5 -31t72 -10.5z" />
    <glyph glyph-name="equal.prop" horiz-adv-x="565" 
d="M51 409v54h463v-54h-463zM51 211v54h463v-54h-463z" />
    <glyph glyph-name="five.prop" horiz-adv-x="541" 
d="M495 232q0 -53 -17 -97.5t-49 -76.5t-78.5 -50t-105.5 -18q-68 0 -117 18t-80 45v76q32 -32 79.5 -55t117.5 -23q44 0 78 13.5t56.5 37.5t34 57t11.5 72q0 43 -12.5 74t-35 51t-53 29.5t-66.5 9.5q-50 0 -82 -14.5t-50 -30.5h-53v367h388v-64h-327v-238q21 15 54 27
t81 12t89 -13.5t71.5 -41.5t48 -69.5t17.5 -97.5z" />
    <glyph glyph-name="florin.prop" horiz-adv-x="538" 
d="M212 10q-17 -95 -61 -146t-126 -51q-23 0 -40 3.5t-30 7.5v56q9 -5 28 -9t40 -4q29 0 50 9.5t35.5 28t24 46t15.5 63.5l62 357h-92l11 54h91l18 104q17 97 63 147t133 50q18 0 33 -2.5t28 -5.5v-60q-9 4 -28.5 7.5t-40.5 3.5q-29 0 -49.5 -8.5t-34.5 -26t-23 -43.5
t-15 -62l-18 -104h142l-12 -54h-140l-64 -361v0z" />
    <glyph glyph-name="four.prop" horiz-adv-x="596" 
d="M457 176v-176h-66v176h-357v51l337 490h86v-480h102v-61h-102zM391 237v410l-281 -410h281z" />
    <glyph glyph-name="greater.prop" horiz-adv-x="502" 
d="M49 170l352 167l-352 167v61l405 -191v-73l-405 -191v60z" />
    <glyph glyph-name="greaterequal.prop" horiz-adv-x="508" 
d="M51 183l351 160l-351 161v61l406 -185v-73l-406 -185v61zM51 54h406v-54h-406v54z" />
    <glyph glyph-name="less.prop" horiz-adv-x="502" 
d="M49 301v73l405 191v-61l-352 -167l352 -167v-60z" />
    <glyph glyph-name="lessequal.prop" horiz-adv-x="508" 
d="M51 307v73l406 185v-61l-350 -161l350 -160v-61zM51 0v54h406v-54h-406z" />
    <glyph glyph-name="minus.prop" horiz-adv-x="560" 
d="M49 310v54h462v-54h-462z" />
    <glyph glyph-name="multiply.prop" horiz-adv-x="536" 
d="M451 118l-183 183l-182 -183l-41 40l183 183l-180 180l40 40l180 -180l180 180l40 -40l-180 -180l183 -182z" />
    <glyph glyph-name="nacute.pl" horiz-adv-x="578" 
d="M319 470q-36 0 -63.5 -9.5t-48.5 -25.5t-36.5 -38t-27.5 -46v-351h-66v519h62l3 -105h2q10 23 26.5 44t40 36.5t54 25t69.5 9.5q79 0 125.5 -41.5t46.5 -123.5v-364h-66v358q0 62 -33 87t-88 25zM253 588l42 158h81l-74 -158h-49z" />
    <glyph glyph-name="nine.prop" horiz-adv-x="611" 
d="M557 407q0 -93 -17 -170t-53.5 -131.5t-94 -85t-138.5 -30.5q-51 0 -91.5 9.5t-69.5 26.5v65q31 -20 73 -30.5t88 -10.5q61 0 104.5 22.5t71.5 62.5t42.5 95t17.5 121q-32 -58 -85 -85.5t-114 -27.5q-52 0 -96.5 16.5t-77.5 48t-52 76.5t-19 102q0 55 19 100.5t53 77.5
t79.5 50t99.5 18q125 0 192.5 -79.5t67.5 -240.5zM297 666q-37 0 -69.5 -12.5t-57 -35.5t-39 -57.5t-14.5 -77.5q0 -44 14 -78.5t38 -58t56 -36t67 -12.5q39 0 73 12.5t59 36.5t39 58.5t14 78.5q0 40 -13 73.5t-36.5 57.5t-57 37.5t-73.5 13.5z" />
    <glyph glyph-name="notequal.prop" horiz-adv-x="565" 
d="M262 211l-58 -139h-62l58 139h-149v54h171l60 144h-231v54h253l58 139h62l-58 -139h148v-54h-170l-60 -144h230v-54h-252z" />
    <glyph glyph-name="oacute.pl" horiz-adv-x="574" 
d="M286 -10q-53 0 -98 18t-78 52.5t-52 85t-19 114.5t19 114t52 84.5t78 52.5t98 18t98.5 -18t79 -52.5t52.5 -84.5t19 -114t-19 -114.5t-52.5 -85t-79 -52.5t-98.5 -18zM286 49q39 0 72 13.5t57.5 39.5t38 65.5t13.5 92.5t-13.5 92.5t-38 65.5t-57.5 39t-72 13t-72 -13
t-57 -39t-37.5 -65.5t-13.5 -92.5t13.5 -92.5t37.5 -65.5t57 -39.5t72 -13.5zM245 588l42 158h81l-74 -158h-49z" />
    <glyph glyph-name="one.denalt" horiz-adv-x="320" 
d="M306 0h-253v48h96v326l-97 -84v62l113 99h45v-403h96v-48z" />
    <glyph glyph-name="one.numalt" horiz-adv-x="320" 
d="M306 265h-253v48h96v326l-97 -84v62l113 99h45v-403h96v-48z" />
    <glyph glyph-name="one.prop" horiz-adv-x="374" 
d="M271 0h-68v628l-158 -143v76l171 156h55v-717z" />
    <glyph glyph-name="one.propalt" horiz-adv-x="454" 
d="M446 0h-384v57h159v572l-161 -144v76l173 156h54v-660h159v-57z" />
    <glyph glyph-name="one.subalt" horiz-adv-x="320" 
d="M306 -90h-253v48h96v326l-97 -84v62l113 99h45v-403h96v-48z" />
    <glyph glyph-name="one.supalt" horiz-adv-x="320" 
d="M306 325h-253v48h96v326l-97 -84v62l113 99h45v-403h96v-48z" />
    <glyph glyph-name="percent.prop" horiz-adv-x="787" 
d="M154 -10l419 736h60l-419 -736h-60zM334 528q0 -46 -12 -82t-32.5 -60.5t-48.5 -37t-60 -12.5t-60 12t-48.5 36t-32.5 59t-12 81q0 47 12 83t32.5 60.5t48.5 37t60 12.5t60 -12t48.5 -36t32.5 -59.5t12 -81.5zM86 526q0 -75 26.5 -108t68.5 -33q41 0 68 33t27 108
t-26.5 107.5t-68.5 32.5t-68.5 -32.5t-26.5 -107.5zM760 192q0 -47 -12 -82.5t-32.5 -60t-48.5 -37t-60 -12.5q-33 0 -61 12t-48.5 36t-32 59t-11.5 81t11.5 82t32 60.5t48.5 37t61 12.5q32 0 60 -12t48.5 -36t32.5 -59t12 -81zM607 331q-42 0 -68.5 -33t-26.5 -108
q0 -74 27 -107t68 -33t68.5 33t27.5 107q0 75 -27 108t-69 33z" />
    <glyph glyph-name="perthousand.prop" horiz-adv-x="1154" 
d="M154 -10l419 736h60l-419 -736h-60zM334 528q0 -46 -12 -82t-32.5 -60.5t-48.5 -37t-60 -12.5t-60 12t-48.5 36t-32.5 59t-12 81q0 47 12 83t32.5 60.5t48.5 37t60 12.5t60 -12t48.5 -36t32.5 -59.5t12 -81.5zM86 526q0 -75 26.5 -108t68.5 -33q41 0 68 33t27 108
t-26.5 107.5t-68.5 32.5t-68.5 -32.5t-26.5 -107.5zM1126 192q0 -47 -12 -82.5t-33 -60t-49 -37t-60 -12.5t-60 12t-48.5 36t-32.5 59t-12 81t12 82t32.5 60.5t48.5 37t60 12.5t60 -12t49 -36t33 -59t12 -81zM760 192q0 -47 -12 -82.5t-32.5 -60t-48.5 -37t-60 -12.5
q-33 0 -61 12t-48.5 36t-32 59t-11.5 81t11.5 82t32 60.5t48.5 37t61 12.5q32 0 60 -12t48.5 -36t32.5 -59t12 -81zM972 331q-42 0 -68 -33t-26 -108q0 -74 26.5 -107t67.5 -33t68.5 33t27.5 107q0 75 -27 108t-69 33zM607 331q-42 0 -68.5 -33t-26.5 -108q0 -74 27 -107
t68 -33t68.5 33t27.5 107q0 75 -27 108t-69 33z" />
    <glyph glyph-name="plus.prop" horiz-adv-x="560" 
d="M311 310v-218h-62v218h-200v54h200v219h62v-219h200v-54h-200z" />
    <glyph glyph-name="plusminus.prop" horiz-adv-x="565" 
d="M314 310v-187h-63v187h-200v54h200v219h63v-219h200v-54h-200zM51 0v54h463v-54h-463z" />
    <glyph glyph-name="sacute.pl" horiz-adv-x="477" 
d="M235 -10q-40 0 -71 6.5t-54 15.5t-38.5 19t-24.5 18v60q10 -9 26.5 -19.5t40 -20.5t53.5 -16.5t67 -6.5q28 0 53 5t43.5 16t29 28.5t10.5 43.5t-11 42.5t-30 27t-45.5 16.5t-56.5 12q-31 6 -63 14.5t-57.5 24.5t-41.5 42t-16 67q0 70 53.5 107t145.5 37q56 0 95 -11
t62 -24v-60q-25 16 -62.5 27.5t-93.5 11.5q-61 0 -97.5 -19t-36.5 -68q0 -24 9.5 -38t26 -23t39 -14.5t47.5 -10.5q33 -7 68 -15t64 -24.5t48 -45t19 -75.5q0 -44 -17.5 -73t-46 -46t-64.5 -24t-73 -7zM199 588l42 158h81l-74 -158h-49z" />
    <glyph glyph-name="seven.prop" horiz-adv-x="543" 
d="M189 0h-73l317 653h-381v64h453v-60z" />
    <glyph glyph-name="six.prop" horiz-adv-x="615" 
d="M564 235q0 -55 -19 -100t-52.5 -77.5t-79.5 -50t-99 -17.5q-124 0 -191.5 79.5t-67.5 239.5q0 93 17 170t53 132t92.5 85.5t135.5 30.5q54 0 93 -10t69 -26v-66q-32 21 -72.5 30.5t-88.5 9.5q-59 0 -101.5 -22.5t-70.5 -62.5t-43 -95t-18 -119q32 57 84.5 84.5
t114.5 27.5q52 0 96.5 -16.5t77.5 -48t51.5 -76.5t18.5 -102zM313 50q37 0 70 12.5t57.5 36t39 57.5t14.5 78q0 43 -14 77.5t-38 58.5t-56 36.5t-67 12.5q-39 0 -73 -12.5t-59 -36.5t-39 -58.5t-14 -78.5q0 -41 13 -74.5t36 -57.5t56 -37.5t74 -13.5z" />
    <glyph glyph-name="space.prop" horiz-adv-x="211" 
 />
    <glyph glyph-name="sterling.prop" horiz-adv-x="578" 
d="M535 0h-469v40q52 42 76 84.5t24 98.5q0 32 -8 66h-100v57h84q-13 41 -25.5 81.5t-12.5 88.5q0 95 60 152.5t179 57.5q62 0 99.5 -14.5t60.5 -31.5v-62q-26 20 -68 33.5t-94 13.5q-48 0 -80 -12t-51.5 -33t-27.5 -49t-8 -60q0 -48 13 -86.5t26 -78.5h184v-57h-171
q4 -19 4 -45q0 -53 -16.5 -96.5t-59.5 -87.5h381v-60z" />
    <glyph glyph-name="three.prop" horiz-adv-x="551" 
d="M507 202q0 -48 -18.5 -87t-52 -67t-80 -43t-102.5 -15q-74 0 -127.5 19.5t-84.5 48.5v77q32 -35 86 -59.5t127 -24.5q87 0 133.5 42t46.5 108q0 67 -44.5 105t-130.5 38h-93v64h97q66 0 105.5 34.5t39.5 97.5q0 54 -36 89.5t-112 35.5q-71 0 -120 -25t-85 -61v74
q34 33 85.5 53.5t120.5 20.5q51 0 91 -13.5t68 -37.5t42.5 -58t14.5 -74q0 -37 -11 -65t-29.5 -48.5t-42 -33t-48.5 -18.5q32 -5 61 -19t51 -36t35 -52.5t13 -69.5z" />
    <glyph glyph-name="two.prop" horiz-adv-x="549" 
d="M504 0h-457v74q104 83 176 145t116.5 113t64 95t19.5 91q0 31 -9.5 57.5t-28.5 46.5t-48 31.5t-69 11.5q-60 0 -111 -28t-89 -74v77q35 39 85 63t117 24q56 0 98 -15t70.5 -42t42.5 -64.5t14 -82.5q0 -55 -21.5 -104.5t-66.5 -103t-115.5 -114t-168.5 -137.5h381v-64z
" />
    <glyph glyph-name="uni20B4.prop" horiz-adv-x="609" 
d="M533 50q-9 -9 -28 -19.5t-46.5 -19.5t-63.5 -15t-80 -6q-45 0 -87.5 8.5t-75.5 29.5t-53 57.5t-20 92.5q0 50 22 88h-67v53h114q33 26 73.5 41.5t78.5 28.5q18 6 34.5 12t32.5 14h-333v54h404q23 31 23 77q0 63 -40.5 91.5t-114.5 28.5q-61 0 -110 -11.5t-78 -28.5v61
q24 12 68 25.5t118 13.5q106 0 165 -44t59 -135q0 -43 -19 -78h66v-54h-112q-30 -24 -67 -40t-74 -29q-20 -7 -37.5 -13.5t-33.5 -13.5h324v-53h-402q-26 -32 -26 -86q0 -36 13 -61t36 -40t53.5 -22t66.5 -7q38 0 72.5 6.5t63 16t49.5 20t32 18.5v-61v0z" />
    <glyph glyph-name="uni20B8.prop" horiz-adv-x="556" 
d="M30 717h494v-56h-494v56zM313 499v-499h-72v499h-211v66h494v-66h-211z" />
    <glyph glyph-name="uni20BD.prop" horiz-adv-x="607" 
d="M138 387v330h198q109 0 169.5 -47t60.5 -143q0 -51 -17 -87.5t-48 -60.5t-75 -35t-99 -11h-118v-99h246v-54h-246v-180h-71v180h-98v54h98v99h-98v54h98zM209 656v-269h118q83 0 126 33.5t43 106.5q0 66 -38.5 97.5t-121.5 31.5h-127z" />
    </font>
</defs>
</svg>
