<svg
  display="none"
  xmlns="http://www.w3.org/2000/svg"
  xmlns:xlink="http://www.w3.org/1999/xlink"
>
  <symbol id="phone-light" viewBox="0 0 14 14" preserveAspectRatio="none">
    <path fill-rule="evenodd" d="M1375.46,51.865a1.042,1.042,0,0,0-1.58,0c-0.38.369-.75,0.738-1.11,1.113a0.224,0.224,0,0,1-.31.056c-0.24-.131-0.49-0.238-0.73-0.381a11.642,11.642,0,0,1-2.77-2.529,6.589,6.589,0,0,1-1-1.6,0.226,0.226,0,0,1,.06-0.294c0.37-.359.73-0.727,1.1-1.1a1.05,1.05,0,0,0-.01-1.627c-0.29-.294-0.58-0.581-0.87-0.875s-0.59-.6-0.9-0.9a1.047,1.047,0,0,0-1.58,0c-0.38.368-.74,0.746-1.12,1.108a1.835,1.835,0,0,0-.57,1.221,5.46,5.46,0,0,0,.4,2.227,13.657,13.657,0,0,0,2.4,4,14.9,14.9,0,0,0,4.92,3.851,7.1,7.1,0,0,0,2.72.793,2.009,2.009,0,0,0,1.72-.653c0.32-.357.67-0.681,1.01-1.021a1.066,1.066,0,0,0,.01-1.617C1376.66,53.052,1376.06,52.458,1375.46,51.865Z" transform="translate(-1364.06 -43.375)"/>
  </symbol>

  <symbol id="scales" viewBox="0 0 20 20" preserveAspectRatio="none">
    <path fill-rule="evenodd" d="M16.286,4.545 C17.498,4.549 18.515,5.473 18.633,6.681 L19.976,17.214 C20.071,18.100 19.885,18.823 19.440,19.318 C19.037,19.764 18.442,20.000 17.711,20.000 L2.734,20.000 C1.881,20.000 1.105,19.677 0.601,19.118 C0.147,18.614 -0.061,17.946 0.016,17.227 L1.359,6.669 C1.482,5.463 2.494,4.545 3.706,4.545 L5.458,4.545 L5.458,3.182 L1.609,3.182 C0.433,3.182 -0.442,1.904 0.288,0.663 C0.502,0.296 1.033,0.000 1.455,0.000 L18.383,0.000 C19.559,0.000 20.434,1.277 19.704,2.519 C19.490,2.886 18.959,3.182 18.537,3.182 L14.535,3.182 L14.535,4.545 L16.286,4.545 ZM18.379,2.273 C18.755,2.273 19.059,1.968 19.059,1.591 C19.059,1.214 18.755,0.909 18.379,0.909 L1.604,0.909 C1.228,0.909 0.919,1.214 0.915,1.591 C0.919,1.968 1.228,2.273 1.604,2.273 L18.379,2.273 ZM6.365,3.182 L6.365,4.545 L13.627,4.545 L13.627,3.182 L6.365,3.182 ZM3.701,5.454 C2.970,5.454 2.335,6.032 2.258,6.773 L0.910,17.331 C0.860,17.782 0.987,18.195 1.269,18.509 C1.604,18.877 2.135,19.090 2.730,19.090 L17.707,19.090 C18.179,19.090 18.533,18.964 18.760,18.709 C19.028,18.409 19.137,17.932 19.073,17.318 L17.729,6.787 C17.648,6.036 17.012,5.454 16.282,5.454 L3.701,5.454 ZM9.996,17.745 C6.987,17.745 4.550,15.304 4.550,12.291 C4.550,12.286 4.550,12.282 4.550,12.277 C4.550,12.273 4.550,12.273 4.550,12.273 L4.550,12.268 C4.563,9.313 6.933,6.909 9.873,6.845 C9.951,6.813 10.037,6.813 10.114,6.845 C13.050,6.909 15.424,9.313 15.438,12.268 C15.438,12.268 15.442,12.268 15.442,12.273 C15.442,12.277 15.442,12.273 15.442,12.277 C15.442,12.282 15.442,12.286 15.442,12.291 C15.442,15.304 13.005,17.745 9.996,17.745 ZM13.699,12.014 C13.768,11.891 13.904,11.818 14.044,11.818 L14.512,11.818 C14.421,10.932 14.072,10.096 13.509,9.409 L13.041,9.868 C12.860,10.041 12.569,10.041 12.397,9.859 C12.225,9.677 12.225,9.390 12.406,9.214 L12.864,8.764 C12.179,8.200 11.339,7.850 10.454,7.764 L10.454,8.177 C10.454,8.509 10.096,8.758 9.742,8.559 C9.619,8.491 9.547,8.354 9.547,8.213 L9.547,7.764 C8.666,7.850 7.827,8.200 7.137,8.764 L7.595,9.214 C7.777,9.390 7.781,9.678 7.604,9.859 C7.427,10.041 7.141,10.045 6.960,9.868 L6.492,9.409 C5.930,10.096 5.580,10.932 5.489,11.813 L5.916,11.813 C6.247,11.813 6.497,12.172 6.297,12.528 C6.229,12.650 6.093,12.722 5.952,12.722 L5.485,12.722 C5.571,13.614 5.920,14.459 6.488,15.155 L6.955,14.677 C7.146,14.482 7.468,14.495 7.641,14.723 C7.777,14.905 7.749,15.163 7.591,15.327 L7.123,15.805 C7.813,16.373 8.653,16.723 9.542,16.814 L9.542,16.364 C9.542,16.091 9.783,15.873 10.064,15.913 C10.286,15.945 10.450,16.150 10.450,16.377 L10.450,16.814 C11.335,16.723 12.179,16.373 12.869,15.805 L12.392,15.318 C12.220,15.137 12.220,14.846 12.401,14.673 C12.583,14.500 12.869,14.500 13.046,14.682 L13.504,15.159 C14.071,14.468 14.421,13.618 14.507,12.727 L14.076,12.727 C13.745,12.727 13.495,12.368 13.699,12.014 ZM9.669,12.609 L7.854,10.773 C7.831,10.754 7.813,10.737 7.795,10.714 C7.636,10.518 7.663,10.231 7.858,10.073 C8.053,9.913 8.339,9.941 8.498,10.136 L10.314,11.968 C10.459,12.141 10.459,12.396 10.309,12.564 C10.146,12.755 9.860,12.773 9.669,12.609 Z"/>
  </symbol>

  <symbol id="pizza" preserveAspectRatio="none" viewBox="0 0 20 20">
    <path fill-rule="evenodd" d="M18.668,14.977 C18.664,14.985 18.664,14.993 18.660,14.999 C18.654,15.009 18.646,15.019 18.639,15.027 C17.767,16.528 16.519,17.776 15.018,18.647 C10.247,21.419 4.133,19.798 1.361,15.027 C1.354,15.019 1.346,15.009 1.340,14.999 C1.335,14.993 1.336,14.985 1.332,14.977 C-0.444,11.898 -0.444,8.104 1.332,5.025 C1.336,5.017 1.335,5.009 1.340,5.001 C1.344,4.995 1.351,4.990 1.355,4.984 C2.230,3.476 3.483,2.222 4.992,1.349 C9.766,-1.418 15.879,0.210 18.644,4.984 C18.649,4.991 18.656,4.995 18.660,5.001 C18.664,5.009 18.664,5.017 18.668,5.025 C20.444,8.104 20.444,11.898 18.668,14.977 ZM1.758,14.374 L2.336,14.040 C0.999,11.513 0.999,8.488 2.336,5.961 L1.758,5.628 C0.303,8.362 0.303,11.640 1.758,14.374 ZM2.914,13.706 L9.333,10.001 L2.914,6.295 C1.695,8.615 1.695,11.387 2.914,13.706 ZM9.667,0.677 C6.573,0.789 3.736,2.428 2.093,5.052 L2.671,5.385 C4.194,2.967 6.811,1.455 9.667,1.343 L9.667,0.677 ZM9.667,2.011 C7.049,2.121 4.652,3.506 3.248,5.719 L9.667,9.424 L9.667,2.011 ZM9.667,10.578 L3.248,14.283 C4.652,16.495 7.049,17.880 9.667,17.991 L9.667,10.578 ZM9.667,18.657 C6.811,18.546 4.194,17.034 2.671,14.617 L2.093,14.950 C3.736,17.574 6.573,19.212 9.667,19.324 L9.667,18.657 ZM10.333,19.324 C13.427,19.212 16.264,17.574 17.907,14.950 L17.329,14.617 C15.806,17.034 13.189,18.546 10.333,18.657 L10.333,19.324 ZM17.086,6.295 L10.667,10.001 L17.086,13.706 C18.305,11.387 18.305,8.615 17.086,6.295 ZM10.333,17.991 C12.951,17.880 15.348,16.495 16.752,14.283 L10.333,10.578 L10.333,17.991 ZM10.333,9.424 L16.752,5.719 C15.348,3.506 12.951,2.121 10.333,2.011 L10.333,9.424 ZM10.333,0.677 L10.333,1.343 C13.189,1.455 15.806,2.967 17.329,5.385 L17.907,5.052 C16.264,2.428 13.427,0.789 10.333,0.677 ZM18.242,5.628 L17.664,5.961 C19.001,8.488 19.001,11.513 17.664,14.040 L18.242,14.374 C19.697,11.640 19.697,8.362 18.242,5.628 ZM13.667,6.334 C12.930,6.334 12.333,5.738 12.333,5.001 C12.333,4.265 12.930,3.668 13.667,3.668 C14.403,3.669 14.999,4.265 15.000,5.001 C15.000,5.738 14.403,6.334 13.667,6.334 ZM13.667,4.334 C13.298,4.334 13.000,4.633 13.000,5.001 C13.000,5.370 13.298,5.668 13.667,5.668 C14.035,5.667 14.333,5.370 14.333,5.001 C14.333,4.633 14.035,4.334 13.667,4.334 ZM11.333,8.001 C11.149,8.001 11.000,7.853 11.000,7.668 C11.000,7.624 11.010,7.581 11.027,7.541 C11.044,7.501 11.067,7.463 11.097,7.431 C11.230,7.307 11.436,7.307 11.570,7.431 C11.599,7.463 11.623,7.501 11.640,7.541 C11.657,7.581 11.666,7.624 11.667,7.668 C11.667,7.853 11.517,8.001 11.333,8.001 ZM11.097,3.905 C11.067,3.872 11.044,3.835 11.027,3.795 C10.991,3.715 10.991,3.622 11.027,3.541 C11.044,3.502 11.067,3.464 11.097,3.432 C11.230,3.308 11.436,3.308 11.570,3.432 C11.599,3.464 11.623,3.502 11.640,3.541 C11.676,3.622 11.676,3.715 11.640,3.795 C11.623,3.835 11.599,3.872 11.570,3.905 C11.439,4.034 11.228,4.034 11.097,3.905 ZM14.903,14.570 C14.887,14.584 14.871,14.598 14.853,14.610 C14.835,14.623 14.814,14.633 14.793,14.640 C14.774,14.649 14.754,14.656 14.733,14.660 C14.711,14.664 14.689,14.666 14.667,14.667 C14.578,14.665 14.494,14.631 14.430,14.570 C14.401,14.538 14.377,14.501 14.360,14.459 C14.341,14.420 14.332,14.378 14.333,14.333 C14.334,14.311 14.336,14.289 14.340,14.267 C14.344,14.246 14.350,14.225 14.360,14.206 C14.367,14.185 14.377,14.166 14.390,14.147 C14.402,14.129 14.416,14.113 14.430,14.097 C14.511,14.020 14.624,13.986 14.733,14.007 C14.754,14.011 14.774,14.017 14.793,14.027 C14.814,14.034 14.835,14.044 14.853,14.057 C14.870,14.070 14.887,14.083 14.903,14.097 C14.964,14.160 14.999,14.245 15.000,14.333 C14.999,14.378 14.990,14.419 14.973,14.459 C14.956,14.501 14.933,14.537 14.903,14.570 ZM12.333,17.000 C11.597,17.000 11.000,16.403 11.000,15.667 C11.000,14.930 11.597,14.333 12.333,14.333 C13.069,14.334 13.666,14.930 13.667,15.667 C13.667,16.403 13.070,17.000 12.333,17.000 ZM12.333,14.999 C11.965,14.999 11.667,15.299 11.667,15.667 C11.667,16.035 11.965,16.333 12.333,16.333 C12.701,16.333 13.000,16.035 13.000,15.667 C13.000,15.299 12.702,14.999 12.333,14.999 ZM12.000,12.668 C11.978,12.666 11.955,12.664 11.933,12.661 C11.912,12.656 11.892,12.650 11.873,12.640 C11.852,12.633 11.832,12.623 11.813,12.611 C11.796,12.597 11.780,12.584 11.763,12.571 C11.702,12.507 11.668,12.422 11.667,12.334 C11.667,12.311 11.669,12.289 11.673,12.267 C11.677,12.247 11.684,12.226 11.693,12.207 C11.700,12.186 11.710,12.167 11.723,12.150 C11.737,12.130 11.750,12.114 11.763,12.097 C11.897,11.974 12.103,11.974 12.237,12.097 C12.250,12.114 12.263,12.130 12.277,12.150 C12.290,12.167 12.300,12.186 12.307,12.207 C12.316,12.226 12.323,12.247 12.326,12.267 C12.330,12.289 12.333,12.311 12.333,12.334 C12.333,12.335 12.333,12.338 12.333,12.341 C12.331,12.522 12.182,12.669 12.000,12.668 ZM13.099,9.429 C13.229,9.300 13.440,9.300 13.570,9.430 C13.583,9.447 13.597,9.465 13.610,9.484 C13.623,9.501 13.633,9.520 13.640,9.541 C13.650,9.560 13.656,9.580 13.660,9.600 C13.664,9.623 13.666,9.645 13.667,9.667 C13.666,9.711 13.657,9.754 13.640,9.794 C13.624,9.834 13.600,9.872 13.570,9.904 C13.506,9.965 13.422,9.999 13.333,10.001 C13.198,10.005 13.075,9.922 13.027,9.794 C13.010,9.754 13.001,9.711 13.000,9.667 C13.000,9.578 13.035,9.492 13.099,9.429 ZM15.667,8.668 C16.403,8.668 16.999,9.265 17.000,10.001 C17.000,10.737 16.403,11.334 15.667,11.334 C14.930,11.334 14.333,10.737 14.333,10.001 C14.333,9.264 14.930,8.668 15.667,8.668 ZM15.667,10.667 C16.035,10.667 16.333,10.369 16.333,10.001 C16.333,9.632 16.035,9.334 15.667,9.334 C15.299,9.334 15.000,9.632 15.000,10.001 C15.000,10.369 15.299,10.667 15.667,10.667 ZM5.146,14.390 C5.165,14.378 5.185,14.367 5.207,14.360 C5.288,14.326 5.379,14.326 5.460,14.360 C5.501,14.376 5.538,14.400 5.570,14.430 C5.699,14.562 5.699,14.772 5.570,14.903 C5.537,14.932 5.500,14.957 5.460,14.973 C5.379,15.009 5.287,15.009 5.207,14.973 C5.185,14.966 5.165,14.956 5.146,14.944 C5.129,14.931 5.112,14.918 5.097,14.903 C5.066,14.872 5.043,14.834 5.027,14.793 C5.009,14.754 5.000,14.710 5.000,14.667 C5.000,14.578 5.035,14.494 5.097,14.430 L5.146,14.390 ZM7.667,14.001 C8.403,14.001 9.000,14.597 9.000,15.334 C9.000,16.070 8.403,16.666 7.667,16.666 C6.931,16.665 6.334,16.069 6.333,15.334 C6.333,14.597 6.930,14.001 7.667,14.001 ZM7.667,16.000 C8.035,16.000 8.333,15.701 8.333,15.334 C8.333,14.965 8.035,14.667 7.667,14.667 C7.299,14.667 7.000,14.965 7.000,15.334 C7.000,15.701 7.298,16.000 7.667,16.000 ZM8.973,12.460 C8.967,12.481 8.957,12.500 8.943,12.517 C8.930,12.537 8.917,12.554 8.903,12.571 C8.839,12.631 8.755,12.666 8.667,12.668 C8.623,12.668 8.579,12.659 8.540,12.640 C8.499,12.624 8.462,12.601 8.430,12.571 C8.417,12.554 8.403,12.537 8.390,12.517 C8.377,12.500 8.366,12.481 8.360,12.460 C8.350,12.441 8.343,12.421 8.340,12.400 C8.336,12.378 8.334,12.355 8.333,12.334 C8.334,12.290 8.343,12.247 8.360,12.207 C8.377,12.162 8.404,12.122 8.439,12.089 C8.569,11.963 8.777,11.966 8.903,12.097 C8.964,12.161 8.999,12.245 9.000,12.334 C8.999,12.355 8.997,12.378 8.993,12.400 C8.990,12.421 8.983,12.441 8.973,12.460 ZM4.873,5.028 C4.998,4.978 5.140,5.005 5.237,5.098 C5.298,5.161 5.333,5.244 5.333,5.333 C5.334,5.517 5.185,5.667 5.000,5.668 C4.910,5.668 4.824,5.633 4.761,5.569 C4.632,5.438 4.633,5.227 4.763,5.098 C4.795,5.068 4.832,5.045 4.873,5.028 ZM7.667,4.669 C8.403,4.669 9.000,5.266 9.000,6.001 C9.000,6.738 8.403,7.335 7.667,7.335 C6.931,7.334 6.334,6.737 6.333,6.001 C6.333,5.266 6.930,4.669 7.667,4.669 ZM7.667,6.668 C8.035,6.668 8.333,6.369 8.333,6.001 C8.333,5.633 8.035,5.335 7.667,5.335 C7.299,5.335 7.000,5.633 7.000,6.001 C7.000,6.369 7.298,6.668 7.667,6.668 ZM8.333,3.668 C8.290,3.668 8.247,3.658 8.207,3.642 C8.166,3.626 8.129,3.602 8.097,3.572 C7.966,3.441 7.966,3.229 8.097,3.098 C8.227,2.968 8.439,2.968 8.570,3.098 C8.632,3.161 8.666,3.244 8.667,3.332 C8.667,3.517 8.518,3.668 8.333,3.668 ZM4.000,9.667 C4.736,9.667 5.333,10.265 5.333,11.000 C5.333,11.737 4.736,12.334 4.000,12.334 C3.264,12.332 2.667,11.737 2.667,11.000 C2.667,10.265 3.264,9.667 4.000,9.667 ZM4.000,11.667 C4.368,11.667 4.667,11.369 4.667,11.000 C4.667,10.633 4.368,10.334 4.000,10.334 C3.632,10.334 3.334,10.633 3.333,11.000 C3.333,11.369 3.632,11.667 4.000,11.667 ZM6.460,9.694 C6.500,9.711 6.537,9.735 6.570,9.764 C6.632,9.826 6.666,9.911 6.667,9.998 C6.667,10.183 6.518,10.333 6.333,10.334 C6.311,10.333 6.289,10.332 6.267,10.327 C6.246,10.323 6.226,10.317 6.207,10.308 C6.185,10.300 6.165,10.290 6.146,10.277 C6.130,10.264 6.113,10.250 6.097,10.238 C6.002,10.142 5.974,9.999 6.025,9.876 C6.095,9.706 6.290,9.624 6.460,9.694 ZM3.853,8.278 C3.835,8.290 3.814,8.300 3.793,8.308 C3.773,8.318 3.752,8.325 3.730,8.328 C3.709,8.331 3.688,8.333 3.667,8.334 C3.577,8.335 3.491,8.299 3.428,8.235 C3.298,8.105 3.299,7.893 3.430,7.765 C3.563,7.639 3.771,7.639 3.903,7.765 C4.032,7.896 4.032,8.107 3.903,8.238 C3.887,8.251 3.870,8.264 3.853,8.278 Z"/>
  </symbol>

  <symbol id="minus" preserveAspectRatio="xMidYMid" viewBox="0 0 10 2">
    <path fill-rule="evenodd" d="M-0.000,2.000 L-0.000,-0.000 L10.000,-0.000 L10.000,2.000 L-0.000,2.000 Z"/>
  </symbol>

  <symbol id="plus" preserveAspectRatio="none" viewBox="0 0 10 10">
    <path fill-rule="evenodd" d="M10.000,6.000 L6.000,6.000 L6.000,10.000 L4.000,10.000 L4.000,6.000 L-0.000,6.000 L-0.000,4.000 L4.000,4.000 L4.000,-0.000 L6.000,-0.000 L6.000,4.000 L10.000,4.000 L10.000,6.000 Z"/>
  </symbol>

  <symbol id="arrow-right" preserveAspectRatio="none" viewBox="0 0 14 24">
    <path fill-rule="evenodd" stroke-width="2px" stroke-linecap="round" stroke-linejoin="round" fill="none"
    d="M2.195,2.938 L10.562,11.620 L2.195,20.301 "/>
  </symbol>

  <symbol id="arrow-left" preserveAspectRatio="none" viewBox="0 0 14 24">
    <path fill-rule="evenodd" stroke-width="2px" stroke-linecap="round" stroke-linejoin="round" fill="none"
    d="M10.805,2.938 L2.438,11.620 L10.805,20.301 "/>
  </symbol>

   <symbol id="rate-star" preserveAspectRatio="none" viewBox="0 0 96 91">
    <polygon fill="#F7C70A" points="48,0 35,32 0,35 27,57 18,91 48,73 78,91 69,57 96,35 61,32 "/>
  </symbol>

  <symbol id="street-map" preserveAspectRatio="xMidYMid meet" viewBox="0 0 51 55">
    <path fill-rule="evenodd"  fill="rgb(253, 25, 12)"
    d="M27.640,22.157 L27.633,20.533 L29.259,20.526 L29.266,22.150 L27.640,22.157 ZM24.389,22.172 L24.382,20.549 L26.007,20.541 L26.015,22.164 L24.389,22.172 ZM21.138,22.188 L21.130,20.565 L22.756,20.556 L22.764,22.180 L21.138,22.188 ZM15.444,16.457 L16.448,16.457 C16.835,12.271 20.181,8.929 24.373,8.544 L24.373,7.666 L25.999,7.666 L25.999,8.544 C30.190,8.930 33.536,12.271 33.923,16.457 L34.952,16.457 L34.952,18.080 L15.444,18.080 L15.444,16.457 ZM32.291,16.456 C31.886,12.900 28.854,10.128 25.186,10.128 C21.518,10.128 18.486,12.900 18.081,16.456 L32.291,16.456 ZM50.396,44.951 L50.396,54.429 L38.190,50.889 L25.271,54.185 L12.220,51.007 L0.000,54.418 L0.000,21.901 L12.192,18.362 L12.199,18.364 C11.740,16.964 11.506,15.488 11.517,13.989 C11.538,11.065 12.477,8.274 14.232,5.920 L15.536,6.889 C13.989,8.965 13.161,11.424 13.142,14.000 C13.121,16.956 14.177,19.808 16.117,22.034 C16.991,23.038 17.724,23.960 18.357,24.856 L23.816,32.586 C24.108,32.998 24.543,33.259 25.034,33.321 L25.480,33.324 C25.978,33.266 26.421,33.004 26.716,32.586 L32.062,25.016 C32.825,23.935 33.573,22.985 34.348,22.111 C36.310,19.897 37.391,17.049 37.391,14.091 C37.391,10.840 36.119,7.790 33.809,5.499 C31.500,3.209 28.431,1.964 25.179,1.983 C21.909,2.006 18.847,3.323 16.556,5.689 L15.387,4.561 C17.984,1.878 21.457,0.386 25.168,0.360 C28.864,0.335 32.336,1.750 34.955,4.347 C37.574,6.944 39.016,10.405 39.016,14.091 C39.016,15.600 38.767,17.085 38.291,18.490 L50.396,21.896 L50.396,43.292 L48.770,43.292 L48.770,23.125 L38.190,20.148 L37.523,20.313 C37.120,21.105 36.639,21.859 36.083,22.565 L38.160,22.051 L46.928,24.518 L46.928,49.817 L38.248,47.300 L26.079,50.405 L26.079,52.303 L38.217,49.207 L48.770,52.267 L48.770,44.951 L50.396,44.951 ZM39.072,45.849 L45.302,47.656 L45.302,25.747 L38.965,23.964 L39.072,45.849 ZM12.969,20.234 L12.221,20.044 L1.626,23.120 L1.626,52.279 L12.192,49.330 L24.453,52.315 L24.453,50.421 L12.160,47.427 L3.468,49.854 L3.468,24.501 L12.254,21.950 L14.392,22.492 C13.843,21.783 13.366,21.027 12.969,20.234 ZM37.446,45.829 L37.339,23.927 L34.339,24.669 C34.024,25.076 33.708,25.501 33.390,25.951 L28.173,33.339 L30.080,33.351 L30.070,34.974 L20.171,34.916 L20.181,33.293 L22.335,33.306 L17.028,25.792 C16.756,25.406 16.462,25.014 16.145,24.611 L13.076,23.834 L13.051,28.685 L11.425,28.677 L11.450,23.874 L5.094,25.720 L5.094,47.715 L11.337,45.972 L11.417,30.294 L13.043,30.302 L12.962,45.953 L24.453,48.750 L24.453,36.943 L26.079,36.943 L26.079,48.729 L37.446,45.829 Z"/>
  </symbol>

  <symbol id="clock" preserveAspectRatio="xMidYMid meet" viewBox="0 0 55 55">
    <path fill-rule="evenodd"  fill="rgb(253, 25, 12)"
    d="M46.259,47.063 C41.141,52.181 34.336,55.000 27.098,55.000 C19.860,55.000 13.055,52.181 7.937,47.063 C2.819,41.945 0.000,35.141 0.000,27.902 C0.000,20.664 2.819,13.860 7.937,8.741 C13.055,3.624 19.860,0.805 27.098,0.805 C34.336,0.805 41.141,3.624 46.259,8.741 C51.377,13.860 54.195,20.664 54.195,27.902 C54.195,35.141 51.377,41.945 46.259,47.063 ZM27.098,2.534 C13.110,2.534 1.730,13.914 1.730,27.902 C1.730,41.891 13.110,53.270 27.098,53.270 C41.086,53.270 52.466,41.891 52.466,27.902 C52.466,13.914 41.086,2.534 27.098,2.534 ZM7.783,28.768 C7.306,28.768 6.919,28.380 6.919,27.902 C6.919,27.425 7.306,27.037 7.783,27.037 L11.243,27.037 C11.720,27.037 12.107,27.425 12.107,27.902 C12.107,28.380 11.720,28.768 11.243,28.768 L7.783,28.768 ZM27.962,43.757 L27.962,47.217 C27.962,47.695 27.575,48.081 27.098,48.081 C26.620,48.081 26.233,47.695 26.233,47.217 L26.233,43.757 C26.233,43.280 26.620,42.892 27.098,42.892 C27.575,42.892 27.962,43.280 27.962,43.757 ZM26.233,12.047 L26.233,8.588 C26.233,8.110 26.620,7.724 27.098,7.724 C27.575,7.724 27.962,8.110 27.962,8.588 L27.962,12.047 C27.962,12.525 27.575,12.913 27.098,12.913 C26.620,12.913 26.233,12.525 26.233,12.047 ZM30.155,23.622 C29.817,23.960 29.270,23.960 28.932,23.622 C28.594,23.284 28.594,22.737 28.932,22.399 L37.697,13.633 C37.860,13.472 38.079,13.381 38.309,13.381 C38.538,13.381 38.758,13.472 38.920,13.633 L41.366,16.080 C41.704,16.418 41.704,16.966 41.366,17.303 L30.221,28.449 C29.961,29.938 28.660,31.074 27.098,31.074 C26.537,31.074 26.010,30.926 25.553,30.671 L16.503,39.720 C16.334,39.889 16.113,39.973 15.892,39.973 C15.671,39.973 15.449,39.889 15.280,39.720 C14.943,39.382 14.943,38.835 15.280,38.497 L24.330,29.447 C24.159,29.141 24.037,28.805 23.975,28.449 L16.498,20.972 C16.160,20.634 16.160,20.086 16.498,19.749 L18.944,17.303 C19.282,16.965 19.829,16.965 20.167,17.303 L27.644,24.779 C28.598,24.946 29.408,25.540 29.865,26.357 L39.532,16.691 L38.309,15.468 L30.155,23.622 ZM19.556,19.137 L18.333,20.360 L24.330,26.357 C24.617,25.846 25.041,25.421 25.553,25.134 L19.556,19.137 ZM27.098,26.461 C26.303,26.461 25.656,27.108 25.656,27.902 C25.656,28.298 25.817,28.657 26.082,28.923 C26.342,29.183 26.702,29.343 27.098,29.343 C27.893,29.343 28.539,28.697 28.539,27.902 C28.539,27.108 27.893,26.461 27.098,26.461 ZM42.088,27.902 C42.088,27.425 42.475,27.037 42.953,27.037 L46.412,27.037 C46.890,27.037 47.277,27.425 47.277,27.902 C47.277,28.380 46.890,28.768 46.412,28.768 L42.953,28.768 C42.475,28.768 42.088,28.380 42.088,27.902 ZM45.026,43.292 C44.714,43.654 44.168,43.696 43.806,43.384 C43.444,43.072 43.403,42.527 43.714,42.164 C47.127,38.195 49.006,33.130 49.006,27.902 C49.006,15.822 39.178,5.994 27.098,5.994 C15.017,5.994 5.189,15.822 5.189,27.902 C5.189,39.983 15.017,49.811 27.098,49.811 C32.324,49.811 37.390,47.932 41.360,44.519 C41.722,44.208 42.268,44.248 42.579,44.611 C42.891,44.972 42.850,45.519 42.487,45.830 C38.203,49.513 32.738,51.541 27.098,51.541 C14.063,51.541 3.459,40.937 3.459,27.902 C3.459,14.868 14.063,4.264 27.098,4.264 C40.132,4.264 50.736,14.868 50.736,27.902 C50.736,33.543 48.708,39.008 45.026,43.292 Z"/>
  </symbol>

  <symbol id="whatsapp" preserveAspectRatio="xMidYMid meet" viewBox="0 0 21 20">
    <path fill-rule="evenodd"  fill="rgb(255, 255, 255)"
    d="M17.313,3.058 C15.472,1.223 13.025,0.211 10.418,0.211 C5.046,0.211 0.673,4.562 0.671,9.914 C0.670,11.623 1.119,13.293 1.972,14.765 L0.589,19.793 L5.756,18.444 C7.180,19.216 8.783,19.622 10.414,19.624 L10.418,19.624 C15.790,19.624 20.163,15.272 20.165,9.923 C20.166,7.329 19.153,4.892 17.313,3.058 ZM10.418,17.986 L10.415,17.986 C8.961,17.986 7.536,17.597 6.291,16.861 L5.996,16.686 L2.930,17.488 L3.748,14.511 L3.555,14.205 C2.744,12.922 2.316,11.438 2.317,9.914 C2.318,5.468 5.953,1.851 10.421,1.851 C12.585,1.852 14.619,2.691 16.149,4.216 C17.678,5.740 18.520,7.765 18.519,9.923 C18.517,14.367 14.883,17.986 10.418,17.986 ZM14.862,11.946 C14.618,11.824 13.421,11.238 13.197,11.156 C12.974,11.077 12.812,11.036 12.650,11.278 C12.487,11.521 12.021,12.068 11.878,12.228 C11.736,12.391 11.594,12.411 11.351,12.290 C11.107,12.168 10.323,11.913 9.392,11.086 C8.668,10.444 8.180,9.650 8.037,9.407 C7.896,9.162 8.036,9.046 8.144,8.912 C8.408,8.586 8.672,8.244 8.753,8.083 C8.834,7.921 8.794,7.779 8.733,7.658 C8.672,7.537 8.185,6.344 7.982,5.858 C7.784,5.386 7.584,5.448 7.434,5.441 C7.292,5.434 7.130,5.433 6.967,5.433 C6.805,5.433 6.541,5.494 6.318,5.736 C6.095,5.980 5.466,6.565 5.466,7.759 C5.466,8.952 6.338,10.104 6.460,10.266 C6.582,10.428 8.177,12.877 10.620,13.927 C11.201,14.178 11.655,14.327 12.009,14.439 C12.592,14.624 13.123,14.597 13.543,14.535 C14.010,14.464 14.983,13.949 15.186,13.381 C15.389,12.815 15.389,12.330 15.328,12.228 C15.268,12.127 15.105,12.068 14.862,11.946 Z"/>
  </symbol>

  <symbol id="viber" preserveAspectRatio="xMidYMid meet" viewBox="0 0 19 21">
    <path fill-rule="evenodd"  fill="rgb(255, 255, 255)"
    d="M18.548,12.226 C17.986,17.034 14.509,17.500 13.895,17.707 C13.629,17.794 11.293,18.405 8.250,18.138 C6.431,20.331 6.166,20.705 5.581,20.513 C5.070,20.350 5.100,19.544 5.100,19.544 L5.104,17.551 L5.100,17.551 C0.655,16.246 0.717,11.434 0.769,8.867 C0.821,6.301 1.299,4.227 2.653,2.816 C5.670,-0.076 14.184,0.285 16.705,2.706 L16.705,2.707 C18.267,4.126 19.133,7.258 18.548,12.226 ZM15.717,3.709 C13.815,1.906 6.350,1.347 3.704,3.849 C2.557,5.031 2.168,6.787 2.127,8.930 C2.086,11.074 1.864,15.168 5.633,16.257 C5.633,16.257 5.618,19.301 5.618,19.567 C5.615,19.971 5.830,19.991 6.026,19.786 C6.625,19.158 8.550,16.736 8.550,16.736 C11.130,16.910 13.185,16.378 13.406,16.305 C13.924,16.129 16.741,15.874 17.219,11.859 C17.214,11.658 18.042,5.787 15.717,3.709 ZM14.088,9.698 C14.066,6.551 12.056,4.836 9.616,4.818 C9.301,4.814 9.301,4.320 9.616,4.320 C12.344,4.338 14.539,6.303 14.565,9.694 L14.566,9.694 C14.570,10.026 14.088,10.028 14.088,9.698 ZM12.074,8.741 C12.089,9.074 11.611,9.097 11.596,8.765 C11.555,7.914 11.174,7.501 10.389,7.454 C10.071,7.436 10.101,6.936 10.415,6.958 C11.448,7.015 12.022,7.631 12.074,8.741 ZM10.053,5.617 C12.201,5.778 13.343,7.319 13.304,9.187 C13.299,9.519 12.818,9.504 12.826,9.176 C12.863,7.541 11.882,6.257 10.019,6.115 C9.706,6.094 9.738,5.592 10.053,5.617 ZM10.453,12.114 C10.453,12.114 10.790,12.145 10.971,11.907 L11.326,11.446 C11.496,11.213 11.907,11.066 12.311,11.303 C12.855,11.623 13.548,12.123 14.007,12.571 C14.266,12.792 14.325,13.129 14.147,13.484 L14.147,13.489 C13.748,14.225 13.000,15.035 12.230,14.775 L12.223,14.763 C11.442,14.536 9.602,13.549 8.439,12.583 C5.965,10.544 5.189,7.844 4.767,6.996 C4.519,6.193 5.293,5.415 6.000,4.995 L6.007,4.995 C6.347,4.811 6.674,4.872 6.891,5.146 C7.098,5.440 7.504,5.818 8.108,6.919 C8.335,7.342 8.194,7.769 7.972,7.948 L7.527,8.318 C7.302,8.506 7.332,8.857 7.332,8.857 C7.332,8.857 7.991,11.456 10.453,12.114 Z"/>
  </symbol>

  <symbol id="telegram" preserveAspectRatio="xMidYMid meet" viewBox="0 0 20 18">
    <path fill-rule="evenodd"  fill="rgb(255, 255, 255)"
    d="M0.786,8.477 L5.281,10.147 L7.020,15.716 C7.132,16.073 7.570,16.204 7.861,15.968 L10.366,13.935 C10.628,13.723 11.002,13.711 11.277,13.909 L15.795,17.176 C16.107,17.401 16.547,17.232 16.625,16.857 L19.935,1.006 C20.021,0.598 19.617,0.256 19.226,0.408 L0.781,7.491 C0.326,7.665 0.330,8.307 0.786,8.477 ZM6.740,9.259 L15.524,3.872 C15.682,3.775 15.844,3.990 15.708,4.114 L8.459,10.821 C8.205,11.058 8.040,11.375 7.994,11.718 L7.747,13.538 C7.714,13.782 7.371,13.806 7.303,13.571 L6.354,10.249 C6.245,9.870 6.403,9.465 6.740,9.259 Z"/>
  </symbol>

  <symbol id="vk" preserveAspectRatio="xMidYMid meet" viewBox="0 0 21 13">
    <path fill-rule="evenodd"  fill="rgb(255, 255, 255)"
    d="M19.408,10.027 C18.967,9.501 18.467,9.029 17.983,8.572 C17.810,8.410 17.633,8.241 17.461,8.075 C16.968,7.595 16.950,7.415 17.340,6.870 C17.610,6.494 17.896,6.118 18.173,5.755 C18.424,5.425 18.683,5.083 18.932,4.741 L18.983,4.671 C19.459,4.016 19.950,3.338 20.212,2.521 C20.280,2.306 20.351,1.988 20.188,1.723 C20.025,1.458 19.709,1.378 19.485,1.340 C19.374,1.321 19.265,1.318 19.163,1.318 L16.050,1.317 L16.024,1.315 C15.553,1.315 15.236,1.536 15.054,1.991 C14.881,2.426 14.690,2.888 14.473,3.328 C14.040,4.203 13.490,5.211 12.695,6.053 L12.661,6.089 C12.567,6.189 12.460,6.303 12.383,6.303 C12.371,6.303 12.358,6.301 12.343,6.296 C12.178,6.232 12.068,5.835 12.073,5.650 C12.073,5.647 12.073,5.645 12.073,5.643 L12.071,2.059 C12.071,2.047 12.070,2.034 12.068,2.022 C11.989,1.439 11.814,1.077 11.151,0.947 C11.133,0.944 11.115,0.943 11.097,0.943 L7.860,0.943 C7.333,0.943 7.043,1.156 6.769,1.476 C6.696,1.561 6.542,1.738 6.618,1.954 C6.695,2.173 6.946,2.220 7.028,2.235 C7.432,2.313 7.661,2.559 7.725,2.990 C7.838,3.738 7.852,4.537 7.769,5.504 C7.746,5.772 7.700,5.980 7.625,6.158 C7.607,6.199 7.545,6.334 7.481,6.334 C7.461,6.334 7.403,6.326 7.297,6.254 C7.046,6.082 6.862,5.837 6.648,5.536 C5.919,4.509 5.308,3.380 4.778,2.081 C4.582,1.602 4.215,1.335 3.745,1.327 C3.228,1.319 2.760,1.315 2.313,1.315 C1.825,1.315 1.373,1.320 0.931,1.329 C0.553,1.336 0.291,1.448 0.153,1.665 C0.015,1.881 0.024,2.166 0.180,2.510 C1.426,5.268 2.555,7.273 3.842,9.012 C4.743,10.228 5.648,11.070 6.688,11.662 C7.783,12.286 9.011,12.590 10.441,12.590 C10.603,12.590 10.771,12.586 10.940,12.578 C11.771,12.537 12.079,12.238 12.118,11.432 C12.137,11.020 12.182,10.588 12.385,10.220 C12.513,9.988 12.633,9.988 12.672,9.988 C12.748,9.988 12.842,10.023 12.943,10.088 C13.124,10.206 13.279,10.363 13.406,10.501 C13.526,10.631 13.644,10.764 13.762,10.895 C14.018,11.181 14.282,11.475 14.559,11.755 C15.163,12.367 15.828,12.637 16.593,12.578 L19.447,12.578 C19.453,12.578 19.459,12.578 19.466,12.578 C19.750,12.560 19.996,12.402 20.141,12.147 C20.321,11.830 20.317,11.427 20.132,11.067 C19.921,10.660 19.647,10.313 19.408,10.027 Z"/>
  </symbol>

  <symbol id="instagram" preserveAspectRatio="xMidYMid meet" viewBox="0 0 18 18">
    <path fill-rule="evenodd"  fill="rgb(255, 255, 255)"
    d="M17.887,12.669 C17.845,13.622 17.690,14.274 17.470,14.845 C17.003,16.051 16.050,17.004 14.844,17.470 C14.276,17.691 13.621,17.845 12.668,17.886 C11.711,17.929 11.406,17.940 8.970,17.940 C6.534,17.940 6.229,17.929 5.272,17.886 C4.318,17.845 3.667,17.691 3.095,17.470 C2.499,17.246 1.956,16.892 1.507,16.436 C1.052,15.987 0.698,15.448 0.470,14.845 C0.249,14.277 0.095,13.622 0.053,12.669 C0.011,11.711 0.000,11.407 0.000,8.971 C0.000,6.536 0.011,6.231 0.056,5.271 C0.098,4.317 0.253,3.666 0.473,3.094 C0.698,2.499 1.052,1.955 1.507,1.507 C1.956,1.047 2.496,0.697 3.099,0.470 C3.667,0.248 4.322,0.095 5.275,0.053 C6.232,0.010 6.537,0.001 8.973,0.001 C11.409,0.001 11.714,0.010 12.675,0.056 C13.628,0.098 14.280,0.252 14.851,0.473 C15.447,0.697 15.990,1.052 16.439,1.507 C16.898,1.955 17.249,2.495 17.477,3.098 C17.697,3.666 17.852,4.321 17.894,5.274 C17.936,6.231 17.939,6.536 17.939,8.971 C17.939,11.407 17.929,11.711 17.887,12.669 ZM16.278,5.355 C16.239,4.482 16.092,4.006 15.969,3.690 C15.826,3.302 15.598,2.950 15.300,2.659 C15.012,2.362 14.658,2.134 14.269,1.990 C13.954,1.868 13.481,1.720 12.605,1.682 C11.662,1.640 11.378,1.630 8.980,1.630 C6.586,1.630 6.302,1.640 5.356,1.682 C4.483,1.720 4.007,1.868 3.691,1.990 C3.302,2.134 2.951,2.362 2.661,2.659 C2.359,2.947 2.131,3.302 1.987,3.690 C1.865,4.006 1.718,4.479 1.679,5.355 C1.637,6.297 1.627,6.585 1.627,8.979 C1.627,11.372 1.637,11.656 1.679,12.602 C1.718,13.475 1.865,13.951 1.987,14.267 C2.131,14.655 2.359,15.006 2.657,15.297 C2.944,15.595 3.298,15.823 3.687,15.966 C4.003,16.090 4.476,16.236 5.352,16.274 C6.295,16.317 6.583,16.328 8.977,16.328 C11.371,16.328 11.655,16.317 12.601,16.274 C13.474,16.236 13.950,16.090 14.266,15.966 C15.048,15.665 15.668,15.045 15.969,14.263 C16.092,13.948 16.239,13.475 16.278,12.598 C16.320,11.652 16.330,11.372 16.330,8.979 C16.330,6.585 16.320,6.301 16.278,5.355 ZM13.765,5.256 C13.170,5.256 12.689,4.775 12.689,4.181 C12.689,3.586 13.170,3.105 13.765,3.105 C14.359,3.105 14.841,3.586 14.841,4.181 C14.841,4.775 14.359,5.256 13.765,5.256 ZM8.973,13.580 C6.429,13.580 4.364,11.516 4.364,8.971 C4.364,6.427 6.429,4.363 8.973,4.363 C11.518,4.363 13.582,6.427 13.582,8.971 C13.582,11.516 11.518,13.580 8.973,13.580 ZM8.973,5.982 C7.322,5.982 5.983,7.321 5.983,8.971 C5.983,10.622 7.322,11.961 8.973,11.961 C10.624,11.961 11.963,10.622 11.963,8.971 C11.963,7.321 10.624,5.982 8.973,5.982 Z"/>
  </symbol>

  <symbol id="facebook" preserveAspectRatio="xMidYMid meet" viewBox="0 0 10 18">
    <path fill-rule="evenodd"  fill="rgb(255, 255, 255)"
    d="M9.067,0.491 L6.826,0.488 C4.308,0.488 2.680,2.132 2.680,4.675 L2.680,6.606 L0.427,6.606 C0.232,6.606 0.074,6.761 0.074,6.953 L0.074,9.751 C0.074,9.942 0.232,10.097 0.427,10.097 L2.680,10.097 L2.680,17.156 C2.680,17.347 2.838,17.503 3.033,17.503 L5.973,17.503 C6.168,17.503 6.325,17.347 6.325,17.156 L6.325,10.097 L8.960,10.097 C9.155,10.097 9.313,9.942 9.313,9.751 L9.314,6.953 C9.314,6.861 9.277,6.773 9.211,6.707 C9.145,6.642 9.055,6.606 8.961,6.606 L6.325,6.606 L6.325,4.969 C6.325,4.182 6.516,3.783 7.557,3.783 L9.067,3.782 C9.261,3.782 9.419,3.627 9.419,3.436 L9.419,0.838 C9.419,0.647 9.261,0.492 9.067,0.491 Z"/>
  </symbol>

  <symbol id="arrow-down" preserveAspectRatio="none" viewBox="0 0 512 512">
		<path d="M505.755,123.592c-8.341-8.341-21.824-8.341-30.165,0L256.005,343.176L36.421,123.592c-8.341-8.341-21.824-8.341-30.165,0    s-8.341,21.824,0,30.165l234.667,234.667c4.16,4.16,9.621,6.251,15.083,6.251c5.462,0,10.923-2.091,15.083-6.251l234.667-234.667    C514.096,145.416,514.096,131.933,505.755,123.592z"/>
  </symbol>

  <symbol id="close-btn" preserveAspectRatio="xMidYMid meet" viewBox="0 0 17 17">
    <path fill-rule="evenodd"
    d="M2.688,16.724 L0.567,14.604 L6.379,8.794 L0.567,2.982 L2.688,0.861 L8.499,6.672 L14.310,0.861 L16.431,2.982 L10.619,8.794 L16.429,14.602 L14.308,16.723 L8.499,10.914 L2.688,16.724 Z"/>
  </symbol>

  <symbol id="trash-icon" preserveAspectRatio="xMidYMid meet" viewBox="0 0 19 21">
    <path fill-rule="evenodd"  opacity="0.6" fill="rgb(255, 255, 255)"
    d="M17.572,4.110 L16.571,4.110 L16.571,17.095 C16.571,18.724 15.243,20.050 13.611,20.050 L4.901,20.050 C3.269,20.050 1.940,18.724 1.940,17.095 L1.940,4.110 L0.940,4.110 C0.632,4.110 0.386,3.865 0.386,3.558 C0.386,3.251 0.632,3.005 0.940,3.005 L5.090,3.005 L5.090,2.330 C5.090,1.122 6.074,0.140 7.283,0.140 L11.228,0.140 C12.438,0.140 13.422,1.122 13.422,2.330 L13.422,3.005 L17.572,3.005 C17.879,3.005 18.125,3.251 18.125,3.558 C18.125,3.865 17.879,4.110 17.572,4.110 ZM12.315,2.330 C12.315,1.732 11.827,1.245 11.228,1.245 L7.283,1.245 C6.685,1.245 6.197,1.732 6.197,2.330 L6.197,3.005 L12.315,3.005 L12.315,2.330 ZM15.468,4.110 L3.048,4.110 L3.048,17.095 C3.048,18.114 3.880,18.945 4.901,18.945 L13.611,18.945 C14.632,18.945 15.464,18.114 15.464,17.095 L15.468,17.095 L15.468,4.110 ZM12.868,16.354 C12.561,16.354 12.315,16.108 12.315,15.801 L12.315,7.250 C12.315,6.943 12.561,6.697 12.868,6.697 C13.176,6.697 13.422,6.943 13.422,7.250 L13.422,15.801 C13.422,16.108 13.176,16.354 12.868,16.354 ZM9.256,16.964 C8.948,16.964 8.702,16.714 8.702,16.407 L8.702,6.644 C8.702,6.337 8.948,6.092 9.256,6.092 C9.563,6.092 9.809,6.337 9.809,6.644 L9.809,16.411 C9.809,16.718 9.563,16.964 9.256,16.964 ZM5.643,16.354 C5.340,16.354 5.090,16.108 5.090,15.801 L5.090,7.250 C5.090,6.943 5.336,6.697 5.643,6.697 C5.951,6.697 6.197,6.943 6.197,7.250 L6.197,15.801 C6.197,16.108 5.951,16.354 5.643,16.354 Z"/>
  </symbol>

  <symbol id="cart" viewBox="0 0 450.391 450.391" preserveAspectRatio="xMidYMid meet">
    <path d="M143.673,350.322c-25.969,0-47.02,21.052-47.02,47.02c0,25.969,21.052,47.02,47.02,47.02     c25.969,0,47.02-21.052,47.02-47.02C190.694,371.374,169.642,350.322,143.673,350.322z M143.673,423.465     c-14.427,0-26.122-11.695-26.122-26.122c0-14.427,11.695-26.122,26.122-26.122c14.427,0,26.122,11.695,26.122,26.122     C169.796,411.77,158.1,423.465,143.673,423.465z"/>
    <path d="M342.204,350.322c-25.969,0-47.02,21.052-47.02,47.02c0,25.969,21.052,47.02,47.02,47.02s47.02-21.052,47.02-47.02     C389.224,371.374,368.173,350.322,342.204,350.322z M342.204,423.465c-14.427,0-26.122-11.695-26.122-26.122     c0-14.427,11.695-26.122,26.122-26.122s26.122,11.695,26.122,26.122C368.327,411.77,356.631,423.465,342.204,423.465z"/>
    <path d="M448.261,76.037c-2.176-2.377-5.153-3.865-8.359-4.18L99.788,67.155L90.384,38.42     C83.759,19.211,65.771,6.243,45.453,6.028H10.449C4.678,6.028,0,10.706,0,16.477s4.678,10.449,10.449,10.449h35.004     c11.361,0.251,21.365,7.546,25.078,18.286l66.351,200.098l-5.224,12.016c-5.827,15.026-4.077,31.938,4.702,45.453     c8.695,13.274,23.323,21.466,39.184,21.943h203.233c5.771,0,10.449-4.678,10.449-10.449c0-5.771-4.678-10.449-10.449-10.449     H175.543c-8.957-0.224-17.202-4.936-21.943-12.539c-4.688-7.51-5.651-16.762-2.612-25.078l4.18-9.404l219.951-22.988     c24.16-2.661,44.034-20.233,49.633-43.886l25.078-105.012C450.96,81.893,450.36,78.492,448.261,76.037z M404.376,185.228     c-3.392,15.226-16.319,26.457-31.869,27.69l-217.339,22.465L106.58,88.053l320.261,4.702L404.376,185.228z"/>
  </symbol>

  <symbol id="location" viewBox="0 0 512 512" preserveAspectRatio="xMidYMid meet">
		<path d="M256,0C156.748,0,76,80.748,76,180c0,33.534,9.289,66.26,26.869,94.652l142.885,230.257    c2.737,4.411,7.559,7.091,12.745,7.091c0.04,0,0.079,0,0.119,0c5.231-0.041,10.063-2.804,12.75-7.292L410.611,272.22    C427.221,244.428,436,212.539,436,180C436,80.748,355.252,0,256,0z M384.866,256.818L258.272,468.186l-129.905-209.34    C113.734,235.214,105.8,207.95,105.8,180c0-82.71,67.49-150.2,150.2-150.2S406.1,97.29,406.1,180    C406.1,207.121,398.689,233.688,384.866,256.818z"/>
		<path d="M256,90c-49.626,0-90,40.374-90,90c0,49.309,39.717,90,90,90c50.903,0,90-41.233,90-90C346,130.374,305.626,90,256,90z     M256,240.2c-33.257,0-60.2-27.033-60.2-60.2c0-33.084,27.116-60.2,60.2-60.2s60.1,27.116,60.1,60.2    C316.1,212.683,289.784,240.2,256,240.2z"/>
  </symbol>

  <symbol id="rate-star" viewBox="0 0 16 16" preserveAspectRatio="none">
    <path d="M27.6763021,15.5856893 C27.3967099,15.5873185 27.1476087,15.3986703 27.058239,15.1176205 L25.6180631,10.4686181 C25.527641,10.1883214 25.2792629,10 25,10 C24.7207371,10 24.472359,10.1883214 24.3819369,10.4686181 L22.941761,15.1176205 C22.8523913,15.3986703 22.6032901,15.5873185 22.3236979,15.5856893 L17.6483017,15.5856893 C17.3705088,15.5790764 17.1210237,15.7651175 17.0328302,16.0446464 C16.9446367,16.3241754 17.0382862,16.6320544 17.2638605,16.804174 L21.0579992,19.696036 C21.2821731,19.8649265 21.3768186,20.1688097 21.2916212,20.4461382 L19.8455309,25.115846 C19.7833825,25.3241508 19.8194897,25.5514537 19.9425569,25.7266474 C20.0656241,25.901841 20.2606228,26.0035313 20.4665513,25.9999063 C20.6038747,25.9992272 20.7374504,25.9523221 20.8480352,25.8659482 L24.6155588,22.9947917 C24.8454856,22.8203755 25.1545144,22.8203755 25.3844412,22.9947917 L29.1519648,25.8659482 C29.2625496,25.9523221 29.3961253,25.9992272 29.5334487,25.9999063 C29.7393772,26.0035313 29.9343759,25.901841 30.0574431,25.7266474 C30.1805103,25.5514537 30.2166175,25.3241508 30.1544691,25.115846 L28.7083788,20.4461382 C28.6231814,20.1688097 28.7178269,19.8649265 28.9420008,19.696036 L32.7361395,16.804174 C32.9617138,16.6320544 33.0553633,16.3241754 32.9671698,16.0446464 C32.8789763,15.7651175 32.6294912,15.5790764 32.3516983,15.5856893 L27.6763021,15.5856893 Z"></path>
  </symbol>

  <symbol id="rate-star-half" viewBox="0 0 16 16" preserveAspectRatio="none">
    <defs>
      <linearGradient id="inline-svg-42-1">
        <stop offset="50%" stop-color="#FFD200"></stop>
        <stop offset="50%" stop-color="#999" stop-opacity="0.3"></stop>
      </linearGradient>
    </defs>
    <path class="svg-star-rounded" fill="url(#inline-svg-42-1)" d="M9.24429 0.293816C9.42769 -0.0778064 9.95762 -0.0778074 10.141 0.293815L12.6056 5.28753C12.6784 5.43511 12.8192 5.53739 12.982 5.56106L18.4929 6.36184C18.903 6.42143 19.0668 6.92541 18.77 7.21468L14.7823 11.1018C14.6645 11.2166 14.6107 11.3821 14.6385 11.5443L15.5799 17.0329C15.65 17.4414 15.2212 17.7529 14.8544 17.56L9.92533 14.9687C9.77966 14.8921 9.60565 14.8921 9.45998 14.9687L4.53089 17.56C4.16408 17.7529 3.73536 17.4414 3.80541 17.0329L4.74679 11.5443C4.77461 11.3821 4.72083 11.2166 4.60299 11.1018L0.615268 7.21468C0.318509 6.92541 0.482264 6.42143 0.892374 6.36184L6.40327 5.56106C6.56612 5.53739 6.70691 5.43511 6.77974 5.28753L9.24429 0.293816Z"></path>
  </symbol>
</svg>
